<svg width="25" height="24" viewBox="0 0 25 24" fill="none" xmlns="http://www.w3.org/2000/svg">
<path d="M16.69 2H8.31C4.67 2 2.5 4.17 2.5 7.81V16.18C2.5 19.83 4.67 22 8.31 22H16.68C20.32 22 22.49 19.83 22.49 16.19V7.81C22.5 4.17 20.33 2 16.69 2ZM11.49 17C11.49 17.1 11.47 17.19 11.43 17.29C11.35 17.47 11.21 17.62 11.02 17.7C10.93 17.74 10.83 17.76 10.73 17.76C10.63 17.76 10.54 17.74 10.44 17.7C10.35 17.66 10.27 17.61 10.2 17.54L7.25 14.59C6.96 14.3 6.96 13.82 7.25 13.53C7.54 13.24 8.02 13.24 8.31 13.53L9.98 15.2V7C9.98 6.59 10.32 6.25 10.73 6.25C11.14 6.25 11.49 6.59 11.49 7V17ZM17.74 10.48C17.59 10.63 17.4 10.7 17.21 10.7C17.02 10.7 16.83 10.63 16.68 10.48L15.01 8.81V17C15.01 17.41 14.67 17.75 14.26 17.75C13.85 17.75 13.51 17.41 13.51 17V7C13.51 6.9 13.53 6.81 13.57 6.71C13.65 6.53 13.79 6.38 13.98 6.3C14.16 6.22 14.37 6.22 14.55 6.3C14.64 6.34 14.72 6.39 14.79 6.46L17.74 9.41C18.03 9.71 18.03 10.19 17.74 10.48Z" fill="#4B0082"/>
</svg>
