<svg width="25" height="24" viewBox="0 0 25 24" fill="none" xmlns="http://www.w3.org/2000/svg">
<path d="M22.5 19V22H2.5V19C2.5 18.45 2.95 18 3.5 18H21.5C22.05 18 22.5 18.45 22.5 19Z" fill="#4B0082" stroke="#4B0082" stroke-width="1.5" stroke-miterlimit="10" stroke-linecap="round" stroke-linejoin="round"/>
<path d="M7.5 11H5.5V18H7.5V11Z" fill="#4B0082"/>
<path d="M11.5 11H9.5V18H11.5V11Z" fill="#4B0082"/>
<path d="M15.5 11H13.5V18H15.5V11Z" fill="#4B0082"/>
<path d="M19.5 11H17.5V18H19.5V11Z" fill="#4B0082"/>
<path d="M23.5 22.75H1.5C1.09 22.75 0.75 22.41 0.75 22C0.75 21.59 1.09 21.25 1.5 21.25H23.5C23.91 21.25 24.25 21.59 24.25 22C24.25 22.41 23.91 22.75 23.5 22.75Z" fill="#4B0082"/>
<path d="M21.87 5.75003L12.87 2.15003C12.67 2.07003 12.33 2.07003 12.13 2.15003L3.13 5.75003C2.78 5.89003 2.5 6.30003 2.5 6.68003V10C2.5 10.55 2.95 11 3.5 11H21.5C22.05 11 22.5 10.55 22.5 10V6.68003C22.5 6.30003 22.22 5.89003 21.87 5.75003ZM12.5 8.50003C11.67 8.50003 11 7.83003 11 7.00003C11 6.17003 11.67 5.50003 12.5 5.50003C13.33 5.50003 14 6.17003 14 7.00003C14 7.83003 13.33 8.50003 12.5 8.50003Z" fill="#4B0082"/>
</svg>
