<svg width="25" height="24" viewBox="0 0 25 24" fill="none" xmlns="http://www.w3.org/2000/svg">
<g id="vuesax/bold/money-tick">
<g id="money-tick">
<path id="Vector" d="M17.5 4H7.5C4.5 4 2.5 5.5 2.5 9V12.56C2.5 12.93 2.88 13.16 3.21 13.01C4.19 12.56 5.32 12.39 6.51 12.6C9.14 13.07 11.07 15.51 11 18.18C10.99 18.6 10.93 19.01 10.82 19.41C10.74 19.72 10.99 20.01 11.31 20.01H17.5C20.5 20.01 22.5 18.51 22.5 15.01V9C22.5 5.5 20.5 4 17.5 4ZM12.5 14.5C11.12 14.5 10 13.38 10 12C10 10.62 11.12 9.5 12.5 9.5C13.88 9.5 15 10.62 15 12C15 13.38 13.88 14.5 12.5 14.5ZM19.75 14C19.75 14.41 19.41 14.75 19 14.75C18.59 14.75 18.25 14.41 18.25 14V10C18.25 9.59 18.59 9.25 19 9.25C19.41 9.25 19.75 9.59 19.75 10V14Z" fill="#4B0082"/>
<path id="Vector_2" d="M5.5 14C3.29 14 1.5 15.79 1.5 18C1.5 18.75 1.71 19.46 2.08 20.06C2.77 21.22 4.04 22 5.5 22C6.96 22 8.23 21.22 8.92 20.06C9.29 19.46 9.5 18.75 9.5 18C9.5 15.79 7.71 14 5.5 14ZM7.47 17.67L5.34 19.64C5.2 19.77 5.01 19.84 4.83 19.84C4.64 19.84 4.45 19.77 4.3 19.62L3.31 18.63C3.02 18.34 3.02 17.86 3.31 17.57C3.6 17.28 4.08 17.28 4.37 17.57L4.85 18.05L6.45 16.57C6.75 16.29 7.23 16.31 7.51 16.61C7.79 16.91 7.77 17.39 7.47 17.67Z" fill="#4B0082"/>
</g>
</g>
</svg>
