<svg width="25" height="24" viewBox="0 0 25 24" fill="none" xmlns="http://www.w3.org/2000/svg">
<path d="M5.5 14C3.29 14 1.5 15.79 1.5 18C1.5 20.21 3.29 22 5.5 22C7.71 22 9.5 20.21 9.5 18C9.5 15.79 7.71 14 5.5 14ZM6.5 17.68C6.5 18.29 6.17 18.87 5.65 19.18L4.89 19.64C4.77 19.72 4.63 19.75 4.5 19.75C4.25 19.75 4 19.62 3.86 19.39C3.65 19.04 3.76 18.57 4.12 18.36L4.88 17.9C4.95 17.86 5 17.77 5 17.69V16.76C5 16.34 5.34 16 5.75 16C6.16 16 6.5 16.34 6.5 16.75V17.68Z" fill="#4B0082"/>
<path d="M17.5 4H7.5C4.5 4 2.5 5.5 2.5 9V12.56C2.5 12.93 2.88 13.16 3.21 13.01C4.19 12.56 5.32 12.39 6.51 12.6C9.14 13.07 11.07 15.51 11 18.18C10.99 18.6 10.93 19.01 10.82 19.41C10.74 19.72 10.99 20.01 11.31 20.01H17.5C20.5 20.01 22.5 18.51 22.5 15.01V9C22.5 5.5 20.5 4 17.5 4ZM12.5 14.5C11.12 14.5 10 13.38 10 12C10 10.62 11.12 9.5 12.5 9.5C13.88 9.5 15 10.62 15 12C15 13.38 13.88 14.5 12.5 14.5ZM19.75 14C19.75 14.41 19.41 14.75 19 14.75C18.59 14.75 18.25 14.41 18.25 14V10C18.25 9.59 18.59 9.25 19 9.25C19.41 9.25 19.75 9.59 19.75 10V14Z" fill="#4B0082"/>
</svg>
