<svg width="25" height="24" viewBox="0 0 25 24" fill="none" xmlns="http://www.w3.org/2000/svg">
<g id="piggy-bank" clipPath="url(#clip0_3988_47062)">
<path id="Vector" d="M23.8324 10.8333H22.6032C22.2366 10 21.7032 9.2625 21.0449 8.64583L21.8324 5.5H20.4991C19.2741 5.5 18.1907 6.0625 17.4574 6.92917C17.1407 6.88333 16.8282 6.83333 16.4991 6.83333H11.1657C7.94073 6.83333 5.25323 9.125 4.63239 12.1667H2.83239C2.21573 12.1667 1.72823 11.6042 1.85323 10.9667C1.94489 10.4917 2.39073 10.1667 2.87406 10.1667H2.91573C3.05323 10.1667 3.16573 10.0542 3.16573 9.91667V9.08333C3.16573 8.94583 3.05323 8.83333 2.91573 8.83333C1.72823 8.83333 0.669894 9.68333 0.519894 10.8583C0.336561 12.2833 1.44489 13.5 2.83239 13.5H4.49906C4.49906 15.675 5.55739 17.5875 7.16573 18.8042V22.1667C7.16573 22.5333 7.46573 22.8333 7.83239 22.8333H10.4991C10.8657 22.8333 11.1657 22.5333 11.1657 22.1667V20.1667H16.4991V22.1667C16.4991 22.5333 16.7991 22.8333 17.1657 22.8333H19.8324C20.1991 22.8333 20.4991 22.5333 20.4991 22.1667V18.8042C20.9907 18.4333 21.4282 17.9958 21.8032 17.5H23.8324C24.1991 17.5 24.4991 17.2 24.4991 16.8333V11.5C24.4991 11.1333 24.1991 10.8333 23.8324 10.8333ZM18.4991 13.5C18.1324 13.5 17.8324 13.2 17.8324 12.8333C17.8324 12.4667 18.1324 12.1667 18.4991 12.1667C18.8657 12.1667 19.1657 12.4667 19.1657 12.8333C19.1657 13.2 18.8657 13.5 18.4991 13.5ZM11.1657 5.5H16.4991C16.7241 5.5 16.9449 5.51667 17.1616 5.53333C17.1616 5.52083 17.1657 5.5125 17.1657 5.5C17.1657 3.29167 15.3741 1.5 13.1657 1.5C10.9574 1.5 9.16573 3.29167 9.16573 5.5C9.16573 5.5875 9.18656 5.67083 9.19073 5.75833C9.82406 5.59583 10.4824 5.5 11.1657 5.5Z" fill="#4B0082"/>
</g>
<defs>
<clipPath id="clip0_3988_47062">
<rect width="24" height="24" fill="white" transform="translate(0.5)"/>
</clipPath>
</defs>
</svg>
