<svg width="25" height="24" viewBox="0 0 25 24" fill="none" xmlns="http://www.w3.org/2000/svg">
<path d="M16.6401 2.95998L7.61012 5.95998C1.54012 7.98998 1.54012 11.3 7.61012 13.32L10.2901 14.21L11.1801 16.89C13.2001 22.96 16.5201 22.96 18.5401 16.89L21.5501 7.86998C22.8901 3.81998 20.6901 1.60998 16.6401 2.95998ZM16.9601 8.33998L13.1601 12.16C13.0101 12.31 12.8201 12.38 12.6301 12.38C12.4401 12.38 12.2501 12.31 12.1001 12.16C11.8101 11.87 11.8101 11.39 12.1001 11.1L15.9001 7.27998C16.1901 6.98998 16.6701 6.98998 16.9601 7.27998C17.2501 7.56998 17.2501 8.04998 16.9601 8.33998Z" fill="#4B0082"/>
</svg>
