<svg width="28" height="28" viewBox="0 0 28 28" fill="none" xmlns="http://www.w3.org/2000/svg">
<g id="vuesax/bold/tick-square">
<g id="tick-square">
<path id="Vector" d="M18.887 2.3335H9.11036C4.8637 2.3335 2.33203 4.86516 2.33203 9.11183V18.8768C2.33203 23.1352 4.8637 25.6668 9.11036 25.6668H18.8754C23.122 25.6668 25.6537 23.1352 25.6537 18.8885V9.11183C25.6654 4.86516 23.1337 2.3335 18.887 2.3335ZM19.5754 11.3168L12.9604 17.9318C12.797 18.0952 12.5754 18.1885 12.342 18.1885C12.1087 18.1885 11.887 18.0952 11.7237 17.9318L8.42203 14.6302C8.0837 14.2918 8.0837 13.7318 8.42203 13.3935C8.76036 13.0552 9.32036 13.0552 9.6587 13.3935L12.342 16.0768L18.3387 10.0802C18.677 9.74183 19.237 9.74183 19.5754 10.0802C19.9137 10.4185 19.9137 10.9668 19.5754 11.3168Z" fill="#4B0082"/>
</g>
</g>
</svg>
