<svg width="578" height="340" viewBox="0 0 578 340" fill="none" xmlns="http://www.w3.org/2000/svg">
<g clip-path="url(#clip0_1472_14953)">
<path d="M44.8007 339.374C44.8007 339.374 -24.5683 253.808 9.33144 165.715C31.4255 108.294 114.324 76.8307 161.107 108.294C181.031 121.696 244.954 108.746 279.081 53.2672C345.411 -54.5454 602.448 8.68936 534.748 176.458C503.817 253.11 596.816 259.473 554.798 339.543L44.8007 339.374Z" fill="#EBF3FA"/>
<path d="M260.468 187.365L199.344 253.432L111.266 171.943L111.264 171.94L74.1523 137.607L135.276 71.5397L204.57 135.65L260.468 187.365Z" fill="#CFE7FF"/>
<path d="M246.48 188.129L199.025 239.423L86.5 135.314L133.954 84.0227L246.48 188.129ZM203.286 231.682L239.072 193C239.649 192.376 240.098 191.644 240.393 190.846C240.688 190.048 240.822 189.2 240.789 188.35C240.756 187.501 240.556 186.666 240.2 185.893C239.844 185.12 239.34 184.426 238.715 183.848L138.911 91.5117C138.275 90.9236 137.53 90.4664 136.718 90.1663C135.906 89.8661 135.043 89.7288 134.178 89.7623C133.312 89.7958 132.462 89.9994 131.676 90.3614C130.889 90.7235 130.182 91.2369 129.594 91.8723L93.9578 130.397C92.7801 131.67 92.1562 133.359 92.2234 135.091C92.2907 136.824 93.0435 138.459 94.3163 139.637L194.188 232.034C195.442 233.192 197.104 233.805 198.809 233.739C200.515 233.673 202.125 232.933 203.286 231.682Z" fill="#C0D8FB"/>
<path d="M166.858 180.517C177.238 180.314 185.489 171.735 185.286 161.354C185.083 150.974 176.503 142.724 166.123 142.927C155.743 143.13 147.493 151.709 147.696 162.089C147.899 172.47 156.478 180.72 166.858 180.517Z" fill="#C0D8FB"/>
<path d="M284.447 175.049L196.656 194.898L170.2 77.856V77.8539L159.051 28.5405L246.839 8.69543L267.655 100.773L284.447 175.049Z" fill="#DCEAFF"/>
<path d="M272.481 167.757L204.323 183.164L170.523 33.6396L238.681 18.2322L272.481 167.757ZM212.217 179.198L263.621 167.577C264.45 167.39 265.235 167.041 265.93 166.55C266.625 166.06 267.216 165.437 267.67 164.718C268.124 163.998 268.432 163.197 268.576 162.358C268.72 161.52 268.698 160.662 268.51 159.832L238.525 27.2094C238.138 25.5047 237.09 24.0233 235.612 23.0908C234.133 22.1582 232.345 21.8509 230.64 22.2362L179.447 33.8106C177.757 34.1926 176.288 35.2297 175.362 36.6941C174.437 38.1586 174.131 39.9305 174.511 41.6206L204.511 174.329C204.697 175.154 205.044 175.935 205.532 176.627C206.02 177.318 206.64 177.907 207.355 178.359C208.071 178.811 208.868 179.118 209.702 179.262C210.537 179.406 211.391 179.384 212.217 179.198Z" fill="#C0D8FB"/>
<path d="M234.792 113.99C242.133 106.649 242.133 94.7463 234.792 87.405C227.451 80.0636 215.548 80.0636 208.207 87.4049C200.865 94.7463 200.865 106.649 208.207 113.99C215.548 121.332 227.451 121.332 234.792 113.99Z" fill="#C0D8FB"/>
<path d="M459.196 271.959L365.582 239.126L409.355 114.324V114.322L427.8 61.7381L521.41 94.5707L486.974 192.756L459.196 271.959Z" fill="#DCEAFF"/>
<path d="M452.286 258.146L379.609 232.655L435.53 73.2151L508.207 98.7067L452.286 258.146ZM389.308 233.568L444.116 252.792C445 253.102 445.938 253.235 446.874 253.183C447.81 253.131 448.727 252.895 449.572 252.488C450.417 252.082 451.173 251.513 451.798 250.814C452.423 250.115 452.904 249.3 453.214 248.415L502.821 106.996C503.459 105.177 503.348 103.18 502.513 101.443C501.678 99.7057 500.188 98.3714 498.369 97.7333L443.78 78.5886C442.887 78.2752 441.941 78.1408 440.996 78.193C440.051 78.2453 439.126 78.4832 438.273 78.8931C437.42 79.3031 436.656 79.8771 436.025 80.5823C435.394 81.2875 434.908 82.1101 434.594 83.0032L384.952 224.515C384.643 225.396 384.511 226.328 384.563 227.26C384.615 228.191 384.85 229.104 385.254 229.944C385.659 230.785 386.225 231.538 386.92 232.159C387.616 232.781 388.427 233.26 389.308 233.568Z" fill="#C0D8FB"/>
<path d="M424.352 158.822C425.71 154.955 428.183 151.577 431.46 149.116C434.737 146.654 438.67 145.22 442.762 144.994C446.854 144.768 450.921 145.761 454.449 147.847C457.977 149.932 460.807 153.018 462.582 156.712C464.356 160.406 464.995 164.544 464.418 168.601C463.841 172.659 462.073 176.454 459.339 179.507C456.605 182.56 453.027 184.733 449.057 185.752C445.087 186.772 440.905 186.591 437.038 185.233C431.854 183.412 427.605 179.607 425.226 174.654C422.848 169.701 422.533 164.006 424.352 158.822Z" fill="#C0D8FB"/>
<path d="M191.529 199.716V226.44C191.521 228.904 190.539 231.266 188.796 233.008C187.053 234.751 184.691 235.733 182.227 235.74H163.078C160.614 235.732 158.253 234.749 156.51 233.007C154.768 231.264 153.786 228.904 153.777 226.44V199.716C153.786 197.252 154.768 194.891 156.511 193.148C158.254 191.406 160.615 190.424 163.08 190.416H182.229C184.693 190.424 187.054 191.406 188.796 193.148C190.539 194.891 191.521 197.252 191.529 199.716Z" fill="#00A381"/>
<path d="M191.529 199.716V214.605C191.521 217.069 190.538 219.43 188.795 221.173C187.052 222.915 184.691 223.897 182.227 223.905H163.078C160.614 223.897 158.253 222.914 156.51 221.172C154.768 219.43 153.786 217.069 153.777 214.605V199.716C153.786 197.252 154.768 194.891 156.511 193.148C158.254 191.406 160.615 190.424 163.08 190.416H182.229C184.693 190.424 187.054 191.406 188.796 193.148C190.539 194.891 191.521 197.252 191.529 199.716Z" fill="#00BFA3"/>
<path d="M403.69 213.077C403.7 226.345 401.031 239.479 395.842 251.69C380.691 287.351 345.265 312.523 304.246 312.523H275.815C239.52 312.523 207.605 292.816 190.238 263.575C182.315 250.235 177.642 235.218 176.596 219.738C175.55 204.258 178.162 188.749 184.219 174.465C199.368 138.806 234.795 113.635 275.815 113.635H304.246C341.555 113.635 374.225 134.449 391.231 165.039C399.414 179.727 403.702 196.264 403.69 213.077Z" fill="#00A381"/>
<path d="M391.231 165.04C393.591 176.504 391.736 192.904 388.718 201.585C368.65 259.305 321.477 269.726 273.258 274.12C238.97 277.247 190.238 263.582 190.238 263.582C182.315 250.242 177.642 235.225 176.596 219.745C175.55 204.265 178.162 188.756 184.219 174.472C199.368 138.813 234.795 113.642 275.815 113.642H304.246C341.547 113.636 374.225 134.45 391.231 165.04Z" fill="#00BFA3"/>
<path d="M264.09 138.543H224.977C221.031 138.543 217.836 136.148 217.836 133.195V79.7959C217.838 78.9156 218.11 78.0571 218.615 77.3363C220.529 74.5621 225.556 73.4157 229.298 75.5355C244.149 83.952 268.483 102.248 271.214 132.836C271.493 135.927 268.223 138.543 264.09 138.543Z" fill="#00BFA3"/>
<path d="M226.567 138.542H224.977C221.031 138.542 217.836 136.147 217.836 133.194V79.7951C217.838 78.9148 218.11 78.0563 218.615 77.3356C218.787 77.4818 218.948 77.6392 219.099 77.8066C227.595 87.2654 239.84 105.847 236.399 131.879C235.897 135.662 231.645 138.542 226.567 138.542Z" fill="#00A381"/>
<path d="M205.953 174.25C205.953 173.096 206.295 171.968 206.937 171.008C207.578 170.048 208.489 169.3 209.556 168.858C210.622 168.417 211.796 168.301 212.928 168.526C214.06 168.751 215.1 169.307 215.916 170.123C216.732 170.94 217.288 171.98 217.513 173.112C217.739 174.244 217.623 175.417 217.181 176.484C216.739 177.55 215.991 178.462 215.032 179.103C214.072 179.744 212.944 180.086 211.789 180.086C210.241 180.086 208.757 179.472 207.663 178.377C206.568 177.283 205.953 175.798 205.953 174.25Z" fill="#2B478B"/>
<path d="M321.074 270.302L311.798 330.54C311.511 331.629 311.477 332.769 311.7 333.873C311.923 334.976 312.396 336.014 313.083 336.906C313.77 337.798 314.653 338.521 315.663 339.018C316.673 339.515 317.784 339.774 318.91 339.774H343.297C345.86 339.773 348.374 339.067 350.562 337.733C352.751 336.398 354.53 334.488 355.705 332.209L393.59 256.64L321.074 270.302Z" fill="#00A381"/>
<path d="M265.57 271.342L273.011 330.537C273.299 331.626 273.332 332.766 273.11 333.87C272.887 334.974 272.414 336.012 271.726 336.904C271.039 337.796 270.156 338.519 269.145 339.016C268.135 339.512 267.023 339.771 265.897 339.77H241.527C238.964 339.771 236.45 339.065 234.262 337.731C232.073 336.396 230.295 334.485 229.121 332.206L190.246 263.577L265.57 271.342Z" fill="#00A381"/>
<path d="M427.379 240.109C426.817 240.111 426.256 240.041 425.712 239.9C421.389 238.762 418.917 233.601 419.25 226.431C419.584 219.403 422.525 211.98 427.323 206.069C429.435 203.466 431.894 201.164 434.631 199.229C433.237 196.925 431.412 194.912 429.255 193.301C425.272 190.314 421.155 189.453 416.672 190.668C404.62 193.941 394.407 211.166 393.58 213.102C393.393 213.6 393.018 214.005 392.537 214.231C392.055 214.456 391.504 214.485 391.002 214.31C390.5 214.136 390.085 213.772 389.848 213.296C389.61 212.82 389.568 212.27 389.73 211.764C390.088 210.688 393.065 205.546 397.233 200.454C404.489 191.579 410.811 188.215 414.838 186.958C420.809 185.082 426.483 186.124 431.696 190.041C434.252 191.95 436.42 194.33 438.082 197.052C442.394 194.684 447.084 193.082 451.943 192.319C452.476 192.231 453.023 192.359 453.462 192.674C453.9 192.989 454.196 193.466 454.284 193.999C454.372 194.532 454.244 195.078 453.929 195.517C453.614 195.956 453.137 196.252 452.604 196.34C448.157 197.036 443.868 198.51 439.931 200.692C441.122 203.619 441.856 206.712 442.107 209.863C442.665 216.887 441.371 223.935 438.355 230.304C435.312 236.578 431.312 240.109 427.379 240.109ZM436.434 202.949C434.218 204.584 432.218 206.493 430.483 208.631C426.222 213.884 423.604 220.439 423.317 226.617C423.085 231.521 424.49 235.371 426.739 235.953C428.988 236.534 432.275 233.497 434.679 228.526C437.311 223.084 438.57 216.228 438.047 210.213C437.843 207.729 437.301 205.285 436.434 202.949ZM393.592 213.046L393.58 213.081C393.585 213.069 393.59 213.057 393.592 213.044V213.046Z" fill="#ED7D2B"/>
<path d="M262.437 332.462V336.345C262.434 336.65 262.326 336.945 262.131 337.179C261.912 337.441 261.623 337.635 261.297 337.737C261.191 337.775 261.081 337.801 260.97 337.815C260.866 337.831 260.761 337.84 260.655 337.84H187.078C186.188 337.84 185.446 337.285 185.314 336.568C185.314 336.52 185.3 336.47 185.298 336.42C185.296 336.37 185.298 336.37 185.298 336.345V332.464C185.298 332.439 185.298 332.414 185.298 332.389C185.298 332.364 185.298 332.291 185.314 332.241C185.446 331.524 186.188 330.972 187.078 330.972H260.655C260.76 330.971 260.866 330.978 260.97 330.995C261.081 331.011 261.19 331.036 261.297 331.072C261.623 331.174 261.912 331.368 262.131 331.63C262.326 331.864 262.434 332.158 262.437 332.462Z" fill="#FFB93E"/>
<path d="M226.311 337.84H186.886C186.546 337.844 186.214 337.739 185.939 337.54C185.663 337.34 185.46 337.057 185.358 336.733C185.34 336.679 185.325 336.624 185.314 336.568C185.314 336.52 185.3 336.47 185.298 336.42C185.296 336.37 185.298 336.37 185.298 336.345V332.464C185.298 332.439 185.298 332.414 185.298 332.389C185.298 332.364 185.298 332.291 185.314 332.241C185.325 332.185 185.34 332.13 185.358 332.076C185.46 331.752 185.664 331.47 185.939 331.271C186.214 331.072 186.546 330.967 186.886 330.972H221.465C222.203 333.769 223.923 336.207 226.311 337.84Z" fill="#FFA412"/>
<path d="M253.48 330.972H252.645V337.842H253.48V330.972Z" fill="#FFA412"/>
<path d="M250.648 330.972H249.812V337.842H250.648V330.972Z" fill="#FFA412"/>
<path d="M247.254 330.972H246.418V337.842H247.254V330.972Z" fill="#FFA412"/>
<path d="M242.055 330.972H241.219V337.842H242.055V330.972Z" fill="#FFA412"/>
<path d="M236.551 330.972H235.715V337.842H236.551V330.972Z" fill="#FFA412"/>
<path d="M228.117 330.972H227.281V337.842H228.117V330.972Z" fill="#FFA412"/>
<path d="M220.219 330.972H219.383V337.842H220.219V330.972Z" fill="#FFA412"/>
<path d="M213.164 330.972H212.328V337.842H213.164V330.972Z" fill="#FFA412"/>
<path d="M256.176 330.972H255.34V337.842H256.176V330.972Z" fill="#FFA412"/>
<path d="M257.957 330.972H257.121V337.842H257.957V330.972Z" fill="#FFA412"/>
<path d="M259.672 330.972H258.836V337.842H259.672V330.972Z" fill="#FFA412"/>
<path d="M260.969 330.995V337.807C260.865 337.824 260.761 337.832 260.656 337.832H260.133V330.954H260.656C260.761 330.959 260.866 330.973 260.969 330.995Z" fill="#FFA412"/>
<path d="M262.127 331.629V337.18C261.909 337.443 261.619 337.637 261.293 337.738V331.068C261.619 331.171 261.908 331.366 262.127 331.629Z" fill="#FFA412"/>
<path d="M254.567 325.594V329.467C254.564 329.771 254.457 330.065 254.265 330.3C254.212 330.363 254.156 330.422 254.096 330.478C253.902 330.65 253.674 330.78 253.427 330.859C253.321 330.895 253.212 330.92 253.102 330.934C252.998 330.952 252.894 330.961 252.789 330.961H179.206C178.32 330.961 177.576 330.405 177.446 329.688C177.438 329.639 177.432 329.591 177.43 329.542C177.43 329.517 177.43 329.492 177.43 329.465V325.586C177.43 325.561 177.43 325.534 177.43 325.508C177.432 325.46 177.438 325.411 177.446 325.363C177.576 324.646 178.32 324.091 179.206 324.091H252.783C252.829 324.091 252.877 324.091 252.923 324.091H252.973H253.039H253.085C253.196 324.105 253.305 324.13 253.41 324.166C253.473 324.187 253.533 324.21 253.589 324.235L253.706 324.291L253.769 324.327C253.79 324.338 253.81 324.35 253.829 324.364C253.904 324.41 253.974 324.463 254.038 324.523C254.061 324.541 254.079 324.562 254.1 324.579L254.136 324.614C254.143 324.62 254.149 324.627 254.154 324.635L254.171 324.652C254.195 324.675 254.217 324.7 254.238 324.727C254.447 324.967 254.564 325.275 254.567 325.594Z" fill="#FFB93E"/>
<path d="M218.437 330.972H179.02C178.679 330.976 178.347 330.871 178.071 330.67C177.796 330.47 177.593 330.186 177.492 329.861C177.458 329.761 177.439 329.658 177.434 329.553C177.434 329.528 177.434 329.503 177.434 329.475V325.597C177.434 325.572 177.434 325.544 177.434 325.519C177.436 325.47 177.442 325.422 177.45 325.373C177.46 325.318 177.474 325.264 177.492 325.211C177.593 324.886 177.796 324.602 178.071 324.402C178.347 324.202 178.68 324.097 179.02 324.102H213.597C213.612 324.158 213.626 324.215 213.645 324.271C214.403 326.999 216.1 329.372 218.437 330.972Z" fill="#FFA412"/>
<path d="M245.617 324.102H244.781V330.97H245.617V324.102Z" fill="#FFA412"/>
<path d="M242.785 324.102H241.949V330.97H242.785V324.102Z" fill="#FFA412"/>
<path d="M239.391 324.102H238.555V330.97H239.391V324.102Z" fill="#FFA412"/>
<path d="M234.183 324.102H233.348V330.97H234.183V324.102Z" fill="#FFA412"/>
<path d="M228.683 324.102H227.848V330.97H228.683V324.102Z" fill="#FFA412"/>
<path d="M220.25 324.102H219.414V330.97H220.25V324.102Z" fill="#FFA412"/>
<path d="M212.351 324.102H211.516V330.97H212.351V324.102Z" fill="#FFA412"/>
<path d="M205.301 324.102H204.465V330.97H205.301V324.102Z" fill="#FFA412"/>
<path d="M248.308 324.102H247.473V330.97H248.308V324.102Z" fill="#FFA412"/>
<path d="M250.086 324.102H249.25V330.97H250.086V324.102Z" fill="#FFA412"/>
<path d="M251.808 324.102H250.973V330.97H251.808V324.102Z" fill="#FFA412"/>
<path d="M253.101 324.124V330.947C252.997 330.962 252.892 330.969 252.787 330.969H252.266V324.091H252.787C252.892 324.095 252.997 324.106 253.101 324.124Z" fill="#FFA412"/>
<path d="M254.263 324.762V330.303C254.045 330.565 253.756 330.759 253.43 330.861V324.191C253.757 324.296 254.047 324.495 254.263 324.762Z" fill="#FFA412"/>
<path d="M258.371 318.897V322.776C258.368 323.08 258.26 323.375 258.067 323.61C257.849 323.873 257.559 324.067 257.233 324.168C257.027 324.235 256.812 324.269 256.595 324.268H183.018C182.735 324.268 182.456 324.211 182.197 324.1C181.965 324.007 181.759 323.86 181.596 323.671C181.433 323.482 181.318 323.256 181.261 323.014C181.254 322.982 181.249 322.95 181.246 322.918C181.246 322.897 181.246 322.874 181.246 322.851C181.246 322.828 181.246 322.799 181.246 322.774V318.895C181.246 318.87 181.246 318.845 181.246 318.82C181.248 318.771 181.253 318.722 181.261 318.674C181.392 317.955 182.134 317.4 183.022 317.4H256.599C256.704 317.4 256.808 317.407 256.912 317.423C257.022 317.439 257.131 317.465 257.237 317.5C257.563 317.603 257.853 317.798 258.071 318.061C258.264 318.297 258.37 318.592 258.371 318.897Z" fill="#FFB93E"/>
<path d="M222.239 324.269H182.822C182.569 324.269 182.318 324.211 182.091 324.1C181.875 323.998 181.688 323.846 181.543 323.657C181.398 323.468 181.3 323.248 181.257 323.014C181.25 322.982 181.245 322.95 181.242 322.918C181.242 322.897 181.242 322.874 181.242 322.851C181.242 322.828 181.242 322.799 181.242 322.774V318.895C181.242 318.87 181.242 318.845 181.242 318.82C181.244 318.771 181.249 318.722 181.257 318.674C181.267 318.62 181.281 318.566 181.298 318.514C181.398 318.187 181.602 317.902 181.877 317.702C182.153 317.501 182.487 317.395 182.828 317.401H217.406C218.117 320.099 219.743 322.466 222.006 324.1C222.077 324.156 222.158 324.214 222.239 324.269Z" fill="#FFA412"/>
<path d="M249.418 317.4H248.582V324.268H249.418V317.4Z" fill="#FFA412"/>
<path d="M246.586 317.4H245.75V324.268H246.586V317.4Z" fill="#FFA412"/>
<path d="M243.191 317.4H242.355V324.268H243.191V317.4Z" fill="#FFA412"/>
<path d="M237.988 317.4H237.152V324.268H237.988V317.4Z" fill="#FFA412"/>
<path d="M232.484 317.4H231.648V324.268H232.484V317.4Z" fill="#FFA412"/>
<path d="M224.051 317.4H223.215V324.268H224.051V317.4Z" fill="#FFA412"/>
<path d="M216.152 317.4H215.316V324.268H216.152V317.4Z" fill="#FFA412"/>
<path d="M209.101 317.4H208.266V324.268H209.101V317.4Z" fill="#FFA412"/>
<path d="M252.109 317.4H251.273V324.268H252.109V317.4Z" fill="#FFA412"/>
<path d="M253.887 317.4H253.051V324.268H253.887V317.4Z" fill="#FFA412"/>
<path d="M255.609 317.4H254.773V324.268H255.609V317.4Z" fill="#FFA412"/>
<path d="M256.902 317.423V324.256C256.798 324.271 256.693 324.279 256.587 324.279H256.066V317.4H256.587C256.693 317.401 256.798 317.408 256.902 317.423Z" fill="#FFA412"/>
<path d="M258.064 318.061V323.61C257.847 323.874 257.557 324.068 257.23 324.171V317.501C257.557 317.603 257.846 317.798 258.064 318.061Z" fill="#FFA412"/>
<path d="M260.132 312.03V315.907C260.129 316.212 260.021 316.506 259.825 316.74C259.8 316.772 259.773 316.801 259.746 316.832C259.6 316.985 259.428 317.11 259.237 317.201C259.158 317.239 259.075 317.273 258.991 317.301C258.885 317.335 258.775 317.36 258.664 317.376C258.614 317.376 258.564 317.391 258.512 317.395H258.349H184.772C183.882 317.395 183.14 316.838 183.009 316.121C183.009 316.073 182.996 316.025 182.992 315.977V311.961C183.038 311.231 183.709 310.637 184.56 310.554C184.629 310.546 184.698 310.542 184.768 310.541H258.345H258.508C258.56 310.541 258.61 310.541 258.66 310.56C258.771 310.576 258.881 310.602 258.987 310.637C259.313 310.739 259.603 310.933 259.821 311.196C260.018 311.429 260.128 311.724 260.132 312.03Z" fill="#FFB93E"/>
<path d="M224.003 317.403H184.584C184.244 317.408 183.912 317.302 183.636 317.102C183.361 316.903 183.158 316.619 183.057 316.294C183.038 316.241 183.023 316.185 183.013 316.13C183.013 316.082 183 316.034 182.996 315.986V311.961C183.027 311.599 183.184 311.26 183.44 311.003C183.697 310.745 184.035 310.586 184.397 310.554C184.459 310.546 184.522 310.541 184.584 310.541H219.164C219.164 310.541 219.164 310.541 219.164 310.554C219.904 313.343 221.622 315.774 224.003 317.403Z" fill="#FFA412"/>
<path d="M251.18 310.531H250.344V317.399H251.18V310.531Z" fill="#FFA412"/>
<path d="M248.348 310.531H247.512V317.399H248.348V310.531Z" fill="#FFA412"/>
<path d="M244.953 310.531H244.117V317.399H244.953V310.531Z" fill="#FFA412"/>
<path d="M239.75 310.531H238.914V317.399H239.75V310.531Z" fill="#FFA412"/>
<path d="M234.25 310.531H233.414V317.399H234.25V310.531Z" fill="#FFA412"/>
<path d="M225.812 310.531H224.977V317.399H225.812V310.531Z" fill="#FFA412"/>
<path d="M217.914 310.531H217.078V317.399H217.914V310.531Z" fill="#FFA412"/>
<path d="M210.863 310.531H210.027V317.399H210.863V310.531Z" fill="#FFA412"/>
<path d="M253.875 310.531H253.039V317.399H253.875V310.531Z" fill="#FFA412"/>
<path d="M255.652 310.531H254.816V317.399H255.652V310.531Z" fill="#FFA412"/>
<path d="M257.371 310.531H256.535V317.399H257.371V310.531Z" fill="#FFA412"/>
<path d="M258.664 310.558V317.38C258.561 317.397 258.456 317.406 258.351 317.405H257.828V310.527H258.351C258.456 310.529 258.561 310.539 258.664 310.558Z" fill="#FFA412"/>
<path d="M259.83 311.194V316.742C259.611 317.004 259.322 317.198 258.996 317.301V310.631C259.322 310.735 259.611 310.93 259.83 311.194Z" fill="#FFA412"/>
<path d="M254.723 305.167V309.04C254.721 309.344 254.615 309.639 254.421 309.873C254.203 310.137 253.914 310.332 253.587 310.434C253.482 310.47 253.374 310.495 253.264 310.509C253.23 310.517 253.195 310.522 253.16 310.524H253.145H253.091H253.043H179.368C178.419 310.524 177.638 309.898 177.59 309.104C177.59 309.079 177.59 309.054 177.59 309.027V305.148C177.59 305.123 177.59 305.096 177.59 305.071C177.59 305.046 177.59 305.029 177.59 305.009C177.661 304.383 178.215 303.854 178.926 303.702C178.943 303.696 178.96 303.692 178.978 303.689C179.105 303.666 179.234 303.654 179.364 303.654H252.941C252.995 303.654 253.045 303.654 253.099 303.654H253.166L253.249 303.666C253.359 303.681 253.467 303.707 253.572 303.741C253.899 303.843 254.189 304.038 254.406 304.302C254.612 304.543 254.724 304.85 254.723 305.167Z" fill="#FFB93E"/>
<path d="M218.601 310.545H179.186C178.79 310.555 178.406 310.413 178.111 310.15C177.816 309.886 177.632 309.52 177.598 309.126C177.598 309.101 177.598 309.076 177.598 309.049V305.17C177.598 305.145 177.598 305.118 177.598 305.093C177.598 305.068 177.598 305.051 177.598 305.03C177.638 304.708 177.779 304.407 178 304.171C178.222 303.934 178.513 303.774 178.832 303.713C178.853 303.706 178.876 303.702 178.898 303.7C178.992 303.683 179.087 303.675 179.182 303.675H213.757C213.757 303.692 213.757 303.706 213.771 303.725C214.513 306.495 216.219 308.909 218.582 310.533C218.582 310.533 218.588 310.539 218.601 310.545Z" fill="#FFA412"/>
<path d="M245.769 303.675H244.934V310.543H245.769V303.675Z" fill="#FFA412"/>
<path d="M242.937 303.675H242.102V310.543H242.937V303.675Z" fill="#FFA412"/>
<path d="M239.543 303.675H238.707V310.543H239.543V303.675Z" fill="#FFA412"/>
<path d="M234.34 303.675H233.504V310.543H234.34V303.675Z" fill="#FFA412"/>
<path d="M228.836 303.675H228V310.543H228.836V303.675Z" fill="#FFA412"/>
<path d="M220.406 303.675H219.57V310.543H220.406V303.675Z" fill="#FFA412"/>
<path d="M212.504 303.675H211.668V310.543H212.504V303.675Z" fill="#FFA412"/>
<path d="M205.453 303.675H204.617V310.543H205.453V303.675Z" fill="#FFA412"/>
<path d="M248.465 303.675H247.629V310.543H248.465V303.675Z" fill="#FFA412"/>
<path d="M250.246 303.675H249.41V310.543H250.246V303.675Z" fill="#FFA412"/>
<path d="M251.961 303.675H251.125V310.543H251.961V303.675Z" fill="#FFA412"/>
<path d="M253.254 303.698V310.52C253.15 310.535 253.046 310.543 252.941 310.543H252.418V303.664H252.941C253.046 303.668 253.151 303.679 253.254 303.698Z" fill="#FFA412"/>
<path d="M254.416 304.336V309.876C254.197 310.138 253.908 310.332 253.582 310.435V303.765C253.91 303.87 254.199 304.068 254.416 304.336Z" fill="#FFA412"/>
<path d="M254.569 298.35V302.227C254.566 302.531 254.46 302.826 254.266 303.061C254.214 303.124 254.158 303.184 254.098 303.24C253.905 303.414 253.677 303.544 253.429 303.621C253.346 303.648 253.262 303.67 253.176 303.686C253.153 303.686 253.133 303.686 253.11 303.698C253.006 303.714 252.902 303.723 252.797 303.723H179.207C179.131 303.724 179.054 303.719 178.978 303.709L178.89 303.698C178.142 303.584 177.55 303.073 177.444 302.433C177.444 302.389 177.444 302.348 177.431 302.304C177.419 302.26 177.431 302.252 177.431 302.227V298.35C177.431 298.321 177.431 298.296 177.431 298.271C177.434 298.223 177.439 298.175 177.448 298.127C177.577 297.41 178.321 296.853 179.207 296.853H252.784H252.924H252.985C253.007 296.852 253.029 296.852 253.051 296.853H253.097C253.207 296.869 253.316 296.894 253.422 296.928C253.485 296.949 253.545 296.972 253.602 296.997C253.825 297.094 254.025 297.236 254.191 297.414L254.258 297.489C254.459 297.731 254.569 298.036 254.569 298.35Z" fill="#FFB93E"/>
<path d="M218.438 303.724H178.93H178.828C178.49 303.691 178.172 303.548 177.923 303.317C177.673 303.087 177.507 302.781 177.448 302.446C177.448 302.403 177.448 302.361 177.435 302.317C177.423 302.273 177.435 302.265 177.435 302.24V298.363C177.435 298.334 177.435 298.309 177.435 298.284C177.441 298.179 177.461 298.075 177.494 297.975C177.594 297.65 177.798 297.367 178.073 297.167C178.348 296.967 178.681 296.862 179.021 296.867H213.599C213.613 296.923 213.628 296.979 213.647 297.035C214.397 299.735 216.067 302.087 218.368 303.687C218.393 303.691 218.415 303.705 218.438 303.724Z" fill="#FFA412"/>
<path d="M245.617 296.856H244.781V303.724H245.617V296.856Z" fill="#FFA412"/>
<path d="M242.785 296.856H241.949V303.724H242.785V296.856Z" fill="#FFA412"/>
<path d="M239.391 296.856H238.555V303.724H239.391V296.856Z" fill="#FFA412"/>
<path d="M234.183 296.856H233.348V303.724H234.183V296.856Z" fill="#FFA412"/>
<path d="M228.683 296.856H227.848V303.724H228.683V296.856Z" fill="#FFA412"/>
<path d="M220.25 296.856H219.414V303.724H220.25V296.856Z" fill="#FFA412"/>
<path d="M212.351 296.856H211.516V303.724H212.351V296.856Z" fill="#FFA412"/>
<path d="M205.301 296.856H204.465V303.724H205.301V296.856Z" fill="#FFA412"/>
<path d="M248.308 296.856H247.473V303.724H248.308V296.856Z" fill="#FFA412"/>
<path d="M250.086 296.856H249.25V303.724H250.086V296.856Z" fill="#FFA412"/>
<path d="M251.808 296.856H250.973V303.724H251.808V296.856Z" fill="#FFA412"/>
<path d="M253.101 296.878V303.7C252.997 303.715 252.892 303.723 252.787 303.723H252.266V296.845H252.787C252.892 296.848 252.997 296.86 253.101 296.878Z" fill="#FFA412"/>
<path d="M254.263 297.515V303.064C254.045 303.326 253.756 303.52 253.43 303.622V296.952C253.756 297.055 254.046 297.25 254.263 297.515Z" fill="#FFA412"/>
<path d="M258.371 291.649V295.528C258.368 295.833 258.26 296.127 258.067 296.362C257.849 296.625 257.559 296.819 257.233 296.921C257.127 296.955 257.018 296.98 256.908 296.996C256.804 297.012 256.7 297.021 256.595 297.021H183.018C182.735 297.022 182.456 296.964 182.197 296.852C181.965 296.759 181.759 296.612 181.596 296.423C181.433 296.234 181.318 296.009 181.261 295.766C181.254 295.734 181.249 295.702 181.246 295.67C181.246 295.647 181.246 295.626 181.246 295.603C181.246 295.58 181.246 295.553 181.246 295.526V291.647C181.246 291.622 181.246 291.595 181.246 291.57C181.248 291.521 181.253 291.472 181.261 291.424C181.392 290.707 182.134 290.151 183.022 290.151H256.599C256.704 290.152 256.808 290.16 256.912 290.176C257.022 290.191 257.131 290.217 257.237 290.253C257.564 290.354 257.854 290.549 258.071 290.813C258.264 291.049 258.37 291.344 258.371 291.649Z" fill="#FFB93E"/>
<path d="M222.239 297.024H182.822C182.568 297.025 182.318 296.967 182.091 296.855C181.875 296.753 181.688 296.602 181.543 296.413C181.398 296.224 181.3 296.004 181.257 295.77C181.25 295.738 181.245 295.706 181.242 295.674C181.242 295.651 181.242 295.63 181.242 295.607C181.242 295.584 181.242 295.557 181.242 295.53V291.651C181.242 291.626 181.242 291.599 181.242 291.574C181.244 291.525 181.249 291.476 181.257 291.428C181.267 291.374 181.281 291.321 181.298 291.269C181.398 290.943 181.601 290.658 181.877 290.457C182.153 290.255 182.487 290.149 182.828 290.154H217.406C218.117 292.853 219.743 295.222 222.006 296.855L222.239 297.024Z" fill="#FFA412"/>
<path d="M249.418 290.154H248.582V297.022H249.418V290.154Z" fill="#FFA412"/>
<path d="M246.586 290.154H245.75V297.022H246.586V290.154Z" fill="#FFA412"/>
<path d="M243.191 290.154H242.355V297.022H243.191V290.154Z" fill="#FFA412"/>
<path d="M237.988 290.154H237.152V297.022H237.988V290.154Z" fill="#FFA412"/>
<path d="M232.484 290.154H231.648V297.022H232.484V290.154Z" fill="#FFA412"/>
<path d="M224.051 290.154H223.215V297.022H224.051V290.154Z" fill="#FFA412"/>
<path d="M216.152 290.154H215.316V297.022H216.152V290.154Z" fill="#FFA412"/>
<path d="M209.101 290.154H208.266V297.022H209.101V290.154Z" fill="#FFA412"/>
<path d="M252.109 290.154H251.273V297.022H252.109V290.154Z" fill="#FFA412"/>
<path d="M253.887 290.154H253.051V297.022H253.887V290.154Z" fill="#FFA412"/>
<path d="M255.609 290.154H254.773V297.022H255.609V290.154Z" fill="#FFA412"/>
<path d="M256.902 290.177V296.999C256.798 297.014 256.693 297.022 256.587 297.022H256.066V290.154H256.587C256.693 290.154 256.798 290.162 256.902 290.177Z" fill="#FFA412"/>
<path d="M258.064 290.817V296.364C257.847 296.627 257.557 296.822 257.23 296.924V290.254C257.557 290.357 257.847 290.553 258.064 290.817Z" fill="#FFA412"/>
<path d="M264.379 284.779V288.658C264.376 288.963 264.269 289.257 264.075 289.492C264.05 289.523 264.023 289.554 263.996 289.583C263.88 289.705 263.747 289.809 263.602 289.892C263.526 289.934 263.448 289.971 263.368 290.004C263.329 290.021 263.287 290.036 263.243 290.05C263.136 290.085 263.027 290.11 262.916 290.125C262.812 290.142 262.708 290.149 262.603 290.148H189.026C188.138 290.148 187.396 289.596 187.265 288.877C187.265 288.829 187.252 288.781 187.248 288.731C187.244 288.681 187.248 288.681 187.248 288.654V284.779C187.248 284.754 187.248 284.729 187.248 284.704C187.292 283.977 187.963 283.383 188.815 283.297C188.884 283.288 188.954 283.284 189.024 283.285H262.601C262.706 283.286 262.81 283.293 262.914 283.307C263.025 283.325 263.134 283.351 263.241 283.387C263.528 283.477 263.787 283.637 263.996 283.854C264.024 283.883 264.05 283.913 264.075 283.945C264.269 284.18 264.377 284.474 264.379 284.779Z" fill="#FFB93E"/>
<path d="M228.249 290.152H188.83C188.49 290.158 188.156 290.053 187.881 289.852C187.605 289.652 187.402 289.367 187.302 289.042C187.285 288.989 187.271 288.935 187.261 288.881C187.261 288.833 187.248 288.785 187.244 288.735C187.24 288.685 187.244 288.685 187.244 288.658V284.779C187.244 284.754 187.244 284.729 187.244 284.704C187.274 284.342 187.431 284.003 187.687 283.746C187.943 283.489 188.281 283.33 188.643 283.297C188.705 283.288 188.767 283.283 188.83 283.285H223.409C223.409 283.285 223.409 283.285 223.409 283.297C224.148 286.089 225.866 288.522 228.249 290.152Z" fill="#FFA412"/>
<path d="M255.43 283.284H254.594V290.152H255.43V283.284Z" fill="#FFA412"/>
<path d="M252.598 283.284H251.762V290.152H252.598V283.284Z" fill="#FFA412"/>
<path d="M249.203 283.284H248.367V290.152H249.203V283.284Z" fill="#FFA412"/>
<path d="M244 283.284H243.164V290.152H244V283.284Z" fill="#FFA412"/>
<path d="M238.5 283.284H237.664V290.152H238.5V283.284Z" fill="#FFA412"/>
<path d="M230.066 283.284H229.23V290.152H230.066V283.284Z" fill="#FFA412"/>
<path d="M222.168 283.284H221.332V290.152H222.168V283.284Z" fill="#FFA412"/>
<path d="M215.113 283.284H214.277V290.152H215.113V283.284Z" fill="#FFA412"/>
<path d="M258.125 283.284H257.289V290.152H258.125V283.284Z" fill="#FFA412"/>
<path d="M259.902 283.284H259.066V290.152H259.902V283.284Z" fill="#FFA412"/>
<path d="M261.621 283.284H260.785V290.152H261.621V283.284Z" fill="#FFA412"/>
<path d="M262.916 283.311V290.131C262.812 290.147 262.707 290.156 262.601 290.156H262.078V283.277H262.601C262.707 283.28 262.812 283.291 262.916 283.311Z" fill="#FFA412"/>
<path d="M264.08 283.944V289.492C263.861 289.755 263.572 289.949 263.246 290.051V283.381C263.573 283.484 263.863 283.679 264.08 283.944Z" fill="#FFA412"/>
<path d="M254.723 277.924V281.801C254.722 282.105 254.615 282.4 254.421 282.634C254.204 282.899 253.914 283.094 253.587 283.195C253.482 283.231 253.374 283.256 253.264 283.272L253.16 283.285H253.145C253.122 283.287 253.099 283.287 253.076 283.285H179.368C179.077 283.291 178.789 283.23 178.526 283.107C178.263 282.983 178.033 282.8 177.852 282.572C177.698 282.367 177.607 282.121 177.59 281.865C177.59 281.838 177.59 281.813 177.59 281.788V277.911C177.59 277.882 177.59 277.857 177.59 277.832C177.627 277.207 178.151 276.661 178.84 276.481C179.009 276.437 179.183 276.414 179.357 276.415H253.028H253.074C253.133 276.418 253.191 276.424 253.249 276.433C253.359 276.45 253.467 276.475 253.572 276.508C253.625 276.524 253.675 276.544 253.725 276.567C253.914 276.642 254.089 276.752 254.239 276.89V276.9C254.247 276.905 254.254 276.912 254.26 276.919C254.311 276.965 254.359 277.014 254.402 277.067C254.607 277.306 254.721 277.609 254.723 277.924Z" fill="#FFB93E"/>
<path d="M218.601 283.299H179.186C178.926 283.301 178.67 283.24 178.438 283.123C178.207 283.005 178.007 282.833 177.856 282.622C177.701 282.404 177.611 282.147 177.598 281.88C177.598 281.852 177.598 281.827 177.598 281.802V277.926C177.598 277.896 177.598 277.871 177.598 277.846C177.625 277.508 177.764 277.187 177.993 276.937C178.222 276.686 178.528 276.518 178.863 276.46C178.969 276.439 179.077 276.429 179.186 276.429H213.761C213.776 276.481 213.79 276.535 213.807 276.587C214.562 279.314 216.254 281.686 218.586 283.286L218.601 283.299Z" fill="#FFA412"/>
<path d="M245.769 276.429H244.934V283.297H245.769V276.429Z" fill="#FFA412"/>
<path d="M242.937 276.429H242.102V283.297H242.937V276.429Z" fill="#FFA412"/>
<path d="M239.543 276.429H238.707V283.297H239.543V276.429Z" fill="#FFA412"/>
<path d="M234.34 276.429H233.504V283.297H234.34V276.429Z" fill="#FFA412"/>
<path d="M228.836 276.429H228V283.297H228.836V276.429Z" fill="#FFA412"/>
<path d="M220.406 276.429H219.57V283.297H220.406V276.429Z" fill="#FFA412"/>
<path d="M212.504 276.429H211.668V283.297H212.504V276.429Z" fill="#FFA412"/>
<path d="M205.453 276.429H204.617V283.297H205.453V276.429Z" fill="#FFA412"/>
<path d="M248.465 276.429H247.629V283.297H248.465V276.429Z" fill="#FFA412"/>
<path d="M250.246 276.429H249.41V283.297H250.246V276.429Z" fill="#FFA412"/>
<path d="M251.961 276.429H251.125V283.297H251.961V276.429Z" fill="#FFA412"/>
<path d="M253.254 276.452V283.274C253.15 283.289 253.046 283.296 252.941 283.297H252.418V276.418H252.941C253.046 276.422 253.151 276.433 253.254 276.452Z" fill="#FFA412"/>
<path d="M254.416 277.088V282.637C254.197 282.899 253.908 283.093 253.582 283.196V276.526C253.909 276.628 254.198 276.824 254.416 277.088Z" fill="#FFA412"/>
<path d="M260.134 271.211V275.09C260.131 275.395 260.024 275.689 259.829 275.924C259.611 276.187 259.322 276.382 258.996 276.485C258.889 276.519 258.779 276.545 258.668 276.562C258.565 276.577 258.46 276.585 258.356 276.585H184.779C184.506 276.586 184.236 276.532 183.984 276.426C183.729 276.332 183.504 276.171 183.332 275.96C183.16 275.749 183.047 275.497 183.005 275.228C183.004 275.208 183.004 275.188 183.005 275.167C183.005 275.14 183.005 275.115 183.005 275.09V271.211C183.005 271.186 183.005 271.159 183.005 271.134C183.049 270.407 183.722 269.813 184.572 269.727C184.641 269.72 184.711 269.716 184.781 269.717H258.358C258.463 269.717 258.567 269.725 258.671 269.74C258.782 269.756 258.891 269.781 258.998 269.817C259.323 269.919 259.613 270.113 259.832 270.376C260.025 270.611 260.132 270.906 260.134 271.211Z" fill="#FFB93E"/>
<path d="M224.006 276.585H184.587C184.342 276.586 184.099 276.532 183.878 276.426C183.641 276.319 183.437 276.152 183.284 275.942C183.131 275.732 183.034 275.486 183.005 275.228C183.004 275.208 183.004 275.188 183.005 275.167C183.005 275.14 183.005 275.115 183.005 275.09V271.211C183.005 271.186 183.005 271.159 183.005 271.134C183.035 270.773 183.192 270.433 183.448 270.176C183.704 269.919 184.042 269.76 184.403 269.727C184.466 269.72 184.528 269.716 184.591 269.717H219.168C219.168 269.717 219.168 269.717 219.168 269.727C219.882 272.427 221.512 274.795 223.779 276.426L224.006 276.585Z" fill="#FFA412"/>
<path d="M251.18 269.717H250.344V276.587H251.18V269.717Z" fill="#FFA412"/>
<path d="M248.348 269.717H247.512V276.587H248.348V269.717Z" fill="#FFA412"/>
<path d="M244.953 269.717H244.117V276.587H244.953V269.717Z" fill="#FFA412"/>
<path d="M239.75 269.717H238.914V276.587H239.75V269.717Z" fill="#FFA412"/>
<path d="M234.25 269.717H233.414V276.587H234.25V269.717Z" fill="#FFA412"/>
<path d="M225.812 269.717H224.977V276.587H225.812V269.717Z" fill="#FFA412"/>
<path d="M217.914 269.717H217.078V276.587H217.914V269.717Z" fill="#FFA412"/>
<path d="M210.863 269.717H210.027V276.587H210.863V269.717Z" fill="#FFA412"/>
<path d="M253.875 269.717H253.039V276.587H253.875V269.717Z" fill="#FFA412"/>
<path d="M255.652 269.717H254.816V276.587H255.652V269.717Z" fill="#FFA412"/>
<path d="M257.371 269.717H256.535V276.587H257.371V269.717Z" fill="#FFA412"/>
<path d="M258.664 269.739V276.559C258.561 276.576 258.456 276.584 258.351 276.584H257.828V269.706H258.351C258.456 269.71 258.561 269.721 258.664 269.739Z" fill="#FFA412"/>
<path d="M259.83 270.378V275.926C259.611 276.189 259.322 276.384 258.996 276.487V269.817C259.322 269.92 259.611 270.115 259.83 270.378Z" fill="#FFA412"/>
<path d="M262.436 264.354V268.233C262.434 268.538 262.325 268.833 262.13 269.067C261.911 269.329 261.622 269.523 261.296 269.625C261.189 269.661 261.08 269.687 260.969 269.702L260.867 269.717H260.808H260.75H187.079C186.13 269.717 185.349 269.092 185.301 268.298C185.301 268.273 185.301 268.248 185.301 268.223V264.344C185.301 264.317 185.301 264.291 185.301 264.266C185.349 263.479 186.135 262.847 187.079 262.847H260.656C260.761 262.847 260.865 262.855 260.969 262.872C261.08 262.888 261.189 262.914 261.296 262.949C261.622 263.051 261.911 263.245 262.13 263.508C262.328 263.745 262.436 264.045 262.436 264.354Z" fill="#FFB93E"/>
<path d="M226.312 269.728H186.887C186.492 269.738 186.108 269.596 185.813 269.332C185.518 269.069 185.335 268.703 185.301 268.309C185.301 268.284 185.301 268.259 185.301 268.234V264.355C185.301 264.328 185.301 264.303 185.301 264.278C185.335 263.884 185.518 263.518 185.813 263.254C186.108 262.99 186.492 262.849 186.887 262.858H221.464C222.199 265.649 223.911 268.083 226.289 269.718L226.312 269.728Z" fill="#FFA412"/>
<path d="M253.48 262.858H252.645V269.726H253.48V262.858Z" fill="#FFA412"/>
<path d="M250.648 262.858H249.812V269.726H250.648V262.858Z" fill="#FFA412"/>
<path d="M247.254 262.858H246.418V269.726H247.254V262.858Z" fill="#FFA412"/>
<path d="M242.055 262.858H241.219V269.726H242.055V262.858Z" fill="#FFA412"/>
<path d="M236.551 262.858H235.715V269.726H236.551V262.858Z" fill="#FFA412"/>
<path d="M228.117 262.858H227.281V269.726H228.117V262.858Z" fill="#FFA412"/>
<path d="M220.219 262.858H219.383V269.726H220.219V262.858Z" fill="#FFA412"/>
<path d="M213.164 262.858H212.328V269.726H213.164V262.858Z" fill="#FFA412"/>
<path d="M256.176 262.858H255.34V269.726H256.176V262.858Z" fill="#FFA412"/>
<path d="M257.957 262.858H257.121V269.726H257.957V262.858Z" fill="#FFA412"/>
<path d="M259.672 262.858H258.836V269.726H259.672V262.858Z" fill="#FFA412"/>
<path d="M260.969 262.884V269.704C260.865 269.721 260.761 269.729 260.656 269.729H260.133V262.851H260.656C260.761 262.853 260.865 262.864 260.969 262.884Z" fill="#FFA412"/>
<path d="M262.127 263.517V269.066C261.908 269.328 261.619 269.522 261.293 269.624V262.954C261.62 263.057 261.909 263.253 262.127 263.517Z" fill="#FFA412"/>
<path d="M239.113 223.713C239.113 223.713 235.248 229.155 231.707 229.23C228.166 229.305 222.769 226.708 222.769 226.708C222.769 226.708 219.516 219.459 221.727 216.622C221.727 216.622 223.939 215.651 226.252 217.366C226.696 217.699 227.099 218.084 227.451 218.513C227.931 219.107 228.579 219.543 229.31 219.763C231.838 220.532 234.84 218.721 235.961 220.47C236.511 221.322 237.168 222.099 237.916 222.784C238.288 223.127 238.688 223.438 239.113 223.713Z" fill="#FFEDDC"/>
<path d="M188.73 262.961C188.73 262.961 202.389 229.862 226.976 229.232C226.976 229.232 249.672 231.754 250.931 262.961H188.73Z" fill="#FFEDDC"/>
<path d="M220.24 230.251C220.24 230.251 230.095 232.442 233.136 231.154C233.136 231.154 233.594 227.033 229.444 227.611C226.603 228.004 224.752 226.639 223.664 226.087C222.124 225.295 219.829 228.517 220.24 230.251Z" fill="#DB6A1D"/>
<path d="M228.812 224.031C228.187 224.504 226.246 217.361 226.246 217.361C226.69 217.694 227.092 218.079 227.445 218.508C227.925 219.102 228.572 219.538 229.304 219.758C229.314 219.984 229.437 223.571 228.812 224.031Z" fill="#E5C1A1"/>
<path d="M237.915 222.797C237.776 222.878 233.217 225.608 232.6 225.608C231.983 225.608 235.96 220.483 235.96 220.483C236.51 221.335 237.167 222.112 237.915 222.797Z" fill="#E5C1A1"/>
<path d="M202.071 253.715C201.819 253.507 211.738 239.11 214.469 239.004C217.199 238.898 223.34 242.156 227.784 242.577C232.227 242.998 236.538 241.743 237.372 244.363C238.205 246.983 240.523 256.302 239.104 257.792C237.684 259.283 207.526 258.374 202.071 253.715Z" fill="#F9DDBF"/>
<path d="M298.149 132.901C297.514 133.391 296.853 133.846 296.168 134.262C295.9 134.427 295.626 134.583 295.349 134.738C294.653 135.124 293.937 135.472 293.202 135.78L292.577 135.673C291.256 135.453 289.949 135.257 288.667 135.065C288.031 134.973 287.4 134.886 286.776 134.804C284.148 134.454 281.62 134.179 279.221 133.958C278.574 133.896 277.939 133.841 277.309 133.789L275.838 133.675C274.652 133.587 273.503 133.514 272.401 133.452C270.826 132.338 269.409 131.017 268.188 129.525C266.177 127.069 264.73 124.202 263.949 121.125C263.169 118.049 263.075 114.838 263.673 111.721C264.272 108.604 265.548 105.656 267.412 103.087C269.276 100.518 271.682 98.3905 274.46 96.8547C274.735 96.7025 275.012 96.5545 275.294 96.419C280.102 94.0332 285.625 93.52 290.79 94.9792C295.955 96.4383 300.393 99.7655 303.242 104.314C306.091 108.863 307.147 114.309 306.205 119.593C305.262 124.876 302.39 129.621 298.144 132.905L298.149 132.901Z" fill="#FFB93E"/>
<path d="M302.007 106.661C300.521 103.959 298.412 101.65 295.855 99.9267C293.298 98.2032 290.366 97.1146 287.304 96.7515C284.241 96.3884 281.136 96.7611 278.247 97.8388C275.358 98.9165 272.767 100.668 270.69 102.948C268.614 105.228 267.111 107.97 266.307 110.947C265.503 113.925 265.421 117.051 266.068 120.066C266.714 123.081 268.071 125.899 270.025 128.284C271.979 130.67 274.475 132.555 277.304 133.783C277.929 133.835 278.569 133.889 279.215 133.952C275.114 132.62 271.594 129.924 269.24 126.312C266.886 122.7 265.841 118.39 266.279 114.101C266.718 109.812 268.612 105.803 271.648 102.742C274.684 99.6802 278.677 97.7517 282.962 97.2774C287.248 96.8032 291.566 97.8118 295.198 100.135C298.829 102.459 301.555 105.957 302.921 110.046C304.286 114.135 304.209 118.569 302.702 122.609C301.195 126.648 298.349 130.049 294.639 132.245C294.472 132.343 294.303 132.438 294.135 132.534C291.862 133.786 289.354 134.553 286.771 134.79C287.396 134.871 288.021 134.958 288.661 135.05C290.667 134.668 292.601 133.971 294.389 132.985C294.741 132.791 295.083 132.586 295.419 132.376C299.576 129.727 302.571 125.596 303.795 120.821C305.018 116.045 304.379 110.983 302.007 106.661Z" fill="#FFA412"/>
<path d="M294.565 117.907C294.277 117.11 293.811 116.39 293.202 115.8C292.593 115.211 291.858 114.768 291.053 114.505C290.204 114.221 289.32 114.054 288.426 114.009C287.459 113.949 286.411 113.934 285.275 113.968C284.674 113.991 284.073 113.978 283.474 113.93C283.041 113.9 282.615 113.807 282.209 113.655C281.886 113.531 281.596 113.335 281.363 113.08C281.133 112.818 280.951 112.518 280.825 112.194C280.686 111.863 280.604 111.51 280.581 111.152C280.558 110.818 280.611 110.484 280.735 110.174C280.87 109.848 281.076 109.556 281.338 109.32C281.66 109.03 282.034 108.802 282.44 108.648C282.812 108.479 283.216 108.393 283.625 108.397C284.033 108.401 284.436 108.494 284.804 108.671C285.533 109.027 286.129 109.772 286.592 110.906L290.998 109.117C290.657 108.243 290.168 107.434 289.554 106.725C289.013 106.099 288.352 105.588 287.61 105.222C286.869 104.856 286.061 104.643 285.235 104.594C284.339 104.538 283.44 104.629 282.574 104.865L281.323 101.793L278.884 102.783L280.114 105.812C279.292 106.228 278.537 106.767 277.875 107.408C277.292 107.975 276.814 108.642 276.464 109.376C276.137 110.072 275.96 110.829 275.945 111.598C275.957 113.313 276.647 114.955 277.863 116.165C278.459 116.707 279.162 117.119 279.926 117.374C280.775 117.652 281.658 117.812 282.551 117.849C283.603 117.904 284.658 117.904 285.71 117.849C286.283 117.811 286.858 117.816 287.43 117.861C287.858 117.896 288.279 117.99 288.681 118.141C289.016 118.271 289.318 118.476 289.562 118.741C289.816 119.03 290.016 119.362 290.154 119.721C290.292 120.051 290.363 120.405 290.363 120.763C290.361 121.108 290.28 121.448 290.125 121.757C289.954 122.094 289.716 122.393 289.427 122.637C289.073 122.932 288.673 123.166 288.243 123.331C287.829 123.5 287.393 123.613 286.949 123.666C286.509 123.723 286.063 123.678 285.644 123.535C285.191 123.377 284.783 123.113 284.454 122.766C284.032 122.314 283.704 121.782 283.491 121.202L279.082 122.991C279.463 124.002 280.054 124.922 280.816 125.688C281.468 126.323 282.25 126.809 283.109 127.11C283.946 127.402 284.831 127.533 285.717 127.495C286.622 127.458 287.52 127.309 288.389 127.053L289.525 129.857L291.951 128.873L290.807 126.057C291.631 125.638 292.393 125.106 293.07 124.477C293.665 123.923 294.153 123.266 294.511 122.536C294.843 121.846 295.024 121.092 295.042 120.325C295.055 119.494 294.892 118.671 294.565 117.907Z" fill="#FFA412"/>
<path opacity="0.5" d="M209.668 312.597C205.754 323.947 195.949 332.453 185.298 335.483V332.463C185.298 332.438 185.298 332.413 185.298 332.388C185.298 332.363 185.298 332.29 185.315 332.24C185.325 332.184 185.34 332.129 185.358 332.075C185.46 331.751 185.664 331.469 185.939 331.27C186.214 331.071 186.546 330.966 186.886 330.971H179.02C178.679 330.975 178.347 330.869 178.071 330.669C177.796 330.469 177.593 330.185 177.492 329.86C177.458 329.76 177.439 329.656 177.434 329.551C177.434 329.526 177.434 329.501 177.434 329.474V325.595C177.434 325.57 177.434 325.543 177.434 325.518C177.436 325.469 177.442 325.42 177.45 325.372C177.46 325.317 177.474 325.263 177.492 325.21C177.593 324.885 177.796 324.601 178.071 324.401C178.347 324.201 178.68 324.096 179.02 324.101H182.09C181.875 323.999 181.687 323.847 181.542 323.658C181.397 323.469 181.299 323.249 181.256 323.015C181.249 322.983 181.245 322.951 181.242 322.919C181.242 322.898 181.242 322.875 181.242 322.852C181.242 322.829 181.242 322.8 181.242 322.775V318.896C181.242 318.871 181.242 318.846 181.242 318.821C181.243 318.772 181.248 318.723 181.256 318.675C181.267 318.621 181.281 318.567 181.298 318.515C181.398 318.188 181.601 317.903 181.877 317.703C182.153 317.502 182.487 317.396 182.828 317.402H184.589C184.249 317.406 183.916 317.301 183.641 317.101C183.366 316.901 183.162 316.618 183.061 316.293C183.043 316.239 183.028 316.184 183.018 316.128C183.018 316.08 183.005 316.032 183.001 315.984V311.959C183.032 311.598 183.189 311.258 183.445 311.001C183.701 310.744 184.04 310.585 184.402 310.553H179.191C178.795 310.562 178.411 310.421 178.116 310.157C177.821 309.893 177.637 309.527 177.602 309.133C177.602 309.108 177.602 309.083 177.602 309.056V305.177C177.602 305.152 177.602 305.125 177.602 305.1C177.602 305.075 177.602 305.058 177.602 305.037C177.642 304.716 177.783 304.415 178.005 304.178C178.227 303.941 178.518 303.781 178.836 303.72C178.498 303.687 178.181 303.544 177.931 303.313C177.682 303.083 177.515 302.777 177.457 302.442C177.457 302.399 177.457 302.357 177.444 302.313C177.432 302.269 177.444 302.261 177.444 302.236V298.359C177.444 298.33 177.444 298.305 177.444 298.28C177.45 298.175 177.469 298.071 177.502 297.971C177.603 297.646 177.806 297.363 178.082 297.163C178.357 296.963 178.69 296.858 179.03 296.863H182.1C181.885 296.761 181.698 296.609 181.553 296.42C181.408 296.231 181.31 296.011 181.267 295.777C181.26 295.745 181.255 295.713 181.252 295.681C181.252 295.658 181.252 295.637 181.252 295.614C181.252 295.591 181.252 295.564 181.252 295.537V291.658C181.252 291.633 181.252 291.606 181.252 291.581C181.254 291.532 181.259 291.483 181.267 291.435C181.277 291.381 181.291 291.328 181.308 291.277C181.408 290.95 181.611 290.665 181.887 290.464C182.163 290.263 182.497 290.156 182.838 290.161H188.85C188.509 290.167 188.176 290.061 187.9 289.861C187.625 289.661 187.422 289.376 187.322 289.05C187.305 288.998 187.291 288.944 187.28 288.89C187.28 288.842 187.268 288.794 187.263 288.744C187.259 288.694 187.263 288.694 187.263 288.667V284.78C187.263 284.755 187.263 284.73 187.263 284.705C187.294 284.343 187.451 284.004 187.706 283.746C187.962 283.489 188.301 283.33 188.662 283.298H179.193C178.933 283.3 178.677 283.239 178.445 283.121C178.214 283.003 178.014 282.832 177.863 282.62V282.585L178.861 276.494V276.459L180.283 267.769C196.849 269.987 209.27 282.568 211.208 297.728C211.845 302.737 211.318 307.825 209.668 312.597Z" fill="#E2810E"/>
<path d="M192.697 325.722C206.831 311.588 206.831 288.674 192.697 274.541C178.564 260.407 155.65 260.407 141.516 274.541C127.383 288.674 127.383 311.588 141.516 325.722C155.65 339.855 178.564 339.855 192.697 325.722Z" fill="#E2810E"/>
<path d="M183.166 332.558C182.72 332.835 182.267 333.099 181.807 333.347C181.651 333.433 181.495 333.518 181.338 333.6C180.982 333.791 180.626 333.973 180.265 334.152C172.12 338.147 162.772 338.937 154.072 336.366C145.371 333.796 137.954 328.052 133.288 320.272C128.622 312.492 127.047 303.244 128.876 294.358C130.705 285.472 135.804 277.597 143.164 272.293C144.347 271.442 145.581 270.662 146.857 269.958C147.323 269.701 147.79 269.457 148.26 269.225C148.716 268.998 149.177 268.781 149.638 268.577C151.039 267.952 152.479 267.418 153.948 266.978C156.086 266.333 158.28 265.89 160.501 265.656C168.679 264.786 176.91 266.727 183.837 271.159C190.765 275.591 195.977 282.25 198.615 290.039C201.253 297.829 201.16 306.284 198.351 314.014C195.541 321.743 190.184 328.286 183.16 332.564L183.166 332.558Z" fill="#FFB93E"/>
<path d="M164.595 334.468C161.53 334.465 158.481 334.03 155.537 333.176C149.376 331.393 143.882 327.824 139.75 322.919C135.617 318.014 133.032 311.994 132.321 305.62C131.61 299.246 132.805 292.804 135.755 287.11C138.705 281.415 143.277 276.722 148.894 273.626C164.554 264.995 184.315 270.708 192.947 286.37C201.578 302.032 195.865 321.791 180.203 330.422C175.427 333.071 170.057 334.463 164.595 334.468ZM164.495 270.479C159.685 270.487 154.939 271.595 150.622 273.719C146.306 275.843 142.532 278.925 139.589 282.731C136.646 286.537 134.613 290.966 133.645 295.678C132.676 300.391 132.798 305.262 134.002 309.92C135.205 314.578 137.457 318.899 140.587 322.553C143.716 326.207 147.64 329.097 152.057 331.002C156.475 332.907 161.27 333.776 166.075 333.543C170.88 333.311 175.569 331.982 179.782 329.66C195.019 321.26 200.58 302.032 192.182 286.795C189.449 281.847 185.439 277.722 180.569 274.852C175.699 271.982 170.148 270.472 164.495 270.479Z" fill="#FFA412"/>
<path d="M180.5 305.178C180.429 304.999 180.352 304.828 180.274 304.657C179.762 303.477 179.016 302.413 178.08 301.53C177.081 300.621 175.904 299.929 174.624 299.498C173.205 299.023 171.728 298.742 170.234 298.665C168.62 298.564 166.862 298.542 164.961 298.596C163.957 298.635 162.951 298.614 161.949 298.535C161.224 298.483 160.511 298.326 159.831 298.07C159.291 297.865 158.807 297.537 158.416 297.112C158.033 296.673 157.729 296.172 157.516 295.63C157.283 295.076 157.142 294.488 157.099 293.889C157.062 293.331 157.15 292.772 157.357 292.253C157.584 291.708 157.928 291.22 158.366 290.823C158.906 290.338 159.532 289.958 160.211 289.7C161.624 289.127 162.944 289.14 164.171 289.737C165.398 290.335 166.394 291.582 167.16 293.479L174.534 290.486C173.963 289.024 173.146 287.671 172.121 286.484C171.216 285.436 170.11 284.58 168.868 283.967C167.626 283.355 166.274 282.998 164.892 282.917C163.394 282.824 161.89 282.977 160.442 283.372L158.358 278.23L154.276 279.887L156.336 284.958C154.958 285.653 153.693 286.551 152.584 287.624C151.613 288.571 150.818 289.683 150.235 290.909C149.688 292.074 149.393 293.341 149.368 294.627C149.352 295.987 149.617 297.335 150.145 298.587C150.772 300.135 151.582 301.362 152.576 302.266C153.572 303.174 154.747 303.863 156.025 304.288C157.446 304.753 158.925 305.021 160.419 305.084C162.18 305.174 163.944 305.174 165.705 305.084C166.663 305.02 167.624 305.027 168.581 305.103C169.303 305.157 170.012 305.315 170.689 305.572C171.25 305.79 171.754 306.133 172.164 306.575C172.589 307.058 172.926 307.613 173.159 308.213C173.39 308.767 173.509 309.361 173.511 309.962C173.51 310.54 173.375 311.111 173.117 311.629C172.828 312.189 172.429 312.685 171.945 313.088C171.354 313.582 170.685 313.975 169.965 314.251C169.272 314.533 168.544 314.722 167.802 314.814C167.067 314.908 166.321 314.837 165.617 314.606C164.861 314.339 164.179 313.897 163.625 313.317C162.92 312.56 162.372 311.671 162.011 310.702L154.641 313.695C155.408 315.59 156.375 317.092 157.541 318.201C158.625 319.264 159.928 320.077 161.359 320.583C162.753 321.064 164.226 321.276 165.699 321.209C167.214 321.147 168.715 320.898 170.17 320.469L172.075 325.161L176.131 323.514L174.215 318.801C175.595 318.102 176.869 317.212 178 316.158C178.928 315.301 179.703 314.292 180.293 313.176C180.339 313.088 180.381 313.003 180.422 312.915C180.978 311.758 181.281 310.496 181.312 309.213C181.325 307.826 181.048 306.452 180.5 305.178Z" fill="#FFA412"/>
<path d="M137.455 174.243C137.564 173.799 127.815 178.649 127.321 179.197C122.748 184.268 124.051 190.888 126.669 190.951C128.336 190.992 128.022 193.781 128.022 193.781L146.714 185.873C146.714 185.873 144.465 172.748 137.455 174.243Z" fill="#2C3A64"/>
<path d="M139.753 175.267C139.753 175.267 140.42 167.985 132.285 167.985C132.285 167.985 134.751 168.654 136.024 169.992C136.024 169.992 130.836 166.944 125.186 171.626C119.535 176.307 123.047 188.048 121.33 190.279C119.612 192.509 112.921 192.945 113.755 200.161C114.589 207.377 134.98 216.398 133.669 222.361C133.669 222.361 141.667 210.605 135.949 205.24C135.949 205.24 138.736 207.864 139.019 210.987C139.019 210.987 139.776 204.892 135.893 202.943C132.462 201.219 129.64 194.91 129.948 193.772C130.257 192.634 139.753 175.267 139.753 175.267Z" fill="#2C3A64"/>
<path d="M132.365 209.526C131.114 203.481 123.277 201.605 119.569 206.545C118.865 207.47 118.421 208.566 118.281 209.72C117.435 216.577 128.4 244.512 129.97 247.042C132.83 251.646 149.665 267.431 149.665 267.431L152.768 265.555C152.768 265.555 140.827 245.337 138.978 243.449C136.84 241.256 134.747 220.998 132.365 209.526Z" fill="#ED985F"/>
<path d="M148.484 265.561C148.484 265.561 153.012 262.589 154.737 262.781C156.463 262.973 161.407 264.398 161.474 265.128C161.541 265.857 155.944 266.314 155.569 266.712C155.194 267.11 151.4 269.644 150.025 268.848C148.649 268.052 148.484 265.561 148.484 265.561Z" fill="#ED985F"/>
<path d="M116.9 332.733L112.854 332.139C112.854 332.139 99.2518 321.33 97.2216 301.16C97.0091 299.088 96.977 297.001 97.1257 294.923C97.1544 294.685 97.1047 294.443 96.984 294.235C96.5484 293.568 95.4645 291.897 93.9971 289.519C92.5527 287.176 90.0765 282.746 87.3543 277.777C82.4499 268.827 76.7409 258.122 74.7816 254.714C68.5411 243.848 71.5488 236.541 71.5488 236.541C71.5488 236.541 88.9572 234.821 93.7283 230.646L95.4478 233.295C95.4478 233.295 99.2184 249.995 99.0413 250.072C99.2268 250.639 99.4143 251.219 99.6061 251.807C102.585 260.994 106.007 272.479 107.875 281.831C108.917 287.094 109.48 291.68 109.182 294.802C109.079 295.874 109.205 297.512 109.488 299.555C111.174 311.544 116.9 332.733 116.9 332.733Z" fill="#2B478B"/>
<path d="M125.387 337.849H108.504C108.504 337.849 108.087 335.276 108.979 333.325C109.825 331.45 111.028 331.393 109.133 328.459C110.206 329.563 113.654 330.02 116.093 329.69C116.393 330.176 118.021 333.428 119.011 334.145C120.128 334.937 125.047 334.655 125.387 337.849Z" fill="#233862"/>
<path d="M99.6061 251.799C98.1325 259.928 94.6495 273.462 87.3543 277.77C82.4499 268.82 76.7409 258.115 74.7816 254.707C68.5411 243.841 71.5488 236.534 71.5488 236.534C71.5488 236.534 88.9572 234.814 93.7283 230.639L95.4478 233.288C95.4478 233.288 99.2184 249.988 99.0413 250.065C99.2268 250.632 99.4143 251.212 99.6061 251.799Z" fill="#233862"/>
<path d="M130.559 205.781C130.559 205.781 132.946 208.261 134.036 211.235C134.036 211.235 130.228 222.166 121.332 223.533C121.332 223.537 128.371 205.776 130.559 205.781Z" fill="#ED7D2B"/>
<path d="M87.7696 237.789L87.8279 234.631C81.5395 235.425 66.1508 227.127 66.1508 227.127C66.1508 227.127 59.5705 231.504 58.6701 244.01C58.2303 250.111 55.4498 275.901 55.1413 283.613C55.0287 286.406 54.9933 288.407 54.9787 289.195C54.9624 289.434 54.8687 289.662 54.7119 289.843C53.4268 291.482 52.2866 293.23 51.304 295.066C41.716 312.923 46.7185 337.185 46.7185 337.185L48.9466 336.618C48.9466 336.618 57.061 311.466 62.3656 300.588C63.266 298.743 64.0831 297.307 64.7668 296.475C66.7615 294.053 68.8646 289.941 70.9364 284.991C74.855 275.632 78.6589 263.284 81.3706 253.726C81.5624 253.742 87.7696 237.789 87.7696 237.789Z" fill="#2B478B"/>
<path d="M124.575 216.721C114.293 214.361 120.863 199.915 121.449 200.169C122.875 199.877 126.003 197.376 128.803 192.492L129.18 192.819L135.495 198.355C135.495 198.355 134.036 200.509 132.807 202.618C131.848 204.269 131.031 205.897 131.162 206.455C131.683 206.855 127.318 217.352 124.575 216.721Z" fill="#FFB27D"/>
<path d="M135.503 198.363C135.503 198.363 134.044 200.514 132.814 202.625C128.89 200.205 128.883 195.345 129.188 192.829L135.503 198.363Z" fill="#ED985F"/>
<path d="M135.678 201.13C135.678 201.13 126.144 195.825 129.54 189.941C132.935 184.057 133.99 179.407 140.22 182.544C146.45 185.681 146.327 188.603 145.67 190.844C145.014 193.084 138.244 202.358 135.678 201.13Z" fill="#FFB27D"/>
<path d="M147.281 187.411C146.845 184.797 145.517 184.549 144.592 184.722C141.069 178.901 135.319 181.179 135.319 181.179C132.246 185.035 127.805 185.691 127.805 185.691C127.805 185.691 128.911 187.751 133.47 189.026C134.862 189.416 136.442 189.18 137.966 188.668C135.933 189.771 133.759 190.591 131.504 191.106C137.511 191.655 143.227 186.164 143.819 185.577C144.096 186.427 144.582 188.209 144.292 189.512C143.896 191.282 142.324 194.487 143.283 194.902C143.275 194.894 147.939 191.329 147.281 187.411Z" fill="#2C3A64"/>
<path d="M60.1398 337.85H43.2566C43.2566 337.85 42.8523 335.278 43.7339 333.327C44.5781 331.451 45.9016 330.603 45.5848 328.337C46.6562 329.442 48.4049 330.678 50.8457 330.35C51.1438 330.834 52.7737 333.429 53.7742 334.146C54.8831 334.938 59.8 334.657 60.1398 337.85Z" fill="#233862"/>
<path d="M125.782 228.171C123.61 228.929 120.571 229.344 117.445 229.682C113.007 230.167 108.426 230.499 106.025 231.455C105.149 231.806 104.565 232.235 104.38 232.787C103.338 235.914 98.7523 240.743 98.7523 240.743C69.3589 239.411 66.1406 227.128 66.1406 227.128C85.9127 204.128 119.383 197.472 119.383 197.472C119.383 197.472 121.774 196.457 127.798 201.243C131.816 204.438 131.287 205.666 131.287 205.666C131.287 205.666 132.173 225.949 125.782 228.171Z" fill="#F99746"/>
<path d="M117.445 229.688C113.008 230.174 108.426 230.505 106.025 231.462C105.043 216.805 111.961 205.781 111.961 205.781C111.961 205.781 116.466 224.142 117.445 229.688Z" fill="#ED7D2B"/>
<path d="M122.016 202.949C122.016 202.949 110.894 204.047 110.002 211.286C109.11 218.525 120.666 247.95 122.321 250.616C125.335 255.468 143.074 272.101 143.074 272.101L146.345 270.121C146.345 270.121 133.77 248.805 131.813 246.808C128.753 243.677 125.783 205.45 122.016 202.949Z" fill="#FFB27D"/>
<path d="M110.317 215.616C110.346 215.78 120.582 218.951 127.171 215.616C127.171 215.616 128.58 200.417 120.71 201.234C112.839 202.051 108.189 204.535 107.995 208.3C107.801 212.064 110.317 215.616 110.317 215.616Z" fill="#F99746"/>
<path d="M142.059 269.972C142.059 269.972 146.048 266.308 147.772 266.221C149.496 266.133 154.621 266.742 154.798 267.452C154.975 268.163 149.533 269.512 149.227 269.966C148.92 270.42 145.583 273.532 144.099 272.97C142.615 272.407 142.059 269.972 142.059 269.972Z" fill="#FFB27D"/>
<path d="M373.207 338.795C372.199 338.795 371.14 338.065 370.844 337.152L310.089 150.503C309.793 149.588 310.369 148.836 311.378 148.836C312.386 148.836 313.445 149.565 313.743 150.478L374.496 337.127C374.794 338.042 374.216 338.788 373.207 338.795Z" fill="#233862"/>
<path d="M422.168 338.507C421.16 338.507 420.101 337.777 419.805 336.862L359.05 150.213C358.754 149.3 359.33 148.546 360.338 148.546C361.347 148.546 362.406 149.275 362.704 150.188L423.457 336.837C423.755 337.754 423.177 338.5 422.168 338.507Z" fill="#233862"/>
<path d="M369.45 176.223L320.282 176.51C319.334 176.51 318.329 175.816 318.05 174.959C317.77 174.101 318.316 173.392 319.265 173.388L368.432 173.1C369.381 173.1 370.385 173.792 370.665 174.651C370.944 175.51 370.398 176.216 369.45 176.223Z" fill="#233862"/>
<path d="M380.055 208.81L330.887 209.098C329.939 209.098 328.934 208.403 328.655 207.545C328.376 206.688 328.922 205.979 329.87 205.975L379.038 205.688C379.986 205.688 380.991 206.38 381.27 207.238C381.549 208.097 381.003 208.804 380.055 208.81Z" fill="#233862"/>
<path d="M390.274 240.198L341.106 240.486C340.158 240.486 339.153 239.792 338.874 238.935C338.594 238.076 339.143 237.367 340.089 237.363L389.256 237.076C390.205 237.076 391.209 237.768 391.489 238.626C391.768 239.485 391.222 240.192 390.274 240.198Z" fill="#233862"/>
<path d="M401.774 275.531L352.606 275.819C351.658 275.819 350.653 275.127 350.374 274.268C350.095 273.409 350.641 272.703 351.589 272.696L400.757 272.409C401.705 272.409 402.71 273.101 402.989 273.96C403.272 274.818 402.722 275.527 401.774 275.531Z" fill="#233862"/>
<path d="M413.813 312.516L364.645 312.793C363.697 312.793 362.692 312.101 362.413 311.242C362.133 310.384 362.682 309.677 363.63 309.671L412.798 309.385C413.746 309.385 414.748 310.077 415.028 310.936C415.309 311.803 414.761 312.51 413.813 312.516Z" fill="#233862"/>
<path d="M310.758 116.091C309.853 115.453 307.8 114.046 307.694 114.361C307.617 114.586 307.727 114.967 307.973 115.365C306.722 114.903 305.472 114.598 302.491 115.172C302.196 115.226 301.914 115.339 301.663 115.505C301.412 115.671 301.198 115.886 301.032 116.137C300.73 116.61 300.615 117.202 301.376 117.675C302.898 118.619 302.456 118.052 304.569 119.43C306.683 120.808 309.272 121.16 310.822 120.193L312.896 119.847L313.155 116.433C313.155 116.433 311.96 116.293 310.758 116.091Z" fill="#FFB27D"/>
<path d="M365.13 87.4765C365.13 87.4765 360.238 93.2793 354.01 90.8511C354.01 90.8511 352.67 87.6099 352.649 85.2234C352.649 84.9295 352.649 84.6439 352.639 84.3729C352.605 81.682 352.516 80.173 352.516 80.173C352.799 80.0542 362.039 76.2607 362.031 76.5775C361.883 83.8394 365.13 87.4765 365.13 87.4765Z" fill="#FFB27D"/>
<path d="M361.113 78.3041C360.223 79.9549 357.166 83.1877 352.643 84.3675C352.609 81.6766 352.52 80.1675 352.52 80.1675C352.782 80.0883 361.378 77.8101 361.113 78.3041Z" fill="#ED975D"/>
<path d="M350.585 79.8811C350.585 79.8811 360.977 82.3239 362.399 75.8291C363.82 69.3343 366.119 65.2761 359.545 63.4419C352.971 61.6077 351.135 63.8025 350.132 65.8535C349.13 67.9045 347.919 79.0765 350.585 79.8811Z" fill="#FFB27D"/>
<path d="M362.045 77.5976C362.187 77.6873 364.421 78.3751 368.657 69.9398C369.322 68.6162 369.774 65.7502 368.225 63.2199C366.677 60.6895 361.18 58.6989 356.616 57.8318C352.051 56.9647 350.959 59.5452 349.881 62.1152C348.753 64.8248 345.504 67.0571 345.504 67.0571C349.441 69.2561 354.181 66.1108 355.823 66.6278C357.466 67.1447 358.047 69.7334 358.17 70.563C358.293 71.3926 358.483 72.0825 360.549 71.3425C362.614 70.6026 361.482 74.2606 361.151 74.9693C361.141 74.9693 360.859 76.8452 362.045 77.5976Z" fill="#233862"/>
<path d="M373.255 239.024H379.548C380.867 239.024 382.333 237.702 382.699 235.285C383.066 232.867 385.778 231.547 386.366 229.567C386.953 227.587 383.946 224.8 383.946 224.8L383.443 224.156L382.92 223.483L377.937 224.654C377.937 224.654 377.814 225.842 377.728 227.354C377.663 228.506 377.656 229.661 377.707 230.814C377.855 233.452 376.967 236.293 374.625 236.808C372.282 237.323 373.255 239.024 373.255 239.024Z" fill="#2C3A64"/>
<path d="M345.008 239.558H361.683C361.805 239.539 361.924 239.505 362.037 239.456C363.15 238.9 362.802 234.635 362.662 233.318C362.635 233.074 362.616 232.932 362.616 232.932C362.616 232.932 356.753 228.24 355.946 231.832C355.921 231.944 355.892 232.055 355.861 232.163C354.844 235.523 350.292 237.049 347.663 237.474C345.662 237.803 345.141 238.975 345.008 239.558Z" fill="#2C3A64"/>
<path d="M348.371 143.379C348.371 143.379 349.261 154.493 350.307 167.851C351.731 185.998 353.434 208.288 353.611 212.511C353.903 219.841 355.07 231.57 355.07 231.57C355.07 231.57 357.855 234.357 363.426 233.183C363.426 233.183 368.393 216.439 369.813 198.725C369.834 198.435 369.857 198.141 369.877 197.849C371.205 179.813 373.26 141.841 373.26 141.841L348.371 143.379Z" fill="#2B478B"/>
<path d="M348.371 143.379C348.371 143.379 349.261 154.493 350.307 167.851L369.821 198.725C369.842 198.435 369.865 198.141 369.886 197.849C371.205 179.813 373.26 141.841 373.26 141.841L348.371 143.379Z" fill="#233862"/>
<path d="M353.918 141.008C353.918 141.008 362.935 178.186 369.819 198.723C376.704 219.26 376.992 229.211 376.992 229.211C376.992 229.211 384.793 227.687 385.637 226.168C385.637 226.168 388.312 190.995 383.007 180.938C380.01 175.256 380.506 162.093 380.506 156.096C380.506 144.987 377.04 133.954 377.04 133.954L353.918 141.008Z" fill="#2B478B"/>
<path d="M389.049 137.385L389.218 139.974C389.218 139.974 387.511 144.572 392.294 146.931C392.294 146.931 394.341 147.765 394.425 146.162C394.508 144.56 394.245 145.168 394.412 142.925C394.579 140.683 393.697 138.559 392.211 137.844L390.994 136.439L389.049 137.385Z" fill="#FFB27D"/>
<path d="M390.919 139.272C389.143 139.841 388.857 139.711 388.857 139.711C388.857 139.711 380.209 123.966 379.332 122.524C378.454 121.082 360.969 104.865 360.969 104.865L365.463 88.1073C365.463 88.1073 385.349 113.864 387.5 117.559C391.044 123.666 393.128 137.852 393.128 137.852C392.525 138.506 391.764 138.995 390.919 139.272Z" fill="#1E3D70"/>
<path d="M344.979 111.447C345.042 114.889 345.242 118.757 345.511 122.686L345.561 123.387C345.732 125.821 345.919 128.26 346.134 130.64C346.221 131.593 346.313 132.537 346.407 133.462L346.421 133.587C346.421 133.933 346.471 134.311 346.511 134.652C347.387 143.565 348.306 150.606 348.477 150.714C348.676 150.853 348.919 150.914 349.16 150.887C351.499 150.596 358.471 151.125 364.18 149.883C368.997 148.866 373.143 146.94 377.541 144.343C378.124 143.999 379.454 143.092 379.346 142.402C379.239 141.652 379.044 140.568 378.793 139.205C377.926 134.465 376.432 126.311 375.923 116.767C375.823 114.989 375.679 113.237 375.492 111.508C375.053 107.264 374.274 103.061 373.164 98.9414C371.206 91.8922 368.33 86.4958 364.72 84.3843C364.249 84.1196 361.712 85.735 359.382 87.2295C357.417 88.4882 355.083 89.0417 352.762 88.799L350.824 90.9417C348.475 93.6722 345.975 97.3073 345.292 102.472C345.242 102.853 345.198 103.259 345.16 103.69C344.967 106.271 344.906 108.86 344.979 111.447Z" fill="#2A4E96"/>
<path d="M344.979 111.446C345.041 114.887 345.242 118.756 345.51 122.685L345.56 123.385C358.9 115.029 360.966 99.7383 360.966 99.7383C354.398 100.026 349.181 101.537 345.16 103.699C344.967 106.276 344.906 108.862 344.979 111.446Z" fill="#1E3D70"/>
<path d="M311.247 118.029C311.11 116.049 312.135 115.719 312.135 115.719C312.135 115.719 332.264 112.072 333.975 111.532C335.686 110.992 350.316 95.7742 350.316 95.7742C350.316 95.7742 355.925 89.4503 360.517 90.8468C364.506 92.0599 366.065 95.1739 366.597 98.142C366.899 99.8705 366.674 101.65 365.95 103.249C365.227 104.847 364.039 106.191 362.541 107.105C355.673 111.317 341.92 119.611 338.683 120.567C331.474 122.681 312.108 120.736 312.108 120.736C311.617 119.912 311.322 118.985 311.247 118.029Z" fill="#2A4E96"/>
<path d="M321.889 140.254C321.742 140.725 321.414 141.119 320.977 141.348C320.54 141.577 320.03 141.624 319.558 141.477C310.166 138.547 300.218 136.608 290.403 135.481C279.633 134.242 268.636 134.001 263.46 134.363C263.213 134.385 262.964 134.357 262.728 134.281C262.491 134.204 262.273 134.082 262.084 133.92C261.896 133.758 261.742 133.56 261.632 133.337C261.521 133.115 261.457 132.873 261.441 132.625C261.426 132.377 261.46 132.129 261.542 131.894C261.624 131.66 261.752 131.444 261.919 131.26C262.085 131.076 262.287 130.927 262.512 130.822C262.737 130.717 262.981 130.658 263.229 130.649C271.279 130.17 282.595 130.801 291.143 131.808C300.939 132.963 311.081 134.934 320.665 137.923C321.136 138.07 321.53 138.398 321.76 138.835C321.989 139.272 322.035 139.782 321.889 140.254Z" fill="#2B478B"/>
<path d="M506.688 307.841C506.527 307.496 506.323 307.173 506.082 306.878C505.904 306.662 505.707 306.462 505.494 306.28L504.602 305.377L504.368 305.55C499.812 303.32 490.403 305.686 480.88 311.901C469.372 319.405 461.985 329.756 464.116 335.246L463.793 335.486L465.072 336.761C465.133 336.826 465.195 336.888 465.26 336.951L465.297 336.986C465.632 337.289 466.004 337.547 466.404 337.756C470.902 340.113 480.415 337.766 490.039 331.482C501.775 323.841 509.223 313.254 506.688 307.841Z" fill="#FFA412"/>
<path d="M479.509 310.527C491.229 302.873 502.787 301.057 505.322 306.47C507.856 311.883 500.409 322.474 488.689 330.128C476.968 337.781 465.409 339.595 462.874 334.182C460.339 328.769 467.787 318.178 479.509 310.527Z" fill="#FFB93E"/>
<path d="M471.091 334.994C470.22 335.009 469.352 334.903 468.51 334.679C467.051 334.262 466.036 333.447 465.497 332.274C464.44 329.969 465.419 326.548 468.254 322.638C471.022 318.819 475.251 314.947 480.158 311.735C487.693 306.799 495.357 304.417 499.682 305.663C501.141 306.08 502.158 306.893 502.696 308.066C503.753 310.372 502.775 313.794 499.94 317.702C497.17 321.521 492.943 325.393 488.037 328.607C481.829 332.662 475.535 334.994 471.091 334.994ZM497.129 306.188C492.879 306.188 486.636 308.508 480.627 312.441C475.806 315.599 471.664 319.395 468.954 323.132C466.347 326.725 465.374 329.923 466.282 331.903C466.712 332.839 467.543 333.491 468.754 333.839C469.508 334.043 470.287 334.141 471.068 334.129C475.318 334.129 481.561 331.809 487.57 327.876C492.391 324.72 496.532 320.923 499.242 317.187C501.847 313.594 502.821 310.397 501.912 308.414C501.483 307.479 500.651 306.828 499.442 306.478C498.688 306.275 497.909 306.178 497.129 306.188Z" fill="#FFA412"/>
<path d="M479.374 323.116C479.711 322.971 480.034 322.796 480.341 322.595C480.625 322.402 480.887 322.179 481.123 321.93C481.374 321.66 481.601 321.367 481.8 321.057C482.036 320.689 482.25 320.307 482.442 319.914C482.821 319.165 483.209 318.467 483.605 317.818C483.995 317.178 484.44 316.574 484.937 316.013C485.442 315.445 486.005 314.933 486.619 314.485C487.308 313.988 488.05 313.569 488.83 313.234C489.46 312.942 490.125 312.732 490.808 312.609C491.308 312.515 491.822 312.533 492.313 312.661C492.707 312.771 493.052 313.011 493.293 313.34C493.545 313.718 493.681 314.162 493.683 314.616L496.44 313.418L496.294 314.906L493.491 316.138C493.322 316.75 493.061 317.333 492.718 317.868C492.334 318.469 491.882 319.024 491.369 319.52C490.793 320.077 490.165 320.578 489.493 321.015C488.745 321.504 487.956 321.929 487.136 322.284L487.396 319.596C488.266 319.247 489.066 318.746 489.76 318.116C490.302 317.584 490.594 317.061 490.65 316.546C490.688 316.326 490.65 316.099 490.544 315.902C490.496 315.827 490.433 315.762 490.359 315.712C490.285 315.663 490.202 315.629 490.114 315.612C489.886 315.573 489.651 315.583 489.427 315.639C489.123 315.709 488.827 315.809 488.543 315.937C488.238 316.071 487.945 316.23 487.667 316.413C487.395 316.592 487.144 316.802 486.919 317.038C486.667 317.309 486.44 317.603 486.242 317.916C486.024 318.252 485.793 318.651 485.55 319.114C485.155 319.863 484.758 320.562 484.357 321.211C483.962 321.85 483.512 322.455 483.013 323.018C482.504 323.584 481.938 324.097 481.325 324.548C480.639 325.044 479.901 325.463 479.124 325.799C478.482 326.094 477.804 326.304 477.108 326.424C476.613 326.516 476.103 326.494 475.618 326.361C475.229 326.247 474.894 325.998 474.671 325.659C474.433 325.269 474.305 324.822 474.303 324.365L471.73 325.494L471.874 324.014L474.432 322.891C474.577 322.295 474.795 321.719 475.08 321.175C475.42 320.535 475.841 319.94 476.331 319.406C476.909 318.77 477.556 318.199 478.259 317.703C479.102 317.109 480.005 316.605 480.954 316.198L480.693 318.889C480.151 319.115 479.632 319.395 479.144 319.723C478.768 319.978 478.423 320.278 478.117 320.615C477.878 320.877 477.683 321.175 477.537 321.499C477.423 321.757 477.348 322.031 477.317 322.311C477.279 322.547 477.311 322.788 477.41 323.006C477.453 323.089 477.512 323.162 477.584 323.222C477.655 323.283 477.738 323.328 477.827 323.356C478.046 323.42 478.277 323.429 478.5 323.381C478.801 323.328 479.095 323.239 479.374 323.116Z" fill="#FFA412"/>
<path d="M276.125 39.5353C276.228 39.3162 276.356 39.1104 276.509 38.9225C276.621 38.785 276.746 38.658 276.882 38.5432L277.449 37.97L277.597 38.0784C280.488 36.6631 286.459 38.1638 292.502 42.1074C299.797 46.8743 304.489 53.4379 303.132 56.9271L303.34 57.0792L302.528 57.8879C302.488 57.9296 302.448 57.9692 302.407 58.0068L302.384 58.0297C302.172 58.2217 301.935 58.3857 301.681 58.5174C298.826 60.014 292.79 58.5174 286.674 54.5384C279.252 49.684 274.52 42.9641 276.125 39.5353Z" fill="#FFA412"/>
<path d="M293.376 41.2349C285.939 36.3784 278.607 35.2258 276.998 38.6608C275.388 42.0958 280.124 48.8157 287.553 53.668C294.981 58.5204 302.324 59.6751 303.931 56.2401C305.538 52.8051 300.815 46.0894 293.376 41.2349Z" fill="#FFB93E"/>
<path d="M287.968 52.6981C284.854 50.6596 282.172 48.2021 280.415 45.7801C278.616 43.2998 277.995 41.1279 278.666 39.6647C279.008 38.9206 279.652 38.4141 280.579 38.1389C283.324 37.349 288.187 38.8622 292.969 41.9929C296.08 44.0314 298.763 46.4888 300.52 48.9108C302.319 51.3912 302.94 53.5631 302.271 55.0263C301.929 55.7704 301.285 56.2769 300.358 56.552C299.824 56.6976 299.272 56.7677 298.719 56.7605C295.901 56.7584 291.906 55.2785 287.968 52.6981ZM280.729 38.6642C279.962 38.8851 279.435 39.2999 279.162 39.894C278.585 41.1446 279.204 43.1789 280.856 45.4592C282.576 47.829 285.209 50.2385 288.266 52.2416C292.081 54.7428 296.041 56.2123 298.738 56.2018C299.231 56.209 299.722 56.1473 300.197 56.0184C300.966 55.7975 301.494 55.3931 301.767 54.7908C302.342 53.5401 301.725 51.5037 300.07 49.2235C298.352 46.8536 295.72 44.4441 292.66 42.441C288.848 39.9398 284.888 38.4808 282.19 38.4808C281.697 38.4745 281.206 38.5362 280.729 38.6642Z" fill="#FFA412"/>
<path d="M294.017 49.3999C294.159 49.43 294.306 49.4243 294.445 49.3832C294.557 49.3469 294.651 49.2675 294.705 49.1623C294.768 49.024 294.788 48.8703 294.764 48.7204C294.745 48.5424 294.698 48.3686 294.624 48.2056C294.533 47.9998 294.408 47.8103 294.255 47.6449C294.062 47.4305 293.844 47.2402 293.605 47.078C293.296 46.8679 292.967 46.6884 292.623 46.5423L292.456 44.8352C293.058 45.0925 293.631 45.4125 294.165 45.7898C294.612 46.1038 295.022 46.4659 295.389 46.8695C295.699 47.2084 295.964 47.586 296.177 47.993C296.36 48.3372 296.5 48.7027 296.594 49.081L298.217 49.7959L298.307 50.7339L296.677 50.0169C296.674 50.3068 296.593 50.5906 296.442 50.8381C296.3 51.0531 296.088 51.2111 295.841 51.2842C295.533 51.3698 295.209 51.3834 294.895 51.3238C294.453 51.2458 294.023 51.1113 293.615 50.9236C293.123 50.7118 292.655 50.4462 292.221 50.1315C291.83 49.8471 291.471 49.5214 291.149 49.1602C290.832 48.8041 290.547 48.4204 290.297 48.0138C290.043 47.597 289.788 47.1593 289.538 46.684C289.386 46.3901 289.238 46.1358 289.101 45.9232C288.974 45.7249 288.83 45.5386 288.669 45.3667C288.527 45.2139 288.367 45.0782 288.194 44.9624C288.018 44.847 287.832 44.7466 287.639 44.6622C287.459 44.5801 287.272 44.5166 287.079 44.4725C286.936 44.4363 286.788 44.4306 286.643 44.4559C286.588 44.4663 286.535 44.488 286.488 44.5195C286.441 44.551 286.401 44.5918 286.37 44.6393C286.3 44.7663 286.277 44.9137 286.303 45.0562C286.368 45.4442 286.567 45.7971 286.866 46.0525C287.307 46.4518 287.815 46.7701 288.367 46.9925L288.532 48.6975C288.011 48.4718 287.511 48.2019 287.037 47.8909C286.611 47.614 286.213 47.2964 285.849 46.9425C285.525 46.6295 285.238 46.2797 284.994 45.9003C284.777 45.5618 284.611 45.1921 284.505 44.8039L282.725 44.0223L282.633 43.076L284.388 43.8472C284.389 43.5591 284.475 43.2777 284.636 43.0385C284.789 42.8276 285.01 42.6753 285.261 42.6071C285.573 42.525 285.899 42.5136 286.216 42.5737C286.648 42.6515 287.068 42.7839 287.466 42.9676C287.962 43.1803 288.432 43.4466 288.869 43.7618C289.259 44.0456 289.616 44.3706 289.936 44.731C290.252 45.0873 290.535 45.4709 290.783 45.8774C291.036 46.2943 291.281 46.7375 291.52 47.2072C291.645 47.457 291.784 47.6992 291.937 47.9325C292.064 48.1294 292.208 48.3143 292.369 48.4849C292.518 48.6421 292.684 48.782 292.865 48.9018C293.059 49.0305 293.264 49.1421 293.478 49.2353C293.651 49.3103 293.832 49.3656 294.017 49.3999Z" fill="#FFA412"/>
<path d="M576.921 337.587H0.821231C0.367678 337.587 0 337.955 0 338.408V339.18C0 339.633 0.367678 340.001 0.821231 340.001H576.921C577.375 340.001 577.742 339.633 577.742 339.18V338.408C577.742 337.955 577.375 337.587 576.921 337.587Z" fill="#BFABD3"/>
</g>
<defs>
<clipPath id="clip0_1472_14953">
<rect width="577.742" height="340" fill="white"/>
</clipPath>
</defs>
</svg>
