<svg width="653" height="340" viewBox="0 0 653 340" fill="none" xmlns="http://www.w3.org/2000/svg">
<g clipPath="url(#clip0_1473_17682)">
<path d="M55.3782 339.104C55.4075 339.126 620.841 339.027 620.841 339.027C620.841 339.027 635.941 312.322 641.554 250.84C653.882 115.386 558.49 94.4956 530.733 88.8357C445.743 71.5431 484.421 -14.0642 262.954 1.99691C242.656 3.46929 194.797 15.3541 178.304 23.0537C166.736 28.4569 123.146 52.5936 110.36 93.4374C106.322 106.329 105.354 120.884 109.426 137.035C123.835 194.196 86.2621 190.909 58.8047 218.151C22.1529 254.503 25.9847 313.97 55.3782 339.104Z" fill="#EBF3FA"/>
<path d="M307.928 155.178L265.587 205.482L198.526 149.034V149.032L170.27 125.249L212.608 74.9472L265.368 119.355L307.928 155.178Z" fill="#DCEAFF"/>
<path d="M297.744 156.216L264.874 195.268L179.199 123.155L212.069 84.1034L297.744 156.216ZM267.717 189.471L292.507 160.021C292.908 159.546 293.211 158.996 293.399 158.403C293.587 157.811 293.656 157.187 293.603 156.568C293.55 155.948 293.375 155.345 293.088 154.794C292.802 154.242 292.409 153.752 291.933 153.352L215.943 89.3918C215.46 88.9845 214.9 88.6765 214.297 88.4854C213.695 88.2943 213.06 88.2238 212.43 88.278C211.8 88.3321 211.186 88.5098 210.625 88.801C210.064 89.0921 209.565 89.491 209.158 89.9749L184.467 119.312C183.652 120.281 183.255 121.535 183.364 122.797C183.472 124.058 184.077 125.226 185.046 126.041L261.087 190.045C262.043 190.847 263.278 191.237 264.521 191.129C265.764 191.022 266.914 190.425 267.717 189.471Z" fill="#C0D8FB"/>
<path d="M252.036 141.699C253.158 134.198 247.987 127.207 240.486 126.085C232.985 124.962 225.994 130.133 224.872 137.634C223.75 145.135 228.921 152.126 236.422 153.249C243.923 154.371 250.914 149.2 252.036 141.699Z" fill="#C0D8FB"/>
<path d="M347.47 119.472L294.987 149.255L255.284 79.2833L238.555 49.8019L291.038 20.0212L322.273 75.0688L347.47 119.472Z" fill="#DCEAFF"/>
<path d="M338.378 117.117L297.629 140.236L246.906 50.8578L287.656 27.7388L338.378 117.117ZM301.927 136.159L332.655 118.722C333.151 118.441 333.587 118.065 333.937 117.615C334.288 117.165 334.546 116.651 334.698 116.101C334.849 115.551 334.891 114.977 334.821 114.411C334.75 113.846 334.569 113.299 334.288 112.804L289.299 33.518C288.72 32.4983 287.76 31.7501 286.63 31.4381C285.5 31.1261 284.292 31.2758 283.272 31.8542L252.667 49.2121C251.657 49.786 250.915 50.7379 250.606 51.8584C250.297 52.9789 250.446 54.1762 251.019 55.1871L296.046 134.524C296.61 135.52 297.546 136.251 298.649 136.558C299.751 136.864 300.93 136.721 301.927 136.159Z" fill="#C0D8FB"/>
<path d="M305.017 86.4008C306.35 79.5679 301.892 72.9481 295.059 71.6149C288.226 70.2818 281.606 74.7402 280.273 81.5731C278.94 88.4059 283.399 95.0258 290.231 96.3589C297.064 97.692 303.684 93.2336 305.017 86.4008Z" fill="#C0D8FB"/>
<path d="M596.011 195.869C590.716 173.477 553.029 179.209 553.029 179.209C553.029 179.209 526.339 217.237 518.907 217.921C511.475 218.605 535.38 180.954 535.38 180.954C521.089 179.103 483.984 195.498 483.984 195.498C483.984 195.498 484.833 240.896 477.455 239.732C470.078 238.568 478.754 199.494 478.754 199.494C464.747 203.208 451.272 218.977 451.272 218.977C434.234 244.816 468.295 265.355 468.295 265.355C468.295 265.355 468.25 281.094 457.954 298.818C457.954 298.818 455.656 302.078 453.245 307.666L457.027 307.788C457.369 306.784 457.743 305.813 458.152 304.886C458.151 304.88 458.151 304.874 458.152 304.868L458.17 304.827C458.447 304.251 458.846 303.434 459.343 302.434C460.573 300.21 461.408 298.564 461.941 297.373C465.634 290.394 470.922 281.292 474.324 279.459C473.996 278.908 473.743 278.316 473.57 277.699L474.324 279.459C480.351 293.544 512.648 296.9 530.806 293.784C548.963 290.669 541.263 285.324 531.819 276.755C522.374 268.187 501.952 269.704 496.045 266.271C490.137 262.838 499.03 259.886 511.025 261.201C523.02 262.516 528.644 274.731 548.008 277.21C567.372 279.689 583.354 243.629 583.354 243.629C569.808 247.357 545.998 239.18 545.223 234.527C544.449 229.873 580.042 231.485 585.637 230.276C591.232 229.067 601.306 218.263 596.011 195.869Z" fill="#DFEBFD"/>
<path opacity="0.5" d="M419.673 145.867C428.028 134.207 448.4 146.43 448.4 146.43C448.4 146.43 454.792 174.675 458.912 176.823C463.032 178.97 458.165 151.608 458.165 151.608C466.843 153.924 484.359 172.16 484.359 172.16C484.359 172.16 473.122 198.136 477.648 199.21C482.173 200.284 486.428 175.702 486.428 175.702C493.632 181.159 497.662 193.44 497.662 193.44C501.37 212.374 476.869 216.158 476.869 216.158C476.869 216.158 473.17 225.245 474.91 237.899C474.91 237.899 475.464 240.324 475.531 244.118L473.323 243.291C473.363 242.632 473.377 241.986 473.363 241.353V241.326C473.339 240.927 473.303 240.36 473.253 239.667C473.071 238.091 472.978 236.947 472.954 236.134C472.479 231.231 471.583 224.736 470.063 222.876C470.382 222.635 470.668 222.354 470.914 222.039C470.641 222.307 470.358 222.584 470.063 222.876C463.253 229.572 443.835 223.862 434.102 217.766C424.37 211.669 430.075 210.413 437.549 207.707C445.023 205.001 456.44 210.71 460.659 210.131C464.878 209.553 460.45 205.741 453.23 203.661C446.01 201.581 439.868 207.292 428.116 204.138C416.364 200.984 415.684 176.408 415.684 176.408C422.614 181.764 438.278 182.685 439.827 180.186C441.376 177.687 420.466 170.188 417.528 168.169C414.59 166.149 411.319 157.526 419.673 145.867Z" fill="#AFCDFB"/>
<path d="M380.679 148.368C368.024 134.022 342.631 152.983 342.631 152.983C342.631 152.983 337.957 191.319 332.779 194.732C327.601 198.145 330.375 161.187 330.375 161.187C319.172 165.429 298.39 191.981 298.39 191.981C298.39 191.981 316.795 224.934 310.935 226.967C305.074 229 296.128 196.959 296.128 196.959C287.311 205.169 283.61 222.007 283.61 222.007C281.239 247.625 314.258 249.347 314.258 249.347C314.258 249.347 320.39 260.904 319.785 277.939C319.785 277.939 319.375 281.231 319.785 286.269L322.606 284.878C322.464 284.007 322.356 283.151 322.29 282.309C322.289 282.307 322.289 282.305 322.289 282.303C322.289 282.3 322.289 282.298 322.29 282.296C322.289 282.283 322.289 282.27 322.29 282.258C322.268 281.726 322.239 280.97 322.212 280.042C322.241 277.93 322.212 276.395 322.133 275.314C322.101 268.743 322.416 260.005 324.184 257.335C323.728 257.058 323.31 256.723 322.941 256.338L324.184 257.335C334.119 265.3 359.116 255.111 371.205 245.714C383.295 236.317 375.559 235.414 365.278 232.832C354.996 230.249 340.621 239.36 334.945 239.158C329.27 238.955 334.632 233.304 343.939 229.572C353.246 225.839 362.157 232.591 377.324 226.823C392.492 221.055 390.085 188.359 390.085 188.359C381.613 196.398 360.955 199.73 358.566 196.621C356.178 193.512 382.906 180.751 386.532 177.676C390.159 174.601 393.332 162.711 380.679 148.368Z" fill="#DFEBFD"/>
<path d="M582.34 162.32C582.34 162.32 597.969 178.529 598.707 184.624C599.446 190.718 591.219 200.243 591.219 200.243L582.34 162.32Z" fill="#ED7D2B"/>
<path d="M575.276 330.256C575.276 330.256 574.725 338.852 573.061 338.971C572.836 338.987 564.625 338.971 564.625 338.971L554.141 338.888C554.141 338.888 554.215 336.362 557.293 335.835C560.37 335.308 565.492 333.165 567.358 329.117C569.31 324.858 575.276 330.256 575.276 330.256Z" fill="#163560"/>
<path d="M598.632 330.308C598.632 330.308 598.08 338.904 596.416 339.023C596.191 339.039 587.981 339.023 587.981 339.023L577.496 338.94C577.496 338.94 577.57 336.411 580.637 335.885C583.703 335.358 588.836 333.214 590.703 329.169C592.663 324.907 598.632 330.308 598.632 330.308Z" fill="#163560"/>
<path d="M563.863 237.843C563.863 237.843 566.565 255.39 576.73 286.546C586.894 317.703 588.259 331.19 588.259 331.19L599.234 330.907C599.234 330.907 599.401 296.88 594.72 281.213C590.04 265.546 593.82 224.765 593.82 224.765L563.863 237.843Z" fill="#163560"/>
<path d="M558.552 225.65C558.552 225.65 558.101 252.081 562.604 284.543C567.107 317.005 565.531 330.776 565.531 330.776L576.481 331.166C576.481 331.166 583.098 298.715 581.256 282.467C579.415 266.219 590.341 226.748 590.341 226.748L558.552 225.65Z" fill="#1C468A"/>
<path d="M579.878 163.844L574.024 167.655L565.613 166.057C565.73 165.381 566.289 162.556 566.807 160.001C566.838 159.85 566.867 159.699 566.897 159.55C567.336 157.378 567.716 155.509 567.716 155.509L575.596 152.051L578.536 150.761C578.536 150.806 578.311 153.175 578.27 153.519C577.712 159.667 579.878 163.844 579.878 163.844Z" fill="#FFB27D"/>
<path d="M567.78 161.885C567.944 161.818 577.943 158.891 579.037 159.251C580.131 159.611 580.759 161.714 580.759 161.714L564.398 165.381C564.398 165.381 565.693 162.761 567.78 161.885Z" fill="#ED7D2B"/>
<path d="M594.544 228.991C592.833 236.713 564.643 237.568 557.396 230.54C556.572 229.738 556.539 226.019 556.863 221.003C557.493 211.207 559.483 196.463 559.576 188.942C559.658 185.335 560.068 181.744 560.8 178.212C561.672 173.849 562.876 169.558 564.403 165.379C564.403 165.379 578.181 160.957 580.754 161.721C593.161 165.381 596.255 221.266 594.544 228.991Z" fill="#F99746"/>
<path d="M556.859 221.003C557.49 211.207 559.48 196.463 559.572 188.942C559.655 185.335 560.065 181.744 560.797 178.212L569.084 176.769C569.084 176.769 577.11 209.861 556.859 221.003Z" fill="#ED7D2B"/>
<path d="M561.37 207.355C561.37 207.355 561.931 208.706 560.745 209.607C559.558 210.507 558.784 211.975 559.054 213.049C559.324 214.123 561.92 215.877 562.823 215.598C563.725 215.318 565.562 213.909 565.367 213.346C565.171 212.783 566.612 208.393 564.417 206.685C562.222 204.976 561.37 207.355 561.37 207.355Z" fill="#FFB27D"/>
<path d="M570.728 163.405C570.728 163.405 562.648 164.897 556.191 174.369C549.734 183.84 545.483 190.882 546.661 194.302C547.838 197.722 558.622 209.611 560.484 209.611C562.346 209.611 565.358 208.26 565.534 205.219C565.534 205.219 557.949 193.8 559.455 192.094C560.097 191.366 569.35 183.887 570.662 187.278C572.83 192.882 570.728 163.405 570.728 163.405Z" fill="#F99746"/>
<path d="M577.687 153.638C575.949 156.565 569.499 159.084 566.809 160.01C566.84 159.859 566.869 159.708 566.899 159.559C567.338 157.387 567.718 155.518 567.718 155.518L575.598 152.06C577.343 152.042 578.403 152.434 577.687 153.638Z" fill="#FCA56B"/>
<path d="M564.747 155.025C564.747 155.025 577.429 159.012 579.788 151.076C582.148 143.14 585.376 138.314 577.379 135.434C569.382 132.555 566.901 135.11 565.47 137.568C564.038 140.027 561.509 153.794 564.747 155.025Z" fill="#FFB27D"/>
<path d="M565.971 136.812C565.971 136.812 566.761 146.042 568.672 145.657C570.584 145.272 572.317 144.966 572.031 147.751C571.745 150.536 569.089 153.744 574.976 154.251C580.863 154.757 589.362 139.588 587.75 136.711C583.101 128.403 559.248 126.676 565.971 136.812Z" fill="#163560"/>
<path d="M198.465 203.166C198.465 203.166 203.289 211.338 207.711 211.453C212.133 211.568 218.862 207.664 218.862 207.664C218.862 207.664 222.914 196.774 220.168 192.512C220.168 192.512 217.405 191.053 214.517 193.638C213.952 194.152 213.45 194.731 213.022 195.363C212.47 196.225 211.657 196.889 210.701 197.256C207.549 198.411 203.801 195.693 202.4 198.316C201.731 199.57 200.911 200.737 199.96 201.792C199.503 202.293 199.003 202.753 198.465 203.166Z" fill="#F9DDBF"/>
<path d="M267.658 322.662C267.658 322.662 279.502 218.749 213.61 211.446C213.61 211.446 162.482 223.621 175.234 322.662H267.658Z" fill="#F9DDBF"/>
<path d="M222.022 212.97C222.022 212.97 209.721 216.262 205.925 214.321C205.925 214.321 205.351 208.13 210.531 208.999C214.077 209.593 216.385 207.542 217.736 206.709C219.665 205.539 222.533 210.381 222.022 212.97Z" fill="#F99746"/>
<path d="M211.317 203.638C212.102 204.35 214.518 193.629 214.518 193.629C213.953 194.143 213.452 194.721 213.023 195.354C212.471 196.216 211.658 196.88 210.702 197.247C210.695 197.56 210.554 202.947 211.317 203.638Z" fill="#E5C1A1"/>
<path d="M199.961 201.783C200.134 201.907 205.814 206.007 206.596 206.007C207.377 206.007 202.401 198.307 202.401 198.307C201.732 199.561 200.913 200.728 199.961 201.783Z" fill="#E5C1A1"/>
<path d="M426.413 117.018C435.476 107.955 435.476 93.2617 426.413 84.1989C417.35 75.136 402.656 75.136 393.593 84.1989C384.53 93.2617 384.53 107.955 393.593 117.018C402.656 126.081 417.35 126.081 426.413 117.018Z" fill="#E2810E"/>
<path d="M386.111 108.722C384.635 104.376 384.482 99.6895 385.669 95.256C386.857 90.8225 389.333 86.8408 392.784 83.8144C396.234 80.7879 400.505 78.8527 405.056 78.2534C409.606 77.6541 414.232 78.4176 418.349 80.4474C422.465 82.4772 425.888 85.6821 428.183 89.6569C430.478 93.6317 431.543 98.1978 431.243 102.778C430.943 107.358 429.292 111.746 426.498 115.388C423.704 119.029 419.893 121.761 415.547 123.236C409.719 125.215 403.343 124.797 397.823 122.075C392.303 119.353 388.09 114.55 386.111 108.722Z" fill="#FFB93E"/>
<path d="M414.973 121.543C410.341 123.119 405.306 123.04 400.726 121.319C396.145 119.599 392.304 116.343 389.855 112.107C387.406 107.871 386.502 102.917 387.296 98.0891C388.091 93.2612 390.535 88.8582 394.212 85.6305C397.889 82.4027 402.572 80.55 407.462 80.3879C412.352 80.2259 417.147 81.7646 421.03 84.7419C424.913 87.7191 427.643 91.9507 428.756 96.7154C429.868 101.48 429.294 106.483 427.131 110.872C425.91 113.365 424.207 115.592 422.12 117.424C420.033 119.256 417.604 120.656 414.973 121.543ZM401.783 82.694C398.061 83.9592 394.797 86.2994 392.405 89.419C390.012 92.5385 388.598 96.2973 388.342 100.22C388.085 104.143 388.997 108.054 390.963 111.459C392.928 114.864 395.859 117.609 399.385 119.348C402.911 121.087 406.873 121.742 410.771 121.23C414.669 120.718 418.327 119.062 421.284 116.471C424.241 113.88 426.363 110.471 427.382 106.674C428.402 102.877 428.273 98.863 427.011 95.1395C425.314 90.1452 421.703 86.0291 416.973 83.6955C412.242 81.3619 406.779 81.0017 401.783 82.694Z" fill="#FFA412"/>
<path d="M412.905 106.396C412.824 105.99 412.672 105.602 412.455 105.25C412.246 104.925 411.966 104.651 411.635 104.451C411.237 104.213 410.806 104.033 410.357 103.917C409.765 103.762 409.163 103.65 408.556 103.582C407.434 103.441 406.321 103.244 405.219 102.99C404.282 102.782 403.379 102.447 402.533 101.993C401.774 101.58 401.11 101.014 400.584 100.329C399.529 98.8234 399.111 96.9627 399.42 95.1507C399.579 94.3405 399.908 93.5733 400.386 92.8994C400.894 92.1932 401.525 91.5834 402.247 91.0983C403.067 90.5456 403.966 90.1205 404.913 89.8375L404.184 86.4042L406.948 85.8167L407.687 89.2995C408.645 89.212 409.611 89.2843 410.546 89.5134C411.41 89.7191 412.223 90.0964 412.938 90.6227C413.653 91.1491 414.255 91.8138 414.709 92.5774C415.22 93.4394 415.581 94.3818 415.778 95.3646L410.787 96.425C410.514 95.1417 410.025 94.2412 409.321 93.7234C408.966 93.4679 408.558 93.2936 408.128 93.2126C407.698 93.1317 407.255 93.1462 406.831 93.2551C406.373 93.3407 405.935 93.511 405.539 93.7571C405.218 93.9577 404.945 94.2267 404.74 94.5451C404.55 94.8497 404.432 95.1928 404.393 95.5492C404.352 95.9313 404.373 96.3176 404.456 96.6929C404.528 97.0595 404.664 97.4107 404.857 97.7308C405.055 98.0438 405.324 98.306 405.642 98.4962C406.043 98.7343 406.476 98.9133 406.928 99.0275C407.551 99.1912 408.183 99.3167 408.821 99.4035C410.022 99.5836 411.129 99.796 412.142 100.041C413.077 100.257 413.978 100.599 414.821 101.056C415.982 101.749 416.902 102.781 417.459 104.013C418.016 105.245 418.182 106.618 417.935 107.947C417.771 108.754 417.438 109.517 416.958 110.185C416.442 110.887 415.802 111.488 415.069 111.959C414.236 112.498 413.331 112.916 412.381 113.202L413.056 116.392L410.314 116.977L409.639 113.803C408.673 113.909 407.697 113.896 406.734 113.765C405.797 113.642 404.892 113.342 404.066 112.882C403.221 112.4 402.489 111.741 401.923 110.948C401.262 109.996 400.811 108.914 400.599 107.774L405.591 106.716C405.708 107.369 405.954 107.991 406.313 108.548C406.597 108.978 406.978 109.333 407.425 109.586C407.842 109.813 408.303 109.944 408.776 109.969C409.256 109.995 409.736 109.958 410.206 109.859C410.691 109.764 411.157 109.592 411.586 109.348C411.937 109.145 412.243 108.874 412.486 108.551C412.707 108.254 412.856 107.91 412.923 107.547C412.992 107.166 412.986 106.775 412.905 106.396Z" fill="#FFA412"/>
<path d="M474.717 74.7311C481.856 67.5919 481.856 56.0171 474.717 48.878C467.578 41.7388 456.003 41.7388 448.864 48.878C441.725 56.0171 441.725 67.5919 448.864 74.7311C456.003 81.8702 467.578 81.8702 474.717 74.7311Z" fill="#E2810E"/>
<path d="M442.971 68.1932C441.808 64.769 441.687 61.077 442.623 57.584C443.558 54.091 445.509 50.9539 448.227 48.5694C450.946 46.185 454.311 44.6603 457.896 44.1881C461.481 43.7159 465.126 44.3175 468.369 45.9168C471.612 47.5161 474.309 50.0412 476.117 53.1729C477.925 56.3045 478.764 59.902 478.527 63.5105C478.291 67.1189 476.989 70.5761 474.788 73.445C472.587 76.3138 469.584 78.4655 466.16 79.6277C463.886 80.4 461.483 80.7168 459.087 80.5601C456.691 80.4034 454.35 79.7762 452.196 78.7143C450.043 77.6525 448.12 76.1768 446.537 74.3715C444.954 72.5663 443.742 70.4668 442.971 68.1932Z" fill="#FFB93E"/>
<path d="M465.709 78.295C462.06 79.5346 458.093 79.4703 454.485 78.1132C450.878 76.756 447.852 74.1899 445.925 70.852C443.997 67.5142 443.286 63.6113 443.914 59.8082C444.541 56.0051 446.468 52.5373 449.366 49.9955C452.263 47.4538 455.953 45.9955 459.805 45.8691C463.657 45.7427 467.434 46.9561 470.493 49.3024C473.551 51.6487 475.701 54.9827 476.576 58.7365C477.451 62.4903 476.998 66.4314 475.293 69.8884C474.331 71.8536 472.988 73.6083 471.343 75.0513C469.698 76.4942 467.783 77.5967 465.709 78.295ZM455.319 47.6902C452.387 48.6871 449.816 50.5311 447.931 52.9892C446.046 55.4473 444.933 58.4089 444.731 61.4998C444.529 64.5907 445.249 67.6719 446.798 70.354C448.347 73.0361 450.657 75.1986 453.435 76.568C456.214 77.9375 459.336 78.4524 462.407 78.0478C465.477 77.6431 468.359 76.337 470.688 74.2946C473.017 72.2522 474.687 69.5651 475.489 66.5732C476.291 63.5813 476.187 60.4189 475.192 57.4858C473.852 53.5538 471.008 50.314 467.282 48.4775C463.556 46.641 459.254 46.3578 455.319 47.6902Z" fill="#FFA412"/>
<path d="M464.079 66.3628C464.017 66.0444 463.899 65.7395 463.73 65.4623C463.566 65.2067 463.346 64.9919 463.086 64.8342C462.773 64.6469 462.434 64.5051 462.08 64.4132C461.611 64.2918 461.134 64.2038 460.653 64.1498C459.769 64.0389 458.891 63.8833 458.023 63.6837C457.285 63.52 456.573 63.2556 455.907 62.898C455.31 62.5728 454.787 62.1265 454.372 61.5877C453.54 60.3994 453.21 58.9314 453.453 57.5016C453.58 56.8643 453.839 56.2607 454.214 55.7297C454.615 55.1707 455.112 54.6874 455.682 54.3024C456.328 53.8662 457.036 53.5306 457.782 53.3073L457.208 50.6057L459.385 50.1442L459.966 52.8863C460.721 52.8177 461.482 52.8747 462.217 53.0551C462.898 53.2172 463.538 53.5143 464.102 53.9289C464.665 54.3435 465.139 54.8671 465.495 55.4686C465.901 56.1501 466.187 56.8965 466.34 57.6749L462.409 58.5079C462.196 57.4963 461.811 56.7879 461.254 56.3826C460.974 56.181 460.653 56.0433 460.313 55.9795C459.974 55.9157 459.625 55.9273 459.291 56.0134C458.93 56.0821 458.586 56.2156 458.273 56.4074C458.021 56.567 457.806 56.7799 457.645 57.031C457.496 57.2708 457.403 57.5408 457.373 57.8212C457.339 58.1221 457.356 58.4264 457.422 58.7218C457.478 59.0106 457.585 59.2872 457.737 59.539C457.893 59.7851 458.105 59.9917 458.354 60.1424C458.67 60.3292 459.011 60.4702 459.367 60.5611C459.859 60.6884 460.357 60.7876 460.86 60.8583C461.81 60.9994 462.682 61.166 463.476 61.3581C464.212 61.5287 464.922 61.7983 465.585 62.1596C466.185 62.4871 466.709 62.9356 467.125 63.4766C467.96 64.6729 468.288 66.1503 468.039 67.5876C467.911 68.2231 467.648 68.824 467.269 69.3504C466.864 69.9039 466.359 70.3778 465.781 70.7484C465.126 71.1726 464.413 71.5016 463.665 71.7255L464.199 74.2403L462.035 74.6905L461.504 72.1893C460.743 72.2731 459.975 72.2632 459.216 72.16C458.478 72.0623 457.765 71.8263 457.114 71.4644C456.447 71.0851 455.87 70.565 455.425 69.9402C454.905 69.1905 454.549 68.3386 454.383 67.4412L458.314 66.606C458.407 67.1197 458.601 67.61 458.883 68.0491C459.108 68.3871 459.409 68.6677 459.761 68.8686C460.09 69.0478 460.455 69.1509 460.828 69.1703C461.206 69.1906 461.584 69.1611 461.954 69.0825C462.336 69.0084 462.703 68.8722 463.041 68.6795C463.319 68.5203 463.561 68.3075 463.755 68.0536C463.928 67.8192 464.046 67.548 464.097 67.2611C464.152 66.9635 464.146 66.658 464.079 66.3628Z" fill="#FFA412"/>
<path d="M251.613 225.985C251.613 225.985 248.657 230.148 245.944 230.207C243.231 230.265 239.109 228.277 239.109 228.277C239.109 228.277 236.632 222.73 238.309 220.56C238.887 220.353 239.509 220.297 240.114 220.397C240.72 220.497 241.29 220.749 241.772 221.129C242.112 221.384 242.419 221.678 242.688 222.007C243.054 222.465 243.55 222.8 244.111 222.971C246.045 223.561 248.341 222.176 249.201 223.511C249.623 224.162 250.125 224.758 250.696 225.283C250.981 225.543 251.288 225.778 251.613 225.985Z" fill="#FFEDDC"/>
<path d="M213.062 256.014C213.062 256.014 223.513 230.688 242.33 230.207C242.33 230.207 259.697 232.136 260.663 256.014H213.062Z" fill="#FFEDDC"/>
<path d="M237.173 230.981C237.173 230.981 244.715 232.658 247.041 231.672C247.041 231.672 247.392 228.52 244.218 228.971C242.043 229.272 240.616 228.228 239.796 227.804C238.617 227.194 236.861 229.662 237.173 230.981Z" fill="#DB6A1D"/>
<path d="M243.737 226.228C243.255 226.589 241.773 221.129 241.773 221.129C242.113 221.384 242.421 221.678 242.69 222.007C243.056 222.465 243.552 222.8 244.113 222.971C244.117 223.131 244.205 225.875 243.737 226.228Z" fill="#E5C1A1"/>
<path d="M250.696 225.283C250.59 225.344 247.094 227.433 246.63 227.433C246.166 227.433 249.201 223.511 249.201 223.511C249.623 224.162 250.125 224.758 250.696 225.283Z" fill="#E5C1A1"/>
<path d="M223.265 248.94C223.072 248.773 230.661 237.764 232.753 237.683C234.844 237.602 239.538 240.097 242.94 240.416C246.342 240.736 249.635 239.775 250.279 241.785C250.923 243.796 252.69 250.919 251.605 252.06C250.52 253.202 227.446 252.508 223.265 248.94Z" fill="#F9DDBF"/>
<path d="M509.738 195.014L488.181 259.141C483.266 273.829 475.426 287.369 465.134 298.945C445.093 321.472 417.114 335.373 387.055 337.737C371.615 338.926 356.093 336.996 341.414 332.062C326.736 327.128 313.2 319.291 301.612 309.017C279.085 288.976 265.184 260.997 262.819 230.938C261.609 215.496 263.54 199.968 268.495 185.292L290.054 121.167L344.163 139.349L322.606 203.476C317.631 218.272 318.756 234.203 325.776 248.332C332.796 262.461 344.811 272.982 359.609 277.955C374.407 282.928 390.335 281.803 404.463 274.783C418.59 267.763 429.113 255.748 434.086 240.952L455.642 176.825L509.738 195.014Z" fill="#00A381"/>
<path d="M364.792 78.0771L310.648 59.8767L290.048 121.161L344.192 139.361L364.792 78.0771Z" fill="white"/>
<path d="M530.339 133.725L476.195 115.525L455.595 176.809L509.739 195.009L530.339 133.725Z" fill="white"/>
<path d="M359.598 277.948L341.409 332.055C326.724 327.142 313.186 319.306 301.612 309.017C279.085 288.976 265.184 260.997 262.819 230.938C261.609 215.496 263.54 199.968 268.495 185.292L290.054 121.167L344.163 139.349L322.606 203.476C317.631 218.272 318.756 234.203 325.776 248.332C332.796 262.461 344.8 272.982 359.598 277.948Z" fill="#00BFA3"/>
<path d="M413.71 322.75C413.473 323.007 413.317 323.328 413.259 323.672C413.201 324.017 413.245 324.371 413.385 324.691C413.854 325.985 415.412 327.428 417.197 328.872C417.422 329.058 417.631 329.225 417.809 329.383L417.947 329.504L418.052 329.601C419.727 331.145 419.097 331.499 422.105 334.633C425.538 338.203 427.9 338.269 428.573 337.942C429.14 337.665 427.985 335.772 426.704 333.642L426.52 333.332C426.349 333.05 426.177 332.762 426.009 332.478C424.509 329.916 424.894 328.714 425.25 324.9C425.538 321.802 430.07 307.59 430.07 307.59L423.494 306.464C423.494 306.464 421.513 317.781 419.329 319.522C418.163 320.449 416.852 320.463 415.727 321.152C415.646 321.199 415.569 321.249 415.502 321.298C414.841 321.699 414.239 322.187 413.71 322.75Z" fill="#FFB27D"/>
<path d="M413.71 322.75C413.473 323.007 413.317 323.328 413.259 323.672C413.201 324.017 413.245 324.371 413.385 324.691C413.959 325.983 415.466 327.422 417.213 328.858C417.438 329.047 417.64 329.221 417.818 329.383L417.956 329.504L418.061 329.601C419.736 331.145 419.106 331.499 422.114 334.633C425.547 338.203 427.909 338.269 428.582 337.942C429.149 337.665 427.994 335.772 426.713 333.642C424.313 332.707 422.203 331.154 420.596 329.139C418.53 326.503 417.152 323.113 415.745 321.152C415.664 321.199 415.587 321.249 415.52 321.298C414.853 321.698 414.244 322.186 413.71 322.75Z" fill="#233862"/>
<path d="M466.745 318.65C467.153 320.677 470.046 320.341 473.274 319.551C476.503 318.761 475.739 319.702 480.341 319.191C484.943 318.68 486.336 316.966 486.478 316.282C486.602 315.674 484.33 315.46 481.89 315.179C481.584 315.145 481.275 315.107 480.967 315.069C478.214 314.724 476.199 312.948 473.695 311.487C471.327 310.104 467.792 304.474 467.792 304.474L461.488 304.974C461.488 304.974 464.8 310.003 466.081 312.191C466.833 313.477 466.792 315.179 466.7 316.491C466.618 317.21 466.634 317.936 466.745 318.65Z" fill="#FFB27D"/>
<path d="M473.28 319.551C476.515 318.761 475.745 319.702 480.347 319.191C484.949 318.68 486.342 316.967 486.484 316.282C486.608 315.674 484.336 315.46 481.896 315.179L481.873 315.226C479.902 316.491 477.625 317.199 475.284 317.275C472.161 317.352 468.854 316.455 466.699 316.491C466.618 317.21 466.634 317.936 466.747 318.651C467.154 320.681 470.047 320.341 473.28 319.551Z" fill="#233862"/>
<path d="M442.561 278.297L436.661 294.172L428.959 314.9C427.584 315.003 426.201 314.876 424.868 314.526C423.024 313.992 420.91 312.599 420.91 312.599C420.91 312.599 423.049 290.344 427.038 277.568C428.06 274.288 429.206 271.636 430.472 270.139C436.656 262.833 442.561 278.297 442.561 278.297Z" fill="#233862"/>
<path d="M436.564 253.087C432.699 251.84 421.674 253.44 410.602 255.608L408.283 251.781L384.365 249.913C384.365 249.913 376.471 267.417 380.794 278.568C381.429 280.207 382.69 281.269 384.846 281.294H385.195H404.053C415.949 281.294 429.227 273.117 430.945 272.775C433.757 272.212 434.88 277.836 437.699 283.739C440.518 289.642 464.13 309.888 464.13 309.888C464.13 309.888 467.759 309.924 469.258 309.361C470.87 308.756 471.46 307.97 471.46 307.97C471.46 307.97 445.279 255.897 436.564 253.087Z" fill="#2B478B"/>
<path d="M407.343 182.138C404.279 180.528 399.616 180.312 398.86 180.209C389.796 178.991 384.341 192.161 384.021 196.153C383.429 203.508 379.539 204.629 374.061 209.235C363.079 218.466 366.299 229.205 372.305 233.194C375.907 235.587 382.258 233.194 382.258 233.194C382.348 233.257 399.627 223.534 408.149 218.844C420.912 217.029 415.15 186.238 407.343 182.138Z" fill="#233862"/>
<path d="M401.005 214.852C401.041 214.877 396.813 216.32 393.988 215.077C391.327 213.902 389.312 209.526 389.352 209.523C390.561 209.467 391.889 208.411 392.914 201.47L393.429 201.655L402.09 204.771C402.09 204.771 401.462 207.551 401.057 210.197C400.715 212.41 400.532 214.539 401.005 214.852Z" fill="#FFB27D"/>
<path d="M402.091 204.762C402.091 204.762 401.462 207.542 401.057 210.188C396.082 209.287 394.13 204.334 393.43 201.646L402.091 204.762Z" fill="#ED975D"/>
<path d="M403.371 207.522C403.371 207.522 391.52 205.93 392.623 198.566C393.726 191.202 392.943 186.033 400.557 186.738C408.171 187.442 409.216 190.473 409.445 193.021C409.675 195.57 406.489 207.745 403.371 207.522Z" fill="#FFB27D"/>
<path d="M409.021 188.984C409.021 188.984 401.434 195.513 396.274 196.049C391.114 196.585 389.16 194.923 389.16 194.923C391.219 193.08 392.878 190.834 394.032 188.323C394.294 187.732 394.71 187.222 395.236 186.846C395.761 186.47 396.378 186.241 397.022 186.184C400.707 185.869 407.693 185.715 409.021 188.984Z" fill="#233862"/>
<path d="M404.273 188.399C404.273 188.399 406.813 190.853 407.612 192.677C408.382 194.433 408.614 198.634 407.999 200.302C407.999 200.302 411.955 192.614 409.715 188.879C407.347 184.912 404.273 188.399 404.273 188.399Z" fill="#233862"/>
<path d="M410.984 232.312C410.624 256.302 410.885 251.288 408.26 253.566C407.628 254.114 405.851 254.44 403.512 254.595C396.155 255.084 383.223 253.87 382.732 252.513C381.035 247.808 382.233 246.346 380.816 239.144C380.67 238.379 380.486 237.55 380.272 236.648C379.092 231.695 377.944 230.017 382.131 222.07C385.929 214.866 389.874 209.03 390.236 209.238C400.255 215.183 401.063 210.185 401.063 210.185C401.063 210.185 411.16 220.609 410.984 232.312Z" fill="white"/>
<path d="M436.661 294.172L428.959 314.9C427.584 315.003 426.201 314.876 424.868 314.526C423.024 313.992 420.91 312.599 420.91 312.599C420.91 312.599 423.049 290.344 427.038 277.568L436.661 294.172Z" fill="#2B478B"/>
<path d="M401.055 210.183C401.055 210.183 411.364 211.932 412.575 216.37L420.905 246.905C420.905 246.905 415.664 247.846 413.25 245.423C410.837 243.001 404.826 222.962 404.826 222.962L401.055 210.183Z" fill="white"/>
<path d="M403.512 254.595C396.155 255.084 383.223 253.87 382.732 252.513C381.035 247.808 382.233 246.346 380.816 239.144L384.364 229.153C384.364 229.153 383.779 240.279 387.066 243.206C390.353 246.133 400.5 248.854 402.096 251.311C402.857 252.472 403.373 253.65 403.512 254.595Z" fill="#EBF3FF"/>
<path d="M395.082 249.915C395.082 249.915 402.338 248.301 403.511 248.944C404.684 249.588 407.543 251.934 407.901 252.749C408.259 253.564 405.294 252.13 404.331 251.871C403.705 251.705 402.061 252.274 401.246 252.547C397.822 253.688 395.724 253.1 395.724 253.1L395.082 249.915Z" fill="#FFB27D"/>
<path d="M390.222 209.235C390.222 209.235 380.476 209.836 377.104 214.542C372.356 221.165 362.934 249.392 368.323 253.157C374.402 257.396 395.997 254.264 395.997 254.264C395.997 254.264 396.715 250.908 395.716 249.282C394.716 247.657 378.468 245.034 377.718 244.284C376.969 243.534 387.093 229.65 387.093 227.413C387.093 225.175 390.222 209.235 390.222 209.235Z" fill="white"/>
<path d="M403.863 250.964C403.863 250.964 405.383 252.925 405.889 253.159C406.14 253.295 406.425 253.356 406.709 253.335L405.685 251.491L403.863 250.964Z" fill="#FFB27D"/>
<path d="M403.512 248.944L407.931 251.09C407.931 251.09 407.744 251.398 407.199 251.374C406.655 251.349 405.281 250.847 405.281 250.847L403.512 248.944Z" fill="#FFB27D"/>
<path d="M405.883 256.164H440.857L451.378 230.002H416.457L405.883 256.164Z" fill="#F99746"/>
<path d="M441.264 255.145H395.082V256.164H440.854L441.264 255.145Z" fill="#ED7D2B"/>
<path d="M432.026 243.084C432.292 242.163 431.758 241.418 430.84 241.418C430.355 241.445 429.891 241.619 429.508 241.916C429.125 242.214 428.842 242.621 428.696 243.084C428.433 244.003 428.964 244.748 429.885 244.748C430.369 244.721 430.833 244.547 431.215 244.25C431.598 243.953 431.88 243.546 432.026 243.084Z" fill="white"/>
<path d="M651.525 338.271H0.73844C0.330611 338.271 0 338.602 0 339.009V339.262C0 339.669 0.330611 340 0.73844 340H651.525C651.933 340 652.263 339.669 652.263 339.262V339.009C652.263 338.602 651.933 338.271 651.525 338.271Z" fill="#BFABD3"/>
<path d="M294.857 333.696V338.026C294.855 338.366 294.735 338.696 294.517 338.958C294.272 339.25 293.949 339.467 293.585 339.581C293.466 339.62 293.344 339.649 293.22 339.667C293.105 339.685 292.988 339.694 292.871 339.694H210.749C209.691 339.694 208.817 338.989 208.766 338.118C208.766 338.089 208.766 338.062 208.766 338.032V333.703C208.766 333.674 208.766 333.647 208.766 333.617C208.817 332.739 209.691 332.042 210.749 332.042H292.865C292.981 332.041 293.098 332.05 293.213 332.069C293.337 332.086 293.459 332.115 293.578 332.154C293.942 332.269 294.266 332.485 294.51 332.778C294.727 333.035 294.85 333.359 294.857 333.696Z" fill="#FFB93E"/>
<path d="M254.529 339.694H210.535C210.095 339.704 209.668 339.547 209.34 339.255C209.011 338.962 208.806 338.556 208.766 338.118C208.766 338.089 208.766 338.062 208.766 338.032V333.703C208.766 333.674 208.766 333.647 208.766 333.617C208.806 333.179 209.011 332.773 209.34 332.481C209.668 332.188 210.095 332.031 210.535 332.042H249.125C249.951 335.158 251.868 337.873 254.529 339.694Z" fill="#FFA412"/>
<path d="M284.86 332.028H283.926V339.694H284.86V332.028Z" fill="#FFA412"/>
<path d="M281.7 332.028H280.766V339.694H281.7V332.028Z" fill="#FFA412"/>
<path d="M277.911 332.028H276.977V339.694H277.911V332.028Z" fill="#FFA412"/>
<path d="M272.106 332.028H271.172V339.694H272.106V332.028Z" fill="#FFA412"/>
<path d="M265.966 332.028H265.031V339.694H265.966V332.028Z" fill="#FFA412"/>
<path d="M256.552 332.028H255.617V339.694H256.552V332.028Z" fill="#FFA412"/>
<path d="M247.739 332.028H246.805V339.694H247.739V332.028Z" fill="#FFA412"/>
<path d="M239.868 332.028H238.934V339.694H239.868V332.028Z" fill="#FFA412"/>
<path d="M287.866 332.028H286.934V339.694H287.866V332.028Z" fill="#FFA412"/>
<path d="M289.852 332.028H288.918V339.694H289.852V332.028Z" fill="#FFA412"/>
<path d="M291.774 332.028H290.84V339.694H291.774V332.028Z" fill="#FFA412"/>
<path d="M293.213 332.055V339.667C293.098 339.685 292.981 339.694 292.864 339.694H292.281V332.039H292.864C292.981 332.035 293.098 332.041 293.213 332.055Z" fill="#FFA412"/>
<path d="M294.51 332.764V338.96C294.266 339.253 293.942 339.469 293.578 339.583V332.154C293.94 332.265 294.264 332.476 294.51 332.764Z" fill="#FFA412"/>
<path d="M286.08 326.03V330.36C286.077 330.701 285.956 331.03 285.737 331.292C285.493 331.585 285.17 331.802 284.805 331.915C284.687 331.954 284.566 331.983 284.443 332.001C284.327 332.019 284.209 332.028 284.092 332.028H201.972C200.914 332.028 200.042 331.323 199.988 330.452C199.988 330.423 199.988 330.396 199.988 330.366V326.037C199.988 326.008 199.988 325.981 199.988 325.952C200.042 325.074 200.914 324.376 201.972 324.376H284.087H284.245H284.312H284.384H284.438C284.561 324.394 284.683 324.422 284.801 324.461L284.853 324.479L284.902 324.497L285.003 324.538L285.06 324.565L285.112 324.59C285.143 324.605 285.175 324.621 285.204 324.639L285.307 324.702L285.384 324.756L285.433 324.794C285.484 324.833 285.532 324.874 285.578 324.918L285.618 324.959L285.656 324.999L285.728 325.083C285.953 325.347 286.078 325.683 286.08 326.03Z" fill="#FFB93E"/>
<path d="M245.751 332.028H201.76C201.32 332.039 200.892 331.882 200.563 331.59C200.234 331.297 200.029 330.89 199.988 330.452C199.988 330.423 199.988 330.396 199.988 330.366V326.037C199.988 326.008 199.988 325.981 199.988 325.952C200.029 325.513 200.234 325.107 200.563 324.814C200.892 324.521 201.32 324.365 201.76 324.376H240.348L240.402 324.565C241.251 327.605 243.146 330.247 245.751 332.028Z" fill="#FFA412"/>
<path d="M276.083 324.362H275.148V332.028H276.083V324.362Z" fill="#FFA412"/>
<path d="M272.923 324.362H271.988V332.028H272.923V324.362Z" fill="#FFA412"/>
<path d="M269.134 324.362H268.199V332.028H269.134V324.362Z" fill="#FFA412"/>
<path d="M263.325 324.362H262.391V332.028H263.325V324.362Z" fill="#FFA412"/>
<path d="M257.188 324.362H256.254V332.028H257.188V324.362Z" fill="#FFA412"/>
<path d="M247.774 324.362H246.84V332.028H247.774V324.362Z" fill="#FFA412"/>
<path d="M238.962 324.362H238.027V332.028H238.962V324.362Z" fill="#FFA412"/>
<path d="M231.091 324.362H230.156V332.028H231.091V324.362Z" fill="#FFA412"/>
<path d="M279.084 324.362H278.152V332.028H279.084V324.362Z" fill="#FFA412"/>
<path d="M281.075 324.362H280.141V332.028H281.075V324.362Z" fill="#FFA412"/>
<path d="M282.991 324.362H282.059V332.028H282.991V324.362Z" fill="#FFA412"/>
<path d="M284.438 324.389V332.001C284.322 332.019 284.205 332.028 284.087 332.028H283.504V324.373H284.087C284.204 324.37 284.322 324.375 284.438 324.389Z" fill="#FFA412"/>
<path d="M285.733 325.098V331.292C285.489 331.585 285.165 331.802 284.801 331.915V324.486C285.164 324.597 285.487 324.809 285.733 325.098Z" fill="#FFA412"/>
<path d="M290.314 318.554V322.883C290.311 323.223 290.191 323.553 289.975 323.815C289.73 324.108 289.406 324.324 289.042 324.439C288.924 324.478 288.802 324.506 288.678 324.524C288.562 324.542 288.446 324.551 288.329 324.551H206.213C205.898 324.553 205.586 324.489 205.297 324.362C205.021 324.253 204.777 324.075 204.591 323.843C204.405 323.612 204.282 323.336 204.234 323.043V322.969C204.234 322.939 204.234 322.91 204.234 322.883V318.554C204.234 318.524 204.234 318.497 204.234 318.468C204.288 317.59 205.162 316.892 206.22 316.892H288.329C288.446 316.892 288.562 316.901 288.678 316.919C288.802 316.937 288.924 316.966 289.042 317.005C289.406 317.119 289.73 317.336 289.975 317.628C290.19 317.889 290.31 318.216 290.314 318.554Z" fill="#FFB93E"/>
<path d="M249.991 324.551H205.999C205.716 324.552 205.436 324.488 205.182 324.362C204.926 324.24 204.704 324.055 204.539 323.824C204.373 323.594 204.268 323.325 204.234 323.043V322.969C204.234 322.939 204.234 322.91 204.234 322.883V318.554C204.234 318.524 204.234 318.497 204.234 318.468C204.275 318.03 204.481 317.624 204.81 317.331C205.139 317.039 205.566 316.882 206.006 316.892H244.596C245.39 319.903 247.203 322.545 249.727 324.369L249.991 324.551Z" fill="#FFA412"/>
<path d="M280.325 316.885H279.391V324.551H280.325V316.885Z" fill="#FFA412"/>
<path d="M277.165 316.885H276.23V324.551H277.165V316.885Z" fill="#FFA412"/>
<path d="M273.373 316.885H272.441V324.551H273.373V316.885Z" fill="#FFA412"/>
<path d="M267.571 316.885H266.637V324.551H267.571V316.885Z" fill="#FFA412"/>
<path d="M261.424 316.885H260.492V324.551H261.424V316.885Z" fill="#FFA412"/>
<path d="M252.016 316.885H251.082V324.551H252.016V316.885Z" fill="#FFA412"/>
<path d="M243.2 316.885H242.266V324.551H243.2V316.885Z" fill="#FFA412"/>
<path d="M235.329 316.885H234.395V324.551H235.329V316.885Z" fill="#FFA412"/>
<path d="M283.33 316.885H282.398V324.551H283.33V316.885Z" fill="#FFA412"/>
<path d="M285.315 316.885H284.383V324.551H285.315V316.885Z" fill="#FFA412"/>
<path d="M287.235 316.885H286.301V324.551H287.235V316.885Z" fill="#FFA412"/>
<path d="M288.678 316.912V324.524C288.563 324.542 288.446 324.551 288.329 324.551H287.746V316.897H288.329C288.446 316.893 288.562 316.898 288.678 316.912Z" fill="#FFA412"/>
<path d="M289.975 317.622V323.815C289.73 324.108 289.407 324.324 289.043 324.439V317.009C289.406 317.121 289.729 317.333 289.975 317.622Z" fill="#FFA412"/>
<path d="M292.282 310.888V315.217C292.279 315.558 292.158 315.887 291.94 316.149C291.696 316.443 291.372 316.66 291.008 316.773C290.89 316.812 290.769 316.841 290.645 316.858C290.529 316.877 290.412 316.886 290.294 316.885H208.181C207.121 316.885 206.249 316.181 206.195 315.309C206.195 315.28 206.195 315.253 206.195 315.224V310.895C206.195 310.865 206.195 310.836 206.195 310.809C206.245 309.996 206.995 309.332 207.945 309.233C208.02 309.229 208.095 309.229 208.17 309.233H290.283C290.401 309.233 290.518 309.242 290.634 309.26C290.757 309.278 290.879 309.307 290.997 309.346C291.361 309.459 291.685 309.676 291.929 309.969C292.148 310.226 292.273 310.55 292.282 310.888Z" fill="#FFB93E"/>
<path d="M251.958 316.897H207.967C207.527 316.908 207.099 316.751 206.77 316.458C206.441 316.166 206.236 315.759 206.195 315.321C206.195 315.292 206.195 315.265 206.195 315.235V310.906C206.195 310.877 206.195 310.847 206.195 310.82C206.228 310.416 206.403 310.036 206.689 309.747C206.975 309.459 207.353 309.281 207.758 309.244C207.827 309.24 207.897 309.24 207.967 309.244H246.557C247.383 312.36 249.299 315.075 251.958 316.897Z" fill="#FFA412"/>
<path d="M282.29 309.22H281.355V316.885H282.29V309.22Z" fill="#FFA412"/>
<path d="M279.134 309.22H278.199V316.885H279.134V309.22Z" fill="#FFA412"/>
<path d="M275.344 309.22H274.41V316.885H275.344V309.22Z" fill="#FFA412"/>
<path d="M269.536 309.22H268.602V316.885H269.536V309.22Z" fill="#FFA412"/>
<path d="M263.395 309.22H262.461V316.885H263.395V309.22Z" fill="#FFA412"/>
<path d="M253.981 309.22H253.047V316.885H253.981V309.22Z" fill="#FFA412"/>
<path d="M245.169 309.22H244.234V316.885H245.169V309.22Z" fill="#FFA412"/>
<path d="M237.298 309.22H236.363V316.885H237.298V309.22Z" fill="#FFA412"/>
<path d="M285.295 309.22H284.363V316.885H285.295V309.22Z" fill="#FFA412"/>
<path d="M287.286 309.22H286.352V316.885H287.286V309.22Z" fill="#FFA412"/>
<path d="M289.204 309.22H288.27V316.885H289.204V309.22Z" fill="#FFA412"/>
<path d="M290.645 309.242V316.854C290.529 316.872 290.412 316.881 290.294 316.881H289.711V309.226H290.294C290.411 309.223 290.529 309.228 290.645 309.242Z" fill="#FFA412"/>
<path d="M291.932 309.956V316.147C291.689 316.442 291.365 316.66 291 316.773V309.343C291.364 309.453 291.687 309.666 291.932 309.956Z" fill="#FFA412"/>
<path d="M286.243 303.233V307.563C286.241 307.903 286.121 308.233 285.903 308.495C285.658 308.787 285.335 309.004 284.971 309.118C284.852 309.157 284.73 309.186 284.606 309.204L284.492 309.22H284.426H284.361H202.142C201.084 309.22 200.21 308.515 200.156 307.644C200.156 307.614 200.156 307.587 200.156 307.558V303.229C200.156 303.2 200.156 303.173 200.156 303.143V303.073C200.235 302.367 200.845 301.783 201.644 301.612L201.705 301.601C201.847 301.574 201.991 301.56 202.135 301.561H284.251C284.309 301.561 284.37 301.561 284.429 301.561H284.507L284.6 301.574C284.723 301.592 284.845 301.621 284.964 301.66C285.328 301.774 285.652 301.99 285.896 302.283C286.12 302.549 286.243 302.886 286.243 303.233Z" fill="#FFB93E"/>
<path d="M245.922 309.242H201.928C201.488 309.253 201.061 309.096 200.732 308.803C200.403 308.511 200.197 308.104 200.156 307.666C200.156 307.637 200.156 307.61 200.156 307.581V303.251C200.156 303.222 200.156 303.195 200.156 303.166V303.096C200.201 302.737 200.358 302.401 200.605 302.137C200.852 301.873 201.177 301.694 201.532 301.626L201.608 301.61C201.712 301.592 201.816 301.583 201.921 301.583H240.512C240.516 301.601 240.521 301.619 240.527 301.637C241.353 304.73 243.258 307.426 245.897 309.238L245.922 309.242Z" fill="#FFA412"/>
<path d="M276.255 301.565H275.32V309.231H276.255V301.565Z" fill="#FFA412"/>
<path d="M273.094 301.565H272.16V309.231H273.094V301.565Z" fill="#FFA412"/>
<path d="M269.305 301.565H268.371V309.231H269.305V301.565Z" fill="#FFA412"/>
<path d="M263.501 301.565H262.566V309.231H263.501V301.565Z" fill="#FFA412"/>
<path d="M257.36 301.565H256.426V309.231H257.36V301.565Z" fill="#FFA412"/>
<path d="M247.946 301.565H247.012V309.231H247.946V301.565Z" fill="#FFA412"/>
<path d="M239.13 301.565H238.195V309.231H239.13V301.565Z" fill="#FFA412"/>
<path d="M231.259 301.565H230.324V309.231H231.259V301.565Z" fill="#FFA412"/>
<path d="M279.262 301.565H278.328V309.231H279.262V301.565Z" fill="#FFA412"/>
<path d="M281.247 301.565H280.312V309.231H281.247V301.565Z" fill="#FFA412"/>
<path d="M283.163 301.565H282.23V309.231H283.163V301.565Z" fill="#FFA412"/>
<path d="M284.608 301.588V309.199C284.492 309.218 284.376 309.227 284.259 309.226H283.676V301.572H284.259C284.375 301.568 284.492 301.573 284.608 301.588Z" fill="#FFA412"/>
<path d="M285.905 302.301V308.495C285.66 308.787 285.337 309.004 284.973 309.118V301.689C285.335 301.8 285.659 302.013 285.905 302.301Z" fill="#FFA412"/>
<path d="M286.08 295.622V299.951C286.077 300.292 285.956 300.621 285.737 300.883C285.494 301.177 285.17 301.393 284.805 301.507C284.713 301.538 284.618 301.562 284.522 301.579C284.497 301.585 284.471 301.59 284.445 301.592C284.329 301.61 284.212 301.619 284.094 301.619H201.972C201.886 301.619 201.8 301.615 201.715 301.606L201.618 301.592C200.718 301.457 200.042 300.815 199.988 300.036C199.988 300.009 199.988 299.98 199.988 299.951V295.622C199.988 295.594 199.988 295.565 199.988 295.536C200.042 294.658 200.914 293.96 201.972 293.96H284.087C284.139 293.96 284.193 293.96 284.245 293.96H284.312H284.384H284.438C284.561 293.978 284.683 294.007 284.801 294.046L284.853 294.064L284.902 294.082L285.003 294.122L285.112 294.174C285.143 294.19 285.175 294.205 285.204 294.223C285.233 294.241 285.274 294.266 285.307 294.289L285.384 294.341L285.433 294.377C285.485 294.415 285.533 294.457 285.578 294.503L285.618 294.541L285.656 294.581C285.681 294.608 285.706 294.638 285.728 294.667C285.956 294.933 286.08 295.272 286.08 295.622Z" fill="#FFB93E"/>
<path d="M245.751 301.619H201.654H201.542C201.139 301.581 200.762 301.402 200.478 301.114C200.194 300.826 200.02 300.447 199.988 300.043C199.988 300.016 199.988 299.987 199.988 299.958V295.622C199.988 295.594 199.988 295.565 199.988 295.536C200.029 295.098 200.234 294.691 200.563 294.398C200.892 294.106 201.32 293.949 201.76 293.96H240.348L240.402 294.149C241.238 297.165 243.103 299.793 245.673 301.579L245.751 301.619Z" fill="#FFA412"/>
<path d="M276.083 293.953H275.148V301.619H276.083V293.953Z" fill="#FFA412"/>
<path d="M272.923 293.953H271.988V301.619H272.923V293.953Z" fill="#FFA412"/>
<path d="M269.134 293.953H268.199V301.619H269.134V293.953Z" fill="#FFA412"/>
<path d="M263.325 293.953H262.391V301.619H263.325V293.953Z" fill="#FFA412"/>
<path d="M257.188 293.953H256.254V301.619H257.188V293.953Z" fill="#FFA412"/>
<path d="M247.774 293.953H246.84V301.619H247.774V293.953Z" fill="#FFA412"/>
<path d="M238.962 293.953H238.027V301.619H238.962V293.953Z" fill="#FFA412"/>
<path d="M231.091 293.953H230.156V301.619H231.091V293.953Z" fill="#FFA412"/>
<path d="M279.084 293.953H278.152V301.619H279.084V293.953Z" fill="#FFA412"/>
<path d="M281.075 293.953H280.141V301.619H281.075V293.953Z" fill="#FFA412"/>
<path d="M282.991 293.953H282.059V301.619H282.991V293.953Z" fill="#FFA412"/>
<path d="M284.438 293.98V301.588C284.322 301.606 284.205 301.615 284.087 301.615H283.504V293.949H284.087C284.205 293.95 284.322 293.961 284.438 293.98Z" fill="#FFA412"/>
<path d="M285.733 294.692V300.883C285.489 301.177 285.165 301.393 284.801 301.507V294.066C285.166 294.18 285.489 294.397 285.733 294.692Z" fill="#FFA412"/>
<path d="M290.314 288.145V292.474C290.311 292.815 290.191 293.144 289.975 293.406C289.73 293.699 289.406 293.915 289.042 294.03C288.924 294.069 288.802 294.098 288.678 294.115C288.562 294.134 288.446 294.143 288.329 294.142H206.213C205.898 294.144 205.586 294.08 205.297 293.953C205.02 293.845 204.777 293.666 204.59 293.435C204.404 293.204 204.281 292.927 204.234 292.634V292.56C204.234 292.533 204.234 292.503 204.234 292.474V288.145C204.234 288.118 204.234 288.089 204.234 288.059C204.288 287.181 205.162 286.483 206.22 286.483H288.329C288.446 286.483 288.562 286.492 288.678 286.51C288.802 286.528 288.924 286.557 289.042 286.596C289.406 286.71 289.73 286.927 289.975 287.22C290.19 287.48 290.31 287.807 290.314 288.145Z" fill="#FFB93E"/>
<path d="M249.991 294.142H205.999C205.716 294.143 205.436 294.079 205.182 293.953C204.925 293.832 204.704 293.647 204.538 293.416C204.372 293.185 204.268 292.916 204.234 292.634V292.56C204.234 292.533 204.234 292.503 204.234 292.474V288.145C204.234 288.118 204.234 288.089 204.234 288.059C204.275 287.621 204.481 287.215 204.81 286.922C205.139 286.63 205.566 286.473 206.006 286.483H244.596C245.39 289.494 247.203 292.137 249.727 293.96L249.991 294.142Z" fill="#FFA412"/>
<path d="M280.325 286.477H279.391V294.142H280.325V286.477Z" fill="#FFA412"/>
<path d="M277.165 286.477H276.23V294.142H277.165V286.477Z" fill="#FFA412"/>
<path d="M273.373 286.477H272.441V294.142H273.373V286.477Z" fill="#FFA412"/>
<path d="M267.571 286.477H266.637V294.142H267.571V286.477Z" fill="#FFA412"/>
<path d="M261.424 286.477H260.492V294.142H261.424V286.477Z" fill="#FFA412"/>
<path d="M252.016 286.477H251.082V294.142H252.016V286.477Z" fill="#FFA412"/>
<path d="M243.2 286.477H242.266V294.142H243.2V286.477Z" fill="#FFA412"/>
<path d="M235.329 286.477H234.395V294.142H235.329V286.477Z" fill="#FFA412"/>
<path d="M283.33 286.477H282.398V294.142H283.33V286.477Z" fill="#FFA412"/>
<path d="M285.315 286.477H284.383V294.142H285.315V286.477Z" fill="#FFA412"/>
<path d="M287.235 286.477H286.301V294.142H287.235V286.477Z" fill="#FFA412"/>
<path d="M288.678 286.504V294.115C288.563 294.133 288.446 294.143 288.329 294.142H287.746V286.488H288.329C288.446 286.484 288.562 286.489 288.678 286.504Z" fill="#FFA412"/>
<path d="M289.975 287.215V293.406C289.731 293.7 289.407 293.916 289.043 294.03V286.6C289.406 286.712 289.73 286.925 289.975 287.215Z" fill="#FFA412"/>
<path d="M297.028 280.479V284.808C297.025 285.149 296.904 285.478 296.686 285.74C296.442 286.034 296.118 286.25 295.754 286.364C295.636 286.403 295.515 286.432 295.392 286.45C295.275 286.468 295.158 286.477 295.04 286.477H212.925C211.867 286.477 210.995 285.772 210.941 284.901C210.941 284.871 210.941 284.844 210.941 284.815V280.486C210.941 280.459 210.941 280.429 210.941 280.4C210.991 279.59 211.741 278.926 212.691 278.824C212.767 278.824 212.846 278.813 212.916 278.813H295.04C295.158 278.813 295.275 278.822 295.392 278.84C295.515 278.858 295.636 278.886 295.754 278.926C296.118 279.039 296.442 279.256 296.686 279.549C296.904 279.81 297.025 280.139 297.028 280.479Z" fill="#FFB93E"/>
<path d="M256.704 286.477H212.713C212.273 286.488 211.845 286.331 211.516 286.038C211.187 285.746 210.982 285.339 210.941 284.901C210.941 284.871 210.941 284.844 210.941 284.815V280.486C210.941 280.459 210.941 280.429 210.941 280.4C210.975 279.996 211.15 279.616 211.435 279.328C211.721 279.039 212.1 278.861 212.504 278.824C212.571 278.824 212.641 278.813 212.713 278.813H251.301V278.824C252.127 281.94 254.045 284.656 256.704 286.477Z" fill="#FFA412"/>
<path d="M287.036 278.811H286.102V286.477H287.036V278.811Z" fill="#FFA412"/>
<path d="M283.876 278.811H282.941V286.477H283.876V278.811Z" fill="#FFA412"/>
<path d="M280.084 278.811H279.152V286.477H280.084V278.811Z" fill="#FFA412"/>
<path d="M274.282 278.811H273.348V286.477H274.282V278.811Z" fill="#FFA412"/>
<path d="M268.139 278.811H267.207V286.477H268.139V278.811Z" fill="#FFA412"/>
<path d="M258.727 278.811H257.793V286.477H258.727V278.811Z" fill="#FFA412"/>
<path d="M249.911 278.811H248.977V286.477H249.911V278.811Z" fill="#FFA412"/>
<path d="M242.044 278.811H241.109V286.477H242.044V278.811Z" fill="#FFA412"/>
<path d="M290.041 278.811H289.109V286.477H290.041V278.811Z" fill="#FFA412"/>
<path d="M292.028 278.811H291.094V286.477H292.028V278.811Z" fill="#FFA412"/>
<path d="M293.946 278.811H293.012V286.477H293.946V278.811Z" fill="#FFA412"/>
<path d="M295.391 278.849V286.461C295.275 286.479 295.158 286.488 295.04 286.488H294.457V278.822H295.04C295.158 278.822 295.275 278.831 295.391 278.849Z" fill="#FFA412"/>
<path d="M296.688 279.547V285.74C296.443 286.034 296.119 286.25 295.754 286.364V278.923C296.119 279.037 296.443 279.254 296.688 279.547Z" fill="#FFA412"/>
<path d="M286.243 272.827V277.154C286.242 277.495 286.121 277.824 285.903 278.086C285.66 278.38 285.336 278.597 284.971 278.709C284.852 278.749 284.73 278.779 284.606 278.797L284.492 278.811C284.461 278.813 284.43 278.813 284.399 278.811H284.354H202.142C201.084 278.811 200.21 278.106 200.156 277.235C200.156 277.208 200.156 277.179 200.156 277.149V272.822C200.156 272.793 200.156 272.764 200.156 272.734C200.21 271.856 201.084 271.158 202.142 271.158H284.257H284.361C284.443 271.161 284.525 271.169 284.606 271.181C284.73 271.2 284.852 271.228 284.971 271.267C285.03 271.287 285.088 271.307 285.142 271.332C285.196 271.357 285.212 271.361 285.246 271.379L285.345 271.431H285.361L285.451 271.487C285.52 271.531 285.586 271.579 285.649 271.631C285.668 271.647 285.686 271.663 285.703 271.681L285.737 271.712C285.757 271.731 285.777 271.752 285.795 271.773C285.822 271.802 285.849 271.832 285.874 271.863C286.11 272.129 286.241 272.471 286.243 272.827Z" fill="#FFB93E"/>
<path d="M245.922 278.822H201.928C201.488 278.832 201.061 278.676 200.732 278.383C200.403 278.091 200.197 277.684 200.156 277.246C200.156 277.219 200.156 277.19 200.156 277.161V272.833C200.156 272.804 200.156 272.775 200.156 272.746C200.197 272.307 200.403 271.901 200.732 271.609C201.061 271.316 201.488 271.159 201.928 271.17H240.518C240.534 271.228 240.55 271.287 240.568 271.348C241.412 274.39 243.301 277.037 245.904 278.824L245.922 278.822Z" fill="#FFA412"/>
<path d="M276.255 271.156H275.32V278.822H276.255V271.156Z" fill="#FFA412"/>
<path d="M273.094 271.156H272.16V278.822H273.094V271.156Z" fill="#FFA412"/>
<path d="M269.305 271.156H268.371V278.822H269.305V271.156Z" fill="#FFA412"/>
<path d="M263.501 271.156H262.566V278.822H263.501V271.156Z" fill="#FFA412"/>
<path d="M257.36 271.156H256.426V278.822H257.36V271.156Z" fill="#FFA412"/>
<path d="M247.946 271.156H247.012V278.822H247.946V271.156Z" fill="#FFA412"/>
<path d="M239.13 271.156H238.195V278.822H239.13V271.156Z" fill="#FFA412"/>
<path d="M231.259 271.156H230.324V278.822H231.259V271.156Z" fill="#FFA412"/>
<path d="M279.262 271.156H278.328V278.822H279.262V271.156Z" fill="#FFA412"/>
<path d="M281.247 271.156H280.312V278.822H281.247V271.156Z" fill="#FFA412"/>
<path d="M283.163 271.156H282.23V278.822H283.163V271.156Z" fill="#FFA412"/>
<path d="M284.608 271.194V278.809C284.492 278.825 284.376 278.833 284.259 278.833H283.676V271.167H284.259C284.376 271.168 284.492 271.177 284.608 271.194Z" fill="#FFA412"/>
<path d="M285.905 271.895V278.086C285.661 278.38 285.337 278.597 284.973 278.709V271.269C285.337 271.383 285.661 271.601 285.905 271.895Z" fill="#FFA412"/>
<path d="M292.282 265.341V269.67C292.279 270.011 292.158 270.34 291.94 270.602C291.696 270.896 291.372 271.113 291.008 271.226C290.89 271.265 290.768 271.294 290.645 271.312C290.529 271.33 290.412 271.339 290.294 271.339H208.181C207.872 271.342 207.565 271.281 207.28 271.161C206.996 271.055 206.744 270.876 206.552 270.64C206.361 270.405 206.235 270.123 206.188 269.823C206.187 269.801 206.187 269.778 206.188 269.756C206.188 269.727 206.188 269.7 206.188 269.67V265.341C206.188 265.312 206.188 265.285 206.188 265.255C206.238 264.443 206.988 263.781 207.938 263.679C208.014 263.679 208.093 263.679 208.163 263.679H290.276C290.394 263.679 290.511 263.688 290.627 263.706C290.75 263.724 290.872 263.753 290.99 263.792C291.354 263.905 291.678 264.122 291.922 264.416C292.145 264.673 292.272 265 292.282 265.341Z" fill="#FFB93E"/>
<path d="M251.959 271.334H207.967C207.693 271.335 207.422 271.274 207.175 271.156C206.911 271.036 206.682 270.85 206.511 270.616C206.341 270.382 206.233 270.107 206.2 269.819C206.199 269.796 206.199 269.774 206.2 269.751C206.2 269.722 206.2 269.695 206.2 269.666V265.341C206.2 265.312 206.2 265.285 206.2 265.255C206.234 264.851 206.409 264.471 206.695 264.183C206.98 263.895 207.358 263.717 207.763 263.679C207.83 263.679 207.9 263.679 207.972 263.679H246.562C247.359 266.693 249.178 269.336 251.709 271.156L251.959 271.334Z" fill="#FFA412"/>
<path d="M282.29 263.668H281.355V271.334H282.29V263.668Z" fill="#FFA412"/>
<path d="M279.134 263.668H278.199V271.334H279.134V263.668Z" fill="#FFA412"/>
<path d="M275.344 263.668H274.41V271.334H275.344V263.668Z" fill="#FFA412"/>
<path d="M269.536 263.668H268.602V271.334H269.536V263.668Z" fill="#FFA412"/>
<path d="M263.395 263.668H262.461V271.334H263.395V263.668Z" fill="#FFA412"/>
<path d="M253.981 263.668H253.047V271.334H253.981V263.668Z" fill="#FFA412"/>
<path d="M245.169 263.668H244.234V271.334H245.169V263.668Z" fill="#FFA412"/>
<path d="M237.298 263.668H236.363V271.334H237.298V263.668Z" fill="#FFA412"/>
<path d="M285.295 263.668H284.363V271.334H285.295V263.668Z" fill="#FFA412"/>
<path d="M287.286 263.668H286.352V271.334H287.286V263.668Z" fill="#FFA412"/>
<path d="M289.204 263.668H288.27V271.334H289.204V263.668Z" fill="#FFA412"/>
<path d="M290.645 263.695V271.307C290.529 271.325 290.412 271.334 290.294 271.334H289.711V263.679H290.294C290.411 263.676 290.529 263.681 290.645 263.695Z" fill="#FFA412"/>
<path d="M291.932 264.404V270.598C291.688 270.892 291.364 271.108 291 271.221V263.792C291.363 263.902 291.687 264.115 291.932 264.404Z" fill="#FFA412"/>
<path d="M294.857 257.686V262.016C294.855 262.356 294.735 262.686 294.517 262.948C294.185 263.333 293.724 263.585 293.22 263.657L293.105 263.673H293.04H292.977H210.749C209.691 263.673 208.817 262.968 208.766 262.097C208.766 262.07 208.766 262.04 208.766 262.011V257.686C208.766 257.659 208.766 257.63 208.766 257.601C208.817 256.723 209.691 256.025 210.749 256.025H292.865C292.981 256.025 293.098 256.034 293.213 256.052C293.337 256.07 293.459 256.098 293.578 256.137C293.943 256.252 294.266 256.469 294.51 256.763C294.729 257.022 294.852 257.348 294.857 257.686Z" fill="#FFB93E"/>
<path d="M254.529 263.679H210.535C210.095 263.69 209.668 263.533 209.34 263.24C209.011 262.948 208.806 262.542 208.766 262.104C208.766 262.077 208.766 262.047 208.766 262.018V257.686C208.766 257.659 208.766 257.63 208.766 257.601C208.806 257.163 209.011 256.756 209.34 256.464C209.668 256.171 210.095 256.014 210.535 256.025H249.125C249.945 259.14 251.856 261.856 254.511 263.679H254.529Z" fill="#FFA412"/>
<path d="M284.858 256.014H283.926V263.679H284.858V256.014Z" fill="#FFA412"/>
<path d="M281.7 256.014H280.766V263.679H281.7V256.014Z" fill="#FFA412"/>
<path d="M277.911 256.014H276.977V263.679H277.911V256.014Z" fill="#FFA412"/>
<path d="M272.106 256.014H271.172V263.679H272.106V256.014Z" fill="#FFA412"/>
<path d="M265.963 256.014H265.031V263.679H265.963V256.014Z" fill="#FFA412"/>
<path d="M256.549 256.014H255.617V263.679H256.549V256.014Z" fill="#FFA412"/>
<path d="M247.737 256.014H246.805V263.679H247.737V256.014Z" fill="#FFA412"/>
<path d="M239.868 256.014H238.934V263.679H239.868V256.014Z" fill="#FFA412"/>
<path d="M287.868 256.014H286.934V263.679H287.868V256.014Z" fill="#FFA412"/>
<path d="M289.85 256.014H288.918V263.679H289.85V256.014Z" fill="#FFA412"/>
<path d="M291.774 256.014H290.84V263.679H291.774V256.014Z" fill="#FFA412"/>
<path d="M293.213 256.041V263.653C293.098 263.671 292.981 263.68 292.864 263.68H292.281V256.025H292.864C292.981 256.021 293.098 256.026 293.213 256.041Z" fill="#FFA412"/>
<path d="M294.51 256.752V262.943C294.266 263.236 293.942 263.453 293.578 263.567V256.137C293.942 256.248 294.265 256.462 294.51 256.752Z" fill="#FFA412"/>
<path d="M242.615 306.388C245.756 285.066 231.016 265.234 209.694 262.093C188.371 258.952 168.539 273.691 165.398 295.013C162.257 316.336 176.996 336.168 198.319 339.309C219.642 342.45 239.473 327.711 242.615 306.388Z" fill="#E2810E"/>
<path d="M228.191 328.284C243.432 313.043 243.432 288.333 228.191 273.092C212.95 257.851 188.24 257.851 172.999 273.092C157.758 288.333 157.758 313.043 172.999 328.284C188.24 343.525 212.95 343.525 228.191 328.284Z" fill="#FFB93E"/>
<path d="M200.597 336.709C192.371 336.709 184.399 333.856 178.04 328.638C171.681 323.419 167.328 316.157 165.723 308.089C164.117 300.021 165.359 291.645 169.237 284.39C173.115 277.135 179.388 271.449 186.988 268.3C194.588 265.152 203.044 264.736 210.917 267.124C218.789 269.511 225.59 274.554 230.161 281.394C234.731 288.234 236.789 296.446 235.984 304.633C235.178 312.82 231.559 320.474 225.742 326.292C222.448 329.605 218.529 332.231 214.213 334.019C209.897 335.807 205.269 336.721 200.597 336.709ZM200.597 267.714C182.161 267.714 167.162 282.715 167.162 301.151C167.162 319.587 182.161 334.586 200.597 334.586C219.033 334.586 234.034 319.587 234.034 301.151C234.034 282.715 219.033 267.712 200.597 267.712V267.714Z" fill="#FFA412"/>
<path d="M205.494 311.469C205.587 310.781 205.558 310.082 205.408 309.404C205.252 308.774 204.954 308.187 204.537 307.689C204.032 307.094 203.443 306.575 202.79 306.149C201.927 305.579 201.024 305.073 200.088 304.634C198.378 303.804 196.71 302.888 195.092 301.889C193.714 301.05 192.457 300.027 191.355 298.848C190.37 297.78 189.619 296.519 189.149 295.144C188.685 293.772 188.559 292.193 188.771 290.405C188.924 288.946 189.377 287.535 190.099 286.258C190.792 285.055 191.731 284.012 192.855 283.196C194.047 282.34 195.383 281.704 196.799 281.316C198.403 280.88 200.064 280.689 201.725 280.749L202.421 274.896L207.137 275.456L206.433 281.398C208.006 281.779 209.506 282.417 210.872 283.286C212.136 284.081 213.227 285.122 214.081 286.347C214.934 287.572 215.533 288.956 215.841 290.416C216.193 292.072 216.259 293.775 216.037 295.453L207.515 294.44C207.777 292.248 207.485 290.552 206.64 289.352C205.795 288.151 204.557 287.453 202.927 287.258C202.152 287.148 201.363 287.182 200.599 287.357C199.979 287.504 199.4 287.786 198.902 288.183C198.436 288.566 198.062 289.048 197.808 289.595C197.534 290.18 197.358 290.807 197.288 291.45C197.205 292.072 197.231 292.705 197.364 293.318C197.512 293.923 197.799 294.485 198.202 294.96C198.711 295.556 199.304 296.076 199.962 296.502C200.866 297.099 201.805 297.642 202.774 298.127C204.595 299.067 206.246 300.003 207.727 300.935C209.098 301.785 210.349 302.816 211.444 304.001C212.427 305.076 213.177 306.342 213.648 307.72C214.115 309.089 214.242 310.66 214.031 312.432C213.879 313.919 213.419 315.358 212.68 316.658C211.983 317.853 211.04 318.887 209.913 319.691C208.713 320.529 207.368 321.14 205.946 321.492C204.328 321.897 202.661 322.073 200.993 322.014L200.347 327.464L195.66 326.908L196.304 321.485C194.707 321.133 193.16 320.585 191.697 319.855C190.27 319.152 188.988 318.186 187.92 317.007C186.834 315.781 186.027 314.335 185.554 312.768C185.031 311.117 184.901 309.194 185.162 307L193.681 308.011C193.517 309.114 193.572 310.238 193.843 311.32C194.063 312.156 194.478 312.927 195.054 313.571C195.594 314.163 196.261 314.624 197.004 314.922C197.752 315.223 198.537 315.424 199.339 315.519C200.162 315.632 200.999 315.609 201.815 315.451C202.485 315.321 203.121 315.056 203.686 314.672C204.2 314.319 204.624 313.851 204.926 313.306C205.234 312.736 205.426 312.112 205.494 311.469Z" fill="#FFA412"/>
<path d="M168.924 165.872C169.041 165.404 158.73 170.532 158.205 171.113C153.369 176.478 154.749 183.478 157.516 183.545C159.29 183.59 158.946 186.539 158.946 186.539L178.719 178.176C178.719 178.176 176.34 164.294 168.924 165.872Z" fill="#2C3A64"/>
<path d="M171.359 166.957C171.359 166.957 172.066 159.255 163.46 159.255C163.46 159.255 166.067 159.962 167.415 161.376C167.415 161.376 161.926 158.155 155.954 163.105C149.981 168.056 153.702 180.477 151.876 182.834C150.051 185.191 142.986 185.664 143.85 193.289C144.715 200.914 166.301 210.46 164.914 216.768C164.914 216.768 173.372 204.334 167.325 198.659C167.325 198.659 170.272 201.437 170.574 204.737C170.574 204.737 171.373 198.292 167.271 196.232C163.642 194.406 160.67 187.735 160.983 186.551C161.296 185.367 171.359 166.957 171.359 166.957Z" fill="#2C3A64"/>
<path d="M163.545 203.204C162.216 196.815 153.931 194.831 150.009 200.052C149.266 201.031 148.795 202.19 148.647 203.411C147.747 210.665 159.35 240.212 161.012 242.886C164.035 247.742 181.841 264.44 181.841 264.44L185.124 262.453C185.124 262.453 172.494 241.065 170.537 239.07C168.277 236.749 166.064 215.327 163.545 203.204Z" fill="#ED985F"/>
<path d="M180.594 262.459C180.594 262.459 185.382 259.307 187.197 259.517C189.012 259.726 194.257 261.23 194.32 261.993C194.383 262.756 188.467 263.247 188.077 263.668C187.688 264.089 183.667 266.771 182.21 265.92C180.754 265.069 180.594 262.459 180.594 262.459Z" fill="#ED985F"/>
<path d="M147.183 333.505L142.906 332.877C142.906 332.877 128.517 321.444 126.376 300.111C126.151 297.919 126.116 295.712 126.273 293.514C126.305 293.262 126.253 293.006 126.124 292.787C125.674 292.08 124.517 290.311 122.972 287.798C121.443 285.322 118.825 280.637 115.946 275.38C110.768 265.924 104.718 254.591 102.647 250.986C96.0461 239.505 99.2272 231.764 99.2272 231.764C99.2272 231.764 117.641 229.945 122.688 225.531L124.505 228.331C124.505 228.331 128.483 245.979 128.294 246.07C128.492 246.671 128.691 247.281 128.893 247.904C132.045 257.621 135.665 269.769 137.64 279.648C138.75 285.216 139.337 290.065 139.02 293.381C138.912 294.507 139.044 296.256 139.346 298.406C141.129 311.082 147.183 333.505 147.183 333.505Z" fill="#2B478B"/>
<path d="M156.16 338.919H138.309C138.309 338.919 137.881 336.198 138.813 334.133C139.714 332.154 140.979 332.091 138.975 328.986C140.101 330.153 143.757 330.637 146.337 330.29C146.652 330.803 148.375 334.241 149.433 335C150.599 335.84 155.8 335.54 156.16 338.919Z" fill="#233862"/>
<path d="M128.893 247.904C127.335 256.504 123.652 270.816 115.934 275.371C110.756 265.915 104.707 254.582 102.635 250.977C96.0343 239.496 99.2155 231.755 99.2155 231.755C99.2155 231.755 117.629 229.936 122.677 225.521L124.494 228.322C124.494 228.322 128.483 245.979 128.294 246.069C128.483 246.671 128.69 247.281 128.893 247.904Z" fill="#233862"/>
<path d="M161.632 199.228C161.632 199.228 164.158 201.853 165.311 205.005C165.311 205.005 161.283 216.568 151.875 218.018C151.875 218.009 159.327 199.224 161.632 199.228Z" fill="#ED7D2B"/>
<path d="M116.373 233.086L116.434 229.747C109.781 230.587 93.4973 221.798 93.4973 221.798C93.4973 221.798 86.5384 226.427 85.5861 239.646C85.1223 246.097 82.1798 273.383 81.8534 281.521C81.7363 284.475 81.6958 286.582 81.6823 287.424C81.6627 287.674 81.5632 287.911 81.3986 288.1C80.0405 289.834 78.8352 291.682 77.7964 293.625C67.6451 312.511 72.9538 338.172 72.9538 338.172L75.311 337.573C75.311 337.573 83.8931 310.971 89.4944 299.462C90.4467 297.513 91.3112 295.993 92.0339 295.115C94.1434 292.553 96.3678 288.203 98.5628 282.958C102.705 273.052 106.728 259.994 109.594 249.886C109.797 249.96 116.373 233.086 116.373 233.086Z" fill="#2B478B"/>
<path d="M155.303 210.802C144.429 208.308 151.377 193.017 152.007 193.296C153.513 192.987 156.823 190.342 159.783 185.175L160.182 185.522L166.862 191.375C166.862 191.375 165.317 193.654 164.018 195.878C163.005 197.623 162.141 199.345 162.278 199.93C162.816 200.367 158.203 211.469 155.303 210.802Z" fill="#FFB27D"/>
<path d="M166.861 191.38C166.861 191.38 165.317 193.654 164.018 195.883C159.866 193.323 159.862 188.183 160.19 185.526L166.861 191.38Z" fill="#ED985F"/>
<path d="M167.046 194.313C167.046 194.313 156.965 188.703 160.554 182.478C164.142 176.253 165.261 171.336 171.851 174.655C178.441 177.973 178.31 181.064 177.617 183.435C176.923 185.806 169.762 195.612 167.046 194.313Z" fill="#FFB27D"/>
<path d="M179.319 179.801C178.868 177.039 177.452 176.773 176.473 176.958C172.749 170.8 166.666 173.205 166.666 173.205C163.417 177.282 158.719 177.978 158.719 177.978C158.719 177.978 159.889 180.155 164.71 181.501C166.182 181.913 167.861 181.665 169.467 181.123C167.314 182.289 165.012 183.156 162.625 183.701C168.976 184.284 175.021 178.475 175.649 177.847C175.942 178.748 176.455 180.63 176.146 182.008C175.73 183.881 174.066 187.271 175.082 187.71C175.086 187.717 180.012 183.948 179.319 179.801Z" fill="#2C3A64"/>
<path d="M87.1481 338.919H69.2972C69.2972 338.919 68.8694 336.197 69.8015 334.133C70.702 332.154 72.0956 331.254 71.7602 328.856C72.8858 330.024 74.7432 331.332 77.3232 330.986C77.6407 331.499 79.3652 334.241 80.4211 335C81.5873 335.84 86.7901 335.54 87.1481 338.919Z" fill="#233862"/>
<path d="M156.583 222.917C154.286 223.718 151.062 224.157 147.764 224.515C143.07 225.028 138.225 225.38 135.686 226.391C134.76 226.76 134.141 227.217 133.948 227.8C132.847 231.109 127.997 236.215 127.997 236.215C96.913 234.799 93.5 221.807 93.5 221.807C114.415 197.492 149.824 190.45 149.824 190.45C149.824 190.45 152.352 189.378 158.724 194.439C162.974 197.816 162.414 199.115 162.414 199.115C162.414 199.115 163.343 220.56 156.583 222.917Z" fill="#F99746"/>
<path d="M147.761 224.515C143.067 225.028 138.222 225.38 135.683 226.39C134.645 210.888 141.962 199.228 141.962 199.228C141.962 199.228 146.735 218.65 147.761 224.515Z" fill="#ED7D2B"/>
<path d="M152.594 196.225C152.594 196.225 140.831 197.386 139.888 205.03C138.944 212.673 151.167 243.809 152.916 246.628C156.102 251.761 174.867 269.355 174.867 269.355L178.325 267.259C178.325 267.259 165.015 244.728 162.955 242.618C159.72 239.313 156.579 198.877 152.594 196.225Z" fill="#FFB27D"/>
<path d="M140.226 209.634C140.255 209.807 151.082 213.171 158.05 209.634C158.05 209.634 159.54 193.559 151.221 194.43C142.903 195.302 137.979 197.922 137.77 201.905C137.56 205.887 140.226 209.634 140.226 209.634Z" fill="#F99746"/>
<path d="M173.797 267.124C173.797 267.124 178.016 263.249 179.839 263.157C181.663 263.065 187.084 263.709 187.269 264.461C187.454 265.213 181.699 266.64 181.377 267.12C181.055 267.599 177.523 270.891 175.951 270.296C174.38 269.702 173.797 267.124 173.797 267.124Z" fill="#FFB27D"/>
</g>
<defs>
<clipPath id="clip0_1473_17682">
<rect width="652.263" height="340" fill="white"/>
</clipPath>
</defs>
</svg>
