<svg width="154" height="153" viewBox="0 0 154 153" fill="none" xmlns="http://www.w3.org/2000/svg">
<circle cx="77" cy="76.5" r="76.5" fill="#F0EBF4"/>
<g clipPath="url(#clip0_1721_27772)">
<path d="M30.5477 36.8091C30.8879 36.4907 31.2916 36.2477 31.7322 36.096C32.1729 35.9443 32.6406 35.8873 33.1047 35.9289C43.1479 36.8323 61.8866 31.9943 74.1329 19.4637C74.9833 18.5934 76.5366 19.0857 77.508 19.8135C91.1286 29.9934 113.706 32.1012 121.542 32.5322C122.328 32.5765 123.071 32.8989 123.64 33.4418C124.209 33.9846 124.566 34.7124 124.647 35.4945C131.776 104.334 86.9536 129.279 77.6572 133.683C77.1561 133.92 76.6036 134.027 76.0504 133.995C75.4971 133.963 74.9607 133.793 74.4902 133.5C28.1573 104.641 30.1416 67.1087 29.5009 39.3031C29.4903 38.8372 29.578 38.3743 29.7584 37.9445C29.9388 37.5148 30.2077 37.1279 30.5477 36.8091Z" fill="#4B0082"/>
<path opacity="0.61" d="M76.411 128.682C76.2004 128.682 75.9942 128.622 75.8167 128.509C58.0544 117.153 46.4753 103.58 40.4247 87.0103C35.0189 72.2112 34.7537 57.1418 34.5207 43.8462L34.4884 42.0741C34.4861 41.9281 34.5129 41.7832 34.5673 41.6477C34.6216 41.5122 34.7025 41.3889 34.805 41.2851C34.9076 41.1812 35.0298 41.0988 35.1646 41.0427C35.2994 40.9866 35.444 40.958 35.59 40.9584C46.5897 40.9584 63.1004 36.1014 75.2091 25.2509C75.3901 25.0886 75.6199 24.9911 75.8623 24.9736C76.1047 24.956 76.3461 25.0194 76.5486 25.1539C89.8533 33.982 108.833 36.5531 118.962 37.2999C119.221 37.318 119.466 37.4282 119.651 37.6105C119.837 37.7929 119.951 38.0354 119.974 38.2945C122.329 65.1551 116.741 87.8682 103.369 105.804C93.3809 119.199 81.5374 126.179 76.9091 128.557C76.7553 128.638 76.5845 128.68 76.411 128.682ZM76.7044 128.16C81.3054 125.796 93.0775 118.858 103.009 105.539C116.314 87.6941 121.87 65.0847 119.526 38.3384C119.514 38.1854 119.447 38.0419 119.338 37.9338C119.228 37.8258 119.084 37.7603 118.931 37.7491C108.758 37.0032 89.6917 34.4147 76.3007 25.5294C76.1814 25.4503 76.0392 25.413 75.8964 25.4234C75.7537 25.4337 75.6184 25.4911 75.5117 25.5865C63.3134 36.5166 46.6767 41.4093 35.5999 41.4093C35.5116 41.4079 35.4238 41.4244 35.342 41.4579C35.2603 41.4914 35.1861 41.5411 35.1242 41.6041C35.064 41.6648 35.0167 41.7369 34.9851 41.8162C34.9535 41.8955 34.9382 41.9804 34.9402 42.0658L34.9725 43.8379C35.2046 57.0995 35.4698 72.1275 40.849 86.8554C46.8665 103.329 58.3834 116.829 76.0595 128.132C76.1549 128.192 76.2642 128.226 76.3766 128.231C76.489 128.236 76.6008 128.212 76.7011 128.16H76.7044Z" fill="white"/>
<path opacity="0.61" d="M92.5986 62.7946H90.5033C90.0036 62.7946 89.5244 62.5961 89.1711 62.2428C88.8178 61.8895 88.6193 61.4103 88.6193 60.9106V53.7501C88.6193 52.5191 88.1303 51.3385 87.2598 50.4681C86.3894 49.5976 85.2087 49.1086 83.9777 49.1086H70.9962C69.7652 49.1086 68.5846 49.5976 67.7142 50.4681C66.8437 51.3385 66.3547 52.5191 66.3547 53.7501V60.9106C66.3548 61.158 66.3061 61.4029 66.2116 61.6315C66.117 61.8601 65.9783 62.0678 65.8034 62.2427C65.6285 62.4177 65.4209 62.5565 65.1923 62.6512C64.9638 62.7458 64.7189 62.7946 64.4715 62.7946H62.3762C62.1288 62.7946 61.8838 62.7459 61.6552 62.6512C61.4266 62.5565 61.2189 62.4177 61.044 62.2428C60.869 62.0678 60.7303 61.8601 60.6356 61.6316C60.5409 61.403 60.4922 61.158 60.4922 60.9106V53.7501C60.4922 50.9643 61.5989 48.2925 63.5688 46.3227C65.5386 44.3528 68.2104 43.2461 70.9962 43.2461H83.9786C85.3579 43.2461 86.7238 43.5178 87.9982 44.0457C89.2725 44.5736 90.4304 45.3473 91.4057 46.3227C92.3811 47.2981 93.1547 48.4561 93.6825 49.7305C94.2103 51.0049 94.4819 52.3708 94.4818 53.7501V60.9106C94.4819 61.158 94.4333 61.4029 94.3387 61.6315C94.2441 61.8601 94.1054 62.0678 93.9305 62.2427C93.7556 62.4177 93.548 62.5565 93.3195 62.6512C93.0909 62.7458 92.846 62.7946 92.5986 62.7946Z" fill="#F4F4F4"/>
<path opacity="0.61" d="M95.2021 64.4844H59.786C58.7438 64.4844 57.7443 64.8984 57.0074 65.6353C56.2704 66.3723 55.8564 67.3718 55.8564 68.414V95.5945C55.8564 96.6367 56.2704 97.6362 57.0074 98.3732C57.7443 99.1101 58.7438 99.5241 59.786 99.5241H95.2021C96.2443 99.5241 97.2438 99.1101 97.9807 98.3732C98.7177 97.6362 99.1317 96.6367 99.1317 95.5945V68.414C99.1317 67.3718 98.7177 66.3723 97.9807 65.6353C97.2438 64.8984 96.2443 64.4844 95.2021 64.4844ZM82.5612 90.7549C82.6126 90.9689 82.6148 91.1917 82.5676 91.4067C82.5205 91.6216 82.4252 91.8231 82.2889 91.9959C82.1526 92.1687 81.9789 92.3084 81.7809 92.4044C81.5829 92.5004 81.3656 92.5502 81.1456 92.5502H73.8426C73.6224 92.5503 73.4051 92.5004 73.2069 92.4044C73.0088 92.3083 72.8351 92.1686 72.6988 91.9957C72.5625 91.8227 72.4673 91.6212 72.4201 91.4061C72.373 91.191 72.3753 90.9681 72.4269 90.754L74.131 83.6607C73.1027 83.0478 72.2616 82.1653 71.6988 81.1088C71.1361 80.0522 70.873 78.8618 70.9382 77.6664C71.1123 74.3726 73.782 71.6755 77.0718 71.4716C78.5418 71.3774 80.0009 71.7804 81.2142 72.6158C82.4275 73.4512 83.3245 74.6704 83.7611 76.0773C84.1976 77.4843 84.1483 78.9971 83.6209 80.3726C83.0936 81.748 82.119 82.9062 80.8538 83.6607L82.5612 90.7549Z" fill="#F4F4F4"/>
<path d="M117 134C121.694 134 125.5 130.194 125.5 125.5C125.5 120.806 121.694 117 117 117C112.306 117 108.5 120.806 108.5 125.5C108.5 130.194 112.306 134 117 134Z" fill="#FFC857"/>
</g>
<path d="M50.1408 25.64C52.8361 22.9447 52.8361 18.5748 50.1408 15.8795C47.4455 13.1842 43.0755 13.1842 40.3803 15.8795C37.685 18.5748 37.685 22.9447 40.3803 25.64C43.0755 28.3353 47.4455 28.3353 50.1408 25.64Z" fill="#DFD2EB"/>
<defs>
<clipPath id="clip0_1721_27772">
<rect width="95.9115" height="115" fill="white" transform="translate(29.5 19)"/>
</clipPath>
</defs>
</svg>
