<svg width="154" height="168" viewBox="0 0 154 168" fill="none" xmlns="http://www.w3.org/2000/svg">
<g id="Group 985">
<circle id="Ellipse 82" cx="77" cy="90.5742" r="76.5" fill="#F0EBF4"/>
<g id="Group 982">
<path id="Vector" d="M45.6139 41.2679C54.8111 41.2679 62.2669 33.8121 62.2669 24.6149C62.2669 15.4177 54.8111 7.96191 45.6139 7.96191C36.4167 7.96191 28.9609 15.4177 28.9609 24.6149C28.9609 33.8121 36.4167 41.2679 45.6139 41.2679Z" fill="#7E6298"/>
<path id="Vector_2" d="M78.2501 14.641C80.9454 11.9457 80.9454 7.57577 78.2501 4.88048C75.5549 2.18519 71.1849 2.18519 68.4896 4.88048C65.7943 7.57578 65.7943 11.9457 68.4896 14.641C71.1849 17.3363 75.5549 17.3363 78.2501 14.641Z" fill="#DFD2EB"/>
<path id="Vector_3" d="M125.491 68.8428H29.8252V136.959H125.491V68.8428Z" fill="#102048"/>
<path id="Vector_4" d="M134.81 44.7616H117.112V28.608C117.105 27.043 117.719 25.5391 118.821 24.4274C119.923 23.3156 121.421 22.687 122.986 22.6798C124.551 22.6725 126.055 23.2874 127.167 24.389C128.278 25.4905 128.907 26.9887 128.914 28.5537V28.608L128.91 38.8614C128.91 38.9112 128.91 38.9646 128.914 39.0145V39.3252L128.932 39.3163C129.045 40.7976 129.714 42.1815 130.804 43.1911C131.893 44.2008 133.324 44.7617 134.81 44.7616Z" fill="#CEBFDD"/>
<path id="Vector_5" d="M140.707 35.2939V38.8636C140.708 40.389 140.118 41.8554 139.061 42.9548C138.003 44.0542 136.561 44.701 135.037 44.7593C133.513 44.8176 132.025 44.2829 130.887 43.2675C129.749 42.2521 129.048 40.8351 128.933 39.3141L140.707 35.2939Z" fill="#E7DFEE"/>
<path id="Vector_6" d="M123.006 22.7061C122.88 22.7061 122.759 22.7105 122.637 22.7194C122.556 22.7194 122.479 22.7283 122.404 22.7372C122.328 22.7461 122.236 22.7559 122.151 22.7693C122.102 22.7693 122.052 22.7826 122.003 22.7915C121.94 22.8004 121.877 22.8138 121.818 22.828C121.729 22.8458 121.64 22.8636 121.551 22.8859C121.424 22.9179 121.299 22.9535 121.172 22.9989C121.109 23.0167 121.047 23.039 120.988 23.0612C120.929 23.0835 120.866 23.1066 120.81 23.1289C120.726 23.1605 120.643 23.1968 120.563 23.2375C120.489 23.2679 120.416 23.3024 120.346 23.3408C120.329 23.3497 120.305 23.3586 120.283 23.3719C120.22 23.404 120.157 23.4396 120.094 23.4761C119.846 23.6143 119.61 23.7724 119.388 23.9488C119.324 23.9977 119.257 24.052 119.198 24.101C119.139 24.15 119.064 24.2185 118.996 24.279C118.928 24.3396 118.865 24.4046 118.803 24.4678C118.625 24.6476 118.46 24.8385 118.307 25.0393C118.239 25.1283 118.177 25.2173 118.114 25.3063C117.915 25.608 117.742 25.9253 117.596 26.2553C117.56 26.3363 117.529 26.4226 117.492 26.5081C117.397 26.7668 117.317 27.0311 117.254 27.2995C117.236 27.3947 117.218 27.4847 117.199 27.5746C117.168 27.7588 117.142 27.9484 117.128 28.1372V110.912H38.2378V31.9063C38.2377 30.6981 38.4756 29.5016 38.9379 28.3854C39.4002 27.2691 40.0779 26.2548 40.9322 25.4005C41.7866 24.5461 42.8008 23.8685 43.9171 23.4061C45.0334 22.9438 46.2298 22.7059 47.438 22.7061H123.006Z" fill="#E7DFEE"/>
<path id="Vector_7" d="M107.429 31.1406H47.5645V34.291H107.429V31.1406Z" fill="#4B0082" fill-opacity="0.21"/>
<path id="Vector_8" d="M102.79 40.3672H47.5645V43.5176H102.79V40.3672Z" fill="#4B0082" fill-opacity="0.21"/>
<path id="Vector_9" d="M99.8789 49.5957H47.5645V52.7461H99.8789V49.5957Z" fill="#4B0082" fill-opacity="0.21"/>
<path id="Vector_10" d="M107.429 58.8223H47.5645V61.9727H107.429V58.8223Z" fill="#4B0082" fill-opacity="0.21"/>
<path id="Vector_11" d="M103.154 68.1621H70.6992V71.3125H103.154V68.1621Z" fill="#4B0082" fill-opacity="0.21"/>
<path id="Vector_12" d="M77.2387 85.8545C76.8826 85.8545 76.5506 85.7325 76.3245 85.4209C76.0467 85.0364 76.0663 84.5103 76.0788 84.1622L76.385 76.0195L76.8301 76.0365L76.5248 84.1782C76.5105 84.5574 76.5123 84.918 76.6841 85.1574C77.0669 85.6853 77.9874 85.2287 78.1681 85.1316C79.0743 84.6456 79.725 83.7305 80.3544 82.8456C81.0541 81.8664 81.7787 80.8453 82.8719 80.3673C83.5218 80.0833 83.9989 80.4999 84.3852 80.8329C84.6033 81.0216 84.809 81.1996 85.0271 81.2646C85.5995 81.4328 86.1692 81.2851 86.7719 81.1275C87.306 80.9886 87.857 80.8426 88.4241 80.9308C88.9422 81.01 89.3606 81.2165 89.7665 81.4159C90.3638 81.7115 90.8819 81.967 91.6288 81.7854C92.6597 81.537 93.6175 80.9504 94.5433 80.3833C94.8104 80.2186 95.0774 80.0539 95.3507 79.8973C96.3914 79.2928 97.9555 78.5299 99.5124 78.8869L99.4118 79.3257C98.008 79.0044 96.5507 79.7201 95.576 80.2863C95.3089 80.4421 95.0418 80.6041 94.7748 80.767C93.8187 81.3527 92.8297 81.9581 91.7303 82.2233C90.8232 82.4414 90.1813 82.1263 89.5618 81.8201C89.1879 81.6349 88.8015 81.4444 88.352 81.375C87.8757 81.3029 87.3932 81.4284 86.8814 81.5619C86.2449 81.7284 85.5897 81.9002 84.8944 81.6955C84.5838 81.6064 84.3309 81.3839 84.0861 81.172C83.6847 80.8239 83.4203 80.6192 83.0499 80.7786C82.0707 81.2067 81.4138 82.129 80.7194 83.1064C80.0598 84.0322 79.3779 84.991 78.3791 85.5269C78.0304 85.7252 77.6395 85.8375 77.2387 85.8545Z" fill="#102048"/>
<path id="Vector_13" opacity="0.3" d="M117.128 71.6932V110.911H38.2378V68.2793L62.8812 88.7851C64.2405 89.9192 66.0227 90.3509 67.7773 90.1035C68.2915 90.0309 68.8108 90.0011 69.3298 90.0144L86.1279 90.4871C86.7065 90.5052 87.2821 90.5761 87.8478 90.699C89.589 91.0773 91.4086 90.7302 92.848 89.6681L117.128 71.6932Z" fill="#86A7FF"/>
<path id="Vector_14" d="M65.7937 97.0816L65.1368 97.8107L35.4477 130.732L29.8252 136.962V68.8418L65.7937 97.0816Z" fill="#4B0082"/>
<path id="Vector_15" d="M125.493 68.8428L89.5234 97.0808L125.493 136.959V68.8428Z" fill="#4B0082"/>
<path id="Vector_16" d="M65.1341 97.8111L35.4468 130.732L29.8252 131.97V119.863C44.6648 109.227 61.3143 96.896 65.1181 96.6289L65.1341 97.8111Z" fill="#38095B"/>
<path id="Vector_17" d="M90.1782 97.8111L119.867 130.732L125.49 131.97V119.863C110.649 109.227 93.9999 96.896 90.1969 96.6289L90.1782 97.8111Z" fill="#38095B"/>
<path id="Vector_18" d="M125.492 136.96H29.8252L29.843 127.999L62.808 98.0935C64.5387 96.5237 66.7919 95.6545 69.1284 95.6553H85.9336C88.2342 95.6556 90.4549 96.499 92.1757 98.0259L125.581 127.687L125.492 136.96Z" fill="#4B0082"/>
<path id="Vector_19" opacity="0.4" d="M130.749 132.146C137.165 125.73 137.165 115.328 130.749 108.912C124.334 102.497 113.932 102.497 107.516 108.912C101.1 115.328 101.1 125.73 107.516 132.146C113.932 138.562 124.334 138.562 130.749 132.146Z" fill="#38095B"/>
<path id="Vector_20" d="M135.699 132.147C142.114 125.731 142.114 115.329 135.699 108.913C129.283 102.498 118.881 102.498 112.465 108.913C106.049 115.329 106.049 125.731 112.465 132.147C118.881 138.563 129.283 138.563 135.699 132.147Z" fill="#FFC857"/>
<path id="Vector_21" d="M123.728 129.433C123.339 129.433 122.955 129.351 122.6 129.193C122.244 129.035 121.926 128.805 121.666 128.516L115.854 122.099C115.735 121.967 115.643 121.814 115.583 121.647C115.524 121.479 115.497 121.302 115.506 121.125C115.515 120.948 115.558 120.774 115.634 120.614C115.71 120.454 115.817 120.31 115.948 120.191C116.08 120.072 116.233 119.98 116.4 119.92C116.567 119.86 116.745 119.834 116.922 119.843C117.099 119.852 117.273 119.895 117.433 119.971C117.593 120.047 117.737 120.154 117.856 120.285L123.668 126.704C123.677 126.715 123.69 126.723 123.704 126.728C123.717 126.733 123.732 126.734 123.746 126.73C123.761 126.729 123.775 126.724 123.786 126.715C123.798 126.706 123.807 126.693 123.811 126.68L130.068 112.436C130.139 112.274 130.242 112.127 130.37 112.005C130.498 111.882 130.649 111.785 130.814 111.721C130.979 111.657 131.155 111.625 131.333 111.629C131.51 111.633 131.685 111.672 131.847 111.743C132.01 111.814 132.156 111.917 132.279 112.045C132.402 112.173 132.498 112.324 132.563 112.489C132.627 112.654 132.658 112.831 132.654 113.008C132.651 113.185 132.612 113.36 132.541 113.522L126.284 127.766C126.065 128.261 125.707 128.682 125.253 128.978C124.8 129.274 124.27 129.432 123.728 129.433Z" fill="white"/>
</g>
</g>
</svg>
