<svg width="174" height="174" viewBox="0 0 174 174" fill="none" xmlns="http://www.w3.org/2000/svg">
<path d="M174 87C174 135.049 135.049 174 87 174C38.9512 174 0 135.049 0 87C0 38.9512 38.9512 0 87 0C135.049 0 174 38.9512 174 87ZM22.9419 87C22.9419 122.378 51.6217 151.058 87 151.058C122.378 151.058 151.058 122.378 151.058 87C151.058 51.6217 122.378 22.9419 87 22.9419C51.6217 22.9419 22.9419 51.6217 22.9419 87Z" fill="#F0EBF4"/>
<ellipse cx="63" cy="71.5" rx="3" ry="3.5" fill="#DFD2EB"/>
<path d="M73.5001 75.5C73.5001 76.5741 73.0546 77.3522 72.3323 77.9403C71.591 78.5439 70.5489 78.9518 69.3811 79.2141C67.0476 79.7382 64.3957 79.6422 63.1891 79.5575C62.7706 79.5281 62.3594 79.472 61.9412 79.3943C60.8695 79.195 58.6467 78.7346 56.5953 78.0162C55.5684 77.6565 54.605 77.2392 53.8557 76.7693C53.091 76.2896 52.6286 75.8043 52.4744 75.3419C52.309 74.8455 52.4959 74.187 53.175 73.3858C53.8393 72.6019 54.8882 71.792 56.1579 71.0578C58.7027 69.5864 61.9911 68.5 64.5001 68.5C67.0859 68.5 69.3421 68.9222 70.9396 69.991C72.5002 71.035 73.5001 72.7421 73.5001 75.5Z" stroke="#CEBFDD"/>
<path d="M71.5831 71.2446C71.9692 71.439 72.3629 70.9957 72.1243 70.6353C72.0429 70.5123 71.9306 70.4128 71.7987 70.3468L69.5 69.1958L69.3984 69.154C67.6485 68.4331 65.7783 68.049 63.8859 68.0217C62.8812 68.0073 61.8775 68.0936 60.8899 68.2793L59.7812 68.4878L59.032 68.6287C57.813 68.8579 56.6471 69.3116 55.5938 69.9668C54.1284 70.9344 52.3277 71.252 50.6197 70.8443L48.6601 70.3765C48.1164 70.2467 47.7156 70.8776 48.0641 71.3145L50.6543 74.5624C50.8728 74.8364 51.204 74.9962 51.5545 74.9967L51.7377 74.9969C53.1527 74.9988 54.4766 74.2994 55.2726 73.1295C55.3404 73.0299 55.4245 72.9425 55.5215 72.871L55.6239 72.7954C56.3678 72.2469 57.2096 71.8456 58.1042 71.6131L60.4952 70.9918C63.1372 70.3052 65.8916 70.1651 68.5897 70.5802L70.9107 70.9373C70.9699 70.9464 71.0272 70.9648 71.0807 70.9917L71.5831 71.2446Z" fill="#CEBFDD"/>
<path d="M120.5 75.5C120.5 77.5803 119.132 78.7978 117.342 79.5306C115.546 80.2659 113.449 80.4501 112.31 80.4915C111.77 80.5112 111.229 80.508 110.68 80.4974C109.295 80.4706 106.432 80.3187 103.929 79.5814C102.677 79.2124 101.554 78.7079 100.754 78.0312C99.9665 77.3661 99.5 76.5464 99.5 75.5C99.5 72.7421 100.5 71.035 102.061 69.991C103.658 68.9222 105.914 68.5 108.5 68.5C111.083 68.5 114.128 68.9206 116.506 70.0286C118.873 71.1311 120.5 72.8649 120.5 75.5Z" stroke="#CEBFDD"/>
<ellipse cx="109" cy="71.5" rx="3" ry="3.5" fill="#DFD2EB"/>
<path d="M102.417 70.2463C102.031 70.4409 101.637 69.9975 101.876 69.6368C101.957 69.5138 102.069 69.4142 102.201 69.3481L104.5 68.1965L104.602 68.1545C106.352 67.4333 108.222 67.049 110.114 67.0217C111.119 67.0073 112.123 67.0936 113.11 67.2794L114.219 67.488L114.968 67.629C116.187 67.8584 117.353 68.3124 118.406 68.9679C119.872 69.936 121.672 70.2539 123.381 69.8459L125.34 69.3778C125.884 69.248 126.285 69.8788 125.936 70.3159L123.346 73.5663C123.127 73.8404 122.796 74.0003 122.445 74.0008L122.263 74.001C120.848 74.0029 119.523 73.303 118.727 72.1325C118.66 72.0328 118.575 71.9454 118.478 71.8738L118.376 71.7983C117.632 71.2494 116.79 70.8478 115.896 70.6152L113.505 69.9936C110.863 69.3066 108.108 69.1664 105.41 69.5818L103.089 69.939C103.03 69.9481 102.973 69.9665 102.919 69.9934L102.417 70.2463Z" fill="#CEBFDD"/>
<path d="M70.7854 121.656C71.5299 118.802 73.8218 116.613 76.7069 116L82.0501 114.407C82.9384 114.142 83.886 114.152 84.7682 114.436L85.3796 114.633C86.1098 114.869 86.9026 114.814 87.5933 114.48C88.2341 114.17 88.9644 114.1 89.6525 114.281L94.2759 115.5L95.2177 115.72C100.867 117.041 104.77 122.205 104.5 128L103.064 127.093C97.821 123.782 91.6696 122.202 85.4796 122.577C80.8898 122.855 76.428 124.2 72.4486 126.503L69 128.5L70.7854 121.656Z" fill="#E7DFEE"/>
<path d="M71.9028 127.389C71.3704 127.56 71.4026 128.323 71.9475 128.449C74.2531 128.981 76.6176 129.213 78.9825 129.14L86.7536 128.9L94.7396 129.141C97.1262 129.214 99.5126 128.99 101.844 128.476C102.426 128.347 102.458 127.53 101.888 127.357L96.6087 125.75L95.8923 125.623C89.8515 124.55 83.6648 124.598 77.6414 125.765L75.913 126.1L71.9028 127.389Z" fill="#F0EBF4"/>
<path d="M101.133 55.1893C101.077 55.1097 101.134 55 101.231 55C102.78 55 104.268 55.5974 105.387 56.6678L105.63 56.9012C106.338 57.5787 107.117 58.1783 107.953 58.6897L110.818 60.4428C114.212 62.5189 118.038 63.7851 122 64.1429C122.185 64.1596 122.359 64.2423 122.488 64.3759L123.601 65.5245C124.373 66.3213 123.69 67.6429 122.593 67.4734C117.782 66.7296 113.154 65.0815 108.955 62.6162L107.362 61.6807L103.644 58.7603L101.133 55.1893Z" fill="#DFD2EB"/>
<path d="M45.8686 61.3303C45.7803 61.3713 45.7748 61.4948 45.8591 61.5435C47.1999 62.3175 48.7876 62.5443 50.2914 62.1766L50.6193 62.0964C51.5712 61.8637 52.5453 61.7337 53.5249 61.7088L56.8829 61.6233C60.8599 61.522 64.8066 62.3387 68.4168 64.0098C68.5857 64.088 68.7769 64.1029 68.9558 64.052L70.494 63.6138C71.5612 63.3098 71.6301 61.8236 70.5957 61.4221C66.0567 59.6604 61.2252 58.774 56.3564 58.8096L54.5087 58.8232L49.8283 59.4931L45.8686 61.3303Z" fill="#DFD2EB"/>
</svg>
