<svg width="164" height="118" viewBox="0 0 164 118" fill="none" xmlns="http://www.w3.org/2000/svg">
<g id="Group 964">
<g id="Object">
<path id="Vector" d="M85.834 117.257C118.182 117.257 144.405 91.0336 144.405 58.6856C144.405 26.3375 118.182 0.114258 85.834 0.114258C53.486 0.114258 27.2627 26.3375 27.2627 58.6856C27.2627 91.0336 53.486 117.257 85.834 117.257Z" fill="#FFC857"/>
<path id="Vector_2" d="M116.479 8.69482C122.513 18.1095 125.711 29.0605 125.693 40.2424C125.693 72.5908 99.4703 98.8137 67.1219 98.8137C56.3029 98.8307 45.6928 95.8358 36.4795 90.1643C41.773 98.4529 49.07 105.274 57.6963 109.997C66.3226 114.72 76.0001 117.193 85.8349 117.188C118.183 117.188 144.406 90.963 144.406 58.6167C144.411 48.6015 141.846 38.7524 136.957 30.0118C132.067 21.2712 125.017 13.9315 116.479 8.69482Z" fill="#E8BA5B"/>
<path id="Vector_3" d="M35.3585 63.7329C35.3585 33.7018 59.705 9.35316 89.7382 9.35316C98.0708 9.34646 106.293 11.2579 113.768 14.9395C121.243 18.6211 127.771 23.9741 132.845 30.5837C128.079 22.2906 121.21 15.4018 112.93 10.6129C104.651 5.82389 95.2541 3.30433 85.6894 3.3086C55.6583 3.3086 31.3096 27.6551 31.3096 57.6883C31.2921 69.6824 35.2573 81.3428 42.583 90.8397C37.8348 82.5958 35.343 73.2463 35.3585 63.7329Z" fill="#FED684"/>
<path id="Vector_4" d="M122.115 76.4114C120.558 71.3509 116.777 68.0815 112.481 68.0815C110.824 68.0932 109.206 68.5796 107.817 69.483C106.752 70.1646 105.942 71.1272 105.159 72.058C104.777 72.5117 104.415 72.9398 104.034 73.3359C103.218 74.1378 102.242 74.7578 101.169 75.1548C98.9714 75.9833 95.6445 75.3273 93.8746 72.7928C91.781 69.7982 88.8354 68.0815 85.7918 68.0815C83.5533 68.0815 81.3744 69.0677 79.4916 70.9356C79.0626 71.3782 78.6614 71.8469 78.2904 72.3391C77.9885 72.7404 77.6642 73.1244 77.3192 73.4893C76.7058 74.1091 75.9028 74.5137 74.9912 74.9397C73.9488 75.4522 72.776 75.6385 71.626 75.4743C70.0851 75.1907 68.6708 74.4344 67.5793 73.3104C67.2257 72.9483 66.8807 72.5457 66.5144 72.1176C65.6624 71.1422 64.8105 70.1305 63.7178 69.4489C62.3422 68.567 60.7449 68.0929 59.1109 68.0815C54.9045 68.0815 51.1538 71.2572 49.5521 76.175C49.4046 76.6054 49.41 77.0735 49.5676 77.5003C49.7251 77.9272 50.0251 78.2866 50.4168 78.5179C50.7521 78.702 51.1429 78.758 51.5163 78.6753C51.8898 78.5926 52.2204 78.3769 52.4466 78.0685C54.4614 75.5318 57.8032 73.2316 61.1492 74.3923C62.7956 74.9631 64.1523 76.4796 65.2961 77.8555C66.9212 79.8128 69.0425 81.0631 71.2725 81.3719C71.65 81.4248 72.0308 81.4511 72.412 81.4507C75.1361 81.4507 77.8005 80.0535 79.7217 77.617L80.0731 77.1654C80.7355 76.3135 81.2573 75.6362 82.0453 75.1463C82.9511 74.5727 83.9668 74.1948 85.0272 74.0367C86.1698 73.9089 87.3246 74.1255 88.3434 74.6586C88.9317 74.951 89.4878 75.3044 90.0025 75.7129C90.6041 76.2308 91.1534 76.8065 91.6425 77.4317C92.2162 78.1573 92.8581 78.8263 93.5594 79.4295C95.1159 80.7253 97.0718 81.4445 99.097 81.4656C101.278 81.4656 103.372 80.5775 105.154 78.9098C105.425 78.6563 105.891 78.1665 106.432 77.5978C107.137 76.8566 108.451 75.4679 108.775 75.2549C111.222 73.6022 113.908 73.6724 116.34 75.4488C117.418 76.2593 118.382 77.2114 119.205 78.2793C119.431 78.5872 119.76 78.8035 120.133 78.8888C120.505 78.974 120.895 78.9225 121.233 78.7436C121.628 78.518 121.932 78.1617 122.093 77.7361C122.254 77.3105 122.262 76.8421 122.115 76.4114Z" fill="#4B0082"/>
<path id="Vector_5" d="M51.674 36.5467L47.8848 40.3359L64.9573 57.4084L68.7465 53.6192L51.674 36.5467Z" fill="#4B0082"/>
<path id="Vector_6" d="M68.7472 40.3356L64.958 36.5464L47.8855 53.6189L51.6747 57.4081L68.7472 40.3356Z" fill="#4B0082"/>
<path id="Vector_7" d="M106.711 36.5467L102.922 40.3359L119.994 57.4084L123.784 53.6192L106.711 36.5467Z" fill="#4B0082"/>
<path id="Vector_8" d="M123.782 40.3356L119.993 36.5464L102.921 53.6189L106.71 57.4081L123.782 40.3356Z" fill="#4B0082"/>
</g>
<g id="Dot">
<path id="Dot_2" d="M154.821 21.2259C159.89 21.2259 164 17.0246 164 11.842C164 6.65934 159.89 2.45801 154.821 2.45801C149.751 2.45801 145.642 6.65934 145.642 11.842C145.642 17.0246 149.751 21.2259 154.821 21.2259Z" fill="#FFC857"/>
<path id="Dot_3" d="M154.821 112.565C159.89 112.565 164 108.363 164 103.181C164 97.9982 159.89 93.7969 154.821 93.7969C149.751 93.7969 145.642 97.9982 145.642 103.181C145.642 108.363 149.751 112.565 154.821 112.565Z" fill="#4B0082"/>
<path id="Dot_4" d="M9.17808 38.744C14.2475 38.744 18.3571 34.5426 18.3571 29.36C18.3571 24.1774 14.2475 19.9761 9.17808 19.9761C4.10863 19.9761 -0.000976562 24.1774 -0.000976562 29.36C-0.000976562 34.5426 4.10863 38.744 9.17808 38.744Z" fill="#7E6298"/>
<path id="Dot_5" d="M14.6858 73.7766C18.0654 73.7766 20.8052 70.9757 20.8052 67.5206C20.8052 64.0655 18.0654 61.2646 14.6858 61.2646C11.3061 61.2646 8.56641 64.0655 8.56641 67.5206C8.56641 70.9757 11.3061 73.7766 14.6858 73.7766Z" fill="#DFD2EB"/>
</g>
</g>
</svg>
