<svg width="360" height="188" viewBox="0 0 360 188" fill="none" xmlns="http://www.w3.org/2000/svg">
<g clip-path="url(#clip0_603_2341)">
<rect width="360" height="188" fill="#DFD2EB"/>
<path d="M358.046 187.247C358.046 187.247 391.754 124.069 352.082 93.9174C329.943 77.0926 299.713 106.963 277.265 61.8082C264.2 35.5289 218.482 27.5484 195.62 63.429C172.758 99.3097 153.104 99.1283 137.331 92.4894C119.24 84.8774 111.293 61.9723 82.9769 66.8147C50.2429 72.4143 54.6247 106.357 30.509 100.447C-15.9951 89.049 -50.455 154.166 -18.3069 187.694L358.046 187.247Z" fill="#D4DFFF"/>
<path d="M141.079 152.007C141.079 152.007 148.329 147.948 144.946 142.439C144.946 142.439 142.239 139.056 139.34 138.185C139.34 138.185 140.886 146.4 139.34 146.595C137.794 146.789 138.277 137.316 138.277 137.316C138.277 137.316 130.647 133.644 127.644 133.933C127.644 133.933 132.38 141.955 130.834 141.762C129.288 141.569 123.972 133.451 123.972 133.451C123.972 133.451 116.144 132.001 114.888 136.639C113.631 141.277 115.661 143.598 116.821 143.889C117.981 144.179 125.422 144.081 125.229 145.04C125.036 145.999 120.009 147.553 117.207 146.684C117.207 146.684 120.3 154.313 124.36 153.932C128.419 153.55 129.674 151.033 132.188 150.84C134.701 150.647 136.536 151.323 135.281 152C134.026 152.677 129.772 152.222 127.742 153.946C125.713 155.671 124.069 156.736 127.839 157.509C131.609 158.282 138.373 157.797 139.726 154.899L141.079 152.007Z" fill="#A8D29F"/>
<path d="M143.012 159.063C140.982 155.293 141.079 152.009 141.079 152.009C138.76 144.668 118.463 138.091 118.463 138.091C144.269 148.53 139.726 154.908 139.726 154.908C140.421 155.314 141.465 157.248 142.187 158.732C142.291 158.985 142.454 159.335 142.697 159.808C142.795 160.023 142.874 160.198 142.927 160.321C144.256 163.646 143.552 169.39 143.552 169.39L144.358 169.606C146.142 163.816 143.012 159.063 143.012 159.063Z" fill="#82B378"/>
<path d="M175.933 148.977C175.933 148.977 169.371 153.857 168.091 153.561C166.811 153.264 172.888 148.294 172.888 148.294C170.602 147.194 163.493 147.883 163.493 147.883C163.493 147.883 161.127 155.513 159.959 154.915C158.792 154.318 162.407 148.262 162.407 148.262C159.86 148.109 156.738 149.999 156.738 149.999C152.461 153.376 157.019 158.692 157.019 158.692C157.019 158.692 156.141 161.321 153.441 163.713C153.441 163.713 149.585 166.565 149.316 171.661L150.017 171.724C150.017 171.724 151.127 166.974 153.142 164.733L153.476 164.393C153.804 164.089 154.035 163.86 154.196 163.69C155.203 162.727 156.587 161.498 157.255 161.387C157.231 161.277 157.221 161.163 157.226 161.05C157.235 161.158 157.245 161.269 157.255 161.387C157.484 164.073 162.696 166.425 165.903 166.902C169.11 167.378 168.118 166.067 167.013 164.112C165.907 162.157 162.407 161.284 161.613 160.384C160.82 159.484 162.466 159.481 164.397 160.364C166.329 161.246 166.594 163.598 169.693 165.084C172.793 166.569 177.456 161.425 177.456 161.425C174.986 161.299 171.46 158.616 171.586 157.796C171.713 156.975 177.574 159.212 178.576 159.319C179.578 159.425 181.857 158.18 182.21 154.145C182.562 150.11 175.933 148.977 175.933 148.977Z" fill="#82B378"/>
<path d="M152.611 146.408C152.611 146.408 143.056 141.056 147.515 133.796C147.515 133.796 151.082 129.333 154.904 128.182C154.904 128.182 152.866 139.011 154.904 139.266C156.943 139.52 156.306 127.03 156.306 127.03C156.306 127.03 166.371 122.189 170.32 122.568C170.32 122.568 164.078 133.142 166.116 132.887C168.155 132.632 175.161 121.931 175.161 121.931C175.161 121.931 185.48 120.02 187.137 126.135C188.794 132.25 186.118 135.309 184.589 135.69C183.061 136.071 173.251 135.945 173.505 137.219C173.76 138.493 180.385 140.53 184.08 139.378C184.08 139.378 180.003 149.443 174.651 148.933C169.299 148.424 167.645 145.11 164.333 144.857C161.021 144.603 158.599 145.493 160.256 146.385C161.913 147.278 167.517 146.673 170.189 148.952C172.86 151.231 175.03 152.627 170.061 153.646C165.092 154.665 156.174 154.029 154.39 150.207L152.611 146.408Z" fill="#A8D29F"/>
<path d="M182.423 128.066C182.423 128.066 155.668 136.729 152.611 146.413C152.611 146.413 152.739 150.744 150.063 155.712C150.063 155.712 145.937 161.978 148.289 169.604L149.35 169.316C149.35 169.316 148.423 161.749 150.174 157.369C150.246 157.207 150.349 156.976 150.479 156.692C150.799 156.067 151.014 155.607 151.15 155.273C152.104 153.316 153.477 150.767 154.394 150.235C154.394 150.235 148.408 141.825 182.423 128.066Z" fill="#82B378"/>
<path d="M133.568 167.424C133.568 172.387 135.539 177.147 139.049 180.656C142.558 184.166 147.318 186.137 152.281 186.137C157.244 186.137 162.004 184.166 165.513 180.656C169.023 177.147 170.994 172.387 170.994 167.424H133.568Z" fill="#F9C438"/>
<path d="M168.954 184.988H135.623C135.012 184.988 134.426 185.231 133.994 185.663C133.562 186.095 133.32 186.681 133.32 187.291H171.27C171.268 186.679 171.023 186.093 170.589 185.661C170.155 185.229 169.567 184.987 168.954 184.988Z" fill="#F1A34F"/>
<path d="M171.139 167.998H133.244C133.168 167.998 133.095 167.967 133.041 167.913C132.987 167.859 132.957 167.786 132.957 167.71C132.957 167.633 132.987 167.56 133.041 167.506C133.095 167.452 133.168 167.422 133.244 167.422H171.139C171.215 167.422 171.289 167.452 171.343 167.506C171.397 167.56 171.427 167.633 171.427 167.71C171.427 167.786 171.397 167.859 171.343 167.913C171.289 167.967 171.215 167.998 171.139 167.998Z" fill="#D86713"/>
<path d="M211.783 187.296H284.576C286.868 187.296 288.726 185.438 288.726 183.146V37.5753C288.726 35.2833 286.868 33.4253 284.576 33.4253H211.783C209.491 33.4253 207.633 35.2833 207.633 37.5753V183.146C207.633 185.438 209.491 187.296 211.783 187.296Z" fill="#5A6FC5"/>
<path d="M203.921 187.296H276.714C279.006 187.296 280.864 185.438 280.864 183.146V37.5753C280.864 35.2833 279.006 33.4253 276.714 33.4253H203.921C201.629 33.4253 199.77 35.2833 199.77 37.5753V183.146C199.77 185.438 201.629 187.296 203.921 187.296Z" fill="#6880E4"/>
<path d="M228.43 40.8926H249.51C249.727 40.8918 249.935 40.8052 250.089 40.6514C250.243 40.4977 250.33 40.2895 250.33 40.0721C250.33 39.8546 250.243 39.6461 250.09 39.4923C249.936 39.3385 249.727 39.252 249.51 39.2516H228.43C228.213 39.2523 228.004 39.339 227.851 39.4927C227.697 39.6465 227.61 39.8547 227.609 40.0721C227.61 40.2895 227.697 40.4977 227.851 40.6514C228.004 40.8052 228.213 40.8918 228.43 40.8926Z" fill="#4A75CB"/>
<path d="M253.258 40.8926C253.476 40.8918 253.684 40.8052 253.838 40.6514C253.992 40.4977 254.078 40.2895 254.079 40.0721C254.078 39.8547 253.992 39.6465 253.838 39.4927C253.684 39.339 253.476 39.2523 253.258 39.2516C253.041 39.2523 252.833 39.339 252.679 39.4927C252.525 39.6465 252.439 39.8547 252.438 40.0721C252.439 40.2895 252.525 40.4977 252.679 40.6514C252.833 40.8052 253.041 40.8918 253.258 40.8926Z" fill="#4A75CB"/>
<path d="M244.605 178.795C244.605 177.749 244.294 176.726 243.713 175.856C243.132 174.986 242.306 174.308 241.339 173.908C240.372 173.507 239.309 173.403 238.283 173.607C237.256 173.811 236.314 174.315 235.574 175.055C234.834 175.794 234.33 176.737 234.126 177.763C233.922 178.789 234.027 179.853 234.427 180.82C234.828 181.786 235.506 182.612 236.376 183.194C237.246 183.775 238.268 184.085 239.315 184.085C240.009 184.085 240.697 183.949 241.339 183.683C241.981 183.417 242.564 183.028 243.056 182.536C243.547 182.045 243.937 181.462 244.202 180.82C244.468 180.178 244.605 179.49 244.605 178.795Z" fill="#5A6FC5"/>
<path d="M274.116 45.6283H206.694V170.085H274.116V45.6283Z" fill="white"/>
<path d="M137.991 49.3633H72.7328C70.6785 49.3633 69.0132 51.0286 69.0132 53.0829V183.583C69.0132 185.637 70.6785 187.302 72.7328 187.302H137.991C140.045 187.302 141.71 185.637 141.71 183.583V53.0829C141.71 51.0286 140.045 49.3633 137.991 49.3633Z" fill="#5A6FC5"/>
<path d="M145.039 49.3627H79.7808C77.7265 49.3627 76.0612 51.028 76.0612 53.0823V183.582C76.0612 185.636 77.7265 187.302 79.7808 187.302H145.039C147.093 187.302 148.758 185.636 148.758 183.582V53.0823C148.758 51.028 147.093 49.3627 145.039 49.3627Z" fill="#6880E4"/>
<path d="M146.004 60.3864H78.6605V172.16H146.004V60.3864Z" fill="white"/>
<path d="M104.165 54.5801H123.06C123.255 54.5801 123.442 54.6576 123.58 54.7955C123.718 54.9335 123.796 55.1206 123.796 55.3157C123.796 55.5108 123.718 55.6978 123.58 55.8358C123.442 55.9737 123.255 56.0512 123.06 56.0512H104.165C103.97 56.0512 103.783 55.9737 103.645 55.8358C103.507 55.6978 103.43 55.5108 103.43 55.3157C103.43 55.1206 103.507 54.9335 103.645 54.7955C103.783 54.6576 103.97 54.5801 104.165 54.5801Z" fill="#4A75CB"/>
<path d="M100.808 54.5801C100.953 54.5798 101.096 54.6227 101.217 54.7033C101.338 54.784 101.433 54.8988 101.488 55.0332C101.544 55.1676 101.559 55.3155 101.531 55.4583C101.503 55.6011 101.433 55.7323 101.33 55.8353C101.227 55.9383 101.096 56.0085 100.953 56.037C100.811 56.0655 100.663 56.051 100.528 55.9954C100.394 55.9397 100.279 55.8455 100.198 55.7245C100.117 55.6035 100.074 55.4612 100.074 55.3157C100.074 55.1211 100.152 54.9346 100.29 54.7969C100.427 54.6591 100.613 54.5812 100.808 54.5801Z" fill="#4A75CB"/>
<path d="M115.992 181.507C116.47 179.483 115.216 177.455 113.192 176.977C111.168 176.5 109.14 177.753 108.662 179.777C108.184 181.801 109.438 183.83 111.462 184.307C113.486 184.785 115.514 183.531 115.992 181.507Z" fill="#5A6FC5"/>
<path d="M253.304 18.1952L273.522 24.1273L261.174 12.8086L260.044 15.7005L254.892 15.8833L253.304 18.1952Z" fill="#493260"/>
<path d="M273.522 24.1252L257.624 12.7835L240.91 9.5L273.522 24.1252Z" fill="#4B0082"/>
<path d="M261.174 12.8079L273.522 24.1266L265.028 8L261.174 12.8079Z" fill="#4B0082"/>
<path d="M263.087 142.55L263.098 119.253C263.097 118.864 262.943 118.492 262.668 118.217C262.393 117.942 262.021 117.787 261.632 117.786L219.189 117.768C218.8 117.768 218.428 117.922 218.153 118.197C217.878 118.472 217.723 118.844 217.722 119.233L217.711 142.528C217.712 142.917 217.866 143.289 218.141 143.564C218.415 143.838 218.787 143.994 219.176 143.995L261.621 144.014C262.009 144.013 262.382 143.859 262.656 143.585C262.931 143.31 263.086 142.938 263.087 142.55Z" fill="#699FF0"/>
<path d="M263.096 121.676H217.719V126.867H263.096V121.676Z" fill="#365DA4"/>
<path d="M248.895 128.313H221.132V132.394H248.895V128.313Z" fill="#AFCDFB"/>
<path d="M226.792 139.723V136.748C226.792 136.454 226.675 136.172 226.468 135.964C226.26 135.757 225.979 135.64 225.685 135.639H222.23C222.085 135.639 221.941 135.668 221.806 135.724C221.672 135.779 221.549 135.861 221.447 135.964C221.344 136.067 221.262 136.189 221.206 136.324C221.151 136.458 221.122 136.602 221.122 136.748V139.722C221.122 140.015 221.238 140.297 221.446 140.505C221.654 140.713 221.935 140.83 222.229 140.83H225.684C225.829 140.83 225.973 140.802 226.108 140.746C226.242 140.691 226.364 140.609 226.467 140.506C226.57 140.404 226.652 140.281 226.708 140.147C226.763 140.013 226.792 139.869 226.792 139.723Z" fill="#AFCDFB"/>
<path opacity="0.2" d="M231.972 136.166L259.245 136.179C259.36 136.179 259.47 136.134 259.551 136.053C259.632 135.972 259.677 135.862 259.677 135.747V135.327C259.677 135.213 259.632 135.103 259.551 135.022C259.47 134.941 259.36 134.895 259.245 134.895L231.973 134.884C231.858 134.884 231.749 134.929 231.668 135.01C231.587 135.091 231.541 135.201 231.541 135.316V135.735C231.541 135.849 231.586 135.958 231.667 136.039C231.748 136.12 231.857 136.166 231.972 136.166Z" fill="#AFCDFB"/>
<path opacity="0.2" d="M231.966 138.564L259.25 138.577C259.306 138.577 259.361 138.566 259.412 138.545C259.463 138.524 259.51 138.493 259.549 138.453C259.589 138.414 259.62 138.367 259.641 138.316C259.662 138.265 259.673 138.21 259.673 138.154V137.754C259.673 137.639 259.628 137.53 259.547 137.449C259.466 137.368 259.356 137.322 259.241 137.322L231.957 137.309C231.844 137.311 231.737 137.358 231.657 137.439C231.578 137.519 231.534 137.628 231.534 137.741V138.141C231.534 138.198 231.545 138.253 231.567 138.305C231.588 138.357 231.62 138.405 231.661 138.444C231.701 138.483 231.749 138.514 231.801 138.535C231.854 138.556 231.91 138.566 231.966 138.564Z" fill="#AFCDFB"/>
<path opacity="0.2" d="M259.667 140.463V140.009C259.667 139.895 259.622 139.785 259.541 139.704C259.46 139.623 259.35 139.577 259.235 139.577L231.979 139.564C231.864 139.564 231.754 139.61 231.673 139.691C231.592 139.772 231.547 139.882 231.547 139.996V140.45C231.547 140.564 231.592 140.674 231.673 140.755C231.754 140.836 231.864 140.882 231.979 140.882L259.235 140.894C259.35 140.894 259.46 140.849 259.541 140.768C259.622 140.687 259.667 140.577 259.667 140.463Z" fill="#AFCDFB"/>
<path d="M131.755 98.0409H92.909C91.4724 98.0409 90.3078 99.2055 90.3078 100.642V124.677C90.3078 126.114 91.4724 127.278 92.909 127.278H131.755C133.192 127.278 134.356 126.114 134.356 124.677V100.642C134.356 99.2055 133.192 98.0409 131.755 98.0409Z" fill="#4A75CB"/>
<path d="M127.666 89.5436H92.1825V107.664H127.666V89.5436Z" fill="#82B378"/>
<path d="M127.478 89.2743H91.9951V107.395H127.478V89.2743Z" fill="#82B378"/>
<path d="M127.225 89.0424H91.7421V107.163H127.225V89.0424Z" fill="#82B378"/>
<path d="M126.982 88.8162H91.499V106.936H126.982V88.8162Z" fill="#A8D29F"/>
<path d="M92.8866 90.1756V105.578H125.595V90.1756H92.8866ZM124.355 104.386H94.126V91.3704H124.355V104.386Z" fill="#82B378"/>
<path d="M92.8866 90.1756V93.6793C93.3745 93.8215 93.8915 93.8307 94.3842 93.7059C94.8768 93.5811 95.3271 93.3269 95.6885 92.9695C96.0498 92.6121 96.309 92.1646 96.4392 91.6734C96.5695 91.1822 96.566 90.665 96.4291 90.1756H92.8866Z" fill="#82B378"/>
<path d="M125.594 90.1625H122.09C121.948 90.6503 121.939 91.1672 122.064 91.6596C122.189 92.1521 122.444 92.6021 122.801 92.9633C123.158 93.3244 123.606 93.5835 124.097 93.7137C124.588 93.8438 125.105 93.8404 125.594 93.7037V90.1625Z" fill="#82B378"/>
<path d="M125.594 105.579H122.091C121.967 105.154 121.944 104.706 122.023 104.271C122.102 103.836 122.281 103.426 122.547 103.072C122.812 102.718 123.156 102.431 123.552 102.233C123.947 102.035 124.384 101.932 124.826 101.932C125.083 101.933 125.339 101.969 125.587 102.039L125.594 105.579Z" fill="#82B378"/>
<path d="M92.8866 105.565V102.061C93.3745 101.919 93.8915 101.91 94.3842 102.035C94.8768 102.159 95.3271 102.414 95.6885 102.771C96.0498 103.128 96.309 103.576 96.4392 104.067C96.5695 104.558 96.566 105.075 96.4291 105.565H92.8866Z" fill="#82B378"/>
<path d="M113.08 97.8767C113.08 98.6361 112.855 99.3785 112.434 100.01C112.012 100.642 111.412 101.134 110.711 101.425C110.009 101.715 109.237 101.792 108.493 101.644C107.748 101.496 107.064 101.13 106.527 100.593C105.99 100.056 105.624 99.3724 105.475 98.6277C105.327 97.8829 105.403 97.1109 105.694 96.4093C105.984 95.7078 106.476 95.1081 107.108 94.6862C107.739 94.2643 108.481 94.0391 109.241 94.0391C110.259 94.0391 111.235 94.4433 111.955 95.163C112.675 95.8827 113.079 96.8588 113.08 97.8767Z" fill="#82B378"/>
<path d="M123.997 107.096C127.976 106.471 130.694 102.739 130.069 98.7603C129.444 94.7816 125.712 92.0631 121.733 92.6883C117.754 93.3134 115.036 97.0456 115.661 101.024C116.286 105.003 120.018 107.722 123.997 107.096Z" fill="#E2810E"/>
<path d="M121.333 92.7283C119.902 92.9071 118.556 93.5062 117.465 94.4499C116.374 95.3936 115.588 96.6395 115.206 98.0301C114.823 99.4207 114.861 100.893 115.316 102.262C115.77 103.631 116.62 104.834 117.759 105.72C118.897 106.606 120.272 107.134 121.711 107.238C123.149 107.342 124.586 107.017 125.84 106.305C127.094 105.592 128.108 104.523 128.755 103.234C129.402 101.945 129.652 100.493 129.473 99.062C129.355 98.1116 129.05 97.1939 128.577 96.3612C128.103 95.5285 127.471 94.7972 126.715 94.209C125.959 93.6209 125.095 93.1874 124.171 92.9333C123.248 92.6792 122.283 92.6096 121.333 92.7283Z" fill="#FFB93E"/>
<path d="M123.075 106.637C121.771 106.799 120.448 106.572 119.274 105.983C118.099 105.395 117.126 104.471 116.476 103.328C115.827 102.186 115.53 100.877 115.625 99.5668C115.719 98.2563 116.2 97.0033 117.007 95.9661C117.814 94.929 118.91 94.1543 120.157 93.7401C121.403 93.3259 122.745 93.2907 124.012 93.6391C125.279 93.9874 126.414 94.7036 127.274 95.697C128.134 96.6905 128.68 97.9166 128.843 99.2203C129.059 100.968 128.573 102.731 127.492 104.121C126.411 105.511 124.822 106.416 123.075 106.637ZM121.475 93.8453C120.249 93.9983 119.096 94.5114 118.162 95.3199C117.227 96.1283 116.553 97.1956 116.226 98.387C115.898 99.5783 115.931 100.84 116.32 102.013C116.709 103.186 117.437 104.216 118.413 104.975C119.388 105.734 120.566 106.187 121.799 106.276C123.031 106.365 124.262 106.086 125.336 105.476C126.411 104.865 127.28 103.95 127.833 102.845C128.387 101.741 128.601 100.497 128.448 99.2707C128.241 97.6274 127.391 96.1333 126.084 95.1162C124.776 94.0991 123.119 93.6421 121.475 93.8453Z" fill="#F9C438"/>
<path d="M123.398 101.846C123.4 101.717 123.379 101.588 123.335 101.466C123.291 101.353 123.222 101.251 123.133 101.168C123.026 101.07 122.905 100.987 122.775 100.924C122.601 100.838 122.422 100.765 122.238 100.705C121.901 100.59 121.571 100.459 121.247 100.312C120.973 100.188 120.716 100.028 120.484 99.8353C120.277 99.6598 120.108 99.4432 119.989 99.199C119.76 98.668 119.749 98.0678 119.96 97.5292C120.058 97.2905 120.205 97.0751 120.392 96.8973C120.594 96.7117 120.827 96.5631 121.08 96.4582C121.367 96.3395 121.671 96.2657 121.98 96.2394V95.1368H122.867V96.2538C123.166 96.289 123.458 96.3726 123.731 96.5014C123.983 96.6196 124.209 96.7873 124.396 96.9945C124.583 97.2017 124.726 97.4442 124.817 97.7077C124.921 98.0067 124.973 98.3212 124.97 98.6376L123.366 98.6477C123.366 98.236 123.273 97.9284 123.087 97.725C122.994 97.6232 122.88 97.5433 122.752 97.4911C122.625 97.4388 122.488 97.4154 122.35 97.4227C122.203 97.4193 122.056 97.4438 121.918 97.4947C121.807 97.5365 121.706 97.6023 121.623 97.6875C121.545 97.7695 121.487 97.8679 121.453 97.9754C121.416 98.0902 121.398 98.2104 121.4 98.331C121.399 98.4486 121.418 98.5656 121.458 98.6765C121.499 98.7859 121.565 98.8844 121.65 98.9644C121.759 99.0631 121.881 99.1455 122.013 99.2091C122.194 99.2991 122.381 99.378 122.572 99.4452C122.932 99.5776 123.259 99.7129 123.553 99.8511C123.827 99.9768 124.083 100.139 124.313 100.333C124.533 100.516 124.708 100.746 124.825 101.007C124.942 101.267 124.998 101.551 124.989 101.836C124.995 102.116 124.943 102.394 124.836 102.652C124.734 102.89 124.583 103.103 124.393 103.279C124.19 103.464 123.955 103.61 123.699 103.71C123.408 103.823 123.104 103.894 122.793 103.922V104.948H121.911V103.929C121.607 103.901 121.307 103.835 121.018 103.733C120.738 103.637 120.478 103.487 120.253 103.293C120.023 103.091 119.84 102.841 119.716 102.562C119.573 102.227 119.503 101.865 119.51 101.501L121.114 101.491C121.108 101.699 121.144 101.906 121.219 102.101C121.279 102.251 121.375 102.385 121.496 102.491C121.61 102.588 121.744 102.657 121.888 102.694C122.034 102.733 122.185 102.752 122.336 102.752C122.491 102.753 122.646 102.73 122.793 102.681C122.914 102.642 123.026 102.578 123.122 102.494C123.209 102.414 123.277 102.316 123.32 102.206C123.37 102.093 123.397 101.97 123.398 101.846Z" fill="#FFA412"/>
<path d="M128.876 100.326H92.909C91.4724 100.326 90.3078 101.491 90.3078 102.927V126.962C90.3078 128.399 91.4724 129.563 92.909 129.563H128.876C130.313 129.563 131.477 128.399 131.477 126.962V102.927C131.477 101.491 130.313 100.326 128.876 100.326Z" fill="#699FF0"/>
<path d="M132.704 118.942H119.929C118.87 118.942 117.854 118.522 117.104 117.772C116.355 117.023 115.934 116.007 115.934 114.948C115.934 114.423 116.037 113.904 116.238 113.419C116.439 112.934 116.733 112.494 117.104 112.123C117.475 111.752 117.915 111.458 118.4 111.257C118.885 111.056 119.404 110.953 119.929 110.953H132.704V118.942Z" fill="#4A75CB"/>
<path d="M119.926 118.077C121.656 118.077 123.057 116.675 123.057 114.946C123.057 113.217 121.656 111.815 119.926 111.815C118.197 111.815 116.796 113.217 116.796 114.946C116.796 116.675 118.197 118.077 119.926 118.077Z" fill="#E9F3FE"/>
<path d="M239.76 88.7069C245.125 88.4633 249.278 83.9161 249.034 78.5506C248.79 73.1851 244.243 69.033 238.878 69.2766C233.512 69.5203 229.36 74.0674 229.604 79.4329C229.847 84.7985 234.394 88.9506 239.76 88.7069Z" fill="#A8D29F"/>
<path d="M233.648 79.6661L236.825 82.8431C236.999 83.0165 237.235 83.1138 237.48 83.1137H237.942C238.188 83.1138 238.424 83.0165 238.597 82.8431L244.984 76.4661C245.115 76.3368 245.204 76.1716 245.241 75.9914C245.277 75.8112 245.259 75.6243 245.189 75.4545C245.118 75.2846 244.999 75.1396 244.846 75.0377C244.693 74.9359 244.513 74.8819 244.329 74.8827H244.03C243.788 74.8829 243.556 74.9774 243.382 75.1461L238.154 80.2577C237.98 80.4261 237.747 80.5195 237.505 80.5179C237.262 80.5163 237.03 80.4198 236.859 80.2491L234.97 78.3605C234.883 78.2734 234.779 78.2046 234.665 78.1582C234.55 78.1117 234.428 78.0885 234.305 78.0899C234.122 78.0902 233.944 78.1445 233.792 78.2459C233.641 78.3473 233.522 78.4912 233.452 78.6596C233.382 78.8281 233.363 79.0134 233.398 79.1925C233.433 79.3716 233.52 79.5364 233.648 79.6661Z" fill="white"/>
<path d="M55.1067 82.6403C54.8317 82.6763 54.5611 82.7094 54.2919 82.7425C54.1442 82.7616 53.9949 82.7212 53.8769 82.6302C53.759 82.5392 53.682 82.4051 53.6629 82.2574C53.6438 82.1096 53.6842 81.9604 53.7751 81.8424C53.8661 81.7244 54.0002 81.6474 54.148 81.6283C54.6317 81.5693 55.124 81.5074 55.6249 81.4398C55.7695 81.4266 55.9136 81.47 56.0269 81.5608C56.1402 81.6516 56.2139 81.7828 56.2326 81.9268C56.2512 82.0708 56.2133 82.2165 56.1268 82.3331C56.0404 82.4498 55.912 82.5284 55.7688 82.5525L55.1067 82.6403ZM57.2659 82.3524C57.1213 82.3656 56.9772 82.3222 56.8639 82.2314C56.7506 82.1405 56.6769 82.0093 56.6582 81.8653C56.6396 81.7213 56.6775 81.5757 56.764 81.459C56.8504 81.3424 56.9788 81.2637 57.122 81.2397C57.6071 81.1706 58.0979 81.0957 58.5974 81.0194C58.741 81.0041 58.8849 81.0446 58.9993 81.1326C59.1137 81.2206 59.1898 81.3493 59.2119 81.4919C59.2339 81.6345 59.2002 81.7802 59.1177 81.8986C59.0351 82.017 58.9102 82.0991 58.7687 82.1278C58.2668 82.2056 57.7712 82.2799 57.2817 82.3509L57.2659 82.3524ZM52.8121 82.9109H52.7992C52.291 82.9656 51.7915 83.0146 51.3021 83.0549C51.2269 83.0652 51.1504 83.0602 51.0771 83.0401C51.0039 83.02 50.9355 82.9853 50.8761 82.938C50.8167 82.8907 50.7675 82.8319 50.7315 82.765C50.6954 82.6982 50.6733 82.6247 50.6665 82.5491C50.6597 82.4735 50.6683 82.3973 50.6918 82.3251C50.7152 82.2529 50.7531 82.1862 50.8031 82.129C50.8531 82.0719 50.9142 82.0255 50.9826 81.9926C51.0511 81.9597 51.1255 81.9411 51.2014 81.9378C51.6807 81.8946 52.1788 81.8457 52.6811 81.7939C52.8256 81.7829 52.9687 81.8282 53.0805 81.9203C53.1923 82.0125 53.2642 82.1442 53.2811 82.2881C53.298 82.432 53.2587 82.5768 53.1713 82.6924C53.0839 82.8079 52.9552 82.8852 52.8121 82.908V82.9109ZM60.2226 81.8889C60.0791 81.9027 59.9357 81.8607 59.8223 81.7717C59.7088 81.6827 59.634 81.5535 59.6132 81.4108C59.5925 81.2681 59.6275 81.1228 59.7109 81.0052C59.7944 80.8876 59.9199 80.8066 60.0614 80.779C60.546 80.6994 61.0369 80.6173 61.534 80.5329C61.6081 80.5168 61.6846 80.5159 61.759 80.5302C61.8334 80.5445 61.9042 80.5737 61.967 80.6161C62.0298 80.6585 62.0834 80.7131 62.1246 80.7768C62.1657 80.8404 62.1935 80.9117 62.2064 80.9864C62.2192 81.0611 62.2168 81.1376 62.1993 81.2113C62.1817 81.2851 62.1495 81.3545 62.1044 81.4154C62.0593 81.4763 62.0024 81.5275 61.937 81.5658C61.8716 81.6041 61.7992 81.6288 61.724 81.6384C61.2245 81.7233 60.7308 81.8068 60.2428 81.886L60.2226 81.8889ZM49.8324 83.1844H49.7993C49.284 83.2204 48.7758 83.2506 48.2936 83.2722C48.2201 83.2756 48.1466 83.2645 48.0773 83.2395C48.0081 83.2145 47.9445 83.1761 47.89 83.1265C47.8356 83.0769 47.7915 83.0171 47.7603 82.9505C47.729 82.8838 47.7111 82.8117 47.7077 82.7382C47.7043 82.6646 47.7154 82.5911 47.7404 82.5219C47.7654 82.4527 47.8038 82.389 47.8534 82.3346C47.903 82.2802 47.9628 82.2361 48.0295 82.2048C48.0961 82.1736 48.1682 82.1557 48.2418 82.1523C48.7154 82.1307 49.2134 82.1005 49.7216 82.0659C49.865 82.0596 50.0053 82.1085 50.1138 82.2025C50.2223 82.2965 50.2907 82.4284 50.3049 82.5713C50.319 82.7141 50.278 82.857 50.1901 82.9705C50.1022 83.084 49.9742 83.1595 49.8324 83.1815V83.1844ZM63.1764 81.3836C63.0335 81.3974 62.8907 81.3559 62.7775 81.2677C62.6642 81.1794 62.5891 81.0511 62.5675 80.9091C62.5459 80.7672 62.5796 80.6223 62.6615 80.5044C62.7434 80.3865 62.8675 80.3045 63.008 80.2752C63.4936 80.1888 63.983 80.0996 64.4763 80.0075C64.6191 79.9882 64.7638 80.0246 64.8806 80.1091C64.9973 80.1937 65.077 80.3198 65.1033 80.4615C65.1295 80.6032 65.1003 80.7495 65.0217 80.8703C64.943 80.991 64.8209 81.0769 64.6807 81.1101C64.1846 81.2061 63.6927 81.2958 63.2052 81.3793L63.1764 81.3836ZM46.8426 83.3111H46.7807C46.2553 83.3197 45.7443 83.3111 45.2635 83.3111C45.1876 83.3129 45.1122 83.2993 45.0417 83.2711C44.9712 83.243 44.9072 83.2008 44.8535 83.1472C44.7998 83.0936 44.7575 83.0297 44.7292 82.9593C44.7009 82.8889 44.6871 82.8135 44.6888 82.7376C44.6905 82.6617 44.7075 82.587 44.7388 82.5179C44.7702 82.4488 44.8152 82.3868 44.8712 82.3355C44.9272 82.2843 44.993 82.245 45.0646 82.2199C45.1363 82.1949 45.2122 82.1846 45.2879 82.1897C45.7543 82.1998 46.251 82.1998 46.762 82.1897C46.9039 82.1896 47.0407 82.2433 47.1446 82.34C47.2486 82.4366 47.3121 82.5691 47.3223 82.7107C47.3325 82.8523 47.2887 82.9925 47.1997 83.1031C47.1107 83.2137 46.9831 83.2865 46.8426 83.3068V83.3111ZM66.1159 80.838C65.9735 80.852 65.8311 80.8111 65.7178 80.7236C65.6046 80.6361 65.529 80.5086 65.5066 80.3673C65.4842 80.226 65.5166 80.0814 65.5972 79.9631C65.6778 79.8449 65.8005 79.7619 65.9403 79.7311C66.4258 79.6351 66.9143 79.5391 67.4057 79.4432C67.55 79.4184 67.6984 79.451 67.819 79.5341C67.9397 79.6171 68.0231 79.7441 68.0515 79.8878C68.0798 80.0315 68.0509 80.1806 67.9709 80.3033C67.8908 80.4259 67.766 80.5125 67.623 80.5444C67.1298 80.6404 66.6394 80.7363 66.1519 80.8323L66.1159 80.838ZM69.0539 80.2623C68.9813 80.2743 68.907 80.2718 68.8354 80.2552C68.7637 80.2385 68.6961 80.2078 68.6362 80.165C68.5764 80.1221 68.5256 80.0679 68.4868 80.0055C68.4479 79.943 68.4217 79.8735 68.4097 79.8009C68.3977 79.7283 68.4001 79.6541 68.4168 79.5824C68.4335 79.5107 68.4641 79.4431 68.507 79.3833C68.5498 79.3234 68.604 79.2726 68.6665 79.2338C68.729 79.1949 68.7985 79.1687 68.8711 79.1567L70.335 78.8559C70.4085 78.8371 70.4851 78.8334 70.5601 78.8451C70.6351 78.8568 70.7069 78.8835 70.7713 78.9237C70.8356 78.9639 70.8912 79.0167 70.9345 79.079C70.9779 79.1413 71.0082 79.2117 71.0236 79.286C71.0389 79.3603 71.0391 79.437 71.024 79.5113C71.009 79.5857 70.979 79.6562 70.9359 79.7187C70.8928 79.7812 70.8375 79.8342 70.7733 79.8747C70.7091 79.9152 70.6374 79.9422 70.5625 79.9542L69.0942 80.2565L69.0539 80.2623ZM71.9847 79.6534C71.8391 79.6761 71.6905 79.6407 71.5709 79.5546C71.4514 79.4686 71.3705 79.3389 71.3459 79.1937C71.3213 79.0485 71.3549 78.8994 71.4394 78.7788C71.524 78.6582 71.6526 78.5757 71.7975 78.5493L73.2529 78.2283C73.3964 78.2016 73.5447 78.2319 73.6663 78.3128C73.7879 78.3936 73.8732 78.5187 73.9041 78.6614C73.935 78.8041 73.9091 78.9532 73.8318 79.0772C73.7546 79.2011 73.6321 79.29 73.4904 79.3251L72.025 79.639L71.9847 79.6534ZM43.8542 83.2391C43.8164 83.2427 43.7783 83.2427 43.7405 83.2391C43.1978 83.2002 42.6839 83.1427 42.2118 83.0721C42.0648 83.05 41.9326 82.9704 41.8443 82.8508C41.756 82.7312 41.7189 82.5814 41.741 82.4344C41.7632 82.2874 41.8428 82.1553 41.9624 82.067C42.082 81.9787 42.2318 81.9416 42.3787 81.9637C42.8221 82.0299 43.3086 82.0832 43.8182 82.1206C43.956 82.1319 44.0848 82.1935 44.18 82.2938C44.2751 82.3942 44.3299 82.5261 44.3338 82.6642C44.3377 82.8024 44.2905 82.9372 44.2012 83.0428C44.1119 83.1483 43.9868 83.2172 43.8499 83.2362L43.8542 83.2391ZM74.9097 79.0156C74.7678 79.0311 74.6253 78.9919 74.5112 78.9061C74.3972 78.8202 74.3201 78.6941 74.2957 78.5535C74.2713 78.4128 74.3015 78.2681 74.38 78.1489C74.4584 78.0297 74.5794 77.9448 74.7183 77.9116C75.1981 77.805 75.6846 77.6966 76.1779 77.5862C76.3227 77.5549 76.474 77.5821 76.5988 77.6618C76.7236 77.7415 76.8119 77.8673 76.8444 78.0119C76.8769 78.1564 76.8509 78.3079 76.7722 78.4333C76.6934 78.5588 76.5683 78.6481 76.4241 78.6817L74.9601 79.007C74.9443 79.0113 74.927 79.0128 74.9097 79.0156ZM77.8304 78.3592C77.6847 78.384 77.5351 78.3502 77.4142 78.2651C77.2934 78.18 77.2111 78.0506 77.1852 77.9051C77.1594 77.7596 77.1921 77.6097 77.2763 77.4882C77.3605 77.3668 77.4893 77.2835 77.6347 77.2566C78.1145 77.1462 78.6001 77.0344 79.0914 76.9212C79.1645 76.9006 79.241 76.895 79.3163 76.9048C79.3916 76.9147 79.4642 76.9396 79.5295 76.9783C79.5949 77.017 79.6518 77.0685 79.6967 77.1297C79.7415 77.191 79.7735 77.2607 79.7907 77.3347C79.8078 77.4087 79.8098 77.4854 79.7965 77.5602C79.7831 77.6349 79.7547 77.7062 79.7131 77.7697C79.6714 77.8332 79.6172 77.8875 79.5539 77.9295C79.4906 77.9714 79.4195 78.0001 79.3448 78.0138L77.8851 78.3506C77.8671 78.3549 77.8489 78.3578 77.8304 78.3592ZM80.7468 77.6841C80.6052 77.7002 80.4628 77.6617 80.3484 77.5766C80.2341 77.4915 80.1564 77.3661 80.1311 77.2258C80.1058 77.0856 80.1349 76.9409 80.2123 76.8212C80.2898 76.7016 80.4099 76.6159 80.5482 76.5815L82.0021 76.2374C82.0749 76.2168 82.1512 76.2111 82.2263 76.2206C82.3014 76.2302 82.3738 76.2549 82.4391 76.2931C82.5044 76.3314 82.5613 76.3825 82.6064 76.4433C82.6515 76.5042 82.6838 76.5735 82.7013 76.6471C82.7189 76.7208 82.7214 76.7972 82.7087 76.8718C82.696 76.9465 82.6683 77.0178 82.6273 77.0814C82.5863 77.1451 82.5329 77.1998 82.4702 77.2423C82.4075 77.2847 82.3369 77.3141 82.2626 77.3286L80.8044 77.6741L80.7468 77.6841ZM40.9033 82.7756C40.8296 82.785 40.7548 82.7802 40.683 82.7612C40.1613 82.6242 39.656 82.4312 39.1759 82.1854C39.0486 82.1134 38.9544 81.9946 38.9133 81.8543C38.8723 81.7139 38.8876 81.5631 38.956 81.4339C39.0245 81.3046 39.1407 81.2072 39.2799 81.1624C39.419 81.1175 39.5702 81.1287 39.7013 81.1936C40.1081 81.4032 40.5368 81.5673 40.9796 81.683C41.1052 81.7165 41.2153 81.7927 41.2909 81.8985C41.3665 82.0044 41.403 82.1332 41.3939 82.2629C41.3849 82.3927 41.331 82.5152 41.2415 82.6096C41.1519 82.7039 41.0324 82.7641 40.9033 82.7799V82.7756ZM83.656 76.9903C83.5151 77.0057 83.3736 76.9672 83.2599 76.8825C83.1462 76.7979 83.0688 76.6734 83.0431 76.534C83.0174 76.3946 83.0454 76.2506 83.1214 76.131C83.1975 76.0114 83.3159 75.925 83.4531 75.8891L84.9127 75.5364C84.9856 75.5148 85.0622 75.5082 85.1377 75.5171C85.2133 75.526 85.2862 75.5502 85.3522 75.5881C85.4181 75.626 85.4756 75.677 85.5213 75.7378C85.5669 75.7987 85.5997 75.8682 85.6177 75.9421C85.6357 76.016 85.6384 76.0928 85.6258 76.1678C85.6132 76.2428 85.5855 76.3145 85.5443 76.3785C85.5031 76.4424 85.4494 76.4974 85.3864 76.5399C85.3233 76.5825 85.2523 76.6118 85.1776 76.6261L83.7222 76.9788C83.7014 76.9841 83.6803 76.988 83.6589 76.9903H83.656ZM86.5638 76.2806C86.4224 76.2974 86.2799 76.2597 86.1652 76.1754C86.0505 76.091 85.9721 75.9662 85.946 75.8263C85.9198 75.6863 85.9478 75.5416 86.0243 75.4215C86.1008 75.3014 86.2201 75.2149 86.3579 75.1794L87.8104 74.8195C87.8832 74.7975 87.9598 74.7905 88.0354 74.799C88.111 74.8075 88.1841 74.8312 88.2503 74.8688C88.3164 74.9064 88.3742 74.957 88.4202 75.0176C88.4662 75.0782 88.4994 75.1476 88.5177 75.2214C88.5361 75.2953 88.5393 75.3721 88.527 75.4472C88.5148 75.5223 88.4874 75.5941 88.4466 75.6583C88.4057 75.7225 88.3523 75.7777 88.2894 75.8206C88.2266 75.8635 88.1557 75.8932 88.081 75.9078L86.6271 76.2691L86.5638 76.2806ZM89.4672 75.5609C89.3256 75.5784 89.1826 75.5412 89.0673 75.457C88.9521 75.3728 88.8732 75.2478 88.8468 75.1076C88.8204 74.9673 88.8484 74.8222 88.9252 74.7019C89.0019 74.5815 89.1216 74.4949 89.26 74.4597L90.7095 74.0941C90.7822 74.0716 90.8587 74.0643 90.9344 74.0723C91.01 74.0804 91.0832 74.1038 91.1496 74.141C91.2159 74.1782 91.274 74.2286 91.3203 74.2889C91.3666 74.3493 91.4002 74.4185 91.4189 74.4922C91.4377 74.5659 91.4412 74.6427 91.4294 74.7179C91.4176 74.793 91.3906 74.865 91.3501 74.9294C91.3096 74.9938 91.2564 75.0493 91.1938 75.0925C91.1312 75.1357 91.0605 75.1658 90.9859 75.1809L89.5335 75.5479C89.5126 75.5522 89.4914 75.5551 89.4701 75.5566L89.4672 75.5609ZM92.3692 74.8224C92.2285 74.8386 92.0869 74.8009 91.9728 74.717C91.8587 74.6331 91.7805 74.5092 91.7539 74.3701C91.7273 74.2309 91.7543 74.0869 91.8294 73.9668C91.9046 73.8468 92.0223 73.7596 92.1591 73.7227L93.6072 73.3498C93.7513 73.3117 93.9047 73.3323 94.0336 73.4072C94.1625 73.4821 94.2564 73.6052 94.2946 73.7493C94.3327 73.8934 94.3121 74.0468 94.2372 74.1757C94.1623 74.3046 94.0392 74.3985 93.8951 74.4366L92.4441 74.8095L92.3692 74.8224ZM95.2612 74.0739C95.1189 74.094 94.9744 74.0587 94.8574 73.9752C94.7405 73.8917 94.6601 73.7665 94.633 73.6254C94.6058 73.4843 94.6339 73.3382 94.7114 73.2172C94.789 73.0963 94.91 73.0098 95.0496 72.9756L96.4891 72.597C96.5602 72.5781 96.6344 72.5734 96.7074 72.5832C96.7804 72.5929 96.8508 72.617 96.9144 72.6539C96.9781 72.6909 97.0339 72.74 97.0786 72.7986C97.1233 72.8571 97.1561 72.9238 97.175 72.995C97.1939 73.0662 97.1986 73.1404 97.1888 73.2134C97.179 73.2863 97.155 73.3567 97.118 73.4204C97.0811 73.4841 97.0319 73.5399 96.9734 73.5846C96.9149 73.6293 96.8481 73.662 96.777 73.6809L95.336 74.0537C95.3125 74.0611 95.2885 74.0664 95.2641 74.0696L95.2612 74.0739ZM38.3683 81.303C38.2684 81.3154 38.167 81.3009 38.0746 81.2609C37.9822 81.2209 37.9022 81.1569 37.8429 81.0756C37.8098 81.0295 37.7781 80.9834 37.7493 80.9316C37.4836 80.5225 37.258 80.0886 37.0757 79.6361C37.0451 79.5669 37.0289 79.4923 37.0279 79.4166C37.0269 79.341 37.0412 79.266 37.0699 79.1961C37.0986 79.1261 37.1412 79.0627 37.195 79.0096C37.2488 78.9565 37.3129 78.9148 37.3832 78.887C37.4535 78.8593 37.5288 78.846 37.6044 78.8481C37.68 78.8501 37.7544 78.8674 37.8231 78.8989C37.8918 78.9304 37.9535 78.9755 38.0044 79.0314C38.0553 79.0873 38.0944 79.153 38.1193 79.2244C38.2756 79.6117 38.4684 79.9834 38.6951 80.3342C38.7138 80.363 38.7325 80.3904 38.7527 80.4177C38.796 80.4773 38.8271 80.5449 38.8442 80.6165C38.8614 80.6882 38.8642 80.7625 38.8526 80.8352C38.8409 80.908 38.815 80.9777 38.7764 81.0405C38.7378 81.1032 38.6872 81.1577 38.6274 81.2008C38.5513 81.2565 38.462 81.2917 38.3683 81.303ZM98.156 73.3095C98.0145 73.3278 97.8714 73.2915 97.7557 73.2081C97.64 73.1246 97.5604 73.0002 97.5331 72.8602C97.5058 72.7202 97.5328 72.575 97.6087 72.4542C97.6845 72.3334 97.8035 72.246 97.9415 72.2098L99.381 71.8254C99.522 71.7951 99.6693 71.8202 99.7923 71.8956C99.9153 71.9709 100.005 72.0907 100.042 72.2302C100.079 72.3696 100.061 72.5179 99.9912 72.6443C99.9218 72.7708 99.8064 72.8657 99.6689 72.9093L98.2208 73.2951L98.156 73.3095ZM101.052 72.5351C100.912 72.5514 100.771 72.5142 100.656 72.4309C100.542 72.3476 100.464 72.2244 100.437 72.0857C100.409 71.9471 100.435 71.8033 100.509 71.683C100.584 71.5627 100.7 71.4748 100.836 71.4368L102.284 71.0466C102.424 71.0197 102.569 71.0467 102.689 71.1222C102.81 71.1977 102.897 71.3162 102.933 71.4536C102.97 71.591 102.953 71.7371 102.886 71.8625C102.819 71.9879 102.707 72.0832 102.572 72.1291L101.121 72.5207C101.099 72.5273 101.076 72.5321 101.052 72.5351ZM103.946 71.752C103.805 71.769 103.663 71.7322 103.549 71.6491C103.434 71.5659 103.355 71.4425 103.328 71.3036C103.3 71.1647 103.326 71.0206 103.4 70.9C103.475 70.7795 103.592 70.6915 103.728 70.6537L105.168 70.2593C105.24 70.2375 105.315 70.2303 105.39 70.2381C105.464 70.2459 105.536 70.2686 105.602 70.3049C105.668 70.3411 105.726 70.3902 105.772 70.4491C105.818 70.5081 105.853 70.5757 105.872 70.6481C105.892 70.7205 105.897 70.7961 105.887 70.8704C105.877 70.9448 105.853 71.0164 105.815 71.0811C105.777 71.1457 105.726 71.2021 105.666 71.2469C105.606 71.2917 105.537 71.3239 105.464 71.3417L104.025 71.7362C103.999 71.7431 103.972 71.7479 103.946 71.7506V71.752ZM106.833 70.9603C106.693 70.9762 106.553 70.9391 106.439 70.8563C106.325 70.7734 106.247 70.6509 106.219 70.513C106.192 70.3751 106.217 70.2318 106.29 70.1115C106.362 69.9912 106.478 69.9026 106.613 69.8634L108.052 69.4647C108.123 69.4449 108.197 69.4393 108.27 69.4482C108.344 69.4571 108.414 69.4802 108.478 69.5164C108.542 69.5526 108.599 69.601 108.644 69.6589C108.689 69.7168 108.723 69.7831 108.743 69.854C108.762 69.9249 108.768 69.999 108.759 70.0721C108.75 70.1451 108.727 70.2157 108.691 70.2798C108.655 70.3439 108.606 70.4002 108.548 70.4456C108.491 70.491 108.424 70.5245 108.353 70.5443L106.914 70.9445C106.887 70.9512 106.86 70.9565 106.833 70.9603ZM109.712 70.1599C109.572 70.1765 109.431 70.1398 109.317 70.0571C109.203 69.9744 109.124 69.8518 109.096 69.7136C109.068 69.5755 109.093 69.4318 109.166 69.3113C109.239 69.1908 109.355 69.1021 109.491 69.063L110.93 68.66C111.001 68.6401 111.075 68.6344 111.148 68.6432C111.221 68.652 111.292 68.6751 111.356 68.7112C111.42 68.7473 111.477 68.7957 111.522 68.8536C111.567 68.9115 111.601 68.9778 111.621 69.0486C111.641 69.1195 111.646 69.1936 111.638 69.2667C111.629 69.3398 111.606 69.4105 111.57 69.4746C111.534 69.5388 111.485 69.5952 111.427 69.6407C111.369 69.6861 111.303 69.7198 111.232 69.7396L109.793 70.1427C109.768 70.1521 109.742 70.1602 109.717 70.1671L109.712 70.1599ZM112.591 69.3509C112.451 69.3682 112.309 69.3319 112.195 69.2494C112.08 69.1668 112.001 69.0441 111.973 68.9056C111.944 68.7672 111.969 68.6232 112.043 68.5024C112.116 68.3817 112.232 68.293 112.368 68.254L113.808 67.8467C113.949 67.8109 114.099 67.8318 114.226 67.9048C114.352 67.9778 114.445 68.0972 114.485 68.2376C114.525 68.3781 114.508 68.5286 114.439 68.6572C114.37 68.7857 114.253 68.8823 114.114 68.9263L112.675 69.3337L112.591 69.3509ZM115.47 68.5333C115.331 68.549 115.191 68.512 115.077 68.4296C114.964 68.3472 114.886 68.2254 114.857 68.0882C114.829 67.9509 114.854 67.808 114.925 67.6877C114.997 67.5674 115.111 67.4783 115.246 67.4379L116.685 67.0262C116.828 66.9853 116.981 67.0029 117.111 67.0751C117.241 67.1474 117.337 67.2682 117.378 67.4112C117.419 67.5542 117.401 67.7076 117.329 67.8375C117.257 67.9675 117.136 68.0635 116.993 68.1043L115.554 68.516C115.529 68.5236 115.503 68.5294 115.477 68.5333H115.47ZM37.306 78.5363H37.2844C37.211 78.543 37.137 78.5352 37.0667 78.5133C36.9964 78.4914 36.931 78.4558 36.8745 78.4086C36.8179 78.3614 36.7712 78.3035 36.7371 78.2382C36.7029 78.1729 36.682 78.1015 36.6755 78.0282C36.625 77.4772 36.6629 76.9218 36.7878 76.3828C36.8212 76.2379 36.9108 76.1123 37.0368 76.0334C37.1629 75.9546 37.3151 75.9291 37.46 75.9625C37.6049 75.9959 37.7306 76.0855 37.8094 76.2116C37.8882 76.3376 37.9137 76.4899 37.8803 76.6347C37.7819 77.0591 37.7522 77.4965 37.7925 77.9303C37.8058 78.0731 37.7638 78.2156 37.6752 78.3283C37.5865 78.4411 37.458 78.5155 37.3161 78.5363H37.306ZM118.349 67.7085C118.21 67.7247 118.069 67.6882 117.955 67.6059C117.841 67.5237 117.763 67.4018 117.734 67.2643C117.706 67.1268 117.73 66.9836 117.802 66.8631C117.874 66.7425 117.989 66.6533 118.123 66.613L119.563 66.1985C119.705 66.1572 119.859 66.1744 119.989 66.2462C120.119 66.318 120.215 66.4386 120.256 66.5814C120.298 66.7241 120.28 66.8775 120.209 67.0076C120.137 67.1377 120.016 67.234 119.874 67.2752L118.434 67.6912C118.408 67.6988 118.382 67.7045 118.355 67.7085H118.349ZM121.228 66.8765C121.088 66.8934 120.947 66.8572 120.833 66.7751C120.719 66.693 120.64 66.571 120.611 66.4332C120.582 66.2955 120.607 66.152 120.679 66.0312C120.751 65.9104 120.866 65.8211 121.001 65.781L122.44 65.3636C122.58 65.3298 122.728 65.3514 122.853 65.4237C122.978 65.4961 123.07 65.6138 123.11 65.7523C123.151 65.8908 123.136 66.0396 123.07 66.1677C123.004 66.2958 122.89 66.3934 122.754 66.4403L121.314 66.8592C121.287 66.8671 121.259 66.8728 121.231 66.8765H121.228ZM124.107 66.0372C123.966 66.0576 123.823 66.0234 123.706 65.9418C123.589 65.8601 123.508 65.7371 123.479 65.5977C123.45 65.4583 123.475 65.313 123.549 65.1914C123.623 65.0699 123.741 64.9811 123.878 64.9432L125.318 64.5215C125.458 64.4876 125.605 64.5089 125.73 64.5808C125.855 64.6527 125.947 64.7698 125.988 64.9079C126.029 65.0459 126.015 65.1944 125.949 65.3226C125.884 65.4509 125.772 65.549 125.636 65.5968L124.196 66.02C124.166 66.0286 124.135 66.0344 124.104 66.0372H124.107ZM126.986 65.1923C126.847 65.2083 126.707 65.1719 126.594 65.0901C126.48 65.0083 126.401 64.8871 126.372 64.7502C126.343 64.6133 126.367 64.4706 126.438 64.35C126.509 64.2294 126.622 64.1396 126.756 64.0983L128.195 63.6664C128.267 63.6412 128.343 63.6308 128.419 63.6359C128.495 63.641 128.569 63.6615 128.637 63.6961C128.705 63.7308 128.765 63.7788 128.813 63.8374C128.862 63.8959 128.898 63.9638 128.92 64.0367C128.941 64.1097 128.948 64.1863 128.939 64.2619C128.93 64.3375 128.906 64.4105 128.868 64.4764C128.83 64.5424 128.779 64.5999 128.718 64.6455C128.657 64.6911 128.587 64.7238 128.513 64.7417C128.038 64.8847 127.558 65.0286 127.074 65.1735C127.042 65.1823 127.009 65.1886 126.976 65.1923H126.986ZM129.855 64.3401C129.716 64.3561 129.576 64.3197 129.462 64.2379C129.349 64.1562 129.27 64.0349 129.241 63.898C129.212 63.7611 129.236 63.6184 129.307 63.4978C129.378 63.3772 129.491 63.2874 129.625 63.2461L131.064 62.8142C131.135 62.7903 131.211 62.781 131.286 62.7869C131.361 62.7927 131.434 62.8136 131.501 62.8483C131.568 62.883 131.627 62.9308 131.675 62.9888C131.723 63.0468 131.759 63.1138 131.78 63.186C131.802 63.2581 131.809 63.3339 131.8 63.4087C131.792 63.4835 131.769 63.5559 131.732 63.6215C131.695 63.6872 131.645 63.7447 131.586 63.7907C131.526 63.8368 131.458 63.8704 131.385 63.8895L129.946 64.3214C129.913 64.3301 129.879 64.3364 129.845 64.3401H129.855ZM37.9581 75.6904C37.8557 75.7032 37.7517 75.6875 37.6577 75.645C37.5636 75.6026 37.4831 75.535 37.425 75.4498C37.3668 75.3645 37.3332 75.2649 37.328 75.1619C37.3228 75.0588 37.346 74.9563 37.3952 74.8656C37.6541 74.3988 37.9584 73.9586 38.3035 73.5514C38.399 73.4368 38.536 73.3649 38.6845 73.3514C38.833 73.3379 38.9807 73.3839 39.0953 73.4794C39.2098 73.5748 39.2817 73.7119 39.2952 73.8603C39.3087 74.0088 39.2627 74.1566 39.1672 74.2711C38.87 74.6213 38.6077 74.9998 38.3842 75.4011C38.3406 75.4813 38.2781 75.5496 38.2021 75.6C38.126 75.6505 38.0388 75.6815 37.948 75.6904H37.9581ZM132.724 63.4821C132.584 63.4994 132.444 63.4638 132.329 63.3823C132.215 63.3009 132.135 63.1794 132.106 63.042C132.076 62.9047 132.1 62.7613 132.171 62.6402C132.242 62.5191 132.356 62.4292 132.491 62.3881L133.93 61.9563C134.07 61.9209 134.219 61.9409 134.344 62.0121C134.47 62.0833 134.563 62.2002 134.605 62.3385C134.647 62.4768 134.634 62.6259 134.568 62.7547C134.503 62.8835 134.39 62.9822 134.254 63.0301L132.815 63.462C132.781 63.4712 132.748 63.478 132.714 63.4821H132.724ZM135.59 62.6185C135.45 62.6357 135.31 62.6001 135.195 62.5187C135.081 62.4372 135.001 62.3158 134.972 62.1784C134.942 62.041 134.966 61.8976 135.037 61.7765C135.108 61.6555 135.222 61.5655 135.357 61.5244L136.796 61.0926C136.867 61.0712 136.941 61.064 137.014 61.0712C137.087 61.0784 137.158 61.0999 137.223 61.1346C137.288 61.1693 137.345 61.2164 137.392 61.2733C137.439 61.3302 137.474 61.3957 137.495 61.4661C137.516 61.5366 137.524 61.6105 137.516 61.6837C137.509 61.757 137.488 61.828 137.453 61.8929C137.418 61.9578 137.371 62.0153 137.314 62.062C137.257 62.1086 137.192 62.1437 137.121 62.165L135.682 62.5969C135.65 62.6066 135.616 62.6133 135.583 62.617L135.59 62.6185ZM138.454 61.7548C138.316 61.7706 138.176 61.7344 138.063 61.6531C137.95 61.5718 137.871 61.4512 137.842 61.3149C137.812 61.1786 137.835 61.0362 137.905 60.9156C137.975 60.7949 138.087 60.7046 138.22 60.6622L139.651 60.2303C139.722 60.2047 139.798 60.1938 139.874 60.1983C139.95 60.2028 140.024 60.2227 140.092 60.2568C140.16 60.2908 140.22 60.3383 140.269 60.3963C140.318 60.4544 140.355 60.5218 140.377 60.5944C140.399 60.6671 140.407 60.7435 140.399 60.819C140.39 60.8946 140.367 60.9677 140.33 61.0339C140.292 61.1001 140.242 61.1581 140.182 61.2043C140.122 61.2505 140.053 61.284 139.979 61.3028L138.539 61.7346C138.508 61.7413 138.476 61.7452 138.444 61.7461L138.454 61.7548ZM141.318 60.8781C141.179 60.8946 141.039 60.8588 140.925 60.7776C140.811 60.6964 140.732 60.5758 140.703 60.4392C140.673 60.3026 140.696 60.16 140.766 60.0391C140.836 59.9182 140.948 59.8278 141.081 59.7855L142.512 59.3451C142.584 59.32 142.659 59.3097 142.735 59.3146C142.81 59.3195 142.884 59.3396 142.951 59.3737C143.019 59.4077 143.079 59.4551 143.127 59.5128C143.176 59.5706 143.213 59.6376 143.235 59.7099C143.257 59.7821 143.264 59.8581 143.257 59.9332C143.249 60.0084 143.226 60.0812 143.189 60.1473C143.152 60.2134 143.103 60.2714 143.043 60.3178C142.983 60.3642 142.915 60.3981 142.842 60.4175L141.411 60.858C141.377 60.8649 141.342 60.8688 141.308 60.8695L141.318 60.8781ZM39.8467 73.4016C39.7278 73.4178 39.6069 73.3953 39.5017 73.3376C39.3966 73.2798 39.3128 73.1898 39.2626 73.0808C39.2125 72.9718 39.1987 72.8496 39.2232 72.7322C39.2478 72.6148 39.3094 72.5083 39.399 72.4286C39.7617 72.1018 40.1677 71.7736 40.6038 71.4511C40.724 71.3683 40.8716 71.3355 41.0155 71.3597C41.1594 71.3839 41.2883 71.4631 41.3747 71.5807C41.4612 71.6982 41.4985 71.8448 41.4787 71.9894C41.459 72.1339 41.3837 72.2651 41.2689 72.3551C40.8615 72.6546 40.4858 72.9597 40.1504 73.262C40.0626 73.3392 39.9529 73.387 39.8366 73.3988L39.8467 73.4016ZM144.178 59.9899C144.039 60.0064 143.899 59.9706 143.785 59.8894C143.672 59.8083 143.592 59.6876 143.563 59.551C143.533 59.4145 143.556 59.2718 143.626 59.1509C143.696 59.0301 143.809 58.9397 143.942 58.8974L145.371 58.454C145.511 58.4166 145.66 58.4348 145.787 58.5048C145.914 58.5747 146.009 58.691 146.052 58.8293C146.095 58.9676 146.083 59.1172 146.018 59.2469C145.954 59.3765 145.842 59.4762 145.705 59.525L144.274 59.9698C144.239 59.9782 144.204 59.984 144.168 59.9871L144.178 59.9899ZM147.038 59.1018C146.899 59.1189 146.759 59.0834 146.645 59.0024C146.53 58.9214 146.451 58.8006 146.421 58.6638C146.391 58.527 146.414 58.3841 146.484 58.2629C146.554 58.1418 146.667 58.0513 146.801 58.0092L148.23 57.563C148.371 57.5237 148.521 57.5406 148.649 57.6102C148.777 57.6798 148.873 57.7966 148.917 57.9358C148.961 58.0751 148.948 58.2258 148.883 58.3561C148.817 58.4864 148.703 58.5861 148.565 58.634L147.135 59.0802C147.1 59.0899 147.064 59.0962 147.028 59.0989L147.038 59.1018ZM149.897 58.2079C149.758 58.2256 149.617 58.1906 149.502 58.1097C149.388 58.0288 149.308 57.908 149.278 57.7709C149.248 57.6339 149.27 57.4906 149.34 57.3692C149.411 57.2479 149.524 57.1573 149.658 57.1153L151.087 56.6662C151.229 56.6215 151.383 56.635 151.515 56.7037C151.647 56.7724 151.746 56.8907 151.791 57.0325C151.835 57.1744 151.822 57.3281 151.753 57.46C151.684 57.5919 151.566 57.691 151.424 57.7357L149.995 58.1863C149.959 58.1958 149.923 58.2021 149.887 58.205L149.897 58.2079ZM42.2362 71.6167C42.1099 71.6312 41.9825 71.6024 41.8747 71.535C41.7669 71.4676 41.6852 71.3656 41.6429 71.2457C41.6006 71.1259 41.6002 70.9952 41.6418 70.8751C41.6835 70.755 41.7646 70.6526 41.872 70.5846C42.2852 70.3255 42.7285 70.0649 43.1906 69.8087C43.3201 69.7443 43.4695 69.7323 43.6077 69.7754C43.7458 69.8184 43.8619 69.9131 43.9319 70.0398C44.0019 70.1664 44.0203 70.3151 43.9833 70.455C43.9463 70.5948 43.8567 70.715 43.7333 70.7904C43.2885 71.0351 42.8696 71.2856 42.4694 71.5346C42.3986 71.5785 42.319 71.6065 42.2362 71.6167ZM152.744 57.3039C152.606 57.3197 152.467 57.2836 152.354 57.2028C152.241 57.1219 152.162 57.002 152.132 56.8662C152.102 56.7304 152.124 56.5884 152.193 56.4677C152.262 56.347 152.373 56.2561 152.505 56.2127L153.933 55.7607C154.003 55.7384 154.077 55.7302 154.151 55.7364C154.224 55.7426 154.295 55.7632 154.361 55.797C154.426 55.8309 154.484 55.8772 154.531 55.9335C154.579 55.9897 154.615 56.0548 154.637 56.1249C154.659 56.1951 154.668 56.2689 154.662 56.3422C154.655 56.4156 154.635 56.4869 154.601 56.5523C154.567 56.6177 154.521 56.6757 154.464 56.7232C154.408 56.7706 154.343 56.8065 154.273 56.8288L152.844 57.2823C152.811 57.2922 152.778 57.2994 152.744 57.3039ZM155.602 56.397C155.463 56.4134 155.324 56.3777 155.21 56.297C155.097 56.2163 155.017 56.0963 154.987 55.9603C154.957 55.8242 154.979 55.6819 155.048 55.561C155.117 55.4401 155.229 55.3491 155.361 55.3059L156.788 54.8495C156.927 54.8115 157.076 54.8288 157.203 54.8977C157.33 54.9667 157.426 55.082 157.47 55.2197C157.514 55.3574 157.503 55.5068 157.44 55.6368C157.377 55.7668 157.266 55.8674 157.13 55.9176C156.678 56.0625 156.202 56.2147 155.701 56.374C155.669 56.385 155.635 56.3928 155.602 56.397ZM44.8546 70.1671C44.7232 70.1834 44.5903 70.1526 44.4793 70.0803C44.3684 70.008 44.2866 69.8989 44.2483 69.7721C44.2101 69.6453 44.2179 69.5091 44.2704 69.3875C44.3228 69.2659 44.4166 69.1668 44.5351 69.1077C44.9669 68.8917 45.4348 68.6758 45.9084 68.4599C45.9759 68.4272 46.0493 68.4083 46.1243 68.4045C46.1992 68.4007 46.2742 68.4119 46.3447 68.4375C46.4153 68.4631 46.48 68.5026 46.535 68.5537C46.59 68.6047 46.6342 68.6663 46.665 68.7348C46.6958 68.8032 46.7125 68.8771 46.7143 68.9521C46.716 69.0272 46.7027 69.1018 46.6751 69.1716C46.6475 69.2414 46.6062 69.3049 46.5536 69.3585C46.501 69.412 46.4383 69.4545 46.369 69.4834C45.9069 69.6907 45.4578 69.9023 45.0332 70.1139C44.9769 70.1412 44.9166 70.1592 44.8546 70.1671ZM158.459 55.4844C158.319 55.5043 158.178 55.4708 158.062 55.3907C157.946 55.3105 157.864 55.1896 157.833 55.052C157.803 54.9144 157.825 54.7703 157.896 54.6485C157.967 54.5266 158.081 54.436 158.216 54.3947L159.645 53.934C159.785 53.8942 159.935 53.9103 160.064 53.9789C160.192 54.0475 160.289 54.1633 160.333 54.3019C160.378 54.4404 160.367 54.5909 160.303 54.7215C160.239 54.8522 160.126 54.9528 159.989 55.0021L158.56 55.4628C158.527 55.4727 158.493 55.4799 158.459 55.4844ZM161.319 54.5602C161.181 54.5765 161.042 54.5411 160.929 54.4609C160.816 54.3806 160.736 54.2612 160.706 54.1257C160.675 53.9902 160.696 53.8482 160.764 53.7272C160.832 53.6062 160.943 53.5147 161.075 53.4705C161.957 53.1826 162.428 53.0286 162.428 53.0286C162.567 52.9897 162.716 53.0058 162.843 53.0738C162.971 53.1417 163.067 53.2562 163.112 53.3934C163.157 53.5306 163.148 53.68 163.086 53.8104C163.024 53.9409 162.914 54.0424 162.779 54.0938L161.421 54.5372C161.388 54.5474 161.354 54.5542 161.319 54.5573V54.5602ZM47.5868 68.9306C47.4518 68.9483 47.3149 68.9164 47.2017 68.8407C47.0885 68.765 47.0066 68.6507 46.9714 68.5192C46.9362 68.3876 46.95 68.2478 47.0103 68.1256C47.0705 68.0035 47.1731 67.9074 47.2989 67.8553C47.7509 67.6696 48.2245 67.481 48.7053 67.2968C48.7748 67.2667 48.8497 67.2511 48.9255 67.2507C49.0013 67.2504 49.0763 67.2654 49.1461 67.2948C49.2159 67.3243 49.2791 67.3675 49.3317 67.422C49.3844 67.4765 49.4254 67.5411 49.4525 67.6119C49.4795 67.6826 49.4919 67.7581 49.489 67.8338C49.486 67.9096 49.4678 67.9839 49.4354 68.0524C49.403 68.1208 49.357 68.182 49.3003 68.2323C49.2436 68.2825 49.1773 68.3208 49.1055 68.3447C48.6347 68.5247 48.1698 68.7089 47.7264 68.8932C47.6817 68.9116 47.6348 68.9242 47.5868 68.9306ZM50.3852 67.8639C50.2481 67.8809 50.1096 67.8468 49.9961 67.768C49.8826 67.6893 49.8022 67.5715 49.7701 67.4372C49.738 67.3028 49.7566 67.1614 49.8223 67.0399C49.888 66.9184 49.9961 66.8253 50.1261 66.7786C50.5896 66.6145 51.0689 66.4489 51.554 66.2863C51.693 66.2468 51.8418 66.2624 51.9696 66.3298C52.0973 66.3972 52.1941 66.5113 52.2399 66.6483C52.2857 66.7853 52.2769 66.9347 52.2154 67.0654C52.1539 67.1961 52.0443 67.298 51.9096 67.35C51.4317 67.5098 50.9581 67.6725 50.5032 67.8352C50.465 67.8488 50.4254 67.8585 50.3852 67.8639ZM53.2296 66.9139C53.0915 66.9297 52.9524 66.8937 52.8393 66.8128C52.7262 66.732 52.6472 66.612 52.6174 66.4762C52.5877 66.3404 52.6094 66.1984 52.6783 66.0777C52.7473 65.957 52.8586 65.8661 52.9906 65.8228C53.4599 65.6788 53.945 65.5349 54.4301 65.3823C54.5724 65.3417 54.725 65.3589 54.8546 65.4303C54.9843 65.5016 55.0805 65.6212 55.1225 65.7631C55.1644 65.905 55.1486 66.0577 55.0785 66.188C55.0084 66.3183 54.8897 66.4157 54.7483 66.459C54.266 66.603 53.7867 66.7469 53.3232 66.8909C53.2925 66.8992 53.2612 66.905 53.2296 66.9081V66.9139ZM56.1086 66.0631C55.9686 66.0797 55.8275 66.043 55.7133 65.9603C55.5991 65.8776 55.5202 65.755 55.4923 65.6168C55.4644 65.4787 55.4895 65.335 55.5626 65.2145C55.6357 65.094 55.7514 65.0054 55.8869 64.9663C56.3662 64.8324 56.8557 64.7 57.3422 64.5718C57.4859 64.5337 57.639 64.5541 57.7676 64.6288C57.8962 64.7034 57.9899 64.8261 58.0281 64.9699C58.0663 65.1136 58.0458 65.2666 57.9712 65.3952C57.8965 65.5239 57.7738 65.6176 57.6301 65.6558C57.1479 65.7824 56.6642 65.9149 56.1906 66.0473C56.1621 66.0528 56.1332 66.0562 56.1042 66.0574L56.1086 66.0631ZM59.0019 65.2901C58.8587 65.3116 58.7126 65.2767 58.5946 65.1928C58.4765 65.1089 58.3955 64.9824 58.3687 64.8401C58.3418 64.6977 58.3712 64.5505 58.4507 64.4293C58.5301 64.3082 58.6534 64.2225 58.7946 64.1904C59.2754 64.0695 59.7692 63.95 60.2586 63.8334C60.3316 63.8122 60.4082 63.8062 60.4836 63.8155C60.5591 63.8248 60.6318 63.8494 60.6975 63.8877C60.7632 63.926 60.8204 63.9772 60.8657 64.0383C60.9109 64.0993 60.9433 64.169 60.9609 64.2429C60.9785 64.3169 60.9808 64.3937 60.9678 64.4686C60.9548 64.5435 60.9268 64.615 60.8853 64.6787C60.8439 64.7424 60.7899 64.7971 60.7268 64.8393C60.6636 64.8816 60.5924 64.9106 60.5177 64.9245C60.0326 65.0397 59.5446 65.1591 59.0667 65.2786L59.0019 65.2901ZM61.9212 64.5977C61.7772 64.6184 61.6307 64.5822 61.5129 64.4967C61.3951 64.4113 61.3152 64.2833 61.2901 64.1399C61.2651 63.9966 61.2968 63.8491 61.3786 63.7287C61.4604 63.6084 61.5858 63.5246 61.7283 63.4951C62.2206 63.3843 62.7158 63.2763 63.2038 63.1741C63.3473 63.1488 63.4951 63.1803 63.6158 63.262C63.7366 63.3437 63.8208 63.4691 63.8507 63.6118C63.8806 63.7544 63.8539 63.9031 63.7761 64.0264C63.6984 64.1497 63.5757 64.2379 63.4341 64.2724C62.9519 64.3732 62.461 64.4797 61.9745 64.5891C61.9579 64.5932 61.9411 64.5961 61.9241 64.5977H61.9212ZM64.8621 63.9788C64.7163 64.0005 64.5679 63.964 64.4489 63.877C64.3299 63.7901 64.25 63.6597 64.2265 63.5142C64.2031 63.3687 64.2379 63.2198 64.3234 63.0999C64.409 62.9799 64.5384 62.8984 64.6836 62.8732C65.6193 62.689 66.1591 62.5969 66.1821 62.5853C66.2563 62.569 66.3331 62.5678 66.4078 62.582C66.4824 62.5962 66.5534 62.6254 66.6165 62.6678C66.6796 62.7102 66.7333 62.765 66.7746 62.8289C66.8158 62.8927 66.8437 62.9642 66.8565 63.0392C66.8693 63.1141 66.8667 63.1908 66.8489 63.2647C66.8312 63.3386 66.7986 63.4081 66.7532 63.4691C66.7077 63.53 66.6504 63.5811 66.5847 63.6192C66.5189 63.6573 66.4461 63.6817 66.3707 63.6909C66.3707 63.6909 65.8208 63.7844 64.8995 63.9658L64.8621 63.9788Z" fill="#4B0082"/>
<path d="M169.207 62.102L188.751 47.4609L169.672 51.0582L171.57 54.1157L168.163 59.0229L169.207 62.102Z" fill="#493260"/>
<path d="M188.75 47.4609L167.185 54.3345L152.531 67.5648L188.75 47.4609Z" fill="#4B0082"/>
<path d="M169.672 51.0618L188.751 47.4645L167.887 44.1465L169.672 51.0618Z" fill="#4B0082"/>
<path d="M136.136 147.426H88.5275C87.3223 147.426 86.3453 148.403 86.3453 149.608V158.005C86.3453 159.21 87.3223 160.187 88.5275 160.187H136.136C137.341 160.187 138.318 159.21 138.318 158.005V149.608C138.318 148.403 137.341 147.426 136.136 147.426Z" fill="#A8D29F"/>
<path d="M95.4587 150.923C95.488 150.922 95.5171 150.928 95.5441 150.939C95.5711 150.951 95.5955 150.968 95.6156 150.989C95.637 151.009 95.6539 151.033 95.6653 151.06C95.6767 151.087 95.6823 151.115 95.6818 151.145V151.73C95.6823 151.76 95.6767 151.788 95.6653 151.815C95.6539 151.842 95.637 151.866 95.6156 151.886C95.5955 151.907 95.5711 151.924 95.5441 151.935C95.5171 151.947 95.488 151.953 95.4587 151.952H93.9818V156.466C93.9814 156.525 93.9579 156.581 93.9165 156.623C93.875 156.664 93.8188 156.688 93.7601 156.688H93.0936C93.0349 156.687 92.9788 156.664 92.9372 156.622C92.8955 156.581 92.8716 156.525 92.8705 156.466V151.952H91.3878C91.3292 151.952 91.273 151.928 91.2315 151.887C91.19 151.845 91.1665 151.789 91.1662 151.73V151.145C91.1665 151.086 91.19 151.03 91.2315 150.988C91.273 150.947 91.3292 150.923 91.3878 150.923H95.4587Z" fill="white"/>
<path d="M98.8533 150.923C99.5395 150.923 100.061 151.083 100.418 151.401C100.775 151.72 100.954 152.162 100.954 152.727C100.965 153.088 100.868 153.445 100.677 153.752C100.482 154.044 100.198 154.265 99.8667 154.382L101.002 156.416C101.018 156.444 101.026 156.475 101.027 156.507C101.027 156.555 101.008 156.601 100.974 156.635C100.941 156.669 100.895 156.688 100.847 156.689H100.146C100.058 156.696 99.9703 156.668 99.9027 156.611C99.8585 156.569 99.8211 156.52 99.7918 156.467L98.7137 154.548H97.6168V156.467C97.6164 156.526 97.5929 156.582 97.5514 156.623C97.5099 156.665 97.4538 156.688 97.3951 156.689H96.7286C96.6699 156.688 96.6138 156.664 96.5722 156.623C96.5305 156.582 96.5066 156.526 96.5055 156.467V151.141C96.5066 151.082 96.5305 151.026 96.5722 150.985C96.6138 150.943 96.6699 150.92 96.7286 150.919L98.8533 150.923ZM97.6168 153.514H98.8115C99.0716 153.527 99.3303 153.47 99.5615 153.35C99.7487 153.241 99.8408 153.032 99.8408 152.724C99.8408 152.416 99.7487 152.21 99.5615 152.107C99.3289 151.992 99.0708 151.938 98.8115 151.95H97.6168V153.514Z" fill="white"/>
<path d="M104.733 150.922C104.769 150.919 104.806 150.924 104.84 150.936C104.874 150.948 104.906 150.967 104.932 150.992C104.984 151.054 105.023 151.125 105.047 151.201L107.062 156.408C107.065 156.427 107.065 156.446 107.062 156.465C107.062 156.524 107.038 156.58 106.997 156.622C106.956 156.663 106.899 156.687 106.841 156.687H106.248C106.207 156.691 106.165 156.688 106.125 156.676C106.086 156.664 106.049 156.644 106.017 156.618C105.978 156.579 105.947 156.532 105.927 156.481L105.572 155.567H102.979L102.624 156.481C102.604 156.532 102.573 156.579 102.534 156.618C102.502 156.644 102.465 156.664 102.426 156.676C102.386 156.688 102.344 156.691 102.303 156.687H101.71C101.652 156.686 101.596 156.662 101.555 156.621C101.513 156.579 101.49 156.524 101.489 156.465C101.488 156.446 101.491 156.426 101.497 156.408L103.513 151.201C103.537 151.124 103.576 151.053 103.629 150.992C103.655 150.967 103.686 150.948 103.72 150.936C103.754 150.924 103.79 150.919 103.826 150.922H104.733ZM105.187 154.538L104.281 152.19L103.374 154.538H105.187Z" fill="white"/>
<path d="M111.562 156.689C111.524 156.692 111.485 156.687 111.448 156.675C111.411 156.662 111.377 156.642 111.348 156.616C111.31 156.579 111.275 156.541 111.241 156.501L108.938 153.073V156.468C108.938 156.526 108.914 156.583 108.873 156.624C108.831 156.665 108.775 156.689 108.717 156.689H108.049C107.99 156.688 107.935 156.665 107.893 156.623C107.852 156.582 107.828 156.526 107.827 156.468V151.142C107.828 151.083 107.852 151.027 107.893 150.986C107.935 150.945 107.99 150.921 108.049 150.92H108.624C108.663 150.917 108.702 150.922 108.739 150.935C108.776 150.947 108.81 150.967 108.839 150.993C108.877 151.03 108.912 151.069 108.945 151.11L111.249 154.536V151.142C111.248 151.112 111.254 151.084 111.265 151.057C111.277 151.03 111.294 151.006 111.315 150.986C111.335 150.965 111.359 150.948 111.386 150.937C111.413 150.925 111.442 150.92 111.472 150.92H112.138C112.197 150.921 112.253 150.944 112.295 150.986C112.336 151.027 112.36 151.083 112.361 151.142V156.468C112.36 156.526 112.336 156.582 112.295 156.624C112.253 156.665 112.197 156.689 112.138 156.689H111.562Z" fill="white"/>
<path d="M115.624 150.841C115.953 150.834 116.282 150.883 116.595 150.985C116.85 151.068 117.089 151.192 117.302 151.354C117.478 151.486 117.625 151.653 117.734 151.845C117.819 152.004 117.868 152.181 117.878 152.361C117.882 152.391 117.878 152.421 117.868 152.45C117.857 152.478 117.84 152.503 117.817 152.523C117.773 152.563 117.716 152.585 117.656 152.585H117.08C117.006 152.59 116.933 152.571 116.87 152.531C116.82 152.491 116.777 152.442 116.743 152.387C116.65 152.238 116.521 152.115 116.368 152.029C116.138 151.913 115.881 151.86 115.624 151.876C115.486 151.875 115.349 151.89 115.215 151.921C115.096 151.947 114.983 151.992 114.878 152.053C114.787 152.106 114.71 152.177 114.65 152.264C114.596 152.346 114.567 152.444 114.568 152.543C114.563 152.652 114.591 152.759 114.648 152.852C114.715 152.944 114.806 153.015 114.911 153.058C115.069 153.127 115.233 153.181 115.4 153.219C115.604 153.268 115.857 153.326 116.159 153.392C116.45 153.452 116.735 153.536 117.011 153.643C117.225 153.724 117.422 153.841 117.596 153.989C117.742 154.117 117.857 154.276 117.934 154.454C118.011 154.646 118.048 154.85 118.045 155.056C118.047 155.295 117.99 155.531 117.879 155.743C117.767 155.958 117.606 156.144 117.41 156.287C117.184 156.45 116.93 156.571 116.661 156.645C116.337 156.737 116.001 156.781 115.664 156.776C115.367 156.778 115.07 156.741 114.783 156.665C114.519 156.599 114.267 156.49 114.037 156.344C113.83 156.214 113.652 156.041 113.515 155.838C113.383 155.642 113.306 155.414 113.292 155.178C113.288 155.149 113.292 155.119 113.302 155.091C113.313 155.063 113.331 155.038 113.353 155.019C113.397 154.978 113.455 154.956 113.515 154.957H114.09C114.165 154.952 114.24 154.969 114.305 155.006C114.358 155.042 114.4 155.092 114.429 155.15C114.471 155.225 114.519 155.297 114.573 155.364C114.634 155.442 114.71 155.506 114.796 155.554C114.906 155.615 115.023 155.661 115.146 155.69C115.317 155.729 115.492 155.747 115.668 155.743C115.828 155.744 115.988 155.731 116.146 155.705C116.286 155.685 116.422 155.644 116.549 155.583C116.659 155.532 116.757 155.459 116.837 155.369C116.91 155.279 116.948 155.167 116.944 155.052C116.946 154.997 116.937 154.943 116.917 154.892C116.897 154.841 116.867 154.794 116.828 154.755C116.728 154.664 116.609 154.596 116.479 154.557C116.29 154.493 116.098 154.441 115.903 154.401C115.671 154.35 115.404 154.287 115.104 154.211C114.858 154.154 114.617 154.076 114.384 153.977C114.195 153.897 114.022 153.784 113.873 153.643C113.739 153.512 113.637 153.353 113.572 153.178C113.503 152.972 113.47 152.756 113.474 152.538C113.472 152.301 113.529 152.066 113.638 151.855C113.749 151.646 113.904 151.464 114.092 151.321C114.299 151.165 114.532 151.046 114.78 150.969C115.053 150.884 115.337 150.841 115.624 150.841Z" fill="white"/>
<path d="M122.722 150.923C122.781 150.924 122.837 150.947 122.879 150.989C122.92 151.03 122.944 151.086 122.944 151.145V151.731C122.944 151.79 122.92 151.846 122.879 151.887C122.837 151.929 122.781 151.952 122.722 151.953H120.095V153.55H122.557C122.586 153.55 122.615 153.556 122.642 153.567C122.669 153.579 122.693 153.596 122.714 153.617C122.735 153.637 122.752 153.661 122.763 153.688C122.775 153.715 122.78 153.744 122.78 153.774V154.358C122.78 154.417 122.756 154.473 122.714 154.515C122.672 154.556 122.616 154.58 122.557 154.58H120.095V156.467C120.094 156.526 120.07 156.582 120.029 156.623C119.987 156.664 119.931 156.688 119.872 156.689H119.206C119.176 156.689 119.147 156.683 119.12 156.672C119.093 156.661 119.069 156.644 119.049 156.622C119.027 156.603 119.011 156.578 118.999 156.552C118.988 156.525 118.982 156.496 118.983 156.467V151.141C118.982 151.112 118.988 151.083 118.999 151.056C119.011 151.029 119.027 151.005 119.049 150.985C119.069 150.964 119.093 150.947 119.12 150.936C119.147 150.924 119.176 150.919 119.206 150.919L122.722 150.923Z" fill="white"/>
<path d="M127.738 155.661C127.797 155.662 127.854 155.686 127.895 155.727C127.937 155.769 127.961 155.825 127.961 155.884V156.469C127.962 156.498 127.956 156.527 127.945 156.554C127.933 156.58 127.917 156.604 127.895 156.624C127.875 156.646 127.851 156.662 127.824 156.674C127.797 156.685 127.768 156.691 127.738 156.69H124.124C124.065 156.69 124.009 156.666 123.967 156.625C123.926 156.583 123.902 156.527 123.901 156.469V151.143C123.902 151.084 123.926 151.028 123.967 150.987C124.009 150.945 124.065 150.922 124.124 150.921H127.674C127.732 150.922 127.788 150.946 127.829 150.987C127.87 151.028 127.894 151.084 127.895 151.143V151.729C127.894 151.787 127.87 151.843 127.829 151.884C127.788 151.925 127.732 151.949 127.674 151.95H125.012V153.26H127.492C127.551 153.261 127.607 153.284 127.649 153.325C127.69 153.367 127.713 153.423 127.714 153.482V154.068C127.713 154.126 127.69 154.183 127.649 154.224C127.607 154.266 127.551 154.289 127.492 154.289H125.012V155.657L127.738 155.661Z" fill="white"/>
<path d="M131.329 150.923C132.015 150.923 132.537 151.083 132.894 151.401C133.251 151.72 133.429 152.162 133.429 152.727C133.44 153.088 133.345 153.445 133.155 153.752C132.959 154.044 132.674 154.266 132.343 154.382L133.48 156.416C133.495 156.445 133.503 156.476 133.504 156.507C133.504 156.531 133.5 156.555 133.491 156.577C133.481 156.599 133.468 156.619 133.451 156.635C133.434 156.652 133.415 156.666 133.392 156.675C133.37 156.684 133.347 156.689 133.323 156.689H132.623C132.58 156.692 132.536 156.687 132.494 156.674C132.452 156.661 132.413 156.639 132.38 156.611C132.335 156.569 132.298 156.521 132.269 156.467L131.19 154.548H130.094V156.467C130.095 156.496 130.089 156.525 130.078 156.552C130.066 156.578 130.049 156.603 130.028 156.622C130.008 156.644 129.983 156.661 129.956 156.672C129.929 156.683 129.9 156.689 129.871 156.689H129.205C129.146 156.688 129.09 156.664 129.048 156.623C129.006 156.582 128.983 156.526 128.981 156.467V151.141C128.983 151.082 129.006 151.026 129.048 150.985C129.09 150.943 129.146 150.92 129.205 150.919L131.329 150.923ZM130.094 153.514H131.289C131.549 153.527 131.807 153.47 132.037 153.35C132.229 153.241 132.325 153.032 132.325 152.724C132.325 152.416 132.229 152.21 132.037 152.107C131.805 151.992 131.548 151.938 131.289 151.95H130.094V153.514Z" fill="white"/>
<path d="M-33.6041 188.001H374.154C374.258 188.001 374.359 187.96 374.433 187.886C374.507 187.812 374.549 187.712 374.55 187.607C374.549 187.502 374.507 187.401 374.433 187.327C374.359 187.253 374.259 187.211 374.154 187.211H-33.6041C-33.709 187.211 -33.8095 187.253 -33.8836 187.327C-33.9578 187.401 -33.9996 187.502 -34 187.607C-33.9996 187.712 -33.9577 187.812 -33.8835 187.886C-33.8094 187.96 -33.7089 188.001 -33.6041 188.001Z" fill="#493260"/>
</g>
<defs>
<clipPath id="clip0_603_2341">
<rect width="360" height="188" fill="white"/>
</clipPath>
</defs>
</svg>
