<svg width="360" height="188" viewBox="0 0 360 188" fill="none" xmlns="http://www.w3.org/2000/svg">
<g clip-path="url(#clip0_603_2227)">
<rect width="360" height="188" fill="#DFD2EB"/>
<path d="M378.9 227.998C378.9 227.998 412.608 164.821 372.936 134.669C350.797 117.845 320.567 147.715 298.118 102.56C285.054 76.2808 239.336 68.3003 216.474 104.181C193.612 140.062 173.958 139.88 158.184 133.241C140.094 125.629 132.147 102.724 103.831 107.567C71.0969 113.166 75.4787 147.109 51.363 141.199C4.85893 129.801 -29.601 194.918 2.54712 228.446L378.9 227.998Z" fill="#D4DFFF"/>
<path d="M184.875 46.2029L119.714 49.7587C117.663 49.8706 109.888 51.6243 110 53.6756L123.313 183.981C123.425 186.032 125.179 187.605 127.23 187.493L192.391 183.937C194.442 183.825 196.014 182.071 195.902 180.02L188.792 49.7144C188.68 47.6631 186.926 46.091 184.875 46.2029Z" fill="#5A6FC5"/>
<path d="M133.156 187.323H214.259C216.325 187.323 217.825 185.648 217.609 183.58L202.99 44.2196C202.773 42.1529 200.922 40.4767 198.856 40.4767H117.753C115.686 40.4767 114.186 42.1529 114.403 44.2196L129.02 183.58C129.237 185.654 131.088 187.323 133.156 187.323Z" fill="#6880E4"/>
<path d="M135.369 171.845H208.792L196.06 50.4528H122.637L135.369 171.845Z" fill="white"/>
<mask id="mask0_603_2227" style="mask-type:luminance" maskUnits="userSpaceOnUse" x="122" y="50" width="87" height="122">
<path d="M135.37 171.847H208.792L196.06 50.4535H122.637L135.37 171.847Z" fill="white"/>
</mask>
<g mask="url(#mask0_603_2227)">
<path opacity="0.19" d="M133.61 48.2518C133.61 48.2518 147.186 137.438 212 150.852L216.507 176.336H128.26L114.835 48.2833L133.61 48.2518Z" fill="white"/>
</g>
<path d="M178.605 179.796C178.605 178.75 178.294 177.727 177.713 176.857C177.132 175.987 176.306 175.309 175.339 174.909C174.372 174.508 173.309 174.403 172.282 174.608C171.256 174.812 170.314 175.315 169.574 176.055C168.834 176.795 168.33 177.738 168.126 178.764C167.922 179.79 168.027 180.854 168.427 181.82C168.828 182.787 169.506 183.613 170.375 184.195C171.245 184.776 172.268 185.086 173.315 185.086C174.009 185.086 174.697 184.95 175.339 184.684C175.981 184.418 176.564 184.028 177.056 183.537C177.547 183.046 177.937 182.463 178.202 181.821C178.468 181.179 178.605 180.491 178.605 179.796Z" fill="#5A6FC5"/>
<path d="M166.886 92.473C166.826 91.1355 167.767 90.0008 168.951 89.9706C178.941 89.7087 220.01 88.8082 220.554 91.6733C221.174 94.935 223.665 138.667 221.964 139.426C220.262 140.184 170.657 139.868 169.732 138.758C168.933 137.798 167.315 102.213 166.886 92.473Z" fill="#BFABD3"/>
<path d="M166.801 91.2704C166.801 91.2704 166.491 89.9657 164.227 89.4078C161.963 88.8499 119.403 84.2898 115.544 87.9205C111.685 91.5513 118.58 139.709 120.652 140.228C122.724 140.747 168.644 140.335 170.271 138.702C171.898 137.068 166.801 91.2704 166.801 91.2704Z" fill="#BFABD3"/>
<path d="M216.378 95.968C216.378 95.968 169.22 96.6871 167.068 96.4251C164.916 96.1632 119.828 93.4228 119.223 93.987C118.617 94.5512 164.976 98.7953 167.044 98.4477C169.112 98.1001 219.372 97.8306 216.378 95.968Z" fill="#4B0082"/>
<path d="M120.619 97.0693C120.619 97.0693 166.895 99.9583 167.201 100.622C167.508 101.286 170.54 133.743 169.368 134.689C168.195 135.635 125.27 136.103 124.631 135.594C123.993 135.086 118.927 100.199 120.619 97.0693Z" fill="#4B0082"/>
<path d="M117.666 87.0883C117.666 87.0883 116.115 91.9708 116.676 100.995C117.238 110.02 122.7 140.362 122.7 140.362L120.652 140.228C120.652 140.228 118.203 134.604 116.638 121.161C115.074 107.719 113.033 92.5036 115.544 87.9145C115.544 87.9208 116.21 87.1236 117.666 87.0883Z" fill="#4B0082"/>
<path d="M219.056 90.8721C219.056 90.8721 219.859 91.3544 220.285 96.9082C220.71 102.462 221.715 132.903 221.21 136.244C220.705 139.585 220.275 139.613 220.275 139.613C220.275 139.613 222.244 139.872 222.388 139.347C222.532 138.822 223.19 133.194 222.756 127.305C222.321 121.417 222.252 104.282 221.763 102.327C221.275 100.373 222.278 90.6605 219.056 90.8721Z" fill="#4B0082"/>
<path d="M170.004 100.396C170.004 100.396 217.931 99.2622 218.096 100.051C218.261 100.839 218.821 107.035 218.533 107.942C218.245 108.848 170.841 109.573 170.364 108.758C169.887 107.943 168.947 101.277 170.004 100.396Z" fill="#4B0082"/>
<path d="M165.107 102.232L165.087 102.023L164.879 102.005L164.901 101.753L165.216 101.78L165.319 101.791L165.358 102.207L165.107 102.232Z" fill="#BFABD3"/>
<path d="M134.874 134.412H134.607V134.16H135.237V134.412H134.874ZM135.859 134.412V134.16H136.488V134.412H135.859ZM133.97 134.412H133.34V134.16H133.97V134.412ZM137.118 134.412V134.16H137.748V134.412H137.118ZM132.71 134.412H132.081V134.16H132.71V134.412ZM138.377 134.412V134.16H139.007V134.412H138.377ZM131.451 134.412H130.821V134.16H131.451V134.412ZM139.637 134.412V134.16H140.266V134.412H139.637ZM130.199 134.398H129.569V134.147H130.199V134.398ZM140.897 134.398V134.147H141.527V134.398H140.897ZM142.157 134.388V134.137H142.786V134.388H142.157ZM128.941 134.388L128.311 134.378V134.126L128.941 134.137V134.388ZM143.416 134.38V134.128H144.046V134.38H143.416ZM127.682 134.367L127.052 134.351L127.06 134.099L127.689 134.115L127.682 134.367ZM144.674 134.367V134.115L145.292 134.109L145.305 134.235L145.296 134.361L144.674 134.367ZM145.934 134.353V134.101L146.563 134.094V134.346L145.934 134.353ZM147.193 134.337V134.085L147.823 134.077V134.329L147.193 134.337ZM126.413 134.327C125.959 134.303 125.881 134.283 125.839 134.262C125.785 134.232 125.745 134.183 125.725 134.125L125.955 134.023V134.038C125.994 134.038 126.109 134.058 126.42 134.075L126.413 134.327ZM148.446 134.319V134.067L149.076 134.058V134.31L148.446 134.319ZM149.705 134.3V134.048L150.335 134.037V134.289L149.705 134.3ZM150.965 134.278V134.026L151.594 134.014V134.266L150.965 134.278ZM152.224 134.255V134.003L152.854 133.989V134.241L152.224 134.255ZM153.483 134.228V133.977L154.113 133.963V134.215L153.483 134.228ZM154.743 134.2V133.948L155.372 133.933V134.184L154.743 134.2ZM156.002 134.168L155.995 133.916L156.624 133.899L156.63 134.15L156.002 134.168ZM157.261 134.133L157.254 133.881L157.884 133.862L157.891 134.114L157.261 134.133ZM158.521 134.094L158.512 133.842L159.142 133.822L159.15 134.074L158.521 134.094ZM159.78 134.051L159.771 133.799L160.401 133.775L160.411 134.027L159.78 134.051ZM161.039 134.001L161.028 133.749L161.658 133.721L161.669 133.973L161.039 134.001ZM162.299 133.944L162.288 133.692L162.917 133.659L162.93 133.911L162.299 133.944ZM163.558 133.878L163.544 133.627C163.76 133.614 163.97 133.601 164.174 133.587L164.19 133.839L163.558 133.878ZM164.818 133.797L164.8 133.545L165.43 133.496L165.451 133.747C165.243 133.754 165.033 133.769 164.811 133.786L164.818 133.797ZM166.077 133.688L166.05 133.436C166.282 133.412 166.491 133.387 166.673 133.362L166.707 133.614C166.518 133.629 166.305 133.653 166.072 133.678L166.077 133.688ZM167.336 133.502L167.277 133.25C167.365 133.235 167.45 133.206 167.529 133.164C167.541 133.103 167.549 133.041 167.552 132.978L167.804 132.993C167.803 133.087 167.789 133.18 167.761 133.269C167.718 133.363 167.602 133.429 167.336 133.492V133.502ZM125.557 133.489C125.521 133.313 125.482 133.103 125.44 132.86L125.692 132.817C125.733 133.053 125.772 133.261 125.808 133.435L125.557 133.489ZM167.557 132.365C167.557 132.181 167.548 131.97 167.539 131.735L167.791 131.726C167.8 131.962 167.806 132.174 167.809 132.356L167.557 132.365ZM125.337 132.239C125.306 132.043 125.275 131.834 125.241 131.609L125.493 131.571C125.526 131.792 125.557 131.999 125.589 132.201L125.337 132.239ZM167.513 131.105C167.504 130.906 167.492 130.697 167.48 130.476L167.732 130.462C167.744 130.683 167.754 130.894 167.764 131.091L167.513 131.105ZM125.152 130.979C125.123 130.779 125.094 130.57 125.065 130.35L125.317 130.316C125.347 130.531 125.374 130.739 125.403 130.945L125.152 130.979ZM167.445 129.846C167.432 129.643 167.419 129.434 167.406 129.216L167.657 129.2C167.671 129.416 167.685 129.627 167.696 129.83L167.445 129.846ZM124.982 129.735C124.954 129.531 124.927 129.323 124.9 129.105L125.152 129.074C125.179 129.287 125.207 129.495 125.233 129.704L124.982 129.735ZM167.364 128.589C167.35 128.384 167.336 128.175 167.321 127.959L167.573 127.942C167.587 128.156 167.602 128.366 167.616 128.571L167.364 128.589ZM124.82 128.48C124.794 128.275 124.769 128.066 124.742 127.85L124.994 127.818C125.019 128.031 125.046 128.239 125.071 128.448L124.82 128.48ZM167.277 127.328L167.232 126.699L167.484 126.681L167.529 127.311L167.277 127.328ZM124.665 127.229L124.591 126.599L124.843 126.57L124.919 127.2L124.665 127.229ZM167.185 126.073L167.137 125.443L167.389 125.424L167.437 126.054L167.185 126.073ZM124.517 125.977L124.444 125.347L124.696 125.32L124.769 125.949L124.517 125.977ZM167.083 124.817L167.034 124.188L167.286 124.167L167.335 124.797L167.083 124.817ZM124.366 124.725L124.295 124.096L124.547 124.068L124.618 124.698L124.366 124.725ZM166.984 123.562L166.935 122.932L167.186 122.912L167.237 123.542L166.984 123.562ZM124.226 123.474L124.157 122.844L124.409 122.816L124.477 123.446L124.226 123.474ZM166.883 122.307L166.833 121.678L167.084 121.656L167.136 122.286L166.883 122.307ZM124.087 122.222L124.021 121.592L124.273 121.566L124.339 122.195L124.087 122.222ZM166.78 121.052L166.727 120.422L166.979 120.401L167.032 121.03L166.78 121.052ZM123.953 120.97L123.886 120.34L124.138 120.314L124.205 120.944L123.953 120.97ZM166.674 119.798L166.621 119.168L166.873 119.146L166.926 119.776L166.674 119.798ZM123.82 119.717L123.756 119.087L124.008 119.061L124.072 119.69L123.82 119.717ZM166.568 118.543L166.515 117.913L166.767 117.892L166.82 118.522L166.568 118.543ZM123.692 118.466L123.629 117.837L123.881 117.811L123.944 118.441L123.692 118.466ZM166.469 117.284L166.414 116.654L166.666 116.633L166.72 117.262L166.469 117.284ZM123.574 117.21L123.511 116.58L123.763 116.555L123.825 117.184L123.574 117.21ZM166.36 116.03L166.305 115.4L166.557 115.378L166.612 116.008L166.36 116.03ZM123.45 115.954L123.39 115.324L123.642 115.3L123.702 115.93L123.45 115.954ZM166.251 114.778L166.195 114.148L166.447 114.127L166.503 114.756L166.251 114.778ZM123.329 114.701L123.27 114.071L123.522 114.047L123.581 114.677L123.329 114.701ZM166.14 113.523L166.084 112.894L166.336 112.871L166.392 113.501L166.14 113.523ZM123.211 113.447L123.154 112.817L123.406 112.794L123.464 113.424L123.211 113.447ZM166.029 112.269L165.974 111.639L166.226 111.617L166.281 112.246L166.029 112.269ZM123.098 112.192L123.042 111.563L123.294 111.54L123.349 112.17L123.098 112.192ZM165.916 111.015L165.859 110.385L166.111 110.362L166.168 110.992L165.916 111.015ZM122.985 110.938L122.93 110.308L123.182 110.287L123.236 110.917L122.985 110.938ZM165.804 109.76L165.747 109.131L165.999 109.108L166.056 109.738L165.804 109.76ZM122.878 109.682L122.826 109.053L123.077 109.031L123.13 109.661L122.878 109.682ZM165.69 108.506L165.632 107.876L165.884 107.854L165.942 108.483L165.69 108.506ZM122.769 108.427C122.753 108.215 122.735 108.006 122.718 107.797L122.97 107.777C122.987 107.983 123.003 108.193 123.021 108.407L122.769 108.427ZM165.571 107.252L165.513 106.622L165.765 106.599L165.823 107.229L165.571 107.252ZM122.669 107.171C122.653 106.958 122.638 106.749 122.623 106.542L122.875 106.523C122.89 106.729 122.906 106.938 122.923 107.152L122.669 107.171ZM165.461 105.997L165.403 105.368L165.655 105.344L165.713 105.974L165.461 105.997ZM122.582 105.914C122.567 105.7 122.552 105.491 122.538 105.285L122.79 105.268C122.805 105.474 122.819 105.683 122.836 105.898L122.582 105.914ZM165.345 104.742L165.286 104.112L165.538 104.088L165.597 104.718L165.345 104.742ZM122.496 104.656C122.482 104.441 122.469 104.232 122.457 104.027L122.708 104.011C122.721 104.215 122.735 104.426 122.749 104.641L122.496 104.656ZM165.228 103.486L165.169 102.857L165.421 102.834L165.48 103.464L165.228 103.486ZM122.419 103.397C122.407 103.18 122.396 102.97 122.386 102.767L122.638 102.755C122.648 102.956 122.659 103.166 122.672 103.384L122.419 103.397ZM122.357 102.138C122.347 101.915 122.339 101.704 122.333 101.508L122.585 101.5C122.591 101.698 122.599 101.907 122.608 102.13L122.357 102.138ZM164.44 101.971L163.81 101.923L163.829 101.672L164.459 101.721L164.44 101.971ZM163.18 101.876L162.551 101.829L162.57 101.577L163.199 101.625L163.18 101.876ZM161.921 101.782L161.291 101.736L161.31 101.484L161.94 101.531L161.921 101.782ZM160.662 101.69L160.032 101.645L160.051 101.393L160.681 101.439L160.662 101.69ZM159.402 101.6L158.773 101.554L158.79 101.303L159.42 101.348L159.402 101.6ZM158.143 101.509L157.513 101.464L157.531 101.212L158.161 101.256L158.143 101.509ZM156.884 101.42L156.254 101.374L156.272 101.122L156.901 101.167L156.884 101.42ZM155.624 101.33L154.995 101.286L155.012 101.034L155.642 101.078L155.624 101.33ZM154.365 101.242L153.735 101.198L153.753 100.946L154.383 100.99L154.365 101.242ZM153.106 101.155L152.476 101.111L152.492 100.859L153.122 100.903L153.106 101.155ZM151.846 101.068L151.217 101.024L151.234 100.772L151.864 100.815L151.846 101.068ZM150.587 100.981L149.957 100.939L149.975 100.687L150.604 100.73L150.587 100.981ZM149.327 100.896L148.698 100.853L148.714 100.601L149.344 100.644L149.327 100.896ZM122.285 100.873C122.285 100.777 122.285 100.687 122.285 100.601C122.285 100.475 122.285 100.349 122.285 100.24H122.537C122.537 100.349 122.537 100.468 122.537 100.596C122.537 100.682 122.537 100.771 122.537 100.864L122.285 100.873ZM148.072 100.81L147.442 100.769L147.46 100.517L148.09 100.56L148.072 100.81ZM146.813 100.726L146.183 100.684L146.199 100.432L146.829 100.475L146.813 100.726ZM145.553 100.643L144.923 100.601L144.94 100.349L145.57 100.391L145.553 100.643ZM144.294 100.56L143.664 100.518L143.682 100.266L144.311 100.308L144.294 100.56ZM143.034 100.476L142.405 100.436L142.421 100.184L143.051 100.226L143.034 100.476ZM141.775 100.396L141.145 100.356L141.162 100.104L141.791 100.144L141.775 100.396ZM140.516 100.315L139.886 100.276L139.901 100.024L140.531 100.065L140.516 100.315ZM139.256 100.236L138.627 100.197L138.643 99.945L139.273 99.984L139.256 100.236ZM137.997 100.158L137.367 100.119L137.384 99.8669L138.013 99.9047L137.997 100.158ZM136.738 100.081L136.108 100.042L136.123 99.7901L136.753 99.8279L136.738 100.081ZM135.478 100.005L134.849 99.9677L134.864 99.7158L135.493 99.7536L135.478 100.005ZM134.219 99.9311L133.589 99.8946L133.603 99.6427L134.233 99.6793L134.219 99.9311ZM132.96 99.8581L132.33 99.8228L132.344 99.571L132.973 99.6062L132.96 99.8581ZM131.7 99.7888L131.071 99.7548L131.083 99.5029L131.713 99.537L131.7 99.7888ZM130.441 99.7208L129.811 99.6881L129.824 99.4362L130.453 99.469L130.441 99.7208ZM129.182 99.6566L128.552 99.6251L128.563 99.3732L129.193 99.4035L129.182 99.6566ZM122.541 99.6364L122.289 99.5949C122.316 99.4337 122.353 99.343 122.415 99.3052C122.458 99.275 122.532 99.241 122.877 99.2221L122.891 99.474C122.782 99.4759 122.674 99.4878 122.567 99.5093C122.578 99.5544 122.594 99.5983 122.614 99.6402L122.541 99.6364ZM127.923 99.5961L127.294 99.5684L127.304 99.3166L127.934 99.3443L127.923 99.5961ZM126.664 99.542L126.034 99.5168L126.044 99.2649L126.674 99.2901L126.664 99.542ZM125.405 99.4954L124.775 99.4765L124.781 99.2246L125.411 99.2435L125.405 99.4954ZM124.145 99.4639C123.944 99.4639 123.76 99.4639 123.592 99.4639H123.516V99.212H123.592C123.76 99.212 123.946 99.212 124.149 99.212L124.145 99.4639Z" fill="#BFABD3"/>
<path d="M171.224 110.57C171.09 110.58 170.965 110.641 170.875 110.742C170.786 110.842 170.739 110.974 170.745 111.108C170.904 114.617 171.9 135.732 172.94 135.618C174.074 135.492 218.655 136.443 218.991 135.63C219.328 134.818 219.04 111.741 217.792 109.999C217.792 109.999 176.993 110.176 171.224 110.57Z" fill="#4B0082"/>
<path d="M166.801 91.2698L167.952 102.127C167.952 102.127 166.86 90.6502 168.951 89.9701C168.951 89.9701 167.476 89.9424 166.801 91.2698Z" fill="#4B0082"/>
<path d="M169.895 138.882C170.346 138.2 170.585 137.4 170.582 136.583C170.582 135.19 170.437 131.267 170.437 131.267C170.437 131.267 171.528 137.999 170.643 138.984L169.895 138.882Z" fill="#4B0082"/>
<path d="M209.525 134.858H208.895V134.606H209.525V134.858ZM210.154 134.858V134.606H210.784V134.858H210.154ZM208.265 134.858H207.636V134.606H208.265V134.858ZM211.414 134.858V134.606H212.043V134.858H211.414ZM207.006 134.858H206.376V134.606H207.006V134.858ZM205.747 134.858H205.117V134.606H205.747V134.858ZM212.673 134.858V134.606H213.303V134.858H212.673ZM204.487 134.858H203.858V134.606H204.487V134.858ZM203.228 134.858H202.598V134.606H203.228V134.858ZM213.94 134.858V134.606H214.57V134.858H213.94ZM201.967 134.858H201.338V134.606H201.967V134.858ZM200.708 134.85H200.078V134.598H200.708V134.85ZM215.202 134.85V134.598L215.832 134.586V134.837L215.202 134.85ZM199.447 134.842H198.818V134.591H199.447V134.842ZM198.188 134.834H197.558V134.582H198.188V134.834ZM196.929 134.824H196.299V134.572H196.929V134.824ZM216.464 134.824L216.456 134.572C216.697 134.564 216.906 134.557 217.086 134.548L217.099 134.8C216.91 134.776 216.698 134.79 216.456 134.797L216.464 134.824ZM195.664 134.814H195.035V134.562H195.664V134.814ZM194.405 134.803H193.775V134.552H194.405V134.803ZM193.146 134.791H192.516V134.539H193.146V134.791ZM191.886 134.78H191.256V134.528H191.886V134.78ZM190.627 134.767L189.997 134.759V134.507L190.627 134.515V134.767ZM189.367 134.753L188.738 134.746V134.494L189.367 134.501V134.753ZM217.743 134.744L217.697 134.509V134.499V134.49C217.734 134.342 217.756 134.191 217.761 134.039L218.013 134.059C217.972 134.563 217.916 134.65 217.855 134.689C217.818 134.708 217.777 134.718 217.734 134.718L217.743 134.744ZM188.107 134.744L187.477 134.737V134.485L188.107 134.492V134.744ZM186.847 134.73L186.218 134.723V134.471L186.847 134.479V134.73ZM185.588 134.715L184.958 134.708V134.456L185.588 134.463V134.715ZM184.329 134.699L183.699 134.691V134.439L184.329 134.447V134.699ZM183.069 134.683L182.44 134.675V134.423L183.069 134.431V134.683ZM181.81 134.666L181.18 134.657V134.405L181.81 134.414V134.666ZM180.551 134.649L179.921 134.64V134.388L180.551 134.397V134.649ZM179.291 134.63L178.662 134.62V134.368L179.291 134.378V134.63ZM178.032 134.61L177.402 134.598V134.346L178.032 134.358V134.61ZM176.773 134.587L176.143 134.575V134.324L176.773 134.335V134.587ZM175.513 134.562L174.884 134.545L174.891 134.293L175.521 134.31L175.513 134.562ZM174.224 134.31C174.157 134.101 174.109 133.887 174.078 133.67L174.329 133.628C174.358 133.83 174.404 134.029 174.464 134.224L174.224 134.31ZM218.067 133.441L217.815 133.432C217.815 133.243 217.826 133.033 217.829 132.802H218.081C218.051 133.003 218.046 133.213 218.039 133.404L218.067 133.441ZM173.989 133.039C173.964 132.845 173.939 132.635 173.914 132.409L174.166 132.382C174.191 132.607 174.215 132.816 174.24 133.011L173.989 133.039ZM218.09 132.178H217.838V131.979C217.838 131.84 217.838 131.697 217.838 131.548H218.09C218.09 131.697 218.09 131.84 218.09 131.98V132.178ZM173.847 131.778C173.827 131.577 173.807 131.367 173.787 131.149L174.039 131.125C174.059 131.343 174.079 131.553 174.099 131.755L173.847 131.778ZM217.833 130.917C217.833 130.713 217.833 130.503 217.824 130.287H218.076C218.076 130.504 218.076 130.714 218.085 130.917H217.833ZM173.731 130.519C173.714 130.314 173.696 130.105 173.678 129.889L173.93 129.868C173.948 130.083 173.966 130.294 173.983 130.498L173.731 130.519ZM217.809 129.656C217.809 129.45 217.801 129.24 217.796 129.027H218.048C218.048 129.241 218.057 129.451 218.061 129.656H217.809ZM173.624 129.26C173.609 129.053 173.593 128.843 173.578 128.63L173.829 128.611C173.846 128.824 173.861 129.034 173.877 129.241L173.624 129.26ZM217.781 128.396C217.781 128.188 217.77 127.978 217.765 127.766L218.017 127.759C218.023 127.971 218.029 128.182 218.034 128.388L217.781 128.396ZM173.531 127.999C173.516 127.793 173.501 127.582 173.487 127.369L173.739 127.353C173.754 127.565 173.769 127.775 173.784 127.983L173.531 127.999ZM217.724 127.094C217.724 126.886 217.712 126.676 217.706 126.464L217.957 126.456C217.957 126.668 217.97 126.878 217.976 127.086L217.724 127.094ZM173.423 126.698L173.381 126.069L173.633 126.052L173.675 126.682L173.423 126.698ZM217.684 125.834L217.663 125.205L217.915 125.195L217.936 125.824L217.684 125.834ZM173.34 125.439L173.301 124.809L173.552 124.794L173.593 125.424L173.34 125.439ZM217.639 124.574L217.615 123.944L217.867 123.934L217.891 124.564L217.639 124.574ZM173.262 124.179L173.224 123.55L173.476 123.535L173.513 124.164L173.262 124.179ZM217.591 123.317L217.564 122.687L217.816 122.677L217.842 123.307L217.591 123.317ZM173.187 122.918L173.151 122.288L173.403 122.273L173.439 122.903L173.187 122.918ZM217.537 122.056L217.509 121.427L217.761 121.415L217.789 122.045L217.537 122.056ZM173.114 121.66L173.079 121.03L173.331 121.015L173.366 121.644L173.114 121.66ZM217.473 120.797L217.442 120.167L217.694 120.155L217.724 120.784L217.473 120.797ZM173.037 120.399L173.003 119.769L173.255 119.755L173.289 120.385L173.037 120.399ZM217.412 119.538L217.381 118.908L217.632 118.894L217.665 119.524L217.412 119.538ZM172.969 119.14L172.937 118.51L173.188 118.497L173.221 119.127L172.969 119.14ZM217.347 118.279L217.313 117.65L217.564 117.636L217.598 118.266L217.347 118.279ZM172.904 117.878L172.872 117.248L173.124 117.235L173.157 117.865L172.904 117.878ZM217.277 117.02C217.265 116.807 217.252 116.597 217.241 116.39L217.493 116.375C217.505 116.582 217.518 116.792 217.53 117.005L217.277 117.02ZM172.841 116.617L172.809 115.987L173.061 115.976L173.092 116.606L172.841 116.617ZM217.202 115.762C217.188 115.547 217.174 115.336 217.161 115.132L217.413 115.116C217.427 115.32 217.441 115.53 217.454 115.746L217.202 115.762ZM172.778 115.355L172.748 114.726L173 114.713L173.03 115.343L172.778 115.355ZM217.119 114.503C217.104 114.286 217.088 114.076 217.073 113.873L217.325 113.854C217.34 114.056 217.355 114.265 217.371 114.484L217.119 114.503ZM172.719 114.092L172.689 113.462L172.94 113.451L172.969 114.081L172.719 114.092ZM217.024 113.246C217.005 113.022 216.988 112.811 216.97 112.616L217.222 112.593C217.24 112.787 217.258 112.999 217.276 113.223L217.024 113.246ZM172.66 112.828L172.632 112.189L172.884 112.178L172.913 112.816L172.66 112.828ZM173.057 112.16L173.001 111.908C173.153 111.873 173.367 111.838 173.638 111.804L173.67 112.056C173.409 112.098 173.202 112.132 173.059 112.165L173.057 112.16ZM174.294 111.991L174.27 111.74C174.464 111.722 174.675 111.703 174.9 111.685L174.92 111.937C174.697 111.96 174.488 111.981 174.295 111.996L174.294 111.991ZM216.907 111.991C216.877 111.722 216.848 111.514 216.821 111.374L217.073 111.328C217.101 111.475 217.13 111.688 217.161 111.964L216.907 111.991ZM175.55 111.891L175.532 111.639C175.734 111.625 175.944 111.611 176.162 111.599L176.177 111.85L175.55 111.891ZM176.809 111.813L176.795 111.561L177.425 111.527L177.439 111.779L176.809 111.813ZM178.068 111.747L178.056 111.495L178.686 111.466L178.698 111.718L178.068 111.747ZM179.328 111.689L179.318 111.437L179.947 111.411L179.958 111.663L179.328 111.689ZM180.587 111.639L180.578 111.387L181.208 111.364L181.218 111.616L180.587 111.639ZM181.847 111.593L181.838 111.342L182.467 111.32L182.476 111.572L181.847 111.593ZM183.106 111.551L183.098 111.299L183.728 111.279L183.736 111.531L183.106 111.551ZM184.365 111.513L184.358 111.261L184.987 111.242V111.494L184.365 111.513ZM185.625 111.476L185.617 111.224L186.247 111.208L186.254 111.46L185.625 111.476ZM186.884 111.444V111.192L187.514 111.175V111.427L186.884 111.444ZM188.143 111.412V111.16L188.773 111.145L188.779 111.397L188.143 111.412ZM189.403 111.383L189.396 111.131L190.026 111.117V111.369L189.403 111.383ZM190.662 111.355V111.104L191.292 111.091V111.343L190.662 111.355ZM191.921 111.33V111.078L192.551 111.066V111.318L191.921 111.33ZM193.181 111.306V111.054L193.81 111.043V111.295L193.181 111.306ZM194.44 111.284V111.032L195.07 111.02V111.272L194.44 111.284ZM195.699 111.262V111.01L196.329 111V111.252L195.699 111.262ZM196.959 111.243V110.992L197.589 110.981V111.233L196.959 111.243ZM198.218 111.224V110.973L198.848 110.964V111.216L198.218 111.224ZM199.478 111.208V110.956L200.107 110.949V111.201L199.478 111.208ZM216.479 111.198C216.323 111.189 216.111 111.18 215.849 111.173L215.857 110.921C216.117 110.929 216.33 110.937 216.486 110.947L216.479 111.198ZM200.737 111.198V110.946L201.367 110.939V111.19L200.737 111.198ZM201.996 111.183V110.931L202.626 110.925V111.177L201.996 111.183ZM203.256 111.17V110.918H203.885V111.17H203.256ZM215.22 111.162L214.59 111.151V110.9L215.22 110.91V111.162ZM204.515 111.162V110.91H205.145V111.162H204.515ZM205.774 111.153V110.901H206.404V111.153H205.774ZM213.96 111.146H213.331V110.895H213.96V111.146ZM207.034 111.146V110.895H207.663V111.146H207.034ZM208.293 111.146V110.895H208.923V111.146H208.293ZM212.701 111.146H212.071V110.895H212.701V111.146ZM209.552 111.146V110.895H210.182V111.146H209.552ZM211.441 111.146H210.812V110.895H211.441V111.146Z" fill="#BFABD3"/>
<path opacity="0.48" d="M125.342 102.31C125.342 102.31 126.759 131.69 127.786 132.185C128.814 132.679 165.063 133.444 165.672 131.953C166.28 130.462 164.648 104.159 163.395 103.472C162.142 102.786 125.261 100.719 125.342 102.31Z" fill="#BFABD3"/>
<mask id="mask1_603_2227" style="mask-type:luminance" maskUnits="userSpaceOnUse" x="125" y="101" width="41" height="32">
<path d="M125.342 102.31C125.342 102.31 126.759 131.69 127.786 132.185C128.814 132.68 165.063 133.444 165.672 131.953C166.28 130.462 164.648 104.159 163.395 103.473C162.142 102.787 125.261 100.72 125.342 102.31Z" fill="white"/>
</mask>
<g mask="url(#mask1_603_2227)">
<path opacity="0.21" d="M134.126 100.574L123.709 117.291L125.191 126.985L136.35 113.778L127.609 133.815L139.422 134.176L148.789 112.435L143.362 134.245L161.027 133.866L166.243 113.265L166.124 101.306L162.271 101.105L157.049 121.55L159.736 100.782L146.071 99.9972L140.325 115.378L144.245 99.9418L134.126 100.574Z" fill="white"/>
</g>
<path d="M147.493 95.1751C147.493 95.1751 155.141 78.976 166.887 78.4521C178.633 77.9282 183.99 96.3904 183.99 96.3904L167.476 96.4911L147.493 95.1751Z" fill="#68A9FD"/>
<mask id="mask2_603_2227" style="mask-type:luminance" maskUnits="userSpaceOnUse" x="147" y="78" width="37" height="19">
<path d="M147.493 95.1772C147.493 95.1772 155.141 78.9781 166.887 78.4542C178.633 77.9303 183.99 96.3925 183.99 96.3925L167.476 96.4932L147.493 95.1772Z" fill="white"/>
</mask>
<g mask="url(#mask2_603_2227)">
<path opacity="0.34" d="M162.431 78.0371C162.431 78.0371 166.368 87.1045 168.566 89.0237C170.763 90.943 185.412 92.9655 185.412 92.9655L185.779 98.4727C185.779 98.4727 165.084 96.8695 162.431 97.0698C159.779 97.27 145.571 95.5245 145.571 95.5245C145.571 95.5245 148.879 86.7355 150.528 85.1789C152.176 83.6224 162.431 78.0371 162.431 78.0371Z" fill="#6880E4"/>
</g>
<path d="M166.883 78.4523C166.883 78.4523 177.138 77.5027 183.916 96.1891C190.087 113.209 215.769 140.226 220.295 144.906C220.494 145.111 220.751 145.249 221.032 145.301C221.312 145.353 221.602 145.317 221.861 145.197C224.517 143.963 232.286 140.38 232.755 140.438C233.322 140.508 238.987 123.296 240.545 122.979C242.103 122.663 256.974 116.662 257.115 115.273C257.256 113.884 226.71 80.602 217.624 75.0823C208.537 69.5625 167.854 77.1527 166.883 78.4523Z" fill="#7DB9F9"/>
<path d="M170.75 77.2764C170.75 77.2764 178.856 79.0584 184.523 89.7642C190.19 100.47 192.079 107.412 200.794 117.272C209.508 127.133 220.592 142.039 222.554 141.514C224.516 140.989 230.74 138.413 230.952 137.889C231.163 137.365 235.811 122.431 236.862 121.592C237.912 120.753 253.485 114.421 253.279 114.014C253.072 113.608 227.136 83.8868 225.245 82.6262C223.355 81.3656 215.111 73.2137 208.792 73.181C202.472 73.1483 185.418 72.5564 170.75 77.2764Z" fill="#97C7FA"/>
<mask id="mask3_603_2227" style="mask-type:luminance" maskUnits="userSpaceOnUse" x="170" y="73" width="84" height="69">
<path d="M170.75 77.2764C170.75 77.2764 178.856 79.0584 184.523 89.7642C190.19 100.47 192.079 107.412 200.794 117.272C209.508 127.133 220.592 142.039 222.554 141.514C224.516 140.989 230.74 138.413 230.952 137.889C231.163 137.365 235.811 122.431 236.862 121.592C237.912 120.753 253.485 114.421 253.279 114.014C253.072 113.608 227.136 83.8868 225.245 82.6262C223.355 81.3656 215.111 73.2137 208.792 73.181C202.472 73.1483 185.418 72.5564 170.75 77.2764Z" fill="white"/>
</mask>
<g mask="url(#mask3_603_2227)">
<path opacity="0.24" d="M242.262 97.0706L231.294 147.97L209.722 146.499L214.731 111.15L205.468 132.825L192.408 116.81L204.098 85.0941L187.844 109.999L169.895 84.2403L195.343 71.3054L222.489 72.2247L230.21 80.8652L224.245 113.901L233.621 84.2403L242.262 97.0706Z" fill="#F6F9FF"/>
</g>
<path d="M206.54 85.5816C203.941 87.754 203.753 91.9426 204.437 95.0142C205.151 98.2218 206.899 101.337 209.437 103.452C212.021 105.607 216.111 107.076 219.281 105.298C220.666 104.522 221.664 103.166 222.178 101.667C223.727 97.101 221.422 92.4099 218.289 89.1255C215.458 86.1647 211.079 82.3501 206.894 85.3083C206.768 85.3952 206.653 85.4872 206.54 85.5816Z" fill="#82B378"/>
<path d="M157.554 78.245H93.3516C92.9323 78.2331 92.5304 78.0748 92.2155 77.7976C91.9007 77.5205 91.6927 77.1419 91.6276 76.7275L86.0197 35.5667C85.9863 35.3777 85.9955 35.1836 86.0464 34.9986C86.0974 34.8136 86.1889 34.6422 86.3142 34.497C86.4396 34.3517 86.5958 34.2361 86.7714 34.1587C86.9469 34.0812 87.1376 34.0438 87.3294 34.0491H151.531C151.951 34.0604 152.353 34.2184 152.668 34.4957C152.983 34.773 153.191 35.152 153.256 35.5667L158.865 76.7275C158.898 76.9165 158.888 77.1105 158.837 77.2954C158.786 77.4803 158.694 77.6516 158.569 77.7968C158.443 77.942 158.287 78.0575 158.112 78.135C157.936 78.2125 157.745 78.2501 157.554 78.245Z" fill="#F9C438"/>
<path d="M120.539 45.8303H92.6276C92.4893 45.8264 92.3568 45.7737 92.2535 45.6815C92.1503 45.5893 92.083 45.4636 92.0634 45.3266L91.2524 39.3799C91.2415 39.318 91.2446 39.2545 91.2613 39.1939C91.278 39.1334 91.3081 39.0773 91.3492 39.0298C91.3903 38.9823 91.4415 38.9445 91.499 38.9192C91.5566 38.894 91.619 38.8819 91.6818 38.8837H119.593C119.73 38.8874 119.862 38.939 119.965 39.0296C120.069 39.1202 120.137 39.2442 120.158 39.3799L120.968 45.3266C120.98 45.389 120.978 45.4533 120.962 45.5147C120.945 45.5761 120.915 45.6331 120.874 45.6815C120.833 45.7298 120.782 45.7683 120.723 45.7941C120.665 45.8198 120.602 45.8322 120.539 45.8303Z" fill="#F6AB36"/>
<path d="M104.174 49.6021L104.963 50.8539C104.977 50.8761 104.995 50.8951 105.017 50.9097C105.038 50.9242 105.063 50.934 105.089 50.9383L106.499 51.1398C106.529 51.1422 106.557 51.1522 106.581 51.169C106.606 51.1857 106.625 51.2085 106.638 51.2352C106.651 51.2618 106.656 51.2913 106.654 51.3208C106.652 51.3502 106.642 51.3786 106.625 51.403L105.757 52.3777C105.742 52.3963 105.731 52.4186 105.727 52.4424C105.723 52.4663 105.724 52.4908 105.732 52.5137L106.155 53.8915C106.165 53.9183 106.166 53.9473 106.158 53.9746C106.15 54.0019 106.134 54.0261 106.112 54.0439C106.09 54.0618 106.063 54.0723 106.035 54.0741C106.006 54.0759 105.978 54.0688 105.954 54.0539L104.629 53.4041C104.607 53.3923 104.582 53.3862 104.557 53.3862C104.532 53.3862 104.508 53.3923 104.486 53.4041L103.334 54.0514C103.307 54.0643 103.277 54.07 103.247 54.0681C103.218 54.0661 103.189 54.0566 103.163 54.0403C103.138 54.024 103.117 54.0016 103.103 53.9751C103.089 53.9486 103.082 53.919 103.083 53.889L103.132 52.5112C103.132 52.4853 103.126 52.4597 103.115 52.4362C103.105 52.4127 103.089 52.3919 103.069 52.3752L101.935 51.4005C101.911 51.3848 101.892 51.3623 101.881 51.3358C101.87 51.3094 101.867 51.2802 101.872 51.252C101.878 51.2238 101.891 51.1978 101.912 51.1774C101.932 51.1569 101.958 51.143 101.986 51.1373L103.34 50.9358C103.363 50.9332 103.386 50.924 103.405 50.909C103.423 50.8941 103.438 50.8741 103.445 50.8514L103.892 49.5996C103.905 49.5722 103.924 49.5489 103.95 49.5326C103.975 49.5164 104.004 49.5079 104.034 49.5081C104.064 49.5084 104.094 49.5174 104.118 49.5341C104.143 49.5508 104.163 49.5745 104.174 49.6021Z" fill="#F6AB36"/>
<path d="M112.845 49.6016L113.635 50.8534C113.648 50.8758 113.667 50.895 113.688 50.9096C113.71 50.9242 113.735 50.9338 113.761 50.9378L115.17 51.1393C115.199 51.1416 115.228 51.1517 115.252 51.1684C115.276 51.1852 115.296 51.208 115.309 51.2346C115.321 51.2613 115.327 51.2908 115.325 51.3203C115.322 51.3497 115.313 51.3781 115.296 51.4025L114.428 52.3772C114.412 52.3956 114.402 52.4179 114.397 52.4418C114.393 52.4657 114.395 52.4903 114.403 52.5132L114.826 53.891C114.836 53.9177 114.836 53.9468 114.829 53.9741C114.821 54.0014 114.805 54.0256 114.783 54.0434C114.761 54.0612 114.734 54.0718 114.705 54.0736C114.677 54.0753 114.649 54.0683 114.625 54.0534L113.3 53.4036C113.278 53.3918 113.253 53.3856 113.228 53.3856C113.203 53.3856 113.178 53.3918 113.156 53.4036L112.005 54.0509C111.978 54.0627 111.949 54.0676 111.92 54.0651C111.891 54.0626 111.863 54.0529 111.838 54.0367C111.814 54.0205 111.794 53.9985 111.78 53.9726C111.766 53.9467 111.759 53.9177 111.76 53.8884L111.807 52.5107C111.808 52.4847 111.803 52.459 111.792 52.4354C111.781 52.4119 111.765 52.3911 111.745 52.3747L110.611 51.4C110.587 51.3843 110.568 51.3619 110.557 51.3356C110.546 51.3092 110.542 51.2801 110.548 51.2519C110.553 51.2237 110.566 51.1977 110.586 51.1772C110.606 51.1567 110.632 51.1426 110.66 51.1367L112.015 50.9352C112.039 50.9325 112.061 50.9231 112.08 50.9082C112.098 50.8932 112.112 50.8734 112.12 50.8509L112.568 49.5991C112.581 49.5731 112.601 49.5512 112.625 49.536C112.65 49.5208 112.679 49.5129 112.707 49.5131C112.736 49.5134 112.765 49.5218 112.789 49.5375C112.813 49.5531 112.833 49.5754 112.845 49.6016Z" fill="#F6AB36"/>
<path d="M121.517 49.6017L122.306 50.8535C122.319 50.8758 122.338 50.8948 122.359 50.9094C122.381 50.9239 122.406 50.9337 122.431 50.9379L123.841 51.1394C123.87 51.1414 123.899 51.1512 123.923 51.1679C123.948 51.1845 123.968 51.2074 123.981 51.2342C123.993 51.261 123.999 51.2907 123.996 51.3203C123.994 51.3499 123.984 51.3783 123.967 51.4026L123.1 52.3773C123.084 52.3958 123.074 52.418 123.069 52.4419C123.064 52.4657 123.066 52.4903 123.074 52.5133L123.498 53.8911C123.508 53.918 123.509 53.9473 123.501 53.9749C123.493 54.0024 123.477 54.0269 123.455 54.0448C123.433 54.0627 123.405 54.0732 123.377 54.0748C123.348 54.0763 123.32 54.0689 123.295 54.0535L121.971 53.4037C121.948 53.3919 121.924 53.3857 121.899 53.3857C121.874 53.3857 121.849 53.3919 121.827 53.4037L120.677 54.051C120.65 54.0628 120.621 54.0677 120.592 54.0652C120.563 54.0627 120.534 54.053 120.51 54.0368C120.486 54.0206 120.466 53.9986 120.452 53.9727C120.438 53.9468 120.431 53.9179 120.432 53.8886L120.479 52.5108C120.48 52.4849 120.475 52.4591 120.464 52.4356C120.453 52.412 120.437 52.3912 120.416 52.3748L119.283 51.4001C119.259 51.3844 119.24 51.3619 119.229 51.3354C119.218 51.309 119.215 51.2798 119.22 51.2516C119.225 51.2233 119.239 51.1974 119.259 51.177C119.279 51.1565 119.305 51.1426 119.333 51.1369L120.689 50.9354C120.712 50.9326 120.734 50.9232 120.753 50.9083C120.771 50.8933 120.785 50.8735 120.793 50.851L121.24 49.5992C121.253 49.5736 121.273 49.5521 121.298 49.5372C121.322 49.5223 121.351 49.5146 121.379 49.5148C121.408 49.5151 121.436 49.5234 121.461 49.5387C121.485 49.554 121.505 49.5759 121.517 49.6017Z" fill="#F6AB36"/>
<path d="M130.189 49.6021L130.977 50.8539C130.991 50.8761 131.01 50.8951 131.031 50.9097C131.053 50.9242 131.078 50.934 131.103 50.9383L132.514 51.1398C132.543 51.1422 132.572 51.1522 132.596 51.169C132.62 51.1857 132.64 51.2085 132.653 51.2352C132.665 51.2618 132.671 51.2913 132.669 51.3208C132.666 51.3502 132.656 51.3786 132.64 51.403L131.772 52.3777C131.757 52.3963 131.746 52.4186 131.742 52.4424C131.737 52.4663 131.739 52.4908 131.747 52.5137L132.17 53.8915C132.18 53.919 132.181 53.949 132.173 53.9771C132.165 54.0053 132.148 54.0301 132.125 54.048C132.102 54.0659 132.074 54.0759 132.044 54.0765C132.015 54.0771 131.986 54.0683 131.962 54.0514L130.637 53.4016C130.615 53.3898 130.591 53.3836 130.566 53.3836C130.541 53.3836 130.516 53.3898 130.494 53.4016L129.349 54.0514C129.322 54.0643 129.292 54.07 129.262 54.0681C129.232 54.0661 129.203 54.0566 129.178 54.0403C129.153 54.024 129.132 54.0016 129.118 53.9751C129.104 53.9486 129.097 53.919 129.097 53.889L129.146 52.5112C129.146 52.4854 129.141 52.4598 129.13 52.4364C129.119 52.4129 129.103 52.392 129.083 52.3752L127.95 51.4005C127.926 51.3849 127.907 51.3625 127.896 51.3361C127.884 51.3098 127.881 51.2806 127.886 51.2524C127.892 51.2243 127.905 51.1983 127.925 51.1778C127.945 51.1573 127.971 51.1432 127.999 51.1373L129.354 50.9358C129.378 50.933 129.4 50.9236 129.419 50.9087C129.437 50.8938 129.451 50.8739 129.459 50.8514L129.907 49.5996C129.919 49.5722 129.939 49.5489 129.964 49.5326C129.989 49.5164 130.019 49.5079 130.049 49.5081C130.079 49.5084 130.108 49.5174 130.133 49.5341C130.158 49.5508 130.177 49.5745 130.189 49.6021Z" fill="white"/>
<path d="M145.667 60.8166H94.5593C94.4541 60.814 94.3531 60.7749 94.2736 60.706C94.1941 60.637 94.1411 60.5426 94.1236 60.4388L93.8037 58.1405C93.7961 58.0931 93.799 58.0447 93.8123 57.9985C93.8256 57.9524 93.8488 57.9098 93.8805 57.8737C93.9121 57.8377 93.9513 57.809 93.9953 57.7898C94.0393 57.7706 94.0869 57.7614 94.1349 57.7627H145.25C145.355 57.7651 145.456 57.8041 145.536 57.8731C145.615 57.9421 145.668 58.0367 145.685 58.1405L145.998 60.4338C146.006 60.4816 146.004 60.5306 145.991 60.5773C145.978 60.6241 145.955 60.6674 145.923 60.704C145.892 60.7407 145.852 60.7698 145.808 60.7893C145.763 60.8088 145.715 60.8181 145.667 60.8166Z" fill="#F6AB36"/>
<path d="M146.367 65.9523H95.2559C95.1507 65.9495 95.0499 65.9102 94.9704 65.8413C94.891 65.7725 94.8378 65.6782 94.8201 65.5745L94.5078 63.2825C94.5002 63.2351 94.5031 63.1866 94.5164 63.1405C94.5297 63.0944 94.5529 63.0518 94.5846 63.0157C94.6162 62.9796 94.6554 62.951 94.6994 62.9318C94.7434 62.9126 94.791 62.9033 94.839 62.9047H145.95C146.055 62.9073 146.156 62.9464 146.236 63.0154C146.315 63.0843 146.368 63.1787 146.386 63.2825L146.698 65.5745C146.705 65.6219 146.702 65.6702 146.689 65.7163C146.676 65.7623 146.652 65.8048 146.621 65.8408C146.589 65.8769 146.55 65.9055 146.506 65.9248C146.462 65.944 146.415 65.9534 146.367 65.9523Z" fill="#F6AB36"/>
<path d="M121.965 71.0863H96.1134C95.9638 71.0817 95.8204 71.0251 95.708 70.9263C95.5956 70.8274 95.5212 70.6925 95.4976 70.5447L95.2293 68.5701C95.2178 68.5031 95.2212 68.4344 95.2393 68.3688C95.2574 68.3033 95.2898 68.2426 95.334 68.191C95.3783 68.1394 95.4334 68.0982 95.4954 68.0703C95.5574 68.0425 95.6248 68.0286 95.6928 68.0298H121.549C121.699 68.0339 121.842 68.0905 121.955 68.1897C122.067 68.2889 122.142 68.4243 122.164 68.5726L122.434 70.5485C122.445 70.6157 122.441 70.6846 122.423 70.7502C122.404 70.8158 122.371 70.8764 122.326 70.9278C122.282 70.9792 122.226 71.0201 122.164 71.0475C122.101 71.0749 122.034 71.0881 121.965 71.0863Z" fill="#F6AB36"/>
<path d="M235.071 70.2071H173.568C173.102 70.1917 172.656 70.0171 172.304 69.7125C171.952 69.4079 171.714 68.9917 171.632 68.5334L169.312 53.843C169.167 52.9186 169.798 52.1693 170.723 52.1693H232.226C232.692 52.1842 233.139 52.3585 233.491 52.6631C233.844 52.9677 234.082 53.3843 234.164 53.843L236.48 68.5334C236.626 69.4578 235.995 70.2071 235.071 70.2071Z" fill="#F9C438"/>
<path d="M178.77 60.7775C178.524 60.6069 178.314 60.3894 178.153 60.1373C177.991 59.8853 177.881 59.6038 177.829 59.3091C177.666 58.2713 178.375 57.4288 179.412 57.4288C180.45 57.4288 181.427 58.2713 181.59 59.3091C181.64 59.5741 181.622 59.8474 181.539 60.104C181.456 60.3606 181.31 60.5921 181.114 60.7775C182.073 61.0192 182.959 61.4934 183.692 62.1582C184.424 62.823 184.982 63.658 185.316 64.5895C185.829 63.5861 186.002 62.4431 185.809 61.3328C185.305 58.1404 182.309 55.5536 179.116 55.5536C175.924 55.5536 173.747 58.1404 174.25 61.3328C174.451 62.5365 174.977 63.6625 175.77 64.5895C175.827 62.7219 177.011 61.2296 178.77 60.7775Z" fill="#F6AB36"/>
<path d="M180.941 67.1106C182.925 67.1106 184.517 66.112 185.316 64.5919C184.982 63.6604 184.424 62.8254 183.692 62.1606C182.959 61.4958 182.073 61.0216 181.114 60.7798C181.31 60.5945 181.456 60.3629 181.539 60.1064C181.622 59.8498 181.64 59.5765 181.59 59.3114C181.426 58.2737 180.456 57.4312 179.412 57.4312C178.368 57.4312 177.666 58.2737 177.829 59.3114C177.882 59.6062 177.991 59.8877 178.153 60.1397C178.314 60.3918 178.524 60.6093 178.77 60.7798C177.007 61.2332 175.827 62.7243 175.77 64.5919C177.047 66.112 178.958 67.1106 180.941 67.1106Z" fill="white"/>
<path d="M229.527 60.3592H192.83C192.607 60.3523 192.394 60.2692 192.225 60.1239C192.057 59.9785 191.943 59.7797 191.904 59.5607L191.335 55.9539C191.314 55.8555 191.317 55.7538 191.342 55.6564C191.366 55.5591 191.413 55.4686 191.477 55.3917C191.542 55.3149 191.623 55.2537 191.715 55.2128C191.807 55.1719 191.907 55.1523 192.007 55.1555H228.706C228.928 55.1628 229.141 55.246 229.31 55.3913C229.478 55.5366 229.592 55.7351 229.632 55.9539L230.201 59.5607C230.221 59.6592 230.219 59.7611 230.194 59.8585C230.169 59.956 230.123 60.0466 230.058 60.1234C229.993 60.2003 229.911 60.2614 229.82 60.3023C229.728 60.3431 229.628 60.3625 229.527 60.3592Z" fill="#F6AB36"/>
<path d="M230.612 67.223H193.913C193.69 67.2161 193.477 67.1328 193.308 66.9872C193.14 66.8416 193.026 66.6425 192.987 66.4233L192.418 62.8177C192.398 62.7193 192.4 62.6175 192.425 62.5201C192.449 62.4227 192.496 62.3321 192.561 62.2552C192.625 62.1783 192.706 62.117 192.798 62.0759C192.89 62.0348 192.99 62.0151 193.09 62.0181H229.789C230.012 62.025 230.225 62.1082 230.394 62.2538C230.562 62.3994 230.676 62.5985 230.715 62.8177L231.284 66.4233C231.304 66.5218 231.302 66.6235 231.277 66.7209C231.252 66.8184 231.206 66.9089 231.141 66.9859C231.077 67.0628 230.995 67.1241 230.904 67.1651C230.812 67.2062 230.712 67.226 230.612 67.223Z" fill="#F6AB36"/>
<path d="M196.595 58.5953C196.897 58.2684 196.832 57.7163 196.449 57.3623C196.066 57.0083 195.51 56.9863 195.208 57.3133C194.906 57.6402 194.972 58.1922 195.355 58.5462C195.738 58.9003 196.293 58.9222 196.595 58.5953Z" fill="#F9C438"/>
<path d="M201.036 57.9675C201.058 58.0751 201.055 58.1863 201.028 58.2928C201.001 58.3993 200.95 58.4982 200.879 58.5822C200.809 58.6662 200.72 58.7331 200.619 58.7778C200.519 58.8225 200.41 58.8438 200.3 58.8402C200.058 58.8317 199.826 58.7405 199.642 58.5817C199.459 58.4229 199.336 58.2062 199.293 57.9675C199.271 57.86 199.273 57.7489 199.3 57.6426C199.328 57.5363 199.378 57.4375 199.449 57.3536C199.52 57.2698 199.609 57.203 199.709 57.1584C199.809 57.1138 199.918 57.0925 200.028 57.096C200.27 57.1045 200.502 57.1956 200.685 57.3541C200.869 57.5126 200.992 57.7291 201.036 57.9675Z" fill="#F9C438"/>
<path d="M205.108 58.5987C205.41 58.2717 205.344 57.7197 204.961 57.3657C204.578 57.0117 204.023 56.9897 203.721 57.3166C203.419 57.6435 203.484 58.1956 203.867 58.5496C204.25 58.9036 204.806 58.9256 205.108 58.5987Z" fill="#F9C438"/>
<path d="M209.362 58.5962C209.664 58.2692 209.599 57.7172 209.216 57.3632C208.833 57.0092 208.277 56.9872 207.975 57.3141C207.673 57.641 207.739 58.1931 208.122 58.5471C208.505 58.9011 209.06 58.9231 209.362 58.5962Z" fill="#F9C438"/>
<path d="M213.617 58.5944C213.919 58.2675 213.853 57.7155 213.47 57.3615C213.087 57.0075 212.532 56.9855 212.23 57.3124C211.927 57.6393 211.993 58.1914 212.376 58.5454C212.759 58.8994 213.315 58.9214 213.617 58.5944Z" fill="#F9C438"/>
<path d="M217.87 58.5945C218.173 58.2675 218.107 57.7155 217.724 57.3615C217.341 57.0075 216.785 56.9855 216.483 57.3124C216.181 57.6393 216.247 58.1914 216.63 58.5454C217.013 58.8994 217.568 58.9214 217.87 58.5945Z" fill="#F9C438"/>
<path d="M222.129 58.6012C222.431 58.2742 222.365 57.7222 221.982 57.3682C221.599 57.0142 221.043 56.9922 220.741 57.3191C220.439 57.646 220.505 58.1981 220.888 58.5521C221.271 58.9061 221.826 58.9281 222.129 58.6012Z" fill="#F9C438"/>
<path d="M226.383 58.5978C226.685 58.2709 226.62 57.7189 226.236 57.3648C225.853 57.0108 225.298 56.9888 224.996 57.3158C224.694 57.6427 224.759 58.1947 225.142 58.5487C225.526 58.9028 226.081 58.9247 226.383 58.5978Z" fill="#F9C438"/>
<path d="M197.65 65.2541C197.952 64.9272 197.886 64.3752 197.503 64.0211C197.12 63.6671 196.564 63.6451 196.262 63.9721C195.96 64.299 196.026 64.851 196.409 65.205C196.792 65.5591 197.348 65.581 197.65 65.2541Z" fill="#F9C438"/>
<path d="M202.086 64.6209C202.108 64.7284 202.105 64.8394 202.078 64.9458C202.051 65.0521 202 65.1509 201.929 65.2347C201.858 65.3186 201.769 65.3853 201.669 65.4299C201.569 65.4745 201.46 65.4959 201.35 65.4923C201.108 65.4839 200.876 65.3928 200.693 65.2343C200.51 65.0757 200.386 64.8593 200.343 64.6209C200.321 64.5133 200.323 64.402 200.35 64.2956C200.377 64.1891 200.428 64.0901 200.499 64.0061C200.57 63.9221 200.659 63.8553 200.759 63.8106C200.859 63.7659 200.968 63.7445 201.078 63.7481C201.321 63.7567 201.553 63.8479 201.736 64.0067C201.919 64.1655 202.043 64.3822 202.086 64.6209Z" fill="#F9C438"/>
<path d="M206.34 64.6208C206.362 64.7283 206.36 64.8393 206.333 64.9456C206.306 65.052 206.255 65.1508 206.184 65.2347C206.114 65.3186 206.025 65.3853 205.925 65.43C205.824 65.4746 205.715 65.4959 205.606 65.4923C205.363 65.4841 205.131 65.3931 204.948 65.2345C204.765 65.0759 204.641 64.8594 204.598 64.6208C204.576 64.5133 204.579 64.4022 204.606 64.2958C204.633 64.1895 204.683 64.0906 204.754 64.0066C204.825 63.9226 204.913 63.8557 205.013 63.811C205.114 63.7662 205.223 63.7447 205.332 63.7481C205.575 63.7562 205.807 63.8472 205.991 64.0061C206.174 64.165 206.297 64.382 206.34 64.6208Z" fill="#F9C438"/>
<path d="M210.595 64.6208C210.617 64.7283 210.615 64.8393 210.588 64.9456C210.561 65.052 210.51 65.1508 210.44 65.2347C210.369 65.3186 210.28 65.3853 210.18 65.43C210.08 65.4746 209.971 65.4959 209.861 65.4923C209.619 65.4843 209.387 65.3934 209.203 65.2348C209.02 65.0762 208.896 64.8595 208.854 64.6208C208.831 64.5133 208.834 64.4022 208.861 64.2958C208.888 64.1895 208.939 64.0906 209.009 64.0066C209.08 63.9226 209.169 63.8557 209.269 63.811C209.369 63.7662 209.478 63.7447 209.588 63.7481C209.83 63.7562 210.063 63.8472 210.246 64.0061C210.429 64.165 210.553 64.382 210.595 64.6208Z" fill="#F9C438"/>
<path d="M214.851 64.6208C214.873 64.7283 214.87 64.8393 214.843 64.9456C214.816 65.052 214.766 65.1508 214.695 65.2347C214.624 65.3186 214.535 65.3853 214.435 65.43C214.335 65.4746 214.226 65.4959 214.116 65.4923C213.874 65.4843 213.642 65.3934 213.459 65.2348C213.275 65.0762 213.152 64.8595 213.109 64.6208C213.087 64.5133 213.089 64.4022 213.116 64.2958C213.143 64.1895 213.194 64.0906 213.265 64.0066C213.335 63.9226 213.424 63.8557 213.524 63.811C213.624 63.7662 213.733 63.7447 213.843 63.7481C214.086 63.7562 214.318 63.8472 214.501 64.0061C214.685 64.165 214.808 64.382 214.851 64.6208Z" fill="#F9C438"/>
<path d="M219.11 64.6209C219.132 64.7283 219.129 64.8392 219.102 64.9455C219.075 65.0517 219.024 65.1504 218.953 65.2342C218.883 65.3181 218.794 65.3848 218.694 65.4295C218.594 65.4742 218.485 65.4957 218.376 65.4923C218.133 65.4843 217.901 65.3934 217.718 65.2348C217.534 65.0762 217.411 64.8595 217.368 64.6209C217.346 64.5134 217.348 64.4022 217.375 64.2957C217.402 64.1892 217.452 64.0902 217.523 64.0062C217.594 63.9221 217.683 63.8552 217.783 63.8105C217.883 63.7658 217.992 63.7445 218.102 63.7481C218.345 63.7562 218.577 63.8473 218.76 64.0061C218.944 64.165 219.067 64.382 219.11 64.6209Z" fill="#F9C438"/>
<path d="M223.361 64.6209C223.383 64.7283 223.381 64.8392 223.353 64.9455C223.326 65.0517 223.276 65.1504 223.205 65.2342C223.134 65.3181 223.046 65.3848 222.946 65.4295C222.846 65.4742 222.737 65.4957 222.627 65.4923C222.385 65.4843 222.153 65.3934 221.969 65.2348C221.786 65.0762 221.662 64.8595 221.62 64.6209C221.597 64.5134 221.6 64.4022 221.626 64.2957C221.653 64.1892 221.704 64.0902 221.775 64.0062C221.845 63.9221 221.934 63.8552 222.035 63.8105C222.135 63.7658 222.244 63.7445 222.354 63.7481C222.596 63.7567 222.828 63.8479 223.012 64.0067C223.195 64.1655 223.318 64.3822 223.361 64.6209Z" fill="#F9C438"/>
<path d="M227.617 64.6209C227.639 64.7284 227.636 64.8394 227.609 64.9458C227.582 65.0521 227.531 65.1509 227.46 65.2347C227.389 65.3186 227.301 65.3853 227.2 65.4299C227.1 65.4745 226.991 65.4959 226.881 65.4923C226.639 65.4839 226.407 65.3928 226.224 65.2343C226.041 65.0757 225.917 64.8593 225.874 64.6209C225.852 64.5133 225.854 64.402 225.881 64.2956C225.908 64.1891 225.959 64.0901 226.03 64.0061C226.101 63.9221 226.19 63.8553 226.29 63.8106C226.39 63.7659 226.5 63.7445 226.609 63.7481C226.852 63.7567 227.084 63.8479 227.267 64.0067C227.45 64.1655 227.574 64.3822 227.617 64.6209Z" fill="#F9C438"/>
<path d="M213.761 41.0646C213.682 40.9856 213.622 40.8883 213.589 40.7812C213.555 40.6741 213.548 40.5604 213.569 40.45C213.979 38.0572 217.075 25.412 225.7 21.5596C233.773 17.9541 243.633 10.8261 245 10.0453C246.366 9.26452 248.861 18.8256 250.227 19.216C251.594 19.6064 257.685 23.4046 258.234 24.8831C258.783 26.3616 238.21 33.2754 236.508 36.9855C234.805 40.6956 232.29 49.2882 231.3 49.6786C230.311 50.069 222.399 47.9155 220.985 47.3349C219.74 46.8261 214.93 42.1992 213.761 41.0646Z" fill="#7DB9F9"/>
<path d="M214.759 40.0721C214.759 40.0721 217.843 28.6926 222.894 24.9447C227.945 21.1969 231.206 20.3821 234.898 18.1014C238.591 15.8207 244.838 11.2568 245.002 11.5829C245.166 11.9091 248.206 19.459 248.696 19.731C249.186 20.003 257.06 24.4561 257.169 24.8339C257.277 25.2117 237.451 31.841 235.659 35.6971C233.867 39.5533 231.477 48.462 230.988 48.6798C230.499 48.8977 221.529 46.4848 220.932 46.1057C220.335 45.7266 214.274 40.1779 214.759 40.0721Z" fill="#97C7FA"/>
<mask id="mask4_603_2227" style="mask-type:luminance" maskUnits="userSpaceOnUse" x="214" y="11" width="44" height="38">
<path d="M214.759 40.0745C214.759 40.0745 217.843 28.695 222.894 24.9471C227.946 21.1993 231.206 20.3845 234.899 18.1038C238.591 15.8231 244.839 11.2591 245.002 11.5853C245.166 11.9115 248.206 19.4613 248.696 19.7334C249.186 20.0054 257.061 24.4585 257.169 24.8363C257.277 25.2141 237.451 31.8433 235.659 35.6995C233.867 39.5557 231.477 48.4643 230.988 48.6822C230.5 48.9001 221.529 46.4872 220.932 46.1081C220.335 45.729 214.274 40.1803 214.759 40.0745Z" fill="white"/>
</mask>
<g mask="url(#mask4_603_2227)">
<path opacity="0.24" d="M243.277 10.5098L248.385 32.4213L239.005 38.8365L236.344 24.7292L236.502 41.2519L233.897 49.7325L223.588 33.2651L228.48 50.7248L218.944 46.9165L215.322 31.3144L221.438 21.6551L229.158 31.1846L226.744 18.8694L235.95 13.0184L239.747 22.3981L238.634 11.5638L243.277 10.5098Z" fill="#F6F9FF"/>
</g>
<path d="M231.789 24.2889C231.671 24.3267 231.556 24.3657 231.446 24.406C229.61 25.0848 228.61 26.7698 228.49 28.6803C228.434 29.5618 228.638 30.4723 229.158 31.1826C229.788 32.0377 230.884 32.4873 231.929 32.4105C233.106 32.3261 233.995 31.3086 234.745 30.5076C235.464 29.7394 236.604 29.3188 237.012 28.2861C237.475 27.1174 237.252 25.6213 236.345 24.7272C235.129 23.5282 233.266 23.8179 231.789 24.2889Z" fill="#82B378"/>
<path d="M99.8325 125.052C100.409 124.386 100.251 123.303 99.4779 122.634C98.7051 121.964 97.6109 121.962 97.0339 122.628C96.457 123.294 96.6157 124.376 97.3885 125.046C98.1613 125.715 99.2555 125.718 99.8325 125.052Z" fill="#D4DFFF"/>
<path d="M106.851 123.849C106.891 124.062 106.882 124.281 106.826 124.49C106.77 124.7 106.667 124.894 106.526 125.058C106.385 125.222 106.208 125.353 106.009 125.439C105.811 125.526 105.595 125.567 105.379 125.559C104.902 125.547 104.444 125.37 104.083 125.058C103.721 124.747 103.479 124.32 103.396 123.85C103.357 123.637 103.365 123.418 103.422 123.209C103.478 123 103.581 122.806 103.722 122.642C103.863 122.477 104.04 122.347 104.238 122.26C104.437 122.173 104.652 122.132 104.869 122.14C105.346 122.152 105.804 122.329 106.165 122.64C106.526 122.952 106.769 123.379 106.851 123.849Z" fill="#D4DFFF"/>
<path d="M256.513 36.24C258.885 36.6946 264.289 37.8469 265.844 38.5068C266.474 38.7725 267.842 39.7662 270.805 42.9763C271.745 43.9951 274.345 47.1322 274.807 47.6686C275.379 48.3285 274.681 48.0124 272.666 49.87C272.394 50.1219 271.976 50.3863 271.843 50.5299C271.717 51.147 271.25 53.1443 271.229 53.2337L271.039 54.0498L270.329 53.6053C269.805 53.2766 268.893 52.5751 267.837 51.7641C265.876 50.2528 262.914 47.9797 261.918 47.7895C261.495 47.7077 260.524 47.5553 259.399 47.3777C257.524 47.083 255.19 46.7153 253.469 46.3854C252.762 46.2506 252.23 46.1335 251.842 46.034C251.295 45.8904 250.898 45.7607 250.767 45.3892C250.73 45.2845 250.721 45.1718 250.742 45.0625C250.762 44.9533 250.811 44.8513 250.883 44.7671C251.276 44.3049 253.014 41.9751 253.228 41.4575C253.281 41.2887 253.323 40.5923 253.354 40.0319C253.396 39.3443 253.442 38.5647 253.536 37.891C253.661 36.9553 253.857 36.439 254.174 36.1644C254.261 36.0872 254.362 36.0284 254.472 35.9914C254.582 35.9543 254.698 35.94 254.814 35.9491C255.103 35.9768 255.896 36.1229 256.513 36.24Z" fill="#7DB9F9"/>
<path d="M270.64 53.1005C269.089 52.1271 263.699 47.5254 262.022 47.2042C260.346 46.8831 250.979 45.5671 251.333 45.1565C251.687 44.746 253.522 42.3129 253.779 41.6769C254.036 41.0409 253.868 36.4745 254.761 36.5488C255.654 36.6231 263.735 38.2615 265.609 39.0575C267.483 39.8534 273.65 46.9322 273.901 47.65C274.151 48.3679 271.357 49.8602 271.267 50.3249C271.178 50.7896 270.64 53.1005 270.64 53.1005Z" fill="#97C7FA"/>
<mask id="mask5_603_2227" style="mask-type:luminance" maskUnits="userSpaceOnUse" x="251" y="36" width="23" height="18">
<path d="M270.64 53.0997C269.089 52.1262 263.699 47.5245 262.022 47.2034C260.346 46.8822 250.979 45.5662 251.333 45.1557C251.687 44.7451 253.522 42.312 253.779 41.6761C254.036 41.0401 253.868 36.4737 254.761 36.548C255.654 36.6223 263.735 38.2607 265.609 39.0566C267.483 39.8525 273.65 46.9314 273.901 47.6492C274.151 48.367 271.357 49.8594 271.267 50.3241C271.178 50.7888 270.64 53.0997 270.64 53.0997Z" fill="white"/>
</mask>
<g mask="url(#mask5_603_2227)">
<path opacity="0.24" d="M267.847 51.342C267.847 51.342 274.662 47.5023 274.557 47.3763C274.451 47.2504 272.737 44.3236 272.097 44.4571C271.457 44.5906 266.833 46.6623 266.833 46.6623C266.833 46.6623 270.849 43.7796 270.825 43.3779C270.801 42.9761 268.125 40.038 267.537 40.1174C266.949 40.1967 263.672 42.3389 263.672 42.3389C263.672 42.3389 265.456 38.0986 264.545 37.7813C263.633 37.4639 260.729 36.9312 260.729 36.9312C260.729 36.9312 251.964 46.3235 252.194 46.4872C252.425 46.6509 256.748 47.5023 257 47.4305C257.252 47.3587 261.454 43.6083 261.454 43.6083C261.454 43.6083 259.089 47.7352 259.422 47.9909C259.754 48.2465 263.287 49.1117 263.392 49.1797C263.498 49.2477 268.304 47.5917 268.304 47.5917C268.304 47.5917 265.703 49.8371 266.152 50.2363C266.6 50.6355 267.847 51.342 267.847 51.342Z" fill="#F6F9FF"/>
</g>
<path d="M260.92 43.2751C261.103 42.3192 262.252 41.7374 263.487 41.9729C264.722 42.2084 266.459 43.707 265.559 44.8933C264.97 45.6679 263.768 45.0105 262.536 44.775C261.305 44.5395 260.734 44.2284 260.92 43.2751Z" fill="#7DB9F9"/>
<path d="M0.348818 188H359.651C359.743 188 359.832 187.947 359.897 187.854C359.963 187.76 360 187.633 360 187.501C360 187.368 359.963 187.241 359.897 187.147C359.832 187.053 359.744 187 359.651 187H0.348818C0.256408 187 0.16788 187.053 0.102536 187.147C0.0371925 187.241 0.000334214 187.368 0 187.501C0.00033561 187.633 0.037234 187.76 0.102614 187.854C0.167993 187.947 0.256525 188 0.348818 188Z" fill="#493260"/>
<path d="M156.736 46H175.63C175.825 46 176.012 46.0775 176.15 46.2154C176.288 46.3534 176.366 46.5405 176.366 46.7356C176.366 46.9307 176.288 47.1178 176.15 47.2557C176.012 47.3937 175.825 47.4712 175.63 47.4712H156.736C156.54 47.4712 156.353 47.3937 156.215 47.2557C156.078 47.1178 156 46.9307 156 46.7356C156 46.5405 156.078 46.3534 156.215 46.2154C156.353 46.0775 156.54 46 156.736 46Z" fill="#4A75CB"/>
</g>
<defs>
<clipPath id="clip0_603_2227">
<rect width="360" height="188" fill="white"/>
</clipPath>
</defs>
</svg>
