<svg width="555" height="401" viewBox="0 0 555 401" fill="none" xmlns="http://www.w3.org/2000/svg">
<g clip-path="url(#clip0_410_2816)">
<path d="M485.604 376.73L484.9 376.299C525.094 310.935 546.04 251.875 547.155 200.755C548.31 147.894 527.811 115.573 510.415 97.7659C493.706 80.6652 471.834 68.7703 448.824 64.2545C427.257 60.0374 406.138 62.715 390.899 71.6038L390.481 70.8871C405.893 61.8988 427.217 59.1814 448.98 63.4383C472.156 67.9707 494.184 79.9485 511.026 97.1687C528.535 115.086 549.162 147.602 548.001 200.755C546.866 252.035 525.877 311.234 485.604 376.73Z" fill="#E5E5FF"/>
<path opacity="0.4" d="M517.824 145.09C499.054 104.425 462.59 72.6391 417.234 67.118C381.045 62.7084 344.653 62.1212 308.308 59.9014C269.953 57.5789 232.397 50.4453 194.502 44.2075C170.162 40.1994 148.844 46.1286 125.253 54.6723C93.029 66.3615 61.8801 104.11 47.8351 134.303C13.9919 207.056 32.6787 298.566 62.5105 369.46C63.9737 372.934 74.0503 400.57 77.0697 400.57H471.665C495.471 365.658 514.981 327.243 525.814 287.613C538.684 240.505 538.548 189.985 517.824 145.09Z" fill="#F0EBF4"/>
<path d="M37.7615 291.203C22.2667 242.884 15.4449 200.878 17.4855 166.335C19.181 137.605 27.0047 113.745 40.7311 95.4136C72.192 53.4281 124.735 54.2444 125.263 54.2576L125.243 55.0871C124.732 55.0871 72.5835 54.261 41.3914 95.918C27.7612 114.117 19.9972 137.83 18.3117 166.395C16.2811 200.832 23.0895 242.738 38.5512 290.951L37.7615 291.203Z" fill="#E5E5FF"/>
<path d="M416.968 0.984558H133.814C128.17 0.984558 123.594 5.5599 123.594 11.2039V286.631C123.594 292.275 128.17 296.85 133.814 296.85H416.968C422.612 296.85 427.188 292.275 427.188 286.631V11.2039C427.188 5.5599 422.612 0.984558 416.968 0.984558Z" fill="#F0EBF4"/>
<path d="M416.965 297.265H133.813C130.997 297.257 128.298 296.134 126.308 294.141C124.319 292.148 123.199 289.447 123.196 286.631V11.2071C123.198 8.39012 124.317 5.689 126.307 3.69524C128.297 1.70149 130.996 0.577601 133.813 0.569702H416.965C419.785 0.572338 422.489 1.6939 424.484 3.68823C426.478 5.68255 427.599 8.38668 427.602 11.2071V286.631C427.599 289.451 426.477 292.154 424.482 294.148C422.488 296.141 419.784 297.262 416.965 297.265ZM133.813 1.39919C131.213 1.40271 128.721 2.43727 126.883 4.27594C125.045 6.11461 124.011 8.60725 124.009 11.2071V286.631C124.012 289.23 125.046 291.722 126.884 293.56C128.722 295.398 131.214 296.432 133.813 296.435H416.965C419.564 296.433 422.057 295.399 423.896 293.561C425.735 291.723 426.769 289.231 426.773 286.631V11.2071C426.77 8.60668 425.736 6.11353 423.897 4.27476C422.058 2.436 419.565 1.40183 416.965 1.39919H133.813Z" fill="#CEBFDD"/>
<path d="M392.349 35.4547H327.648V40.1761H392.349V35.4547Z" fill="#9881AE"/>
<path d="M410.412 55.7773H307.326V60.4987H410.412V55.7773Z" fill="#E7DFEE"/>
<path d="M400.173 69.7391H307.326V74.4606H400.173V69.7391Z" fill="#E7DFEE"/>
<path d="M389.512 83.7044H307.326V88.4259H389.512V83.7044Z" fill="#CEBFDD"/>
<path d="M410.412 97.6665H307.326V102.388H410.412V97.6665Z" fill="#CEBFDD"/>
<path d="M383.42 111.628H307.326V116.35H383.42V111.628Z" fill="#CEBFDD"/>
<path d="M244.418 188.22H145.479V192.942H244.418V188.22Z" fill="#E7DFEE"/>
<path d="M401.579 201.077H145.761V205.799H401.579V201.077Z" fill="#CEBFDD"/>
<path d="M264.78 35.4547H145.635V161.547H264.78V35.4547Z" fill="white"/>
<path d="M164.694 118.749H156.409V147.748H164.694V118.749Z" fill="#E7DFEE"/>
<path d="M179.578 122.837H171.293V147.748H179.578V122.837Z" fill="#E0E0FF"/>
<path d="M194.462 107.036H186.177V147.744H194.462V107.036Z" fill="#E7DFEE"/>
<path d="M209.35 109.953H201.065V147.748H209.35V109.953Z" fill="#E0E0FF"/>
<path d="M224.234 96.9067H215.949V147.748H224.234V96.9067Z" fill="#E7DFEE"/>
<path d="M239.119 89.8593H230.834V147.748H239.119V89.8593Z" fill="#E0E0FF"/>
<path d="M254.007 83.575H245.722V147.748H254.007V83.575Z" fill="#E7DFEE"/>
<path d="M173.987 102.849L158.346 96.5916L158.645 95.845L173.844 101.924L189.333 89.1062L203.779 89.4447L247.327 62.5526L247.749 63.2361L203.998 90.2543L189.615 89.9192L173.987 102.849Z" fill="#E7DFEE"/>
<path d="M171.894 60.4357H154.899V67.4997H171.894V60.4357Z" fill="#E7DFEE"/>
<path d="M193.41 64.4868H177.511V65.3162H193.41V64.4868Z" fill="#E7DFEE"/>
<path d="M381.267 170.167C391.514 170.167 399.821 161.86 399.821 151.613C399.821 141.366 391.514 133.059 381.267 133.059C371.02 133.059 362.713 141.366 362.713 151.613C362.713 161.86 371.02 170.167 381.267 170.167Z" fill="white"/>
<path d="M328.395 170.17C323.724 170.167 319.227 168.402 315.8 165.228C312.372 162.055 310.268 157.706 309.906 153.049C309.543 148.393 310.95 143.77 313.845 140.105C316.74 136.44 320.911 134.001 325.525 133.275C326.475 133.129 327.434 133.056 328.395 133.056C333.317 133.056 338.037 135.011 341.517 138.491C344.997 141.971 346.953 146.691 346.953 151.613C346.953 156.535 344.997 161.255 341.517 164.735C338.037 168.215 333.317 170.17 328.395 170.17Z" fill="white"/>
<path d="M328.395 151.616L325.525 133.275C326.475 133.129 327.434 133.056 328.395 133.056C331.002 133.053 333.581 133.601 335.961 134.666C338.341 135.731 340.469 137.288 342.204 139.234L328.395 151.616Z" fill="#E7DFEE"/>
<path d="M402.269 223.467H147.656V272.407H402.269V223.467Z" fill="white"/>
<path d="M403.01 273.14H147.779V223.576H403.01V273.14ZM148.403 272.516H402.386V224.2H148.403V272.516Z" fill="#E7DFEE"/>
<path d="M402.697 262.728H148.09V263.352H402.697V262.728Z" fill="#E7DFEE"/>
<path d="M402.697 252.94H148.09V253.564H402.697V252.94Z" fill="#E7DFEE"/>
<path d="M402.697 243.152H148.09V243.776H402.697V243.152Z" fill="#E7DFEE"/>
<path d="M402.697 233.365H148.09V233.988H402.697V233.365Z" fill="#E7DFEE"/>
<path d="M360.573 223.888H359.952V272.828H360.573V223.888Z" fill="#E7DFEE"/>
<path d="M318.139 223.888H317.519V272.828H318.139V223.888Z" fill="#E7DFEE"/>
<path d="M275.702 223.888H275.082V272.828H275.702V223.888Z" fill="#E7DFEE"/>
<path d="M233.269 223.888H232.649V272.828H233.269V223.888Z" fill="#E7DFEE"/>
<path d="M190.832 223.888H190.212V272.828H190.832V223.888Z" fill="#E7DFEE"/>
<path d="M155.081 265.078C158.784 259.921 159.584 253.282 162.892 247.851C164.504 245.196 166.638 242.575 169.594 241.391C174.687 239.35 175.988 245.923 176.094 249.573C176.253 254.941 175.364 260.767 179.8 264.802C181.28 266.129 183.238 266.946 185.238 266.415C187.634 265.778 189.124 263.584 190.311 261.567C193.706 255.794 195.862 249.178 198.221 242.933C199.413 239.781 200.926 235.74 204.048 233.975C208.494 231.453 208.982 237.027 208.972 239.947C208.972 243.169 208.995 246.387 209.021 249.606C209.021 251.152 208.716 254.38 210.534 255.246C211.606 255.754 212.452 254.785 213.053 254.005C213.574 253.342 213.939 252.536 214.46 251.862C214.98 251.189 215.385 250.847 216.271 250.774C217.084 250.707 217.472 250.697 218.023 251.437C218.305 251.896 218.501 252.402 218.604 252.93C219.241 255.346 218.587 258.083 219.954 260.313C220.714 261.554 222.353 262.791 223.892 262.549C227.001 262.058 227.791 256.995 228.163 254.56C228.664 251.301 229.128 248.063 230.027 244.884C230.927 241.706 232.101 237.857 234.537 235.461C235.462 234.552 236.74 233.643 238.11 233.802C240.101 234.028 240.741 236.288 241.229 237.907C242.368 241.571 242.963 245.383 242.994 249.221C242.994 251.875 242.224 255.17 243.989 257.456C244.449 258.079 245.078 258.557 245.802 258.832C246.526 259.106 247.313 259.167 248.07 259.006C250.313 258.448 250.854 256.268 251.312 254.297C251.383 253.899 251.485 253.506 251.617 253.123C252.055 252.008 252.228 251.879 253.429 251.829C254.756 251.776 254.803 252.084 255.015 253.179C255.227 254.274 255.118 255.399 255.45 256.497C255.871 257.878 256.84 259.152 258.436 258.671C259.909 258.233 260.699 256.657 261.186 255.323C262.587 251.494 262.457 247.253 262.666 243.245C262.802 240.591 263.018 237.737 264.242 235.325C265.042 233.759 267.398 231.221 269.219 232.873C271.588 235.027 271.356 240.272 271.412 243.159C271.528 249.374 270.483 255.615 271.353 261.806C271.684 264.129 272.348 267.579 274.906 268.442C278.466 269.656 281.088 265.788 282.033 262.947C282.786 260.694 282.959 258.335 283.493 256.033C283.775 254.825 284.203 252.615 285.855 253.305C287.279 253.899 287.866 255.913 289.12 256.826C293.162 259.765 295.637 254.029 296.115 250.923C296.808 246.384 296.091 241.384 297.773 237.044C298.205 235.946 298.878 234.781 299.887 234.118C302.356 232.488 304.791 234.741 305.528 237.041C306.092 238.783 305.985 240.744 306.019 242.555C306.055 244.519 306.108 246.484 306.145 248.451C306.204 251.699 305.912 255.014 306.122 258.249C306.264 260.499 307.117 262.546 309.061 263.817C313.939 267.002 319.642 262.032 322.754 258.541C326.291 254.56 328.67 249.865 330.502 244.937C331.428 242.439 332.353 239.884 333.8 237.638C334.593 236.4 336.803 233.431 338.614 234.254C339.795 234.785 340.187 236.908 340.443 238.02C340.842 239.885 341.105 241.777 341.229 243.68C341.524 247.287 341.561 250.903 341.61 254.523C341.667 257.586 341.926 262.204 345.33 263.445C350.639 265.379 353.18 257.768 354.653 254.251C355.871 251.338 357.357 247.389 360.191 245.657C362.603 244.184 364.282 246.454 365.168 248.474C366.021 250.433 366.472 252.543 366.495 254.679C366.515 256.152 366.399 257.997 368.015 258.714C371.542 260.27 374.753 254.433 376.127 252.134C377.375 250.037 378.324 247.841 379.372 245.641C380.699 242.877 385.013 237.595 386.791 242.89C387.455 244.881 387.232 247.044 387.1 249.111C386.947 251.434 386.768 253.8 386.854 256.149C386.94 258.863 387.431 264.776 391.522 264.152C394.004 263.77 396.559 261.04 398.417 259.507C401.135 257.227 403.716 254.79 406.148 252.207C406.513 251.819 405.929 251.232 405.561 251.62C403.13 254.203 400.548 256.641 397.83 258.919C396.386 260.166 394.879 261.338 393.314 262.43C391.264 263.81 389.26 263.186 388.44 261.069C386.834 256.922 387.813 251.779 388.029 247.466C388.158 244.901 387.833 239.022 383.901 239.735C381.545 240.163 379.92 242.721 378.924 244.665C377.809 246.888 376.894 249.175 375.639 251.331C374.385 253.488 372.955 256.01 370.881 257.446C369.315 258.528 367.481 258.017 367.305 255.913C367.225 254.954 367.328 253.999 367.215 253.033C366.883 250.25 365.828 245.648 362.812 244.523C358.628 242.957 355.582 249.997 354.391 252.751C353.173 255.575 352.228 259.188 349.975 261.378C348.386 262.931 345.808 263.468 344.182 261.673C342.994 260.346 342.695 258.292 342.523 256.603C341.859 250.047 342.855 243.272 340.983 236.845C340.442 234.99 339.417 232.701 337.121 233.527C333.276 234.887 331.524 239.884 330.213 243.328C328.12 248.833 325.797 254.102 321.716 258.475C319.36 261 315.946 264.115 312.263 264.046C307.425 263.949 306.822 259.122 306.954 255.419C307.09 251.802 306.954 248.173 306.868 244.556C306.805 241.639 307.2 238.166 305.757 235.498C304.841 233.802 302.896 232.449 300.892 232.804C299.187 233.106 297.906 234.708 297.243 236.185C295.391 240.166 295.882 244.944 295.464 249.191C295.225 251.62 294.801 255.781 291.954 256.627C288.38 257.688 288.268 252.313 285.261 252.217C282.076 252.108 282.05 259.759 281.499 261.773C280.835 264.258 279.508 267.221 276.695 267.745C274.946 268.077 273.781 266.975 273.101 265.472C271.555 262.052 271.744 257.738 271.84 254.072C271.913 251.334 272.172 248.607 272.205 245.867C272.258 242.917 272.846 230.236 267.228 231.599C263.333 232.538 262.334 237.572 261.989 240.89C261.528 245.329 261.916 249.878 260.662 254.218C260.33 255.343 259.896 256.647 258.953 257.413C258.011 258.179 256.797 257.529 256.299 256.501C255.967 255.8 255.987 254.925 255.921 254.178C255.811 252.914 255.652 251.036 254.262 250.505C252.636 249.895 251.302 251.557 250.814 252.891C250.207 254.55 250.406 256.72 248.724 257.818C247.042 258.916 245.074 257.881 244.248 256.252C243.399 254.556 243.704 252.489 243.787 250.664C243.865 248.812 243.795 246.957 243.578 245.117C243.216 241.994 242.632 238.57 241.348 235.677C239.58 231.696 235.631 232.751 233.282 235.614C229.301 240.478 228.305 247.874 227.429 253.863C227.151 255.787 226.786 257.785 225.926 259.546C225.485 260.449 224.851 261.514 223.776 261.696C221.978 262.002 220.495 259.931 220.1 258.458C219.46 256.066 220.064 247.575 215.08 250.163C213.534 250.973 213.385 252.904 212.064 253.876C210.004 255.392 209.874 252.038 209.861 250.737C209.838 248.79 209.828 246.839 209.811 244.891C209.788 242.273 209.987 239.556 209.668 236.951C209.466 235.292 208.958 233.354 207.243 232.668C202.598 230.813 199.131 238.308 197.886 241.454C195.232 248.119 193.125 255.243 189.406 261.408C187.365 264.792 183.885 267.33 180.387 264.162C177.886 261.896 176.967 258.571 176.9 255.309C176.817 251.076 178.085 242.512 173.008 240.312C168.582 238.394 163.894 244.496 162.023 247.635C158.827 252.997 157.998 259.546 154.368 264.606C154.056 265.041 154.773 265.456 155.081 265.024V265.078Z" fill="#9881AE"/>
<path d="M402.432 350.591H339.753C337.348 350.591 335.399 352.54 335.399 354.945V396.213C335.399 398.618 337.348 400.566 339.753 400.566H402.432C404.836 400.566 406.785 398.618 406.785 396.213V354.945C406.785 352.54 404.836 350.591 402.432 350.591Z" fill="#E0E0FF"/>
<path d="M405.209 372.248H336.972V373.037H405.209V372.248Z" fill="#E7DFEE"/>
<path d="M371.09 379.494C369.571 379.492 368.115 378.888 367.041 377.814C365.966 376.74 365.362 375.283 365.36 373.764V372.248H376.821V373.764C376.819 375.283 376.215 376.74 375.14 377.814C374.066 378.888 372.61 379.492 371.09 379.494ZM366.15 373.037V373.764C366.15 375.074 366.671 376.331 367.597 377.257C368.524 378.184 369.78 378.704 371.09 378.704C372.401 378.704 373.657 378.184 374.584 377.257C375.51 376.331 376.031 375.074 376.031 373.764V373.037H366.15Z" fill="#E7DFEE"/>
<path d="M384.595 353.146H383.805V342.897C383.804 342.233 383.54 341.596 383.07 341.126C382.601 340.657 381.964 340.393 381.3 340.392H360.885C360.22 340.393 359.584 340.657 359.114 341.126C358.645 341.596 358.38 342.233 358.38 342.897V353.146H357.59V342.897C357.591 342.023 357.938 341.186 358.556 340.568C359.174 339.95 360.011 339.603 360.885 339.602H381.3C382.174 339.603 383.011 339.95 383.629 340.568C384.246 341.186 384.594 342.023 384.595 342.897V353.146Z" fill="#E7DFEE"/>
<path d="M359.932 350.591H356.08V354.742H359.932V350.591Z" fill="#E7DFEE"/>
<path d="M386.111 350.591H382.259V354.742H386.111V350.591Z" fill="#E7DFEE"/>
<path d="M203.779 358.156H152.898V400.57H203.779V358.156Z" fill="#E0E0FF"/>
<path d="M207.529 355.153H149.152V364.062H207.529V355.153Z" fill="#E7DFEE"/>
<path opacity="0.6" d="M203.783 400.57H152.898V363.929C152.898 363.929 173.506 394.903 203.783 400.57Z" fill="#E7DFEE"/>
<path d="M486.3 38.1158C479.55 38.1156 472.977 40.2808 467.549 44.2931C462.12 48.3054 458.122 53.9533 456.141 60.4066C454.16 66.8599 454.302 73.7784 456.545 80.1453C458.788 86.5122 463.014 91.9918 468.602 95.7786L467.391 110.311L479.233 100.404C483.562 101.398 488.052 101.466 492.409 100.604C496.767 99.7427 500.893 97.9706 504.518 95.404C508.143 92.8374 511.185 89.5342 513.445 85.7106C515.705 81.887 517.132 77.6291 517.633 73.2158C518.134 68.8025 517.697 64.3332 516.351 60.1004C515.005 55.8676 512.78 51.9668 509.822 48.6533C506.864 45.3398 503.24 42.6884 499.187 40.8725C495.133 39.0566 490.742 38.1172 486.3 38.1158Z" fill="white"/>
<path d="M466.893 111.267L468.167 95.9842C461.606 91.4706 456.962 84.6744 455.142 76.9216C453.321 69.1689 454.454 61.0159 458.32 54.0536C462.186 47.0912 468.507 41.819 476.05 39.2656C483.594 36.7123 491.818 37.061 499.118 40.2438C506.418 43.4265 512.27 49.215 515.532 56.4796C518.795 63.7443 519.234 71.9639 516.763 79.5347C514.293 87.1054 509.09 93.4841 502.171 97.4261C495.251 101.368 487.111 102.591 479.339 100.855L466.893 111.267ZM486.3 38.5304C479.637 38.5283 473.15 40.6637 467.791 44.6228C462.432 48.5819 458.484 54.1558 456.529 60.525C454.573 66.8943 454.713 73.723 456.926 80.0072C459.14 86.2914 463.312 91.6996 468.828 95.4368L469.027 95.5728L467.879 109.356L479.113 99.9525L479.312 99.9989C483.585 100.98 488.017 101.048 492.317 100.198C496.618 99.3473 500.69 97.5984 504.268 95.0652C507.845 92.532 510.848 89.2718 513.078 85.4979C515.309 81.724 516.717 77.5215 517.21 73.1657C517.704 68.8099 517.272 64.3988 515.943 60.2215C514.614 56.0441 512.418 52.1945 509.498 48.9248C506.578 45.6551 503 43.039 498.999 41.2477C494.998 39.4565 490.664 38.5305 486.28 38.5304H486.3Z" fill="#4B0082"/>
<path d="M491.668 76.2988H482.289V86.0337H491.668V76.2988Z" fill="white"/>
<path d="M492.083 86.4485H481.874V75.8842H492.083V86.4485ZM482.704 85.6191H491.254V76.7136H482.704V85.6191Z" fill="#4B0082"/>
<path d="M494.589 69.5732C494.59 68.4055 494.324 67.2531 493.809 66.2051C493.294 65.1571 492.545 64.2416 491.62 63.5294C490.694 62.8172 489.618 62.3274 488.473 62.098C487.328 61.8685 486.146 61.9056 485.017 62.2062C483.889 62.5069 482.845 63.063 481.966 63.8317C481.087 64.6004 480.397 65.5611 479.949 66.6393C479.501 67.7174 479.306 68.8843 479.381 70.0495C479.456 71.2147 479.798 72.3471 480.381 73.359C481.594 75.3847 482.252 77.694 482.289 80.0546V81.7866H491.669V79.9717C491.705 77.6419 492.359 75.3635 493.563 73.3689C494.236 72.217 494.589 70.907 494.589 69.5732Z" fill="white"/>
<path d="M492.083 82.2015H481.874V80.0548C481.841 77.7655 481.201 75.526 480.019 73.5648C479.305 72.321 478.937 70.9082 478.954 69.4738C479.002 67.4378 479.813 65.494 481.227 64.0278C482.64 62.5615 484.553 61.6797 486.586 61.5571C488.026 61.4878 489.458 61.8079 490.732 62.484C492.005 63.16 493.073 64.1669 493.822 65.3987C494.572 66.6304 494.975 68.0414 494.99 69.4832C495.006 70.925 494.632 72.3442 493.908 73.5914C492.737 75.5208 492.102 77.7282 492.07 79.9851L492.083 82.2015ZM482.703 81.372H491.254V79.9718C491.285 77.5689 491.958 75.218 493.205 73.1634C494.014 71.7668 494.33 70.1388 494.102 68.541C493.874 66.9432 493.115 65.4686 491.947 64.3542C491.246 63.6758 490.413 63.149 489.5 62.8065C488.587 62.464 487.613 62.3132 486.639 62.3634C484.815 62.4741 483.099 63.2649 481.829 64.5796C480.56 65.8942 479.83 67.6371 479.784 69.4638C479.767 70.7496 480.097 72.0162 480.739 73.1302C481.994 75.2171 482.672 77.6 482.703 80.0349V81.372Z" fill="#4B0082"/>
<path d="M485.242 68.6906C484.654 69.5301 483.666 69.8519 483.035 69.4106C482.405 68.9693 482.372 67.9275 482.962 67.0881C483.553 66.2486 484.538 65.9268 485.169 66.3681C485.799 66.8094 485.832 67.8379 485.242 68.6906Z" fill="white"/>
<path d="M483.686 70.0179C483.368 70.0209 483.057 69.9247 482.796 69.7425C482.589 69.5893 482.421 69.3892 482.306 69.1585C482.19 68.9279 482.131 68.6732 482.133 68.4153C482.133 67.8563 482.306 67.3109 482.627 66.8532C482.948 66.3956 483.402 66.0479 483.928 65.8572C484.17 65.7618 484.432 65.7278 484.691 65.7583C484.949 65.7888 485.196 65.8829 485.409 66.032C485.622 66.1812 485.795 66.3809 485.913 66.6133C486.03 66.8456 486.088 67.1034 486.081 67.3635C486.088 67.9229 485.914 68.4695 485.587 68.923C485.271 69.3857 484.815 69.7346 484.286 69.9184C484.093 69.9832 483.89 70.0168 483.686 70.0179ZM484.515 66.5772C484.402 66.5792 484.291 66.5982 484.183 66.6336C483.825 66.7645 483.518 67.0048 483.304 67.3204C483.083 67.6287 482.967 67.9996 482.972 68.3788C482.97 68.5113 482.998 68.6426 483.056 68.7619C483.114 68.8813 483.199 68.9853 483.304 69.0657C483.415 69.1345 483.541 69.1761 483.671 69.1871C483.802 69.1981 483.933 69.178 484.054 69.1287C484.412 69.0005 484.721 68.761 484.933 68.4452C485.152 68.136 485.268 67.7657 485.265 67.3868C485.268 67.2543 485.239 67.123 485.181 67.0037C485.124 66.8843 485.039 66.7803 484.933 66.6999C484.81 66.6161 484.664 66.572 484.515 66.5739V66.5772Z" fill="#4B0082"/>
<path d="M472.374 56.245L471.858 56.8947L476.582 60.6456L477.098 59.996L472.374 56.245Z" fill="#4B0082"/>
<path d="M486.671 48.3554L485.842 48.3819L486.101 56.4769L486.93 56.4504L486.671 48.3554Z" fill="#4B0082"/>
<path d="M500.619 54.5856L495.725 59.347L496.303 59.9416L501.197 55.1802L500.619 54.5856Z" fill="#4B0082"/>
<path d="M90.4508 77.9811C90.4501 72.183 88.6321 66.5309 85.2523 61.8197C81.8726 57.1085 77.1012 53.5751 71.6091 51.7164C66.117 49.8578 60.1804 49.7673 54.6342 51.4577C49.088 53.1481 44.2111 56.5344 40.6894 61.1404C37.1677 65.7465 35.1782 71.3405 35.0008 77.1359C34.8234 82.9313 36.4669 88.6365 39.7003 93.4493C42.9337 98.2621 47.5943 101.94 53.0267 103.967C58.4591 105.993 64.3901 106.266 69.9856 104.747L79.6077 112.803L78.6123 100.706C82.2702 98.1517 85.2569 94.7517 87.3181 90.7951C89.3793 86.8384 90.454 82.4424 90.4508 77.9811Z" fill="white"/>
<path d="M80.1088 113.742L69.8828 105.188C63.0825 106.984 55.8565 106.171 49.6249 102.91C43.3934 99.6486 38.6068 94.1746 36.206 87.5636C33.8052 80.9527 33.9637 73.6829 36.6504 67.1829C39.3371 60.6828 44.3576 55.4226 50.7254 52.4361C57.0933 49.4495 64.3478 48.9525 71.0634 51.0428C77.779 53.133 83.4701 57.6593 87.0181 63.7322C90.5661 69.8051 91.7146 76.9854 90.2378 83.862C88.761 90.7386 84.7657 96.8142 79.0371 100.895L80.1088 113.742ZM70.0852 104.273L79.1167 111.824L78.1711 100.48L78.3669 100.344C83.9585 96.4258 87.8775 90.5532 89.3499 83.8861C90.8223 77.2189 89.7411 70.242 86.3198 64.3332C82.8984 58.4245 77.3858 54.0135 70.8705 51.9715C64.3552 49.9294 57.311 50.4047 51.1292 53.3036C44.9473 56.2025 40.0772 61.3141 37.4808 67.629C34.8843 73.9438 34.7502 81.0028 37.1051 87.4117C39.4599 93.8205 44.1324 99.1134 50.1997 102.245C56.267 105.376 63.2881 106.119 69.8762 104.326L70.0852 104.273Z" fill="#4B0082"/>
<path d="M62.3479 86.6142L54.4844 78.7507L55.0683 78.1634L62.0759 85.1709L70.1982 66.6733L70.958 67.0051L62.3479 86.6142Z" fill="#4B0082"/>
<path d="M213.574 114.319L206.135 118.672L127.048 165.018C124.613 166.444 121.766 166.106 120.634 164.258C119.506 162.41 120.508 159.722 122.891 158.209L200.073 109.117L207.499 104.392L213.574 114.319Z" fill="#4B0082"/>
<path opacity="0.6" d="M213.574 114.319L206.135 118.672C204.667 117.267 203.389 115.677 202.332 113.941C201.4 112.423 200.642 110.805 200.073 109.117L207.498 104.392L213.574 114.319Z" fill="#1B1B43"/>
<path d="M203.122 116.801C202.702 117.057 202.215 117.183 201.724 117.162C201.232 117.142 200.757 116.976 200.36 116.686C199.962 116.396 199.66 115.994 199.491 115.532C199.321 115.07 199.293 114.568 199.409 114.09C199.525 113.611 199.78 113.178 200.142 112.845C200.504 112.512 200.957 112.293 201.443 112.217C201.93 112.141 202.427 112.211 202.874 112.418C203.32 112.625 203.696 112.96 203.952 113.38C204.122 113.659 204.236 113.969 204.287 114.292C204.338 114.615 204.324 114.945 204.247 115.263C204.17 115.581 204.031 115.88 203.838 116.144C203.645 116.408 203.402 116.631 203.122 116.801Z" fill="white"/>
<path d="M240.605 130.368C262.349 130.368 279.976 112.741 279.976 90.9974C279.976 69.2534 262.349 51.6265 240.605 51.6265C218.861 51.6265 201.234 69.2534 201.234 90.9974C201.234 112.741 218.861 130.368 240.605 130.368Z" fill="#4B0082"/>
<path d="M240.605 122.933C258.243 122.933 272.541 108.635 272.541 90.9974C272.541 73.36 258.243 59.062 240.605 59.062C222.968 59.062 208.67 73.36 208.67 90.9974C208.67 108.635 222.968 122.933 240.605 122.933Z" fill="white"/>
<mask id="mask0_410_2816" style="mask-type:luminance" maskUnits="userSpaceOnUse" x="208" y="59" width="65" height="64">
<path d="M240.605 122.936C258.243 122.936 272.541 108.638 272.541 91.0007C272.541 73.3633 258.243 59.0654 240.605 59.0654C222.968 59.0654 208.67 73.3633 208.67 91.0007C208.67 108.638 222.968 122.936 240.605 122.936Z" fill="white"/>
</mask>
<g mask="url(#mask0_410_2816)">
<path d="M227.622 101.794H217.612V163.233H227.622V101.794Z" fill="#E7DFEE"/>
<path d="M245.612 93.6916H235.602V163.647H245.612V93.6916Z" fill="#E0E0FF"/>
<path d="M263.599 84.9886H253.588V162.539H263.599V84.9886Z" fill="#E7DFEE"/>
<path d="M252.421 73.2452L206.554 87.9185L206.933 89.1036L252.8 74.4303L252.421 73.2452Z" fill="#E7DFEE"/>
<path d="M249.56 79.1921L248.565 78.4688L251.584 74.2284L247.188 72.732L247.589 71.5541L252.42 73.2131C252.555 73.2548 252.677 73.3289 252.776 73.4291C252.875 73.5292 252.948 73.6522 252.988 73.7871C253.031 73.9277 253.037 74.0768 253.007 74.2207C252.977 74.3645 252.911 74.4985 252.815 74.61L249.56 79.1921ZM251.843 73.8435C251.841 73.8523 251.841 73.8613 251.843 73.8701V73.8435Z" fill="#E7DFEE"/>
</g>
<path d="M161.827 384.07C156.813 384.146 149.633 384.262 144.985 384.328C145.035 382.079 145.121 379.839 145.22 377.792C145.443 372.682 145.735 368.734 145.735 368.734L160.092 368.634C160.092 368.634 160.025 370.061 160.092 372.201C160.181 375.37 160.556 380.098 161.827 384.07Z" fill="#FFBC96"/>
<path d="M167.388 391.094C164.634 390.241 162.909 387.444 161.83 384.07L144.985 384.328C144.859 389.617 144.905 394.946 145.413 397.932C145.516 398.561 145.84 399.132 146.327 399.544C146.813 399.955 147.43 400.18 148.067 400.178H172.733C174.747 400.178 176.482 398.496 176.273 396.495C176.024 394.103 173.198 392.892 167.388 391.094Z" fill="#1B1B43"/>
<path d="M160.092 372.201L145.221 377.792C145.443 372.682 145.735 368.734 145.735 368.734L160.092 368.634C160.092 368.634 160.025 370.061 160.092 372.201Z" fill="#D28572"/>
<path d="M152.626 399.962C152.099 397.464 151.053 395.725 149.514 394.796C148.223 394.07 146.706 393.855 145.264 394.193L145.035 393.396C146.694 392.985 148.449 393.229 149.932 394.08C151.681 395.132 152.858 397.066 153.436 399.793L152.626 399.962Z" fill="#656590"/>
<path d="M88.0851 365.947C86.9772 368.629 86.0624 371.386 85.3477 374.199C84.7628 376.423 84.3928 378.699 84.2429 380.994L68.3896 375.27C70.4236 370.293 72.5968 365.383 73.7647 362.811L73.7979 362.745C74.3056 361.617 74.6141 360.953 74.6141 360.953L88.0851 365.947Z" fill="#FFBC96"/>
<path d="M86.9536 389.537C84.6808 387.762 84.0636 384.524 84.2428 381L68.3962 375.27C66.4054 380.174 64.5673 385.171 63.9833 388.147C63.858 388.77 63.958 389.417 64.2655 389.973C64.573 390.529 65.068 390.958 65.6622 391.183L88.7386 399.916C90.6199 400.629 92.8396 399.67 93.3506 397.726C93.9677 395.4 91.7547 393.27 86.9536 389.537Z" fill="#1B1B43"/>
<path d="M88.0849 365.947C86.9771 368.629 86.0623 371.386 85.3476 374.199L73.3267 364.072L73.7812 362.811L73.8144 362.745C74.322 361.617 74.6306 360.953 74.6306 360.953L88.0849 365.947Z" fill="#D28572"/>
<path d="M69.3452 392.467L68.6119 392.082C71.701 386.16 66.2562 383.223 66.0239 383.104L66.4055 382.367C66.4785 382.401 72.8224 385.815 69.3452 392.467Z" fill="#656590"/>
<path d="M167.142 371.538L140.741 373.611L135.207 279.321L127.028 248.325L116.328 207.786L115.773 205.673L113.192 195.901L112.811 194.441L117.864 193.984L145.161 191.538L146.82 199.004L163.171 272.938C163.704 275.345 164.014 277.796 164.1 280.26L167.142 371.538Z" fill="#1B1B43"/>
<path d="M129.128 227.346L127.028 248.325L123.627 282.284C123.239 286.195 122.366 290.042 121.029 293.738L92.9027 371.537L69.2622 362.413L91.2437 282.782C96.9074 250.001 95.9718 224.84 97.4317 208.881C97.5246 207.886 97.6241 206.933 97.7303 206.014C98.3209 201.127 99.23 197.255 100.783 194.441L113.192 195.901L121.935 196.93L123.833 204.969L124.218 206.592L129.128 227.346Z" fill="#1B1B43"/>
<path opacity="0.6" d="M146.81 199.004L147.095 202.182C147.095 202.182 110.047 212.136 97.4321 208.881C97.525 207.886 97.6246 206.934 97.7307 206.014C98.3213 201.127 99.2305 197.255 100.783 194.441L113.192 195.901L112.811 194.441L117.864 193.984L145.161 191.538L146.81 199.004Z" fill="#1B1B43"/>
<path d="M134.806 279.773L122.42 230.849L112.27 227.601L112.522 226.811L123.11 230.199L123.166 230.421L135.609 279.567L134.806 279.773Z" fill="#1B1B43"/>
<path d="M153.807 281.926L153.519 281.15C160.025 278.708 163.565 276.442 163.599 276.422L164.05 277.115C163.907 277.211 160.41 279.451 153.807 281.926Z" fill="#1B1B43"/>
<path d="M122.101 290.244C117.883 289.775 113.703 289.009 109.592 287.951L109.808 287.152C113.876 288.195 118.011 288.953 122.184 289.421L122.101 290.244Z" fill="#1B1B43"/>
<path d="M71.4816 355.205L71.1953 355.984L95.2516 364.83L95.5379 364.052L71.4816 355.205Z" fill="#1B1B43"/>
<path d="M166.699 364.492L140.363 366.347L140.421 367.175L166.757 365.319L166.699 364.492Z" fill="#1B1B43"/>
<path d="M110.946 134.443L99.7246 138.959C98.1104 139.608 96.6406 140.57 95.3997 141.79C94.1589 143.01 93.1717 144.463 92.4948 146.066L83.0784 168.604C82.1591 170.805 81.9646 173.242 82.523 175.561C83.0814 177.879 84.3637 179.96 86.184 181.501C87.697 182.788 89.5243 183.65 91.4793 184C93.4344 184.35 95.4473 184.175 97.3125 183.492L105.276 180.562L110.946 134.443Z" fill="#FFB147"/>
<path d="M188.543 113.964C186.446 115 184.027 119.412 184.946 120.998C185.696 122.299 187.448 120.541 188.025 119.937C189.087 118.829 191.828 115.866 190.315 114.183C189.834 113.646 189.203 113.636 188.543 113.964Z" fill="#FFBC96"/>
<path d="M183.483 115.557C181.745 117.12 180.603 122.02 181.914 123.301C182.989 124.353 184.2 122.186 184.595 121.45C185.318 120.096 187.159 116.506 185.258 115.291C184.625 114.903 184.017 115.066 183.483 115.557Z" fill="#FFBC96"/>
<path d="M180.099 118.019C178.34 119.528 177.113 124.164 178.373 125.342C179.415 126.307 180.663 124.24 181.071 123.537C181.814 122.249 183.725 118.832 181.854 117.73C181.257 117.378 180.653 117.544 180.099 118.019Z" fill="#FFBC96"/>
<path d="M176.887 119.167C175.129 120.677 173.901 125.312 175.162 126.49C176.204 127.452 177.455 125.388 177.859 124.685C178.606 123.397 180.514 119.976 178.642 118.878C178.049 118.526 177.441 118.692 176.887 119.167Z" fill="#FFBC96"/>
<path d="M110.946 134.572L99.2635 154.656C99.2635 154.656 102.303 187.835 100.093 191.91C97.8833 195.984 92.903 199.186 95.9456 201.532C98.9881 203.878 123.04 207.936 149.033 201.824C156.22 199.787 151.243 196.001 149.584 194.256C147.925 192.51 145.715 148.561 145.715 148.561L130.784 134.957L119.739 131.971L110.946 134.572Z" fill="#FFB147"/>
<path opacity="0.2" d="M130.542 134.924C128.468 138.554 104.058 142.286 110.946 134.443L117.993 132.956L130.542 134.924Z" fill="#1B1B43"/>
<path d="M162.165 158.568L152.543 144.28C151.438 142.485 149.975 140.936 148.246 139.73C146.516 138.525 144.557 137.688 142.49 137.273L130.794 134.924L137.695 160.847C137.695 160.847 148.479 175.987 158.227 179.511C166.973 182.676 178.573 177.477 184.97 143.288L170.467 141.298L162.165 158.568Z" fill="#FFB147"/>
<path d="M192.926 122.966C191.46 122.78 186.429 130.365 186.429 130.365L178.297 133.132C176.823 133.634 175.463 134.425 174.297 135.458C173.132 136.492 172.184 137.747 171.509 139.151L170.467 141.311L184.97 143.302C185.208 142.024 185.444 140.72 185.666 139.363C190.643 134.858 196.174 123.381 192.926 122.966Z" fill="#FFBC96"/>
<path d="M132.775 102.866L135.705 106.947C135.82 107.11 135.895 107.299 135.925 107.497C135.954 107.695 135.936 107.897 135.873 108.087C135.811 108.277 135.704 108.45 135.562 108.591C135.421 108.732 135.248 108.839 135.058 108.901L131.919 110.112L129.712 105.188L132.775 102.866Z" fill="#D28572"/>
<path d="M113.756 125.229C114.205 120.249 114.353 115.246 114.198 110.248L127.599 111.22C127.489 112.746 127.465 114.277 127.526 115.806C127.627 118.259 127.877 120.705 128.272 123.128C128.481 124.456 128.72 125.743 128.979 126.987L113.756 125.229Z" fill="#FFBC96"/>
<path d="M128.273 123.128C124.851 121.674 122.064 119.041 120.419 115.706L127.526 115.806C127.628 118.259 127.877 120.705 128.273 123.128Z" fill="#D28572"/>
<path d="M113.753 125.225L110.946 134.443C117.413 135.999 124.035 136.065 130.784 134.924L128.979 126.984L113.753 125.225Z" fill="#FFF5E8"/>
<path d="M132.443 96.0076L133.83 114.555C133.956 115.348 133.468 116.075 132.785 116.715C132.192 117.246 131.499 117.655 130.748 117.918C129.996 118.181 129.2 118.293 128.405 118.248L118.906 117.853L112.134 110.248L117.386 94.0732L126.925 93.9339L132.443 96.0076Z" fill="#FFBC96"/>
<path d="M116.855 107.033C116.855 107.033 119.344 114.81 114.055 118.752C108.351 116.884 97.777 99.5677 110.946 94.0731C110.946 94.0731 114.572 84.8459 124.423 88.2667C133.117 91.286 135.413 96.5616 135.413 96.5616C135.413 96.5616 129.298 101.124 122.141 96.8735C122.141 96.8735 122.867 106.101 116.855 107.033Z" fill="#1B1B43"/>
<path d="M120.362 103.861C121.912 105.779 121.759 108.47 120.03 109.873C118.302 111.277 115.631 110.869 114.081 108.941C112.532 107.013 112.688 104.332 114.413 102.929C116.138 101.525 118.816 101.94 120.362 103.861Z" fill="#FFBC96"/>
<path d="M118.451 108.32C118.415 108.184 117.589 105.022 115.362 105.507L115.229 104.896C117.482 104.409 118.717 106.824 119.055 108.168L118.451 108.32Z" fill="#1B1B43"/>
<path opacity="0.4" d="M130.286 108.245C130.636 106.759 129.716 105.27 128.231 104.92C126.745 104.569 125.257 105.489 124.906 106.975C124.555 108.46 125.475 109.949 126.961 110.3C128.447 110.65 129.935 109.73 130.286 108.245Z" fill="#FE5B52"/>
<path d="M98.9581 203.227C96.4431 202.63 95.0197 201.694 94.6083 200.374C93.9447 198.22 96.1611 195.752 98.122 193.575C98.4272 193.244 98.7258 192.912 98.9946 192.58C99.5327 191.969 99.9051 191.229 100.076 190.433C101.895 181.807 98.8818 154.958 98.8486 154.689L99.6748 154.596C99.8009 155.704 102.734 181.85 100.889 190.602C100.688 191.537 100.252 192.405 99.6217 193.124C99.3496 193.456 99.0477 193.788 98.7391 194.12C97.0138 196.034 94.8704 198.413 95.3979 200.115C95.7297 201.11 96.974 201.893 99.1505 202.411L98.9581 203.227Z" fill="#1B1B43"/>
<path d="M147.115 202.597L147.079 201.767C149.912 201.641 151.644 200.968 152.089 199.813C152.533 198.658 151.72 196.917 149.846 195.058C149.359 194.572 149.023 193.954 148.88 193.28C147.387 186.578 145.801 164.414 145.785 164.195L146.611 164.135C146.611 164.357 148.21 186.458 149.69 193.101C149.799 193.619 150.056 194.093 150.43 194.468C152.58 196.601 153.446 198.605 152.865 200.108C152.285 201.611 150.347 202.454 147.115 202.597Z" fill="#1B1B43"/>
<path d="M160.672 162.274L159.926 161.909L170.228 140.86L185.026 142.877L184.917 143.7L170.709 141.762L160.672 162.274Z" fill="#1B1B43"/>
<path d="M410.183 110.524C405.276 107.537 404.167 99.0501 408.733 96.492C413.298 93.9338 416.198 96.2166 416.198 96.2166C416.198 96.2166 431.497 90.6358 437.281 104.843C441.634 115.557 438.176 121.158 441.979 126.549C446.312 132.691 453.26 138.229 444.192 149.012L423.04 143.843L417.509 117.797L410.183 110.524Z" fill="#1B1B43"/>
<path d="M483.387 349.39L467.833 356.229C467.833 356.229 470.066 362.005 471.98 368.721L487.973 363.611L483.387 349.39Z" fill="#FFBC96"/>
<path d="M487.972 363.611L471.98 368.72C474.17 376.415 475.938 385.347 473.44 388.26C470.188 392.049 467.355 395.181 466.674 397.816C466.583 398.16 466.593 398.524 466.703 398.863C466.813 399.202 467.018 399.503 467.294 399.728C467.57 399.954 467.906 400.095 468.26 400.135C468.615 400.174 468.973 400.111 469.292 399.952L489.956 389.531C491.606 388.699 492.873 387.267 493.498 385.529C494.123 383.791 494.059 381.879 493.318 380.187L487.972 363.611Z" fill="#1B1B43"/>
<path d="M489.663 368.99L473.345 374.095L473.593 374.886L489.911 369.782L489.663 368.99Z" fill="#656590"/>
<path d="M470.407 392.404L470.234 391.591C474.196 390.752 476.499 389.299 477.086 387.278C478.048 383.943 474.08 380.042 474.04 380.002L474.617 379.408C474.797 379.58 478.981 383.701 477.882 387.51C477.205 389.846 474.69 391.495 470.407 392.404Z" fill="#656590"/>
<path d="M423.315 364.487L405.345 366.146C405.612 370.404 405.583 374.676 405.259 378.93L422.545 378.675L423.315 364.487Z" fill="#FFBC96"/>
<path d="M405.259 378.92C404.771 384.587 403.484 390.274 400.368 391.575C393.732 394.338 388.477 396.273 389.031 400.145H414.543C416.39 400.144 418.166 399.436 419.507 398.166C420.848 396.896 421.652 395.161 421.753 393.317L422.546 378.664L405.259 378.92Z" fill="#1B1B43"/>
<path d="M405.32 382.836L405.306 383.665L421.897 383.941L421.911 383.111L405.32 382.836Z" fill="#656590"/>
<path d="M399.944 394.723C398.647 394.7 397.356 394.536 396.095 394.236L396.277 393.426C399.927 394.239 402.386 393.987 403.417 392.703C404.794 390.994 403.391 387.918 403.378 387.888L404.127 387.547C404.194 387.693 405.757 391.127 404.061 393.234C403.262 394.222 401.881 394.723 399.944 394.723Z" fill="#656590"/>
<path d="M423.08 368.744C422.885 368.809 422.687 368.863 422.486 368.906C418.893 369.736 407.004 368.906 407.004 368.906C406.481 368.794 405.966 368.648 405.462 368.468C394.346 364.42 395.103 344.987 396.772 327.989C398.305 312.395 391.795 232.87 396.291 205.849L424.424 199.69L424.59 204.428L424.921 214.1L425.519 231.211C425.519 231.211 426.58 247.768 428.034 268.515C430.207 299.621 433.259 340.156 434.918 348.451C437.573 361.667 427.576 367.433 423.08 368.744Z" fill="#FFC857"/>
<path d="M486.745 351.514C486.134 352.225 485.448 352.867 484.697 353.428C480.915 356.341 475.812 357.41 471.336 358.624C470.532 358.841 469.714 358.999 468.887 359.095C464.717 359.61 460.161 358.654 458.213 355.114C448.223 336.915 436.978 300.789 428.053 268.515C421.53 244.957 416.264 223.424 413.643 212.441C412.489 207.591 411.852 204.81 411.852 204.81L424.599 204.429L446.275 203.765C446.866 206.685 447.536 209.764 448.293 212.956C455.688 244.536 470.264 287.942 475.971 304.558C479.399 314.512 484.598 323.377 486.864 333.796C488.072 339.32 490.882 346.736 486.745 351.514Z" fill="#FFC857"/>
<path opacity="0.6" d="M448.283 212.962C440.572 214.269 432.733 214.651 424.931 214.1C421.136 213.82 417.365 213.266 413.65 212.441C402.293 209.939 396.307 205.842 396.307 205.842L424.44 199.684L424.606 204.422L446.282 203.758C446.856 206.691 447.526 209.77 448.283 212.962Z" fill="#1B1B43"/>
<path d="M427.642 268.624L418.965 237.89L410.04 234.645L410.325 233.865L419.649 237.256L419.705 237.462L428.441 268.402L427.642 268.624Z" fill="#1B1B43"/>
<path d="M480.912 355.293L480.192 354.878C484.379 347.612 475.984 325.209 465.36 296.847C455.045 269.308 442.204 235.037 437.559 204.458L438.382 204.332C443.027 234.824 455.834 269.056 466.137 296.572C476.84 325.123 485.291 347.685 480.912 355.293Z" fill="#1B1B43"/>
<path d="M402.319 179.726C401.324 186.734 399.814 195.895 399.814 195.895H383.43L387.412 173.97L388.407 168.521C388.407 168.521 402.508 171.839 403.132 171.839C403.371 171.839 402.94 175.37 402.319 179.726Z" fill="#FFBC96"/>
<path d="M402.319 179.726L401.572 181.385L387.421 173.979L388.417 168.531C388.417 168.531 402.518 171.849 403.142 171.849C403.371 171.839 402.939 175.37 402.319 179.726Z" fill="#D28572"/>
<path d="M398.779 174.739C398.779 174.739 401.473 190.5 396.291 205.849C396.291 205.849 422.005 213.725 446.266 203.771L440.665 168.312L442.533 150.273L405.415 150.684L392.764 154.832L398.779 174.739Z" fill="#1B1B43"/>
<path d="M453.021 148.252C452.213 145.944 450.871 143.859 449.104 142.167C447.338 140.475 445.196 139.225 442.855 138.517L435.887 136.414C433.08 140.501 428.07 145.704 420.757 145.704C412.164 145.704 406.772 140.77 403.799 136.745L398.985 137.92C396.45 138.538 394.138 139.848 392.304 141.704C390.471 143.56 389.19 145.889 388.603 148.431L383.225 171.77L398.779 174.756L399.191 156.925L439.63 155.041L440.665 168.312C440.665 168.312 452.348 163.196 460.092 168.452L453.021 148.252Z" fill="#1B1B43"/>
<path d="M470.736 146.746C468.496 151.126 465.483 170.114 464.1 184.902C463.645 189.763 462.258 193.595 460.341 196.389C457.52 200.52 453.525 202.395 449.64 201.98C448.103 201.818 446.62 201.32 445.297 200.52C438.618 196.565 439.471 179.66 440.22 172.052C440.453 169.763 440.665 168.313 440.665 168.313C444.607 166.139 450.828 165.824 450.828 165.824C450.911 164.968 451.01 164.105 451.11 163.22C451.956 155.588 453.24 146.912 454.355 141.148C455.596 134.718 458.084 137.107 458.084 137.107C459.332 134.818 461.197 136.775 461.197 136.775C462.856 133.126 464.929 136.566 464.929 136.566C467.517 132.837 468.937 138.434 468.937 138.434C468.937 138.434 476.973 131.798 478.34 133.729C479.031 134.718 473.914 140.525 470.736 146.746Z" fill="#FFBC96"/>
<path d="M407.074 191.707H372.235V195.891H407.074V191.707Z" fill="white"/>
<path d="M387.153 195.931H351.219C350.372 195.931 349.543 195.689 348.83 195.232C348.118 194.775 347.551 194.123 347.198 193.353L333.203 162.971C333.096 162.738 333.049 162.483 333.067 162.228C333.084 161.974 333.166 161.727 333.304 161.512C333.441 161.297 333.631 161.12 333.855 160.997C334.079 160.875 334.331 160.81 334.586 160.811H368.293C369.095 160.811 369.879 161.041 370.554 161.473C371.229 161.905 371.767 162.521 372.102 163.249L387.153 195.931Z" fill="#4B0082"/>
<path d="M398.984 195.895C398.583 197.461 397.969 198.964 397.16 200.364C395.235 203.615 392.149 205.849 387.398 206.442C385.577 206.662 383.737 206.671 381.914 206.469C365.447 204.833 360.679 195.825 360.679 195.825C360.679 195.825 358.844 192.003 362.732 192.882C362.732 192.882 363.466 190.453 366.465 192.988C366.465 192.988 366.11 189.979 369.063 192.733C369.063 192.733 368.648 189.67 371.857 192.318C375.065 194.966 377.567 195.735 381.456 195.895C385.344 196.054 398.984 195.895 398.984 195.895Z" fill="#FFBC96"/>
<path d="M398.167 156.86L397.339 156.908L398.377 174.742L399.205 174.694L398.167 156.86Z" fill="#4B0082"/>
<path d="M418.969 152.138C417.238 152.141 415.512 151.952 413.823 151.573C408.875 150.459 406.029 148.133 405.909 148.033L406.437 147.393C406.55 147.486 417.758 156.481 433.886 146.806L434.311 147.516C428.398 151.066 423.153 152.138 418.969 152.138Z" fill="#4B0082"/>
<path d="M440.454 160.137L439.626 160.2L440.248 168.358L441.076 168.295L440.454 160.137Z" fill="#4B0082"/>
<path d="M427.742 172.393C426.456 172.397 425.215 171.924 424.257 171.066C423.3 170.208 422.693 169.026 422.556 167.748L421.892 161.839L433.299 161.086L432.967 167.443C432.893 168.762 432.323 170.005 431.371 170.921C430.419 171.837 429.156 172.36 427.835 172.383L427.742 172.393ZM422.811 162.615L423.379 167.662C423.505 168.754 424.037 169.759 424.869 170.478C425.7 171.197 426.771 171.579 427.87 171.547C428.969 171.514 430.016 171.071 430.805 170.305C431.593 169.538 432.065 168.504 432.128 167.407L432.417 161.982L422.811 162.615Z" fill="#4B0082"/>
<path d="M450.37 165.814L447.389 186.654L448.21 186.771L451.191 165.931L450.37 165.814Z" fill="#D28572"/>
<path d="M463.527 134.886L462.916 134.998L463.542 138.406L464.153 138.294L463.527 134.886Z" fill="#D28572"/>
<path d="M459.811 134.995L459.2 135.107L459.826 138.515L460.437 138.403L459.811 134.995Z" fill="#D28572"/>
<path d="M456.709 135.206L456.098 135.318L456.724 138.726L457.335 138.614L456.709 135.206Z" fill="#D28572"/>
<path d="M468.368 136.123L467.784 136.342L469.719 141.526L470.304 141.308L468.368 136.123Z" fill="#D28572"/>
<path d="M450.818 165.821L440.167 172.025C440.399 169.736 440.615 168.283 440.615 168.283C444.553 166.109 450.818 165.821 450.818 165.821Z" fill="#D28572"/>
<path opacity="0.4" d="M460.34 196.389C457.52 200.52 453.525 202.395 449.64 201.98C449.601 201.703 449.582 201.423 449.584 201.144C449.583 199.897 449.944 198.678 450.624 197.633C451.303 196.589 452.272 195.764 453.412 195.26C454.552 194.756 455.814 194.595 457.044 194.795C458.274 194.996 459.419 195.549 460.34 196.389Z" fill="#FE5B52"/>
<path opacity="0.4" d="M397.16 200.364C395.235 203.616 392.15 205.849 387.398 206.442C387.379 206.245 387.371 206.047 387.372 205.849C387.372 204.706 387.676 203.583 388.254 202.597C388.831 201.611 389.662 200.797 390.659 200.238C391.656 199.68 392.784 199.397 393.926 199.419C395.069 199.441 396.185 199.767 397.16 200.364Z" fill="#FE5B52"/>
<path d="M373.174 197.063C371.535 196.731 369.485 194.206 368.798 192.875L369.349 192.59C370.059 193.957 372.003 196.197 373.297 196.452L373.174 197.063Z" fill="#D28572"/>
<path d="M369.289 197.494C367.899 196.064 366.635 194.282 366.101 193.061L366.675 192.819C367.162 193.977 368.393 195.679 369.737 197.059L369.289 197.494Z" fill="#D28572"/>
<path d="M365.443 197.388C364.053 195.961 362.772 194.179 362.255 192.958L362.829 192.716C363.317 193.871 364.548 195.576 365.888 196.956L365.443 197.388Z" fill="#D28572"/>
<path d="M435.89 136.41C433.077 140.498 428.066 145.7 420.757 145.7C412.167 145.7 406.775 140.767 403.802 136.742L412.671 134.575C412.887 132.983 413.069 131.433 413.219 129.963C413.335 128.812 413.434 127.711 413.527 126.662C413.676 124.947 413.776 123.394 413.859 122.07C413.965 120.252 414.015 118.875 414.041 118.112C414.041 117.67 414.041 117.448 414.041 117.448L426.484 112.471C426.484 112.471 426.069 128.646 429.802 134.582L435.89 136.41Z" fill="#FFBC96"/>
<path d="M423.939 123.437C423.939 123.437 420.621 127.329 413.219 129.95C413.335 128.799 413.434 127.697 413.527 126.649C413.677 124.933 413.776 123.381 413.859 122.057L423.939 123.437Z" fill="#D28572"/>
<path d="M410.737 102.368C410.737 102.368 404.376 119.648 408.938 122.83C412.996 125.657 418.338 126.008 423.594 124.625L427.048 112.876L424.974 101.399L410.737 102.368Z" fill="#FFBC96"/>
<path d="M425.253 113.012C425.253 113.012 420.76 114.734 418.892 108.45C417.373 103.337 410.737 102.368 410.737 102.368L413.418 99.8797L426.205 99.5479L430.907 105.285L429.317 112.75L425.253 113.012Z" fill="#1B1B43"/>
<path d="M431.056 116.607C432.507 114.095 432.074 111.13 430.091 109.985C428.107 108.839 425.323 109.947 423.873 112.46C422.422 114.972 422.855 117.937 424.838 119.082C426.822 120.227 429.606 119.119 431.056 116.607Z" fill="#FFBC96"/>
<path d="M425.996 116.801H425.373C425.373 116.761 425.455 112.893 429.294 112.451L429.364 113.068C426.076 113.424 425.996 116.645 425.996 116.801Z" fill="#1B1B43"/>
<path d="M409.887 111.459C410.279 111.459 410.597 111.141 410.597 110.749C410.597 110.357 410.279 110.039 409.887 110.039C409.495 110.039 409.177 110.357 409.177 110.749C409.177 111.141 409.495 111.459 409.887 111.459Z" fill="#1B1B43"/>
<path d="M415.432 111.731C415.432 111.901 415.382 112.068 415.288 112.21C415.194 112.352 415.06 112.462 414.903 112.528C414.745 112.593 414.572 112.611 414.405 112.578C414.238 112.544 414.085 112.463 413.965 112.342C413.844 112.222 413.762 112.068 413.729 111.901C413.696 111.734 413.713 111.561 413.779 111.404C413.844 111.247 413.955 111.113 414.097 111.019C414.239 110.924 414.405 110.875 414.576 110.875C414.802 110.876 415.02 110.967 415.18 111.127C415.34 111.287 415.431 111.504 415.432 111.731Z" fill="#1B1B43"/>
<path d="M411.427 109.133H409.31C409.167 109.133 409.03 109.077 408.929 108.976C408.828 108.875 408.77 108.739 408.77 108.596C408.77 108.525 408.784 108.454 408.811 108.389C408.838 108.323 408.878 108.264 408.928 108.213C408.978 108.163 409.038 108.123 409.103 108.096C409.169 108.069 409.239 108.055 409.31 108.055H411.427C411.498 108.055 411.569 108.069 411.634 108.096C411.7 108.123 411.759 108.163 411.81 108.213C411.86 108.264 411.9 108.323 411.927 108.389C411.954 108.454 411.968 108.525 411.968 108.596C411.967 108.739 411.91 108.875 411.808 108.976C411.707 109.077 411.57 109.133 411.427 109.133Z" fill="#1B1B43"/>
<path d="M416.756 110.62L414.433 109.624C414.301 109.569 414.197 109.463 414.143 109.331C414.089 109.198 414.089 109.05 414.144 108.918C414.2 108.786 414.306 108.681 414.438 108.627C414.571 108.573 414.719 108.574 414.851 108.629L417.194 109.624C417.325 109.68 417.43 109.786 417.484 109.918C417.538 110.051 417.537 110.199 417.482 110.331C417.454 110.399 417.413 110.46 417.361 110.511C417.31 110.562 417.248 110.602 417.18 110.629C417.112 110.656 417.04 110.669 416.967 110.668C416.894 110.666 416.822 110.65 416.756 110.62Z" fill="#1B1B43"/>
<path d="M409.562 116.137C409.5 116.138 409.44 116.12 409.388 116.086C409.337 116.051 409.297 116.002 409.274 115.945C408.859 114.95 408.846 114.163 409.24 113.642C409.635 113.121 410.382 113.022 410.75 113.022L411.54 111.486C411.558 111.45 411.584 111.417 411.615 111.391C411.646 111.365 411.682 111.345 411.721 111.333C411.76 111.32 411.801 111.316 411.842 111.319C411.882 111.323 411.922 111.334 411.958 111.353C411.994 111.372 412.026 111.397 412.052 111.429C412.079 111.46 412.098 111.496 412.111 111.535C412.123 111.573 412.128 111.614 412.124 111.655C412.121 111.695 412.109 111.735 412.09 111.771L411.115 113.672L410.899 113.649C410.899 113.649 410.077 113.566 409.735 114.021C409.489 114.352 409.529 114.93 409.848 115.709C409.863 115.747 409.871 115.788 409.871 115.828C409.871 115.869 409.863 115.91 409.847 115.947C409.832 115.985 409.809 116.019 409.78 116.048C409.751 116.076 409.716 116.099 409.678 116.114C409.642 116.13 409.602 116.137 409.562 116.137Z" fill="#1B1B43"/>
<path d="M409.708 118.835C410.913 120.534 412.436 119.807 413.478 118.938C412.221 119.011 410.96 118.976 409.708 118.835Z" fill="#1B1B43"/>
<path d="M413.478 118.938C413.904 118.576 414.292 118.171 414.636 117.73C414.636 117.71 414.636 117.691 414.606 117.691C412.775 117.817 410.937 117.792 409.111 117.614C409.106 117.614 409.101 117.615 409.096 117.617C409.091 117.62 409.088 117.623 409.085 117.628C409.083 117.633 409.082 117.638 409.082 117.643C409.083 117.648 409.085 117.653 409.088 117.657C409.248 118.073 409.456 118.468 409.708 118.835C410.96 118.976 412.221 119.011 413.478 118.938Z" fill="white"/>
<path opacity="0.4" d="M420.784 115.544C420.784 115.973 420.658 116.393 420.419 116.75C420.181 117.108 419.842 117.386 419.446 117.551C419.049 117.716 418.613 117.759 418.191 117.675C417.77 117.592 417.383 117.385 417.079 117.081C416.776 116.778 416.569 116.391 416.485 115.969C416.402 115.548 416.445 115.112 416.61 114.715C416.774 114.318 417.053 113.979 417.41 113.741C417.768 113.503 418.188 113.376 418.617 113.377C419.192 113.377 419.743 113.605 420.149 114.012C420.555 114.418 420.784 114.969 420.784 115.544Z" fill="#FE5B52"/>
<path d="M554.099 399.74H0V400.57H554.099V399.74Z" fill="#1B1B43"/>
</g>
<defs>
<clipPath id="clip0_410_2816">
<rect width="554.099" height="400" fill="white" transform="translate(0 0.569702)"/>
</clipPath>
</defs>
</svg>
