<svg width="351" height="152" viewBox="0 0 351 152" fill="none" xmlns="http://www.w3.org/2000/svg">
<rect width="350.6" height="152" rx="10.54" fill="#F0EBF4"/>
<path d="M174.089 64.7221H180.805C182.29 64.7221 183.625 64.9717 184.81 65.471C186.007 65.958 186.959 66.7252 187.665 67.7725C188.372 68.8197 188.725 70.1836 188.725 71.864C188.725 73.5323 188.372 74.9145 187.665 76.0104C186.959 77.1064 186.007 77.9284 184.81 78.4763C183.625 79.0121 182.29 79.28 180.805 79.28H177.16V88.8331H174.089V64.7221ZM177.16 76.668H179.961C180.979 76.668 181.901 76.5158 182.727 76.2114C183.565 75.9069 184.229 75.4076 184.72 74.7135C185.223 74.0194 185.474 73.0879 185.474 71.9188C185.474 70.7376 185.223 69.8183 184.72 69.1607C184.229 68.4909 183.565 68.0221 182.727 67.7542C181.901 67.4741 180.979 67.3341 179.961 67.3341H177.16V76.668Z" fill="#F4F4F4"/>
<path d="M193.034 81.9834C193.045 82.8845 193.237 83.7065 193.608 84.4493C193.979 85.1921 194.53 85.7827 195.26 86.2211C196.003 86.6595 196.912 86.8787 197.99 86.8787C198.9 86.8787 199.672 86.7447 200.306 86.4768C200.953 86.1968 201.48 85.868 201.887 85.4905C202.294 85.1008 202.587 84.7537 202.767 84.4493L204.293 86.3672C203.898 86.9517 203.413 87.4632 202.839 87.9016C202.276 88.34 201.587 88.6748 200.773 88.9062C199.959 89.1497 198.966 89.2715 197.792 89.2715C196.212 89.2715 194.841 88.9306 193.68 88.2486C192.531 87.5545 191.645 86.5986 191.022 85.3809C190.4 84.151 190.088 82.7445 190.088 81.1614C190.088 79.7002 190.382 78.385 190.968 77.216C191.555 76.0348 192.405 75.1032 193.518 74.4213C194.644 73.7394 195.997 73.3984 197.577 73.3984C199.025 73.3984 200.283 73.7089 201.348 74.33C202.425 74.9388 203.258 75.8034 203.844 76.9237C204.443 78.044 204.742 79.3835 204.742 80.9422C204.742 81.0397 204.736 81.2162 204.724 81.472C204.712 81.7155 204.7 81.886 204.688 81.9834H193.034ZM201.761 79.5906C201.749 79.0913 201.605 78.5433 201.33 77.9466C201.067 77.3499 200.636 76.8385 200.037 76.4123C199.438 75.9861 198.63 75.773 197.613 75.773C196.559 75.773 195.709 75.98 195.063 76.394C194.428 76.808 193.961 77.3134 193.662 77.9101C193.363 78.4946 193.189 79.0548 193.141 79.5906H201.761Z" fill="#F4F4F4"/>
<path d="M213.723 73.3984C214.489 73.3984 215.202 73.4775 215.86 73.6358C216.531 73.7942 217.105 73.9829 217.584 74.2021C218.075 74.4213 218.422 74.6161 218.626 74.7866L217.387 76.7959C217.147 76.5767 216.716 76.3331 216.094 76.0652C215.471 75.7851 214.777 75.6451 214.011 75.6451C213.173 75.6451 212.46 75.8156 211.874 76.1566C211.287 76.4853 210.994 76.9663 210.994 77.5996C210.994 78.2328 211.293 78.7381 211.892 79.1156C212.502 79.481 213.316 79.7854 214.334 80.0289C215.148 80.2238 215.908 80.4856 216.614 80.8144C217.333 81.1432 217.913 81.5998 218.356 82.1843C218.799 82.7567 219.021 83.5238 219.021 84.4858C219.021 85.3626 218.841 86.1115 218.482 86.7326C218.123 87.3414 217.638 87.8346 217.027 88.2121C216.417 88.5774 215.734 88.8453 214.98 89.0158C214.226 89.1863 213.46 89.2715 212.682 89.2715C211.772 89.2715 210.952 89.1741 210.221 88.9793C209.491 88.7966 208.875 88.5774 208.372 88.3217C207.881 88.0538 207.522 87.8224 207.294 87.6276L208.533 85.3626C208.845 85.667 209.353 85.9897 210.06 86.3307C210.778 86.6717 211.592 86.8421 212.502 86.8421C213.508 86.8421 214.322 86.629 214.944 86.2028C215.567 85.7645 215.878 85.1982 215.878 84.5041C215.878 83.9805 215.729 83.5604 215.429 83.2438C215.13 82.9271 214.729 82.6714 214.226 82.4766C213.723 82.2817 213.173 82.1113 212.574 81.9651C211.999 81.8312 211.437 81.6546 210.886 81.4354C210.347 81.2162 209.85 80.9362 209.395 80.5952C208.952 80.242 208.599 79.8158 208.336 79.3166C208.072 78.8051 207.941 78.2084 207.941 77.5265C207.941 76.6619 208.21 75.9252 208.749 75.3163C209.288 74.6953 209.994 74.2204 210.868 73.8916C211.742 73.5628 212.694 73.3984 213.723 73.3984Z" fill="#F4F4F4"/>
<path d="M234.495 88.8331V85.9106C234.399 86.215 234.118 86.6351 233.651 87.1709C233.196 87.7067 232.567 88.1938 231.765 88.6322C230.975 89.0584 230.041 89.2715 228.964 89.2715C227.599 89.2715 226.36 88.9427 225.247 88.2852C224.145 87.6276 223.265 86.7082 222.607 85.527C221.96 84.3336 221.637 82.9393 221.637 81.3441C221.637 79.7489 221.96 78.3606 222.607 77.1794C223.265 75.9861 224.145 75.0606 225.247 74.403C226.36 73.7333 227.599 73.3984 228.964 73.3984C230.029 73.3984 230.951 73.5932 231.729 73.9829C232.519 74.3726 233.148 74.8231 233.615 75.3346C234.094 75.846 234.375 76.2844 234.459 76.6497V73.8368H237.548V88.8331H234.495ZM224.726 81.3441C224.726 82.4279 224.959 83.3655 225.426 84.1571C225.893 84.9486 226.498 85.5635 227.24 86.0019C227.994 86.4281 228.796 86.6412 229.646 86.6412C230.556 86.6412 231.37 86.422 232.088 85.9836C232.807 85.5453 233.375 84.9303 233.794 84.1388C234.214 83.3351 234.423 82.4035 234.423 81.3441C234.423 80.2847 234.214 79.3592 233.794 78.5677C233.375 77.764 232.807 77.1429 232.088 76.7045C231.37 76.254 230.556 76.0287 229.646 76.0287C228.796 76.0287 227.994 76.2479 227.24 76.6863C226.498 77.1247 225.893 77.7396 225.426 78.5311C224.959 79.3227 224.726 80.2603 224.726 81.3441Z" fill="#F4F4F4"/>
<path d="M249.193 64.2837C250.558 64.2837 251.731 64.442 252.713 64.7586C253.707 65.0752 254.485 65.4101 255.048 65.7632C255.622 66.1164 255.963 66.3477 256.071 66.4573L254.491 69.0328C254.311 68.8745 253.994 68.6492 253.539 68.357C253.084 68.0525 252.516 67.7846 251.833 67.5533C251.151 67.3097 250.373 67.188 249.499 67.188C248.146 67.188 247.074 67.468 246.284 68.0282C245.506 68.5762 245.117 69.3555 245.117 70.3662C245.117 71.0482 245.32 71.6509 245.727 72.1746C246.146 72.686 246.733 73.1548 247.487 73.5811C248.242 74.0073 249.122 74.4456 250.127 74.8962C250.953 75.2493 251.761 75.6512 252.551 76.1018C253.354 76.5523 254.078 77.082 254.724 77.6909C255.383 78.2998 255.904 79.006 256.287 79.8097C256.682 80.6135 256.879 81.5389 256.879 82.5862C256.879 83.6213 256.67 84.5528 256.251 85.3809C255.844 86.2089 255.263 86.9152 254.509 87.4997C253.767 88.0721 252.899 88.5104 251.905 88.8149C250.911 89.1193 249.84 89.2715 248.691 89.2715C247.242 89.2715 245.931 89.0889 244.758 88.7235C243.596 88.3582 242.657 87.9746 241.938 87.5728C241.232 87.1709 240.825 86.9213 240.717 86.8239L242.387 84.1388C242.531 84.2606 242.794 84.4432 243.177 84.6868C243.561 84.9181 244.033 85.1617 244.596 85.4174C245.159 85.6731 245.793 85.8923 246.5 86.075C247.206 86.2455 247.96 86.3307 248.762 86.3307C250.367 86.3307 251.582 85.9654 252.408 85.2347C253.234 84.5041 253.647 83.5665 253.647 82.4218C253.647 81.545 253.384 80.79 252.857 80.1568C252.33 79.5236 251.63 78.9573 250.756 78.4581C249.882 77.9588 248.918 77.4778 247.864 77.0151C246.787 76.5158 245.799 75.9678 244.901 75.3711C244.004 74.7744 243.279 74.0621 242.729 73.234C242.19 72.3938 241.92 71.383 241.92 70.2018C241.92 69.0328 242.244 68.0038 242.89 67.1149C243.549 66.226 244.429 65.5318 245.53 65.0326C246.643 64.5333 247.864 64.2837 249.193 64.2837Z" fill="#F4F4F4"/>
<path d="M259.441 73.8368H262.332V67.6811H265.439V73.8368H269.228V76.5584H265.439V83.9744C265.439 84.8512 265.588 85.4966 265.888 85.9106C266.199 86.3246 266.612 86.5316 267.127 86.5316C267.582 86.5316 267.935 86.4464 268.186 86.2759C268.438 86.1054 268.587 85.9897 268.635 85.9289L269.874 88.2669C269.803 88.3278 269.611 88.4435 269.3 88.6139C268.988 88.7844 268.587 88.9366 268.097 89.0706C267.606 89.2045 267.031 89.2715 266.373 89.2715C265.223 89.2715 264.26 88.9184 263.481 88.2121C262.715 87.4936 262.332 86.3611 262.332 84.8146V76.5584H259.441V73.8368Z" fill="#F4F4F4"/>
<path d="M284.44 88.8331V85.9106C284.344 86.215 284.063 86.6351 283.596 87.1709C283.141 87.7067 282.513 88.1938 281.711 88.6322C280.92 89.0584 279.987 89.2715 278.909 89.2715C277.544 89.2715 276.305 88.9427 275.192 88.2852C274.09 87.6276 273.21 86.7082 272.552 85.527C271.906 84.3336 271.582 82.9393 271.582 81.3441C271.582 79.7489 271.906 78.3606 272.552 77.1794C273.21 75.9861 274.09 75.0606 275.192 74.403C276.305 73.7333 277.544 73.3984 278.909 73.3984C279.975 73.3984 280.896 73.5932 281.675 73.9829C282.465 74.3726 283.093 74.8231 283.56 75.3346C284.039 75.846 284.32 76.2844 284.404 76.6497V73.8368H287.493V88.8331H284.44ZM274.671 81.3441C274.671 82.4279 274.905 83.3655 275.371 84.1571C275.838 84.9486 276.443 85.5635 277.185 86.0019C277.939 86.4281 278.742 86.6412 279.592 86.6412C280.501 86.6412 281.315 86.422 282.034 85.9836C282.752 85.5453 283.321 84.9303 283.74 84.1388C284.159 83.3351 284.368 82.4035 284.368 81.3441C284.368 80.2847 284.159 79.3592 283.74 78.5677C283.321 77.764 282.752 77.1429 282.034 76.7045C281.315 76.254 280.501 76.0287 279.592 76.0287C278.742 76.0287 277.939 76.2479 277.185 76.6863C276.443 77.1247 275.838 77.7396 275.371 78.5311C274.905 79.3227 274.671 80.2603 274.671 81.3441Z" fill="#F4F4F4"/>
<path d="M297.199 73.3984C297.965 73.3984 298.678 73.4775 299.336 73.6358C300.007 73.7942 300.581 73.9829 301.06 74.2021C301.551 74.4213 301.898 74.6161 302.102 74.7866L300.863 76.7959C300.623 76.5767 300.192 76.3331 299.57 76.0652C298.947 75.7851 298.253 75.6451 297.487 75.6451C296.648 75.6451 295.936 75.8156 295.35 76.1566C294.763 76.4853 294.47 76.9663 294.47 77.5996C294.47 78.2328 294.769 78.7381 295.367 79.1156C295.978 79.481 296.792 79.7854 297.81 80.0289C298.624 80.2238 299.384 80.4856 300.09 80.8144C300.809 81.1432 301.389 81.5998 301.832 82.1843C302.275 82.7567 302.497 83.5238 302.497 84.4858C302.497 85.3626 302.317 86.1115 301.958 86.7326C301.599 87.3414 301.114 87.8346 300.503 88.2121C299.893 88.5774 299.21 88.8453 298.456 89.0158C297.702 89.1863 296.936 89.2715 296.158 89.2715C295.248 89.2715 294.428 89.1741 293.697 88.9793C292.967 88.7966 292.351 88.5774 291.848 88.3217C291.357 88.0538 290.998 87.8224 290.77 87.6276L292.009 85.3626C292.321 85.667 292.829 85.9897 293.536 86.3307C294.254 86.6717 295.068 86.8421 295.978 86.8421C296.984 86.8421 297.798 86.629 298.42 86.2028C299.043 85.7645 299.354 85.1982 299.354 84.5041C299.354 83.9805 299.204 83.5604 298.905 83.2438C298.606 82.9271 298.205 82.6714 297.702 82.4766C297.199 82.2817 296.648 82.1113 296.05 81.9651C295.475 81.8312 294.913 81.6546 294.362 81.4354C293.823 81.2162 293.326 80.9362 292.871 80.5952C292.428 80.242 292.075 79.8158 291.812 79.3166C291.548 78.8051 291.417 78.2084 291.417 77.5265C291.417 76.6619 291.686 75.9252 292.225 75.3163C292.764 74.6953 293.47 74.2204 294.344 73.8916C295.218 73.5628 296.17 73.3984 297.199 73.3984Z" fill="#F4F4F4"/>
<path d="M314.469 73.3984C315.439 73.3984 316.379 73.6054 317.288 74.0194C318.21 74.4335 318.964 75.091 319.551 75.9922C320.15 76.8811 320.449 78.044 320.449 79.481V88.8331H317.288V80.102C317.288 78.6164 316.953 77.5387 316.283 76.8689C315.624 76.187 314.756 75.846 313.679 75.846C312.961 75.846 312.272 76.053 311.614 76.4671C310.955 76.8689 310.411 77.4291 309.98 78.1475C309.561 78.8538 309.351 79.6575 309.351 80.5587V88.8331H306.19V63.6992H309.351V76.5036C309.459 76.0896 309.746 75.639 310.213 75.1519C310.692 74.6648 311.302 74.2508 312.045 73.9098C312.787 73.5689 313.595 73.3984 314.469 73.3984Z" fill="#F4F4F4"/>
<path d="M156.52 85.5986C156.52 90.2389 152.822 94.0005 148.26 94.0005C143.698 94.0005 140 90.2389 140 85.5986C140 80.9584 143.698 77.1967 148.26 77.1967C152.822 77.1967 156.52 80.9584 156.52 85.5986Z" fill="url(#paint0_linear_751_6971)"/>
<path d="M160.944 67.4019C160.944 72.0421 157.245 75.8038 152.684 75.8038C148.122 75.8038 144.423 72.0421 144.423 67.4019C144.423 62.7617 148.122 59 152.684 59C157.245 59 160.944 62.7617 160.944 67.4019Z" fill="url(#paint1_linear_751_6971)"/>
<path d="M143.788 83.5575L155.898 70.6756" stroke="url(#paint2_linear_751_6971)" stroke-width="7.19664" stroke-linecap="round"/>
<rect x="0.5" y="0.5" width="241.76" height="151" rx="10.04" fill="#E7DFEE"/>
<path d="M48.0002 60.0228H54.7165C56.201 60.0228 57.5359 60.2725 58.7211 60.7717C59.9183 61.2588 60.87 62.026 61.5764 63.0733C62.2827 64.1205 62.6359 65.4844 62.6359 67.1648C62.6359 68.8331 62.2827 70.2153 61.5764 71.3112C60.87 72.4072 59.9183 73.2291 58.7211 73.7771C57.5359 74.3129 56.201 74.5808 54.7165 74.5808H51.071V84.1339H48.0002V60.0228ZM51.071 71.9688H53.8725C54.8901 71.9688 55.8119 71.8166 56.638 71.5121C57.476 71.2077 58.1404 70.7084 58.6313 70.0143C59.1341 69.3202 59.3855 68.3887 59.3855 67.2196C59.3855 66.0384 59.1341 65.119 58.6313 64.4615C58.1404 63.7917 57.476 63.3229 56.638 63.055C55.8119 62.7749 54.8901 62.6349 53.8725 62.6349H51.071V71.9688Z" fill="#F4F4F4"/>
<path d="M66.9447 77.2842C66.9566 78.1853 67.1482 79.0073 67.5193 79.7501C67.8904 80.4929 68.4411 81.0835 69.1714 81.5219C69.9137 81.9603 70.8236 82.1795 71.901 82.1795C72.8109 82.1795 73.5831 82.0455 74.2176 81.7776C74.8641 81.4975 75.3908 81.1687 75.7979 80.7913C76.2049 80.4016 76.4982 80.0545 76.6778 79.7501L78.2042 81.668C77.8092 82.2525 77.3243 82.764 76.7496 83.2024C76.187 83.6407 75.4986 83.9756 74.6845 84.207C73.8704 84.4505 72.8767 84.5723 71.7035 84.5723C70.1232 84.5723 68.7524 84.2313 67.5911 83.5494C66.4418 82.8553 65.5559 81.8994 64.9334 80.6817C64.3108 79.4517 63.9996 78.0453 63.9996 76.4622C63.9996 75.0009 64.2929 73.6858 64.8795 72.5168C65.4661 71.3356 66.3161 70.404 67.4295 69.7221C68.5549 69.0401 69.9077 68.6992 71.488 68.6992C72.9366 68.6992 74.1936 69.0097 75.2591 69.6307C76.3366 70.2396 77.1687 71.1042 77.7553 72.2245C78.3539 73.3448 78.6532 74.6843 78.6532 76.243C78.6532 76.3404 78.6472 76.517 78.6352 76.7727C78.6233 77.0163 78.6113 77.1868 78.5993 77.2842H66.9447ZM75.6722 74.8913C75.6602 74.3921 75.5165 73.8441 75.2412 73.2474C74.9778 72.6507 74.5468 72.1393 73.9482 71.7131C73.3496 71.2869 72.5415 71.0737 71.5239 71.0737C70.4704 71.0737 69.6204 71.2808 68.9739 71.6948C68.3394 72.1088 67.8725 72.6142 67.5732 73.2109C67.2739 73.7954 67.1003 74.3555 67.0524 74.8913H75.6722Z" fill="#F4F4F4"/>
<path d="M87.6344 68.6992C88.4006 68.6992 89.1129 68.7783 89.7713 68.9366C90.4418 69.0949 91.0164 69.2837 91.4953 69.5029C91.9861 69.7221 92.3333 69.9169 92.5368 70.0874L91.2978 72.0966C91.0583 71.8775 90.6273 71.6339 90.0048 71.366C89.3822 71.0859 88.6879 70.9459 87.9217 70.9459C87.0836 70.9459 86.3713 71.1164 85.7847 71.4573C85.1981 71.7861 84.9048 72.2671 84.9048 72.9003C84.9048 73.5336 85.2041 74.0389 85.8027 74.4164C86.4132 74.7817 87.2273 75.0862 88.2449 75.3297C89.059 75.5246 89.8192 75.7864 90.5256 76.1152C91.2439 76.4439 91.8245 76.9006 92.2675 77.4851C92.7104 78.0574 92.9319 78.8246 92.9319 79.7866C92.9319 80.6634 92.7523 81.4123 92.3932 82.0333C92.034 82.6422 91.5492 83.1354 90.9386 83.5129C90.328 83.8782 89.6456 84.1461 88.8914 84.3166C88.1372 84.4871 87.371 84.5723 86.5928 84.5723C85.6829 84.5723 84.8629 84.4749 84.1326 84.28C83.4023 84.0974 82.7857 83.8782 82.2829 83.6225C81.7921 83.3546 81.4329 83.1232 81.2054 82.9284L82.4445 80.6634C82.7558 80.9678 83.2646 81.2905 83.9709 81.6315C84.6893 81.9724 85.5034 82.1429 86.4132 82.1429C87.4189 82.1429 88.2329 81.9298 88.8555 81.5036C89.478 81.0652 89.7893 80.499 89.7893 79.8049C89.7893 79.2813 89.6396 78.8611 89.3403 78.5445C89.041 78.2279 88.64 77.9722 88.1372 77.7774C87.6343 77.5825 87.0836 77.412 86.4851 77.2659C85.9104 77.132 85.3477 76.9554 84.797 76.7362C84.2583 76.517 83.7614 76.2369 83.3065 75.896C82.8635 75.5428 82.5104 75.1166 82.247 74.6174C81.9836 74.1059 81.8519 73.5092 81.8519 72.8273C81.8519 71.9627 82.1213 71.226 82.66 70.6171C83.1988 69.9961 83.9051 69.5211 84.7791 69.1924C85.653 68.8636 86.6048 68.6992 87.6344 68.6992Z" fill="#F4F4F4"/>
<path d="M108.406 84.1339V81.2114C108.31 81.5158 108.029 81.9359 107.562 82.4717C107.107 83.0075 106.479 83.4946 105.676 83.933C104.886 84.3592 103.952 84.5723 102.875 84.5723C101.51 84.5723 100.271 84.2435 99.1577 83.5859C98.0563 82.9284 97.1763 82.009 96.5179 80.8278C95.8714 79.6344 95.5482 78.2401 95.5482 76.6449C95.5482 75.0496 95.8714 73.6614 96.5179 72.4802C97.1763 71.2869 98.0563 70.3614 99.1577 69.7038C100.271 69.034 101.51 68.6992 102.875 68.6992C103.94 68.6992 104.862 68.894 105.64 69.2837C106.431 69.6734 107.059 70.1239 107.526 70.6354C108.005 71.1468 108.286 71.5852 108.37 71.9505V69.1376H111.459V84.1339H108.406ZM98.6369 76.6449C98.6369 77.7287 98.8704 78.6663 99.3373 79.4578C99.8042 80.2494 100.409 80.8643 101.151 81.3027C101.905 81.7289 102.707 81.942 103.557 81.942C104.467 81.942 105.281 81.7228 106 81.2844C106.718 80.846 107.287 80.2311 107.706 79.4396C108.125 78.6359 108.334 77.7043 108.334 76.6449C108.334 75.5854 108.125 74.66 107.706 73.8684C107.287 73.0647 106.718 72.4437 106 72.0053C105.281 71.5548 104.467 71.3295 103.557 71.3295C102.707 71.3295 101.905 71.5487 101.151 71.9871C100.409 72.4254 99.8042 73.0404 99.3373 73.8319C98.8704 74.6234 98.6369 75.5611 98.6369 76.6449Z" fill="#F4F4F4"/>
<path d="M123.104 59.5844C124.469 59.5844 125.643 59.7428 126.624 60.0594C127.618 60.376 128.396 60.7109 128.959 61.064C129.533 61.4171 129.875 61.6485 129.982 61.7581L128.402 64.3336C128.222 64.1753 127.905 63.95 127.45 63.6578C126.995 63.3533 126.427 63.0854 125.744 62.8541C125.062 62.6105 124.284 62.4887 123.41 62.4887C122.057 62.4887 120.985 62.7688 120.195 63.329C119.417 63.877 119.028 64.6563 119.028 65.667C119.028 66.3489 119.232 66.9517 119.639 67.4754C120.058 67.9868 120.644 68.4556 121.398 68.8818C122.153 69.308 123.033 69.7464 124.038 70.197C124.864 70.5501 125.672 70.952 126.463 71.4025C127.265 71.8531 127.989 72.3828 128.635 72.9917C129.294 73.6005 129.815 74.3068 130.198 75.1105C130.593 75.9142 130.79 76.8397 130.79 77.887C130.79 78.922 130.581 79.8536 130.162 80.6817C129.755 81.5097 129.174 82.216 128.42 82.8005C127.678 83.3728 126.81 83.8112 125.816 84.1157C124.822 84.4201 123.751 84.5723 122.602 84.5723C121.153 84.5723 119.842 84.3896 118.669 84.0243C117.508 83.659 116.568 83.2754 115.85 82.8736C115.143 82.4717 114.736 82.2221 114.628 82.1247L116.298 79.4396C116.442 79.5613 116.705 79.744 117.089 79.9875C117.472 80.2189 117.945 80.4625 118.507 80.7182C119.07 80.9739 119.704 81.1931 120.411 81.3758C121.117 81.5462 121.871 81.6315 122.673 81.6315C124.278 81.6315 125.493 81.2662 126.319 80.5355C127.145 79.8049 127.558 78.8672 127.558 77.7226C127.558 76.8458 127.295 76.0908 126.768 75.4576C126.241 74.8244 125.541 74.2581 124.667 73.7588C123.793 73.2596 122.829 72.7786 121.776 72.3158C120.698 71.8166 119.71 71.2686 118.813 70.6719C117.915 70.0752 117.19 69.3628 116.64 68.5348C116.101 67.6945 115.832 66.6838 115.832 65.5026C115.832 64.3336 116.155 63.3046 116.801 62.4157C117.46 61.5267 118.34 60.8326 119.441 60.3334C120.554 59.8341 121.776 59.5844 123.104 59.5844Z" fill="#F4F4F4"/>
<path d="M133.352 69.1376H136.243V62.9819H139.35V69.1376H143.139V71.8592H139.35V79.2752C139.35 80.1519 139.5 80.7973 139.799 81.2114C140.11 81.6254 140.523 81.8324 141.038 81.8324C141.493 81.8324 141.846 81.7472 142.097 81.5767C142.349 81.4062 142.498 81.2905 142.546 81.2296L143.785 83.5677C143.714 83.6286 143.522 83.7442 143.211 83.9147C142.9 84.0852 142.498 84.2374 142.008 84.3714C141.517 84.5053 140.942 84.5723 140.284 84.5723C139.134 84.5723 138.171 84.2192 137.392 83.5129C136.626 82.7944 136.243 81.6619 136.243 80.1154V71.8592H133.352V69.1376Z" fill="#F4F4F4"/>
<path d="M158.351 84.1339V81.2114C158.255 81.5158 157.974 81.9359 157.507 82.4717C157.052 83.0075 156.424 83.4946 155.622 83.933C154.832 84.3592 153.898 84.5723 152.82 84.5723C151.455 84.5723 150.216 84.2435 149.103 83.5859C148.002 82.9284 147.122 82.009 146.463 80.8278C145.817 79.6344 145.493 78.2401 145.493 76.6449C145.493 75.0496 145.817 73.6614 146.463 72.4802C147.122 71.2869 148.002 70.3614 149.103 69.7038C150.216 69.034 151.455 68.6992 152.82 68.6992C153.886 68.6992 154.808 68.894 155.586 69.2837C156.376 69.6734 157.004 70.1239 157.471 70.6354C157.95 71.1468 158.232 71.5852 158.315 71.9505V69.1376H161.404V84.1339H158.351ZM148.582 76.6449C148.582 77.7287 148.816 78.6663 149.283 79.4578C149.749 80.2494 150.354 80.8643 151.096 81.3027C151.851 81.7289 152.653 81.942 153.503 81.942C154.413 81.942 155.227 81.7228 155.945 81.2844C156.663 80.846 157.232 80.2311 157.651 79.4396C158.07 78.6359 158.279 77.7043 158.279 76.6449C158.279 75.5854 158.07 74.66 157.651 73.8684C157.232 73.0647 156.663 72.4437 155.945 72.0053C155.227 71.5548 154.413 71.3295 153.503 71.3295C152.653 71.3295 151.851 71.5487 151.096 71.9871C150.354 72.4254 149.749 73.0404 149.283 73.8319C148.816 74.6234 148.582 75.5611 148.582 76.6449Z" fill="#F4F4F4"/>
<path d="M171.11 68.6992C171.877 68.6992 172.589 68.7783 173.247 68.9366C173.918 69.0949 174.492 69.2837 174.971 69.5029C175.462 69.7221 175.809 69.9169 176.013 70.0874L174.774 72.0966C174.534 71.8775 174.103 71.6339 173.481 71.366C172.858 71.0859 172.164 70.9459 171.398 70.9459C170.56 70.9459 169.847 71.1164 169.261 71.4573C168.674 71.7861 168.381 72.2671 168.381 72.9003C168.381 73.5336 168.68 74.0389 169.279 74.4164C169.889 74.7817 170.703 75.0862 171.721 75.3297C172.535 75.5246 173.295 75.7864 174.002 76.1152C174.72 76.4439 175.3 76.9006 175.743 77.4851C176.186 78.0574 176.408 78.8246 176.408 79.7866C176.408 80.6634 176.228 81.4123 175.869 82.0333C175.51 82.6422 175.025 83.1354 174.415 83.5129C173.804 83.8782 173.122 84.1461 172.367 84.3166C171.613 84.4871 170.847 84.5723 170.069 84.5723C169.159 84.5723 168.339 84.4749 167.609 84.28C166.878 84.0974 166.262 83.8782 165.759 83.6225C165.268 83.3546 164.909 83.1232 164.681 82.9284L165.92 80.6634C166.232 80.9678 166.741 81.2905 167.447 81.6315C168.165 81.9724 168.979 82.1429 169.889 82.1429C170.895 82.1429 171.709 81.9298 172.331 81.5036C172.954 81.0652 173.265 80.499 173.265 79.8049C173.265 79.2813 173.116 78.8611 172.816 78.5445C172.517 78.2279 172.116 77.9722 171.613 77.7774C171.11 77.5825 170.56 77.412 169.961 77.2659C169.386 77.132 168.824 76.9554 168.273 76.7362C167.734 76.517 167.237 76.2369 166.782 75.896C166.34 75.5428 165.986 75.1166 165.723 74.6174C165.46 74.1059 165.328 73.5092 165.328 72.8273C165.328 71.9627 165.597 71.226 166.136 70.6171C166.675 69.9961 167.381 69.5211 168.255 69.1924C169.129 68.8636 170.081 68.6992 171.11 68.6992Z" fill="#F4F4F4"/>
<path d="M188.38 68.6992C189.35 68.6992 190.29 68.9062 191.2 69.3202C192.121 69.7342 192.876 70.3918 193.462 71.2929C194.061 72.1819 194.36 73.3448 194.36 74.7817V84.1339H191.2V75.4028C191.2 73.9172 190.864 72.8395 190.194 72.1697C189.535 71.4878 188.667 71.1468 187.59 71.1468C186.872 71.1468 186.183 71.3538 185.525 71.7679C184.866 72.1697 184.322 72.7299 183.891 73.4483C183.472 74.1546 183.262 74.9583 183.262 75.8594V84.1339H180.102V58.9999H183.262V71.8044C183.37 71.3904 183.657 70.9398 184.124 70.4527C184.603 69.9656 185.214 69.5516 185.956 69.2106C186.698 68.8697 187.506 68.6992 188.38 68.6992Z" fill="#F4F4F4"/>
<rect x="0.5" y="0.5" width="241.76" height="151" rx="10.04" stroke="#BFABD3"/>
<defs>
<linearGradient id="paint0_linear_751_6971" x1="148.26" y1="67.4833" x2="148.26" y2="96.8281" gradientUnits="userSpaceOnUse">
<stop stop-color="#F4F4F4"/>
<stop offset="1" stop-color="#F4F4F4" stop-opacity="0"/>
</linearGradient>
<linearGradient id="paint1_linear_751_6971" x1="152.684" y1="47.5484" x2="152.684" y2="75.8038" gradientUnits="userSpaceOnUse">
<stop stop-color="#F4F4F4"/>
<stop offset="1" stop-color="#F4F4F4" stop-opacity="0"/>
</linearGradient>
<linearGradient id="paint2_linear_751_6971" x1="147.7" y1="73.7714" x2="154.8" y2="66.4718" gradientUnits="userSpaceOnUse">
<stop stop-color="#FFC857"/>
<stop offset="1" stop-color="#FFC857" stop-opacity="0"/>
</linearGradient>
</defs>
</svg>
