<svg width="154" height="153" viewBox="0 0 154 153" fill="none" xmlns="http://www.w3.org/2000/svg">
<circle cx="77" cy="76.5" r="76.5" fill="#F0EBF4"/>
<g clipPath="url(#clip0_1721_27468)">
<path fill-rule="evenodd" clip-rule="evenodd" d="M32.3203 75.6994C32.3203 51.9194 52.5003 32.6094 77.3203 32.6094C102.14 32.6094 122.32 51.9194 122.32 75.6994C122.287 82.1046 120.802 88.419 117.977 94.1677C115.152 99.9164 111.061 104.95 106.01 108.889L107.11 127.679L91.1103 116.679C86.6239 118.064 81.9555 118.768 77.2603 118.769C52.4903 118.799 32.3203 99.4894 32.3203 75.6994Z" fill="#4B0082"/>
<path d="M38.85 45.0391C31.3878 53.5267 27.2652 64.4375 27.25 75.7391C27.25 102.249 49.69 123.739 77.36 123.739C80.7511 123.733 84.1336 123.398 87.46 122.739" stroke="#DFD2EB" stroke-width="1.5" stroke-miterlimit="10"/>
<path d="M77.3603 27.7502C67.9193 27.7237 58.6524 30.2903 50.5703 35.1702" stroke="#DFD2EB" stroke-width="1.5" stroke-miterlimit="10"/>
<path d="M114.18 108.3C122.686 99.5934 127.461 87.9123 127.49 75.7401C127.49 57.3601 116.69 41.3901 100.84 33.3301" stroke="#DFD2EB" stroke-width="1.5" stroke-miterlimit="10"/>
<path d="M94.1004 92.7397L89.2904 86.7397C88.6263 85.9389 87.6764 85.4283 86.6421 85.3163C85.6078 85.2043 84.5705 85.4997 83.7504 86.1397L82.3004 87.3097C81.8897 87.6328 81.3688 87.7823 80.8493 87.7262C80.3297 87.6702 79.8528 87.413 79.5204 87.0097L73.5204 79.5997L72.8004 78.7197L66.8004 71.2997C66.4804 70.8896 66.3327 70.371 66.3887 69.8539C66.4447 69.3367 66.7 68.8618 67.1004 68.5297L68.5504 67.3597C69.3512 66.6956 69.8618 65.7457 69.9738 64.7114C70.0858 63.6771 69.7905 62.6399 69.1504 61.8197L64.3404 55.8197C63.6763 55.0189 62.7264 54.5083 61.6921 54.3963C60.6578 54.2843 59.6206 54.5797 58.8004 55.2197L57.2204 56.4997C56.2389 57.2875 55.4225 58.2611 54.8177 59.3648C54.213 60.4685 53.832 61.6807 53.6964 62.9319C53.5607 64.1831 53.6732 65.4487 54.0274 66.6564C54.3816 67.864 54.9705 68.99 55.7604 69.9697L59.5004 74.6197L66.7104 83.6197L67.4204 84.5097L74.6204 93.5097L78.3704 98.1597C79.9644 100.138 82.279 101.402 84.8051 101.674C87.3312 101.946 89.8619 101.204 91.8404 99.6097L93.4204 98.3397C93.8382 98.0207 94.188 97.6213 94.4491 97.1651C94.7102 96.7088 94.8774 96.2049 94.9408 95.683C95.0041 95.1612 94.9624 94.6319 94.8181 94.1264C94.6738 93.6209 94.4298 93.1494 94.1004 92.7397Z" fill="#BFABD3"/>
<path d="M88.49 79.1105H88.33C88.2124 79.0888 88.1003 79.0442 88 78.9792C87.8997 78.9142 87.8132 78.8301 87.7454 78.7317C87.6776 78.6332 87.6299 78.5224 87.6049 78.4055C87.58 78.2887 87.5783 78.168 87.6 78.0505C88.27 74.2905 87.7 71.2505 85.91 69.0505C82.85 65.2605 77.16 65.0505 77.1 65.0505C76.8595 65.0401 76.6326 64.9358 76.4681 64.7601C76.3036 64.5843 76.2145 64.3511 76.22 64.1105C76.2479 63.8766 76.3575 63.66 76.5295 63.499C76.7015 63.3381 76.9247 63.2429 77.16 63.2305C77.43 63.2305 83.72 63.4905 87.31 67.9205C89.46 70.5605 90.16 74.0905 89.39 78.4105C89.3421 78.6122 89.2269 78.7916 89.0632 78.9189C88.8995 79.0462 88.6973 79.1138 88.49 79.1105Z" fill="#FFC857"/>
<path d="M94.2398 78.8106H94.1598C93.9172 78.7878 93.6936 78.6697 93.538 78.4823C93.3824 78.2948 93.3075 78.0532 93.3298 77.8106C94.8698 61.5506 79.2298 59.5306 78.5698 59.4506C78.4513 59.4382 78.3365 59.4024 78.232 59.3453C78.1275 59.2881 78.0353 59.2108 77.9609 59.1178C77.8865 59.0248 77.8313 58.9179 77.7985 58.8034C77.7657 58.6888 77.7559 58.5689 77.7698 58.4506C77.7999 58.2135 77.9211 57.9974 78.1078 57.8481C78.2944 57.6988 78.5319 57.628 78.7698 57.6506C78.9498 57.6506 96.8398 59.9206 95.1398 77.9806C95.1199 78.2061 95.0167 78.4161 94.8503 78.5696C94.6838 78.7231 94.4662 78.809 94.2398 78.8106Z" fill="#FFC857"/>
<path d="M99.9104 77.8396C99.6698 77.837 99.4399 77.7403 99.2698 77.5702C99.0997 77.4001 99.003 77.1702 99.0004 76.9296C98.8804 58.3396 81.3904 54.2796 80.6404 54.1696C80.5233 54.1436 80.4126 54.0948 80.3145 54.0259C80.2165 53.9569 80.1329 53.8693 80.0688 53.768C80.0047 53.6667 79.9613 53.5538 79.9409 53.4357C79.9206 53.3175 79.9238 53.1965 79.9504 53.0796C79.9752 52.963 80.023 52.8525 80.0909 52.7545C80.1588 52.6565 80.2456 52.573 80.3461 52.5088C80.4465 52.4446 80.5588 52.401 80.6762 52.3805C80.7937 52.3601 80.9141 52.3632 81.0304 52.3896C81.2304 52.3896 100.69 56.9096 100.82 76.9696C100.822 77.0891 100.799 77.2077 100.755 77.3186C100.71 77.4296 100.644 77.5306 100.561 77.616C100.477 77.7015 100.378 77.7696 100.268 77.8166C100.158 77.8635 100.04 77.8883 99.9203 77.8896L99.9104 77.8396Z" fill="#FFC857"/>
</g>
<defs>
<clipPath id="clip0_1721_27468">
<rect width="101.72" height="100.68" fill="white" transform="translate(26.5 27)"/>
</clipPath>
</defs>
</svg>
