<svg width="154" height="139" viewBox="0 0 154 139" fill="none" xmlns="http://www.w3.org/2000/svg">
<g opacity="0.5">
<path d="M77.6231 138.301C39.7251 138.301 8.8916 107.471 8.8916 69.5731C8.8916 31.6751 39.7251 0.841614 77.6231 0.841614C115.521 0.841614 146.351 31.6751 146.351 69.5731C146.351 107.471 115.521 138.301 77.6231 138.301ZM77.6231 14.7961C47.4187 14.7961 22.846 39.3687 22.846 69.5731C22.846 99.7776 47.4187 124.35 77.6231 124.35C107.828 124.35 132.4 99.7776 132.4 69.5731C132.4 39.3687 107.828 14.7961 77.6231 14.7961Z" fill="#E7DFEE"/>
<path d="M39.0328 21.112L29.1655 30.9793L116.217 118.031L126.085 108.164L39.0328 21.112Z" fill="#E7DFEE"/>
</g>
<path d="M29.1009 0C4.87414 0 4.83462 34.4497 29.1009 34.4497C53.3672 34.4497 53.3672 0 29.1009 0Z" fill="#E7DFEE"/>
<path d="M43.8326 20.4562C42.5383 26.3844 37.6244 31.5222 29.0976 31.5222C8.96134 31.5222 9.00744 2.92828 29.0976 2.92828C29.2294 2.92828 29.3611 2.92828 29.4928 2.92828C10.5718 3.27739 10.6641 30.353 29.865 30.353C37.6936 30.3596 42.3604 25.8278 43.8326 20.4562Z" fill="#DFD2EB"/>
<path d="M123.482 100.174C101.666 104.086 107.429 136.402 129.281 132.479C151.134 128.557 145.331 96.2513 123.482 100.174Z" fill="#DFD2EB"/>
<path d="M125.53 99.8065C104.742 103.538 110.505 135.85 131.33 132.115C152.155 128.381 146.355 96.0684 125.53 99.8065Z" fill="#E7DFEE"/>
<path d="M141.616 116.72C141.504 122.477 138.151 128.053 130.833 129.367C113.552 132.47 108.767 105.654 126.021 102.552C126.133 102.532 126.249 102.512 126.351 102.499C110.173 105.737 114.823 131.116 131.291 128.162C138.016 126.956 141.257 121.987 141.616 116.72Z" fill="#DFD2EB"/>
<path d="M121.775 118.572L126.678 109.362L128.359 110.257L128.849 120.86L128.765 120.833L133.062 112.76L134.255 113.395L129.353 122.606L127.657 121.703L127.193 111.086L127.262 111.141L122.969 119.207L121.775 118.572ZM123.226 113.98L123.679 113.129L132.805 117.987L132.352 118.838L123.226 113.98Z" fill="#DFD2EB"/>
<path d="M143.026 39.1177C129.404 43.3301 115.782 24.9558 102.164 29.178C104.297 25.0401 106.691 21.0415 109.33 17.2062C120.419 19.0868 131.505 30.6733 142.594 27.6235C142.737 31.4571 142.881 35.2885 143.026 39.1177Z" fill="#E7DFEE"/>
<path d="M129.434 31.8221C129.002 33.8377 126.16 34.3054 123.074 32.685C119.988 31.0646 118.183 28.4365 119.013 26.6679C119.843 24.8993 122.682 24.616 125.356 25.9795C128.031 27.343 129.865 29.823 129.434 31.8221Z" fill="#DFD2EB"/>
<path d="M115.683 24.8575C115.463 25.2626 114.652 25.3285 113.875 25.0453C113.098 24.762 112.663 24.2219 112.91 23.8003C113.157 23.3788 113.964 23.2569 114.718 23.5566C115.472 23.8563 115.904 24.4524 115.683 24.8575Z" fill="#DFD2EB"/>
<path d="M135.704 33.5421C135.658 34.0361 134.993 34.3259 134.212 34.1283C133.431 33.9307 132.858 33.3379 132.928 32.8603C132.997 32.3828 133.662 32.1852 134.416 32.3663C135.17 32.5475 135.747 33.0481 135.704 33.5421Z" fill="#DFD2EB"/>
<path d="M110.338 17.394C107.806 21.0773 105.489 24.9042 103.399 28.8553C102.987 28.9442 102.575 29.0496 102.164 29.1846C104.296 25.0437 106.689 21.0429 109.33 17.2062C109.666 17.2589 110.002 17.3215 110.338 17.394Z" fill="#DFD2EB"/>
<path d="M143.026 39.1192C142.611 39.2477 142.199 39.3563 141.784 39.4486C141.718 35.5864 141.651 31.7243 141.583 27.8621C141.912 27.7963 142.242 27.7172 142.591 27.6217C142.736 31.4575 142.881 35.29 143.026 39.1192Z" fill="#DFD2EB"/>
<path d="M142.996 38.3955C142.996 38.636 143.016 38.8764 143.022 39.1168C129.404 43.3292 115.782 24.9549 102.164 29.1771C102.312 28.8873 102.463 28.6008 102.615 28.3142C116.075 24.6387 129.536 42.5256 142.996 38.3955Z" fill="#DFD2EB"/>
<path d="M142.591 27.6169C142.591 27.8573 142.607 28.0978 142.617 28.3382C131.37 31.4571 120.126 19.4919 108.879 17.8649L109.33 17.2062C120.416 19.0769 131.502 30.6634 142.591 27.6169Z" fill="#DFD2EB"/>
<path d="M106.54 27.8138C105.634 27.805 104.729 27.88 103.836 28.0378C104.159 27.4449 104.481 26.862 104.801 26.2889C106.257 26.144 107.034 26.9476 106.54 27.8138Z" fill="#DFD2EB"/>
<path d="M141.744 37.0975L141.774 38.7113C140.883 38.8983 139.977 38.9998 139.067 39.0143C139.09 38.1152 140.289 37.4038 141.744 37.0975Z" fill="#DFD2EB"/>
<path d="M139.33 28.8447C140.091 28.8156 140.849 28.7276 141.596 28.5812L141.626 30.1917C140.335 30.4519 139.311 29.7207 139.33 28.8447Z" fill="#DFD2EB"/>
<path d="M108.938 19.4798C109.267 18.9891 109.58 18.4918 109.9 18.034C110.654 18.1822 111.405 18.3633 112.156 18.6038C111.665 19.3382 110.229 19.661 108.938 19.4798Z" fill="#DFD2EB"/>
<path d="M121.654 29.8899L124.057 26.7524L124.63 27.1911L124.155 31.1836L124.125 31.1684L126.232 28.4182L126.638 28.7296L124.235 31.8671L123.657 31.4247L124.142 27.4287L124.165 27.4535L122.06 30.2013L121.654 29.8899ZM122.48 28.2641L122.702 27.9741L125.811 30.3554L125.589 30.6454L122.48 28.2641Z" fill="#E7DFEE"/>
<path d="M94.0574 67.8776C83.235 63.0099 72.4127 76.6712 61.5903 71.8034C62.4335 69.2367 63.2755 66.5646 64.1164 63.7871C72.9232 65.5788 81.7299 57.0125 90.5334 58.0499C91.7091 61.1392 92.8849 64.3997 94.0574 67.8776Z" fill="#E7DFEE"/>
<path d="M81.7102 64.0116C81.9637 65.5727 80.1853 67.5488 77.758 68.5599C75.3307 69.571 73.3908 68.9057 73.4567 67.2195C73.5226 65.5332 75.2945 63.5769 77.4089 62.7008C79.5233 61.8248 81.4598 62.434 81.7102 64.0116Z" fill="#DFD2EB"/>
<path d="M70.7168 67.8335C70.6773 68.2222 70.1471 68.6635 69.5279 68.7755C68.9087 68.8874 68.4542 68.6305 68.5135 68.2452C68.5728 67.8599 69.1063 67.4811 69.7057 67.3659C70.3051 67.2506 70.7465 67.4416 70.7168 67.8335Z" fill="#DFD2EB"/>
<path d="M86.6209 62.4913C86.723 62.8602 86.2916 63.2225 85.6856 63.3509C85.0796 63.4794 84.4966 63.3213 84.4143 62.9623C84.3319 62.6033 84.7436 62.1785 85.3529 62.0434C85.9622 61.9084 86.5221 62.1258 86.6209 62.4913Z" fill="#DFD2EB"/>
<path d="M64.9171 63.9196C64.1354 66.7586 63.3549 69.5163 62.5754 72.1928C62.2461 72.0775 61.9167 71.9491 61.5874 71.8009C62.4305 69.2352 63.2704 66.5577 64.1135 63.7878C64.3836 63.8405 64.6503 63.8801 64.9171 63.9196Z" fill="#DFD2EB"/>
<path d="M94.0581 67.8755C93.7287 67.7273 93.3994 67.5955 93.07 67.4835C91.9569 64.144 90.8437 60.9888 89.7305 57.9786C89.9983 57.9918 90.2651 58.0148 90.5308 58.0477C91.7098 61.137 92.8856 64.3976 94.0581 67.8755Z" fill="#DFD2EB"/>
<path d="M93.8367 67.2222C93.9092 67.4396 93.9816 67.657 94.0574 67.8809C83.235 63.0132 72.4127 76.6745 61.5903 71.8068L61.7517 71.3226C72.4456 75.95 83.1395 62.6608 93.8367 67.2222Z" fill="#DFD2EB"/>
<path d="M90.534 58.0487L90.758 58.6316C81.8228 57.4163 72.8909 66.2527 63.959 64.3096L64.1171 63.7859C72.9238 65.5776 81.7273 57.0112 90.534 58.0487Z" fill="#DFD2EB"/>
<path d="M64.871 72.1903C64.1414 72.0894 63.4226 71.9218 62.7236 71.6897L63.053 70.5666C64.2024 70.9124 65.0192 71.525 64.871 72.1903Z" fill="#DFD2EB"/>
<path d="M92.4009 65.4819C92.5557 65.9364 92.7105 66.3942 92.862 66.8553C92.1628 66.6263 91.444 66.462 90.7147 66.3645C90.5072 65.6663 91.2416 65.1624 92.4009 65.4819Z" fill="#DFD2EB"/>
<path d="M88.1455 58.5426C88.7443 58.5031 89.345 58.5031 89.9438 58.5426C90.0985 58.9642 90.2533 59.3858 90.4081 59.8139C89.3839 59.7052 88.3728 59.2079 88.1455 58.5426Z" fill="#DFD2EB"/>
<path d="M64.4429 65.6348L64.7722 64.459C65.3655 64.5455 65.9643 64.5895 66.5639 64.5908C66.4124 65.2692 65.477 65.8193 64.4429 65.6348Z" fill="#DFD2EB"/>
<path d="M75.8088 66.5562L77.2576 63.6959L77.7798 63.9604L77.9964 67.215L77.9704 67.2072L79.2403 64.7002L79.6108 64.8879L78.162 67.7481L77.6355 67.4814L77.4265 64.2226L77.4481 64.239L76.1794 66.7438L75.8088 66.5562ZM76.2258 65.1364L76.3597 64.872L79.1939 66.3076L79.06 66.572L76.2258 65.1364Z" fill="#E7DFEE"/>
<path d="M154 76.7714C143.177 71.9037 132.355 85.565 121.533 80.6972C122.376 78.1305 123.218 75.4584 124.059 72.6809C132.866 74.4726 141.672 65.9063 150.476 66.9437C151.652 70.033 152.827 73.2935 154 76.7714Z" fill="#E7DFEE"/>
<path d="M141.653 72.9051C141.906 74.4662 140.128 76.4422 137.7 77.4533C135.273 78.4644 133.333 77.7992 133.399 76.1129C133.465 74.4266 135.237 72.4703 137.351 71.5943C139.466 70.7182 141.402 71.3275 141.653 72.9051Z" fill="#DFD2EB"/>
<path d="M130.659 76.727C130.62 77.1156 130.089 77.5569 129.47 77.6689C128.851 77.7809 128.397 77.524 128.456 77.1386C128.515 76.7533 129.049 76.3746 129.648 76.2593C130.248 76.144 130.689 76.335 130.659 76.727Z" fill="#DFD2EB"/>
<path d="M146.563 71.3848C146.665 71.7536 146.234 72.1159 145.628 72.2444C145.022 72.3728 144.439 72.2147 144.357 71.8557C144.274 71.4968 144.686 71.0719 145.295 70.9369C145.905 70.8018 146.464 71.0192 146.563 71.3848Z" fill="#DFD2EB"/>
<path d="M124.859 72.813C124.078 75.652 123.297 78.4097 122.518 81.0862C122.188 80.9709 121.859 80.8425 121.53 80.6943C122.373 78.1287 123.213 75.4511 124.056 72.6813C124.326 72.734 124.593 72.7735 124.859 72.813Z" fill="#DFD2EB"/>
<path d="M154 76.7689C153.671 76.6207 153.342 76.489 153.012 76.377C151.899 73.0374 150.786 69.8822 149.673 66.872C149.941 66.8852 150.207 66.9082 150.473 66.9412C151.652 70.0304 152.828 73.291 154 76.7689Z" fill="#DFD2EB"/>
<path d="M153.779 76.1157C153.852 76.333 153.924 76.5504 154 76.7744C143.177 71.9066 132.355 85.5679 121.533 80.7002L121.694 80.2161C132.388 84.8434 143.082 71.5542 153.779 76.1157Z" fill="#DFD2EB"/>
<path d="M150.476 66.9421L150.7 67.5251C141.765 66.3098 132.833 75.1462 123.901 73.203L124.059 72.6793C132.866 74.471 141.67 65.9047 150.476 66.9421Z" fill="#DFD2EB"/>
<path d="M124.813 81.0837C124.084 80.9828 123.365 80.8152 122.666 80.5831L122.995 79.46C124.145 79.8058 124.962 80.4184 124.813 81.0837Z" fill="#DFD2EB"/>
<path d="M152.343 74.3753C152.498 74.8298 152.653 75.2876 152.804 75.7487C152.105 75.5197 151.386 75.3555 150.657 75.258C150.45 74.5598 151.184 74.0559 152.343 74.3753Z" fill="#DFD2EB"/>
<path d="M148.088 67.4361C148.687 67.3966 149.287 67.3966 149.886 67.4361C150.041 67.8576 150.196 68.2792 150.351 68.7074C149.326 68.5987 148.315 68.1014 148.088 67.4361Z" fill="#DFD2EB"/>
<path d="M124.385 74.5283L124.715 73.3525C125.308 73.4389 125.907 73.4829 126.506 73.4842C126.355 74.1627 125.419 74.7127 124.385 74.5283Z" fill="#DFD2EB"/>
<path d="M135.751 75.4496L137.2 72.5894L137.722 72.8539L137.939 76.1084L137.913 76.1007L139.183 73.5936L139.553 73.7813L138.104 76.6415L137.578 76.3748L137.369 73.116L137.391 73.1324L136.122 75.6373L135.751 75.4496ZM136.168 74.0298L136.302 73.7655L139.136 75.2011L139.002 75.4654L136.168 74.0298Z" fill="#E7DFEE"/>
<path d="M66.3924 127.821C55.57 122.953 44.7476 136.614 33.9253 131.747C34.7684 129.18 35.6104 126.508 36.4514 123.73C45.2581 125.522 54.0649 116.956 62.8683 117.993C64.0441 121.082 65.2199 124.343 66.3924 127.821Z" fill="#E7DFEE"/>
<path d="M54.0456 123.956C54.2992 125.517 52.5207 127.493 50.0934 128.504C47.6661 129.515 45.7263 128.85 45.7922 127.164C45.858 125.477 47.6299 123.521 49.7443 122.645C51.8587 121.769 53.7953 122.378 54.0456 123.956Z" fill="#DFD2EB"/>
<path d="M43.0523 127.778C43.0128 128.166 42.4825 128.608 41.8633 128.72C41.2442 128.832 40.7897 128.575 40.8489 128.189C40.9082 127.804 41.4418 127.425 42.0412 127.31C42.6406 127.195 43.0819 127.386 43.0523 127.778Z" fill="#DFD2EB"/>
<path d="M58.9564 122.435C59.0585 122.804 58.627 123.167 58.021 123.295C57.415 123.424 56.8321 123.265 56.7497 122.906C56.6674 122.547 57.0791 122.123 57.6884 121.988C58.2977 121.853 58.8576 122.07 58.9564 122.435Z" fill="#DFD2EB"/>
<path d="M37.2525 123.864C36.4709 126.703 35.6903 129.46 34.9109 132.137C34.5815 132.022 34.2522 131.893 33.9229 131.745C34.766 129.179 35.6058 126.502 36.4489 123.732C36.719 123.785 36.9858 123.824 37.2525 123.864Z" fill="#DFD2EB"/>
<path d="M66.3935 127.82C66.0642 127.671 65.7348 127.54 65.4055 127.428C64.2923 124.088 63.1791 120.933 62.0659 117.923C62.3338 117.936 62.6006 117.959 62.8662 117.992C64.0453 121.081 65.2211 124.342 66.3935 127.82Z" fill="#DFD2EB"/>
<path d="M66.1722 127.166C66.2446 127.384 66.3171 127.601 66.3928 127.825C55.5705 122.957 44.7481 136.619 33.9258 131.751L34.0872 131.267C44.7811 135.894 55.475 122.605 66.1722 127.166Z" fill="#DFD2EB"/>
<path d="M62.8695 117.993L63.0934 118.576C54.1582 117.36 45.2263 126.197 36.2944 124.254L36.4525 123.73C45.2593 125.522 54.0627 116.955 62.8695 117.993Z" fill="#DFD2EB"/>
<path d="M37.2064 132.134C36.4769 132.034 35.7581 131.866 35.0591 131.634L35.3884 130.511C36.5379 130.857 37.3546 131.469 37.2064 132.134Z" fill="#DFD2EB"/>
<path d="M64.7364 125.426C64.8912 125.881 65.046 126.338 65.1975 126.799C64.4982 126.57 63.7794 126.406 63.0501 126.309C62.8427 125.61 63.5771 125.107 64.7364 125.426Z" fill="#DFD2EB"/>
<path d="M60.481 118.487C61.0797 118.447 61.6804 118.447 62.2792 118.487C62.434 118.908 62.5888 119.33 62.7436 119.758C61.7193 119.649 60.7082 119.152 60.481 118.487Z" fill="#DFD2EB"/>
<path d="M36.7783 125.579L37.1077 124.403C37.701 124.49 38.2997 124.534 38.8993 124.535C38.7478 125.213 37.8125 125.763 36.7783 125.579Z" fill="#DFD2EB"/>
<path d="M48.1443 126.5L49.5931 123.64L50.1153 123.905L50.3319 127.159L50.3059 127.151L51.5757 124.644L51.9463 124.832L50.4975 127.692L49.9709 127.426L49.762 124.167L49.7836 124.183L48.5148 126.688L48.1443 126.5ZM48.5612 125.081L48.6951 124.816L51.5293 126.252L51.3954 126.516L48.5612 125.081Z" fill="#E7DFEE"/>
<path d="M37.3245 80.9085C24.8817 75.7674 12.439 87.0113 -0.000488281 81.8735C1.28397 79.0642 2.56842 76.0836 3.85287 72.9613C13.977 74.6674 24.1012 67.7642 34.2286 69.9116C35.2605 73.4751 36.2925 77.1408 37.3245 80.9085Z" fill="#E7DFEE"/>
<path d="M23.5939 75.3681C23.7059 77.2191 21.519 79.1853 18.7097 79.8934C15.9004 80.6015 13.8321 79.5014 14.0988 77.5682C14.3656 75.6349 16.5393 73.6457 18.9798 73.0298C21.4202 72.4139 23.482 73.4974 23.5939 75.3681Z" fill="#DFD2EB"/>
<path d="M10.9769 77.8817C10.8913 78.3231 10.2425 78.7611 9.53108 78.8237C8.81969 78.8862 8.33225 78.5536 8.44094 78.1156C8.54962 77.6775 9.19514 77.2988 9.88348 77.2296C10.5718 77.1605 11.0625 77.4371 10.9769 77.8817Z" fill="#DFD2EB"/>
<path d="M29.2592 74.4272C29.3349 74.8554 28.8179 75.2177 28.1065 75.2737C27.3951 75.3297 26.7891 75.0563 26.7199 74.615C26.6507 74.1736 27.1843 73.7751 27.8726 73.7159C28.561 73.6566 29.1867 73.9958 29.2592 74.4272Z" fill="#DFD2EB"/>
<path d="M4.77175 73.0926C3.55646 76.2873 2.34446 79.3502 1.12917 82.2946C0.750421 82.1661 0.374968 82.0278 -0.000488281 81.8697C1.28397 79.0637 2.56842 76.0831 3.85287 72.9609C4.15917 73.0136 4.46546 73.063 4.77175 73.0926Z" fill="#DFD2EB"/>
<path d="M37.3247 80.9075C36.9459 80.7494 36.5705 80.6111 36.1917 80.4826C35.23 76.8137 34.2683 73.237 33.3066 69.7393C33.6129 69.7887 33.9192 69.8447 34.2288 69.9106C35.2608 73.4741 36.2927 77.1398 37.3247 80.9075Z" fill="#DFD2EB"/>
<path d="M37.1268 80.1959C37.1927 80.433 37.2586 80.6702 37.3212 80.9073C24.8817 75.7695 12.439 87.0101 -0.000488281 81.869C0.0785551 81.6944 0.160891 81.5166 0.239934 81.3387C12.5378 86.2065 24.8323 75.2853 37.1268 80.1959Z" fill="#DFD2EB"/>
<path d="M34.225 69.9116L34.4226 70.5703C24.1503 68.2649 13.8812 75.4051 3.60889 73.5344C3.69122 73.3401 3.77027 73.1458 3.8526 72.9482C13.9767 74.6674 24.1009 67.7643 34.225 69.9116Z" fill="#DFD2EB"/>
<path d="M3.82997 82.3406C2.99325 82.199 2.16776 81.9976 1.35986 81.7379L1.86706 80.5028C3.19433 80.8783 4.07369 81.6028 3.82997 82.3406Z" fill="#DFD2EB"/>
<path d="M35.609 78.2741C35.7441 78.778 35.8791 79.2851 36.0108 79.7956C35.2031 79.5338 34.3776 79.3302 33.5407 79.1863C33.353 78.3893 34.2818 77.8821 35.609 78.2741Z" fill="#DFD2EB"/>
<path d="M31.4224 70.1644C32.1145 70.206 32.8038 70.2851 33.4874 70.4015C33.6224 70.8889 33.7574 71.3895 33.8892 71.8704C32.7134 71.6366 31.6068 70.9482 31.4224 70.1644Z" fill="#DFD2EB"/>
<path d="M4.0376 75.0165C4.20556 74.5785 4.36695 74.1372 4.54479 73.6992C5.22781 73.7873 5.91481 73.8411 6.60321 73.8605C6.3595 74.6213 5.21666 75.2076 4.0376 75.0165Z" fill="#DFD2EB"/>
<path d="M17.5076 78.2504V74.2983H18.2292L20.2801 77.7564L20.2472 77.7624V74.2983H20.7592V78.2504H20.0316L17.9867 74.7833L18.0196 74.7893V78.2504H17.5076ZM17.1753 76.457V76.0917H21.0915V76.457H17.1753Z" fill="#E7DFEE"/>
<path d="M24.8765 22.4493L25.0877 12.0178L26.9922 12.0563L32.2208 21.2935L32.1336 21.3075L32.3186 12.1641L33.67 12.1915L33.4589 22.623L31.5385 22.5842L26.3262 13.3236L26.4128 13.3412L26.2279 22.4767L24.8765 22.4493ZM24.0951 17.6979L24.1146 16.7337L34.4514 16.9429L34.4319 17.9071L24.0951 17.6979Z" fill="#DFD2EB"/>
</svg>
