<svg width="220" height="179" viewBox="0 0 220 179" fill="none" xmlns="http://www.w3.org/2000/svg">
<g id="Group 1006" opacity="0.4">
<path id="Vector" fill-rule="evenodd" clip-rule="evenodd" d="M201.794 70.5234C197.134 70.0534 192.704 69.8634 188.104 69.4434C188.104 80.2434 190.374 101.703 190.524 112.373C187.104 101.703 182.394 79.6634 173.344 73.2534C173.484 75.3634 173.944 77.3434 174.284 79.4234C176.284 91.9434 174.154 118.423 174.584 120.573C174.774 121.573 179.584 129.043 180.374 130.273C182.783 133.612 185.384 136.807 188.164 139.843C189.927 142.037 191.907 144.047 194.074 145.843C198.454 149.193 205.304 151.033 208.654 146.253C212.654 140.573 211.934 128.793 211.464 121.323C210.655 109.763 208.919 98.2861 206.274 87.0034C205.111 81.4256 203.615 75.9224 201.794 70.5234Z" fill="#3C91E6"/>
<g id="Group 1005">
<g id="Group 1001">
<path id="Vector_2" fill-rule="evenodd" clip-rule="evenodd" d="M88.4207 47.4332C89.5407 48.8732 90.7907 50.2732 92.1007 50.0832C93.4107 49.8932 94.7607 48.6332 96.1607 47.4232C97.5607 46.2132 98.8307 45.0232 100.161 43.8432C102.161 42.1232 104.281 40.3732 106.161 38.5732C107.381 37.4232 108.161 36.4632 107.431 35.2032C107.061 34.5332 84.2007 7.68317 83.4307 6.86317C82.8059 6.04358 81.9883 5.39093 81.0507 4.96317C79.8107 4.63317 78.2307 5.96317 76.7507 7.21317C73.7507 9.78317 71.1607 12.2132 68.0907 14.7032C66.4607 16.0032 63.7807 17.6232 64.3207 19.2532C64.5156 19.6897 64.7942 20.0838 65.1407 20.4132C66.0507 21.4332 87.6907 46.5132 88.4207 47.4332Z" fill="#347AC1"/>
<path id="Vector_3" fill-rule="evenodd" clip-rule="evenodd" d="M88.0521 43.763C88.9621 44.933 89.9921 46.083 91.0521 45.923C92.1121 45.763 93.2221 44.743 94.3721 43.753C95.5221 42.763 96.5421 41.753 97.6521 40.833C99.2721 39.433 101.022 38.003 102.582 36.533C103.582 35.603 104.192 34.813 103.582 33.783C103.272 33.243 84.6421 11.353 84.0021 10.683C83.4806 9.99977 82.7918 9.46248 82.0021 9.12303C81.0021 8.85303 79.7121 9.90303 78.5021 10.953C76.0821 13.043 73.9421 15.053 71.4421 17.063C70.1121 18.123 67.9221 19.443 68.3621 20.773C68.5285 21.1233 68.7553 21.4415 69.0321 21.713C69.8121 22.533 87.4221 42.993 88.0521 43.763Z" fill="#3C91E6"/>
<path id="Vector_4" fill-rule="evenodd" clip-rule="evenodd" d="M82.0472 7.05367L85.6672 11.2437C82.8072 12.2437 79.6672 12.2437 77.8672 10.5137C79.2405 9.33367 80.6205 8.16701 82.0072 7.01367L82.0472 7.05367Z" fill="#347AC1"/>
<path id="Vector_5" fill-rule="evenodd" clip-rule="evenodd" d="M69.6294 17.8735C69.9894 17.5135 70.3594 17.1635 70.7394 16.8135C71.1283 17.5342 71.4272 18.2999 71.6294 19.0935C71.8768 20.1323 71.8522 21.2173 71.5579 22.2438C71.2636 23.2703 70.7096 24.2036 69.9494 24.9535C68.7394 23.5435 67.5294 22.1135 66.3594 20.6535C67.5158 19.8079 68.6087 18.8787 69.6294 17.8735Z" fill="#347AC1"/>
<path id="Vector_6" fill-rule="evenodd" clip-rule="evenodd" d="M85.601 13.6437C86.141 14.4837 87.181 15.6437 87.811 15.3037C88.621 14.8237 87.901 14.0437 87.401 13.4137C86.901 12.7837 86.271 11.9937 85.651 12.4137C85.031 12.8337 85.391 13.3137 85.601 13.6437Z" fill="white"/>
<path id="Vector_7" fill-rule="evenodd" clip-rule="evenodd" d="M88.1889 17.6035C88.5489 18.2635 89.1889 18.7135 89.6889 18.3235C90.5589 17.6435 89.0589 15.6735 88.2389 16.3835C87.9189 16.6535 87.8989 17.0635 88.1889 17.6035Z" fill="white"/>
<path id="Vector_8" fill-rule="evenodd" clip-rule="evenodd" d="M93.1101 23.1833C88.5301 13.8833 72.7101 26.4933 80.8101 33.8333C86.9501 39.4333 96.2801 29.6033 93.1101 23.1833Z" fill="#347AC1"/>
</g>
<g id="Group 1000">
<path id="Vector_9" fill-rule="evenodd" clip-rule="evenodd" d="M43.2221 17.6235C41.6421 16.7135 39.9421 15.8935 38.8121 16.5635C37.6821 17.2335 36.9021 18.9235 36.0721 20.5635C35.2421 22.2035 34.5121 23.7935 33.7021 25.4035C32.5221 27.7535 31.2021 30.1835 30.1221 32.5835C29.4321 34.1035 29.1221 35.2835 30.2321 36.1835C30.8321 36.6535 62.2321 52.7735 63.2321 53.1835C64.1444 53.7164 65.1759 54.0121 66.2321 54.0435C67.4921 53.8735 68.4621 52.0435 69.3421 50.3235C71.1121 46.8235 72.6021 43.5435 74.5021 40.0935C75.5021 38.2735 77.3721 35.7535 76.2521 34.4535C75.9022 34.1284 75.4954 33.8708 75.0521 33.6935C73.7821 33.1835 44.2521 18.2135 43.2221 17.6235Z" fill="#347AC1"/>
<path id="Vector_10" fill-rule="evenodd" clip-rule="evenodd" d="M45.0514 20.8735C43.7714 20.1435 42.3814 19.4735 41.4614 20.0135C40.5414 20.5535 39.9014 21.9335 39.2214 23.2935C38.5414 24.6535 37.9614 25.9235 37.2914 27.2935C36.2914 29.2035 35.2914 31.1835 34.3714 33.1435C33.8114 34.3835 33.5414 35.3435 34.4614 36.0735C34.9514 36.4635 60.5214 49.6035 61.3614 49.9835C62.1002 50.4063 62.9307 50.6431 63.7814 50.6735C64.7814 50.5435 65.6014 49.0735 66.3214 47.6735C67.7614 44.8135 68.9714 42.1435 70.5214 39.3335C71.3514 37.8435 72.8714 35.7835 71.9514 34.7335C71.6623 34.4629 71.3224 34.2521 70.9514 34.1135C69.9214 33.5635 45.8514 21.3635 45.0514 20.8735Z" fill="#3C91E6"/>
<path id="Vector_11" fill-rule="evenodd" clip-rule="evenodd" d="M64.4891 52.554L59.5391 50.064C61.7891 47.994 64.6991 46.844 67.0291 47.764C66.2091 49.374 65.3791 50.984 64.5291 52.574L64.4891 52.554Z" fill="#347AC1"/>
<path id="Vector_12" fill-rule="evenodd" clip-rule="evenodd" d="M71.873 37.813L71.243 39.203C70.6036 38.6907 70.0353 38.0954 69.553 37.433C68.9253 36.568 68.5327 35.5549 68.4135 34.4928C68.2944 33.4306 68.4527 32.3557 68.873 31.373C70.523 32.223 72.193 33.083 73.873 33.983C73.1108 35.2075 72.4422 36.4878 71.873 37.813Z" fill="#347AC1"/>
<path id="Vector_13" fill-rule="evenodd" clip-rule="evenodd" d="M40.4081 20.0534C40.6781 19.5234 40.9681 19.0034 41.2581 18.4834C41.858 18.9105 42.5016 19.2725 43.1781 19.5634C43.8981 19.8734 44.6381 20.1234 45.3781 20.3934C43.6081 22.3134 41.3781 23.4534 39.0781 22.5734C39.2045 22.2017 39.2818 21.8151 39.3081 21.4234C39.7669 21.049 40.1416 20.5822 40.4081 20.0534Z" fill="#347AC1"/>
<path id="Vector_14" fill-rule="evenodd" clip-rule="evenodd" d="M33.8712 36.7533C33.1812 36.2933 32.4912 35.8233 31.7812 35.3833L32.3512 34.5033C33.0046 33.4328 33.573 32.3127 34.0512 31.1533C35.218 32.4052 35.8681 34.052 35.8712 35.7633C35.9292 36.4716 35.8512 37.1844 35.6412 37.8633C35.0512 37.5133 34.4512 37.1433 33.8712 36.7533Z" fill="#347AC1"/>
<path id="Vector_15" fill-rule="evenodd" clip-rule="evenodd" d="M58.7105 47.8032C57.8905 47.2332 56.4805 46.5332 56.0405 47.1132C55.4705 47.8632 56.4305 48.3032 57.1305 48.7032C57.8305 49.1032 58.7105 49.5832 59.1305 48.9532C59.5505 48.3232 59.0505 48.0332 58.7105 47.8032Z" fill="white"/>
<path id="Vector_16" fill-rule="evenodd" clip-rule="evenodd" d="M54.8052 45.1231C54.2252 44.6531 53.4752 44.4831 53.1552 45.0331C52.5952 46.0331 54.7352 47.2431 55.2352 46.2731C55.4152 45.9031 55.2852 45.5131 54.8052 45.1231Z" fill="white"/>
<path id="Vector_17" fill-rule="evenodd" clip-rule="evenodd" d="M45.8438 22.2135C46.0837 22.9335 48.8438 24.3635 49.2838 23.3935C49.6238 22.6035 47.1538 21.3935 46.2838 21.6335C46.0538 21.6935 45.9438 21.8035 45.8438 22.2135Z" fill="white"/>
<path id="Vector_18" fill-rule="evenodd" clip-rule="evenodd" d="M36.2252 29.7432C36.9152 30.8132 38.2951 28.3632 37.8651 27.7432C37.2951 26.8832 35.6152 28.7832 36.2252 29.7432Z" fill="white"/>
<path id="Vector_19" fill-rule="evenodd" clip-rule="evenodd" d="M50.4157 24.1339C49.9257 24.9739 52.0857 25.9639 52.4157 25.1339C52.5657 24.7939 52.4158 24.5939 51.9958 24.2939C51.4458 23.8539 50.7657 23.5439 50.4157 24.1339Z" fill="white"/>
<path id="Vector_20" fill-rule="evenodd" clip-rule="evenodd" d="M48.1343 41.844C55.9143 48.704 65.7343 31.014 55.4543 27.314C47.6543 24.504 42.7543 37.114 48.1343 41.844Z" fill="#347AC1"/>
</g>
<g id="Group 1004">
<path id="Vector_21" fill-rule="evenodd" clip-rule="evenodd" d="M133.193 29.2233C135.543 29.5833 138.723 30.5233 140.333 31.8633C145.333 35.9733 144.843 46.2533 144.983 53.0533C145.153 61.5433 144.813 69.2133 144.983 76.8933C145.123 84.8933 145.733 92.4233 146.513 99.8433C146.981 103.657 147.254 107.492 147.333 111.333C147.333 115.183 147.173 120.163 145.003 123.713C142.833 127.263 138.353 128.873 133.423 129.363C128.435 129.789 123.426 129.923 118.423 129.763C107.863 129.543 97.3026 128.933 87.4226 128.843C67.0526 128.653 47.0526 129.033 26.5826 128.843C21.3826 128.793 15.9426 129.003 10.5326 127.253C5.12262 125.503 2.31262 122.513 1.20262 118.253C0.0926183 113.993 0.0926183 109.553 0.202618 104.593C0.372618 90.4533 0.932621 76.0233 0.892621 61.6533C0.892621 54.8233 0.592627 47.7333 1.24263 40.1233C1.47263 37.4533 1.98263 33.2633 3.96263 31.3133C5.28263 30.0133 8.25263 29.1333 10.4926 28.7233C13.0179 28.3181 15.5664 28.0742 18.1226 27.9933C23.5126 27.7133 29.6026 28.4533 34.8226 28.6133C40.2826 28.7733 45.9426 29.0433 51.5326 29.2233C57.1226 29.4033 62.6126 29.3233 67.8626 29.2233C78.5326 29.1033 89.5326 29.2233 100.323 28.9933C108.093 28.8433 116.493 28.5933 124.603 28.6233C127.477 28.6029 130.349 28.8035 133.193 29.2233Z" fill="#BFABD3"/>
<path id="Vector_22" opacity="0.2" d="M139.482 31.2735C138.991 30.9859 138.48 30.7352 137.952 30.5235V37.3235H124.952V28.7235H123.422V37.3235H110.582V28.8735H109.052V37.2935H96.0519V29.1335H94.5219V37.2735H81.5219V29.2035H79.9919V37.2735H66.9919V29.2735H65.4719V37.2735H52.4719V29.2735H51.6019H50.9419V37.3335H37.9419V28.7835H36.4119V37.3835H23.4119V28.1035H21.8819V37.4235H8.88188V29.2735C8.37188 29.4035 7.88188 29.5635 7.36188 29.7335V37.4235H1.73187C1.65187 37.9135 1.59189 38.4235 1.54189 38.8535H7.36188V50.9335H0.961884V52.3635H7.36188V64.5435H1.03188V65.9735H7.36188V78.1535H0.881882V79.5835H7.39188V91.7635H0.621887V93.1935H7.42188V105.374H0.421875V106.804H7.42188V118.804H1.35188C1.50188 119.294 1.67188 119.804 1.86188 120.234H7.17188V125.884C7.6656 126.156 8.17293 126.403 8.69188 126.624V120.234H21.6919V128.854C22.2019 128.854 22.6919 128.854 23.2219 128.854V120.214H36.2219V128.904H37.7519V120.214H50.7519V128.874H52.2819V120.214H65.2819V128.814H66.8019V120.214H79.8019V128.804H81.3319V120.204H94.3319V128.974H95.8619V120.154H108.862V129.434L110.392 129.484V120.154H123.202V129.754H124.732V120.174H137.732V128.484C138.252 128.334 138.732 128.154 139.262 127.964V120.174H146.202C146.332 119.704 146.442 119.224 146.532 118.744H139.262V106.744H146.892C146.892 106.264 146.832 105.744 146.792 105.314H139.262V93.1935H145.612L145.492 91.7635H139.262V79.5835H145.052C145.052 79.1135 145.052 78.5835 145.052 78.1535H139.562V65.9735H145.052C145.052 65.5035 145.052 65.0235 145.052 64.5435H139.552V52.3635H145.042C145.042 51.9035 145.042 51.4235 145.042 50.9335H139.572V38.7535H144.072C143.962 38.2635 143.832 37.7535 143.692 37.3235H139.572L139.482 31.2735ZM21.7219 118.784H8.72188V106.784H21.7219V118.784ZM21.7219 105.374H8.72188V93.1935H21.7219V105.374ZM21.7219 91.7635H8.72188V79.5835H21.7219V91.7635ZM21.7219 78.1535H8.72188V65.9735H21.7219V78.1535ZM21.7219 64.5435H8.72188V52.3635H21.7219V64.5435ZM21.7219 50.9335H8.72188V38.7535H21.7219V50.9335ZM36.2819 118.784H23.2819V106.784H36.2819V118.784ZM36.2819 105.374H23.2819V93.1935H36.2819V105.374ZM36.2819 91.7635H23.2819V79.5835H36.2819V91.7635ZM36.2819 78.1535H23.2819V65.9735H36.2819V78.1535ZM36.2819 64.5435H23.2819V52.3635H36.2819V64.5435ZM36.2819 50.9335H23.2819V38.7535H36.2819V50.9335ZM50.8319 118.784H37.8319V106.784H50.8319V118.784ZM50.8319 105.374H37.8319V93.1935H50.8319V105.374ZM50.8319 91.7635H37.8319V79.5835H50.8319V91.7635ZM50.8319 78.1535H37.8319V65.9735H50.8319V78.1535ZM50.8319 64.5435H37.8319V52.3635H50.8319V64.5435ZM50.8319 50.9335H37.8319V38.7535H50.8319V50.9335ZM65.3919 118.784H52.3919V106.784H65.3919V118.784ZM65.3919 105.374H52.3919V93.1935H65.3919V105.374ZM65.3919 91.7635H52.3919V79.5835H65.3919V91.7635ZM65.3919 78.1535H52.3919V65.9735H65.3919V78.1535ZM65.3919 64.5435H52.3919V52.3635H65.3919V64.5435ZM65.3919 50.9335H52.3919V38.7535H65.3919V50.9335ZM79.9419 118.784H66.9419V106.784H79.9419V118.784ZM79.9419 105.374H66.9419V93.1935H79.9419V105.374ZM79.9419 91.7635H66.9419V79.5835H79.9419V91.7635ZM79.9419 78.1535H66.9419V65.9735H79.9419V78.1535ZM79.9419 64.5435H66.9419V52.3635H79.9419V64.5435ZM79.9419 50.9335H66.9419V38.7535H79.9419V50.9335ZM94.5019 118.784H81.5019V106.784H94.5019V118.784ZM94.5019 105.374H81.5019V93.1935H94.5019V105.374ZM94.5019 91.7635H81.5019V79.5835H94.5019V91.7635ZM94.5019 78.1535H81.5019V65.9735H94.5019V78.1535ZM94.5019 64.5435H81.5019V52.3635H94.5019V64.5435ZM94.5019 50.9335H81.5019V38.7535H94.5019V50.9335ZM109.052 118.784H96.0519V106.784H109.052V118.784ZM109.052 105.374H96.0519V93.1935H109.052V105.374ZM109.052 91.7635H96.0519V79.5835H109.052V91.7635ZM109.052 78.1535H96.0519V65.9735H109.052V78.1535ZM109.052 64.5435H96.0519V52.3635H109.052V64.5435ZM109.052 50.9335H96.0519V38.7535H109.052V50.9335ZM123.392 118.784H110.582V106.784H123.392V118.784ZM123.392 105.374H110.582V93.1935H123.392V105.374ZM123.392 91.7635H110.582V79.5835H123.392V91.7635ZM123.392 78.1535H110.582V65.9735H123.392V78.1535ZM123.392 64.5435H110.582V52.3635H123.392V64.5435ZM123.392 50.9335H110.582V38.7535H123.392V50.9335ZM137.952 118.784H124.952V106.784H137.952V118.784ZM137.952 105.374H124.952V93.1935H137.952V105.374ZM137.952 91.7635H124.952V79.5835H137.952V91.7635ZM137.952 78.1535H124.952V65.9735H137.952V78.1535ZM137.952 64.5435H124.952V52.3635H137.952V64.5435ZM137.952 50.9335H124.952V38.7535H137.952V50.9335Z" fill="white"/>
<path id="Vector_23" fill-rule="evenodd" clip-rule="evenodd" d="M100.629 41.4334C93.9121 50.6383 85.3501 58.3421 75.4894 64.0534C67.4373 68.9646 58.4916 72.2309 49.1694 73.6634C47.3566 73.9344 45.5307 74.108 43.6994 74.1834C41.7794 74.2534 39.1494 74.4834 39.1094 72.7734C39.1447 72.3862 39.3251 72.0267 39.6144 71.767C39.9038 71.5074 40.2806 71.3667 40.6694 71.3734C41.5794 71.2934 42.6694 71.3734 43.4794 71.3034C48.5246 71.0929 53.5205 70.2221 58.3394 68.7134C63.9261 66.9001 69.2927 64.4683 74.3394 61.4634C83.9481 55.9033 92.2248 48.3092 98.5894 39.2134C97.8694 39.5434 97.2394 39.9334 96.4494 40.3934C95.6594 40.8534 94.9994 41.4734 94.0794 41.2834C93.8039 41.1927 93.5668 41.0125 93.4055 40.7716C93.2442 40.5306 93.1682 40.2426 93.1894 39.9534C93.1894 39.1934 94.2794 38.6734 95.1894 38.1034C96.7194 37.1034 98.4594 36.1034 99.8494 35.1034C100.536 34.4602 101.307 33.912 102.139 33.4734C102.515 33.3479 102.922 33.3606 103.289 33.5091C103.656 33.6576 103.957 33.9322 104.139 34.2834C104.349 35.3357 104.325 36.4213 104.069 37.4634C103.909 38.5234 103.649 39.6834 103.549 40.4634C103.429 41.4634 103.329 42.6934 103.259 43.7234C103.169 44.9434 103.049 45.8634 102.149 46.0834C99.9894 46.6334 100.329 43.6034 100.629 41.4334Z" fill="#7C75D1"/>
<path id="Vector_24" fill-rule="evenodd" clip-rule="evenodd" d="M14.1414 120.363C12.9114 118.973 13.2814 106.043 13.1414 93.7831C12.9614 82.1231 12.1414 71.0831 12.9314 70.3331C13.9314 69.3331 19.2914 69.2831 20.4314 70.5631C21.5714 71.8431 22.2714 118.563 21.6914 119.363C20.4014 121.063 15.3114 121.663 14.1414 120.363Z" fill="#347AC1"/>
<path id="Vector_25" fill-rule="evenodd" clip-rule="evenodd" d="M26.6595 119.933C25.4195 117.933 25.7396 99.7132 25.4996 82.4032C25.2796 65.9432 24.4996 50.3532 25.1996 49.2932C26.1996 47.8932 31.5596 47.8432 32.6996 49.6532C33.9396 51.6532 34.6996 117.433 34.1496 118.553C32.9096 120.943 27.8295 121.783 26.6595 119.933Z" fill="#FFC857"/>
<path id="Vector_26" fill-rule="evenodd" clip-rule="evenodd" d="M41.6358 120.344C40.4058 119.414 40.8058 110.754 40.6358 102.534C40.4958 94.7236 39.7558 87.3336 40.4958 86.8236C41.4958 86.1536 46.8658 86.1036 48.0058 86.9636C49.1458 87.8236 49.6958 119.114 49.1058 119.654C47.8858 120.794 42.7958 121.214 41.6358 120.344Z" fill="#347AC1"/>
<path id="Vector_27" fill-rule="evenodd" clip-rule="evenodd" d="M55.7037 119.804C54.4637 118.094 54.8037 102.134 54.5837 86.994C54.3837 72.594 53.5837 58.994 54.3237 57.994C55.3237 56.764 60.6837 56.724 61.8237 58.304C62.9637 59.884 63.8237 117.574 63.1937 118.554C61.9537 120.684 56.8737 121.434 55.7037 119.804Z" fill="#FFC857"/>
<path id="Vector_28" fill-rule="evenodd" clip-rule="evenodd" d="M70.6577 119.823C69.4277 118.383 69.7877 105.013 69.5977 92.3335C69.4177 80.2735 68.5977 68.8535 69.3777 68.0735C70.3777 67.0735 75.7377 67.0035 76.8777 68.3235C78.0177 69.6435 78.7378 117.973 78.1478 118.793C76.9078 120.543 71.8277 121.173 70.6577 119.823Z" fill="#347AC1"/>
<path id="Vector_29" fill-rule="evenodd" clip-rule="evenodd" d="M84.6313 120.103C83.4013 119.463 83.8313 113.423 83.7013 107.703C83.5913 102.253 82.8713 97.1031 83.6113 96.7031C84.6113 96.2331 89.9813 96.1831 91.1113 96.7831C92.2413 97.3831 92.7113 119.183 92.1113 119.563C90.8813 120.433 85.7913 120.703 84.6313 120.103Z" fill="white"/>
<path id="Vector_30" fill-rule="evenodd" clip-rule="evenodd" d="M99.6294 119.724C98.3994 118.604 98.7894 108.184 98.6294 98.3036C98.4794 88.9036 97.7194 80.0136 98.4594 79.4036C99.4594 78.5936 104.829 78.5436 105.969 79.5736C107.109 80.6036 107.719 118.264 107.129 118.914C105.879 120.274 100.789 120.774 99.6294 119.724Z" fill="#FFC857"/>
<path id="Vector_31" fill-rule="evenodd" clip-rule="evenodd" d="M111.248 119.173C110.008 117.263 110.328 99.5334 110.098 82.7134C109.878 66.7134 109.098 51.5834 109.808 50.5534C110.808 49.1934 116.168 49.1434 117.308 50.9034C118.448 52.6634 119.308 116.743 118.738 117.833C117.508 120.153 112.418 120.973 111.248 119.173Z" fill="#347AC1"/>
<path id="Vector_32" fill-rule="evenodd" clip-rule="evenodd" d="M19.7828 117.823C30.4128 117.313 119.593 117.653 130.783 117.653C134.713 117.653 139.413 117.083 139.513 119.953C139.583 122.333 137.273 122.383 134.663 122.383L13.9428 122.303C11.2128 122.303 8.82276 122.303 8.72276 120.363C8.61276 118.203 10.7828 118.173 13.0928 118.063C15.4028 117.953 17.8528 117.913 19.7828 117.823Z" fill="#347AC1"/>
<path id="Vector_33" d="M10.0476 49.853L9.04762 53.433C8.98553 53.6205 8.96946 53.8201 9.00079 54.015C9.03212 54.21 9.10992 54.3945 9.22761 54.553C9.36977 54.7253 9.54643 54.8659 9.74621 54.9658C9.946 55.0657 10.1645 55.1227 10.3876 55.133C10.6784 55.1533 10.9673 55.0729 11.2058 54.9054C11.4444 54.7379 11.618 54.4934 11.6976 54.213L13.2676 49.003L16.0076 48.133C16.2276 48.803 16.4576 49.473 16.6776 50.133L16.9776 51.043C17.0588 51.3268 17.2289 51.5771 17.4629 51.7571C17.6969 51.9371 17.9825 52.0373 18.2776 52.043C18.5048 52.0553 18.7318 52.0158 18.9414 51.9275C19.151 51.8391 19.3378 51.7042 19.4876 51.533C19.6067 51.3791 19.6848 51.1974 19.7146 51.005C19.7443 50.8126 19.7247 50.6158 19.6576 50.433L18.4576 46.823C18.5633 46.5976 18.5812 46.3409 18.5076 46.103C18.4272 45.7973 18.239 45.5309 17.9776 45.353L15.9776 39.353C15.8997 39.0692 15.7319 38.8183 15.4993 38.638C15.2667 38.4577 14.9819 38.3577 14.6876 38.353C14.4659 38.3379 14.2436 38.3732 14.0375 38.4563C13.8314 38.5395 13.6468 38.6683 13.4976 38.833C13.3988 38.9493 13.3254 39.0851 13.2824 39.2315C13.2393 39.3779 13.2275 39.5317 13.2476 39.683C13.1751 39.7949 13.1179 39.916 13.0776 40.043L10.9976 46.953L9.99762 47.263C9.6579 47.3441 9.36327 47.5547 9.17648 47.8498C8.9897 48.1449 8.92552 48.5013 8.99762 48.843C9.06509 49.0905 9.19834 49.3151 9.38322 49.493C9.5681 49.6708 9.79769 49.7952 10.0476 49.853ZM14.1176 45.933L14.6276 44.223L15.0976 45.623L14.1176 45.933Z" fill="#7C75D1"/>
<path id="Vector_34" d="M29.6698 55.3639C29.6496 55.1732 29.5879 54.9892 29.4888 54.825C29.3898 54.6607 29.2559 54.5202 29.0967 54.4134C28.9374 54.3066 28.7566 54.2361 28.567 54.2068C28.3775 54.1775 28.1839 54.1902 27.9998 54.2439C21.1363 56.0575 14.4442 58.4666 7.99975 61.4439C7.73609 61.5489 7.51865 61.7447 7.38662 61.9959C7.2546 62.2471 7.21669 62.5372 7.27975 62.8139C7.34755 63.1208 7.51456 63.3968 7.75497 63.5993C7.99538 63.8017 8.29579 63.9194 8.60975 63.9339C8.84022 63.9441 9.06982 63.8996 9.27975 63.8039C15.5189 60.9077 22.0005 58.5653 28.6498 56.8039C28.9697 56.7362 29.2525 56.5504 29.4415 56.2835C29.6306 56.0166 29.7121 55.6882 29.6698 55.3639Z" fill="#7C75D1"/>
</g>
<path id="Vector_35" d="M93.9471 10.2034C93.1171 9.73344 92.9471 8.75344 93.5371 7.61344C94.1271 6.47344 96.3871 2.36345 97.4271 0.943446C99.0171 -1.21655 101.427 0.743443 100.177 2.71344C97.7671 6.55344 96.1271 11.4334 93.9471 10.2034Z" fill="#E7DFEE"/>
<path id="Vector_36" d="M109.658 11.2835C103.148 14.4135 102.798 14.6435 102.128 14.7235C100.358 14.9135 99.7278 12.5935 100.878 11.9935C103.378 10.5533 105.978 9.29348 108.658 8.22354C109.061 8.1014 109.495 8.14194 109.869 8.33646C110.242 8.53098 110.524 8.86401 110.655 9.26418C110.786 9.66435 110.755 10.0998 110.568 10.4773C110.382 10.8548 110.055 11.1442 109.658 11.2835Z" fill="#E7DFEE"/>
<path id="Vector_37" d="M111.714 21.8137C107.224 22.8137 105.184 23.6337 104.714 21.6837C104.662 21.4587 104.658 21.2251 104.702 20.9984C104.747 20.7717 104.838 20.5568 104.971 20.368C105.105 20.1792 105.276 20.0206 105.475 19.9027C105.673 19.7848 105.895 19.7102 106.124 19.6837C107.844 19.2537 109.584 18.9137 111.324 18.5937C111.546 18.5444 111.775 18.5418 111.997 18.5861C112.22 18.6303 112.43 18.7205 112.616 18.8509C112.802 18.9813 112.958 19.1489 113.075 19.3431C113.192 19.5373 113.267 19.7538 113.296 19.9788C113.325 20.2038 113.306 20.4322 113.241 20.6496C113.177 20.8669 113.067 21.0684 112.92 21.2411C112.773 21.4138 112.592 21.5539 112.388 21.6525C112.184 21.7512 111.961 21.8061 111.734 21.8137" fill="#E7DFEE"/>
<g id="Group 1003">
<path id="Vector_38" fill-rule="evenodd" clip-rule="evenodd" d="M147.722 15.4338C147.222 15.4338 147.722 15.3538 147.722 15.2138C152.722 11.0338 155.012 8.21382 164.292 8.03382C169.542 7.95382 174.142 10.8938 176.732 13.4138C184.072 20.5138 180.812 30.4138 181.142 28.5538C180.512 32.2038 179.712 36.0238 181.142 39.0938C182.176 40.9151 183.314 42.6748 184.552 44.3638C185.736 46.1923 186.564 48.228 186.992 50.3638C187.942 55.5538 185.572 59.7438 183.212 62.8438C176.282 71.9538 184.832 78.1838 182.212 88.9738C181.963 90.1354 181.553 91.2563 180.992 92.3038C179.508 94.3473 177.346 95.7969 174.892 96.3938C171.756 97.0448 168.519 97.0448 165.382 96.3938C162.944 95.838 160.642 94.8007 158.61 93.3427C156.579 91.8848 154.859 90.0356 153.552 87.9038C151.115 82.951 150.678 77.2501 152.332 71.9838C153.24 69.6929 154.299 67.4647 155.502 65.3138C157.082 62.1338 159.262 58.1338 157.692 53.9138C156.502 50.7138 153.692 48.4938 151.592 45.9138C150.838 45.0977 150.183 44.1947 149.642 43.2238C149.021 41.6837 148.682 40.0442 148.642 38.3838C148.516 35.9118 148.975 33.445 149.982 31.1838C151.212 28.1838 153.382 25.7838 153.152 21.8238C153.097 20.3035 152.531 18.8462 151.546 17.6869C150.561 16.5276 149.214 15.7339 147.722 15.4338Z" fill="#FFC857"/>
<path id="Vector_39" d="M141.871 171.493C141.941 170.243 142.561 169.193 142.621 167.933C140.991 165.803 139.121 162.483 138.711 159.823L150.341 154.913C152.28 156.713 154.581 158.077 157.091 158.913C158.091 159.193 159.671 159.033 160.091 160.083C160.511 161.133 159.091 162.463 157.511 162.993C156.452 163.21 155.36 163.21 154.301 162.993C155.154 164.569 155.925 166.188 156.611 167.843C157.481 169.923 159.941 173.843 158.021 174.653C156.101 175.463 153.821 170.133 152.521 169.183C152.631 170.613 152.761 172.113 152.731 173.803C152.731 175.173 152.831 177.453 151.481 177.903C149.351 178.633 148.951 173.843 148.701 172.373C147.951 173.943 145.201 179.103 143.521 178.483C142.281 178.033 142.981 176.013 142.661 175.393C141.851 176.163 140.131 178.083 139.181 177.043C137.801 175.543 141.181 172.303 141.881 171.493" fill="#DB9171"/>
<path id="Vector_40" d="M141.871 171.493C141.855 170.266 142.111 169.05 142.621 167.933C141.858 167.113 141.212 166.191 140.701 165.193C140.203 164.224 139.772 163.221 139.411 162.193C140.198 163.992 141.517 165.506 143.191 166.533C143.266 166.663 143.326 166.801 143.371 166.943C143.431 167.751 143.353 168.562 143.141 169.343C143.122 170.136 142.984 170.922 142.731 171.673C142.301 172.383 140.601 173.123 138.851 176.273C138.711 174.243 140.691 172.793 141.871 171.493Z" fill="#C4765B"/>
<path id="Vector_41" d="M152.391 159.634C154.321 161.774 156.711 162.884 160.071 160.974C159.791 161.974 158.461 162.704 157.371 163.054C156.357 163.311 155.293 163.291 154.291 162.994C153.841 161.764 152.551 160.724 152.391 159.634Z" fill="#C4765B"/>
<path id="Vector_42" d="M151.188 164.163C152.678 165.933 153.797 169.033 155.047 171.323C155.679 172.53 156.436 173.666 157.307 174.713C156.257 174.813 153.257 171.223 152.447 169.053C152.283 167.368 151.858 165.718 151.188 164.163Z" fill="#C4765B"/>
<path id="Vector_43" d="M148.688 172.374C148.688 172.374 149.377 170.294 149.607 169.184C149.817 168.256 149.877 167.3 149.787 166.354C151.507 170.654 148.397 173.414 150.667 177.914C149.597 177.574 149.347 176.044 149.117 175.204C148.855 174.282 148.711 173.331 148.688 172.374Z" fill="#C4765B"/>
<path id="Vector_44" d="M145.942 168.184C147.942 172.464 142.652 175.394 143.512 178.494C142.212 177.944 142.412 176.264 142.512 175.494C143.608 174.632 144.487 173.525 145.079 172.263C145.671 171.001 145.96 169.617 145.922 168.224" fill="#C4765B"/>
<g id="Group 1002">
<path id="Vector_45" fill-rule="evenodd" clip-rule="evenodd" d="M205.05 51.193C198.91 54.423 206.17 62.5131 205.17 64.063C204.4 65.2631 203.36 66.063 202.75 67.183C201.64 69.183 202.11 70.083 201.75 72.273L188.32 70.193C188.372 68.2231 188.579 66.2603 188.94 64.323C189.268 62.3217 189.739 60.3466 190.35 58.413C192.05 53.643 196.1 50.633 202.35 48.053C204.52 47.163 209.77 45.323 210.22 47.053C210.58 48.443 206.22 50.363 205.01 51.193" fill="#C4765B"/>
<path id="Vector_46" fill-rule="evenodd" clip-rule="evenodd" d="M205.391 30.2437C204.961 28.7337 204.391 27.2437 203.301 26.9237C202.211 26.6037 200.711 27.2337 199.191 27.7537C197.671 28.2737 196.281 28.8037 194.801 29.3137C192.661 30.0437 190.381 30.7537 188.261 31.5737C186.921 32.1037 185.991 32.5737 186.151 33.8637C186.231 34.5237 195.851 63.4137 196.211 64.3237C196.447 65.1911 196.898 65.9853 197.521 66.6337C198.411 67.3037 200.091 66.7737 201.691 66.2337C204.901 65.1337 207.801 64.0037 211.051 63.0337C212.781 62.5137 215.451 62.0837 215.541 60.6037C215.523 60.193 215.428 59.7893 215.261 59.4137C214.851 58.3137 205.671 31.2337 205.391 30.2437Z" fill="#347AC1"/>
<path id="Vector_47" fill-rule="evenodd" clip-rule="evenodd" d="M204.533 33.3339C204.183 32.1039 203.733 30.8539 202.833 30.6339C201.675 30.5755 200.52 30.8057 199.473 31.3039C198.183 31.7439 197.103 32.1639 195.893 32.5739C194.143 33.1639 192.293 33.7439 190.563 34.4239C189.463 34.8439 188.713 35.2739 188.843 36.2839C188.913 36.8239 196.753 60.3739 197.043 61.1139C197.242 61.8209 197.609 62.4693 198.113 63.0039C198.833 63.5439 200.203 63.1139 201.513 62.6739C204.133 61.7739 206.513 60.8639 209.143 60.0639C210.553 59.6439 212.733 59.2939 212.803 58.0639C212.793 57.7186 212.715 57.3786 212.573 57.0639C212.243 56.2139 204.763 34.1439 204.533 33.3339Z" fill="#3C91E6"/>
<path id="Vector_48" fill-rule="evenodd" clip-rule="evenodd" d="M188.054 36.4338C187.914 35.7338 187.764 35.0338 187.594 34.3238L188.484 34.1338C189.529 33.8725 190.555 33.5383 191.554 33.1338C191.51 34.6078 190.918 36.0126 189.894 37.0738C189.502 37.5471 189.024 37.9409 188.484 38.2338C188.334 37.5838 188.194 37.0038 188.054 36.4338Z" fill="#347AC1"/>
<path id="Vector_49" fill-rule="evenodd" clip-rule="evenodd" d="M190.299 40.8334C191.369 41.1334 190.849 38.7634 190.209 38.6034C189.349 38.4334 189.359 40.5734 190.299 40.8334Z" fill="white"/>
<path id="Vector_50" fill-rule="evenodd" clip-rule="evenodd" d="M192.108 46.7532C193.918 47.4432 193.028 41.9332 191.948 41.5632C190.508 41.0532 190.518 46.1432 192.108 46.7532Z" fill="white"/>
<path id="Vector_51" fill-rule="evenodd" clip-rule="evenodd" d="M193.788 48.1533C194.448 57.0933 211.188 52.1533 207.088 43.6133C203.968 37.1633 193.328 41.9933 193.788 48.1533Z" fill="#347AC1"/>
<path id="Vector_52" fill-rule="evenodd" clip-rule="evenodd" d="M219.617 34.4332C219.897 32.8932 220.077 31.2732 219.197 30.5432C218.317 29.8132 216.727 29.6732 215.137 29.4732C213.547 29.2732 212.057 29.1532 210.507 28.9532C208.257 28.6732 205.897 28.3132 203.637 28.1232C202.197 28.0132 201.137 28.1232 200.737 29.2632C200.527 29.8932 196.517 60.0732 196.437 61.0432C196.27 61.93 196.328 62.8449 196.607 63.7032C197.107 64.7032 198.847 64.9532 200.527 65.1632C203.897 65.5832 206.987 65.8432 210.347 66.3932C212.117 66.6832 214.717 67.4632 215.437 66.1732C215.612 65.797 215.704 65.3878 215.707 64.9732C215.827 63.8332 219.437 35.4332 219.617 34.4332Z" fill="#347AC1"/>
<path id="Vector_53" fill-rule="evenodd" clip-rule="evenodd" d="M217.494 36.8537C217.724 35.5937 217.864 34.2737 217.154 33.6737C216.135 33.1265 215 32.8315 213.844 32.8137C212.484 32.6437 211.334 32.5437 210.064 32.3837C208.234 32.1537 206.314 31.8637 204.464 31.7137C203.294 31.6137 202.464 31.7137 202.104 32.6337C201.924 33.1437 198.664 57.7537 198.594 58.5437C198.454 59.2671 198.502 60.0143 198.734 60.7137C199.144 61.5137 200.564 61.7137 201.924 61.9037C204.674 62.2437 207.194 62.4637 209.924 62.9037C211.374 63.1437 213.484 63.7837 214.084 62.7337C214.211 62.4146 214.285 62.0768 214.304 61.7337C214.404 60.8037 217.344 37.6837 217.494 36.8537Z" fill="#3C91E6"/>
<path id="Vector_54" fill-rule="evenodd" clip-rule="evenodd" d="M197.378 61.8936L197.968 57.1436C200.298 58.3736 202.088 60.4035 201.968 62.5735C200.418 62.3735 198.878 62.1635 197.328 61.9335C197.339 61.9323 197.35 61.9279 197.359 61.9208C197.368 61.9137 197.374 61.9043 197.378 61.8936Z" fill="#347AC1"/>
<path id="Vector_55" fill-rule="evenodd" clip-rule="evenodd" d="M211.507 63.6137L210.188 63.5137C210.423 62.846 210.742 62.2109 211.137 61.6237C211.659 60.8629 212.369 60.2502 213.198 59.8454C214.027 59.4405 214.947 59.2574 215.867 59.3137C215.657 60.9037 215.438 62.5137 215.188 64.1037C213.974 63.8524 212.744 63.6887 211.507 63.6137Z" fill="#347AC1"/>
<path id="Vector_56" fill-rule="evenodd" clip-rule="evenodd" d="M216.82 32.8836C217.34 32.9436 217.82 33.0236 218.35 33.1136C218.179 33.7242 218.072 34.3509 218.03 34.9836C218.03 35.6636 218.03 36.3436 218.03 36.9836C215.96 36.0936 214.39 34.6136 214.43 32.4836C214.835 32.3455 215.266 32.3062 215.689 32.3688C216.112 32.4314 216.513 32.5942 216.86 32.8436L216.82 32.8836Z" fill="#347AC1"/>
<path id="Vector_57" fill-rule="evenodd" clip-rule="evenodd" d="M201.351 32.433C201.521 31.743 201.701 31.043 201.851 30.333C202.151 30.413 202.441 30.483 202.741 30.543C203.798 30.7643 204.872 30.9014 205.951 30.953C205.27 32.2667 204.121 33.2768 202.731 33.783C202.172 34.0301 201.572 34.1724 200.961 34.203C201.068 33.5963 201.198 33.0063 201.351 32.433Z" fill="#347AC1"/>
<path id="Vector_58" fill-rule="evenodd" clip-rule="evenodd" d="M208.421 61.9533C207.571 61.7733 206.211 61.6833 206.051 62.2933C205.851 63.0833 206.771 63.1133 207.461 63.1933C208.151 63.2733 209.011 63.3733 209.131 62.7333C209.251 62.0933 208.751 62.0233 208.421 61.9533Z" fill="white"/>
<path id="Vector_59" fill-rule="evenodd" clip-rule="evenodd" d="M204.41 61.1232C203.79 60.9532 203.13 61.0632 203.06 61.6132C202.94 62.5532 205.06 62.8332 205.13 61.9032C205.16 61.5432 204.92 61.2732 204.41 61.1232Z" fill="white"/>
<path id="Vector_60" fill-rule="evenodd" clip-rule="evenodd" d="M216.651 37.913C216.131 38.333 215.771 40.993 216.651 41.063C217.401 41.113 217.651 38.753 217.221 38.113C217.131 37.953 217.051 37.883 216.651 37.913Z" fill="white"/>
<path id="Vector_61" fill-rule="evenodd" clip-rule="evenodd" d="M207.727 32.2834C207.057 33.1534 209.457 33.5634 209.837 33.0334C210.367 32.3234 208.327 31.5034 207.727 32.2834Z" fill="white"/>
<path id="Vector_62" fill-rule="evenodd" clip-rule="evenodd" d="M216.412 42.2033C215.582 42.0433 215.412 44.0833 216.182 44.1233C216.512 44.1233 216.612 43.9333 216.742 43.5333C216.942 42.9533 216.992 42.3133 216.412 42.2033Z" fill="white"/>
<path id="Vector_63" fill-rule="evenodd" clip-rule="evenodd" d="M201.344 45.4334C198.034 53.7534 215.264 56.6134 215.294 47.1734C215.314 40.0534 203.634 39.7334 201.344 45.4334Z" fill="#347AC1"/>
<path id="Vector_64" fill-rule="evenodd" clip-rule="evenodd" d="M199.282 50.7034C200.572 51.4534 198.902 55.3134 197.922 57.4134C197.292 58.7734 196.492 59.9934 196.012 61.2734C198.592 63.8434 200.112 68.8434 201.782 72.2734L188.352 70.1934C188.352 65.6234 190.452 59.9234 193.402 55.4934C194.792 53.4134 197.842 49.8634 199.282 50.7034Z" fill="#DB9171"/>
<path id="Vector_65" d="M208.71 141.574C204.97 146.294 197.08 144.324 191.99 140.864C189.5 139.064 187.189 137.028 185.09 134.784C183.47 133.194 181.6 131.344 179.82 129.434C180.06 129.804 180.25 130.104 180.37 130.274C182.779 133.612 185.38 136.807 188.16 139.844C189.924 142.037 191.904 144.047 194.07 145.844C198.45 149.194 205.3 151.034 208.65 146.254C210.9 143.014 211.65 137.794 211.79 132.514C211.4 136.054 210.5 139.314 208.71 141.574Z" fill="#347AC1"/>
<path id="Vector_66" fill-rule="evenodd" clip-rule="evenodd" d="M202.984 145.673C202.184 144.383 204.414 143.793 204.874 144.573C205.494 145.633 203.674 146.823 202.984 145.673Z" fill="white"/>
<path id="Vector_67" fill-rule="evenodd" clip-rule="evenodd" d="M204.238 141.854C203.738 140.494 207.138 139.624 207.428 140.924C207.548 141.464 207.218 141.694 206.588 142.034C205.658 142.524 204.588 142.794 204.238 141.854Z" fill="white"/>
<path id="Vector_68" fill-rule="evenodd" clip-rule="evenodd" d="M201.623 79.5633C201.883 79.1333 201.573 78.7233 201.293 78.3333C201.013 77.9433 200.763 77.6733 200.383 77.6533C199.843 77.6533 199.823 78.3833 200.023 78.7933C200.149 79.0045 200.296 79.2022 200.463 79.3833C200.753 79.7033 201.333 80.0433 201.623 79.5633Z" fill="white"/>
<path id="Vector_69" fill-rule="evenodd" clip-rule="evenodd" d="M200.927 75.5336C201.247 74.9536 200.837 74.4636 200.447 74.0836C199.822 73.5314 199.153 73.0298 198.447 72.5836C197.627 72.0236 196.077 71.5136 195.747 72.5836C195.417 73.6536 197.407 74.7736 198.417 75.3536C199.197 75.7736 200.467 76.3736 200.927 75.5336Z" fill="white"/>
<path id="Vector_70" fill-rule="evenodd" clip-rule="evenodd" d="M178.664 159.433C158.924 162.863 136.814 160.863 116.984 156.543C118.694 150.373 119.104 146.763 119.924 139.543C122.274 118.543 115.704 88.2033 127.054 74.7833C131.104 69.9933 139.394 67.1233 148.054 66.5033C150.934 66.2933 154.344 66.9433 157.504 67.5033C160.357 67.9249 163.185 68.5025 165.974 69.2333C172.764 71.1833 175.694 74.8233 176.974 80.4233C179.644 92.0133 184.244 94.5133 184.244 100.913C184.244 110.533 177.324 116.343 176.084 123.993C173.884 137.523 177.894 152.753 178.664 159.433Z" fill="#347AC1"/>
<path id="Vector_71" d="M164.141 75.5439C163.871 75.7139 150.211 76.4339 150.141 76.4339C155.861 91.2139 161.701 118.434 157.681 161.874C160.274 161.707 162.837 161.491 165.371 161.224C172.901 116.554 169.051 90.1739 164.141 75.5439Z" fill="white"/>
<path id="Vector_72" fill-rule="evenodd" clip-rule="evenodd" d="M108.55 131.783C120.21 137.613 132.55 142.783 143.63 149.143C141.63 153.503 139.63 157.853 137.78 162.293C126.66 160.433 116.96 158.433 108.05 154.073C103.86 152.073 100.11 149.893 95.8097 147.313C90.1197 143.893 83.6397 141.803 84.4897 132.153C85.0897 125.303 89.3396 117.273 92.1596 111.873C95.3328 105.897 98.9356 100.158 102.94 94.7034C106.69 89.2398 110.903 84.1077 115.53 79.3634C120.28 74.6234 125.71 70.2234 132.89 68.9534C139.4 67.7934 143.98 71.6834 143.3 78.9534C142.8 84.3234 139.39 89.9534 136.73 94.3034C128.67 107.433 116.94 120.313 108.55 131.783Z" fill="#3C91E6"/>
<path id="Vector_73" fill-rule="evenodd" clip-rule="evenodd" d="M101.272 143.554C100.802 144.724 98.8622 143.554 97.4722 142.774C96.0822 141.994 94.7521 140.914 95.0821 140.204C95.6021 139.064 97.4621 140.304 98.5721 140.924C99.4921 141.434 101.762 142.324 101.272 143.554Z" fill="white"/>
<path id="Vector_74" fill-rule="evenodd" clip-rule="evenodd" d="M92.6818 142.223C92.0918 143.643 88.6818 141.083 89.3218 140.063C89.9618 139.043 93.1518 141.143 92.6818 142.223Z" fill="white"/>
<path id="Vector_75" fill-rule="evenodd" clip-rule="evenodd" d="M92.1352 138.243C91.1352 138.663 89.1352 137.573 88.0752 136.383C87.6952 135.953 87.3752 135.383 87.7852 134.933C88.4152 134.213 89.6652 135.313 90.6552 135.933C91.6452 136.553 93.0452 137.083 92.1352 138.243Z" fill="white"/>
<path id="Vector_76" d="M108.549 131.784L111.379 128.024C111.379 128.024 103.169 125.224 102.239 127.134C101.409 128.834 108.549 131.784 108.549 131.784Z" fill="#347AC1"/>
<path id="Vector_77" d="M148.45 48.5135C146.365 45.8256 145.026 42.6347 144.57 39.2635C145.64 33.0035 145.49 22.0235 150.28 19.2635C157.34 15.1835 167.98 17.4035 172.75 22.2635C176.85 26.4335 180.54 35.6835 180.75 44.8935C180.96 54.1035 177.3 61.8935 166.23 58.4935C165.14 61.0535 162.56 71.9835 162.57 71.9835C161.2 78.9235 152.57 83.5335 144.25 66.1535C144.29 66.5935 148.37 50.8635 148.45 48.5135Z" fill="#DB9171"/>
<path id="Vector_78" fill-rule="evenodd" clip-rule="evenodd" d="M166.324 58.5332C162.904 57.6832 158.904 53.5332 158.904 53.5332C158.804 55.6926 159.266 57.8409 160.244 59.7687C161.222 61.6965 162.683 63.338 164.484 64.5332L166.324 58.5332Z" fill="#C4765B"/>
<path id="Vector_79" fill-rule="evenodd" clip-rule="evenodd" d="M162.617 38.8938C165.617 35.1338 168.927 37.6238 168.927 37.6238C168.256 38.6145 167.221 39.3007 166.047 39.5338C164.877 39.7093 163.683 39.4837 162.657 38.8938" fill="white"/>
<path id="Vector_80" fill-rule="evenodd" clip-rule="evenodd" d="M168.928 37.6235C168.409 37.2614 167.818 37.015 167.195 36.9012C166.572 36.7873 165.932 36.8086 165.318 36.9635C165.231 37.1781 165.174 37.4035 165.148 37.6335C165.182 38.0411 165.348 38.4267 165.62 38.7317C165.893 39.0366 166.257 39.2444 166.658 39.3235C167.585 39.0292 168.385 38.4301 168.928 37.6235Z" fill="#347AC1"/>
<path id="Vector_81" fill-rule="evenodd" clip-rule="evenodd" d="M174.047 37.3337C176.837 33.8537 179.897 36.1537 179.897 36.1537C179.264 37.0796 178.289 37.7163 177.187 37.9237C176.104 38.0921 174.995 37.8839 174.047 37.3337Z" fill="white"/>
<path id="Vector_82" fill-rule="evenodd" clip-rule="evenodd" d="M179.891 36.1532C179.407 35.8198 178.859 35.593 178.281 35.4879C177.704 35.3827 177.11 35.4016 176.541 35.5432C176.46 35.7448 176.41 35.957 176.391 36.1732C176.423 36.5501 176.577 36.9062 176.829 37.1877C177.082 37.4692 177.419 37.6607 177.791 37.7332C178.649 37.4581 179.389 36.9014 179.891 36.1532Z" fill="#347AC1"/>
<path id="Vector_83" d="M167.158 42.6539C167.479 43.0932 167.662 43.6178 167.685 44.1614C167.708 44.7049 167.569 45.243 167.286 45.7076C167.003 46.1722 166.588 46.5423 166.094 46.7712C165.601 47.0001 165.05 47.0774 164.513 46.9934C163.975 46.9094 163.475 46.6679 163.075 46.2993C162.674 45.9308 162.393 45.4519 162.265 44.9231C162.137 44.3943 162.168 43.8394 162.356 43.3287C162.543 42.818 162.878 42.3743 163.318 42.0539C163.907 41.6247 164.642 41.4468 165.362 41.5593C166.082 41.6718 166.728 42.0655 167.158 42.6539Z" fill="#C4765B"/>
<path id="Vector_84" d="M178.251 43.4936C178.526 43.869 178.893 44.168 179.317 44.3623C179.74 44.5565 180.206 44.6395 180.671 44.6036V44.2636C180.624 42.5485 180.467 40.8383 180.201 39.1436C179.718 39.1892 179.256 39.362 178.863 39.6443C178.469 39.9266 178.157 40.3083 177.958 40.7505C177.76 41.1928 177.683 41.6796 177.734 42.1615C177.785 42.6434 177.964 43.103 178.251 43.4936Z" fill="#C4765B"/>
<path id="Vector_85" fill-rule="evenodd" clip-rule="evenodd" d="M161.203 36.3134L161.993 37.0334C162.882 36.1434 164.004 35.5229 165.23 35.2434C166.456 34.9638 167.737 35.0366 168.923 35.4534L169.333 34.4534C167.943 33.9435 166.435 33.8479 164.992 34.178C163.549 34.5082 162.233 35.2499 161.203 36.3134Z" fill="#FFC857"/>
<path id="Vector_86" fill-rule="evenodd" clip-rule="evenodd" d="M172.68 34.9135L173.48 35.6335C174.3 34.8141 175.335 34.2432 176.465 33.9867C177.596 33.7301 178.776 33.7984 179.87 34.1835L180.28 33.1835C178.981 32.7108 177.573 32.6225 176.225 32.9293C174.877 33.2362 173.646 33.9251 172.68 34.9135Z" fill="#FFC857"/>
<path id="Vector_87" fill-rule="evenodd" clip-rule="evenodd" d="M172.566 37.8134C173.186 37.6034 175.696 43.2134 175.626 43.8134C175.536 44.6134 172.876 45.3934 172.626 45.1034C171.916 44.2934 171.626 38.1034 172.556 37.7734" fill="#C4765B"/>
<path id="Vector_88" d="M177.516 49.2536C174.626 51.2536 171.156 49.8936 169.156 47.7736L170.056 46.9336C171.696 48.6736 174.516 49.8336 176.816 48.2436L177.516 49.2536Z" fill="#C4765B"/>
<path id="Vector_89" fill-rule="evenodd" clip-rule="evenodd" d="M147.486 13.2538C149.016 13.1038 153.036 13.5638 154.436 14.3538C157.436 16.0438 157.836 20.1038 156.636 23.8638C156.216 25.1738 155.706 26.4838 155.166 27.7738C154.166 30.1738 152.726 32.6138 152.606 35.7738C152.476 39.3838 153.756 42.3538 154.686 44.7738C155.996 48.2538 158.016 51.6438 157.246 56.6038C156.126 63.7638 150.416 67.6038 147.856 73.3138C146.939 75.469 146.522 77.8042 146.636 80.1438C146.806 82.9338 147.726 85.5038 148.336 88.0738C149.122 90.8043 149.329 93.6685 148.946 96.4838C148.616 98.8353 147.766 101.084 146.458 103.066C145.15 105.048 143.418 106.714 141.386 107.944C134.386 111.814 126.296 106.654 124.076 100.634C123.272 98.0997 122.778 95.4771 122.606 92.8238C122.399 90.3284 121.739 87.8918 120.656 85.6338C118.656 81.4738 115.256 78.7938 113.826 74.1638C112.636 70.3238 114.006 65.7438 115.536 62.4538C116.69 60.0042 118.211 57.7449 120.046 55.7538C123.766 51.5538 128.796 48.3038 131.266 44.4038C131.645 43.8653 131.98 43.2967 132.266 42.7038C134.266 38.0138 133.176 31.3138 134.456 26.1138C135.46 21.5788 138.171 17.6041 142.026 15.0138C143.688 14.0174 145.556 13.4153 147.486 13.2538Z" fill="#FFC857"/>
<path id="Vector_90" fill-rule="evenodd" clip-rule="evenodd" d="M158.047 46.9031C159.657 44.2331 158.397 42.1731 157.517 40.2031C156.087 36.9731 153.657 33.2031 155.277 28.2731C156.737 23.8531 159.827 22.2731 162.207 18.9531C160.247 20.0568 158.447 21.4227 156.857 23.0131C154.977 24.8793 153.601 27.1912 152.857 29.7331C151.537 34.7331 154.177 38.0131 155.967 41.3931C156.957 43.2331 157.837 44.6631 158.047 46.9031Z" fill="#FFC857"/>
<path id="Vector_91" fill-rule="evenodd" clip-rule="evenodd" d="M179.602 30.4339C178.388 31.1015 176.992 31.359 175.62 31.168C174.249 30.9769 172.976 30.3476 171.992 29.3739C170.472 28.0339 168.772 26.5439 167.042 26.0039C163.542 24.8939 159.962 27.6839 156.612 27.0639C153.612 26.5239 152.202 23.3039 150.352 20.6639C155.612 19.2439 158.502 14.4739 163.612 13.2839C173.602 10.9539 173.992 25.5739 179.602 30.4339Z" fill="#FFC857"/>
<path id="Vector_92" fill-rule="evenodd" clip-rule="evenodd" d="M172.049 69.2934C170.639 64.4334 167.459 60.2434 165.779 60.2934C165.779 60.2934 162.299 71.0434 157.779 78.6334C156.759 80.4334 173.399 73.8334 172.049 69.2934Z" fill="white"/>
<path id="Vector_93" fill-rule="evenodd" clip-rule="evenodd" d="M147.168 75.3639C152.168 77.7739 157.658 79.3639 158.308 78.4439C158.778 77.7439 151.738 67.6439 151.308 67.9339C149.048 69.4339 146.868 75.2239 147.168 75.3639Z" fill="white"/>
<path id="Vector_94" fill-rule="evenodd" clip-rule="evenodd" d="M138.697 26.5636C139.937 26.3336 140.857 25.1136 141.577 24.2336C142.297 23.3536 143.287 22.3336 142.407 21.4336C140.827 21.6136 137.047 25.1736 138.697 26.5636Z" fill="white"/>
<path id="Vector_95" fill-rule="evenodd" clip-rule="evenodd" d="M143.89 24.9136C144.59 24.7336 145.38 23.9136 144.81 23.0936C143.96 22.9036 142.85 24.3136 143.89 24.9136Z" fill="white"/>
<path id="Vector_96" fill-rule="evenodd" clip-rule="evenodd" d="M147.102 17.2932C145.952 16.7632 144.423 18.6132 143.812 19.4132C143.922 19.5932 144.022 19.7832 144.122 19.9732C145.452 20.1632 147.452 18.4332 147.102 17.2932Z" fill="white"/>
<path id="Vector_97" fill-rule="evenodd" clip-rule="evenodd" d="M154.758 57.2732C156.248 55.4032 152.758 51.8932 151.838 54.3432C151.478 55.2832 153.188 58.0332 154.758 57.2732Z" fill="white"/>
<path id="Vector_98" fill-rule="evenodd" clip-rule="evenodd" d="M149.912 62.9836C151.272 63.9836 153.392 60.7636 152.712 59.6836C151.552 59.4936 149.542 61.6536 149.912 62.9836Z" fill="white"/>
<path id="Vector_99" fill-rule="evenodd" clip-rule="evenodd" d="M125.882 84.4332C126.612 85.4332 126.782 87.5032 126.832 89.5532C126.832 90.4332 126.832 91.8532 126.082 91.9532C125.142 92.0832 124.872 90.4732 124.782 89.9032C124.467 88.1482 124.491 86.3493 124.852 84.6032C124.995 84.4901 125.165 84.4152 125.345 84.3855C125.525 84.3558 125.71 84.3722 125.882 84.4332Z" fill="white"/>
<path id="Vector_100" fill-rule="evenodd" clip-rule="evenodd" d="M128.552 91.7339C130.442 91.0939 131.132 95.3939 129.472 95.4739C128.762 95.4739 127.652 93.5539 127.832 92.4739C127.879 92.2994 127.97 92.1398 128.096 92.0103C128.222 91.8808 128.379 91.7856 128.552 91.7339Z" fill="white"/>
<path id="Vector_101" fill-rule="evenodd" clip-rule="evenodd" d="M128.755 100.223C129.395 99.9333 130.145 100.623 130.595 101.543C130.955 102.283 131.315 103.863 130.375 103.993C129.955 104.053 129.275 103.573 128.885 102.813C128.495 102.053 127.925 100.613 128.755 100.223Z" fill="white"/>
</g>
</g>
</g>
</g>
</svg>
