<svg width="185" height="164" viewBox="0 0 185 164" fill="none" xmlns="http://www.w3.org/2000/svg">
<g id="Group 999" opacity="0.4">
<path id="Vector" fill-rule="evenodd" clip-rule="evenodd" d="M178.803 53.3594C180.613 53.4694 182.493 53.7094 183.073 54.8994C183.653 56.0894 183.363 57.8994 183.153 59.7594C182.943 61.6194 182.673 63.3194 182.473 65.1094C182.173 67.7194 181.933 70.4694 181.473 73.1094C181.213 74.7594 180.843 75.9394 179.403 76.1094C178.633 76.1794 143.573 72.4194 142.463 72.2394C141.402 72.189 140.37 71.8726 139.463 71.3194C138.463 70.4794 138.673 68.4494 138.903 66.5094C139.353 62.6094 139.903 59.0494 140.213 55.1294C140.373 53.0494 140.213 49.9194 141.853 49.4494C142.321 49.3554 142.804 49.3554 143.273 49.4494C144.713 49.5694 177.613 53.2894 178.803 53.3594Z" fill="#347AC1"/>
<path id="Vector_2" fill-rule="evenodd" clip-rule="evenodd" d="M175.519 55.0998C176.999 55.1898 178.519 55.3898 178.999 56.3598C179.479 57.3298 179.239 58.8198 179.069 60.3598C178.899 61.8998 178.679 63.2598 178.509 64.7198C178.259 66.8498 178.069 69.0898 177.729 71.2098C177.519 72.5598 177.219 73.5098 176.049 73.6198C175.419 73.6198 146.839 70.6198 145.929 70.4598C145.079 70.4103 144.255 70.1528 143.529 69.7098C142.739 69.0298 142.889 67.3698 143.069 65.7898C143.429 62.5998 143.889 59.7098 144.139 56.5098C144.269 54.8098 144.139 52.2598 145.469 51.8798C145.852 51.8044 146.246 51.8044 146.629 51.8798C147.729 51.9998 174.549 54.9998 175.519 55.0998Z" fill="#3C91E6"/>
<path id="Vector_3" fill-rule="evenodd" clip-rule="evenodd" d="M179.814 56.9402C179.874 56.3502 179.924 55.7502 179.974 55.1602C179.238 55.1823 178.5 55.1287 177.774 55.0002C176.994 54.8602 176.234 54.6702 175.474 54.4902C175.904 57.0702 177.134 59.2402 179.544 59.7702C179.645 59.3899 179.793 59.0237 179.984 58.6802C179.807 58.1184 179.749 57.5257 179.814 56.9402Z" fill="#347AC1"/>
<path id="Vector_4" fill-rule="evenodd" clip-rule="evenodd" d="M176.096 74.4802C176.926 74.4802 177.756 74.4802 178.596 74.4802V73.4802C178.645 72.225 178.785 70.9751 179.016 69.7402C177.373 70.163 175.947 71.1827 175.016 72.6002C174.563 73.1558 174.223 73.7944 174.016 74.4802C174.696 74.4702 175.396 74.4902 176.096 74.4802Z" fill="#347AC1"/>
<path id="Vector_5" fill-rule="evenodd" clip-rule="evenodd" d="M174.095 55.76C173.495 56.23 170.395 55.9 170.575 54.86C170.715 54 173.445 54.35 174.045 55.03C174.205 55.21 174.205 55.36 174.095 55.76Z" fill="white"/>
<path id="Vector_6" fill-rule="evenodd" clip-rule="evenodd" d="M177.992 67.33C176.822 67.85 176.992 65.04 177.722 64.75C178.672 64.36 179.022 66.87 177.992 67.33Z" fill="white"/>
<path id="Vector_7" fill-rule="evenodd" clip-rule="evenodd" d="M169.203 54.8503C169.203 55.8503 166.813 55.4603 166.973 54.5803C167.033 54.2103 167.313 54.1603 167.783 54.1103C168.503 54.0503 169.203 54.1703 169.203 54.8503Z" fill="white"/>
<path id="Vector_8" fill-rule="evenodd" clip-rule="evenodd" d="M161.392 70.9098C151.122 72.3598 152.632 52.1898 163.252 54.7398C171.322 56.6698 168.482 69.8998 161.392 70.9098Z" fill="#347AC1"/>
<path id="Vector_9" fill-rule="evenodd" clip-rule="evenodd" d="M171.08 15.5199C172.66 14.6399 174.37 13.8299 175.5 14.5199C176.63 15.2099 177.38 16.8999 178.2 18.5199C179.02 20.1399 179.71 21.7699 180.5 23.3899C181.66 25.7499 182.94 28.1899 184 30.5999C184.67 32.1399 185 33.3199 183.85 34.1999C183.24 34.6699 151.7 50.4199 150.66 50.8699C149.745 51.3913 148.713 51.6733 147.66 51.6899C146.4 51.5099 145.45 49.6899 144.59 47.9399C142.87 44.4199 141.42 41.1199 139.59 37.6599C138.59 35.8199 136.76 33.2799 137.9 31.9899C138.254 31.665 138.669 31.4134 139.12 31.2499C140.34 30.7299 170.04 16.1099 171.08 15.5199Z" fill="#347AC1"/>
<path id="Vector_10" fill-rule="evenodd" clip-rule="evenodd" d="M169.198 18.7603C170.498 18.0403 171.888 17.3803 172.808 17.9403C173.728 18.5003 174.338 19.8802 175.008 21.2402C175.678 22.6002 176.238 23.8902 176.888 25.2402C177.828 27.1602 178.888 29.1602 179.738 31.1302C180.288 32.3702 180.548 33.3402 179.618 34.0602C179.118 34.4402 153.398 47.2803 152.558 47.6503C151.817 48.073 150.981 48.3033 150.128 48.3203C149.128 48.1703 148.328 46.7003 147.628 45.2603C146.218 42.3903 145.038 39.7003 143.518 36.8703C142.718 35.3703 141.218 33.3003 142.148 32.2603C142.437 31.9919 142.777 31.7845 143.148 31.6503C144.198 31.1603 168.408 19.2303 169.198 18.7603Z" fill="#3C91E6"/>
<path id="Vector_11" fill-rule="evenodd" clip-rule="evenodd" d="M173.846 17.9999C173.586 17.4699 173.306 16.9399 173.026 16.4199C172.419 16.8183 171.772 17.1533 171.096 17.4199C170.366 17.7299 169.626 17.9699 168.876 18.2399C170.626 20.1699 172.876 21.3399 175.156 20.4799C175.038 20.1065 174.964 19.7206 174.936 19.3299C174.486 18.9655 174.115 18.5129 173.846 17.9999Z" fill="#347AC1"/>
<path id="Vector_12" fill-rule="evenodd" clip-rule="evenodd" d="M180.197 34.7599C180.877 34.3099 181.577 33.8599 182.297 33.4199C182.107 33.1199 181.917 32.8299 181.737 32.5299C181.094 31.4563 180.539 30.3327 180.077 29.1699C178.892 30.4028 178.22 32.04 178.197 33.7499C178.135 34.4596 178.203 35.1746 178.397 35.8599C179.017 35.5099 179.607 35.1499 180.197 34.7599Z" fill="#347AC1"/>
<path id="Vector_13" fill-rule="evenodd" clip-rule="evenodd" d="M168.406 20.0797C168.146 20.7997 165.406 22.1997 164.946 21.2297C164.616 20.4297 167.096 19.2297 167.946 19.4997C168.196 19.5697 168.306 19.6797 168.406 20.0797Z" fill="white"/>
<path id="Vector_14" fill-rule="evenodd" clip-rule="evenodd" d="M177.93 27.7201C177.23 28.8001 175.93 26.3201 176.32 25.7201C176.9 24.8601 178.56 26.7801 177.93 27.7201Z" fill="white"/>
<path id="Vector_15" fill-rule="evenodd" clip-rule="evenodd" d="M163.806 22.0003C164.286 22.8503 162.116 23.8103 161.806 23.0003C161.666 22.6503 161.866 22.4603 162.246 22.1703C162.776 21.6603 163.466 21.3603 163.806 22.0003Z" fill="white"/>
<path id="Vector_16" fill-rule="evenodd" clip-rule="evenodd" d="M165.889 39.6899C158.019 46.4499 148.409 28.6899 158.739 25.0799C166.569 22.3499 171.319 34.9999 165.889 39.6899Z" fill="#347AC1"/>
<path id="Vector_17" fill-rule="evenodd" clip-rule="evenodd" d="M65.4989 41.2396C72.7289 20.8996 102.389 2.23959 129.209 11.3696C135.959 13.6696 143.209 18.2296 147.699 23.5496C159.699 37.1896 162.849 63.8796 155.699 77.4096C142.909 72.8596 129.149 68.3096 116.589 63.8196C112.999 62.5396 108.479 61.0496 105.149 59.8996C105.149 60.6596 106.529 64.4996 107.339 66.5096C112.809 80.1896 118.339 92.7796 123.339 105.57C114.492 107.214 105.366 106.475 96.8989 103.43C89.2889 100.88 82.7889 97.2796 77.1789 91.5496C66.2589 80.3596 59.1989 58.9996 65.4989 41.2396Z" fill="#BFABD3"/>
<path id="Vector_18" opacity="0.2" d="M65.1063 42.41C65.2363 42.02 65.3563 41.63 65.4963 41.24C65.7563 40.52 66.0463 39.79 66.3563 39.07L66.5563 46.92L77.8863 46.64L77.6063 35.25L68.1563 35.49C68.4163 35.03 68.6863 34.58 68.9663 34.13L77.5763 33.92L77.3363 24.14C77.7562 23.74 78.1963 23.36 78.6363 22.97L78.9063 33.89L90.1963 33.61L89.9163 22.22L79.1563 22.48C79.7163 22.01 80.2763 21.55 80.8563 21.1L89.8563 20.88L89.7262 15.37C90.1562 15.14 90.5962 14.92 91.0362 14.7L91.1863 20.85L102.526 20.57L102.276 10.57L103.596 10.26L103.856 20.56L115.196 20.28L114.986 9C115.426 9 115.876 9 116.316 9L116.596 20.19L127.936 19.91L127.706 10.91L129.056 11.33L129.266 19.92L140.596 19.63L140.536 17.15C141.006 17.48 141.446 17.81 141.896 18.15V19.61H143.626C144.136 20.04 144.626 20.47 145.086 20.92L141.926 20.99L142.196 32.32L153.276 32.05C153.876 33.25 154.436 34.48 154.956 35.75L155.176 44.75L157.756 44.68C157.866 45.12 157.956 45.57 158.046 46.01L155.206 46.08L155.486 57.47L159.406 57.37C159.406 57.82 159.406 58.27 159.406 58.71L155.506 58.81L155.786 70.19L158.236 70.13C158.126 70.59 158.006 71.04 157.886 71.48H155.816L155.946 76.66C155.826 76.9 155.716 77.14 155.596 77.37L154.596 77.02L154.456 71.52L143.126 71.79V73.03L141.786 72.57V71.83H139.786L136.146 70.58L141.746 70.44L141.466 59.05L130.126 59.33L130.356 68.59L129.016 68.13L128.796 59.37L117.456 59.65L117.566 64.13L116.446 63.73L116.226 63.66L116.126 59.66L105.386 59.92L105.006 59.79C105.001 59.8365 105.001 59.8835 105.006 59.93H104.786L105.196 71.44L109.266 71.33L109.806 72.66L105.226 72.77L105.506 84.16L114.506 83.94C114.686 84.38 114.866 84.82 115.056 85.26L105.546 85.5L105.826 96.89L117.166 96.61L117.006 89.93L118.416 93.34L118.496 96.57H119.736L120.276 97.9H118.536L118.736 106.2L117.406 106.31L117.206 97.93L105.866 98.21L106.046 105.75L104.716 105.51L104.536 98.24L93.1963 98.52L93.2862 102.08L91.9363 101.52L91.8662 98.52L86.3462 98.65C85.6562 98.25 84.9762 97.81 84.3462 97.37L91.8863 97.18L91.6063 85.79L80.2663 86.07L80.4663 94.48C80.0163 94.09 79.5563 93.69 79.1162 93.28L78.9363 86.11L72.9363 86.25L72.0362 84.94L78.9063 84.77L78.6262 73.38L67.2862 73.66L67.3462 75.98C66.8262 74.73 66.3463 73.45 65.9163 72.14L65.6363 60.97H63.4862C63.4862 60.53 63.3963 60.08 63.3563 59.64L65.6063 59.58L65.3263 48.19H63.7562C63.8363 47.74 63.9163 47.29 64.0062 46.85L65.1963 47L65.1063 42.41ZM143.196 70.5L154.536 70.22L154.196 58.83L142.856 59.11L143.196 70.5ZM142.886 57.77L154.196 57.49L153.906 46.1L142.576 46.38L142.886 57.77ZM142.576 45.05L153.896 44.77L153.616 33.38L142.276 33.66L142.576 45.05ZM130.216 58.05L141.556 57.77L141.276 46.38L129.936 46.66L130.216 58.05ZM129.906 45.32L141.196 45.08L140.916 33.69L129.606 34L129.906 45.32ZM129.586 32.6L140.926 32.32L140.636 21L129.296 21.28L129.586 32.6ZM117.586 58.36L128.926 58.08L128.646 46.69L117.306 46.97L117.586 58.36ZM117.196 45.67L128.526 45.39L128.276 34L116.946 34.28L117.196 45.67ZM116.906 33L128.196 32.67L127.916 21.28L116.576 21.56L116.906 33ZM104.906 58.76L116.196 58.43L115.926 47L104.586 47.28L104.906 58.76ZM104.556 46L115.896 45.72L115.606 34.33L104.276 34.61L104.556 46ZM104.196 33.26L115.576 33L115.296 21.61L103.956 21.89L104.196 33.26ZM93.1063 97.2L104.446 96.92L104.156 85.53L92.8263 85.81L93.1063 97.2ZM92.7862 84.47L104.196 84.19L103.916 72.81L92.5763 73.09L92.7862 84.47ZM92.4762 71.75L103.816 71.47L103.536 60.08L92.1963 60.36L92.4762 71.75ZM92.1963 59L103.536 58.72L103.256 47.33L91.9163 47.61L92.1963 59ZM91.8863 46.28L103.196 46L102.916 34.61L91.5763 34.89L91.8863 46.28ZM91.5763 33.55L102.906 33.27L102.626 21.88L91.2963 22.16L91.5763 33.55ZM80.1963 84.79L91.5263 84.51L91.2463 73.12L79.9063 73.4L80.1963 84.79ZM79.8762 72.06L91.1963 71.78L90.9163 60.39L79.5763 60.67L79.8762 72.06ZM79.5662 59.34L90.9063 59.06L90.6162 47.67L79.2862 47.95L79.5662 59.34ZM79.1963 46.61L90.5362 46.33L90.2562 34.94L78.9163 35.22L79.1963 46.61ZM67.1963 72.37L78.5362 72.09L78.2562 60.71L66.9163 60.99L67.1963 72.37ZM66.8863 59.65L78.1963 59.37L77.9262 48L66.5863 48.28L66.8863 59.65Z" fill="white"/>
<path id="Vector_19" fill-rule="evenodd" clip-rule="evenodd" d="M92.7743 43.9998C90.5043 43.9298 86.6743 43.1998 86.7743 46.2098C86.8743 49.2198 91.6942 48.3698 94.6342 48.2998C102.794 48.0898 110.224 48.2998 118.634 48.0498C120.494 48.0498 121.814 47.7698 121.764 46.0498C121.764 44.5098 120.764 44.2598 119.404 44.1598C111.244 43.5698 101.694 43.7998 92.9843 44.0198L92.7743 43.9998Z" fill="#FFC857"/>
<path id="Vector_20" fill-rule="evenodd" clip-rule="evenodd" d="M107.475 49.71C106.055 49.71 104.565 49.91 104.535 51.71C104.535 53.71 106.075 53.95 107.965 54.03C111.425 54.17 114.325 54.24 118.105 54.35C119.715 54.35 121.645 54.58 121.625 52.43C121.625 51.03 120.625 50.58 119.165 50.43C115.425 50.07 111.305 49.76 107.475 49.71Z" fill="#F6B83A"/>
<path id="Vector_21" fill-rule="evenodd" clip-rule="evenodd" d="M136.961 2.85169C137.961 1.36169 139.181 -0.14831 140.491 0.0116899C141.801 0.17169 143.221 1.31169 144.691 2.45169C146.161 3.59169 147.491 4.70169 148.911 5.81169C150.991 7.42169 153.201 9.05169 155.201 10.7517C156.481 11.8317 157.291 12.7517 156.651 14.0517C156.341 14.7417 134.951 42.7717 134.201 43.5917C133.604 44.4348 132.811 45.121 131.891 45.5917C130.671 45.9817 129.031 44.7717 127.481 43.5917C124.381 41.1917 121.631 38.8617 118.481 36.5917C116.781 35.3817 114.011 33.9017 114.481 32.2517C114.648 31.8242 114.892 31.431 115.201 31.0917C116.061 30.0417 136.281 3.84169 136.961 2.85169Z" fill="#347AC1"/>
<path id="Vector_22" fill-rule="evenodd" clip-rule="evenodd" d="M136.753 6.99963C137.603 5.78963 138.563 4.57963 139.633 4.67963C140.703 4.77963 141.863 5.74963 143.053 6.67963C144.243 7.60963 145.333 8.51963 146.493 9.41963C148.183 10.7296 150.003 12.0596 151.643 13.4196C152.643 14.2996 153.353 15.0496 152.833 16.1096C152.553 16.6696 135.113 39.5196 134.513 40.2296C134.035 40.932 133.389 41.5028 132.633 41.8896C131.633 42.2196 130.303 41.2296 129.043 40.2496C126.503 38.2496 124.263 36.3996 121.653 34.5296C120.273 33.5296 118.013 32.3296 118.393 30.9896C118.528 30.6194 118.736 30.2796 119.003 29.9896C119.713 29.1396 136.203 7.76963 136.753 6.99963Z" fill="#3C91E6"/>
<path id="Vector_23" fill-rule="evenodd" clip-rule="evenodd" d="M119.772 33.8095L120.942 34.8095C121.296 34.0717 121.555 33.2922 121.712 32.4895C121.904 31.4384 121.82 30.3558 121.469 29.3466C121.119 28.3375 120.514 27.4359 119.712 26.7295C118.582 28.1995 117.442 29.7295 116.352 31.2095C117.553 31.9931 118.696 32.862 119.772 33.8095Z" fill="#347AC1"/>
<path id="Vector_24" fill-rule="evenodd" clip-rule="evenodd" d="M153.632 16.5198C154.052 15.8098 154.472 15.0998 154.922 14.3898L154.032 13.8398C152.975 13.1542 151.972 12.3886 151.032 11.5498C150.516 13.1793 150.634 14.9434 151.362 16.4898C151.615 17.1544 151.992 17.7652 152.472 18.2898C152.892 17.7098 153.272 17.1298 153.632 16.5198Z" fill="#347AC1"/>
<path id="Vector_25" fill-rule="evenodd" clip-rule="evenodd" d="M138.321 33.0803C138.651 32.4103 139.251 31.9203 139.781 32.2903C140.691 32.9103 139.301 34.9603 138.441 34.2903C138.111 34.0003 138.061 33.6303 138.321 33.0803Z" fill="white"/>
<path id="Vector_26" fill-rule="evenodd" clip-rule="evenodd" d="M136.575 8.53007C136.665 9.29007 134.785 11.7701 133.975 11.0801C133.325 10.5101 135.035 8.37007 135.975 8.21007C136.155 8.17007 136.315 8.21007 136.575 8.53007Z" fill="white"/>
<path id="Vector_27" fill-rule="evenodd" clip-rule="evenodd" d="M148.494 11.1996C148.334 12.4696 146.034 10.8396 146.154 10.0896C146.304 9.07955 148.634 10.0796 148.494 11.1996Z" fill="white"/>
<path id="Vector_28" fill-rule="evenodd" clip-rule="evenodd" d="M133.26 12.2394C134.07 12.7894 132.55 14.5994 131.88 14.0094C131.6 13.7594 131.69 13.4994 131.88 13.0694C132.2 12.4294 132.7 11.8594 133.26 12.2394Z" fill="white"/>
<path id="Vector_29" fill-rule="evenodd" clip-rule="evenodd" d="M142.94 27.2495C138.86 36.7794 122.4 25.0395 130.09 17.2495C135.92 11.3795 145.76 20.6595 142.94 27.2495Z" fill="#347AC1"/>
<path id="Vector_30" fill-rule="evenodd" clip-rule="evenodd" d="M167.787 42.3095C165.737 39.8995 158.197 38.5595 150.397 37.2295C141.697 35.7495 134.837 32.9895 131.547 35.4795C129.547 36.9695 128.167 42.2795 127.087 46.4795C126.177 49.9995 124.087 56.1395 125.367 58.8095C126.987 62.0795 139.117 63.8095 143.757 64.7395C146.697 65.3595 150.277 66.3195 154.097 66.9095C160.097 67.8295 163.737 68.3995 165.787 61.5895C166.787 58.2195 170.767 45.8095 167.787 42.3095Z" fill="#F6B83A"/>
<path id="Vector_31" d="M153.451 61.9002L141.321 40.8202C140.471 39.3402 142.691 37.8202 143.551 39.3002L155.681 60.3702C156.541 61.8602 154.321 63.3702 153.451 61.9002Z" fill="white"/>
<path id="Vector_32" d="M155.47 48.0003C155.939 47.876 156.377 47.6573 156.758 47.3577C157.139 47.058 157.455 46.6837 157.686 46.2577C157.917 45.8317 158.059 45.363 158.103 44.8802C158.146 44.3975 158.091 43.9109 157.94 43.4503C157.605 42.5079 156.922 41.7292 156.032 41.2738C155.141 40.8183 154.11 40.7205 153.15 41.0003C152.682 41.1257 152.245 41.3451 151.865 41.6452C151.485 41.9453 151.171 42.3198 150.94 42.7457C150.71 43.1715 150.569 43.6399 150.526 44.1222C150.483 44.6044 150.539 45.0903 150.69 45.5503C151.021 46.4934 151.702 47.2734 152.591 47.7293C153.481 48.1852 154.511 48.2822 155.47 48.0003ZM153.82 43.0003C154.218 42.8925 154.642 42.9348 155.011 43.1192C155.379 43.3036 155.667 43.6172 155.82 44.0003C155.885 44.1932 155.911 44.3972 155.895 44.6002C155.88 44.8031 155.824 45.001 155.731 45.1819C155.637 45.3629 155.509 45.5232 155.352 45.6535C155.196 45.7838 155.015 45.8813 154.82 45.9403C154.422 46.0481 153.998 46.0057 153.63 45.8213C153.261 45.6369 152.973 45.3233 152.82 44.9403C152.755 44.7474 152.729 44.5434 152.745 44.3404C152.76 44.1374 152.816 43.9396 152.909 43.7586C153.003 43.5777 153.131 43.4173 153.288 43.287C153.444 43.1568 153.625 43.0593 153.82 43.0003Z" fill="white"/>
<path id="Vector_33" d="M143.129 60.9997C143.663 60.8559 144.163 60.6049 144.597 60.262C145.031 59.919 145.391 59.4914 145.655 59.005C145.919 58.5186 146.081 57.9836 146.131 57.4326C146.182 56.8815 146.12 56.326 145.949 55.7997C145.566 54.7214 144.785 53.8306 143.766 53.3099C142.747 52.7893 141.567 52.6783 140.469 52.9997C139.935 53.1435 139.435 53.3946 139.001 53.7375C138.567 54.0804 138.207 54.5081 137.943 54.9945C137.679 55.4809 137.517 56.0159 137.466 56.5669C137.416 57.1179 137.478 57.6734 137.649 58.1997C138.032 59.278 138.813 60.1689 139.832 60.6895C140.851 61.2102 142.031 61.3212 143.129 60.9997ZM141.129 54.9997C141.675 54.8389 142.263 54.8933 142.77 55.1517C143.278 55.4102 143.668 55.8532 143.859 56.3897C143.952 56.6525 143.99 56.932 143.969 57.2101C143.948 57.4883 143.869 57.7589 143.737 58.0047C143.605 58.2505 143.423 58.466 143.203 58.6373C142.983 58.8087 142.73 58.9321 142.459 58.9997C141.914 59.1602 141.328 59.1055 140.822 58.8469C140.316 58.5883 139.928 58.1455 139.739 57.6097C139.646 57.3469 139.608 57.0674 139.629 56.7893C139.65 56.5112 139.729 56.2405 139.861 55.9947C139.993 55.749 140.175 55.5335 140.395 55.3621C140.615 55.1907 140.868 55.0673 141.139 54.9997H141.129Z" fill="white"/>
<path id="Vector_34" d="M162.201 83.1902C162.361 82.2402 163.201 81.7302 164.491 81.9202C165.781 82.1102 170.401 82.8002 172.091 83.3002C174.671 84.0502 173.651 86.9802 171.361 86.4802C166.941 85.5302 161.791 85.6502 162.201 83.1902Z" fill="#E7DFEE"/>
<path id="Vector_35" d="M166.576 98.3195C161.406 93.3195 161.076 93.0195 160.776 92.4195C159.986 90.8195 161.956 89.4195 162.916 90.3095C165.118 92.1604 167.187 94.1654 169.106 96.3095C169.371 96.645 169.492 97.0721 169.442 97.4969C169.392 97.9216 169.176 98.3093 168.841 98.5745C168.505 98.8397 168.078 98.9608 167.653 98.9111C167.228 98.8614 166.841 98.645 166.576 98.3095" fill="#E7DFEE"/>
<path id="Vector_36" d="M157.382 103.84C154.942 99.9496 153.382 98.3196 155.112 97.1996C155.305 97.0738 155.523 96.9903 155.751 96.9544C155.979 96.9186 156.212 96.9313 156.435 96.9917C156.658 97.0522 156.865 97.1589 157.044 97.305C157.223 97.4511 157.369 97.6333 157.472 97.8396C158.472 99.3096 159.372 100.84 160.272 102.36C160.393 102.551 160.472 102.766 160.506 102.989C160.539 103.213 160.525 103.442 160.466 103.66C160.406 103.878 160.301 104.082 160.158 104.257C160.016 104.433 159.838 104.577 159.636 104.68C159.435 104.783 159.214 104.844 158.988 104.857C158.762 104.87 158.536 104.836 158.324 104.757C158.112 104.678 157.919 104.555 157.756 104.397C157.594 104.239 157.467 104.049 157.382 103.84Z" fill="#E7DFEE"/>
<path id="Vector_37" fill-rule="evenodd" clip-rule="evenodd" d="M138.308 84.4602C142.798 90.4602 131.978 95.0002 132.198 97.0002C132.388 98.5302 133.028 99.8102 133.108 101.18C133.268 103.65 132.398 104.3 131.728 106.6L145.798 110.79C146.666 108.852 147.372 106.845 147.908 104.79C148.523 102.688 148.978 100.542 149.268 98.3702C149.828 92.9302 147.268 88.1202 142.328 82.6802C140.618 80.8102 136.328 76.5802 135.108 78.0602C134.108 79.2502 137.498 83.1402 138.278 84.5102" fill="#C4765B"/>
<path id="Vector_38" fill-rule="evenodd" clip-rule="evenodd" d="M157.031 82.4194C142.481 76.8494 127.591 71.7494 112.541 66.8994C118.291 79.0794 123.181 92.5094 128.931 104.689C142.921 100.509 151.551 92.5694 157.031 82.4194Z" fill="#FFC857"/>
<path id="Vector_39" fill-rule="evenodd" clip-rule="evenodd" d="M144.201 86.6704C142.601 86.8104 142.441 91.3504 142.421 93.8504C142.421 95.4804 142.621 97.0304 142.501 98.5004C138.791 99.8104 132.801 102.33 131.771 106.56L145.841 110.75C147.941 106.29 148.551 99.7504 147.721 94.0704C147.331 91.4004 146.001 86.5204 144.201 86.6704Z" fill="#DB9171"/>
<path id="Vector_40" fill-rule="evenodd" clip-rule="evenodd" d="M67.0596 78.8295L64.9896 91.0995C60.7996 90.6295 56.5896 90.1795 52.3896 89.7795C51.9779 89.433 51.5841 89.0659 51.2096 88.6795C49.9496 87.3695 47.8696 84.6795 47.8096 82.8595C47.8096 82.8595 48.5496 77.7995 48.7496 75.5095C49.2296 69.9995 46.6796 67.8095 44.9796 63.2595C43.7693 60.2201 43.0568 57.0056 42.8696 53.7395C42.5196 44.7395 49.0396 37.7395 55.5096 36.3195C57.9496 35.7995 62.6796 35.7295 65.5096 36.8995C68.6462 38.0791 71.4089 40.0786 73.5096 42.6895C76.5096 46.8595 76.9196 52.0695 76.5096 59.2395C76.3096 63.1595 77.1496 67.4595 76.9096 70.3895C76.4896 75.9995 74.4696 79.8395 67.0596 78.8295Z" fill="#DB9171"/>
<path id="Vector_41" fill-rule="evenodd" clip-rule="evenodd" d="M66.6762 54.9401C71.2162 57.9401 73.9062 54.1401 73.9062 54.1401C72.8196 53.3216 71.455 52.9625 70.1062 53.1401C68.7874 53.347 67.578 53.9958 66.6762 54.9801" fill="white"/>
<path id="Vector_42" fill-rule="evenodd" clip-rule="evenodd" d="M73.9062 54.1401C73.4761 54.7173 72.9264 55.1948 72.2947 55.54C71.6631 55.8852 70.9643 56.0899 70.2462 56.1401C70.0851 55.9292 69.9476 55.7012 69.8362 55.4601C69.7312 55.0159 69.7717 54.5496 69.9518 54.1301C70.1318 53.7106 70.4419 53.3601 70.8362 53.1301C71.9199 53.119 72.976 53.471 73.8362 54.1301" fill="#347AC1"/>
<path id="Vector_43" d="M66.0594 52.8999C67.1488 52.0032 68.4699 51.4334 69.8698 51.2564C71.2697 51.0794 72.6911 51.3025 73.9694 51.8999L74.6094 50.7599C73.0999 50.0149 71.4068 49.7232 69.735 49.9202C68.0632 50.1172 66.4843 50.7944 65.1894 51.8699L66.0594 52.8999Z" fill="#F6B83A"/>
<path id="Vector_44" fill-rule="evenodd" clip-rule="evenodd" d="M75.8285 53.38C74.7185 53.23 75.0485 61.0901 75.8285 64.1501C77.2485 64.5401 79.1385 64.1501 79.6185 63.0101C80.5585 60.7001 76.9585 53.52 75.8785 53.38" fill="#C4765B"/>
<path id="Vector_45" fill-rule="evenodd" clip-rule="evenodd" d="M73.2019 66.9395C72.7219 69.6995 76.4819 72.4295 77.2019 71.5095C77.4101 71.2013 77.5384 70.8461 77.575 70.476C77.6117 70.1059 77.5556 69.7325 77.4119 69.3895C76.5646 69.3394 75.7407 69.0917 75.0062 68.6663C74.2717 68.2409 73.6469 67.6495 73.1819 66.9395" fill="#C4765B"/>
<path id="Vector_46" fill-rule="evenodd" clip-rule="evenodd" d="M73.1982 66.94C74.0782 68.34 76.7582 68.72 77.4982 68.73C78.6782 64.89 74.9882 67.59 73.1982 66.94Z" fill="#C4765B"/>
<path id="Vector_47" d="M60.9505 61.6999C60.8187 62.4546 60.914 63.2315 61.2242 63.9321C61.5344 64.6327 62.0455 65.2254 62.6929 65.6352C63.3403 66.045 64.0948 66.2534 64.8607 66.2341C65.6266 66.2147 66.3696 65.9684 66.9954 65.5264C67.6212 65.0844 68.1018 64.4665 68.3762 63.7512C68.6505 63.0358 68.7064 62.2551 68.5366 61.5079C68.3669 60.7608 67.9792 60.0808 67.4227 59.5542C66.8661 59.0276 66.1658 58.6781 65.4105 58.5499C64.9106 58.4624 64.3984 58.4745 63.9033 58.5857C63.4082 58.6968 62.9399 58.9047 62.5254 59.1974C62.1109 59.4902 61.7584 59.862 61.4881 60.2914C61.2178 60.7209 61.0351 61.1995 60.9505 61.6999Z" fill="#C4765B"/>
<path id="Vector_48" fill-rule="evenodd" clip-rule="evenodd" d="M67.0625 78.83C64.011 78.0765 61.1589 76.671 58.7025 74.71C59.0843 76.7634 59.9667 78.6909 61.2714 80.3218C62.5762 81.9527 64.263 83.2367 66.1825 84.06L67.0625 78.83Z" fill="#C4765B"/>
<path id="Vector_49" fill-rule="evenodd" clip-rule="evenodd" d="M39.2928 19.0902C38.1926 18.8545 37.051 18.8975 35.9716 19.2154C34.8923 19.5332 33.9096 20.1159 33.1128 20.9103C31.9728 22.1603 31.6028 23.9102 30.6428 25.4602C29.3228 27.5702 26.5028 28.7902 25.7028 31.5602C24.3828 36.0902 28.1928 37.9902 30.3328 40.3502C31.9828 42.1802 32.5028 45.1703 35.4728 45.6503C36.7317 45.7538 37.9942 45.4971 39.1128 44.9103C40.3928 44.2403 41.5328 42.5303 43.1928 41.3603C44.8528 40.1903 46.6428 39.6302 47.6028 37.9502C48.4705 36.0768 48.816 34.0038 48.6028 31.9502C48.152 30.13 47.5876 28.3398 46.9128 26.5902C45.7528 22.6702 44.2028 20.0002 39.2928 19.0902Z" fill="#FFC857"/>
<path id="Vector_50" fill-rule="evenodd" clip-rule="evenodd" d="M38.4922 21.0698C37.6324 21.0233 36.7734 21.1729 35.9799 21.5073C35.1865 21.8416 34.4794 22.352 33.9122 22.9998C32.3322 24.7898 32.3622 27.3398 30.9122 29.1998C30.0922 30.2598 28.3322 30.7498 27.9122 32.1998C27.6792 33.1911 27.723 34.2273 28.0386 35.1954C28.3543 36.1635 28.9297 37.0264 29.7022 37.6898C29.3951 36.8811 29.2665 36.0156 29.3252 35.1526C29.3839 34.2896 29.6284 33.4495 30.0422 32.6898C30.4222 32.0498 31.3522 31.4598 32.0422 30.6098C33.0922 29.2398 33.3322 27.5298 33.8322 25.9898C34.1289 24.8423 34.7121 23.7889 35.5271 22.9283C36.3422 22.0678 37.3624 21.4283 38.4922 21.0698Z" fill="#F6B83A"/>
<path id="Vector_51" fill-rule="evenodd" clip-rule="evenodd" d="M58.7283 27.2999C56.7991 26.8194 54.775 26.8787 52.8772 27.4713C50.9795 28.0639 49.2813 29.167 47.9683 30.6599C46.8383 32.0599 46.1783 33.9299 44.8483 35.2599C42.6583 37.4499 39.0883 37.9899 37.0183 40.0599C34.1483 42.9299 33.1583 47.5999 32.9583 51.8599C32.6583 58.2899 36.2783 66.0299 40.4783 69.3199C43.2183 71.4599 47.8583 71.4099 51.8183 70.1399C61.7183 66.9499 55.5383 61.8699 58.8183 55.6699C59.6183 54.1799 61.4183 54.2399 62.2683 52.0699C62.7883 50.7099 62.6383 46.6899 68.3983 45.2499C76.3283 43.2499 77.6783 39.3899 77.5983 38.2499C77.4383 36.0499 76.6583 34.6099 74.7783 33.7199C73.71 33.4264 72.6198 33.2191 71.5183 33.0999C66.6683 32.0999 63.3283 27.9899 58.9583 27.3399L58.7283 27.2999Z" fill="#FFC857"/>
<path id="Vector_52" d="M37.0222 40.0599C39.0922 37.9899 42.6622 37.4499 44.8522 35.2599C46.1822 33.9299 46.8522 32.0599 47.9722 30.6599C49.2851 29.167 50.9834 28.0639 52.8811 27.4713C54.7789 26.8787 56.803 26.8194 58.7322 27.2999H58.9722C59.1474 27.3226 59.321 27.356 59.4922 27.3999C58.0334 27.2873 56.5673 27.4828 55.189 27.9738C53.8107 28.4648 52.5512 29.2403 51.4922 30.2499C50.1122 31.6299 49.5422 33.2499 48.5722 35.0199C47.6885 36.6257 46.4712 38.0237 45.0022 39.1199C42.0022 41.2499 36.7622 41.9199 35.7422 46.1199C34.9822 49.2899 36.3322 52.1199 36.3422 54.4899C36.3422 56.3199 35.3422 58.2699 35.3422 60.4299C35.3448 61.4098 35.5208 62.3814 35.8622 63.2999C33.9456 59.7765 32.9644 55.8206 33.0122 51.8099C33.2022 47.5999 34.1522 42.9299 37.0222 40.0599Z" fill="#F6B83A"/>
<path id="Vector_53" fill-rule="evenodd" clip-rule="evenodd" d="M51.1996 60.7302C51.4396 62.8702 54.0196 66.5602 57.0096 66.2202C59.0796 65.9802 58.9296 62.0102 58.6796 59.8802C58.6503 59.3682 58.5169 58.8675 58.2875 58.4088C58.058 57.95 57.7374 57.543 57.3452 57.2125C56.9531 56.8819 56.4976 56.6349 56.0066 56.4865C55.5157 56.3381 54.9996 56.2914 54.49 56.3493C53.9804 56.4072 53.488 56.5685 53.0429 56.8233C52.5977 57.0781 52.2093 57.421 51.9013 57.8311C51.5933 58.2412 51.3722 58.7098 51.2515 59.2083C51.1308 59.7068 51.1132 60.2247 51.1996 60.7302Z" fill="#DB9171"/>
<path id="Vector_54" fill-rule="evenodd" clip-rule="evenodd" d="M61.4816 31.54C62.9916 30.27 58.4816 28.54 57.8616 29.85C57.1416 31.43 60.2916 31.97 61.3316 31.65C61.3897 31.626 61.4412 31.5883 61.4816 31.54Z" fill="white"/>
<path id="Vector_55" fill-rule="evenodd" clip-rule="evenodd" d="M56.5886 32.6203C57.6586 31.4303 53.9386 29.7403 53.5886 31.3503C53.2586 32.5703 55.8486 33.4403 56.5886 32.6203Z" fill="white"/>
<path id="Vector_56" fill-rule="evenodd" clip-rule="evenodd" d="M39.2025 56.9999C38.2625 57.2399 38.9025 58.8399 39.3925 59.9999C39.8825 61.1599 40.5125 62.2799 41.1025 62.1099C42.0125 61.8299 41.2725 60.2799 40.9225 59.3699C40.5725 58.4599 40.2025 56.7199 39.2025 56.9999Z" fill="white"/>
<path id="Vector_57" fill-rule="evenodd" clip-rule="evenodd" d="M39.2914 63.6599C38.1514 63.9599 39.7314 66.8399 40.5814 66.4499C41.4314 66.0599 40.2014 63.4199 39.2914 63.6599Z" fill="white"/>
<path id="Vector_58" fill-rule="evenodd" clip-rule="evenodd" d="M42.2713 64.4997C41.8413 65.2197 42.4613 66.8597 43.2713 67.7997C43.5513 68.1297 43.9413 68.4297 44.3413 68.1697C44.9613 67.7697 44.2513 66.6997 43.8813 65.8697C43.5113 65.0397 43.2613 63.9997 42.2713 64.4997Z" fill="white"/>
<path id="Vector_59" fill-rule="evenodd" clip-rule="evenodd" d="M34.4609 94.2702C34.4609 94.1702 34.4609 94.1602 34.3409 94.1602C34.2209 94.1602 34.2309 94.1602 34.2309 94.2702C24.0409 99.1202 18.0409 108.58 12.5809 119.44C10.0309 124.51 2.41094 144.03 1.20094 148.65C0.520943 151.27 -0.239056 153.91 1.20094 156.19C3.55094 159.92 10.8109 159.72 16.6109 159.97C18.1809 160.03 19.7709 160.03 21.2909 160.06C22.8109 160.09 24.2909 160.37 25.5109 159.71C24.9909 153.71 24.3209 147.5 23.9509 141.38C23.7022 135.31 23.9463 129.23 24.6809 123.2C25.9109 111.32 28.0609 101.29 34.4609 94.2702Z" fill="#3C91E6"/>
<path id="Vector_60" fill-rule="evenodd" clip-rule="evenodd" d="M20.3225 134.39C20.1925 134.39 20.2425 134.62 20.0925 134.62C18.2425 138.13 16.4025 141.43 14.2325 145.07C13.8925 145.65 12.2325 148.18 13.8825 148.62C14.7425 148.84 15.6825 147.83 16.2325 147.18C17.8425 145.098 19.2679 142.879 20.4925 140.55C20.8925 138.62 20.0425 136.34 20.3225 134.39Z" fill="#347AC1"/>
<path id="Vector_61" d="M19.4469 123.999C20.1269 114.869 22.4469 106.589 26.8869 100.729C28.1769 99.0195 29.7269 96.9695 31.5469 95.9795C29.0428 99.1948 27.2038 102.876 26.1369 106.809C24.0269 114.229 23.7069 123.059 23.4469 132.339C23.4469 133.599 23.3869 134.86 23.3769 136.13C23.3769 137.036 23.3769 137.956 23.3769 138.889C23.3149 145.953 23.6923 153.013 24.5069 160.029C23.4869 160.239 18.5469 136.179 19.4469 123.999Z" fill="#347AC1"/>
<path id="Vector_62" fill-rule="evenodd" clip-rule="evenodd" d="M24.4811 160.08C44.9311 159.96 66.2911 160.25 86.8911 158.86C86.9061 147.9 88.0149 136.969 90.2011 126.23C91.1411 121.5 92.3911 116.42 93.0711 111.07C93.7511 105.72 93.9211 99.33 91.5811 95.07C89.3411 90.94 84.2911 88.68 79.3711 87.2C73.8197 85.559 68.0694 84.6875 62.2811 84.61C42.5211 84.19 30.4211 91.94 26.1611 106.89C24.0511 114.31 23.7311 123.14 23.4711 132.42C23.1237 141.652 23.4613 150.898 24.4811 160.08Z" fill="#3C91E6"/>
<path id="Vector_63" fill-rule="evenodd" clip-rule="evenodd" d="M50.1428 78.57C49.0556 78.4459 47.955 78.517 46.8928 78.78C44.4228 79.72 42.9628 83.55 42.5828 86.89C42.4328 88.19 42.3628 89.6 42.9428 90.31C43.9428 91.58 47.7528 91.31 50.8828 90.99C56.3228 90.45 61.6628 89.83 67.2028 88.92C69.0828 88.62 73.7928 88.49 74.0328 86.79C74.2728 85.09 71.3928 83.89 69.6428 83.26C67.2928 82.41 65.3928 81.95 63.6428 81.38C61.6428 80.72 59.5128 80.15 57.3628 79.62C54.9993 79.0194 52.5795 78.6675 50.1428 78.57Z" fill="#347AC1"/>
<path id="Vector_64" fill-rule="evenodd" clip-rule="evenodd" d="M27.6914 113.92C28.6414 113.09 29.2714 111.07 29.7714 109.05C29.9914 108.18 30.3114 106.78 29.5614 106.5C28.6614 106.16 28.0314 107.7 27.8114 108.25C27.1141 109.921 26.7408 111.709 26.7113 113.52C26.8296 113.661 26.9808 113.772 27.1516 113.842C27.3225 113.911 27.5078 113.938 27.6914 113.92Z" fill="white"/>
<path id="Vector_65" fill-rule="evenodd" clip-rule="evenodd" d="M31.9627 107.26C33.6827 108.32 35.3227 104.26 33.7027 103.76C33.0027 103.57 31.4627 105.26 31.4127 106.35C31.4161 106.537 31.4688 106.719 31.5654 106.879C31.6619 107.039 31.799 107.17 31.9627 107.26Z" fill="white"/>
<path id="Vector_66" fill-rule="evenodd" clip-rule="evenodd" d="M34.0305 98.8898C34.6005 99.3198 35.5005 98.7998 36.1505 97.9898C36.6805 97.3398 37.3705 95.8498 36.4705 95.5098C36.1332 95.4914 35.7966 95.5589 35.4924 95.7057C35.1881 95.8526 34.926 96.0742 34.7305 96.3498C34.0805 97.1298 33.2905 98.3298 34.0305 98.8898Z" fill="white"/>
<path id="Vector_67" fill-rule="evenodd" clip-rule="evenodd" d="M146.203 109.94L132.393 104.89C126.573 114.37 122.043 122.33 116.753 132.31C111.053 119.98 104.053 108.03 95.5531 97.8802C92.7831 94.5702 89.4131 91.1602 85.2831 89.8802C81.6931 88.7302 78.0831 89.9602 76.6831 92.8802C75.2831 95.8002 76.1631 101.06 77.1431 104.74C78.1431 108.61 79.3931 112.12 80.5331 115.38C85.4131 129.38 91.3931 141.77 99.5331 152.16C101.488 154.781 103.739 157.167 106.243 159.27C108.833 161.487 111.921 163.045 115.243 163.81C116.654 164.028 118.095 163.947 119.473 163.574C120.851 163.2 122.136 162.541 123.243 161.64C126.503 159.02 128.843 154.64 130.803 150.64C137.172 137.574 142.327 123.95 146.203 109.94Z" fill="#3C91E6"/>
<path id="Vector_68" d="M73.5575 98.1298C73.6975 93.8898 75.3575 89.5398 79.2575 88.5098C77.7389 89.9805 76.6942 91.8713 76.2575 93.9398C75.4375 96.9898 76.2575 101.42 77.1175 104.68C78.1175 108.55 79.3675 112.06 80.5075 115.32C82.8054 121.995 85.5379 128.512 88.6875 134.83C88.4175 136.67 77.4475 118.83 75.2775 109.83C74.1655 106.028 73.5867 102.091 73.5575 98.1298Z" fill="#347AC1"/>
<path id="Vector_69" d="M112.379 140.07C111.279 139.89 111.599 138.13 111.949 136.88C112.669 134.28 113.299 132.13 114.029 130.09C114.229 129.469 114.49 128.869 114.809 128.3C115.459 129.63 116.099 130.97 116.719 132.3C116.44 133.317 116.107 134.319 115.719 135.3C115.199 136.36 113.699 140.28 112.379 140.07Z" fill="#347AC1"/>
<path id="Vector_70" fill-rule="evenodd" clip-rule="evenodd" d="M83.0389 91.7103C80.4689 91.9103 84.4789 97.5203 86.0389 96.5203C87.8989 95.3503 84.6689 92.2003 83.2689 91.7203C83.1933 91.7043 83.1156 91.7009 83.0389 91.7103Z" fill="white"/>
<path id="Vector_71" fill-rule="evenodd" clip-rule="evenodd" d="M89.3412 94.4696C87.3412 94.9196 90.4612 99.8196 91.9612 98.3396C93.1112 97.2096 90.7312 94.1496 89.3412 94.4696Z" fill="white"/>
<path id="Vector_72" fill-rule="evenodd" clip-rule="evenodd" d="M126.072 148.449C125.232 149.049 124.572 150.649 124.012 152.259C123.772 152.949 123.402 154.069 124.012 154.349C124.622 154.629 125.352 153.489 125.572 153.059C126.262 151.75 126.696 150.321 126.852 148.849C126.765 148.723 126.648 148.62 126.512 148.551C126.376 148.481 126.225 148.446 126.072 148.449Z" fill="white"/>
<path id="Vector_73" fill-rule="evenodd" clip-rule="evenodd" d="M120.602 154.05C119.272 153.05 117.602 156.29 118.922 156.77C119.482 156.98 120.852 155.71 120.922 154.83C120.942 154.683 120.923 154.534 120.867 154.397C120.811 154.26 120.719 154.14 120.602 154.05Z" fill="white"/>
<path id="Vector_74" fill-rule="evenodd" clip-rule="evenodd" d="M120.2 158.41C119.77 158.02 119 158.41 118.41 158.99C117.82 159.57 117.26 160.64 117.97 160.99C118.242 161.035 118.521 161.008 118.779 160.912C119.037 160.815 119.265 160.653 119.44 160.44C120.08 159.84 120.81 158.93 120.2 158.41Z" fill="white"/>
</g>
</svg>
