<svg width="574" height="464" viewBox="0 0 574 464" fill="none" xmlns="http://www.w3.org/2000/svg">
<g clipPath="url(#clip0_264_1668)">
<path opacity="0.4" d="M564.955 328.248C576.134 317.069 576.134 298.944 564.955 287.765C553.776 276.586 535.651 276.586 524.472 287.765C513.293 298.944 513.293 317.069 524.472 328.248C535.651 339.428 553.776 339.428 564.955 328.248Z" fill="#F0EBF4"/>
<path opacity="0.4" d="M104.553 139.084C121.607 122.031 121.607 94.3824 104.554 77.3292C87.5003 60.276 59.8515 60.276 42.7983 77.3292C25.7451 94.3824 25.7451 122.031 42.7983 139.084C59.8515 156.138 87.5003 156.138 104.553 139.084Z" fill="#F0EBF4"/>
<path opacity="0.4" d="M224.722 66.2247C237.295 66.2247 247.487 56.0322 247.487 43.4593C247.487 30.8863 237.295 20.6938 224.722 20.6938C212.149 20.6938 201.957 30.8863 201.957 43.4593C201.957 56.0322 212.149 66.2247 224.722 66.2247Z" fill="#F0EBF4"/>
<path d="M192.134 54.712C190.718 54.7057 189.305 54.5897 187.907 54.365L188.043 53.508C189.396 53.7199 190.764 53.8267 192.134 53.8272H192.29V54.6946L192.134 54.712ZM196.686 54.3303L196.54 53.4733C197.943 53.2365 199.325 52.8884 200.673 52.4323L200.95 53.2547C199.559 53.7243 198.133 54.084 196.686 54.3303ZM183.615 53.3553C182.219 52.897 180.862 52.3285 179.556 51.6551L179.951 50.8848C181.217 51.5362 182.533 52.0861 183.886 52.5295L183.615 53.3553ZM204.979 51.4989L204.573 50.7356C205.83 50.0672 207.03 49.2991 208.164 48.4386L208.688 49.1325C207.521 50.0176 206.285 50.8089 204.993 51.4989H204.979ZM175.832 49.3303C174.65 48.4583 173.541 47.4916 172.515 46.44L173.136 45.8327C174.129 46.8516 175.202 47.7881 176.346 48.6329L175.832 49.3303ZM211.981 46.2075L211.353 45.6107C212.331 44.5778 213.226 43.4686 214.028 42.2935L214.743 42.7828C213.914 43.9912 212.991 45.1318 211.981 46.1936V46.2075ZM169.705 43.0638C168.862 41.8604 168.119 40.591 167.481 39.2679L168.261 38.8897C168.88 40.1711 169.601 41.4011 170.416 42.5677L169.705 43.0638ZM216.925 38.9452L216.138 38.5774C216.738 37.2879 217.233 35.9523 217.619 34.5836L218.452 34.823C218.053 36.2352 217.542 37.6136 216.925 38.9452ZM165.888 35.1492C165.465 33.7413 165.157 32.3012 164.969 30.8432L165.826 30.7321C166.012 32.1415 166.31 33.5338 166.717 34.8959L165.888 35.1492ZM219.323 30.5066L218.459 30.406C218.581 29.3811 218.642 28.3499 218.643 27.3178C218.643 26.9292 218.643 26.5337 218.615 26.1451L219.483 26.1069C219.5 26.5059 219.51 26.9153 219.51 27.3178C219.514 28.3879 219.455 29.4573 219.333 30.5205L219.323 30.5066ZM165.61 26.4747L164.743 26.4469C164.79 24.9775 164.956 23.5142 165.239 22.0715L166.089 22.2381C165.821 23.6356 165.664 25.0523 165.621 26.4747H165.61ZM218.091 21.9154C217.8 20.5229 217.397 19.156 216.887 17.8279L217.696 17.5156C218.223 18.8878 218.639 20.2999 218.941 21.7384L218.091 21.9154ZM167.255 18.1333L166.443 17.8349C166.953 16.4568 167.571 15.1213 168.293 13.8411L169.049 14.2679C168.35 15.5069 167.75 16.7994 167.255 18.1333ZM216.807 17.6232C216.287 16.3038 215.662 15.0276 214.941 13.8064L215.687 13.3657C216.433 14.6312 217.078 15.9539 217.616 17.3213L216.807 17.6232ZM171.436 10.7426L170.742 10.2013C171.661 9.05472 172.671 7.98373 173.761 6.99865L174.344 7.64057C173.293 8.59519 172.321 9.63252 171.436 10.7426ZM212.481 10.3193C211.568 9.22884 210.569 8.21354 209.493 7.28318L210.059 6.62739C211.171 7.58332 212.203 8.62767 213.147 9.75022L212.481 10.3193ZM177.741 5.04515L177.269 4.31302C178.505 3.51745 179.802 2.8213 181.148 2.23114L181.495 3.02573C180.192 3.5979 178.937 4.27318 177.741 5.04515ZM206.055 4.75716C204.844 4.00941 203.574 3.36076 202.259 2.81754L202.606 2.01601C203.96 2.57831 205.268 3.24779 206.516 4.01809L206.055 4.75716ZM185.527 1.63433L185.312 0.794634C186.735 0.426294 188.185 0.174484 189.649 0.0416912L189.726 0.90567C188.309 1.0372 186.905 1.28203 185.527 1.6378V1.63433ZM198.202 1.50595C196.818 1.17864 195.409 0.962819 193.99 0.860561L194.049 -0.00341797C195.516 0.108056 196.973 0.336635 198.404 0.680135L198.202 1.50595Z" fill="#9881AE"/>
<path d="M465.416 357.869V357.002C466.852 356.977 468.303 356.918 469.725 356.828L469.781 357.692C468.33 357.786 466.866 357.845 465.416 357.869ZM461.058 357.845C459.614 357.803 458.15 357.727 456.71 357.616L456.776 356.752C458.202 356.859 459.652 356.936 461.085 356.977L461.058 357.845ZM474.108 357.314L474.01 356.45C475.437 356.294 476.873 356.103 478.289 355.874L478.424 356.731C476.998 356.956 475.544 357.154 474.108 357.314ZM452.376 357.189C450.943 357.012 449.493 356.797 448.067 356.554L448.212 355.7C449.628 355.94 451.065 356.151 452.48 356.325L452.376 357.189ZM482.709 355.947L482.532 355.097C483.92 354.805 485.35 354.475 486.734 354.118L486.949 354.958C485.554 355.319 484.128 355.641 482.713 355.947H482.709ZM443.792 355.718C442.38 355.409 440.954 355.058 439.559 354.677L439.788 353.841C441.176 354.215 442.564 354.559 443.976 354.881L443.792 355.718ZM491.141 353.771L490.884 352.942C492.272 352.518 493.632 352.057 494.975 351.554L495.273 352.369C493.913 352.865 492.525 353.344 491.141 353.771ZM435.385 353.445C433.997 353.001 432.609 352.519 431.259 352.008L431.564 351.196C432.911 351.7 434.288 352.178 435.648 352.619L435.385 353.445ZM499.323 350.811L498.976 350.01C500.291 349.465 501.613 348.875 502.91 348.275L503.282 349.059C501.987 349.666 500.648 350.26 499.323 350.811ZM427.196 350.378C425.863 349.805 424.531 349.191 423.23 348.556L423.611 347.775C424.899 348.407 426.221 349.014 427.539 349.58L427.196 350.378ZM507.164 347.099L506.758 346.332C508.021 345.659 509.284 344.944 510.516 344.219L510.957 344.965C509.729 345.704 508.455 346.419 507.178 347.099H507.164ZM419.354 346.55C418.088 345.856 416.818 345.121 415.582 344.364L416.033 343.625C417.258 344.375 418.518 345.104 419.774 345.791L419.354 346.55ZM514.645 342.657L514.167 341.932C515.367 341.141 516.557 340.315 517.709 339.476L518.223 340.169C517.064 341.023 515.87 341.859 514.659 342.657H514.645ZM411.929 342.005C410.735 341.197 409.541 340.343 408.379 339.476L408.899 338.782C410.048 339.642 411.231 340.485 412.414 341.287L411.929 342.005ZM521.693 337.529L521.151 336.835C522.265 335.94 523.375 335.003 524.448 334.059L525.024 334.708C523.937 335.68 522.817 336.623 521.693 337.529ZM404.951 336.783C403.834 335.86 402.723 334.902 401.655 333.931L402.237 333.289C403.278 334.25 404.396 335.201 405.503 336.113L404.951 336.783ZM528.219 331.766L527.615 331.141C528.656 330.145 529.659 329.111 530.641 328.067L531.273 328.66C530.284 329.715 529.257 330.759 528.219 331.766ZM398.497 330.933C397.456 329.892 396.453 328.851 395.482 327.789L396.12 327.203C397.085 328.244 398.091 329.306 399.108 330.326L398.497 330.933ZM534.166 325.412L533.507 324.85C534.441 323.757 535.357 322.633 536.234 321.502L536.928 322.033C536.047 323.174 535.107 324.312 534.18 325.412H534.166ZM392.598 324.507C391.675 323.396 390.763 322.248 389.892 321.099L390.586 320.575C391.446 321.714 392.348 322.852 393.268 323.952L392.598 324.507ZM539.524 318.514L538.83 318.015C539.656 316.842 540.464 315.634 541.231 314.427L541.963 314.892C541.172 316.124 540.357 317.342 539.524 318.514ZM387.369 317.55C386.554 316.36 385.756 315.121 384.996 313.903L385.732 313.448C386.485 314.666 387.276 315.877 388.084 317.061L387.369 317.55ZM544.205 311.155L543.452 310.725C544.146 309.482 544.84 308.206 545.506 306.925L546.276 307.317C545.613 308.625 544.916 309.916 544.201 311.169L544.205 311.155ZM382.8 310.149C382.106 308.886 381.412 307.591 380.78 306.297L381.557 305.915C382.189 307.196 382.862 308.48 383.556 309.732L382.8 310.149ZM548.167 303.386L547.376 303.039C547.969 301.727 548.535 300.388 549.062 299.059L549.871 299.378C549.333 300.725 548.76 302.074 548.164 303.4L548.167 303.386ZM378.945 302.345C378.365 301.02 377.813 299.666 377.296 298.32L378.108 298.011C378.618 299.344 379.149 300.687 379.739 301.995L378.945 302.345ZM551.394 295.256L550.572 294.975C551.033 293.622 551.47 292.238 551.869 290.86L552.706 291.103C552.282 292.519 551.842 293.917 551.377 295.284L551.394 295.256ZM375.853 294.215C375.402 292.827 374.979 291.439 374.594 290.052L375.43 289.819C375.811 291.207 376.231 292.595 376.679 293.948L375.853 294.215ZM553.816 286.891L552.973 286.689C553.32 285.301 553.608 283.879 553.875 282.47L554.729 282.63C554.441 284.08 554.135 285.513 553.799 286.918L553.816 286.891ZM373.532 285.822C373.213 284.434 372.925 282.98 372.671 281.551L373.525 281.401C373.775 282.817 374.063 284.24 374.378 285.631L373.532 285.822ZM555.436 278.334L554.579 278.213C554.777 276.797 554.947 275.357 555.079 273.924L555.943 274.007C555.79 275.489 555.62 276.932 555.419 278.362L555.436 278.334ZM372.012 277.248C371.828 275.818 371.665 274.361 371.557 272.914L372.421 272.845C372.539 274.274 372.692 275.721 372.872 277.137L372.012 277.248ZM556.259 269.659L555.395 269.621C555.461 268.195 555.492 266.745 555.492 265.308H556.359C556.328 266.787 556.297 268.251 556.228 269.687L556.259 269.659ZM371.318 268.567C371.28 267.491 371.259 266.394 371.259 265.308C371.259 264.941 371.259 264.576 371.259 264.208H372.126C372.126 264.573 372.126 264.934 372.126 265.298C372.126 266.374 372.147 267.46 372.182 268.525L371.318 268.567ZM555.464 263.174C555.433 261.741 555.367 260.291 555.266 258.865L556.13 258.802C556.231 260.242 556.3 261.707 556.332 263.157L555.464 263.174ZM372.283 259.906L371.419 259.857C371.502 258.41 371.62 256.95 371.766 255.517L372.626 255.607C372.456 257.054 372.338 258.487 372.255 259.934L372.283 259.906ZM554.867 254.569C554.701 253.15 554.5 251.71 554.267 250.295L555.124 250.156C555.357 251.582 555.561 253.036 555.728 254.469L554.867 254.569ZM373.185 251.329L372.328 251.197C372.546 249.767 372.803 248.324 373.088 246.908L373.941 247.078C373.629 248.508 373.376 249.937 373.157 251.356L373.185 251.329ZM553.466 246.054C553.167 244.666 552.831 243.244 552.463 241.859L553.302 241.637C553.67 243.025 553.996 244.462 554.312 245.874L553.466 246.054ZM374.892 242.869L374.052 242.657C374.399 241.27 374.795 239.843 375.215 238.462L376.044 238.712C375.603 240.097 375.215 241.509 374.864 242.897L374.892 242.869ZM551.266 237.713C550.832 236.346 550.364 234.972 549.878 233.629L550.69 233.331C551.189 234.687 551.665 236.072 552.098 237.453L551.266 237.713ZM377.394 234.59L376.578 234.302C377.064 232.935 377.588 231.564 378.136 230.225L378.938 230.551C378.369 231.918 377.848 233.275 377.366 234.628L377.394 234.59ZM548.289 229.618C547.733 228.303 547.137 226.984 546.516 225.69L547.3 225.315C547.924 226.62 548.525 227.952 549.087 229.278L548.289 229.618ZM380.673 226.592L379.888 226.224C380.499 224.916 381.151 223.601 381.825 222.314L382.591 222.72C381.897 224.032 381.252 225.333 380.645 226.63L380.673 226.592ZM544.562 221.852C543.868 220.596 543.174 219.337 542.428 218.109L543.174 217.661C543.92 218.903 544.645 220.173 545.325 221.44L544.562 221.852ZM384.691 218.941L383.945 218.504C384.677 217.255 385.451 216.009 386.242 214.795L386.967 215.27C386.155 216.502 385.388 217.744 384.663 218.979L384.691 218.941ZM540.121 214.469C539.326 213.279 538.493 212.092 537.643 210.94L538.337 210.423C539.194 211.589 540.034 212.786 540.835 213.986L540.121 214.469ZM389.41 211.693L388.716 211.186C389.559 210.017 390.451 208.848 391.346 207.716L392.04 208.258C391.11 209.427 390.222 210.603 389.375 211.745L389.41 211.693ZM535.003 207.529C534.101 206.419 533.16 205.312 532.206 204.247L532.855 203.667C533.816 204.746 534.767 205.86 535.676 206.981L535.003 207.529ZM394.784 204.951L394.132 204.382C395.086 203.292 396.075 202.21 397.078 201.169L397.702 201.773C396.682 202.841 395.7 203.91 394.757 204.989L394.784 204.951ZM529.257 201.096C528.254 200.055 527.213 199.059 526.165 198.084L526.755 197.449C527.813 198.431 528.861 199.455 529.878 200.489L529.257 201.096ZM400.766 198.73L400.169 198.102C401.21 197.106 402.307 196.124 403.4 195.18L403.965 195.839C402.855 196.811 401.779 197.782 400.739 198.768L400.766 198.73ZM522.931 195.225C521.842 194.302 520.711 193.39 519.569 192.515L520.096 191.821C521.248 192.703 522.39 193.622 523.493 194.556L522.931 195.225ZM407.296 193.098L406.762 192.404C407.9 191.512 409.073 190.638 410.232 189.802L410.735 190.496C409.559 191.384 408.396 192.255 407.269 193.136L407.296 193.098ZM516.082 189.975C514.906 189.156 513.691 188.355 512.48 187.595L512.942 186.859C514.163 187.626 515.371 188.435 516.578 189.264L516.082 189.975ZM414.326 188.109L413.854 187.38C415.072 186.599 416.321 185.836 417.571 185.114L418.004 185.867C416.738 186.613 415.503 187.356 414.298 188.14L414.326 188.109ZM508.736 185.416C507.487 184.722 506.203 184.028 504.919 183.383L505.308 182.609C506.602 183.258 507.897 183.948 509.16 184.66L508.736 185.416ZM421.755 183.83L421.356 183.06C422.636 182.397 423.952 181.759 425.263 181.155L425.61 181.943C424.33 182.54 423.032 183.192 421.759 183.83H421.755ZM501.016 181.533C499.704 180.947 498.362 180.388 497.026 179.868L497.338 179.059C498.688 179.587 500.044 180.149 501.366 180.739L501.016 181.533ZM429.58 180.243L429.257 179.438C430.6 178.9 431.974 178.397 433.337 177.911L433.622 178.73C432.276 179.198 430.915 179.722 429.583 180.243H429.58ZM492.959 178.397C491.599 177.939 490.211 177.512 488.837 177.12L489.073 176.287C490.461 176.679 491.849 177.113 493.237 177.574L492.959 178.397ZM437.73 177.408L437.484 176.575C438.872 176.166 440.28 175.784 441.689 175.44L441.894 176.28C440.506 176.624 439.104 177.002 437.734 177.408H437.73ZM484.656 176.041C483.268 175.718 481.842 175.423 480.433 175.163L480.589 174.309C482.012 174.569 483.445 174.868 484.854 175.197L484.656 176.041ZM446.11 175.347L445.933 174.517C447.352 174.24 448.795 173.993 450.225 173.785L450.353 174.642C448.948 174.837 447.518 175.079 446.113 175.354L446.11 175.347ZM476.172 174.479C474.753 174.285 473.31 174.132 471.883 174L471.956 173.129C473.396 173.254 474.854 173.417 476.283 173.612L476.172 174.479ZM454.659 174.098L454.573 173.234C456.009 173.091 457.47 172.98 458.917 172.887L458.962 173.754C457.518 173.855 456.072 173.962 454.649 174.104L454.659 174.098ZM467.591 173.723C466.332 173.674 465.051 173.646 463.775 173.646H463.282V172.782H463.802C465.076 172.782 466.366 172.81 467.619 172.862L467.591 173.723Z" fill="#9881AE"/>
<path d="M88.31 256.405C86.8562 256.405 85.3885 256.335 83.9485 256.228L84.0144 255.36C85.4336 255.471 86.8805 255.53 88.317 255.537L88.31 256.405ZM92.6751 256.276L92.6196 255.412C94.0422 255.319 95.4856 255.173 96.9013 254.979L97.0193 255.839C95.5828 256.027 94.122 256.172 92.6751 256.266V256.276ZM79.6112 255.739C78.1747 255.524 76.7313 255.256 75.3191 254.941L75.5065 254.094C76.8944 254.406 78.3239 254.67 79.7396 254.882L79.6112 255.739ZM101.318 255.09L101.141 254.243C102.529 253.948 103.942 253.598 105.305 253.202L105.545 254.035C104.157 254.427 102.738 254.781 101.318 255.079V255.09ZM71.0963 253.834C69.7084 253.417 68.3205 252.942 66.9569 252.425L67.2657 251.613C68.6015 252.123 69.9756 252.592 71.3462 253.001L71.0963 253.834ZM109.708 252.668L109.41 251.852C110.746 251.36 112.085 250.812 113.386 250.222L113.733 251.013C112.422 251.61 111.062 252.168 109.708 252.668ZM62.9354 250.711C61.6203 250.097 60.3122 249.427 59.0422 248.719L59.4655 247.963C60.7147 248.657 62.0054 249.319 63.2997 249.923L62.9354 250.711ZM117.651 249.077L117.238 248.313C118.494 247.619 119.74 246.898 120.944 246.127L121.412 246.859C120.187 247.64 118.921 248.386 117.647 249.077H117.651ZM55.3018 246.457C54.0908 245.662 52.8903 244.816 51.7383 243.934L52.2657 243.24C53.4003 244.108 54.5835 244.944 55.7771 245.728L55.3018 246.457ZM125 244.375L124.483 243.681C125.628 242.827 126.759 241.922 127.842 240.992L128.407 241.648C127.311 242.598 126.162 243.514 125 244.382V244.375ZM48.3622 241.162C47.2761 240.204 46.2109 239.191 45.1942 238.157L45.8119 237.55C46.8146 238.57 47.866 239.566 48.9347 240.513L48.3622 241.162ZM131.613 238.688L131.003 238.07C132.016 237.064 133.005 236.006 133.945 234.948L134.597 235.517C133.65 236.592 132.64 237.668 131.613 238.688ZM42.2484 234.937C41.308 233.83 40.3955 232.678 39.5384 231.512L40.2324 230.999C41.0756 232.147 41.9673 233.286 42.9007 234.375L42.2484 234.937ZM137.349 232.116L136.655 231.592C137.515 230.451 138.345 229.264 139.122 228.063L139.851 228.535C139.066 229.746 138.223 230.95 137.349 232.116ZM37.0714 227.914C36.2976 226.686 35.562 225.416 34.8785 224.139L35.6453 223.73C36.315 224.989 37.0332 226.242 37.8035 227.449L37.0714 227.914ZM142.085 224.791L141.325 224.375C142.019 223.119 142.665 221.825 143.261 220.527L144.049 220.874C143.456 222.193 142.793 223.508 142.096 224.778L142.085 224.791ZM32.9736 220.215C32.3837 218.889 31.8355 217.529 31.3462 216.169L32.1616 215.874C32.6439 217.213 33.1852 218.556 33.7647 219.861L32.9736 220.215ZM145.742 216.839L144.93 216.537C145.433 215.197 145.892 213.823 146.294 212.453L147.127 212.699C146.714 214.073 146.249 215.482 145.739 216.849L145.742 216.839ZM30.0103 212.012C29.6183 210.624 29.2713 209.188 28.9694 207.769L29.8195 207.595C30.1075 208.983 30.4475 210.399 30.8362 211.759L30.0103 212.012ZM148.202 208.469L147.356 208.286C147.661 206.898 147.914 205.465 148.119 204.049L148.976 204.17C148.771 205.607 148.511 207.054 148.202 208.469ZM28.2581 203.463C28.0707 202.026 27.9319 200.565 27.8452 199.118L28.7126 199.066C28.7959 200.492 28.9347 201.936 29.1186 203.348L28.2581 203.463ZM149.441 199.847L148.574 199.788C148.674 198.365 148.726 196.918 148.726 195.485H149.611C149.611 196.922 149.542 198.39 149.441 199.847ZM28.6085 194.76H27.7411C27.7584 193.306 27.8278 191.839 27.9458 190.399L28.8098 190.468C28.6953 191.884 28.6259 193.331 28.6085 194.76ZM148.664 192.581C148.598 191.148 148.477 189.705 148.317 188.293L149.177 188.188C149.347 189.625 149.469 191.086 149.524 192.54L148.664 192.581ZM29.3199 186.19L28.4628 186.058C28.6849 184.621 28.9625 183.181 29.2852 181.769L30.1318 181.964C29.8091 183.355 29.5558 184.778 29.3199 186.19ZM147.64 184.039C147.37 182.651 147.043 181.225 146.676 179.844L147.512 179.621C147.89 181.009 148.206 182.453 148.494 183.875L147.64 184.039ZM31.2456 177.793L30.4163 177.536C30.8431 176.148 31.3254 174.76 31.8493 173.407L32.6578 173.723C32.1408 175.069 31.6654 176.44 31.2456 177.807V177.793ZM145.402 175.711C144.934 174.365 144.41 173.015 143.844 171.703L144.642 171.356C145.215 172.689 145.746 174.056 146.221 175.423L145.402 175.711ZM34.3684 169.757L33.5842 169.386C34.2053 168.077 34.882 166.769 35.5967 165.506L36.3532 165.933C35.6418 167.2 34.9756 168.487 34.3615 169.778L34.3684 169.757ZM142.016 167.821C141.356 166.551 140.628 165.291 139.899 164.077L140.638 163.622C141.395 164.857 142.12 166.134 142.786 167.439L142.016 167.821ZM38.6155 162.269L37.8833 161.804C38.6849 160.597 39.5419 159.403 40.4267 158.254L41.1207 158.785C40.2324 159.916 39.3892 161.093 38.5981 162.283L38.6155 162.269ZM137.529 160.499C136.697 159.337 135.794 158.192 134.899 157.092L135.565 156.54C136.492 157.654 137.39 158.817 138.234 159.993L137.529 160.499ZM43.8583 155.472L43.213 154.896C44.1776 153.813 45.1942 152.755 46.2352 151.745L46.8389 152.366C45.8153 153.352 44.823 154.392 43.8583 155.472ZM132.016 153.896C131.023 152.855 129.986 151.856 128.924 150.898L129.507 150.256C130.583 151.228 131.638 152.252 132.63 153.296L132.016 153.896ZM50.0277 149.479L49.469 148.817C50.5759 147.883 51.7348 146.981 52.9076 146.127L53.4177 146.821C52.2657 147.671 51.1241 148.563 50.0277 149.479ZM125.624 148.126C124.497 147.245 123.324 146.391 122.155 145.597L122.64 144.878C123.844 145.687 125.031 146.551 126.176 147.442L125.624 148.126ZM56.9916 144.431L56.5336 143.692C57.7653 142.928 59.0388 142.196 60.3191 141.523L60.7251 142.29C59.4621 142.942 58.206 143.674 56.9916 144.431ZM118.49 143.324C117.248 142.612 115.964 141.936 114.674 141.318L115.048 140.534C116.357 141.166 117.658 141.849 118.917 142.571L118.49 143.324ZM64.6009 140.423L64.2539 139.628C65.5793 139.049 66.943 138.511 68.3101 138.025L68.5981 138.844C67.2518 139.32 65.9055 139.854 64.6009 140.423ZM110.749 139.59C109.42 139.063 108.053 138.581 106.69 138.154L106.946 137.325C108.334 137.758 109.722 138.251 111.069 138.782L110.749 139.59ZM72.7237 137.554L72.4912 136.717C73.8791 136.332 75.3191 135.996 76.7417 135.711L76.9083 136.561C75.4856 136.842 74.0769 137.175 72.7029 137.554H72.7237ZM102.54 137.012C101.152 136.686 99.7292 136.405 98.317 136.176L98.4558 135.319C99.8853 135.551 101.329 135.836 102.738 136.169L102.54 137.012ZM81.1588 135.874L81.0512 135.014C82.4842 134.837 83.9485 134.705 85.3989 134.628L85.444 135.496C83.9936 135.569 82.5536 135.697 81.138 135.874H81.1588ZM94.0248 135.656C92.6057 135.527 91.1588 135.454 89.7292 135.427V134.559C91.1796 134.587 92.6473 134.663 94.0873 134.792L94.0248 135.656Z" fill="#9881AE"/>
<path d="M332.633 49.4101C329.737 49.4108 326.907 48.5527 324.499 46.9444C322.091 45.3361 320.214 43.0498 319.105 40.3747C317.997 37.6996 317.707 34.7559 318.272 31.9159C318.836 29.0758 320.231 26.4671 322.278 24.4195C324.326 22.372 326.934 20.9777 329.774 20.413C332.615 19.8482 335.558 20.1384 338.233 21.2468C340.908 22.3553 343.195 24.2321 344.803 26.6401C346.411 29.048 347.269 31.8788 347.269 34.7744C347.264 38.6546 345.721 42.3746 342.977 45.1183C340.233 47.862 336.513 49.4055 332.633 49.4101ZM332.633 20.7876C329.867 20.7876 327.163 21.608 324.862 23.1448C322.562 24.6817 320.77 26.8662 319.711 29.4219C318.652 31.9777 318.375 34.7899 318.915 37.5031C319.455 40.2163 320.787 42.7085 322.743 44.6646C324.699 46.6207 327.191 47.9528 329.904 48.4925C332.618 49.0321 335.43 48.7552 337.986 47.6965C340.541 46.6379 342.726 44.8452 344.263 42.5451C345.8 40.245 346.62 37.5408 346.62 34.7744C346.612 31.069 345.135 27.518 342.513 24.8995C339.891 22.281 336.338 20.8086 332.633 20.805V20.7876Z" fill="#9881AE"/>
<path d="M484.926 101.957V365.721C484.927 367.026 484.67 368.318 484.171 369.524C483.672 370.73 482.941 371.826 482.018 372.749C481.096 373.672 480.001 374.404 478.795 374.904C477.59 375.404 476.297 375.662 474.992 375.662H91.6827C90.3772 375.662 89.0845 375.405 87.8784 374.905C86.6723 374.406 85.5765 373.673 84.6533 372.75C83.7302 371.827 82.998 370.731 82.4984 369.525C81.9988 368.319 81.7417 367.027 81.7417 365.721V101.957C81.7417 99.3199 82.7889 96.791 84.6531 94.9261C86.5173 93.0613 89.0459 92.0131 91.6827 92.0122H474.992C477.628 92.014 480.156 93.0627 482.018 94.9276C483.881 96.7924 484.927 99.3208 484.926 101.957Z" fill="white"/>
<path d="M474.992 376.113H91.6827C88.932 376.11 86.2948 375.017 84.3497 373.071C82.4047 371.126 81.3107 368.489 81.308 365.738V101.957C81.3107 99.2061 82.4047 96.5688 84.3497 94.6238C86.2948 92.6787 88.932 91.5848 91.6827 91.582H474.992C477.741 91.5866 480.377 92.6815 482.32 94.6264C484.263 96.5714 485.355 99.2076 485.357 101.957V365.721C485.359 368.473 484.269 371.114 482.326 373.063C480.382 375.011 477.744 376.109 474.992 376.113ZM91.6827 92.4495C89.1621 92.4522 86.7455 93.4548 84.9631 95.2371C83.1807 97.0195 82.1782 99.4361 82.1754 101.957V365.721C82.1782 368.242 83.1807 370.658 84.9631 372.441C86.7455 374.223 89.1621 375.226 91.6827 375.228H474.992C477.511 375.224 479.926 374.22 481.706 372.438C483.487 370.656 484.487 368.24 484.489 365.721V101.957C484.487 99.4376 483.487 97.0221 481.706 95.2398C479.926 93.4576 477.511 92.4541 474.992 92.4495H91.6827Z" fill="#9881AE"/>
<path d="M484.926 101.957V117.612H81.7417V101.957C81.7417 99.3199 82.7889 96.791 84.6531 94.9261C86.5173 93.0613 89.0459 92.0131 91.6827 92.0122H474.992C477.628 92.014 480.156 93.0627 482.018 94.9276C483.881 96.7924 484.927 99.3208 484.926 101.957Z" fill="white"/>
<path d="M485.357 118.039H81.308V101.957C81.3107 99.2061 82.4047 96.5688 84.3497 94.6238C86.2948 92.6787 88.932 91.5848 91.6827 91.582H474.992C477.741 91.5866 480.377 92.6815 482.32 94.6264C484.263 96.5714 485.355 99.2076 485.357 101.957V118.039ZM82.165 117.172H484.489V101.957C484.487 99.4376 483.487 97.0221 481.706 95.2398C479.926 93.4576 477.511 92.4541 474.992 92.4495H91.6827C89.1621 92.4522 86.7455 93.4548 84.9631 95.2371C83.1807 97.0195 82.1782 99.4361 82.1754 101.957L82.165 117.172Z" fill="#9881AE"/>
<path d="M104.125 109.434C106.68 109.434 108.751 107.364 108.751 104.809C108.751 102.255 106.68 100.184 104.125 100.184C101.571 100.184 99.5002 102.255 99.5002 104.809C99.5002 107.364 101.571 109.434 104.125 109.434Z" fill="#4B0082"/>
<path d="M121.766 100.184C120.851 100.184 119.957 100.455 119.196 100.963C118.436 101.472 117.843 102.194 117.493 103.039C117.143 103.884 117.051 104.814 117.23 105.711C117.408 106.609 117.849 107.433 118.495 108.08C119.142 108.726 119.966 109.167 120.864 109.345C121.761 109.524 122.691 109.432 123.536 109.082C124.381 108.732 125.103 108.139 125.612 107.379C126.12 106.618 126.391 105.724 126.391 104.809C126.389 103.583 125.901 102.408 125.034 101.541C124.167 100.674 122.992 100.186 121.766 100.184Z" fill="#4B0082"/>
<path d="M139.403 109.434C138.488 109.434 137.594 109.162 136.834 108.653C136.074 108.145 135.482 107.422 135.132 106.577C134.783 105.731 134.692 104.802 134.87 103.905C135.049 103.008 135.49 102.184 136.137 101.537C136.784 100.891 137.608 100.451 138.505 100.272C139.402 100.094 140.332 100.186 141.177 100.536C142.022 100.886 142.744 101.479 143.252 102.24C143.761 103 144.032 103.894 144.032 104.809C144.03 106.036 143.541 107.212 142.674 108.079C141.806 108.946 140.63 109.433 139.403 109.434ZM139.403 101.051C138.66 101.052 137.934 101.273 137.316 101.686C136.699 102.1 136.218 102.687 135.934 103.373C135.65 104.06 135.576 104.816 135.721 105.544C135.867 106.273 136.225 106.942 136.751 107.467C137.276 107.993 137.946 108.35 138.675 108.495C139.403 108.64 140.159 108.565 140.845 108.281C141.532 107.996 142.118 107.514 142.531 106.896C142.944 106.279 143.164 105.552 143.164 104.809C143.163 103.812 142.767 102.856 142.061 102.152C141.356 101.447 140.4 101.051 139.403 101.051Z" fill="#9881AE"/>
<path d="M253.24 109.958H167.252C165.886 109.958 164.576 109.416 163.611 108.45C162.645 107.484 162.102 106.175 162.102 104.809C162.102 103.443 162.645 102.134 163.611 101.168C164.576 100.202 165.886 99.6599 167.252 99.6599H253.24C254.606 99.6599 255.916 100.202 256.881 101.168C257.847 102.134 258.39 103.443 258.39 104.809C258.39 106.175 257.847 107.484 256.881 108.45C255.916 109.416 254.606 109.958 253.24 109.958ZM167.252 100.527C166.116 100.527 165.027 100.978 164.224 101.781C163.421 102.584 162.97 103.674 162.97 104.809C162.97 105.945 163.421 107.034 164.224 107.837C165.027 108.64 166.116 109.091 167.252 109.091H253.24C254.376 109.091 255.465 108.64 256.268 107.837C257.071 107.034 257.522 105.945 257.522 104.809C257.522 103.674 257.071 102.584 256.268 101.781C255.465 100.978 254.376 100.527 253.24 100.527H167.252Z" fill="#9881AE"/>
<path d="M362.584 240.347C362.584 281.88 328.927 315.555 287.387 315.555C245.846 315.555 212.179 281.898 212.179 240.347C212.179 201.384 241.818 169.337 279.778 165.52L282.286 190.201C271.994 191.252 262.274 195.446 254.45 202.215C246.625 208.983 241.074 217.997 238.552 228.031C236.03 238.065 236.66 248.632 240.354 258.295C244.049 267.959 250.63 276.251 259.203 282.043C267.775 287.835 277.923 290.847 288.268 290.669C298.612 290.491 308.651 287.131 317.019 281.047C325.387 274.964 331.679 266.45 335.039 256.665C338.398 246.88 338.663 236.297 335.798 226.356L359.646 219.469C361.602 226.255 362.591 233.284 362.584 240.347Z" fill="#4B0082"/>
<path d="M287.383 301.068C320.919 301.068 348.105 273.882 348.105 240.347C348.105 206.811 320.919 179.625 287.383 179.625C253.848 179.625 226.662 206.811 226.662 240.347C226.662 273.882 253.848 301.068 287.383 301.068Z" fill="white"/>
<path opacity="0.5" d="M287.383 301.068C320.919 301.068 348.105 273.882 348.105 240.347C348.105 206.811 320.919 179.625 287.383 179.625C253.848 179.625 226.662 206.811 226.662 240.347C226.662 273.882 253.848 301.068 287.383 301.068Z" fill="#DFD2EB"/>
<path d="M287.383 283.369C311.136 283.369 330.392 264.107 330.392 240.347C330.392 216.586 311.136 197.324 287.383 197.324C263.631 197.324 244.375 216.586 244.375 240.347C244.375 264.107 263.631 283.369 287.383 283.369Z" fill="white"/>
<path d="M296.001 252.412C296.001 258.764 290.852 263.913 284.501 263.913C278.149 263.913 273 258.764 273 252.412C273 246.061 278.149 240.912 284.501 240.912C290.852 240.912 296.001 246.061 296.001 252.412Z" fill="url(#paint0_linear_264_1668)"/>
<path d="M302.159 227.5C302.159 233.852 297.01 239.001 290.658 239.001C284.307 239.001 279.158 233.852 279.158 227.5C279.158 221.149 284.307 216 290.658 216C297.01 216 302.159 221.149 302.159 227.5Z" fill="url(#paint1_linear_264_1668)"/>
<path d="M278.218 249.559L295.192 232.037" stroke="url(#paint2_linear_264_1668)" stroke-width="11.4073" stroke-linecap="round"/>
<path d="M555.096 40.5586H391.491V140.597H555.096V40.5586Z" fill="white"/>
<path d="M555.53 141.03H391.061V40.1248H555.53V141.03ZM391.925 140.166H554.659V40.9922H391.925V140.166Z" fill="#9881AE"/>
<path d="M421.505 108.754H412.088V126.048H421.505V108.754Z" fill="#CEBFDD"/>
<path d="M440.336 100.854H430.919V126.048H440.336V100.854Z" fill="#CEBFDD"/>
<path d="M459.17 107.314H449.753V126.048H459.17V107.314Z" fill="#CEBFDD"/>
<path d="M478.004 94.1289H468.587V126.044H478.004V94.1289Z" fill="#CEBFDD"/>
<path d="M496.835 85.6973H487.418V126.048H496.835V85.6973Z" fill="#CEBFDD"/>
<path d="M515.669 73.657H506.252V126.048H515.669V73.657Z" fill="#CEBFDD"/>
<path d="M534.5 55.1111H525.083V126.048H534.5V55.1111Z" fill="#CEBFDD"/>
<path d="M419.573 63.5288H412.088V72.0021H419.573V63.5288Z" fill="#CEBFDD"/>
<path d="M481.814 67.4495H431.134V69.6216H481.814V67.4495Z" fill="#CEBFDD"/>
<path d="M407.883 191.318L397.522 162.696C391.701 164.803 386.661 168.634 383.074 173.68C379.487 178.725 377.524 184.744 377.446 190.934C377.368 197.124 379.18 203.191 382.639 208.324C386.098 213.458 391.041 217.415 396.807 219.667C402.573 221.92 408.889 222.36 414.912 220.93C420.935 219.5 426.379 216.267 430.517 211.663C434.656 207.059 437.292 201.303 438.074 195.162C438.856 189.021 437.747 182.788 434.895 177.293L407.883 191.318Z" fill="#F0EBF4"/>
<path d="M438.941 166.454C435.541 159.903 429.876 154.811 423.002 152.125C416.128 149.44 408.512 149.343 401.571 151.853L411.929 180.475L438.941 166.454Z" fill="#BFABD3"/>
<path d="M450.964 288.848H378.965V357.376H450.964V288.848Z" fill="#F0EBF4"/>
<path d="M430.579 307.064H390.242V309.958H430.579V307.064Z" fill="white"/>
<path d="M430.579 315.739H390.242V318.632H430.579V315.739Z" fill="white"/>
<path d="M176.134 157.862H113.525V263.691H176.134V157.862Z" fill="#F0EBF4"/>
<path d="M164.125 173.188H123.067V210.777H164.125V173.188Z" fill="white"/>
<path d="M123.363 172.847L122.777 173.487L163.838 211.073L164.424 210.433L123.363 172.847Z" fill="#F0EBF4"/>
<path d="M163.828 172.872L122.774 210.466L123.359 211.105L164.414 173.512L163.828 172.872Z" fill="#F0EBF4"/>
<path d="M143.615 201.086H0.412872V295.44H143.615V201.086Z" fill="white"/>
<path d="M144.032 295.853H0V200.673H144.032V295.853ZM0.829284 295.027H143.202V201.499H0.829284V295.027Z" fill="#9881AE"/>
<path d="M15.5031 272.654L24.7536 255.305L43.8376 273.234L56.5613 236.221L80.2705 262.245L95.8847 255.885L124.223 218.872" fill="white"/>
<path d="M44.0318 274.011L24.8715 256.009L15.8847 272.859L15.1179 272.453L24.6391 254.601L43.6467 272.46L56.3878 235.388L80.3885 261.731L95.614 255.527L123.879 218.608L124.566 219.136L96.1587 256.242L80.156 262.762L79.9513 262.54L56.7348 237.057L44.0318 274.011Z" fill="#9881AE"/>
<path d="M24.8265 257.619C26.143 257.619 27.2103 256.552 27.2103 255.236C27.2103 253.919 26.143 252.852 24.8265 252.852C23.51 252.852 22.4427 253.919 22.4427 255.236C22.4427 256.552 23.51 257.619 24.8265 257.619Z" fill="#9881AE"/>
<path d="M43.6953 275.184C45.0118 275.184 46.0791 274.116 46.0791 272.8C46.0791 271.483 45.0118 270.416 43.6953 270.416C42.3788 270.416 41.3116 271.483 41.3116 272.8C41.3116 274.116 42.3788 275.184 43.6953 275.184Z" fill="#9881AE"/>
<path d="M56.7071 238.75C58.0236 238.75 59.0909 237.683 59.0909 236.367C59.0909 235.05 58.0236 233.983 56.7071 233.983C55.3906 233.983 54.3233 235.05 54.3233 236.367C54.3233 237.683 55.3906 238.75 56.7071 238.75Z" fill="#9881AE"/>
<path d="M102.377 216.127H41.6551V216.995H102.377V216.127Z" fill="#9881AE"/>
<path d="M340.895 429.156C338.302 412.162 341.766 394.798 350.681 380.099C359.596 365.401 373.394 354.304 389.663 348.75C380.544 355.131 374.979 365.451 371.092 375.881C367.206 386.311 364.663 397.262 359.868 407.31C355.072 417.359 347.522 426.741 337.043 430.503L340.895 429.156Z" fill="#9881AE"/>
<path d="M338.369 429.295C337.995 409.805 334.238 390.528 327.265 372.324C324.795 365.877 321.828 359.444 317.005 354.5C312.182 349.555 305.173 346.304 298.376 347.512C306.839 353.847 311.214 364.271 313.695 374.552C316.176 384.833 317.116 395.506 320.593 405.492C324.07 415.478 330.721 425.103 340.676 428.674L338.369 429.295Z" fill="#9881AE"/>
<path d="M337.047 430.589C332.189 417.553 326.946 404.191 317.213 394.26C307.48 384.33 292.057 378.646 279.313 384.198C289.725 386.601 299.01 392.474 305.641 400.853C310.444 406.953 313.671 414.184 318.608 420.173C323.546 426.162 331.079 430.988 338.709 429.541L337.047 430.589Z" fill="#DFD2EB"/>
<path d="M335.499 429.68C333.518 415.374 331.533 400.839 333.622 386.55C335.711 372.262 342.47 357.994 354.576 350.117C347.876 356.689 345.638 366.641 345.634 376.026C345.631 385.412 347.532 394.711 347.692 404.097C347.852 413.483 345.988 423.448 339.642 430.364L335.499 429.68Z" fill="#DFD2EB"/>
<path d="M342.185 427.595C346.825 415.773 351.769 403.5 361.217 395.013C367.336 389.543 374.947 386.021 383.077 384.899C377.411 389.409 373.865 396.044 370.933 402.668C368.001 409.291 365.45 416.2 361.19 422.053C356.929 427.907 350.53 432.74 343.289 433.053L342.185 427.595Z" fill="#DFD2EB"/>
<path d="M365.759 463.566H313.646L305.614 423.479H373.792L365.759 463.566Z" fill="white"/>
<path d="M366.127 464H313.292L305.086 423.056H374.323L366.127 464ZM314.018 463.132H365.419L373.278 423.924H306.145L314.018 463.132Z" fill="#9881AE"/>
<path d="M459.052 439.461V463.566H427.789L442.102 451.89L442.855 437.203L459.052 439.461Z" fill="#DFD2EB"/>
<path d="M442.399 451.622L441.801 452.25L447.769 457.928L448.367 457.299L442.399 451.622Z" fill="#1B1B43"/>
<path d="M456.019 445.856H445.322V446.724H456.019V445.856Z" fill="#1B1B43"/>
<path d="M495.586 440.593L496.717 463.566H465.454L478.636 452.269V438.33L495.586 440.593Z" fill="#DFD2EB"/>
<path d="M478.927 451.993L478.353 452.643L483.208 456.932L483.782 456.282L478.927 451.993Z" fill="#1B1B43"/>
<path d="M492.744 446.29H482.189V447.157H492.744V446.29Z" fill="#1B1B43"/>
<path d="M462.199 300.902C462.736 348.936 466.784 396.189 474.344 442.661H500.683C495.204 407.13 492.727 363.983 495.79 306.776L476.769 291.197L462.199 300.902Z" fill="#493260"/>
<path d="M441.377 307.255L429.458 360.267C426.593 373.005 426.393 386.198 428.872 399.017L437.258 442.317H463.601L455.62 385.471L474.684 298.82L441.377 307.255Z" fill="#493260"/>
<path d="M463.976 358.07C463.91 356.977 462.411 332.598 462.241 329.51L455.357 327.005L455.652 326.193L463.094 328.896V329.201C463.094 329.736 464.229 348.285 464.829 358.001L463.976 358.07Z" fill="#BE443D"/>
<path d="M521.009 187.571L522.418 184.212C522.418 184.212 517.324 173.476 518.948 172.068C520.572 170.659 523.178 174.67 523.178 174.67C523.178 174.67 522.418 161.658 524.912 161.547C527.015 161.457 526.866 165.236 527.081 170.874C527.081 170.874 528.382 169.139 530.776 170.933C531.852 169.139 534.128 170.333 534.781 171.415C535.541 170.548 538.684 170.767 538.25 174.451C537.699 179.129 535.54 187.789 535.54 187.789L528.601 193.535L521.009 187.571Z" fill="#FFBC96"/>
<path d="M465.277 232.463L475.829 232.38C494.337 230.728 508.792 215.694 508.792 215.694L521.005 187.588L535.537 187.807L527.008 220.857C525.782 225.603 523.143 229.864 519.441 233.077L489.128 259.372L465.277 232.463Z" fill="#FFC857"/>
<path d="M436.353 256.391L441.377 307.255L495.78 306.776L493.899 245.475L465.273 232.463L445.468 240.85L436.353 256.391Z" fill="#FFC857"/>
<path d="M402.661 261.332C401.775 260.542 400.655 260.062 399.472 259.965C393.459 259.462 374.656 258.011 374.836 259.469C375.052 261.204 389.364 267.71 389.364 267.71L398.549 278.043L406.96 265.149L402.661 261.332Z" fill="#FFBC96"/>
<path d="M443.67 237.359C441.759 237.692 439.951 238.466 438.39 239.62C436.83 240.773 435.56 242.274 434.68 244.004L418.646 275.517L406.963 265.149L398.552 278.043L401.62 281.512C406.162 286.624 411.46 293.494 418.552 294.982C422.165 295.739 425.53 294.24 428.119 291.752C430.038 289.866 431.703 287.737 433.07 285.419L439.465 274.882L459.85 234.545L443.67 237.359Z" fill="#FFC857"/>
<path d="M436.796 256.328L435.933 256.412L438.98 287.711L439.843 287.626L436.796 256.328Z" fill="#DFD2EB"/>
<path d="M494.225 254.802L489.128 259.354L494.552 268.355L494.225 254.802Z" fill="#1B1B43"/>
<path d="M528.962 177.345C526.915 177.345 526.758 174.663 526.755 170.874H527.407C527.407 175.333 527.754 176.693 528.962 176.693C529.081 176.693 529.198 176.666 529.306 176.616C529.414 176.566 529.51 176.492 529.586 176.401C530.166 175.78 530.391 174.32 530.461 173.025C530.416 172.082 530.436 171.259 530.461 170.919H531.113C531.147 171.598 531.147 172.277 531.113 172.956C531.203 174.722 531.498 176.467 532.088 176.644C532.233 176.697 532.389 176.712 532.541 176.69C532.694 176.667 532.839 176.608 532.962 176.516C533.656 176.009 534.059 174.58 534.264 173.303C534.288 172.658 534.352 172.015 534.454 171.377L535.103 171.436C535.078 172.017 535.022 172.596 534.937 173.171C534.892 174.524 535.044 175.836 535.593 176.065C535.749 176.15 535.924 176.195 536.103 176.195C536.281 176.195 536.456 176.15 536.613 176.065C537.359 175.61 537.629 174.077 537.671 173.525L538.32 173.574C538.32 173.667 538.132 175.898 536.953 176.62C536.709 176.761 536.434 176.84 536.152 176.848C535.871 176.856 535.591 176.795 535.339 176.669C535.187 176.603 534.708 176.322 534.441 175.312C534.254 175.986 533.871 176.59 533.341 177.047C533.136 177.197 532.899 177.296 532.648 177.336C532.398 177.375 532.141 177.353 531.901 177.272C531.328 177.099 530.974 176.37 530.759 175.458C530.637 175.967 530.4 176.442 530.065 176.846C529.928 177.003 529.758 177.129 529.568 177.215C529.377 177.301 529.171 177.345 528.962 177.345Z" fill="#D28572"/>
<path d="M460.686 244.805C458.472 244.981 456.278 244.27 454.587 242.83C452.895 241.39 451.845 239.337 451.665 237.123L451.571 235.95L450.253 219.59L460.443 218.775L466.984 218.244L468.389 235.766C468.479 236.866 468.35 237.972 468.011 239.022C467.672 240.072 467.129 241.044 466.413 241.884C465.698 242.724 464.824 243.414 463.841 243.915C462.858 244.417 461.786 244.719 460.686 244.805Z" fill="#FFBC96"/>
<path d="M463.688 224.292C460.513 229.885 455.967 233.914 451.543 235.95L450.225 219.59L460.416 218.775L463.688 224.292Z" fill="#1B1B43"/>
<path d="M467.012 207.158L464.989 224.223C464.989 224.223 458.483 230.444 448.941 230.146C445.471 230.041 443.417 226.745 442.22 222.557C441.724 220.735 441.361 218.88 441.134 217.005C440.654 212.874 440.509 208.711 440.7 204.556L455.447 199.649L467.012 207.158Z" fill="#FFBC96"/>
<path d="M464.77 214.174C463.233 208.702 460.475 205.947 456.745 205.357C444.892 211.79 437.192 207.96 431.589 200.801C445.326 203.477 451.325 183.959 464.482 196.985C474.239 199.948 474.059 209.271 468.528 216.863L464.77 214.174Z" fill="#1B1B43"/>
<path d="M470.855 216.236C471.358 213.661 469.956 211.221 467.724 210.785C465.491 210.349 463.274 212.082 462.771 214.657C462.268 217.232 463.67 219.673 465.903 220.109C468.135 220.545 470.353 218.811 470.855 216.236Z" fill="#FFBC96"/>
<path d="M468.369 213.726C467.675 213.841 467.248 214.358 466.918 214.941C466.594 215.557 466.37 216.221 466.255 216.908H466.002C465.9 216.524 465.885 216.122 465.957 215.732C466.022 215.336 466.157 214.956 466.356 214.608C466.554 214.244 466.836 213.932 467.178 213.699C467.351 213.575 467.548 213.49 467.756 213.448C467.964 213.406 468.179 213.409 468.386 213.456L468.369 213.726Z" fill="#1B1B43"/>
<path d="M444.239 214.861C444.239 215.6 443.892 216.197 443.445 216.197C442.997 216.197 442.65 215.6 442.65 214.861C442.65 214.122 442.997 213.525 443.445 213.525C443.892 213.525 444.239 214.122 444.239 214.861Z" fill="#1B1B43"/>
<path d="M450.811 214.316C450.811 215.118 450.426 215.766 449.951 215.766C449.475 215.766 449.09 215.118 449.09 214.316C449.09 213.515 449.475 212.866 449.951 212.866C450.426 212.866 450.811 213.515 450.811 214.316Z" fill="#1B1B43"/>
<path d="M446.047 215.947C446.038 216.204 445.96 216.455 445.822 216.672C445.695 216.876 445.547 217.067 445.381 217.241C445.084 217.503 444.858 217.834 444.722 218.206C444.69 218.379 444.7 218.558 444.751 218.726C444.802 218.895 444.891 219.05 445.013 219.177C445.301 219.505 445.61 219.814 445.936 220.104L445.797 220.315C445.351 220.142 444.942 219.887 444.59 219.562C444.397 219.377 444.245 219.154 444.142 218.907C444.039 218.635 444.02 218.339 444.09 218.057C444.162 217.791 444.293 217.545 444.475 217.338C444.634 217.161 444.807 216.996 444.992 216.846C445.336 216.608 445.613 216.285 445.794 215.909L446.047 215.947Z" fill="#1B1B43"/>
<path d="M446.672 223.175C447.562 222.999 448.415 222.671 449.194 222.207C449.576 221.97 449.938 221.703 450.277 221.408C450.624 221.11 450.95 220.791 451.294 220.461L451.498 220.61C451.063 221.502 450.38 222.249 449.531 222.762C448.678 223.282 447.681 223.516 446.686 223.428L446.672 223.175Z" fill="#1B1B43"/>
<path d="M448.906 210.725C448.719 211.703 451.797 212.019 452.348 212.113C452.806 212.193 453.455 212.245 453.549 211.554C453.67 210.697 452.737 210.607 452.21 210.493C451.682 210.378 449.083 209.802 448.906 210.725Z" fill="#1B1B43"/>
<path d="M444.628 211.329C444.628 212.272 442.165 212.37 441.717 212.425C441.349 212.47 440.836 212.474 440.874 211.811C440.922 210.985 441.661 210.961 442.092 210.888C442.522 210.815 444.642 210.433 444.628 211.329Z" fill="#1B1B43"/>
<path opacity="0.2" d="M456.113 220.371C457.849 220.371 459.257 218.964 459.257 217.227C459.257 215.491 457.849 214.084 456.113 214.084C454.377 214.084 452.969 215.491 452.969 217.227C452.969 218.964 454.377 220.371 456.113 220.371Z" fill="#FE5B52"/>
<path opacity="0.2" d="M443.504 220.052C443.505 220.54 443.391 221.021 443.171 221.456C442.951 221.892 442.631 222.269 442.237 222.557C441.741 220.735 441.379 218.88 441.151 217.005C441.825 217.182 442.421 217.576 442.847 218.128C443.273 218.679 443.504 219.355 443.504 220.052Z" fill="#FE5B52"/>
<path d="M219.358 321.374H159.011V325.437H219.358V321.374Z" fill="#9881AE"/>
<path d="M219.354 321.377H168.39L187.692 274.319H238.653L219.354 321.377Z" fill="white"/>
<path d="M219.646 321.811H167.744L187.401 273.886H239.302L219.646 321.811ZM169.042 320.943H219.063L238.008 274.753H187.984L169.042 320.943Z" fill="#9881AE"/>
<path d="M214.955 317.421H174.903L190.069 280.44H230.121L214.955 317.421Z" fill="#F0EBF4"/>
<path d="M199.063 326.738H198.195V463.789H199.063V326.738Z" fill="#1B1B43"/>
<path d="M247.304 325.44H149.958V333.181H247.304V325.44Z" fill="#DFD2EB"/>
<path d="M71.4017 384.305H70.5342V463.788H71.4017V384.305Z" fill="#1B1B43"/>
<path d="M94.7882 387.99H47.1616C47.6518 385.645 48.9346 383.54 50.7943 382.029C52.654 380.518 54.9772 379.694 57.3732 379.694H84.5626C86.9609 379.691 89.287 380.514 91.1495 382.025C93.0119 383.536 94.2969 385.643 94.7882 387.99Z" fill="#DFD2EB"/>
<path d="M64.0492 458.112H77.8833C78.5992 458.111 79.3082 458.252 79.9696 458.526C80.631 458.8 81.2318 459.202 81.7376 459.709C82.2433 460.216 82.6441 460.817 82.9169 461.479C83.1898 462.141 83.3293 462.85 83.3274 463.566H58.6085C58.6085 462.123 59.1817 460.74 60.2021 459.719C61.2224 458.699 62.6062 458.126 64.0492 458.126V458.112Z" fill="#DFD2EB"/>
<path d="M107.699 266.377C108.917 268.112 110.663 270.603 110.857 272.772C111.138 275.923 106.096 273.712 106.037 273.987L107.699 266.377Z" fill="#D28572"/>
<path d="M99.9999 270.083H84.0665V293.435H99.9999V270.083Z" fill="#FFBC96"/>
<path d="M99.9929 274.101V290.756C94.9721 287.602 90.6244 282.918 86.8805 277.512L99.9929 274.101Z" fill="#1B1B43"/>
<path d="M108.959 267.793C108.463 275.86 105.361 284.986 96.8909 282.734C90.2358 280.968 82.9145 275.364 82.9145 267.283C82.9145 259.201 88.5078 252.647 95.4058 252.647C99.7188 252.647 105.149 254.729 107.706 258.785C109.24 261.21 109.177 264.274 108.959 267.793Z" fill="#FFBC96"/>
<path d="M94.8576 265.454C97.113 259.469 102.276 258.882 102.276 258.882C102.276 258.882 114.219 270.707 113.49 258.487C112.904 248.771 103.428 249.694 103.428 249.694C98.7923 243.66 91.3565 246.02 88.6466 249.521C85.9367 253.022 86.8944 251.006 80.5099 253.282C74.1255 255.558 77.5363 265.263 76.3982 265.964C67.9145 265.964 69.4898 274.361 69.4898 274.361L89.5765 280.912L94.4135 267.706L94.8576 265.454Z" fill="#1B1B43"/>
<path d="M96.1971 271.766C97.8534 270.81 98.1894 268.291 96.9476 266.141C95.7059 263.99 93.3565 263.021 91.7003 263.978C90.044 264.934 89.708 267.453 90.9498 269.603C92.1916 271.754 94.5409 272.723 96.1971 271.766Z" fill="#FFBC96"/>
<path d="M94.3857 268.73C94.1633 268.204 93.8601 267.715 93.487 267.283C93.2954 267.094 93.0767 266.935 92.8382 266.811C92.5918 266.679 92.3177 266.568 92.0367 266.436L92.0818 266.207C92.4063 266.188 92.7314 266.232 93.0394 266.336C93.3666 266.443 93.663 266.627 93.9034 266.873C94.1382 267.118 94.318 267.41 94.4308 267.73C94.5401 268.034 94.601 268.352 94.6112 268.674L94.3857 268.73Z" fill="#1B1B43"/>
<path d="M86.8691 254.273C90.5922 254.097 93.4555 250.683 93.2645 246.648C93.0735 242.613 89.9005 239.484 86.1774 239.661C82.4543 239.837 79.591 243.251 79.782 247.286C79.973 251.321 83.146 254.449 86.8691 254.273Z" fill="#1B1B43"/>
<path opacity="0.2" d="M102.03 275.402C103.706 275.402 105.066 274.043 105.066 272.366C105.066 270.689 103.706 269.33 102.03 269.33C100.353 269.33 98.9936 270.689 98.9936 272.366C98.9936 274.043 100.353 275.402 102.03 275.402Z" fill="#FE5B52"/>
<path d="M113.959 350.87L62.9284 344.364L72.5467 293.643C72.8518 292.035 73.5081 290.514 74.4688 289.188C75.4294 287.863 76.6708 286.766 78.1042 285.976C79.5376 285.186 81.1278 284.722 82.7612 284.618C84.3947 284.513 86.0311 284.77 87.5536 285.371L104.944 293.098C106.589 293.827 108.015 294.974 109.08 296.424C110.145 297.875 110.813 299.579 111.016 301.366L111.998 317.931L113.119 336.713L113.959 350.87Z" fill="#FFA121"/>
<path d="M160.656 314.437L174.164 310.468C174.644 310.325 175.149 310.29 175.644 310.364C176.14 310.439 176.613 310.621 177.03 310.898C180.725 313.351 190.562 320.298 188.084 323.136C186.842 324.555 175.548 321.231 175.548 321.231L159.195 325.801L160.656 314.437Z" fill="#FFBC96"/>
<path d="M113.119 336.714C108.865 331.301 106.343 324.153 105.486 315.305L111.981 317.932L113.119 336.714Z" fill="#1B1B43"/>
<path d="M103.404 292.463L105.437 293.337C109.623 295.142 113.375 297.822 116.44 301.197L133.189 319.642L160.656 314.437L164.271 329.184L129.757 339.972C128.416 340.211 127.036 340.108 125.745 339.671C124.454 339.235 123.295 338.481 122.373 337.477L97.4773 310.388L103.404 292.463Z" fill="#FFA121"/>
<path d="M132.869 319.937C132.786 319.847 124.615 310.95 117.54 303.015C110.541 295.173 99.8784 291.36 99.7709 291.322L100.059 290.503C100.166 290.541 111.037 294.424 118.185 302.439C125.26 310.367 133.425 319.26 133.508 319.347L132.869 319.937Z" fill="#1B1B43"/>
<path d="M99.5196 313.276L98.8966 313.879L122.056 337.787L122.68 337.183L99.5196 313.276Z" fill="#1B1B43"/>
<path d="M112.109 427.588L101.1 449.031L128.91 463.31L121.509 446.384L127.547 432.973L112.109 427.588Z" fill="#DFD2EB"/>
<path d="M121.368 445.983L113.466 448.309L113.711 449.141L121.613 446.815L121.368 445.983Z" fill="#1B1B43"/>
<path d="M129.427 441.693L104.233 432.293L121.506 378.594C124.469 370.645 133.605 366.713 141.912 369.812C150.215 372.907 154.542 381.866 151.575 389.812L129.427 441.693Z" fill="#7E6298"/>
<path d="M153.862 438.049L156.318 463.566H187.581L173.268 451.89L169.909 437.182L153.862 438.049Z" fill="#DFD2EB"/>
<path d="M173.076 451.492L165.668 455.576L166.086 456.336L173.494 452.252L173.076 451.492Z" fill="#1B1B43"/>
<path d="M176.415 441.085L149.091 445.423L130.378 390.398L126.971 380.364L80.4995 380.738C77.7885 380.8 75.0952 380.286 72.5977 379.229C70.1002 378.173 67.8553 376.598 66.0115 374.61C64.1677 372.621 62.7668 370.264 61.9016 367.694C61.0364 365.124 60.7264 362.4 60.9923 359.701L62.9284 344.365L108.903 350.149L139.115 353.473C151.693 355.641 155.551 363.258 158.171 373.042L176.415 441.085Z" fill="#7E6298"/>
<path d="M130.378 390.399L126.971 380.364L133.261 380.145C133.841 383.927 132.342 388.154 130.378 390.399Z" fill="#1B1B43"/>
<path d="M545.082 463.133H18.5392V464H545.082V463.133Z" fill="#1B1B43"/>
</g>
<defs>
<linearGradient id="paint0_linear_264_1668" x1="284.501" y1="240.912" x2="284.501" y2="269.183" gradientUnits="userSpaceOnUse">
<stop stop-color="#4B0082"/>
<stop offset="1" stop-color="#4B0082" stop-opacity="0"/>
</linearGradient>
<linearGradient id="paint1_linear_264_1668" x1="290.658" y1="216" x2="290.658" y2="244.271" gradientUnits="userSpaceOnUse">
<stop stop-color="#4B0082"/>
<stop offset="1" stop-color="#4B0082" stop-opacity="0"/>
</linearGradient>
<linearGradient id="paint2_linear_264_1668" x1="283.751" y1="236.2" x2="293.529" y2="226.106" gradientUnits="userSpaceOnUse">
<stop stop-color="#FFC857"/>
<stop offset="1" stop-color="#FFC857" stop-opacity="0"/>
</linearGradient>
<clipPath id="clip0_264_1668">
<rect width="573.337" height="464" fill="white"/>
</clipPath>
</defs>
</svg>
