<svg width="112" height="112" viewBox="0 0 112 112" fill="none" xmlns="http://www.w3.org/2000/svg">
<g id="vuesax/bold/image">
<g id="image">
<path id="Vector" d="M102.762 78.4946L88.1549 44.3346C85.4949 38.0812 81.5283 34.5346 77.0016 34.3012C72.5216 34.0679 68.1816 37.1946 64.8683 43.1679L56.0016 59.0812C54.1349 62.4412 51.4749 64.4479 48.5816 64.6812C45.6416 64.9612 42.7016 63.4212 40.3216 60.3879L39.295 59.0812C35.9816 54.9279 31.875 52.9212 27.675 53.3412C23.475 53.7612 19.8816 56.6546 17.5016 61.3679L9.42829 77.4679C6.53495 83.3012 6.81495 90.0679 10.2216 95.5746C13.6283 101.081 19.555 104.395 26.0416 104.395H85.5883C91.8416 104.395 97.6749 101.268 101.128 96.0412C104.675 90.8146 105.235 84.2346 102.762 78.4946Z" fill="#E7DFEE"/>
<path id="Vector_2" d="M32.5233 39.1081C41.2347 39.1081 48.2967 32.0461 48.2967 23.3347C48.2967 14.6234 41.2347 7.5614 32.5233 7.5614C23.812 7.5614 16.75 14.6234 16.75 23.3347C16.75 32.0461 23.812 39.1081 32.5233 39.1081Z" fill="#E7DFEE"/>
</g>
</g>
</svg>
