<svg width="126" height="90" viewBox="0 0 126 90" fill="none" xmlns="http://www.w3.org/2000/svg">
<g id="Group 964">
<g id="Object">
<path id="Vector" d="M65.9508 89.9992C90.8034 89.9992 110.95 69.8522 110.95 44.9996C110.95 20.147 90.8034 0 65.9508 0C41.0982 0 20.9512 20.147 20.9512 44.9996C20.9512 69.8522 41.0982 89.9992 65.9508 89.9992Z" fill="#FFC857"/>
<path id="Vector_2" d="M89.4966 6.5918C94.1318 13.8249 96.5891 22.2385 96.5755 30.8294C96.5755 55.6823 76.4287 75.829 51.5759 75.829C43.2638 75.8421 35.1122 73.5411 28.0337 69.1838C32.1007 75.5518 37.7068 80.7923 44.3343 84.421C50.9618 88.0498 58.3969 89.9499 65.9528 89.9458C90.8057 89.9458 110.952 69.7974 110.952 44.9462C110.956 37.2516 108.986 29.6847 105.229 22.9694C101.473 16.2541 96.0556 10.6151 89.4966 6.5918Z" fill="#E8BA5B"/>
<path id="Vector_3" d="M27.1713 48.8783C27.1713 25.8058 45.8764 7.09904 68.9506 7.09904C75.3524 7.0939 81.6695 8.56246 87.4125 11.391C93.1556 14.2195 98.1704 18.3321 102.069 23.4102C98.4074 17.0387 93.1297 11.7462 86.7687 8.06685C80.4076 4.38755 73.1884 2.45181 65.8399 2.45508C42.7673 2.45508 24.0606 21.1602 24.0606 44.2344C24.0471 53.4492 27.0935 62.4078 32.7218 69.7041C29.0738 63.3705 27.1594 56.1874 27.1713 48.8783Z" fill="#FED684"/>
<path id="Vector_4" d="M93.8226 58.6185C92.6264 54.7305 89.7219 52.2188 86.4213 52.2188C85.1484 52.2277 83.9048 52.6014 82.8377 53.2955C82.0196 53.8191 81.3977 54.5587 80.7956 55.2738C80.5027 55.6224 80.2245 55.9513 79.9316 56.2556C79.3049 56.8717 78.5548 57.348 77.7307 57.6531C76.042 58.2896 73.486 57.7856 72.1262 55.8384C70.5177 53.5376 68.2546 52.2188 65.9162 52.2188C64.1964 52.2188 62.5224 52.9764 61.0759 54.4115C60.7463 54.7515 60.4381 55.1117 60.153 55.4898C59.921 55.7981 59.6719 56.0931 59.4068 56.3734C58.9356 56.8496 58.3187 57.1605 57.6183 57.4878C56.8174 57.8816 55.9164 58.0247 55.0329 57.8985C53.849 57.6806 52.7624 57.0996 51.9238 56.236C51.6522 55.9578 51.3871 55.6485 51.1056 55.3196C50.4511 54.5702 49.7966 53.7929 48.9571 53.2693C47.9003 52.5917 46.6731 52.2275 45.4177 52.2188C42.1859 52.2188 39.3043 54.6585 38.0737 58.4369C37.9604 58.7675 37.9646 59.1272 38.0856 59.4551C38.2067 59.783 38.4371 60.0591 38.7381 60.2369C38.9957 60.3783 39.2959 60.4213 39.5828 60.3578C39.8697 60.2943 40.1238 60.1286 40.2975 59.8916C41.8455 57.9427 44.413 56.1754 46.9837 57.0673C48.2486 57.5058 49.2909 58.6709 50.1696 59.728C51.4182 61.2318 53.048 62.1923 54.7612 62.4296C55.0513 62.4702 55.3438 62.4904 55.6367 62.4901C57.7296 62.4901 59.7767 61.4167 61.2526 59.5447L61.5226 59.1978C62.0315 58.5432 62.4325 58.0229 63.0379 57.6465C63.7338 57.2059 64.5141 56.9155 65.3288 56.794C66.2067 56.6958 67.0939 56.8622 67.8766 57.2718C68.3286 57.4965 68.7559 57.768 69.1513 58.0818C69.6135 58.4797 70.0355 58.922 70.4113 59.4023C70.8521 59.9598 71.3452 60.4738 71.884 60.9372C73.0799 61.9328 74.5826 62.4853 76.1385 62.5016C77.8141 62.5016 79.4227 61.8192 80.7923 60.538C81.0001 60.3432 81.3585 59.9669 81.7741 59.53C82.3157 58.9605 83.3254 57.8936 83.5741 57.73C85.4543 56.4602 87.5177 56.5142 89.3864 57.8789C90.2144 58.5016 90.9547 59.2331 91.5873 60.0536C91.7609 60.2901 92.0138 60.4563 92.2998 60.5218C92.5858 60.5873 92.8859 60.5477 93.1451 60.4103C93.4487 60.237 93.6824 59.9632 93.806 59.6362C93.9297 59.3092 93.9355 58.9494 93.8226 58.6185Z" fill="#4B0082"/>
<path id="Vector_5" d="M39.7081 27.9911L36.7969 30.9023L49.9135 44.0189L52.8247 41.1077L39.7081 27.9911Z" fill="#4B0082"/>
<path id="Vector_6" d="M52.8233 30.9014L49.9121 27.9902L36.7955 41.1068L39.7067 44.018L52.8233 30.9014Z" fill="#4B0082"/>
<path id="Vector_7" d="M81.9884 27.9911L79.0771 30.9023L92.1937 44.0189L95.1049 41.1077L81.9884 27.9911Z" fill="#4B0082"/>
<path id="Vector_8" d="M95.109 30.9014L92.1978 27.9902L79.0812 41.1068L81.9924 44.018L95.109 30.9014Z" fill="#4B0082"/>
</g>
<g id="Dot">
<path id="Dot_2" d="M118.947 16.2199C122.842 16.2199 125.999 12.9921 125.999 9.01035C125.999 5.02862 122.842 1.80078 118.947 1.80078C115.052 1.80078 111.895 5.02862 111.895 9.01035C111.895 12.9921 115.052 16.2199 118.947 16.2199Z" fill="#FFC857"/>
<path id="Dot_3" d="M118.947 86.3938C122.842 86.3938 125.999 83.1659 125.999 79.1842C125.999 75.2024 122.842 71.9746 118.947 71.9746C115.052 71.9746 111.895 75.2024 111.895 79.1842C111.895 83.1659 115.052 86.3938 118.947 86.3938Z" fill="#4B0082"/>
<path id="Dot_4" d="M7.05313 29.6789C10.9479 29.6789 14.1053 26.4511 14.1053 22.4693C14.1053 18.4876 10.9479 15.2598 7.05313 15.2598C3.15834 15.2598 0.000976562 18.4876 0.000976562 22.4693C0.000976562 26.4511 3.15834 29.6789 7.05313 29.6789Z" fill="#7E6298"/>
<path id="Dot_5" d="M11.2869 56.5932C13.8834 56.5932 15.9883 54.4413 15.9883 51.7869C15.9883 49.1324 13.8834 46.9805 11.2869 46.9805C8.69036 46.9805 6.58545 49.1324 6.58545 51.7869C6.58545 54.4413 8.69036 56.5932 11.2869 56.5932Z" fill="#DFD2EB"/>
</g>
</g>
</svg>
