<svg width="169" height="130" viewBox="0 0 169 130" fill="none" xmlns="http://www.w3.org/2000/svg">
<g clipPath="url(#clip0_410_4269)">
<path d="M142.163 70.0632C142.163 101.945 116.879 127.791 85.6941 127.791C78.0438 127.791 70.751 126.236 64.0991 123.417C45.9183 115.718 32.5268 98.5887 29.7582 77.9975C29.4063 75.4041 29.2271 72.7551 29.2271 70.0632C29.2271 38.179 54.508 12.3337 85.6941 12.3337C116.879 12.3337 142.163 38.179 142.163 70.0632Z" fill="#FFC857"/>
<path d="M85.6937 12.3337C82.7077 12.3337 79.7771 12.5726 76.917 13.0289C103.936 17.3392 124.61 41.2306 124.61 70.0632C124.61 98.8919 103.937 122.782 76.9208 127.095C79.7799 127.551 82.7087 127.791 85.6927 127.791C116.879 127.791 142.163 101.945 142.163 70.0632C142.163 38.179 116.879 12.3337 85.6937 12.3337Z" fill="#4B0082"/>
<path d="M149.212 65.7952L116.967 87.6236C114.67 89.1797 111.887 89.7968 109.167 89.3522C106.441 88.9086 103.651 89.517 101.348 91.076L97.0328 93.9999L72.8667 57.5821L78.7957 31.3966C79.2563 29.3579 79.4842 27.292 79.4842 25.2338C79.4842 19.9096 77.9612 14.6545 75.0401 10.1434C74.322 9.03387 73.9787 7.77909 73.9787 6.53991C73.9787 4.4223 74.9839 2.34465 76.8416 1.08695C79.345 -0.608509 82.6628 -0.293596 84.8181 1.84352L88.6595 5.64685C93.0522 10.004 96.4406 15.3087 98.5682 21.176L100.651 26.9088L122.1 12.4209C125.526 10.1024 130.16 11.1164 132.347 14.7033C134.457 18.1585 133.374 22.7243 130.05 24.9735C130.01 25.0008 130.007 25.0447 130.02 25.0778C130.039 25.1139 130.08 25.1383 130.124 25.1188C130.972 24.7854 131.859 24.6235 132.738 24.6235C134.142 24.6235 135.534 25.0369 136.724 25.8237C137.544 26.3658 138.271 27.0863 138.844 27.9715C139.951 29.6816 140.281 31.6871 139.919 33.5512C139.35 36.4878 137.263 38.001 136.853 38.2857C136.783 38.3354 136.764 38.4338 136.812 38.5079C136.812 38.5099 136.815 38.5128 136.817 38.5128C136.863 38.5791 136.956 38.5976 137.023 38.5547C137.608 38.4095 138.203 38.3403 138.798 38.3403C140.25 38.3403 141.695 38.7624 142.924 39.5629C143.754 40.1059 144.489 40.8235 145.057 41.7029C147.287 45.1445 146.365 49.7834 142.995 52.0638C142.912 52.1213 142.829 52.1789 142.746 52.2335C142.699 52.2725 142.684 52.3349 142.709 52.3787C142.714 52.3895 142.725 52.4012 142.736 52.406C142.773 52.4363 142.832 52.4392 142.881 52.4012C144.974 51.6719 147.252 52.0034 149.085 53.2172C149.929 53.771 150.678 54.5168 151.27 55.4313C153.501 58.8759 152.579 63.5148 149.212 65.7952Z" fill="#FDD7BD"/>
<path d="M97.3409 100.912L83.7377 110.121L64.0987 123.417C45.9178 115.717 32.5263 98.5903 29.7578 77.9972L52.5487 62.5674L66.4228 53.1737C68.0202 52.0915 70.1755 52.5409 71.2341 54.1769L98.3222 95.9901C99.3808 97.6261 98.9411 99.8256 97.3409 100.912Z" fill="url(#paint0_linear_410_4269)"/>
<path d="M136.724 25.8227L125.994 31.693C124.472 32.5237 122.585 32.0898 121.562 30.6732L130.021 25.0779C130.04 25.1139 130.08 25.1383 130.125 25.1188C130.972 24.7854 131.859 24.6235 132.739 24.6235C134.143 24.6235 135.534 25.0369 136.724 25.8227Z" fill="#FAC5AA"/>
<path d="M142.924 39.5631L132.428 45.3007C130.906 46.1343 129.018 45.7014 127.994 44.2848L136.453 38.6885L136.818 38.513C136.864 38.5793 136.958 38.5978 137.024 38.5549C137.609 38.4097 138.204 38.3405 138.799 38.3405C140.252 38.3405 141.697 38.7626 142.924 39.5631Z" fill="#FAC5AA"/>
<path d="M149.087 53.217L139.842 58.2731C138.322 59.1028 136.435 58.6699 135.408 57.2533L142.736 52.4058C142.774 52.4361 142.834 52.439 142.881 52.4C144.975 51.6717 147.253 52.0032 149.087 53.217Z" fill="#FAC5AA"/>
</g>
<path d="M158.875 35.7813C164.053 35.7813 168.25 31.4903 168.25 26.1971C168.25 20.9038 164.053 16.6128 158.875 16.6128C153.697 16.6128 149.5 20.9038 149.5 26.1971C149.5 31.4903 153.697 35.7813 158.875 35.7813Z" fill="#FFC857"/>
<path d="M158.875 129.068C164.053 129.068 168.25 124.777 168.25 119.484C168.25 114.191 164.053 109.9 158.875 109.9C153.697 109.9 149.5 114.191 149.5 119.484C149.5 124.777 153.697 129.068 158.875 129.068Z" fill="#4B0082"/>
<path d="M10.125 53.6722C15.3027 53.6722 19.5 49.3812 19.5 44.0879C19.5 38.7947 15.3027 34.5037 10.125 34.5037C4.94733 34.5037 0.75 38.7947 0.75 44.0879C0.75 49.3812 4.94733 53.6722 10.125 53.6722Z" fill="#7E6298"/>
<path d="M15.75 89.4527C19.2018 89.4527 22 86.592 22 83.0632C22 79.5344 19.2018 76.6737 15.75 76.6737C12.2982 76.6737 9.5 79.5344 9.5 83.0632C9.5 86.592 12.2982 89.4527 15.75 89.4527Z" fill="#DFD2EB"/>
<defs>
<linearGradient id="paint0_linear_410_4269" x1="64.3284" y1="52.584" x2="64.3284" y2="123.417" gradientUnits="userSpaceOnUse">
<stop stop-color="#64497D"/>
<stop offset="1" stop-color="#FFC857"/>
</linearGradient>
<clipPath id="clip0_410_4269">
<rect width="125" height="127.79" fill="white" transform="translate(28.25)"/>
</clipPath>
</defs>
</svg>
