<svg width="32" height="32" viewBox="0 0 32 32" fill="none" xmlns="http://www.w3.org/2000/svg">
<rect width="32" height="32" rx="16" fill="#62DDC0"/>
<path d="M21.3337 13.4999V19.9999C21.3337 21.9999 20.1403 22.6666 18.667 22.6666H13.3337C11.8603 22.6666 10.667 21.9999 10.667 19.9999V13.4999C10.667 11.3333 11.8603 10.8333 13.3337 10.8333C13.3337 11.2466 13.5003 11.6199 13.7736 11.8932C14.047 12.1666 14.4203 12.3333 14.8337 12.3333H17.167C17.9937 12.3333 18.667 11.6599 18.667 10.8333C20.1403 10.8333 21.3337 11.3333 21.3337 13.4999Z" stroke="#F4F4F4" stroke-width="1.5" stroke-linecap="round" stroke-linejoin="round"/>
<path d="M18.6663 10.8333C18.6663 11.6599 17.993 12.3333 17.1663 12.3333H14.833C14.4197 12.3333 14.0463 12.1666 13.773 11.8932C13.4997 11.6199 13.333 11.2466 13.333 10.8333C13.333 10.0066 14.0063 9.33325 14.833 9.33325H17.1663C17.5797 9.33325 17.953 9.49992 18.2264 9.77325C18.4997 10.0466 18.6663 10.4199 18.6663 10.8333Z" stroke="#F4F4F4" stroke-width="1.5" stroke-linecap="round" stroke-linejoin="round"/>
<path d="M13.333 16.6667H15.9997" stroke="#F4F4F4" stroke-width="1.5" stroke-linecap="round" stroke-linejoin="round"/>
<path d="M13.333 19.3333H18.6663" stroke="#F4F4F4" stroke-width="1.5" stroke-linecap="round" stroke-linejoin="round"/>
</svg>
