<svg width="32" height="32" viewBox="0 0 32 32" fill="none" xmlns="http://www.w3.org/2000/svg">
<rect width="32" height="32" rx="16" fill="#45C7A8"/>
<path d="M21.3337 13.5V20C21.3337 22 20.1403 22.6667 18.667 22.6667H13.3337C11.8603 22.6667 10.667 22 10.667 20V13.5C10.667 11.3334 11.8603 10.8334 13.3337 10.8334C13.3337 11.2467 13.5003 11.62 13.7736 11.8934C14.047 12.1667 14.4203 12.3334 14.8337 12.3334H17.167C17.9937 12.3334 18.667 11.66 18.667 10.8334C20.1403 10.8334 21.3337 11.3334 21.3337 13.5Z" stroke="#F4F4F4" stroke-width="1.5" stroke-linecap="round" stroke-linejoin="round"/>
<path d="M18.6663 10.8334C18.6663 11.66 17.993 12.3334 17.1663 12.3334H14.833C14.4197 12.3334 14.0463 12.1667 13.773 11.8934C13.4997 11.62 13.333 11.2467 13.333 10.8334C13.333 10.0067 14.0063 9.33337 14.833 9.33337H17.1663C17.5797 9.33337 17.953 9.50004 18.2264 9.77338C18.4997 10.0467 18.6663 10.42 18.6663 10.8334Z" stroke="#F4F4F4" stroke-width="1.5" stroke-linecap="round" stroke-linejoin="round"/>
<path d="M13.333 16.6666H15.9997" stroke="#F4F4F4" stroke-width="1.5" stroke-linecap="round" stroke-linejoin="round"/>
<path d="M13.333 19.3334H18.6663" stroke="#F4F4F4" stroke-width="1.5" stroke-linecap="round" stroke-linejoin="round"/>
</svg>
