<svg width="25" height="24" viewBox="0 0 25 24" fill="none" xmlns="http://www.w3.org/2000/svg">
<g id="vuesax/linear/map">
<g id="map">
<path id="Vector" d="M22.5 9.00026V15.0003C22.5 17.5003 22 19.2503 20.88 20.3803L14.5 14.0003L22.23 6.27026C22.41 7.06026 22.5 7.96026 22.5 9.00026Z" stroke="#7E6298" stroke-width="1.5" stroke-linecap="round" stroke-linejoin="round"/>
<path id="Vector_2" d="M22.23 6.27025L6.76999 21.7302C3.75999 21.0402 2.5 18.9602 2.5 15.0002V9.00024C2.5 4.00024 4.5 2.00024 9.5 2.00024H15.5C19.46 2.00024 21.54 3.26025 22.23 6.27025Z" stroke="#7E6298" stroke-width="1.5" stroke-linecap="round" stroke-linejoin="round"/>
<path id="Vector_3" d="M20.8795 20.3802C19.7495 21.5002 17.9995 22.0002 15.4995 22.0002H9.49954C8.45954 22.0002 7.55953 21.9102 6.76953 21.7302L14.4995 14.0002L20.8795 20.3802Z" stroke="#7E6298" stroke-width="1.5" stroke-linecap="round" stroke-linejoin="round"/>
<path id="Vector_4" d="M6.74124 7.98025C7.42124 5.05025 11.8212 5.05025 12.5012 7.98025C12.8912 9.70025 11.8112 11.1602 10.8612 12.0602C10.1712 12.7202 9.08125 12.7202 8.38125 12.0602C7.43125 11.1602 6.34124 9.70025 6.74124 7.98025Z" stroke="#7E6298" stroke-width="1.5"/>
<path id="Vector_5" d="M9.59607 8.70026H9.60505" stroke="#7E6298" stroke-width="2" stroke-linecap="round" stroke-linejoin="round"/>
</g>
</g>
</svg>
