<svg width="25" height="24" viewBox="0 0 25 24" fill="none" xmlns="http://www.w3.org/2000/svg">
<path d="M19.5 9.00024C19.5 10.4502 19.07 11.7803 18.33 12.8903C17.25 14.4903 15.54 15.6202 13.55 15.9102C13.21 15.9702 12.86 16.0002 12.5 16.0002C12.14 16.0002 11.79 15.9702 11.45 15.9102C9.46 15.6202 7.75 14.4903 6.67 12.8903C5.93 11.7803 5.5 10.4502 5.5 9.00024C5.5 5.13024 8.63 2.00024 12.5 2.00024C16.37 2.00024 19.5 5.13024 19.5 9.00024Z" stroke="#4B0082" stroke-width="1.5" stroke-linecap="round" stroke-linejoin="round"/>
<path d="M21.7511 18.4703L20.1011 18.8603C19.7311 18.9503 19.4411 19.2303 19.3611 19.6003L19.0111 21.0703C18.8211 21.8703 17.8011 22.1103 17.2711 21.4803L12.5011 16.0003L7.73106 21.4903C7.20106 22.1203 6.18106 21.8803 5.99106 21.0803L5.64106 19.6103C5.55106 19.2403 5.26106 18.9503 4.90106 18.8703L3.25106 18.4803C2.49106 18.3003 2.22106 17.3503 2.77106 16.8003L6.67106 12.9003C7.75106 14.5003 9.46106 15.6303 11.4511 15.9203C11.7911 15.9803 12.1411 16.0103 12.5011 16.0103C12.8611 16.0103 13.2111 15.9803 13.5511 15.9203C15.5411 15.6303 17.2511 14.5003 18.3311 12.9003L22.2311 16.8003C22.7811 17.3403 22.5111 18.2903 21.7511 18.4703Z" stroke="#4B0082" stroke-width="1.5" stroke-linecap="round" stroke-linejoin="round"/>
<path d="M13.0819 5.98024L13.6719 7.16024C13.7519 7.32024 13.9619 7.48024 14.1519 7.51024L15.2219 7.69024C15.9019 7.80024 16.0619 8.30024 15.5719 8.79024L14.7419 9.62023C14.6019 9.76023 14.5219 10.0302 14.5719 10.2302L14.8119 11.2602C15.0019 12.0702 14.5719 12.3902 13.8519 11.9602L12.8519 11.3702C12.6719 11.2602 12.3719 11.2602 12.1919 11.3702L11.1919 11.9602C10.4719 12.3802 10.0419 12.0702 10.2319 11.2602L10.4719 10.2302C10.5119 10.0402 10.4419 9.76023 10.3019 9.62023L9.47193 8.79024C8.98193 8.30024 9.14193 7.81024 9.82193 7.69024L10.8919 7.51024C11.0719 7.48024 11.2819 7.32024 11.3619 7.16024L11.9519 5.98024C12.2419 5.34024 12.7619 5.34024 13.0819 5.98024Z" stroke="#4B0082" stroke-width="1.5" stroke-linecap="round" stroke-linejoin="round"/>
</svg>
