<svg width="574" height="464" viewBox="0 0 574 464" fill="none" xmlns="http://www.w3.org/2000/svg">
<g clip-path="url(#clip0_4893_35462)">
<path opacity="0.4" d="M564.955 328.248C576.134 317.069 576.134 298.944 564.955 287.765C553.776 276.586 535.651 276.586 524.472 287.765C513.293 298.944 513.293 317.069 524.472 328.248C535.651 339.428 553.776 339.428 564.955 328.248Z" fill="#F0EBF4"/>
<path opacity="0.4" d="M104.554 139.085C121.607 122.031 121.607 94.3827 104.554 77.3294C87.5005 60.2762 59.8517 60.2762 42.7985 77.3294C25.7453 94.3827 25.7453 122.031 42.7985 139.085C59.8517 156.138 87.5005 156.138 104.554 139.085Z" fill="#F0EBF4"/>
<path opacity="0.4" d="M224.722 66.2252C237.295 66.2252 247.488 56.0327 247.488 43.4597C247.488 30.8868 237.295 20.6943 224.722 20.6943C212.149 20.6943 201.957 30.8868 201.957 43.4597C201.957 56.0327 212.149 66.2252 224.722 66.2252Z" fill="#F0EBF4"/>
<path d="M192.134 54.7115C190.718 54.7052 189.305 54.5892 187.908 54.3645L188.043 53.5075C189.396 53.7194 190.764 53.8262 192.134 53.8267H192.29V54.6941L192.134 54.7115ZM196.686 54.3298L196.54 53.4728C197.943 53.236 199.325 52.8879 200.673 52.4318L200.951 53.2542C199.56 53.7239 198.134 54.0835 196.686 54.3298ZM183.615 53.3548C182.219 52.8965 180.862 52.328 179.556 51.6546L179.951 50.8843C181.217 51.5357 182.533 52.0857 183.886 52.529L183.615 53.3548ZM204.979 51.4984L204.573 50.7351C205.83 50.0667 207.031 49.2986 208.164 48.4381L208.688 49.132C207.521 50.0171 206.285 50.8084 204.993 51.4984H204.979ZM175.833 49.3298C174.651 48.4578 173.541 47.4912 172.516 46.4395L173.137 45.8323C174.129 46.8512 175.202 47.7876 176.346 48.6324L175.833 49.3298ZM211.981 46.207L211.353 45.6102C212.332 44.5773 213.226 43.4681 214.028 42.293L214.743 42.7823C213.914 43.9907 212.991 45.1313 211.981 46.1931V46.207ZM169.705 43.0633C168.863 41.8599 168.119 40.5905 167.481 39.2674L168.262 38.8892C168.881 40.1707 169.601 41.4006 170.416 42.5672L169.705 43.0633ZM216.926 38.9447L216.138 38.5769C216.738 37.2874 217.233 35.9518 217.62 34.5831L218.452 34.8226C218.053 36.2348 217.543 37.6131 216.926 38.9447ZM165.888 35.1487C165.465 33.7408 165.157 32.3007 164.969 30.8427L165.826 30.7316C166.012 32.141 166.31 33.5333 166.717 34.8954L165.888 35.1487ZM219.323 30.5061L218.459 30.4055C218.581 29.3806 218.643 28.3494 218.643 27.3174C218.643 26.9287 218.643 26.5332 218.615 26.1446L219.483 26.1064C219.5 26.5054 219.511 26.9149 219.511 27.3174C219.515 28.3874 219.456 29.4569 219.334 30.52L219.323 30.5061ZM165.611 26.4742L164.743 26.4464C164.79 24.977 164.956 23.5137 165.239 22.071L166.089 22.2376C165.821 23.6351 165.664 25.0518 165.621 26.4742H165.611ZM218.091 21.9149C217.8 20.5224 217.397 19.1556 216.887 17.8274L217.696 17.5151C218.223 18.8873 218.639 20.2994 218.942 21.7379L218.091 21.9149ZM167.255 18.1328L166.443 17.8344C166.953 16.4563 167.572 15.1208 168.293 13.8406L169.049 14.2674C168.35 15.5065 167.75 16.799 167.255 18.1328ZM216.808 17.6227C216.287 16.3033 215.663 15.0271 214.941 13.8059L215.687 13.3653C216.434 14.6307 217.079 15.9534 217.616 17.3208L216.808 17.6227ZM171.436 10.7421L170.742 10.2008C171.661 9.05423 172.671 7.98324 173.761 6.99816L174.344 7.64008C173.294 8.5947 172.321 9.63203 171.436 10.7421ZM212.481 10.3188C211.568 9.22835 210.569 8.21305 209.493 7.28269L210.059 6.6269C211.171 7.58283 212.204 8.62718 213.147 9.74973L212.481 10.3188ZM177.741 5.04466L177.269 4.31254C178.505 3.51696 179.802 2.82081 181.148 2.23065L181.495 3.02524C180.192 3.59742 178.937 4.2727 177.741 5.04466ZM206.055 4.75667C204.844 4.00892 203.574 3.36027 202.259 2.81705L202.606 2.01552C203.96 2.57782 205.268 3.2473 206.516 4.0176L206.055 4.75667ZM185.527 1.63384L185.312 0.794145C186.735 0.425806 188.186 0.173996 189.649 0.0412029L189.726 0.905182C188.309 1.03671 186.905 1.28155 185.527 1.63732V1.63384ZM198.203 1.50546C196.818 1.17815 195.409 0.96233 193.99 0.860072L194.049 -0.00390625C195.517 0.107567 196.973 0.336146 198.404 0.679646L198.203 1.50546Z" fill="#9881AE"/>
<path d="M465.415 357.869V357.001C466.852 356.977 468.302 356.918 469.725 356.828L469.78 357.692C468.33 357.785 466.866 357.844 465.415 357.869ZM461.057 357.844C459.614 357.803 458.15 357.726 456.71 357.615L456.776 356.751C458.202 356.859 459.652 356.935 461.085 356.977L461.057 357.844ZM474.107 357.314L474.01 356.45C475.436 356.293 476.873 356.103 478.288 355.874L478.424 356.731C476.998 356.956 475.544 357.154 474.107 357.314ZM452.376 357.189C450.943 357.012 449.493 356.797 448.066 356.554L448.212 355.7C449.628 355.939 451.064 356.151 452.48 356.325L452.376 357.189ZM482.709 355.946L482.532 355.096C483.92 354.805 485.35 354.475 486.734 354.118L486.949 354.958C485.554 355.318 484.128 355.641 482.712 355.946H482.709ZM443.792 355.717C442.379 355.409 440.953 355.058 439.558 354.676L439.787 353.84C441.175 354.215 442.563 354.559 443.976 354.881L443.792 355.717ZM491.141 353.771L490.884 352.942C492.272 352.518 493.632 352.057 494.975 351.554L495.273 352.369C493.913 352.865 492.525 353.344 491.141 353.771ZM435.384 353.445C433.996 353.001 432.608 352.518 431.259 352.008L431.564 351.196C432.91 351.699 434.288 352.178 435.648 352.619L435.384 353.445ZM499.322 350.811L498.975 350.01C500.291 349.465 501.612 348.875 502.91 348.275L503.281 349.059C501.987 349.666 500.648 350.259 499.322 350.811ZM427.196 350.377C425.863 349.805 424.531 349.191 423.23 348.556L423.611 347.775C424.899 348.407 426.221 349.014 427.539 349.579L427.196 350.377ZM507.164 347.098L506.758 346.332C508.021 345.658 509.284 344.944 510.516 344.218L510.957 344.964C509.728 345.704 508.455 346.418 507.178 347.098H507.164ZM419.354 346.55C418.087 345.856 416.817 345.121 415.582 344.364L416.033 343.625C417.258 344.375 418.518 345.103 419.774 345.79L419.354 346.55ZM514.645 342.657L514.166 341.932C515.367 341.141 516.557 340.315 517.709 339.475L518.222 340.169C517.064 341.023 515.87 341.859 514.659 342.657H514.645ZM411.928 342.005C410.735 341.196 409.541 340.343 408.379 339.475L408.899 338.781C410.048 339.642 411.231 340.485 412.414 341.286L411.928 342.005ZM521.692 337.529L521.151 336.835C522.265 335.94 523.375 335.003 524.447 334.059L525.023 334.708C523.937 335.679 522.816 336.623 521.692 337.529ZM404.951 336.783C403.833 335.86 402.723 334.902 401.654 333.931L402.237 333.289C403.278 334.25 404.395 335.2 405.502 336.113L404.951 336.783ZM528.219 331.765L527.615 331.141C528.656 330.145 529.659 329.111 530.641 328.067L531.272 328.66C530.284 329.715 529.256 330.759 528.219 331.765ZM398.497 330.933C397.456 329.892 396.453 328.851 395.481 327.789L396.12 327.203C397.085 328.243 398.091 329.305 399.107 330.325L398.497 330.933ZM534.166 325.412L533.507 324.85C534.44 323.757 535.356 322.633 536.234 321.502L536.928 322.033C536.047 323.174 535.107 324.312 534.18 325.412H534.166ZM392.598 324.507C391.675 323.396 390.763 322.248 389.892 321.099L390.586 320.575C391.446 321.713 392.348 322.851 393.268 323.951L392.598 324.507ZM539.524 318.514L538.83 318.015C539.655 316.842 540.464 315.634 541.231 314.427L541.963 314.892C541.172 316.123 540.356 317.341 539.524 318.514ZM387.369 317.55C386.554 316.359 385.756 315.121 384.996 313.903L385.731 313.448C386.484 314.666 387.275 315.877 388.084 317.06L387.369 317.55ZM544.204 311.155L543.451 310.724C544.145 309.482 544.839 308.205 545.506 306.925L546.276 307.317C545.613 308.625 544.916 309.916 544.201 311.169L544.204 311.155ZM382.799 310.148C382.105 308.885 381.411 307.591 380.78 306.297L381.557 305.915C382.189 307.196 382.862 308.479 383.556 309.732L382.799 310.148ZM548.167 303.386L547.376 303.039C547.969 301.727 548.535 300.388 549.062 299.059L549.871 299.378C549.333 300.724 548.76 302.074 548.163 303.4L548.167 303.386ZM378.944 302.345C378.365 301.019 377.813 299.666 377.296 298.32L378.108 298.011C378.618 299.343 379.149 300.686 379.739 301.994L378.944 302.345ZM551.394 295.256L550.571 294.975C551.033 293.622 551.47 292.237 551.869 290.86L552.705 291.103C552.282 292.518 551.841 293.917 551.376 295.284L551.394 295.256ZM375.853 294.215C375.402 292.827 374.978 291.439 374.593 290.051L375.43 289.819C375.811 291.207 376.231 292.595 376.679 293.948L375.853 294.215ZM553.816 286.89L552.973 286.689C553.32 285.301 553.608 283.879 553.875 282.47L554.728 282.629C554.44 284.08 554.135 285.513 553.798 286.918L553.816 286.89ZM373.531 285.822C373.212 284.434 372.924 282.98 372.671 281.55L373.525 281.401C373.774 282.817 374.062 284.239 374.378 285.631L373.531 285.822ZM555.436 278.334L554.579 278.212C554.777 276.797 554.947 275.357 555.079 273.924L555.943 274.007C555.79 275.489 555.62 276.932 555.419 278.362L555.436 278.334ZM372.012 277.248C371.828 275.818 371.665 274.361 371.557 272.914L372.421 272.845C372.539 274.274 372.692 275.721 372.872 277.137L372.012 277.248ZM556.258 269.659L555.395 269.621C555.46 268.195 555.492 266.745 555.492 265.308H556.359C556.328 266.786 556.297 268.251 556.227 269.687L556.258 269.659ZM371.318 268.566C371.28 267.491 371.259 266.394 371.259 265.308C371.259 264.94 371.259 264.576 371.259 264.208H372.126C372.126 264.573 372.126 264.933 372.126 265.298C372.126 266.373 372.147 267.459 372.182 268.525L371.318 268.566ZM555.464 263.174C555.433 261.741 555.367 260.291 555.266 258.865L556.13 258.802C556.231 260.242 556.3 261.706 556.331 263.157L555.464 263.174ZM372.282 259.906L371.418 259.857C371.502 258.41 371.62 256.949 371.765 255.516L372.626 255.607C372.456 257.053 372.338 258.486 372.255 259.933L372.282 259.906ZM554.867 254.569C554.701 253.15 554.499 251.71 554.267 250.294L555.124 250.155C555.356 251.582 555.561 253.035 555.728 254.468L554.867 254.569ZM373.185 251.328L372.327 251.196C372.546 249.767 372.803 248.323 373.087 246.908L373.941 247.078C373.629 248.507 373.375 249.937 373.157 251.356L373.185 251.328ZM553.465 246.054C553.167 244.666 552.83 243.244 552.463 241.859L553.302 241.637C553.67 243.025 553.996 244.462 554.312 245.874L553.465 246.054ZM374.892 242.869L374.052 242.657C374.399 241.269 374.794 239.843 375.214 238.462L376.044 238.712C375.603 240.096 375.214 241.509 374.864 242.897L374.892 242.869ZM551.265 237.713C550.832 236.346 550.363 234.972 549.878 233.629L550.689 233.33C551.189 234.687 551.664 236.072 552.098 237.452L551.265 237.713ZM377.393 234.59L376.578 234.302C377.064 232.935 377.588 231.564 378.136 230.225L378.937 230.551C378.368 231.918 377.848 233.275 377.366 234.628L377.393 234.59ZM548.288 229.618C547.733 228.303 547.136 226.984 546.515 225.69L547.299 225.315C547.924 226.62 548.524 227.952 549.086 229.278L548.288 229.618ZM380.672 226.592L379.888 226.224C380.499 224.916 381.151 223.601 381.824 222.314L382.591 222.72C381.897 224.031 381.252 225.332 380.645 226.63L380.672 226.592ZM544.562 221.852C543.868 220.596 543.174 219.337 542.428 218.108L543.174 217.661C543.92 218.903 544.645 220.173 545.325 221.439L544.562 221.852ZM384.69 218.941L383.944 218.504C384.677 217.255 385.45 216.009 386.241 214.795L386.967 215.27C386.155 216.502 385.388 217.744 384.663 218.979L384.69 218.941ZM540.12 214.468C539.326 213.278 538.493 212.092 537.643 210.94L538.337 210.423C539.194 211.589 540.034 212.786 540.835 213.986L540.12 214.468ZM389.409 211.693L388.715 211.186C389.559 210.017 390.45 208.847 391.346 207.716L392.039 208.258C391.11 209.427 390.221 210.603 389.375 211.745L389.409 211.693ZM535.002 207.529C534.1 206.419 533.16 205.312 532.206 204.246L532.855 203.667C533.816 204.746 534.767 205.86 535.676 206.981L535.002 207.529ZM394.784 204.951L394.132 204.382C395.086 203.292 396.075 202.21 397.078 201.169L397.702 201.772C396.682 202.841 395.7 203.91 394.756 204.989L394.784 204.951ZM529.256 201.096C528.254 200.055 527.213 199.059 526.165 198.084L526.755 197.449C527.813 198.431 528.861 199.455 529.878 200.489L529.256 201.096ZM400.766 198.729L400.169 198.101C401.21 197.106 402.307 196.124 403.4 195.18L403.965 195.839C402.855 196.811 401.779 197.782 400.738 198.768L400.766 198.729ZM522.931 195.225C521.841 194.302 520.71 193.389 519.569 192.515L520.096 191.821C521.248 192.702 522.39 193.622 523.493 194.555L522.931 195.225ZM407.296 193.098L406.762 192.404C407.9 191.512 409.073 190.638 410.232 189.802L410.735 190.496C409.559 191.384 408.396 192.255 407.268 193.136L407.296 193.098ZM516.082 189.975C514.905 189.156 513.691 188.355 512.48 187.595L512.941 186.859C514.163 187.626 515.37 188.435 516.578 189.264L516.082 189.975ZM414.326 188.108L413.854 187.38C415.072 186.599 416.321 185.836 417.57 185.114L418.004 185.867C416.738 186.613 415.502 187.355 414.298 188.14L414.326 188.108ZM508.736 185.416C507.487 184.722 506.203 184.028 504.919 183.382L505.308 182.609C506.602 183.258 507.896 183.948 509.159 184.659L508.736 185.416ZM421.755 183.83L421.356 183.06C422.636 182.397 423.951 181.759 425.263 181.155L425.61 181.943C424.329 182.539 423.032 183.192 421.758 183.83H421.755ZM501.016 181.533C499.704 180.947 498.361 180.388 497.025 179.868L497.338 179.059C498.687 179.587 500.044 180.149 501.366 180.738L501.016 181.533ZM429.579 180.242L429.257 179.437C430.599 178.899 431.973 178.396 433.337 177.911L433.622 178.729C432.275 179.198 430.915 179.722 429.583 180.242H429.579ZM492.959 178.396C491.599 177.938 490.211 177.512 488.837 177.119L489.073 176.287C490.461 176.679 491.848 177.113 493.236 177.574L492.959 178.396ZM437.73 177.407L437.484 176.575C438.871 176.165 440.28 175.784 441.689 175.44L441.894 176.28C440.506 176.623 439.104 177.002 437.733 177.407H437.73ZM484.656 176.04C483.268 175.718 481.842 175.423 480.433 175.163L480.589 174.309C482.012 174.569 483.445 174.868 484.853 175.197L484.656 176.04ZM446.109 175.346L445.933 174.517C447.352 174.24 448.795 173.993 450.225 173.785L450.353 174.642C448.948 174.836 447.518 175.079 446.113 175.353L446.109 175.346ZM476.172 174.479C474.753 174.285 473.309 174.132 471.883 174L471.956 173.129C473.396 173.254 474.853 173.417 476.283 173.612L476.172 174.479ZM454.659 174.097L454.572 173.233C456.009 173.091 457.47 172.98 458.917 172.886L458.962 173.754C457.518 173.854 456.071 173.962 454.649 174.104L454.659 174.097ZM467.591 173.723C466.332 173.674 465.051 173.646 463.774 173.646H463.282V172.782H463.802C465.075 172.782 466.366 172.81 467.619 172.862L467.591 173.723Z" fill="#9881AE"/>
<path d="M88.3102 256.405C86.8563 256.405 85.3886 256.336 83.9486 256.228L84.0146 255.361C85.4337 255.472 86.8806 255.531 88.3171 255.538L88.3102 256.405ZM92.6752 256.277L92.6197 255.413C94.0423 255.319 95.4857 255.174 96.9014 254.979L97.0194 255.84C95.5829 256.027 94.1221 256.173 92.6752 256.267V256.277ZM79.6114 255.739C78.1749 255.524 76.7314 255.257 75.3192 254.941L75.5066 254.094C76.8945 254.407 78.3241 254.67 79.7397 254.882L79.6114 255.739ZM101.318 255.09L101.142 254.244C102.529 253.949 103.942 253.598 105.305 253.203L105.545 254.035C104.157 254.428 102.738 254.781 101.318 255.08V255.09ZM71.0965 253.834C69.7085 253.418 68.3206 252.942 66.957 252.425L67.2658 251.614C68.6017 252.124 69.9757 252.592 71.3463 253.001L71.0965 253.834ZM109.708 252.668L109.41 251.853C110.746 251.36 112.085 250.812 113.386 250.222L113.733 251.013C112.422 251.61 111.062 252.169 109.708 252.668ZM62.9355 250.711C61.6204 250.097 60.3123 249.428 59.0424 248.72L59.4657 247.963C60.7148 248.657 62.0056 249.32 63.2998 249.924L62.9355 250.711ZM117.651 249.077L117.238 248.314C118.494 247.62 119.74 246.898 120.944 246.128L121.412 246.86C120.187 247.641 118.921 248.387 117.647 249.077H117.651ZM55.3019 246.457C54.0909 245.663 52.8904 244.816 51.7384 243.935L52.2658 243.241C53.4004 244.108 54.5836 244.945 55.7773 245.729L55.3019 246.457ZM125 244.376L124.483 243.682C125.628 242.828 126.759 241.922 127.842 240.992L128.407 241.648C127.311 242.599 126.162 243.515 125 244.382V244.376ZM48.3623 241.162C47.2762 240.205 46.211 239.192 45.1943 238.158L45.812 237.55C46.8147 238.571 47.8661 239.566 48.9348 240.514L48.3623 241.162ZM131.613 238.688L131.003 238.071C132.016 237.065 133.005 236.006 133.945 234.948L134.597 235.517C133.65 236.593 132.64 237.668 131.613 238.688ZM42.2485 234.938C41.3082 233.831 40.3956 232.679 39.5386 231.513L40.2325 230.999C41.0757 232.148 41.9674 233.286 42.9008 234.376L42.2485 234.938ZM137.349 232.117L136.655 231.593C137.516 230.451 138.345 229.264 139.122 228.064L139.851 228.536C139.067 229.747 138.223 230.951 137.349 232.117ZM37.0715 227.915C36.2978 226.686 35.5622 225.416 34.8786 224.14L35.6454 223.73C36.3151 224.99 37.0334 226.242 37.8037 227.45L37.0715 227.915ZM142.085 224.792L141.325 224.376C142.019 223.119 142.665 221.825 143.262 220.528L144.049 220.874C143.456 222.193 142.793 223.508 142.096 224.778L142.085 224.792ZM32.9737 220.215C32.3838 218.89 31.8356 217.53 31.3463 216.169L32.1618 215.875C32.6441 217.214 33.1853 218.557 33.7648 219.861L32.9737 220.215ZM145.742 216.839L144.93 216.537C145.434 215.198 145.892 213.824 146.294 212.453L147.127 212.7C146.714 214.074 146.249 215.482 145.739 216.85L145.742 216.839ZM30.0105 212.013C29.6184 210.625 29.2714 209.188 28.9695 207.769L29.8196 207.596C30.1076 208.983 30.4477 210.399 30.8363 211.759L30.0105 212.013ZM148.203 208.47L147.356 208.286C147.661 206.898 147.915 205.465 148.119 204.049L148.976 204.171C148.772 205.607 148.511 207.054 148.203 208.47ZM28.2582 203.463C28.0708 202.026 27.9321 200.566 27.8453 199.119L28.7128 199.067C28.796 200.493 28.9348 201.936 29.1187 203.349L28.2582 203.463ZM149.441 199.847L148.574 199.788C148.674 198.366 148.726 196.919 148.726 195.486H149.611C149.611 196.922 149.542 198.39 149.441 199.847ZM28.6087 194.761H27.7412C27.7586 193.307 27.828 191.839 27.9459 190.399L28.8099 190.469C28.6954 191.884 28.626 193.331 28.6087 194.761ZM148.664 192.582C148.598 191.149 148.477 189.705 148.317 188.293L149.178 188.189C149.348 189.625 149.469 191.086 149.525 192.54L148.664 192.582ZM29.32 186.19L28.4629 186.058C28.685 184.622 28.9626 183.182 29.2853 181.77L30.1319 181.964C29.8092 183.355 29.5559 184.778 29.32 186.19ZM147.64 184.039C147.37 182.651 147.044 181.225 146.676 179.844L147.512 179.622C147.89 181.01 148.206 182.453 148.494 183.876L147.64 184.039ZM31.2457 177.793L30.4164 177.537C30.8432 176.149 31.3255 174.761 31.8495 173.408L32.6579 173.723C32.1409 175.07 31.6656 176.44 31.2457 177.807V177.793ZM145.402 175.711C144.934 174.365 144.41 173.015 143.844 171.704L144.642 171.357C145.215 172.689 145.746 174.056 146.221 175.423L145.402 175.711ZM34.3685 169.757L33.5844 169.386C34.2055 168.078 34.8821 166.77 35.5969 165.507L36.3533 165.934C35.642 167.2 34.9758 168.487 34.3616 169.778L34.3685 169.757ZM142.016 167.821C141.357 166.551 140.628 165.292 139.899 164.077L140.638 163.623C141.395 164.858 142.12 166.135 142.786 167.439L142.016 167.821ZM38.6156 162.269L37.8835 161.804C38.685 160.597 39.542 159.403 40.4268 158.255L41.1208 158.786C40.2325 159.917 39.3894 161.093 38.5982 162.283L38.6156 162.269ZM137.529 160.5C136.697 159.337 135.794 158.192 134.899 157.093L135.565 156.541C136.492 157.655 137.391 158.817 138.234 159.993L137.529 160.5ZM43.8585 155.472L43.2131 154.896C44.1777 153.814 45.1943 152.755 46.2353 151.746L46.839 152.367C45.8154 153.352 44.8231 154.393 43.8585 155.472ZM132.016 153.897C131.023 152.856 129.986 151.857 128.924 150.899L129.507 150.257C130.583 151.229 131.638 152.252 132.63 153.297L132.016 153.897ZM50.0278 149.48L49.4692 148.817C50.576 147.884 51.7349 146.981 52.9077 146.128L53.4178 146.822C52.2658 147.672 51.1242 148.564 50.0278 149.48ZM125.624 148.127C124.497 147.245 123.324 146.392 122.155 145.597L122.64 144.879C123.844 145.687 125.031 146.551 126.176 147.443L125.624 148.127ZM56.9917 144.431L56.5337 143.692C57.7655 142.929 59.0389 142.197 60.3192 141.523L60.7252 142.29C59.4622 142.943 58.2061 143.675 56.9917 144.431ZM118.491 143.324C117.248 142.613 115.965 141.936 114.674 141.319L115.049 140.535C116.357 141.166 117.658 141.85 118.917 142.571L118.491 143.324ZM64.601 140.424L64.254 139.629C65.5795 139.049 66.9431 138.512 68.3102 138.026L68.5982 138.845C67.2519 139.32 65.9056 139.854 64.601 140.424ZM110.749 139.591C109.42 139.063 108.053 138.581 106.69 138.154L106.947 137.325C108.334 137.759 109.722 138.251 111.069 138.782L110.749 139.591ZM72.7238 137.554L72.4913 136.718C73.8792 136.333 75.3192 135.996 76.7418 135.712L76.9084 136.562C75.4858 136.843 74.077 137.176 72.703 137.554H72.7238ZM102.54 137.013C101.152 136.687 99.7293 136.405 98.3171 136.176L98.4559 135.319C99.8855 135.552 101.329 135.836 102.738 136.17L102.54 137.013ZM81.1589 135.875L81.0513 135.014C82.4844 134.837 83.9486 134.705 85.399 134.629L85.4441 135.496C83.9937 135.569 82.5538 135.698 81.1381 135.875H81.1589ZM94.0249 135.656C92.6058 135.528 91.1589 135.455 89.7293 135.427V134.56C91.1797 134.587 92.6474 134.664 94.0874 134.792L94.0249 135.656Z" fill="#9881AE"/>
<path d="M332.633 49.4101C329.737 49.4108 326.906 48.5527 324.498 46.9444C322.091 45.3361 320.214 43.0498 319.105 40.3747C317.997 37.6996 317.707 34.7559 318.271 31.9159C318.836 29.0758 320.23 26.4671 322.278 24.4195C324.325 22.372 326.934 20.9777 329.774 20.413C332.614 19.8482 335.558 20.1384 338.233 21.2468C340.908 22.3553 343.194 24.2321 344.803 26.6401C346.411 29.048 347.269 31.8788 347.268 34.7744C347.264 38.6546 345.72 42.3746 342.977 45.1183C340.233 47.862 336.513 49.4055 332.633 49.4101ZM332.633 20.7876C329.866 20.7876 327.162 21.608 324.862 23.1448C322.562 24.6817 320.769 26.8662 319.711 29.4219C318.652 31.9777 318.375 34.7899 318.915 37.5031C319.454 40.2163 320.787 42.7085 322.743 44.6646C324.699 46.6207 327.191 47.9528 329.904 48.4925C332.617 49.0321 335.43 48.7552 337.985 47.6965C340.541 46.6379 342.726 44.8452 344.262 42.5451C345.799 40.245 346.62 37.5408 346.62 34.7744C346.611 31.069 345.135 27.518 342.513 24.8995C339.891 22.281 336.338 20.8086 332.633 20.805V20.7876Z" fill="#9881AE"/>
<path d="M484.927 101.957V365.722C484.927 367.027 484.671 368.319 484.172 369.525C483.673 370.731 482.941 371.826 482.019 372.749C481.096 373.673 480.001 374.405 478.796 374.905C477.59 375.405 476.298 375.662 474.993 375.663H91.6832C90.3777 375.663 89.085 375.405 87.8789 374.906C86.6728 374.406 85.5769 373.674 84.6538 372.751C83.7307 371.828 82.9985 370.732 82.4989 369.526C81.9993 368.32 81.7422 367.027 81.7422 365.722V101.957C81.7422 99.3203 82.7894 96.7915 84.6536 94.9266C86.5178 93.0618 89.0463 92.0136 91.6832 92.0127H474.993C477.629 92.0145 480.156 93.0632 482.019 94.928C483.882 96.7929 484.928 99.3213 484.927 101.957Z" fill="white"/>
<path d="M474.992 376.113H91.6823C88.9316 376.11 86.2944 375.017 84.3494 373.071C82.4043 371.126 81.3104 368.489 81.3076 365.738V101.957C81.3104 99.2061 82.4043 96.5688 84.3494 94.6238C86.2944 92.6787 88.9316 91.5848 91.6823 91.582H474.992C477.741 91.5866 480.376 92.6815 482.319 94.6264C484.262 96.5714 485.354 99.2076 485.356 101.957V365.721C485.359 368.473 484.269 371.114 482.325 373.063C480.382 375.011 477.744 376.109 474.992 376.113ZM91.6823 92.4495C89.1617 92.4522 86.7451 93.4548 84.9627 95.2371C83.1804 97.0195 82.1778 99.4361 82.1751 101.957V365.721C82.1778 368.242 83.1804 370.658 84.9627 372.441C86.7451 374.223 89.1617 375.226 91.6823 375.228H474.992C477.511 375.224 479.926 374.22 481.706 372.438C483.486 370.656 484.487 368.24 484.489 365.721V101.957C484.487 99.4376 483.486 97.0221 481.706 95.2398C479.926 93.4576 477.511 92.4541 474.992 92.4495H91.6823Z" fill="#9881AE"/>
<path d="M484.927 101.957V117.613H81.7422V101.957C81.7422 99.3203 82.7894 96.7915 84.6536 94.9266C86.5178 93.0618 89.0463 92.0136 91.6832 92.0127H474.993C477.629 92.0145 480.156 93.0632 482.019 94.928C483.882 96.7929 484.928 99.3213 484.927 101.957Z" fill="white"/>
<path d="M485.356 118.039H81.3076V101.957C81.3104 99.2061 82.4043 96.5688 84.3494 94.6238C86.2944 92.6787 88.9316 91.5848 91.6823 91.582H474.992C477.741 91.5866 480.376 92.6815 482.319 94.6264C484.262 96.5714 485.354 99.2076 485.356 101.957V118.039ZM82.1647 117.172H484.489V101.957C484.487 99.4376 483.486 97.0221 481.706 95.2398C479.926 93.4576 477.511 92.4541 474.992 92.4495H91.6823C89.1617 92.4522 86.7451 93.4548 84.9627 95.2371C83.1804 97.0195 82.1778 99.4361 82.1751 101.957L82.1647 117.172Z" fill="#9881AE"/>
<path d="M104.125 109.434C106.68 109.434 108.751 107.363 108.751 104.809C108.751 102.254 106.68 100.184 104.125 100.184C101.571 100.184 99.5 102.254 99.5 104.809C99.5 107.363 101.571 109.434 104.125 109.434Z" fill="#4B0082"/>
<path d="M121.766 100.184C120.851 100.184 119.957 100.455 119.196 100.963C118.436 101.471 117.843 102.194 117.493 103.039C117.143 103.884 117.051 104.814 117.23 105.711C117.408 106.608 117.848 107.433 118.495 108.079C119.142 108.726 119.966 109.167 120.864 109.345C121.761 109.524 122.691 109.432 123.536 109.082C124.381 108.732 125.103 108.139 125.612 107.378C126.12 106.618 126.391 105.724 126.391 104.809C126.389 103.583 125.901 102.407 125.034 101.54C124.167 100.673 122.992 100.185 121.766 100.184Z" fill="#4B0082"/>
<path d="M139.403 109.434C138.488 109.433 137.595 109.162 136.834 108.653C136.074 108.144 135.482 107.422 135.132 106.576C134.783 105.731 134.692 104.801 134.871 103.904C135.049 103.007 135.49 102.184 136.137 101.537C136.784 100.891 137.608 100.45 138.505 100.272C139.403 100.094 140.332 100.186 141.177 100.536C142.022 100.886 142.744 101.479 143.253 102.24C143.761 103 144.032 103.894 144.032 104.809C144.03 106.036 143.542 107.211 142.674 108.079C141.806 108.946 140.63 109.433 139.403 109.434ZM139.403 101.051C138.66 101.052 137.934 101.273 137.316 101.686C136.699 102.099 136.218 102.686 135.934 103.373C135.65 104.06 135.576 104.815 135.721 105.544C135.867 106.273 136.225 106.942 136.751 107.467C137.276 107.992 137.946 108.35 138.675 108.495C139.404 108.639 140.159 108.565 140.845 108.28C141.532 107.996 142.118 107.514 142.531 106.896C142.944 106.278 143.164 105.552 143.164 104.809C143.163 103.812 142.767 102.856 142.061 102.151C141.356 101.447 140.4 101.051 139.403 101.051Z" fill="#9881AE"/>
<path d="M253.24 109.959H167.252C165.886 109.959 164.576 109.416 163.611 108.45C162.645 107.485 162.103 106.175 162.103 104.809C162.103 103.444 162.645 102.134 163.611 101.168C164.576 100.203 165.886 99.6602 167.252 99.6602H253.24C254.606 99.6602 255.916 100.203 256.882 101.168C257.847 102.134 258.39 103.444 258.39 104.809C258.39 106.175 257.847 107.485 256.882 108.45C255.916 109.416 254.606 109.959 253.24 109.959ZM167.252 100.528C166.116 100.528 165.027 100.979 164.224 101.782C163.421 102.585 162.97 103.674 162.97 104.809C162.97 105.945 163.421 107.034 164.224 107.837C165.027 108.64 166.116 109.091 167.252 109.091H253.24C254.376 109.091 255.465 108.64 256.268 107.837C257.071 107.034 257.522 105.945 257.522 104.809C257.522 103.674 257.071 102.585 256.268 101.782C255.465 100.979 254.376 100.528 253.24 100.528H167.252Z" fill="#9881AE"/>
<path d="M362.584 240.347C362.584 281.88 328.927 315.555 287.387 315.555C245.846 315.555 212.179 281.898 212.179 240.347C212.179 201.384 241.818 169.337 279.778 165.521L282.286 190.201C271.994 191.252 262.274 195.446 254.45 202.215C246.625 208.983 241.074 217.997 238.552 228.031C236.03 238.065 236.66 248.632 240.354 258.296C244.049 267.959 250.63 276.251 259.203 282.043C267.775 287.835 277.923 290.847 288.268 290.669C298.612 290.491 308.651 287.131 317.019 281.048C325.387 274.964 331.679 266.451 335.039 256.665C338.398 246.88 338.663 236.298 335.798 226.357L359.646 219.469C361.602 226.256 362.591 233.284 362.584 240.347Z" fill="#4B0082"/>
<path d="M287.384 301.068C320.919 301.068 348.105 273.882 348.105 240.347C348.105 206.811 320.919 179.625 287.384 179.625C253.848 179.625 226.662 206.811 226.662 240.347C226.662 273.882 253.848 301.068 287.384 301.068Z" fill="white"/>
<path opacity="0.5" d="M287.384 301.068C320.919 301.068 348.105 273.882 348.105 240.347C348.105 206.811 320.919 179.625 287.384 179.625C253.848 179.625 226.662 206.811 226.662 240.347C226.662 273.882 253.848 301.068 287.384 301.068Z" fill="#DFD2EB"/>
<path d="M287.008 283.044C310.761 283.044 330.017 263.783 330.017 240.022C330.017 216.262 310.761 197 287.008 197C263.255 197 244 216.262 244 240.022C244 263.783 263.255 283.044 287.008 283.044Z" fill="white"/>
<rect width="10" height="30" transform="translate(272 225)" fill="#4B0082"/>
<path d="M292 245H297C299.761 245 302 247.239 302 250C302 252.761 299.761 255 297 255C294.239 255 292 252.761 292 250V245Z" fill="#FFC857"/>
<g clip-path="url(#clip1_4893_35462)">
<rect width="10" height="30" transform="translate(302 225) rotate(90)" fill="#4B0082" fill-opacity="0.7"/>
</g>
<rect width="10" height="20" transform="translate(292 245) rotate(-180)" fill="#4B0082" fill-opacity="0.7"/>
<path d="M555.096 40.5586H391.491V140.597H555.096V40.5586Z" fill="white"/>
<path d="M555.53 141.03H391.062V40.125H555.53V141.03ZM391.926 140.166H554.659V40.9925H391.926V140.166Z" fill="#9881AE"/>
<path d="M421.505 108.754H412.088V126.047H421.505V108.754Z" fill="#CEBFDD"/>
<path d="M440.336 100.854H430.919V126.048H440.336V100.854Z" fill="#CEBFDD"/>
<path d="M459.17 107.314H449.753V126.048H459.17V107.314Z" fill="#CEBFDD"/>
<path d="M478.004 94.1289H468.587V126.044H478.004V94.1289Z" fill="#CEBFDD"/>
<path d="M496.835 85.6973H487.418V126.048H496.835V85.6973Z" fill="#CEBFDD"/>
<path d="M515.669 73.6572H506.252V126.048H515.669V73.6572Z" fill="#CEBFDD"/>
<path d="M534.499 55.1113H525.082V126.048H534.499V55.1113Z" fill="#CEBFDD"/>
<path d="M419.572 63.5283H412.088V72.0016H419.572V63.5283Z" fill="#CEBFDD"/>
<path d="M481.814 67.4492H431.134V69.6213H481.814V67.4492Z" fill="#CEBFDD"/>
<path d="M407.883 191.318L397.522 162.695C391.701 164.802 386.661 168.634 383.074 173.679C379.487 178.725 377.523 184.744 377.446 190.934C377.368 197.124 379.18 203.19 382.639 208.324C386.098 213.458 391.041 217.415 396.807 219.667C402.573 221.919 408.889 222.359 414.912 220.929C420.935 219.499 426.379 216.267 430.517 211.663C434.655 207.059 437.292 201.302 438.074 195.161C438.856 189.021 437.747 182.787 434.895 177.293L407.883 191.318Z" fill="#F0EBF4"/>
<path d="M438.941 166.454C435.541 159.903 429.876 154.811 423.002 152.125C416.128 149.44 408.512 149.343 401.571 151.853L411.929 180.475L438.941 166.454Z" fill="#BFABD3"/>
<path d="M450.964 288.848H378.966V357.376H450.964V288.848Z" fill="#F0EBF4"/>
<path d="M430.579 307.064H390.242V309.958H430.579V307.064Z" fill="white"/>
<path d="M430.579 315.738H390.242V318.632H430.579V315.738Z" fill="white"/>
<path d="M176.135 157.862H113.525V263.691H176.135V157.862Z" fill="#F0EBF4"/>
<path d="M164.126 173.188H123.067V210.777H164.126V173.188Z" fill="white"/>
<path d="M123.363 172.846L122.777 173.486L163.838 211.072L164.424 210.432L123.363 172.846Z" fill="#F0EBF4"/>
<path d="M163.828 172.873L122.773 210.466L123.359 211.106L164.414 173.512L163.828 172.873Z" fill="#F0EBF4"/>
<path d="M143.616 201.086H0.413086V295.44H143.616V201.086Z" fill="white"/>
<path d="M144.032 295.853H0V200.673H144.032V295.853ZM0.829284 295.027H143.202V201.499H0.829284V295.027Z" fill="#9881AE"/>
<path d="M15.5029 272.654L24.7534 255.305L43.8374 273.234L56.5612 236.221L80.2704 262.245L95.8845 255.885L124.222 218.872" fill="white"/>
<path d="M44.0321 274.011L24.8718 256.009L15.885 272.859L15.1182 272.453L24.6393 254.601L43.6469 272.46L56.3881 235.388L80.3887 261.731L95.6142 255.527L123.879 218.608L124.566 219.136L96.159 256.242L80.1562 262.762L79.9515 262.54L56.735 237.057L44.0321 274.011Z" fill="#9881AE"/>
<path d="M24.8261 257.619C26.1427 257.619 27.2099 256.552 27.2099 255.235C27.2099 253.919 26.1427 252.852 24.8261 252.852C23.5096 252.852 22.4424 253.919 22.4424 255.235C22.4424 256.552 23.5096 257.619 24.8261 257.619Z" fill="#9881AE"/>
<path d="M43.6953 275.184C45.0118 275.184 46.079 274.116 46.079 272.8C46.079 271.483 45.0118 270.416 43.6953 270.416C42.3788 270.416 41.3115 271.483 41.3115 272.8C41.3115 274.116 42.3788 275.184 43.6953 275.184Z" fill="#9881AE"/>
<path d="M56.707 238.751C58.0235 238.751 59.0908 237.684 59.0908 236.367C59.0908 235.051 58.0235 233.983 56.707 233.983C55.3905 233.983 54.3232 235.051 54.3232 236.367C54.3232 237.684 55.3905 238.751 56.707 238.751Z" fill="#9881AE"/>
<path d="M102.377 216.127H41.6553V216.994H102.377V216.127Z" fill="#9881AE"/>
<path d="M340.894 429.156C338.302 412.162 341.765 394.797 350.68 380.099C359.595 365.4 373.394 354.304 389.663 348.75C380.544 355.131 374.978 365.45 371.092 375.88C367.206 386.311 364.663 397.261 359.867 407.31C355.072 417.359 347.522 426.741 337.043 430.502L340.894 429.156Z" fill="#9881AE"/>
<path d="M338.369 429.295C337.995 409.805 334.238 390.528 327.266 372.324C324.795 365.877 321.828 359.444 317.005 354.5C312.182 349.555 305.173 346.304 298.376 347.511C306.839 353.847 311.214 364.271 313.695 374.552C316.176 384.833 317.116 395.506 320.593 405.492C324.07 415.478 330.722 425.103 340.676 428.674L338.369 429.295Z" fill="#9881AE"/>
<path d="M337.047 430.589C332.189 417.553 326.946 404.191 317.213 394.26C307.48 384.33 292.057 378.646 279.312 384.198C289.725 386.6 299.01 392.474 305.641 400.853C310.444 406.953 313.671 414.184 318.608 420.173C323.546 426.162 331.079 430.988 338.709 429.541L337.047 430.589Z" fill="#DFD2EB"/>
<path d="M335.499 429.68C333.518 415.374 331.533 400.839 333.622 386.55C335.71 372.261 342.47 357.994 354.576 350.117C347.876 356.689 345.638 366.64 345.634 376.026C345.631 385.412 347.532 394.711 347.692 404.097C347.851 413.483 345.988 423.448 339.642 430.363L335.499 429.68Z" fill="#DFD2EB"/>
<path d="M342.186 427.594C346.825 415.773 351.769 403.5 361.217 395.013C367.336 389.542 374.947 386.021 383.077 384.898C377.411 389.409 373.865 396.043 370.933 402.667C368.001 409.291 365.451 416.2 361.19 422.053C356.929 427.907 350.53 432.74 343.289 433.052L342.186 427.594Z" fill="#DFD2EB"/>
<path d="M365.759 463.566H313.646L305.613 423.479H373.792L365.759 463.566Z" fill="white"/>
<path d="M366.127 464H313.292L305.086 423.057H374.322L366.127 464ZM314.017 463.133H365.419L373.278 423.924H306.144L314.017 463.133Z" fill="#9881AE"/>
<path d="M459.052 439.462V463.567H427.789L442.102 451.891L442.855 437.203L459.052 439.462Z" fill="#DFD2EB"/>
<path d="M442.399 451.622L441.801 452.25L447.769 457.927L448.367 457.299L442.399 451.622Z" fill="#1B1B43"/>
<path d="M456.02 445.856H445.322V446.724H456.02V445.856Z" fill="#1B1B43"/>
<path d="M495.586 440.592L496.717 463.566H465.454L478.636 452.268V438.33L495.586 440.592Z" fill="#DFD2EB"/>
<path d="M478.927 451.993L478.353 452.644L483.207 456.933L483.782 456.283L478.927 451.993Z" fill="#1B1B43"/>
<path d="M492.744 446.29H482.188V447.157H492.744V446.29Z" fill="#1B1B43"/>
<path d="M462.199 300.901C462.736 348.935 466.784 396.188 474.344 442.66H500.683C495.204 407.129 492.727 363.982 495.79 306.776L476.769 291.196L462.199 300.901Z" fill="#493260"/>
<path d="M441.377 307.255L429.458 360.267C426.593 373.005 426.393 386.199 428.872 399.018L437.258 442.318H463.601L455.621 385.472L474.684 298.82L441.377 307.255Z" fill="#493260"/>
<path d="M463.975 358.07C463.91 356.977 462.411 332.599 462.241 329.51L455.356 327.005L455.651 326.193L463.094 328.896V329.202C463.094 329.736 464.229 348.286 464.829 358.001L463.975 358.07Z" fill="#BE443D"/>
<path d="M521.009 187.571L522.417 184.212C522.417 184.212 517.324 173.477 518.947 172.068C520.571 170.659 523.177 174.67 523.177 174.67C523.177 174.67 522.417 161.659 524.912 161.547C527.015 161.457 526.866 165.236 527.081 170.874C527.081 170.874 528.382 169.139 530.776 170.933C531.852 169.139 534.128 170.333 534.78 171.416C535.54 170.548 538.684 170.767 538.25 174.452C537.698 179.129 535.54 187.79 535.54 187.79L528.6 193.536L521.009 187.571Z" fill="#FFBC96"/>
<path d="M465.277 232.463L475.829 232.38C494.337 230.728 508.792 215.693 508.792 215.693L521.006 187.588L535.537 187.806L527.009 220.856C525.782 225.602 523.143 229.864 519.441 233.077L489.129 259.371L465.277 232.463Z" fill="#FFC857"/>
<path d="M436.353 256.391L441.377 307.255L495.78 306.776L493.899 245.475L465.273 232.463L445.468 240.849L436.353 256.391Z" fill="#FFC857"/>
<path d="M402.661 261.332C401.775 260.542 400.655 260.062 399.472 259.965C393.459 259.462 374.656 258.012 374.836 259.469C375.051 261.204 389.364 267.71 389.364 267.71L398.549 278.043L406.96 265.149L402.661 261.332Z" fill="#FFBC96"/>
<path d="M443.671 237.359C441.759 237.692 439.951 238.466 438.391 239.619C436.83 240.773 435.56 242.274 434.68 244.004L418.646 275.516L406.964 265.149L398.553 278.042L401.62 281.512C406.162 286.623 411.46 293.493 418.553 294.982C422.165 295.738 425.531 294.239 428.119 291.752C430.039 289.866 431.703 287.737 433.07 285.419L439.465 274.881L459.85 234.545L443.671 237.359Z" fill="#FFC857"/>
<path d="M436.796 256.327L435.933 256.411L438.979 287.71L439.843 287.626L436.796 256.327Z" fill="#DFD2EB"/>
<path d="M494.225 254.802L489.128 259.354L494.551 268.355L494.225 254.802Z" fill="#1B1B43"/>
<path d="M528.962 177.345C526.914 177.345 526.758 174.663 526.755 170.874H527.407C527.407 175.333 527.754 176.693 528.962 176.693C529.081 176.693 529.198 176.666 529.306 176.616C529.414 176.566 529.51 176.492 529.586 176.401C530.166 175.78 530.391 174.32 530.461 173.025C530.416 172.082 530.436 171.259 530.461 170.919H531.113C531.147 171.598 531.147 172.277 531.113 172.956C531.203 174.722 531.498 176.467 532.088 176.644C532.233 176.697 532.389 176.712 532.541 176.69C532.694 176.667 532.838 176.608 532.962 176.516C533.656 176.009 534.059 174.58 534.264 173.303C534.288 172.658 534.352 172.015 534.454 171.377L535.103 171.436C535.078 172.017 535.022 172.596 534.937 173.171C534.892 174.524 535.044 175.836 535.592 176.065C535.749 176.15 535.924 176.195 536.103 176.195C536.281 176.195 536.456 176.15 536.613 176.065C537.359 175.61 537.629 174.077 537.671 173.525L538.32 173.574C538.32 173.667 538.132 175.898 536.953 176.62C536.709 176.761 536.434 176.84 536.152 176.848C535.87 176.856 535.591 176.795 535.339 176.669C535.187 176.603 534.708 176.322 534.44 175.312C534.253 175.986 533.871 176.59 533.341 177.047C533.136 177.197 532.899 177.296 532.648 177.336C532.398 177.375 532.141 177.353 531.901 177.272C531.328 177.099 530.974 176.37 530.759 175.458C530.637 175.967 530.4 176.442 530.065 176.846C529.927 177.003 529.758 177.129 529.567 177.215C529.377 177.301 529.171 177.345 528.962 177.345Z" fill="#D28572"/>
<path d="M460.687 244.806C458.472 244.981 456.278 244.271 454.587 242.83C452.896 241.39 451.845 239.338 451.665 237.123L451.571 235.951L450.253 219.59L460.444 218.775L466.984 218.244L468.39 235.767C468.479 236.866 468.35 237.973 468.011 239.022C467.672 240.072 467.129 241.045 466.414 241.884C465.698 242.724 464.824 243.414 463.841 243.916C462.858 244.417 461.786 244.719 460.687 244.806Z" fill="#FFBC96"/>
<path d="M463.687 224.291C460.513 229.885 455.967 233.913 451.543 235.95L450.225 219.59L460.415 218.774L463.687 224.291Z" fill="#1B1B43"/>
<path d="M467.011 207.158L464.989 224.223C464.989 224.223 458.483 230.444 448.941 230.146C445.471 230.041 443.417 226.745 442.22 222.557C441.724 220.735 441.361 218.88 441.134 217.005C440.653 212.874 440.508 208.711 440.7 204.556L455.447 199.649L467.011 207.158Z" fill="#FFBC96"/>
<path d="M464.771 214.174C463.234 208.702 460.475 205.947 456.745 205.357C444.892 211.79 437.193 207.96 431.589 200.802C445.326 203.477 451.325 183.959 464.483 196.985C474.24 199.948 474.059 209.271 468.528 216.863L464.771 214.174Z" fill="#1B1B43"/>
<path d="M470.855 216.236C471.358 213.661 469.956 211.221 467.724 210.785C465.491 210.349 463.274 212.082 462.771 214.657C462.268 217.232 463.67 219.673 465.903 220.109C468.135 220.545 470.353 218.811 470.855 216.236Z" fill="#FFBC96"/>
<path d="M468.368 213.727C467.674 213.841 467.247 214.358 466.918 214.941C466.594 215.557 466.37 216.222 466.255 216.908H466.002C465.9 216.524 465.885 216.123 465.957 215.732C466.022 215.337 466.157 214.956 466.356 214.608C466.554 214.244 466.835 213.932 467.178 213.699C467.351 213.576 467.548 213.49 467.756 213.449C467.964 213.407 468.178 213.409 468.385 213.456L468.368 213.727Z" fill="#1B1B43"/>
<path d="M444.24 214.861C444.24 215.6 443.893 216.197 443.445 216.197C442.997 216.197 442.65 215.6 442.65 214.861C442.65 214.122 442.997 213.525 443.445 213.525C443.893 213.525 444.24 214.122 444.24 214.861Z" fill="#1B1B43"/>
<path d="M450.811 214.317C450.811 215.118 450.426 215.767 449.95 215.767C449.475 215.767 449.09 215.118 449.09 214.317C449.09 213.515 449.475 212.866 449.95 212.866C450.426 212.866 450.811 213.515 450.811 214.317Z" fill="#1B1B43"/>
<path d="M446.048 215.947C446.038 216.205 445.96 216.455 445.822 216.673C445.695 216.877 445.547 217.068 445.381 217.242C445.085 217.503 444.858 217.835 444.722 218.206C444.691 218.38 444.701 218.558 444.751 218.727C444.802 218.896 444.892 219.05 445.014 219.178C445.302 219.505 445.61 219.815 445.937 220.104L445.798 220.316C445.352 220.143 444.942 219.887 444.59 219.563C444.398 219.377 444.245 219.154 444.143 218.907C444.039 218.636 444.021 218.339 444.091 218.057C444.162 217.791 444.294 217.545 444.476 217.339C444.635 217.161 444.808 216.996 444.993 216.846C445.337 216.609 445.613 216.286 445.794 215.909L446.048 215.947Z" fill="#1B1B43"/>
<path d="M446.672 223.174C447.562 222.999 448.415 222.671 449.194 222.206C449.576 221.97 449.938 221.703 450.277 221.408C450.624 221.11 450.95 220.791 451.294 220.461L451.498 220.61C451.064 221.502 450.38 222.249 449.531 222.761C448.678 223.282 447.681 223.515 446.686 223.428L446.672 223.174Z" fill="#1B1B43"/>
<path d="M448.907 210.725C448.719 211.703 451.797 212.019 452.349 212.113C452.807 212.193 453.456 212.245 453.549 211.554C453.671 210.697 452.737 210.607 452.21 210.493C451.682 210.378 449.084 209.802 448.907 210.725Z" fill="#1B1B43"/>
<path d="M444.628 211.329C444.628 212.273 442.165 212.37 441.717 212.425C441.349 212.47 440.836 212.474 440.874 211.811C440.923 210.985 441.662 210.961 442.092 210.888C442.522 210.815 444.642 210.434 444.628 211.329Z" fill="#1B1B43"/>
<path opacity="0.2" d="M456.113 220.371C457.85 220.371 459.257 218.964 459.257 217.228C459.257 215.491 457.85 214.084 456.113 214.084C454.377 214.084 452.97 215.491 452.97 217.228C452.97 218.964 454.377 220.371 456.113 220.371Z" fill="#FE5B52"/>
<path opacity="0.2" d="M443.504 220.051C443.505 220.539 443.391 221.02 443.171 221.456C442.951 221.891 442.631 222.268 442.237 222.557C441.741 220.735 441.379 218.879 441.151 217.005C441.825 217.181 442.421 217.576 442.847 218.127C443.273 218.678 443.504 219.355 443.504 220.051Z" fill="#FE5B52"/>
<path d="M219.358 321.374H159.011V325.437H219.358V321.374Z" fill="#9881AE"/>
<path d="M219.354 321.377H168.39L187.692 274.319H238.653L219.354 321.377Z" fill="white"/>
<path d="M219.646 321.811H167.744L187.401 273.886H239.302L219.646 321.811ZM169.042 320.943H219.063L238.008 274.753H187.984L169.042 320.943Z" fill="#9881AE"/>
<path d="M214.954 317.422H174.902L190.069 280.44H230.121L214.954 317.422Z" fill="#F0EBF4"/>
<path d="M199.063 326.738H198.195V463.789H199.063V326.738Z" fill="#1B1B43"/>
<path d="M247.303 325.44H149.958V333.182H247.303V325.44Z" fill="#DFD2EB"/>
<path d="M71.4016 384.306H70.5342V463.789H71.4016V384.306Z" fill="#1B1B43"/>
<path d="M94.7877 387.991H47.1611C47.6513 385.645 48.9341 383.54 50.7938 382.029C52.6535 380.518 54.9767 379.694 57.3728 379.694H84.5622C86.9605 379.691 89.2866 380.515 91.149 382.026C93.0114 383.537 94.2964 385.643 94.7877 387.991Z" fill="#DFD2EB"/>
<path d="M64.0491 458.111H77.8832C78.5991 458.111 79.3081 458.252 79.9695 458.526C80.6309 458.8 81.2317 459.202 81.7375 459.709C82.2432 460.215 82.644 460.817 82.9168 461.479C83.1896 462.141 83.3291 462.85 83.3273 463.566H58.6084C58.6084 462.123 59.1816 460.739 60.2019 459.719C61.2222 458.698 62.6061 458.125 64.0491 458.125V458.111Z" fill="#DFD2EB"/>
<path d="M107.699 266.377C108.917 268.112 110.662 270.603 110.857 272.772C111.138 275.922 106.096 273.712 106.037 273.986L107.699 266.377Z" fill="#D28572"/>
<path d="M99.9998 270.083H84.0664V293.435H99.9998V270.083Z" fill="#FFBC96"/>
<path d="M99.9933 274.101V290.756C94.9725 287.602 90.6248 282.917 86.8809 277.511L99.9933 274.101Z" fill="#1B1B43"/>
<path d="M108.958 267.793C108.462 275.86 105.36 284.986 96.8904 282.734C90.2354 280.968 82.9141 275.364 82.9141 267.283C82.9141 259.202 88.5074 252.647 95.4054 252.647C99.7183 252.647 105.149 254.729 107.706 258.786C109.239 261.211 109.177 264.275 108.958 267.793Z" fill="#FFBC96"/>
<path d="M94.8573 265.454C97.1127 259.469 102.276 258.882 102.276 258.882C102.276 258.882 114.219 270.708 113.49 258.487C112.904 248.771 103.428 249.694 103.428 249.694C98.7921 243.66 91.3563 246.02 88.6463 249.521C85.9364 253.022 86.8941 251.006 80.5097 253.282C74.1252 255.558 77.536 265.263 76.3979 265.964C67.9143 265.964 69.4895 274.361 69.4895 274.361L89.5763 280.912L94.4132 267.706L94.8573 265.454Z" fill="#1B1B43"/>
<path d="M96.197 271.766C97.8532 270.81 98.1893 268.291 96.9475 266.141C95.7057 263.99 93.3564 263.021 91.7001 263.978C90.0438 264.934 89.7078 267.453 90.9496 269.603C92.1914 271.754 94.5407 272.723 96.197 271.766Z" fill="#FFBC96"/>
<path d="M94.3862 268.73C94.1638 268.204 93.8606 267.716 93.4875 267.283C93.2958 267.094 93.0771 266.935 92.8386 266.811C92.5923 266.679 92.3182 266.568 92.0371 266.436L92.0822 266.207C92.4067 266.188 92.7318 266.232 93.0399 266.336C93.367 266.443 93.6635 266.627 93.9039 266.874C94.1387 267.119 94.3185 267.411 94.4313 267.731C94.5406 268.034 94.6015 268.352 94.6117 268.674L94.3862 268.73Z" fill="#1B1B43"/>
<path d="M86.8694 254.273C90.5925 254.097 93.4558 250.683 93.2648 246.647C93.0738 242.612 89.9008 239.484 86.1778 239.66C82.4547 239.837 79.5914 243.251 79.7824 247.286C79.9733 251.321 83.1463 254.449 86.8694 254.273Z" fill="#1B1B43"/>
<path opacity="0.2" d="M102.029 275.402C103.706 275.402 105.065 274.043 105.065 272.366C105.065 270.689 103.706 269.33 102.029 269.33C100.352 269.33 98.9932 270.689 98.9932 272.366C98.9932 274.043 100.352 275.402 102.029 275.402Z" fill="#FE5B52"/>
<path d="M113.959 350.87L62.9287 344.364L72.547 293.643C72.8521 292.035 73.5084 290.514 74.4691 289.188C75.4297 287.863 76.6711 286.766 78.1045 285.976C79.5379 285.186 81.1281 284.722 82.7615 284.618C84.395 284.513 86.0314 284.77 87.5539 285.371L104.945 293.098C106.59 293.827 108.015 294.974 109.081 296.424C110.146 297.875 110.813 299.579 111.017 301.366L111.999 317.931L113.119 336.713L113.959 350.87Z" fill="#FFA121"/>
<path d="M160.655 314.437L174.163 310.468C174.643 310.325 175.149 310.29 175.644 310.364C176.139 310.438 176.612 310.621 177.029 310.898C180.725 313.351 190.561 320.298 188.084 323.136C186.842 324.555 175.548 321.231 175.548 321.231L159.194 325.801L160.655 314.437Z" fill="#FFBC96"/>
<path d="M113.119 336.713C108.865 331.3 106.342 324.153 105.485 315.305L111.981 317.931L113.119 336.713Z" fill="#1B1B43"/>
<path d="M103.404 292.463L105.437 293.337C109.624 295.142 113.375 297.822 116.44 301.196L133.189 319.642L160.656 314.437L164.271 329.184L129.757 339.971C128.416 340.211 127.036 340.107 125.745 339.671C124.455 339.235 123.295 338.48 122.373 337.477L97.4775 310.388L103.404 292.463Z" fill="#FFA121"/>
<path d="M132.869 319.937C132.786 319.847 124.614 310.95 117.539 303.015C110.541 295.173 99.8781 291.36 99.7705 291.322L100.059 290.503C100.166 290.541 111.037 294.424 118.185 302.439C125.26 310.368 133.424 319.261 133.507 319.347L132.869 319.937Z" fill="#1B1B43"/>
<path d="M99.5195 313.275L98.8965 313.879L122.056 337.786L122.679 337.183L99.5195 313.275Z" fill="#1B1B43"/>
<path d="M112.109 427.588L101.1 449.031L128.91 463.31L121.509 446.384L127.546 432.973L112.109 427.588Z" fill="#DFD2EB"/>
<path d="M121.368 445.983L113.466 448.309L113.711 449.141L121.613 446.815L121.368 445.983Z" fill="#1B1B43"/>
<path d="M129.428 441.693L104.233 432.293L121.506 378.594C124.469 370.645 133.605 366.713 141.912 369.812C150.215 372.907 154.542 381.866 151.575 389.812L129.428 441.693Z" fill="#7E6298"/>
<path d="M153.861 438.049L156.318 463.566H187.581L173.268 451.89L169.909 437.182L153.861 438.049Z" fill="#DFD2EB"/>
<path d="M173.076 451.492L165.668 455.576L166.087 456.336L173.495 452.251L173.076 451.492Z" fill="#1B1B43"/>
<path d="M176.416 441.085L149.091 445.422L130.378 390.398L126.971 380.364L80.5 380.738C77.7889 380.8 75.0956 380.286 72.5981 379.229C70.1006 378.173 67.8557 376.598 66.0119 374.61C64.1681 372.621 62.7673 370.264 61.902 367.694C61.0368 365.124 60.7269 362.399 60.9927 359.701L62.9288 344.364L108.904 350.148L139.115 353.473C151.693 355.641 155.552 363.257 158.172 373.042L176.416 441.085Z" fill="#7E6298"/>
<path d="M130.378 390.399L126.971 380.364L133.261 380.146C133.841 383.928 132.342 388.154 130.378 390.399Z" fill="#1B1B43"/>
<path d="M545.082 463.133H18.5391V464H545.082V463.133Z" fill="#1B1B43"/>
</g>
<defs>
<clipPath id="clip0_4893_35462">
<rect width="573.337" height="464" fill="white"/>
</clipPath>
<clipPath id="clip1_4893_35462">
<rect width="10" height="30" fill="white" transform="translate(302 225) rotate(90)"/>
</clipPath>
</defs>
</svg>
