<svg width="573" height="427" viewBox="0 0 573 427" fill="none" xmlns="http://www.w3.org/2000/svg">
<g clipPath="url(#clip0_4893_35462)">
<path opacity="0.4" d="M519.905 302.074C530.193 291.786 530.193 275.106 519.905 264.819C509.617 254.531 492.938 254.531 482.65 264.819C472.362 275.106 472.362 291.786 482.65 302.074C492.938 312.361 509.617 312.361 519.905 302.074Z" fill="#F0EBF4"/>
<path opacity="0.4" d="M96.2159 127.994C111.909 112.3 111.909 86.8561 96.2159 71.1627C80.5225 55.4694 55.0785 55.4694 39.3851 71.1627C23.6917 86.8561 23.6917 112.3 39.3851 127.994C55.0785 143.687 80.5225 143.687 96.2159 127.994Z" fill="#F0EBF4"/>
<path opacity="0.4" d="M206.803 60.9441C218.373 60.9441 227.753 51.5644 227.753 39.994C227.753 28.4236 218.373 19.0439 206.803 19.0439C195.232 19.0439 185.853 28.4236 185.853 39.994C185.853 51.5644 195.232 60.9441 206.803 60.9441Z" fill="#F0EBF4"/>
<path d="M176.813 50.3494C175.51 50.3436 174.21 50.2369 172.924 50.0301L173.048 49.2414C174.294 49.4364 175.552 49.5347 176.813 49.5351H176.957V50.3334L176.813 50.3494ZM181.002 49.9981L180.868 49.2094C182.159 48.9915 183.431 48.6712 184.671 48.2515L184.927 49.0083C183.646 49.4405 182.334 49.7715 181.002 49.9981ZM168.974 49.1009C167.689 48.6792 166.44 48.156 165.238 47.5362L165.602 46.8274C166.767 47.4268 167.978 47.9329 169.223 48.3409L168.974 49.1009ZM188.634 47.3926L188.26 46.6901C189.417 46.075 190.522 45.3681 191.565 44.5762L192.047 45.2149C190.973 46.0294 189.836 46.7575 188.647 47.3926H188.634ZM161.812 45.3969C160.724 44.5944 159.703 43.7048 158.759 42.737L159.331 42.1782C160.244 43.1158 161.231 43.9776 162.284 44.755L161.812 45.3969ZM195.078 42.523L194.5 41.9738C195.4 41.0233 196.223 40.0026 196.962 38.9212L197.619 39.3714C196.857 40.4835 196.007 41.5331 195.078 42.5103V42.523ZM156.173 39.6301C155.397 38.5226 154.713 37.3544 154.126 36.1368L154.844 35.7888C155.414 36.9681 156.077 38.0999 156.827 39.1735L156.173 39.6301ZM199.628 35.8398L198.903 35.5014C199.455 34.3147 199.911 33.0857 200.266 31.8261L201.033 32.0464C200.665 33.346 200.196 34.6145 199.628 35.8398ZM152.66 32.3466C152.271 31.051 151.988 29.7257 151.814 28.3839L152.603 28.2817C152.774 29.5787 153.049 30.86 153.423 32.1135L152.66 32.3466ZM201.834 28.0742L201.039 27.9816C201.151 27.0384 201.208 26.0895 201.208 25.1397C201.208 24.7821 201.208 24.4181 201.183 24.0604L201.981 24.0253C201.997 24.3925 202.007 24.7693 202.007 25.1397C202.01 26.1245 201.956 27.1086 201.844 28.087L201.834 28.0742ZM152.405 24.3638L151.606 24.3382C151.65 22.9859 151.803 21.6394 152.063 20.3117L152.845 20.465C152.598 21.751 152.454 23.0548 152.414 24.3638H152.405ZM200.701 20.168C200.432 18.8866 200.062 17.6287 199.593 16.4065L200.337 16.1191C200.822 17.3819 201.205 18.6814 201.483 20.0052L200.701 20.168ZM153.918 16.6875L153.171 16.4129C153.64 15.1447 154.209 13.9157 154.873 12.7376L155.569 13.1304C154.926 14.2706 154.374 15.46 153.918 16.6875ZM199.519 16.2181C199.04 15.0039 198.465 13.8295 197.801 12.7057L198.488 12.3002C199.175 13.4647 199.769 14.6819 200.263 15.9403L199.519 16.2181ZM157.766 9.88616L157.127 9.38804C157.973 8.3329 158.902 7.34731 159.905 6.44078L160.442 7.03151C159.475 7.91001 158.58 8.86462 157.766 9.88616ZM195.537 9.4966C194.697 8.49313 193.778 7.5588 192.788 6.70262L193.309 6.09913C194.332 6.97883 195.282 7.93991 196.15 8.97294L195.537 9.4966ZM163.568 4.64306L163.134 3.96931C164.271 3.23718 165.465 2.59654 166.704 2.05344L167.023 2.78467C165.824 3.31122 164.668 3.93265 163.568 4.64306ZM189.624 4.37803C188.509 3.68991 187.341 3.09298 186.13 2.59308L186.45 1.85547C187.696 2.37293 188.9 2.98902 190.048 3.6979L189.624 4.37803ZM170.733 1.50422L170.535 0.731484C171.845 0.392516 173.18 0.160786 174.527 0.0385824L174.597 0.833666C173.293 0.954711 172.001 1.18002 170.733 1.50742V1.50422ZM182.398 1.38608C181.123 1.08487 179.827 0.886258 178.521 0.792154L178.576 -0.00292969C179.926 0.0996549 181.266 0.310007 182.583 0.626115L182.398 1.38608Z" fill="#9881AE"/>
<path d="M428.303 329.332V328.534C429.625 328.512 430.959 328.457 432.269 328.374L432.32 329.169C430.985 329.256 429.638 329.31 428.303 329.332ZM424.292 329.31C422.964 329.272 421.616 329.201 420.291 329.099L420.352 328.304C421.664 328.403 422.999 328.473 424.318 328.512L424.292 329.31ZM436.302 328.821L436.212 328.026C437.525 327.883 438.846 327.707 440.149 327.496L440.274 328.285C438.961 328.493 437.624 328.674 436.302 328.821ZM416.303 328.706C414.984 328.544 413.65 328.346 412.337 328.122L412.471 327.337C413.774 327.557 415.096 327.752 416.399 327.911L416.303 328.706ZM444.217 327.563L444.054 326.781C445.332 326.513 446.647 326.209 447.921 325.881L448.119 326.653C446.836 326.985 445.523 327.282 444.221 327.563H444.217ZM408.403 327.353C407.104 327.068 405.791 326.746 404.508 326.395L404.718 325.625C405.996 325.97 407.273 326.286 408.573 326.583L408.403 327.353ZM451.977 325.561L451.74 324.798C453.018 324.408 454.269 323.984 455.505 323.521L455.78 324.271C454.528 324.728 453.251 325.168 451.977 325.561ZM400.666 325.261C399.389 324.852 398.112 324.409 396.87 323.939L397.151 323.192C398.39 323.655 399.657 324.096 400.909 324.501L400.666 325.261ZM459.506 322.837L459.187 322.1C460.397 321.599 461.613 321.056 462.808 320.503L463.149 321.225C461.958 321.784 460.726 322.33 459.506 322.837ZM393.131 322.438C391.904 321.911 390.678 321.346 389.481 320.762L389.832 320.043C391.017 320.625 392.233 321.183 393.447 321.704L393.131 322.438ZM466.722 319.421L466.349 318.715C467.511 318.096 468.673 317.438 469.807 316.771L470.213 317.457C469.082 318.137 467.91 318.795 466.735 319.421H466.722ZM385.914 318.916C384.749 318.278 383.58 317.601 382.443 316.905L382.858 316.225C383.985 316.914 385.145 317.585 386.3 318.217L385.914 318.916ZM473.607 315.334L473.166 314.666C474.271 313.938 475.366 313.178 476.426 312.406L476.899 313.044C475.832 313.83 474.734 314.599 473.62 315.334H473.607ZM379.081 314.733C377.982 313.989 376.884 313.204 375.814 312.406L376.293 311.767C377.35 312.559 378.439 313.335 379.528 314.072L379.081 314.733ZM480.092 310.614L479.594 309.976C480.619 309.152 481.641 308.29 482.627 307.421L483.157 308.018C482.158 308.912 481.127 309.781 480.092 310.614ZM372.659 309.928C371.631 309.078 370.61 308.197 369.626 307.303L370.162 306.712C371.12 307.597 372.149 308.472 373.167 309.311L372.659 309.928ZM486.098 305.31L485.543 304.736C486.501 303.819 487.423 302.868 488.327 301.907L488.908 302.453C487.998 303.423 487.053 304.384 486.098 305.31ZM366.72 304.544C365.762 303.586 364.84 302.628 363.945 301.651L364.533 301.112C365.421 302.069 366.347 303.047 367.282 303.985L366.72 304.544ZM491.571 299.464L490.965 298.947C491.824 297.941 492.667 296.906 493.474 295.865L494.113 296.354C493.302 297.404 492.437 298.452 491.584 299.464H491.571ZM361.292 298.63C360.443 297.609 359.603 296.552 358.801 295.495L359.44 295.013C360.232 296.06 361.062 297.107 361.908 298.12L361.292 298.63ZM496.501 293.116L495.863 292.656C496.623 291.577 497.367 290.466 498.072 289.354L498.746 289.782C498.018 290.916 497.268 292.037 496.501 293.116ZM356.48 292.228C355.73 291.133 354.995 289.993 354.296 288.872L354.973 288.454C355.666 289.575 356.394 290.689 357.138 291.778L356.48 292.228ZM500.809 286.343L500.116 285.947C500.755 284.804 501.393 283.629 502.006 282.451L502.715 282.812C502.105 284.016 501.464 285.203 500.806 286.356L500.809 286.343ZM352.275 285.417C351.636 284.255 350.997 283.064 350.416 281.873L351.131 281.522C351.713 282.7 352.332 283.881 352.971 285.034L352.275 285.417ZM504.456 279.194L503.727 278.875C504.274 277.668 504.794 276.435 505.279 275.212L506.023 275.506C505.528 276.745 505.002 277.987 504.452 279.207L504.456 279.194ZM348.727 278.236C348.194 277.016 347.686 275.771 347.21 274.532L347.958 274.248C348.427 275.474 348.915 276.71 349.458 277.913L348.727 278.236ZM507.425 271.712L506.668 271.454C507.093 270.208 507.495 268.934 507.863 267.667L508.632 267.89C508.243 269.193 507.837 270.48 507.409 271.738L507.425 271.712ZM345.882 270.754C345.467 269.477 345.077 268.2 344.723 266.923L345.492 266.709C345.844 267.986 346.23 269.263 346.642 270.509L345.882 270.754ZM509.654 264.014L508.878 263.829C509.197 262.551 509.462 261.242 509.708 259.946L510.494 260.093C510.229 261.427 509.948 262.746 509.638 264.039L509.654 264.014ZM343.746 263.03C343.452 261.753 343.187 260.415 342.954 259.1L343.739 258.962C343.969 260.265 344.234 261.574 344.525 262.855L343.746 263.03ZM511.145 256.14L510.356 256.028C510.538 254.725 510.695 253.4 510.816 252.081L511.611 252.158C511.471 253.521 511.314 254.85 511.129 256.165L511.145 256.14ZM342.347 255.14C342.178 253.825 342.028 252.483 341.929 251.152L342.724 251.088C342.833 252.404 342.973 253.735 343.139 255.038L342.347 255.14ZM511.902 248.157L511.107 248.122C511.167 246.809 511.196 245.475 511.196 244.153H511.994C511.966 245.513 511.937 246.86 511.873 248.182L511.902 248.157ZM341.709 247.151C341.673 246.161 341.654 245.152 341.654 244.153C341.654 243.814 341.654 243.479 341.654 243.14H342.453C342.453 243.476 342.453 243.808 342.453 244.143C342.453 245.133 342.472 246.132 342.504 247.113L341.709 247.151ZM511.171 242.189C511.142 240.87 511.081 239.535 510.989 238.223L511.784 238.166C511.876 239.491 511.94 240.838 511.969 242.173L511.171 242.189ZM342.596 239.181L341.801 239.136C341.878 237.805 341.986 236.46 342.12 235.142L342.912 235.225C342.756 236.556 342.647 237.875 342.571 239.206L342.596 239.181ZM510.621 234.27C510.468 232.964 510.283 231.639 510.069 230.336L510.858 230.208C511.072 231.521 511.26 232.859 511.413 234.177L510.621 234.27ZM343.426 231.288L342.638 231.166C342.839 229.851 343.075 228.522 343.337 227.22L344.123 227.376C343.835 228.692 343.602 230.007 343.401 231.313L343.426 231.288ZM509.331 226.434C509.057 225.157 508.747 223.848 508.409 222.574L509.181 222.369C509.52 223.646 509.82 224.968 510.111 226.268L509.331 226.434ZM344.997 223.503L344.225 223.308C344.544 222.031 344.908 220.718 345.294 219.447L346.058 219.677C345.652 220.951 345.294 222.251 344.972 223.528L344.997 223.503ZM507.307 218.758C506.908 217.5 506.477 216.235 506.03 214.999L506.777 214.725C507.237 215.973 507.674 217.247 508.073 218.518L507.307 218.758ZM347.3 215.884L346.549 215.619C346.996 214.361 347.479 213.1 347.983 211.867L348.721 212.167C348.197 213.425 347.718 214.674 347.274 215.919L347.3 215.884ZM504.567 211.308C504.056 210.098 503.507 208.885 502.936 207.694L503.657 207.349C504.232 208.549 504.784 209.775 505.302 210.995L504.567 211.308ZM350.317 208.524L349.596 208.185C350.158 206.982 350.758 205.771 351.377 204.587L352.083 204.96C351.444 206.167 350.85 207.365 350.292 208.559L350.317 208.524ZM501.138 204.162C500.499 203.006 499.861 201.847 499.174 200.717L499.861 200.305C500.547 201.448 501.214 202.617 501.84 203.782L501.138 204.162ZM354.015 201.483L353.328 201.081C354.002 199.931 354.714 198.785 355.442 197.667L356.11 198.105C355.362 199.238 354.657 200.381 353.989 201.518L354.015 201.483ZM497.051 197.367C496.319 196.272 495.553 195.18 494.771 194.12L495.409 193.644C496.198 194.717 496.971 195.818 497.708 196.923L497.051 197.367ZM358.357 194.813L357.719 194.346C358.495 193.27 359.315 192.194 360.139 191.153L360.778 191.651C359.922 192.727 359.105 193.81 358.326 194.86L358.357 194.813ZM492.341 190.981C491.511 189.959 490.645 188.94 489.767 187.96L490.364 187.427C491.249 188.42 492.124 189.445 492.96 190.476L492.341 190.981ZM363.304 188.608L362.703 188.085C363.581 187.082 364.491 186.086 365.414 185.128L365.989 185.683C365.05 186.667 364.147 187.65 363.278 188.643L363.304 188.608ZM487.053 185.061C486.13 184.103 485.172 183.186 484.208 182.289L484.751 181.705C485.725 182.608 486.689 183.55 487.625 184.502L487.053 185.061ZM368.809 182.883L368.259 182.305C369.217 181.389 370.226 180.485 371.232 179.616L371.753 180.223C370.731 181.117 369.741 182.011 368.783 182.918L368.809 182.883ZM481.232 179.658C480.229 178.809 479.188 177.969 478.138 177.164L478.623 176.526C479.683 177.337 480.734 178.183 481.749 179.042L481.232 179.658ZM374.818 177.701L374.326 177.062C375.374 176.241 376.453 175.437 377.519 174.667L377.982 175.306C376.9 176.123 375.83 176.925 374.792 177.736L374.818 177.701ZM474.929 174.827C473.846 174.073 472.729 173.336 471.614 172.636L472.039 171.959C473.163 172.665 474.274 173.409 475.385 174.172L474.929 174.827ZM381.287 173.109L380.853 172.438C381.974 171.72 383.123 171.017 384.273 170.353L384.672 171.046C383.507 171.733 382.37 172.416 381.262 173.138L381.287 173.109ZM468.169 170.631C467.019 169.992 465.838 169.354 464.656 168.76L465.014 168.048C466.205 168.645 467.396 169.28 468.558 169.935L468.169 170.631ZM388.124 169.172L387.757 168.463C388.935 167.853 390.145 167.265 391.352 166.71L391.671 167.435C390.493 167.984 389.299 168.584 388.127 169.172H388.124ZM461.064 167.058C459.857 166.518 458.621 166.004 457.392 165.525L457.68 164.781C458.922 165.267 460.17 165.784 461.387 166.327L461.064 167.058ZM395.324 165.87L395.027 165.129C396.263 164.634 397.527 164.171 398.782 163.724L399.044 164.478C397.805 164.909 396.554 165.391 395.327 165.87H395.324ZM453.65 164.171C452.398 163.75 451.121 163.357 449.856 162.996L450.073 162.23C451.351 162.591 452.628 162.99 453.905 163.415L453.65 164.171ZM402.825 163.261L402.598 162.495C403.875 162.118 405.172 161.767 406.468 161.451L406.657 162.224C405.379 162.54 404.089 162.888 402.828 163.261H402.825ZM446.009 162.003C444.731 161.706 443.419 161.435 442.123 161.195L442.266 160.41C443.575 160.649 444.894 160.924 446.191 161.227L446.009 162.003ZM410.536 161.365L410.373 160.601C411.679 160.346 413.008 160.119 414.323 159.928L414.441 160.716C413.148 160.895 411.833 161.119 410.539 161.371L410.536 161.365ZM438.201 160.566C436.895 160.388 435.567 160.247 434.255 160.126L434.322 159.324C435.647 159.439 436.988 159.589 438.304 159.768L438.201 160.566ZM418.404 160.215L418.324 159.42C419.646 159.289 420.991 159.187 422.322 159.101L422.364 159.899C421.035 159.992 419.704 160.091 418.395 160.221L418.404 160.215ZM430.305 159.87C429.146 159.826 427.968 159.8 426.792 159.8H426.339V159.005H426.818C427.99 159.005 429.178 159.03 430.33 159.078L430.305 159.87Z" fill="#9881AE"/>
<path d="M81.2684 235.959C79.9305 235.959 78.5798 235.895 77.2547 235.796L77.3153 234.998C78.6213 235.1 79.9528 235.154 81.2748 235.16L81.2684 235.959ZM85.2854 235.841L85.2343 235.045C86.5434 234.959 87.8718 234.825 89.1746 234.646L89.2831 235.438C87.9612 235.611 86.6169 235.745 85.2854 235.831V235.841ZM73.2633 235.346C71.9413 235.148 70.613 234.902 69.3134 234.611L69.4858 233.832C70.763 234.119 72.0786 234.362 73.3814 234.557L73.2633 235.346ZM93.2394 234.749L93.0766 233.969C94.3538 233.698 95.6534 233.375 96.9083 233.011L97.1286 233.778C95.8514 234.139 94.5454 234.464 93.2394 234.739V234.749ZM65.4273 233.593C64.1501 233.209 62.8728 232.772 61.6179 232.296L61.9021 231.549C63.1315 232.018 64.396 232.449 65.6572 232.826L65.4273 233.593ZM100.96 232.52L100.686 231.769C101.915 231.316 103.148 230.811 104.345 230.269L104.664 230.997C103.457 231.546 102.206 232.06 100.96 232.52ZM57.9171 230.719C56.7069 230.154 55.5031 229.537 54.3344 228.886L54.724 228.19C55.8735 228.828 57.0614 229.438 58.2524 229.994L57.9171 230.719ZM108.269 229.215L107.889 228.512C109.045 227.874 110.192 227.21 111.3 226.501L111.731 227.174C110.604 227.893 109.438 228.579 108.266 229.215H108.269ZM50.8923 226.804C49.7779 226.073 48.673 225.294 47.6129 224.483L48.0983 223.844C49.1424 224.642 50.2313 225.412 51.3297 226.133L50.8923 226.804ZM115.032 224.888L114.557 224.25C115.61 223.464 116.651 222.631 117.648 221.775L118.168 222.378C117.159 223.253 116.102 224.096 115.032 224.895V224.888ZM44.506 221.931C43.5066 221.05 42.5263 220.118 41.5907 219.166L42.1591 218.607C43.0819 219.546 44.0494 220.462 45.0329 221.334L44.506 221.931ZM121.119 219.655L120.557 219.086C121.489 218.16 122.399 217.186 123.264 216.212L123.865 216.736C122.993 217.726 122.064 218.716 121.119 219.655ZM38.8797 216.203C38.0144 215.184 37.1746 214.124 36.3859 213.051L37.0245 212.579C37.8005 213.636 38.6211 214.683 39.48 215.686L38.8797 216.203ZM126.397 213.607L125.758 213.125C126.55 212.074 127.313 210.982 128.028 209.877L128.699 210.312C127.977 211.426 127.201 212.534 126.397 213.607ZM34.1156 209.74C33.4035 208.61 32.7266 207.441 32.0975 206.266L32.8032 205.889C33.4195 207.048 34.0805 208.201 34.7893 209.312L34.1156 209.74ZM130.755 206.866L130.056 206.483C130.695 205.327 131.289 204.136 131.838 202.942L132.563 203.261C132.017 204.475 131.407 205.685 130.765 206.853L130.755 206.866ZM30.3445 202.654C29.8017 201.435 29.2972 200.183 28.847 198.931L29.5973 198.66C30.0412 199.892 30.5393 201.128 31.0726 202.329L30.3445 202.654ZM134.121 199.548L133.374 199.27C133.837 198.037 134.258 196.773 134.629 195.511L135.395 195.738C135.015 197.003 134.587 198.299 134.118 199.557L134.121 199.548ZM27.6176 195.106C27.2568 193.829 26.9375 192.507 26.6597 191.201L27.442 191.041C27.707 192.318 28.0199 193.621 28.3776 194.873L27.6176 195.106ZM136.385 191.846L135.606 191.677C135.887 190.399 136.12 189.08 136.308 187.778L137.097 187.889C136.909 189.211 136.669 190.543 136.385 191.846ZM26.0051 187.238C25.8326 185.916 25.7049 184.572 25.6251 183.24L26.4234 183.192C26.5 184.505 26.6277 185.833 26.797 187.133L26.0051 187.238ZM137.525 183.911L136.727 183.857C136.819 182.547 136.867 181.216 136.867 179.897H137.681C137.681 181.219 137.617 182.57 137.525 183.911ZM26.3276 179.23H25.5293C25.5453 177.892 25.6091 176.541 25.7177 175.216L26.5128 175.28C26.4074 176.583 26.3435 177.914 26.3276 179.23ZM136.81 177.224C136.749 175.906 136.637 174.577 136.49 173.278L137.282 173.182C137.439 174.504 137.55 175.848 137.601 177.186L136.81 177.224ZM26.9822 171.343L26.1935 171.221C26.3978 169.899 26.6533 168.574 26.9502 167.275L27.7294 167.454C27.4324 168.734 27.1993 170.043 26.9822 171.343ZM135.868 169.363C135.618 168.086 135.318 166.773 134.98 165.502L135.749 165.298C136.097 166.575 136.388 167.904 136.653 169.213L135.868 169.363ZM28.7544 163.615L27.9912 163.379C28.384 162.102 28.8278 160.825 29.3099 159.579L30.054 159.87C29.5782 161.109 29.1407 162.37 28.7544 163.628V163.615ZM133.808 161.699C133.377 160.461 132.895 159.218 132.374 158.011L133.109 157.692C133.636 158.918 134.124 160.176 134.562 161.434L133.808 161.699ZM31.6282 156.22L30.9065 155.878C31.4781 154.675 32.1007 153.471 32.7585 152.309L33.4546 152.701C32.8 153.867 32.187 155.051 31.6218 156.239L31.6282 156.22ZM130.692 154.438C130.085 153.27 129.414 152.111 128.744 150.993L129.424 150.575C130.12 151.711 130.787 152.886 131.4 154.087L130.692 154.438ZM35.5365 149.329L34.8628 148.901C35.6004 147.79 36.3891 146.692 37.2033 145.635L37.842 146.123C37.0245 147.164 36.2486 148.247 35.5206 149.342L35.5365 149.329ZM126.563 147.701C125.796 146.631 124.966 145.577 124.142 144.565L124.756 144.058C125.608 145.083 126.435 146.152 127.211 147.235L126.563 147.701ZM40.3613 143.074L39.7674 142.544C40.6551 141.548 41.5907 140.574 42.5486 139.645L43.1042 140.216C42.1623 141.123 41.249 142.081 40.3613 143.074ZM121.489 141.624C120.576 140.666 119.621 139.747 118.644 138.865L119.18 138.275C120.17 139.169 121.141 140.111 122.054 141.072L121.489 141.624ZM46.0387 137.56L45.5246 136.95C46.5432 136.091 47.6097 135.26 48.689 134.475L49.1584 135.114C48.0983 135.896 47.0477 136.717 46.0387 137.56ZM115.607 136.314C114.569 135.503 113.49 134.718 112.414 133.986L112.861 133.325C113.969 134.069 115.061 134.865 116.115 135.685L115.607 136.314ZM52.4473 132.914L52.0258 132.233C53.1594 131.531 54.3312 130.857 55.5095 130.238L55.8831 130.943C54.7208 131.544 53.5649 132.217 52.4473 132.914ZM109.042 131.895C107.899 131.24 106.718 130.618 105.53 130.049L105.875 129.328C107.078 129.909 108.276 130.538 109.435 131.202L109.042 131.895ZM59.4498 129.225L59.1305 128.494C60.3503 127.961 61.6052 127.466 62.8633 127.019L63.1283 127.773C61.8894 128.21 60.6504 128.702 59.4498 129.225ZM101.918 128.459C100.695 127.974 99.4373 127.53 98.1824 127.137L98.4187 126.374C99.6959 126.773 100.973 127.227 102.212 127.715L101.918 128.459ZM66.9249 126.585L66.711 125.815C67.9882 125.461 69.3134 125.151 70.6225 124.889L70.7758 125.672C69.4666 125.93 68.1702 126.237 66.9058 126.585H66.9249ZM94.3634 126.087C93.0861 125.786 91.777 125.528 90.4774 125.317L90.6051 124.528C91.9207 124.742 93.249 125.004 94.5454 125.311L94.3634 126.087ZM74.6874 125.039L74.5884 124.247C75.9072 124.085 77.2547 123.963 78.5894 123.893L78.6309 124.691C77.2962 124.758 75.971 124.876 74.6682 125.039H74.6874ZM86.5275 124.838C85.2215 124.72 83.89 124.653 82.5744 124.627V123.829C83.9091 123.855 85.2598 123.925 86.585 124.043L86.5275 124.838Z" fill="#9881AE"/>
<path d="M306.109 45.4699C303.444 45.4706 300.839 44.6809 298.623 43.2008C296.407 41.7208 294.68 39.6168 293.66 37.155C292.64 34.6933 292.373 31.9843 292.893 29.3707C293.412 26.7572 294.695 24.3564 296.58 22.4722C298.464 20.5879 300.865 19.3048 303.478 18.7851C306.092 18.2654 308.801 18.5324 311.262 19.5525C313.724 20.5725 315.828 22.2997 317.308 24.5156C318.788 26.7315 319.578 29.3366 319.577 32.0013C319.573 35.5721 318.153 38.9955 315.628 41.5204C313.103 44.0453 309.68 45.4657 306.109 45.4699ZM306.109 19.1299C303.563 19.1299 301.074 19.8848 298.958 21.2991C296.841 22.7134 295.191 24.7237 294.217 27.0756C293.243 29.4276 292.988 32.0156 293.485 34.5124C293.981 37.0093 295.207 39.3027 297.007 41.1028C298.807 42.903 301.101 44.1288 303.598 44.6255C306.094 45.1221 308.683 44.8672 311.034 43.893C313.386 42.9188 315.397 41.269 316.811 39.1523C318.225 37.0356 318.98 34.5471 318.98 32.0013C318.973 28.5914 317.614 25.3236 315.201 22.9139C312.788 20.5042 309.519 19.1492 306.109 19.1458V19.1299Z" fill="#9881AE"/>
<path d="M446.258 93.8263V336.558C446.258 337.759 446.022 338.948 445.563 340.058C445.104 341.167 444.43 342.176 443.582 343.025C442.733 343.875 441.725 344.549 440.615 345.009C439.506 345.469 438.317 345.706 437.116 345.706H84.3719C83.1706 345.706 81.9809 345.469 80.871 345.01C79.7611 344.55 78.7526 343.876 77.9031 343.027C77.0536 342.177 76.3797 341.169 75.92 340.059C75.4603 338.949 75.2236 337.759 75.2236 336.558V93.8263C75.2236 91.3997 76.1874 89.0725 77.9029 87.3564C79.6185 85.6402 81.9454 84.6757 84.3719 84.6748H437.116C439.542 84.6765 441.867 85.6415 443.582 87.3577C445.296 89.0738 446.259 91.4006 446.258 93.8263Z" fill="white"/>
<path d="M437.116 346.122H84.3716C81.8403 346.119 79.4133 345.112 77.6234 343.322C75.8335 341.532 74.8268 339.105 74.8242 336.574V93.8267C74.8268 91.2954 75.8335 88.8684 77.6234 87.0785C79.4133 85.2885 81.8403 84.2818 84.3716 84.2793H437.116C439.646 84.2835 442.071 85.2911 443.859 87.0809C445.647 88.8708 446.652 91.2968 446.653 93.8267V336.558C446.656 339.091 445.653 341.521 443.864 343.314C442.076 345.108 439.648 346.117 437.116 346.122ZM84.3716 85.0776C82.052 85.0801 79.8281 86.0027 78.1879 87.6429C76.5476 89.2832 75.625 91.5071 75.6225 93.8267V336.558C75.625 338.878 76.5476 341.102 78.1879 342.742C79.8281 344.382 82.052 345.305 84.3716 345.307H437.116C439.434 345.303 441.656 344.38 443.294 342.739C444.932 341.099 445.853 338.876 445.855 336.558V93.8267C445.853 91.5085 444.932 89.2855 443.294 87.6454C441.656 86.0053 439.434 85.0818 437.116 85.0776H84.3716Z" fill="#9881AE"/>
<path d="M446.258 93.8263V108.234H75.2236V93.8263C75.2236 91.3997 76.1874 89.0725 77.9029 87.3564C79.6185 85.6402 81.9453 84.6757 84.3719 84.6748H437.116C439.542 84.6765 441.867 85.6415 443.582 87.3577C445.296 89.0738 446.259 91.4006 446.258 93.8263Z" fill="white"/>
<path d="M446.653 108.627H74.8242V93.8267C74.8268 91.2954 75.8335 88.8684 77.6234 87.0785C79.4133 85.2885 81.8403 84.2818 84.3716 84.2793H437.116C439.646 84.2835 442.071 85.2911 443.859 87.0809C445.647 88.8708 446.652 91.2968 446.653 93.8267V108.627ZM75.6129 107.829H445.855V93.8267C445.853 91.5085 444.932 89.2855 443.294 87.6454C441.656 86.0053 439.434 85.0818 437.116 85.0776H84.3716C82.052 85.0801 79.8281 86.0027 78.1879 87.6429C76.5476 89.2832 75.625 91.5071 75.6225 93.8267L75.6129 107.829Z" fill="#9881AE"/>
<path d="M95.8228 100.708C98.1736 100.708 100.079 98.8025 100.079 96.4517C100.079 94.101 98.1736 92.1953 95.8228 92.1953C93.4721 92.1953 91.5664 94.101 91.5664 96.4517C91.5664 98.8025 93.4721 100.708 95.8228 100.708Z" fill="#4B0082"/>
<path d="M112.056 92.1953C111.214 92.1953 110.391 92.445 109.691 92.9127C108.992 93.3804 108.446 94.0451 108.124 94.8229C107.802 95.6006 107.717 96.4565 107.882 97.2821C108.046 98.1078 108.451 98.8662 109.046 99.4615C109.642 100.057 110.4 100.462 111.226 100.626C112.052 100.791 112.907 100.706 113.685 100.384C114.463 100.062 115.128 99.5164 115.595 98.8165C116.063 98.1165 116.313 97.2936 116.313 96.4517C116.311 95.3234 115.862 94.2417 115.064 93.4439C114.266 92.646 113.185 92.197 112.056 92.1953Z" fill="#4B0082"/>
<path d="M128.286 100.708C127.445 100.708 126.622 100.457 125.923 99.9893C125.223 99.5212 124.678 98.8562 124.356 98.0784C124.035 97.3006 123.951 96.4449 124.115 95.6194C124.28 94.794 124.686 94.0358 125.281 93.4409C125.876 92.8459 126.635 92.4408 127.46 92.2769C128.286 92.1129 129.142 92.1974 129.919 92.5196C130.697 92.8419 131.361 93.3874 131.829 94.0873C132.297 94.7872 132.546 95.61 132.546 96.4517C132.544 97.5806 132.095 98.6628 131.296 99.4608C130.498 100.259 129.415 100.707 128.286 100.708ZM128.286 92.9936C127.603 92.9942 126.934 93.1976 126.366 93.5779C125.798 93.9583 125.355 94.4986 125.094 95.1306C124.833 95.7625 124.765 96.4577 124.898 97.1283C125.032 97.799 125.362 98.4148 125.845 98.8981C126.329 99.3815 126.945 99.7105 127.616 99.8437C128.287 99.9769 128.982 99.9082 129.614 99.6464C130.245 99.3845 130.785 98.9413 131.165 98.3727C131.545 97.804 131.748 97.1356 131.748 96.4517C131.747 95.5343 131.382 94.6547 130.733 94.0063C130.084 93.3578 129.204 92.9936 128.286 92.9936Z" fill="#9881AE"/>
<path d="M233.046 101.19H153.914C152.658 101.19 151.452 100.691 150.564 99.8022C149.675 98.9135 149.176 97.7082 149.176 96.4515C149.176 95.1947 149.675 93.9894 150.564 93.1008C151.452 92.2121 152.658 91.7129 153.914 91.7129H233.046C234.303 91.7129 235.508 92.2121 236.397 93.1008C237.286 93.9894 237.785 95.1947 237.785 96.4515C237.785 97.7082 237.286 98.9135 236.397 99.8022C235.508 100.691 234.303 101.19 233.046 101.19ZM153.914 92.5112C152.869 92.5112 151.867 92.9263 151.128 93.6653C150.389 94.4042 149.974 95.4064 149.974 96.4515C149.974 97.4965 150.389 98.4987 151.128 99.2377C151.867 99.9766 152.869 100.392 153.914 100.392H233.046C234.091 100.392 235.094 99.9766 235.832 99.2377C236.571 98.4987 236.987 97.4965 236.987 96.4515C236.987 95.4064 236.571 94.4042 235.832 93.6653C235.094 92.9263 234.091 92.5112 233.046 92.5112H153.914Z" fill="#9881AE"/>
<path d="M333.672 221.181C333.672 259.403 302.699 290.392 264.471 290.392C226.243 290.392 195.26 259.419 195.26 221.181C195.26 185.325 222.535 155.834 257.468 152.321L259.777 175.034C250.305 176.001 241.361 179.861 234.16 186.09C226.959 192.318 221.851 200.613 219.53 209.847C217.209 219.081 217.788 228.805 221.189 237.698C224.589 246.592 230.645 254.222 238.534 259.552C246.423 264.882 255.762 267.654 265.281 267.49C274.801 267.326 284.039 264.235 291.74 258.636C299.441 253.037 305.231 245.203 308.323 236.198C311.415 227.193 311.658 217.455 309.021 208.306L330.967 201.968C332.768 208.213 333.678 214.681 333.672 221.181Z" fill="#4B0082"/>
<path d="M264.467 277.061C295.328 277.061 320.346 252.043 320.346 221.181C320.346 190.32 295.328 165.302 264.467 165.302C233.605 165.302 208.587 190.32 208.587 221.181C208.587 252.043 233.605 277.061 264.467 277.061Z" fill="white"/>
<path opacity="0.5" d="M264.467 277.061C295.328 277.061 320.346 252.043 320.346 221.181C320.346 190.32 295.328 165.302 264.467 165.302C233.605 165.302 208.587 190.32 208.587 221.181C208.587 252.043 233.605 277.061 264.467 277.061Z" fill="#DFD2EB"/>
<path d="M264.122 260.474C285.98 260.474 303.7 242.748 303.7 220.883C303.7 199.017 285.98 181.291 264.122 181.291C242.263 181.291 224.543 199.017 224.543 220.883C224.543 242.748 242.263 260.474 264.122 260.474Z" fill="white"/>
<rect width="9.20259" height="27.6078" transform="translate(250.311 207.059)" fill="#4B0082"/>
<path d="M268.716 225.464H273.317C275.858 225.464 277.918 227.524 277.918 230.065C277.918 232.606 275.858 234.666 273.317 234.666C270.776 234.666 268.716 232.606 268.716 230.065V225.464Z" fill="#FFC857"/>
<g clipPath="url(#clip1_4893_35462)">
<rect width="9.20259" height="27.6078" transform="translate(277.918 207.059) rotate(90)" fill="#4B0082" fill-opacity="0.7"/>
</g>
<rect width="9.20259" height="18.4052" transform="translate(268.716 225.464) rotate(-180)" fill="#4B0082" fill-opacity="0.7"/>
<path d="M510.832 37.3242H360.273V129.385H510.832V37.3242Z" fill="white"/>
<path d="M511.231 129.784H359.877V36.9248H511.231V129.784ZM360.672 128.989H510.429V37.7231H360.672V128.989Z" fill="#9881AE"/>
<path d="M387.894 100.082H379.228V115.997H387.894V100.082Z" fill="#CEBFDD"/>
<path d="M405.223 92.8115H396.557V115.997H405.223V92.8115Z" fill="#CEBFDD"/>
<path d="M422.555 98.7568H413.889V115.996H422.555V98.7568Z" fill="#CEBFDD"/>
<path d="M439.888 86.623H431.222V115.993H439.888V86.623Z" fill="#CEBFDD"/>
<path d="M457.217 78.8633H448.551V115.996H457.217V78.8633Z" fill="#CEBFDD"/>
<path d="M474.549 67.7832H465.883V115.996H474.549V67.7832Z" fill="#CEBFDD"/>
<path d="M491.878 50.7168H483.212V115.997H491.878V50.7168Z" fill="#CEBFDD"/>
<path d="M386.115 58.4629H379.228V66.2605H386.115V58.4629Z" fill="#CEBFDD"/>
<path d="M443.394 62.0713H396.755V64.0702H443.394V62.0713Z" fill="#CEBFDD"/>
<path d="M375.358 176.063L365.823 149.723C360.466 151.661 355.828 155.188 352.527 159.831C349.226 164.474 347.419 170.013 347.348 175.709C347.276 181.406 348.944 186.988 352.127 191.713C355.31 196.437 359.859 200.079 365.165 202.151C370.472 204.224 376.284 204.629 381.827 203.313C387.369 201.997 392.379 199.022 396.187 194.785C399.996 190.548 402.421 185.251 403.141 179.6C403.861 173.949 402.841 168.212 400.216 163.156L375.358 176.063Z" fill="#F0EBF4"/>
<path d="M403.94 153.181C400.81 147.153 395.598 142.467 389.272 139.995C382.945 137.523 375.937 137.434 369.55 139.744L379.081 166.084L403.94 153.181Z" fill="#BFABD3"/>
<path d="M415.003 265.814H348.746V328.879H415.003V265.814Z" fill="#F0EBF4"/>
<path d="M396.244 282.578H359.124V285.241H396.244V282.578Z" fill="white"/>
<path d="M396.244 290.562H359.124V293.225H396.244V290.562Z" fill="white"/>
<path d="M162.089 145.274H104.473V242.665H162.089V145.274Z" fill="#F0EBF4"/>
<path d="M151.038 159.378H113.254V193.969H151.038V159.378Z" fill="white"/>
<path d="M113.525 159.064L112.986 159.652L150.773 194.241L151.312 193.652L113.525 159.064Z" fill="#F0EBF4"/>
<path d="M150.764 159.087L112.983 193.683L113.523 194.271L151.303 159.676L150.764 159.087Z" fill="#F0EBF4"/>
<path d="M132.163 185.051H0.379883V271.881H132.163V185.051Z" fill="white"/>
<path d="M132.546 272.261H0V184.671H132.546V272.261ZM0.763156 271.501H131.783V185.431H0.763156V271.501Z" fill="#9881AE"/>
<path d="M14.2666 250.912L22.7795 234.947L40.3416 251.446L52.0508 217.385L73.8694 241.333L88.2384 235.48L114.317 201.419" fill="white"/>
<path d="M40.5204 252.16L22.888 235.594L14.6178 251.1L13.9121 250.727L22.674 234.298L40.1659 250.733L51.8911 216.618L73.9779 240.86L87.9893 235.151L114 201.176L114.633 201.661L88.4906 235.808L73.764 241.808L73.5756 241.604L52.2104 218.154L40.5204 252.16Z" fill="#9881AE"/>
<path d="M22.847 237.077C24.0585 237.077 25.0407 236.095 25.0407 234.883C25.0407 233.672 24.0585 232.689 22.847 232.689C21.6355 232.689 20.6533 233.672 20.6533 234.883C20.6533 236.095 21.6355 237.077 22.847 237.077Z" fill="#9881AE"/>
<path d="M40.2113 253.24C41.4228 253.24 42.4049 252.258 42.4049 251.046C42.4049 249.835 41.4228 248.853 40.2113 248.853C38.9997 248.853 38.0176 249.835 38.0176 251.046C38.0176 252.258 38.9997 253.24 40.2113 253.24Z" fill="#9881AE"/>
<path d="M52.1849 219.713C53.3964 219.713 54.3786 218.73 54.3786 217.519C54.3786 216.307 53.3964 215.325 52.1849 215.325C50.9734 215.325 49.9912 216.307 49.9912 217.519C49.9912 218.73 50.9734 219.713 52.1849 219.713Z" fill="#9881AE"/>
<path d="M94.2126 198.893H38.333V199.691H94.2126V198.893Z" fill="#9881AE"/>
<path d="M313.711 394.935C311.325 379.296 314.513 363.316 322.717 349.789C330.921 336.263 343.619 326.051 358.591 320.94C350.199 326.813 345.077 336.309 341.501 345.907C337.925 355.506 335.584 365.583 331.171 374.831C326.758 384.078 319.81 392.712 310.167 396.174L313.711 394.935Z" fill="#9881AE"/>
<path d="M311.387 395.063C311.043 377.127 307.586 359.387 301.169 342.635C298.895 336.702 296.165 330.782 291.727 326.232C287.288 321.682 280.838 318.69 274.583 319.801C282.371 325.631 286.398 335.224 288.681 344.685C290.964 354.146 291.829 363.968 295.029 373.158C298.228 382.348 304.349 391.205 313.51 394.491L311.387 395.063Z" fill="#9881AE"/>
<path d="M310.17 396.253C305.7 384.257 300.875 371.96 291.919 362.821C282.962 353.683 268.768 348.452 257.04 353.561C266.622 355.772 275.167 361.177 281.269 368.888C285.689 374.502 288.658 381.156 293.202 386.668C297.746 392.179 304.678 396.62 311.7 395.289L310.17 396.253Z" fill="#DFD2EB"/>
<path d="M308.746 395.417C306.923 382.251 305.096 368.875 307.018 355.726C308.941 342.577 315.161 329.447 326.302 322.198C320.136 328.246 318.076 337.404 318.073 346.041C318.07 354.679 319.82 363.236 319.967 371.874C320.113 380.511 318.399 389.682 312.559 396.046L308.746 395.417Z" fill="#DFD2EB"/>
<path d="M314.899 393.497C319.169 382.618 323.719 371.324 332.414 363.514C338.044 358.48 345.048 355.239 352.53 354.206C347.316 358.357 344.053 364.462 341.354 370.558C338.656 376.654 336.309 383.011 332.388 388.398C328.467 393.785 322.579 398.233 315.915 398.52L314.899 393.497Z" fill="#DFD2EB"/>
<path d="M336.594 426.601H288.636L281.244 389.711H343.986L336.594 426.601Z" fill="white"/>
<path d="M336.931 427H288.31L280.758 389.321H344.473L336.931 427ZM288.977 426.202H336.28L343.512 390.12H281.732L288.977 426.202Z" fill="#9881AE"/>
<path d="M422.447 404.419V426.601H393.677L406.848 415.856L407.541 402.34L422.447 404.419Z" fill="#DFD2EB"/>
<path d="M407.121 415.609L406.571 416.188L412.064 421.412L412.614 420.834L407.121 415.609Z" fill="#1B1B43"/>
<path d="M419.656 410.303H409.812V411.101H419.656V410.303Z" fill="#1B1B43"/>
<path d="M456.067 405.459L457.108 426.601H428.338L440.469 416.204V403.377L456.067 405.459Z" fill="#DFD2EB"/>
<path d="M440.737 415.951L440.208 416.549L444.676 420.496L445.204 419.898L440.737 415.951Z" fill="#1B1B43"/>
<path d="M453.452 410.702H443.738V411.5H453.452V410.702Z" fill="#1B1B43"/>
<path d="M425.343 276.908C425.837 321.111 429.562 364.596 436.519 407.363H460.758C455.716 374.665 453.436 334.959 456.255 282.314L438.751 267.977L425.343 276.908Z" fill="#493260"/>
<path d="M406.181 282.754L395.213 331.538C392.576 343.261 392.392 355.402 394.673 367.199L402.391 407.046H426.633L419.289 354.733L436.832 274.991L406.181 282.754Z" fill="#493260"/>
<path d="M426.978 329.517C426.917 328.511 425.538 306.076 425.381 303.234L419.046 300.929L419.317 300.182L426.167 302.669V302.95C426.167 303.442 427.211 320.512 427.763 329.453L426.978 329.517Z" fill="#BE443D"/>
<path d="M479.463 172.614L480.76 169.523C480.76 169.523 476.072 159.643 477.567 158.347C479.061 157.051 481.459 160.742 481.459 160.742C481.459 160.742 480.76 148.768 483.055 148.666C484.991 148.582 484.853 152.06 485.051 157.249C485.051 157.249 486.249 155.652 488.452 157.303C489.442 155.652 491.536 156.75 492.137 157.747C492.836 156.948 495.729 157.15 495.33 160.541C494.822 164.845 492.836 172.815 492.836 172.815L486.45 178.103L479.463 172.614Z" fill="#FFBC96"/>
<path d="M428.175 213.927L437.885 213.85C454.917 212.33 468.22 198.494 468.22 198.494L479.459 172.63L492.832 172.831L484.984 203.246C483.855 207.613 481.426 211.535 478.019 214.492L450.124 238.689L428.175 213.927Z" fill="#FFC857"/>
<path d="M401.558 235.946L406.181 282.753L456.246 282.313L454.516 225.9L428.172 213.926L409.946 221.644L401.558 235.946Z" fill="#FFC857"/>
<path d="M370.552 240.493C369.737 239.766 368.707 239.324 367.618 239.235C362.084 238.772 344.78 237.437 344.946 238.778C345.144 240.375 358.316 246.362 358.316 246.362L366.768 255.871L374.508 244.005L370.552 240.493Z" fill="#FFBC96"/>
<path d="M408.292 218.431C406.532 218.738 404.869 219.45 403.433 220.512C401.997 221.573 400.828 222.954 400.018 224.546L385.263 253.546L374.512 244.005L366.771 255.871L369.594 259.064C373.774 263.767 378.65 270.09 385.177 271.46C388.501 272.156 391.598 270.776 393.98 268.487C395.747 266.751 397.278 264.792 398.537 262.659L404.422 252.962L423.181 215.842L408.292 218.431Z" fill="#FFC857"/>
<path d="M401.965 235.887L401.171 235.965L403.975 264.768L404.769 264.691L401.965 235.887Z" fill="#DFD2EB"/>
<path d="M454.816 234.483L450.125 238.673L455.116 246.956L454.816 234.483Z" fill="#1B1B43"/>
<path d="M486.782 163.203C484.898 163.203 484.754 160.735 484.751 157.248H485.351C485.351 161.351 485.671 162.603 486.782 162.603C486.891 162.603 487 162.579 487.099 162.532C487.198 162.486 487.286 162.418 487.357 162.335C487.89 161.763 488.097 160.419 488.161 159.228C488.12 158.359 488.139 157.602 488.161 157.29H488.762C488.793 157.914 488.793 158.54 488.762 159.164C488.845 160.789 489.116 162.395 489.659 162.558C489.792 162.606 489.936 162.621 490.076 162.6C490.216 162.579 490.349 162.524 490.463 162.44C491.102 161.974 491.472 160.658 491.661 159.483C491.683 158.889 491.742 158.298 491.836 157.711L492.434 157.765C492.41 158.3 492.359 158.833 492.28 159.362C492.239 160.607 492.379 161.814 492.884 162.025C493.028 162.103 493.189 162.145 493.353 162.145C493.517 162.145 493.679 162.103 493.823 162.025C494.509 161.607 494.758 160.195 494.797 159.688L495.394 159.732C495.394 159.819 495.221 161.872 494.136 162.536C493.911 162.666 493.658 162.738 493.399 162.746C493.14 162.753 492.883 162.697 492.651 162.581C492.51 162.52 492.07 162.261 491.824 161.332C491.652 161.953 491.299 162.508 490.812 162.929C490.624 163.067 490.405 163.158 490.174 163.194C489.944 163.231 489.708 163.211 489.486 163.136C488.959 162.977 488.634 162.306 488.436 161.466C488.324 161.935 488.105 162.372 487.797 162.743C487.671 162.888 487.514 163.004 487.339 163.083C487.164 163.163 486.974 163.203 486.782 163.203Z" fill="#D28572"/>
<path d="M423.95 225.284C421.912 225.446 419.894 224.792 418.337 223.467C416.781 222.141 415.814 220.252 415.648 218.215L415.562 217.135L414.349 202.08L423.727 201.329L429.746 200.841L431.039 216.966C431.121 217.978 431.003 218.996 430.691 219.962C430.379 220.928 429.879 221.823 429.221 222.596C428.562 223.369 427.758 224.004 426.853 224.465C425.949 224.926 424.962 225.205 423.95 225.284Z" fill="#FFBC96"/>
<path d="M426.713 206.406C423.791 211.553 419.608 215.261 415.537 217.135L414.323 202.079L423.701 201.329L426.713 206.406Z" fill="#1B1B43"/>
<path d="M429.772 190.638L427.91 206.342C427.91 206.342 421.923 212.067 413.142 211.793C409.949 211.697 408.059 208.664 406.957 204.81C406.501 203.133 406.167 201.425 405.958 199.701C405.516 195.899 405.382 192.067 405.559 188.244L419.129 183.729L429.772 190.638Z" fill="#FFBC96"/>
<path d="M427.709 197.095C426.294 192.06 423.756 189.524 420.323 188.981C409.415 194.901 402.33 191.376 397.173 184.789C409.814 187.251 415.335 169.289 427.444 181.276C436.423 184.003 436.257 192.583 431.167 199.57L427.709 197.095Z" fill="#1B1B43"/>
<path d="M433.309 198.993C433.772 196.623 432.481 194.377 430.427 193.976C428.372 193.575 426.332 195.17 425.869 197.54C425.406 199.909 426.697 202.155 428.751 202.557C430.806 202.958 432.846 201.362 433.309 198.993Z" fill="#FFBC96"/>
<path d="M431.02 196.683C430.381 196.789 429.989 197.265 429.685 197.801C429.387 198.368 429.181 198.979 429.075 199.612H428.842C428.749 199.258 428.735 198.889 428.801 198.529C428.861 198.165 428.985 197.815 429.168 197.495C429.35 197.159 429.609 196.873 429.925 196.658C430.084 196.545 430.265 196.466 430.456 196.428C430.648 196.389 430.845 196.391 431.036 196.434L431.02 196.683Z" fill="#1B1B43"/>
<path d="M408.815 197.727C408.815 198.408 408.496 198.957 408.084 198.957C407.672 198.957 407.353 198.408 407.353 197.727C407.353 197.047 407.672 196.498 408.084 196.498C408.496 196.498 408.815 197.047 408.815 197.727Z" fill="#1B1B43"/>
<path d="M414.863 197.226C414.863 197.964 414.509 198.561 414.071 198.561C413.634 198.561 413.279 197.964 413.279 197.226C413.279 196.489 413.634 195.892 414.071 195.892C414.509 195.892 414.863 196.489 414.863 197.226Z" fill="#1B1B43"/>
<path d="M410.479 198.727C410.47 198.963 410.399 199.194 410.271 199.394C410.155 199.582 410.019 199.757 409.866 199.918C409.593 200.158 409.384 200.463 409.259 200.805C409.23 200.965 409.239 201.129 409.286 201.284C409.333 201.44 409.415 201.582 409.527 201.699C409.793 202.001 410.076 202.286 410.377 202.552L410.249 202.747C409.839 202.587 409.462 202.352 409.138 202.054C408.961 201.883 408.82 201.678 408.726 201.45C408.63 201.201 408.614 200.927 408.678 200.668C408.744 200.423 408.865 200.197 409.033 200.007C409.179 199.844 409.338 199.692 409.508 199.554C409.825 199.335 410.079 199.038 410.246 198.691L410.479 198.727Z" fill="#1B1B43"/>
<path d="M411.054 205.378C411.873 205.216 412.658 204.915 413.375 204.487C413.727 204.27 414.06 204.024 414.371 203.753C414.691 203.478 414.991 203.184 415.307 202.881L415.495 203.018C415.095 203.839 414.466 204.526 413.685 204.998C412.9 205.477 411.982 205.692 411.066 205.611L411.054 205.378Z" fill="#1B1B43"/>
<path d="M413.11 193.921C412.938 194.822 415.77 195.112 416.278 195.198C416.699 195.272 417.296 195.32 417.382 194.684C417.494 193.896 416.635 193.813 416.15 193.707C415.665 193.602 413.273 193.072 413.11 193.921Z" fill="#1B1B43"/>
<path d="M409.173 194.477C409.173 195.345 406.905 195.435 406.494 195.486C406.155 195.527 405.683 195.53 405.718 194.92C405.762 194.16 406.443 194.138 406.838 194.071C407.234 194.004 409.185 193.653 409.173 194.477Z" fill="#1B1B43"/>
<path opacity="0.2" d="M419.742 202.799C421.339 202.799 422.635 201.503 422.635 199.906C422.635 198.308 421.339 197.013 419.742 197.013C418.144 197.013 416.849 198.308 416.849 199.906C416.849 201.503 418.144 202.799 419.742 202.799Z" fill="#FE5B52"/>
<path opacity="0.2" d="M408.139 202.505C408.14 202.954 408.035 203.397 407.832 203.797C407.63 204.198 407.335 204.545 406.973 204.81C406.517 203.134 406.183 201.426 405.974 199.701C406.594 199.864 407.142 200.227 407.534 200.734C407.926 201.241 408.138 201.864 408.139 202.505Z" fill="#FE5B52"/>
<path d="M201.866 295.747H146.331V299.486H201.866V295.747Z" fill="#9881AE"/>
<path d="M201.862 295.75H154.962L172.725 252.445H219.623L201.862 295.75Z" fill="white"/>
<path d="M202.131 296.149H154.368L172.457 252.046H220.22L202.131 296.149ZM155.562 295.351H201.594L219.029 252.844H172.994L155.562 295.351Z" fill="#9881AE"/>
<path d="M197.814 292.109H160.956L174.913 258.077H211.771L197.814 292.109Z" fill="#F0EBF4"/>
<path d="M183.189 300.684H182.391V426.805H183.189V300.684Z" fill="#1B1B43"/>
<path d="M227.583 299.489H138V306.613H227.583V299.489Z" fill="#DFD2EB"/>
<path d="M65.7084 353.66H64.9102V426.805H65.7084V353.66Z" fill="#1B1B43"/>
<path d="M87.2292 357.052H43.4004C43.8515 354.893 45.032 352.956 46.7434 351.566C48.4548 350.175 50.5927 349.417 52.7978 349.417H77.819C80.0261 349.414 82.1667 350.172 83.8806 351.562C85.5945 352.953 86.777 354.892 87.2292 357.052Z" fill="#DFD2EB"/>
<path d="M58.9414 421.581H71.6724C72.3312 421.581 72.9837 421.71 73.5923 421.962C74.201 422.215 74.7539 422.585 75.2193 423.051C75.6847 423.517 76.0535 424.071 76.3046 424.68C76.5557 425.289 76.684 425.942 76.6824 426.601H53.9346C53.9346 425.273 54.4621 423.999 55.401 423.06C56.34 422.121 57.6135 421.594 58.9414 421.594V421.581Z" fill="#DFD2EB"/>
<path d="M99.1115 245.136C100.232 246.732 101.838 249.025 102.017 251.021C102.276 253.92 97.6363 251.886 97.582 252.138L99.1115 245.136Z" fill="#D28572"/>
<path d="M92.0261 248.546H77.3633V270.036H92.0261V248.546Z" fill="#FFBC96"/>
<path d="M92.019 252.244V267.571C87.3985 264.669 83.3975 260.358 79.9521 255.383L92.019 252.244Z" fill="#1B1B43"/>
<path d="M100.27 246.439C99.8137 253.863 96.959 262.261 89.1646 260.189C83.0402 258.563 76.3027 253.406 76.3027 245.97C76.3027 238.533 81.45 232.501 87.798 232.501C91.767 232.501 96.7643 234.417 99.1176 238.15C100.529 240.382 100.471 243.201 100.27 246.439Z" fill="#FFBC96"/>
<path d="M87.294 244.287C89.3695 238.778 94.1209 238.239 94.1209 238.239C94.1209 238.239 105.112 249.121 104.441 237.875C103.901 228.934 95.181 229.783 95.181 229.783C90.915 224.231 84.0721 226.402 81.5783 229.624C79.0845 232.846 79.9658 230.99 74.0904 233.085C68.2151 235.18 71.3539 244.111 70.3066 244.756C62.4994 244.756 63.9491 252.483 63.9491 252.483L82.4341 258.512L86.8853 246.359L87.294 244.287Z" fill="#1B1B43"/>
<path d="M88.526 250.095C90.0502 249.215 90.3594 246.897 89.2167 244.918C88.0739 242.938 85.9119 242.047 84.3877 242.927C82.8635 243.807 82.5543 246.125 83.6971 248.104C84.8398 250.084 87.0018 250.975 88.526 250.095Z" fill="#FFBC96"/>
<path d="M86.859 247.301C86.6543 246.817 86.3753 246.368 86.032 245.969C85.8556 245.796 85.6544 245.649 85.4349 245.535C85.2082 245.414 84.9559 245.312 84.6973 245.19L84.7388 244.98C85.0374 244.962 85.3366 245.002 85.6201 245.098C85.9211 245.196 86.1939 245.366 86.4152 245.593C86.6312 245.818 86.7967 246.087 86.9005 246.381C87.0011 246.66 87.0571 246.953 87.0666 247.25L86.859 247.301Z" fill="#1B1B43"/>
<path d="M79.9417 233.997C83.3679 233.835 86.0029 230.693 85.8272 226.98C85.6514 223.267 82.7314 220.388 79.3052 220.55C75.879 220.712 73.244 223.854 73.4198 227.567C73.5956 231.281 76.5155 234.159 79.9417 233.997Z" fill="#1B1B43"/>
<path opacity="0.2" d="M93.8936 253.441C95.4367 253.441 96.6876 252.191 96.6876 250.647C96.6876 249.104 95.4367 247.854 93.8936 247.854C92.3505 247.854 91.0996 249.104 91.0996 250.647C91.0996 252.191 92.3505 253.441 93.8936 253.441Z" fill="#FE5B52"/>
<path d="M104.871 322.891L57.9102 316.904L66.7615 270.227C67.0422 268.747 67.6462 267.347 68.5303 266.128C69.4143 264.908 70.5567 263.899 71.8758 263.172C73.1949 262.445 74.6583 262.018 76.1615 261.921C77.6647 261.825 79.1706 262.062 80.5717 262.614L96.5756 269.726C98.0895 270.397 99.4016 271.452 100.382 272.787C101.362 274.122 101.976 275.689 102.164 277.335L103.067 292.579L104.099 309.863L104.871 322.891Z" fill="#FFA121"/>
<path d="M147.844 289.363L160.275 285.71C160.717 285.579 161.182 285.547 161.638 285.615C162.094 285.683 162.529 285.851 162.913 286.106C166.313 288.364 175.366 294.756 173.086 297.368C171.943 298.674 161.549 295.615 161.549 295.615L146.5 299.821L147.844 289.363Z" fill="#FFBC96"/>
<path d="M104.099 309.864C100.184 304.882 97.8629 298.305 97.0742 290.162L103.052 292.579L104.099 309.864Z" fill="#1B1B43"/>
<path d="M95.1579 269.142L97.0291 269.946C100.882 271.607 104.334 274.073 107.155 277.179L122.568 294.153L147.844 289.364L151.172 302.934L119.41 312.862C118.175 313.082 116.906 312.987 115.718 312.585C114.53 312.184 113.463 311.49 112.615 310.566L89.7041 285.637L95.1579 269.142Z" fill="#FFA121"/>
<path d="M122.275 294.425C122.198 294.342 114.678 286.155 108.167 278.852C101.727 271.636 91.9144 268.127 91.8154 268.091L92.0805 267.338C92.1795 267.373 102.183 270.946 108.761 278.322C115.272 285.619 122.786 293.802 122.862 293.882L122.275 294.425Z" fill="#1B1B43"/>
<path d="M91.5841 288.295L91.0107 288.851L112.324 310.852L112.897 310.296L91.5841 288.295Z" fill="#1B1B43"/>
<path d="M103.17 393.491L93.0381 413.225L118.631 426.364L111.82 410.788L117.376 398.447L103.17 393.491Z" fill="#DFD2EB"/>
<path d="M111.69 410.419L104.418 412.56L104.643 413.325L111.915 411.185L111.69 410.419Z" fill="#1B1B43"/>
<path d="M119.106 406.471L95.9209 397.821L111.816 348.404C114.543 341.089 122.951 337.471 130.595 340.322C138.236 343.171 142.218 351.415 139.488 358.727L119.106 406.471Z" fill="#7E6298"/>
<path d="M141.593 403.119L143.854 426.601H172.624L159.452 415.856L156.361 402.32L141.593 403.119Z" fill="#DFD2EB"/>
<path d="M159.274 415.489L152.457 419.248L152.842 419.947L159.66 416.188L159.274 415.489Z" fill="#1B1B43"/>
<path d="M162.348 405.913L137.202 409.904L119.982 359.267L116.846 350.033L74.0806 350.378C71.5857 350.435 69.1072 349.961 66.8089 348.989C64.5105 348.017 62.4447 346.568 60.7479 344.738C59.0511 342.908 57.7619 340.739 56.9657 338.374C56.1695 336.009 55.8843 333.501 56.1289 331.018L57.9106 316.904L100.219 322.227L128.022 325.286C139.597 327.282 143.148 334.291 145.559 343.295L162.348 405.913Z" fill="#7E6298"/>
<path d="M119.981 359.268L116.846 350.033L122.635 349.832C123.168 353.313 121.789 357.202 119.981 359.268Z" fill="#1B1B43"/>
<path d="M501.617 426.202H17.0605V427H501.617V426.202Z" fill="#1B1B43"/>
</g>
<defs>
<clipPath id="clip0_4893_35462">
<rect width="527.618" height="427" fill="white"/>
</clipPath>
<clipPath id="clip1_4893_35462">
<rect width="9.20259" height="27.6078" fill="white" transform="translate(277.918 207.059) rotate(90)"/>
</clipPath>
</defs>
</svg>
