<svg width="574" height="437" viewBox="0 0 574 437" fill="none" xmlns="http://www.w3.org/2000/svg">
<g clip-path="url(#clip0_4893_35724)">
<path d="M487.752 402.738C508.845 378.95 520.592 348.282 528.315 317.438C536.336 285.347 540.419 251.638 534.056 219.18C527.694 186.723 509.79 155.529 481.511 138.381C442.629 114.799 387.182 123.831 357.797 158.535C339.33 180.345 330.557 210.24 308.002 227.784C291.875 240.332 270.497 244.732 250.101 243.312C229.705 241.893 210.091 235.102 191.269 227.156C165.498 216.269 138.592 202.779 110.996 207.326C79.9392 212.435 56.177 240.692 49.2453 271.376C42.3136 302.06 49.6477 334.426 62.0227 363.363C71.8306 386.256 84.7207 407.702 100.335 427.106H459.25C469.803 420.301 479.39 412.105 487.752 402.738Z" fill="white"/>
<path opacity="0.4" d="M421.609 84.7295C438.542 67.7963 438.542 40.3423 421.609 23.4092C404.676 6.47605 377.222 6.47603 360.289 23.4092C343.355 40.3423 343.355 67.7964 360.289 84.7295C377.222 101.663 404.676 101.663 421.609 84.7295Z" fill="#F0EBF4"/>
<path opacity="0.4" d="M108.046 159.071C141.594 159.071 168.79 131.876 168.79 98.3282C168.79 64.7806 141.594 37.585 108.046 37.585C74.4989 37.585 47.3032 64.7806 47.3032 98.3282C47.3032 131.876 74.4989 159.071 108.046 159.071Z" fill="#F0EBF4"/>
<path d="M144.206 322.455H51.0381V332.488H144.206V322.455Z" fill="#CEBFDD"/>
<path d="M144.206 286.621H51.0381V296.654H144.206V286.621Z" fill="#CEBFDD"/>
<path d="M144.206 250.787H51.0381V260.82H144.206V250.787Z" fill="#CEBFDD"/>
<path d="M144.206 356.858H51.0381V366.891H144.206V356.858Z" fill="#CEBFDD"/>
<path d="M51.5821 250.431H50.5059V427.459H51.5821V250.431Z" fill="#4B0082"/>
<path d="M144.753 250.431H143.677V427.459H144.753V250.431Z" fill="#4B0082"/>
<path d="M476.949 156.558C476.688 156.558 476.429 156.558 476.171 156.558L476.194 155.841C477.839 155.897 479.485 155.766 481.101 155.452L481.238 156.155C479.825 156.427 478.389 156.562 476.949 156.558ZM471.14 155.789C469.498 155.346 467.912 154.713 466.416 153.905L466.743 153.273C468.194 154.057 469.731 154.669 471.323 155.099L471.14 155.789ZM486.086 154.598L485.792 153.944C487.291 153.265 488.707 152.418 490.015 151.418L490.45 151.984C489.1 153.019 487.636 153.896 486.086 154.598ZM462.242 151C460.968 149.873 459.827 148.604 458.84 147.218L459.422 146.803C460.379 148.143 461.484 149.371 462.716 150.463L462.242 151ZM494.107 148.458L493.554 148.003C494.601 146.733 495.499 145.347 496.23 143.872L496.884 144.199C496.124 145.716 495.193 147.141 494.107 148.445V148.458ZM456.387 142.766C455.739 141.19 455.278 139.543 455.013 137.859L455.719 137.745C455.979 139.37 456.425 140.961 457.047 142.485L456.387 142.766ZM498.585 139.4L497.889 139.236C498.261 137.627 498.449 135.981 498.448 134.33H499.164C499.166 136.034 498.973 137.733 498.589 139.393L498.585 139.4ZM455.5 132.838L454.784 132.789C454.902 131.092 455.213 129.414 455.713 127.787L456.4 127.997C455.917 129.568 455.616 131.191 455.503 132.831L455.5 132.838ZM498.353 132.439C498.212 130.799 497.883 129.181 497.372 127.617L498.052 127.395C498.584 129.01 498.928 130.682 499.076 132.377L498.353 132.439ZM458.385 123.486L457.767 123.126C458.629 121.658 459.654 120.293 460.822 119.056L461.342 119.55C460.211 120.746 459.219 122.066 458.385 123.486ZM495.308 123.158C494.449 121.754 493.433 120.452 492.278 119.279L492.789 118.775C493.982 119.987 495.032 121.331 495.919 122.782L495.308 123.158ZM465.114 116.387L464.718 115.788C466.139 114.853 467.663 114.085 469.259 113.498L469.507 114.169C467.963 114.738 466.489 115.482 465.114 116.387ZM488.451 116.171C487.061 115.289 485.574 114.57 484.019 114.028L484.254 113.351C485.861 113.911 487.397 114.654 488.834 115.566L488.451 116.171ZM474.29 113.001L474.202 112.291C475.889 112.085 477.594 112.069 479.285 112.246L479.21 112.959C477.574 112.786 475.923 112.801 474.29 113.001Z" fill="#BFABD3"/>
<path d="M136.194 59.8101C135.936 59.8101 135.674 59.8101 135.416 59.8101L135.442 59.0937C137.087 59.149 138.733 59.0185 140.349 58.7044L140.486 59.4077C139.072 59.6795 137.635 59.8142 136.194 59.8101ZM130.388 59.0414C128.745 58.5977 127.159 57.9654 125.661 57.1571L125.988 56.5258C127.439 57.3087 128.976 57.9212 130.568 58.3511L130.388 59.0414ZM145.331 57.8506L145.036 57.1964C146.536 56.5189 147.953 55.6716 149.26 54.671L149.695 55.2369C148.342 56.2732 146.874 57.1502 145.321 57.8506H145.331ZM121.474 54.2327C120.198 53.1066 119.055 51.8378 118.068 50.4511L118.654 50.0357C119.609 51.3775 120.714 52.6056 121.948 53.6962L121.474 54.2327ZM153.339 51.6942L152.786 51.2362C153.833 49.9667 154.73 48.5803 155.459 47.1047L156.113 47.4318C155.356 48.9575 154.427 50.392 153.345 51.7073L153.339 51.6942ZM115.622 46.0121C114.974 44.4356 114.513 42.7888 114.248 41.1053L114.954 40.994C115.213 42.6177 115.659 44.206 116.282 45.7275L115.622 46.0121ZM157.82 42.646L157.124 42.4824C157.495 40.8788 157.683 39.2381 157.683 37.592H158.399C158.402 39.2932 158.209 40.989 157.824 42.646H157.82ZM114.738 36.0839L114.022 36.0349C114.139 34.3373 114.452 32.659 114.954 31.0332L115.638 31.2458C115.153 32.8186 114.852 34.442 114.738 36.0839ZM157.591 35.6816C157.449 34.0432 157.12 32.4265 156.61 30.8631L157.29 30.6374C157.821 32.2534 158.165 33.925 158.314 35.6194L157.591 35.6816ZM117.62 26.7544L117.002 26.3913C117.862 24.9239 118.887 23.5596 120.057 22.3252L120.577 22.8159C119.446 24.0127 118.454 25.334 117.62 26.7544ZM154.543 26.4077C153.686 24.9938 152.67 23.6832 151.513 22.5018L152.024 22.0013C153.224 23.2154 154.278 24.5645 155.167 26.0217L154.543 26.4077ZM124.349 19.6526L123.953 19.054C125.373 18.1197 126.896 17.3514 128.491 16.7641L128.739 17.4347C127.197 17.9999 125.724 18.7396 124.349 19.6395V19.6526ZM147.683 19.4334C146.293 18.5442 144.806 17.8176 143.25 17.2679L143.486 16.5907C145.092 17.1503 146.629 17.8923 148.066 18.8021L147.683 19.4334ZM133.522 16.2669L133.437 15.557C135.124 15.3504 136.829 15.335 138.52 15.5112L138.445 16.2211C136.808 16.0471 135.156 16.058 133.522 16.2538V16.2669Z" fill="#BFABD3"/>
<path d="M433.374 56.2213V55.505C435.011 55.4857 436.636 55.212 438.189 54.6937L438.415 55.3741C436.788 55.9156 435.088 56.2014 433.374 56.2213ZM428.31 55.4886C426.675 54.9834 425.129 54.2239 423.73 53.238L424.142 52.6525C425.482 53.5947 426.961 54.321 428.526 54.8049L428.31 55.4886ZM442.926 53.0156L442.5 52.4366C443.818 51.4627 444.976 50.2909 445.935 48.9625L446.514 49.3845C445.518 50.7727 444.311 51.9977 442.939 53.0156H442.926ZM420.05 49.6887C419.017 48.3232 418.203 46.8045 417.639 45.1875L418.316 44.952C418.85 46.4977 419.623 47.9503 420.606 49.2569L420.05 49.6887ZM448.837 44.8244L448.156 44.6053C448.657 43.046 448.911 41.418 448.909 39.7802C448.909 39.5349 448.909 39.2895 448.909 39.0474L449.625 39.0147C449.625 39.2699 449.641 39.5251 449.641 39.7802C449.637 41.4935 449.365 43.1955 448.833 44.8244H448.837ZM416.746 40.1662C416.746 40.0386 416.746 39.9078 416.746 39.7802C416.744 38.1966 416.971 36.621 417.42 35.1024L418.107 35.3052C417.676 36.758 417.456 38.2649 417.453 39.7802C417.453 39.9045 417.453 40.0255 417.453 40.1466L416.746 40.1662ZM447.911 34.278C447.336 32.7441 446.524 31.3093 445.507 30.0254L446.066 29.5806C447.132 30.9213 447.981 32.4215 448.582 34.0261L447.911 34.278ZM420.207 30.9119L419.615 30.5063C420.585 29.0939 421.768 27.8404 423.122 26.7902L423.56 27.3594C422.264 28.3568 421.133 29.5511 420.207 30.8989V30.9119ZM441.915 26.715C440.553 25.8049 439.058 25.1129 437.482 24.6639L437.675 23.977C439.323 24.4361 440.887 25.1526 442.311 26.1L441.915 26.715ZM427.849 25.0041L427.603 24.327C429.215 23.7472 430.907 23.4228 432.618 23.3652L432.641 24.0816C431.002 24.1307 429.382 24.4376 427.839 24.991L427.849 25.0041Z" fill="#BFABD3"/>
<path d="M470.445 87.6722C475.329 85.9532 477.895 80.6002 476.176 75.7161C474.457 70.8319 469.104 68.2661 464.22 69.9851C459.335 71.7041 456.77 77.0571 458.489 81.9412C460.208 86.8254 465.561 89.3912 470.445 87.6722Z" fill="#F0EBF4"/>
<path d="M418.86 110.016V193.399H401.254C402.438 189.924 403.036 186.276 403.024 182.604C403.024 167.854 393.72 155.908 382.238 155.908C370.756 155.908 361.456 167.854 361.456 182.604C361.444 186.276 362.042 189.924 363.226 193.399H225.266C225.998 196.195 226.366 199.073 226.362 201.963C226.362 216.707 217.058 228.66 205.579 228.66C194.101 228.66 184.794 216.707 184.794 201.963C184.791 199.073 185.159 196.195 185.89 193.399H168.363V110.016H185.497C185.028 112.285 184.792 114.597 184.794 116.915C184.794 131.658 194.097 143.611 205.579 143.611C217.061 143.611 226.362 131.658 226.362 116.915C226.365 114.597 226.13 112.285 225.658 110.016H363.848C362.249 106.06 361.437 101.832 361.456 97.5656C361.456 82.8222 370.756 70.8691 382.238 70.8691C393.72 70.8691 403.024 82.8222 403.024 97.5656C403.043 101.832 402.23 106.061 400.629 110.016H418.86Z" fill="#BFABD3"/>
<path d="M329.472 193.914L328.072 193.587C330.675 181.981 335.15 170.876 341.321 160.708C345.863 153.144 348.552 144.613 349.169 135.811C349.786 127.01 348.313 118.187 344.87 110.063L346.178 109.504C349.708 117.836 351.218 126.885 350.585 135.912C349.952 144.939 347.195 153.689 342.538 161.448C336.446 171.487 332.033 182.454 329.472 193.914Z" fill="white"/>
<path d="M257.76 193.918C255.383 182.648 251.08 171.872 245.038 162.066C239.42 152.986 236.458 142.514 236.487 131.837C236.487 124.174 238.045 116.592 241.067 109.55L242.375 110.112C239.437 116.977 237.924 124.367 237.93 131.833C237.9 142.244 240.787 152.454 246.265 161.307C252.395 171.254 256.761 182.184 259.17 193.617L257.76 193.918Z" fill="white"/>
<path d="M280.622 157.231V129.841H289.088L300.19 151.421L299.733 151.504V129.841H305.938V157.231H297.43L286.37 135.526L286.826 135.609V157.231H280.622ZM278.319 145.507V141.565H308.428V145.507H278.319Z" fill="#F4F4F4"/>
<path d="M213.133 141.788C212.462 145.37 210.963 148.746 208.756 151.647C205.39 156.116 200.414 159.796 193.97 162.583C186.603 165.769 176.803 167.49 168.363 164.545V165.301C171.408 166.299 174.596 166.796 177.8 166.77C183.633 166.77 189.452 165.304 194.258 163.227C200.8 160.388 205.887 156.632 209.328 152.066C211.711 148.925 213.284 145.245 213.908 141.353C213.666 141.513 213.394 141.653 213.133 141.788Z" fill="white"/>
<path d="M418.86 155.865L407.293 141.22C402.183 134.753 396.903 128.066 393.589 120.369C389.896 111.782 389.399 103.202 392.196 96.2078C393.922 91.9333 397.009 88.3472 400.979 86.0048C400.894 85.7824 400.803 85.5599 400.714 85.3506C396.561 87.7671 393.331 91.4972 391.532 95.9526C388.663 103.123 389.16 111.897 392.932 120.66C396.282 128.446 401.594 135.171 406.73 141.674L418.86 157.049V155.865Z" fill="white"/>
<path d="M418.86 193.401V241.775C418.859 250.286 415.789 258.512 410.213 264.941C404.637 271.371 396.928 275.574 388.503 276.777H198.72C190.295 275.572 182.587 271.369 177.011 264.94C171.435 258.511 168.364 250.286 168.363 241.775V193.401H185.89C185.159 196.197 184.791 199.075 184.794 201.965C184.794 216.708 194.097 228.661 205.579 228.661C217.061 228.661 226.362 216.708 226.362 201.965C226.366 199.075 225.998 196.196 225.266 193.401H363.216C362.032 189.925 361.434 186.277 361.446 182.606C361.446 167.856 370.747 155.909 382.229 155.909C393.711 155.909 403.014 167.856 403.014 182.606C403.027 186.277 402.429 189.925 401.244 193.401H418.86Z" fill="#4B0082"/>
<path opacity="0.8" d="M327.295 218.658H326.153V217.942H325.862V215.528C325.862 215.109 325.862 214.69 325.862 214.271L327.295 214.291C327.295 214.703 327.295 215.115 327.295 215.528V218.658ZM322.061 218.658H317.975V217.225H322.061V218.658ZM313.883 218.658H309.797V217.225H313.883V218.658ZM305.704 218.658H301.622V217.225H305.704V218.658ZM297.526 218.658H293.444V217.225H297.526V218.658ZM289.348 218.658H285.312V217.225H289.394L289.348 218.658ZM281.17 218.658H277.143V217.225H281.226L281.17 218.658ZM272.992 218.658H268.972V217.225H273.058L272.992 218.658ZM264.814 218.658H260.804V217.225H264.889L264.814 218.658ZM259.898 214.033C259.868 212.688 259.809 211.324 259.731 209.98L261.16 209.895C261.242 211.259 261.301 212.639 261.33 214L259.898 214.033ZM327.438 210.238L326.006 210.159C326.081 208.802 326.182 207.421 326.313 206.057L327.739 206.195C327.612 207.539 327.51 208.9 327.438 210.238ZM259.397 205.933C259.266 204.592 259.109 203.238 258.929 201.903L260.349 201.713C260.532 203.061 260.676 204.435 260.823 205.796L259.397 205.933ZM328.217 202.168L326.797 201.972C326.984 200.617 327.196 199.25 327.452 197.909L328.861 198.161C328.596 199.476 328.387 200.83 328.217 202.168ZM258.321 197.896C258.089 196.564 257.83 195.223 257.549 193.911L258.952 193.614C259.234 194.942 259.498 196.299 259.734 197.65L258.321 197.896ZM329.633 194.18L328.233 193.879L328.295 193.601L329.689 193.928L329.633 194.18Z" fill="white"/>
<path opacity="0.8" d="M418.866 225.417C411.816 227.821 403.965 227.213 397.799 226.379C396.039 226.14 394.25 225.862 392.516 225.594C386.743 224.701 380.766 223.775 374.852 224.115C365.924 224.625 358.522 228.211 354.534 233.952C351.23 238.718 349.994 245.012 350.648 253.769C351.255 261.643 352.975 269.391 355.758 276.782H356.52C353.707 269.379 351.971 261.612 351.364 253.716C350.71 245.133 351.917 238.996 355.126 234.361C358.983 228.799 366.189 225.325 374.891 224.828C380.753 224.501 386.684 225.414 392.425 226.304C394.158 226.572 395.951 226.85 397.717 227.089C403.9 227.926 411.754 228.528 418.882 226.169L418.866 225.417Z" fill="white"/>
<path opacity="0.8" d="M208.295 255.491C203.08 248.791 194.883 244.12 185.19 242.337C180.074 241.395 174.513 241.232 168.363 241.843C168.363 242.082 168.363 242.321 168.363 242.56C174.467 241.951 179.982 242.108 185.046 243.041C194.559 244.794 202.609 249.37 207.716 255.929C212.37 261.912 214.448 269.03 215.197 276.78H215.92C215.174 268.886 213.067 261.628 208.295 255.491Z" fill="white"/>
<path d="M355.748 344.927L326.363 278.632H260.866L231.484 344.927L230.172 344.344L259.934 277.199H327.295L357.056 344.344L355.748 344.927Z" fill="#4B0082"/>
<path d="M326.852 262.518H260.42V278.383H326.852V262.518Z" fill="#1B1B43"/>
<path d="M398.956 340.409H188.26V427.456H398.956V340.409Z" fill="#F0EBF4"/>
<path opacity="0.3" d="M398.956 340.409V427.456H188.26V414.807C258.143 417.509 349.944 395.716 376.146 340.409H398.956Z" fill="#CEBFDD"/>
<path d="M86.7127 306.939L84.0859 322.707H101.047L97.9428 306.939H86.7127Z" fill="#1B1B43"/>
<path d="M110.026 177.339L109.51 188.549L109.228 194.683L108.708 205.962L103.932 309.208H82.0607L81.3443 196.331C78.7797 188.899 78.1418 181.938 79.3031 175.376C80.0863 171.019 81.6275 166.832 83.8566 163.007L99.264 156.557L102.26 162.347L107.465 172.409L110.026 177.339Z" fill="#4B0082"/>
<path d="M117.444 259.486L111.261 273.821L134.016 286.631L128.105 271.583L130.79 263.252L117.444 259.486Z" fill="#1B1B43"/>
<path d="M109.491 188.552L108.689 205.964C102.896 200.191 101.283 193.403 101.764 186.121L109.491 188.552Z" fill="#1B1B43"/>
<path d="M148.914 220.11L133.539 267.216L129.856 266.146L116.274 262.198L112.806 261.197L125.849 210.699L109.215 194.67L101.714 187.447L89.7378 175.923L89.8588 175.082L91.7431 162.203L102.257 162.341L117.494 162.54L122.525 168.173L142.758 190.794C146.262 194.713 148.675 199.484 149.755 204.629C150.836 209.774 150.546 215.113 148.914 220.11Z" fill="#4B0082"/>
<path opacity="0.6" d="M122.52 168.179C114.934 171.876 110.364 170.083 103.377 170.888C98.7971 171.418 88.3292 176.622 79.2974 175.376C80.0806 171.019 81.6218 166.832 83.8509 163.007L99.2583 156.557L102.255 162.347L117.492 162.546L122.52 168.179Z" fill="#1B1B43"/>
<path d="M101.594 114.991L114.679 128.25L140.479 116.961C138.555 114.268 132.301 105.4 130.063 102.773L101.594 114.991Z" fill="#F1E0CB"/>
<path d="M169.852 74.8398L144.588 96.5182L130.054 102.756C132.279 105.373 137.218 112.243 139.138 114.938L140.224 114.35C147.979 110.14 154.951 104.626 160.833 98.0491L176.136 80.9309L169.852 74.8398Z" fill="#FFBC96"/>
<path d="M391.841 31.005L397.73 78.6634L379.636 80.9042C380.739 76.7829 381.027 72.4859 380.484 68.2544C378.671 53.6255 367.971 42.9057 356.578 44.3156C345.184 45.7255 337.418 58.7319 339.24 73.3608C339.744 77.5971 341.071 81.6942 343.146 85.4217L206 102.403C206.746 104.599 207.264 106.866 207.547 109.168C209.356 123.796 201.594 136.803 190.21 138.213C178.826 139.623 168.103 128.903 166.291 114.274C166.002 111.972 165.951 109.647 166.14 107.336L149.13 109.442L143.242 61.7807C142.092 52.4747 144.685 43.0929 150.452 35.6989C156.218 28.3049 164.685 23.5041 173.991 22.3526L352.423 0.255567C361.728 -0.892672 371.107 1.70168 378.499 7.46808C385.891 13.2345 390.691 21.7008 391.841 31.005Z" fill="#FFC857"/>
<path d="M227.537 99.8298L226.147 99.4307C226.304 98.8877 226.47 98.3479 226.644 97.8115L228.008 98.2531C227.858 98.783 227.701 99.3086 227.537 99.8298ZM229.392 94.4683L228.064 93.9318C228.577 92.656 229.143 91.3868 229.749 90.1535L231.034 90.7849C230.449 91.9789 229.896 93.2187 229.392 94.4683ZM232.935 87.2291L231.695 86.5094C232.385 85.3219 233.128 84.1443 233.9 83.0092L235.084 83.8172C234.325 84.9163 233.609 86.0645 232.935 87.2225V87.2291ZM329.645 87.1767C328.974 86.0187 328.252 84.8705 327.499 83.7649L328.683 82.9569C329.455 84.092 330.195 85.2696 330.885 86.4603L329.645 87.1767ZM237.469 80.559L236.347 79.6726C237.197 78.5931 238.097 77.5332 239.022 76.5191L240.079 77.5005C239.18 78.4753 238.3 79.509 237.469 80.559ZM325.111 80.51C324.284 79.4632 323.4 78.4328 322.494 77.4416L323.551 76.4602C324.483 77.4776 325.386 78.5342 326.233 79.6071L325.111 80.51ZM242.902 74.6054L241.921 73.5684C242.902 72.6198 243.959 71.6973 245.019 70.8272L245.928 71.9361C244.891 72.7834 243.874 73.683 242.902 74.6054ZM319.665 74.5694C318.683 73.6502 317.672 72.7539 316.639 71.9067L317.545 70.7977C318.608 71.6646 319.652 72.5838 320.649 73.5259L319.665 74.5694ZM249.127 69.4892L248.296 68.3181C249.422 67.5232 250.586 66.761 251.757 66.0512L252.497 67.2779C251.355 67.9714 250.223 68.7107 249.127 69.4892ZM313.426 69.4696C312.327 68.6943 311.192 67.955 310.047 67.2681L310.79 66.0381C311.961 66.7447 313.125 67.5036 314.251 68.2985L313.426 69.4696ZM256.02 65.3184L255.366 64.0394C256.592 63.4146 257.852 62.829 259.118 62.2991L259.674 63.6076C258.444 64.1375 257.224 64.7002 256.02 65.3184ZM306.524 65.3184C305.333 64.7165 304.1 64.1441 302.867 63.624L303.423 62.3155C304.689 62.8487 305.952 63.4342 307.172 64.0558L306.524 65.3184ZM263.439 62.1944L262.981 60.8336C264.289 60.3953 265.598 59.9994 266.946 59.6592L267.302 61.0462C266.013 61.3799 264.711 61.7561 263.439 62.1944ZM299.095 62.1944C297.832 61.7692 296.534 61.3832 295.235 61.0462L295.592 59.6592C296.926 60.0027 298.258 60.4018 299.553 60.8369L299.095 62.1944ZM271.244 60.1859L270.989 58.776C271.604 58.6648 272.219 58.5634 272.84 58.4718C273.586 58.3606 274.335 58.2657 275.081 58.1839L275.235 59.6102C274.509 59.6887 273.78 59.7814 273.05 59.8882C272.446 59.9776 271.844 60.0758 271.244 60.1826V60.1859ZM291.3 60.1859C289.991 59.9471 288.644 59.7508 287.309 59.6069L287.463 58.1839C288.833 58.3311 290.207 58.5307 291.555 58.776L291.3 60.1859ZM279.258 59.3223L279.206 57.8895C280.593 57.8415 281.971 57.8415 283.341 57.8895L283.289 59.3223C281.957 59.2634 280.609 59.2634 279.258 59.3125V59.3223Z" fill="white"/>
<path d="M249.231 13.04L247.681 13.233C246.427 14.1817 245.198 15.1478 243.994 16.1313C225.436 31.2673 209.29 50.6329 186.201 59.0923C176.002 62.8247 164.876 63.9991 154.412 60.6755C150.369 59.3972 146.542 57.5169 143.06 55.0981C143.041 55.3794 143.024 55.664 143.015 55.9454C151.693 61.7877 162.969 64.2739 173.221 63.0177C197.193 60.0736 215.528 42.4974 232.6 27.0114C237.779 22.3009 243.333 17.4562 249.231 13.04Z" fill="white"/>
<path d="M391.957 31.9918C381.25 33.1989 370.412 32.3745 360.124 28.7206C345.25 23.4277 333.582 12.2402 320.189 4.27148L319.067 4.41214C331.112 11.4387 341.9 21.3342 354.465 27.17C366.327 32.6787 379.277 34.0886 392.038 32.6657L391.957 31.9918Z" fill="white"/>
<path d="M118.655 91.7852C118.655 91.7852 123.314 95.2788 122.597 96.7116C121.881 98.1444 118.299 98.55 118.299 98.55L118.655 91.7852Z" fill="#D28572"/>
<path d="M114.494 103.481V114.05L100.068 112.346V102.627L100.159 100.298L104.101 96.3984L111.569 101.488L114.494 103.481Z" fill="#FFBC96"/>
<path d="M114.493 103.476V111.402L114.434 111.461C109.812 110.98 106.91 107.82 104.696 103.577L111.565 101.483L114.493 103.476Z" fill="#1B1B43"/>
<path d="M119.325 87.1275C119.325 87.1275 121.206 103.699 116.188 105.849C110.715 108.207 103.479 103.627 103.479 103.627L102.227 95.9238L106.348 86.1592L119.325 87.1275Z" fill="#FFBC96"/>
<path d="M110.235 94.5629C110.513 91.7562 111.481 89.2864 113.46 87.3073C118.763 89.306 123.11 88.2069 125.914 82.0734C121.7 82.4757 119.568 82.3711 114.357 79.0246C107.86 74.8603 101.635 81.6678 101.635 81.6678C91.2715 86.1232 95.0923 94.4779 100.068 102.633C101.239 99.8099 103.094 97.2617 108.756 96.2247L110.235 94.5629Z" fill="#1B1B43"/>
<path d="M111.451 93.6105C112.54 95.3213 112.409 97.356 111.156 98.1542C109.903 98.9524 108 98.2196 106.904 96.5186C105.808 94.8176 105.942 92.7731 107.198 91.9749C108.454 91.1767 110.348 91.8996 111.451 93.6105Z" fill="#FFBC96"/>
<path d="M147.274 117.854L166.087 114.989L183.467 97.7885C183.467 97.7885 185.976 82.5577 187.065 82.9176C188.155 83.2774 188.498 90.0848 188.498 90.0848C188.498 90.0848 193.16 78.436 194.233 78.9626C195.306 79.4893 192.98 89.352 192.98 89.352C192.98 89.352 199.071 91.5045 198.891 93.2939C198.711 95.0832 194.396 101.011 192.783 102.803C191.841 103.853 185.505 112.313 180.408 119.159C178.314 121.971 175.667 124.324 172.629 126.074C169.591 127.824 166.227 128.933 162.744 129.333L139.4 132.009L147.274 117.854Z" fill="#FFBC96"/>
<path d="M147.275 117.854L145.483 135.591L127.033 134.704C127.033 134.704 126.611 138.846 125.973 144.027C125.113 150.985 123.867 159.831 122.732 163.001C120.769 168.562 115.388 165.866 107.324 165.15C99.2605 164.433 91.7367 168.732 84.033 169.448C76.3293 170.165 79.3748 165.85 80.9875 160.492C82.6002 155.133 85.4658 137.557 84.913 130.396C84.3601 123.236 87.4187 114.093 97.4548 110.867C107.491 107.642 147.275 117.854 147.275 117.854Z" fill="#F1E0CB"/>
<path d="M127.03 134.706C127.03 134.706 126.608 138.847 125.97 144.029C123.065 142.092 121.063 139.089 120.939 134.346L127.03 134.706Z" fill="#1B1B43"/>
<path d="M147.21 118.113C146.801 118.006 106.212 107.093 95.6787 112.245L95.4399 111.761C99.951 109.556 110.066 109.87 125.499 112.693C136.965 114.793 147.246 117.567 147.351 117.6L147.21 118.113Z" fill="#1B1B43"/>
<path d="M463.39 206.38C462.582 206.586 462.023 207.237 461.506 207.842C460.989 208.448 460.397 209.079 459.573 209.233C458.811 209.37 458.029 209.063 457.247 209.04C456.717 209.022 456.192 209.147 455.727 209.403C455.263 209.658 454.876 210.035 454.607 210.492C454.374 210.944 454.28 211.456 454.339 211.962C454.397 212.467 454.604 212.944 454.934 213.332C453.74 213.443 452.501 213.564 451.48 214.133C450.459 214.702 449.723 215.857 450.093 216.914C450.252 217.241 450.393 217.578 450.515 217.921C450.777 219.056 449.517 219.933 448.415 220.473C447.312 221.012 446.027 221.814 446.181 222.962C446.347 224.199 448.075 224.774 448.536 225.945C449.04 227.221 447.882 228.464 446.805 229.377C445.729 230.29 444.588 231.552 445.121 232.815C445.392 233.469 446.043 233.898 446.459 234.473C446.665 234.755 446.521 236.109 446.24 237.473C446.159 237.87 446.158 238.279 446.236 238.676C446.314 239.073 446.47 239.451 446.694 239.788C446.918 240.125 447.207 240.414 447.543 240.64C447.879 240.865 448.257 241.022 448.654 241.101L455.219 242.409L477.247 245.004L487.944 242.694C487.29 242.21 487.104 241.386 487.058 240.614C487.012 239.842 487.058 239.056 486.731 238.347C486.404 237.637 485.53 237.054 484.768 237.323C485.408 236.86 485.955 236.281 486.381 235.615C486.584 235.286 486.686 234.903 486.672 234.516C486.659 234.129 486.531 233.754 486.305 233.44C485.484 232.426 483.515 232.458 483.034 231.271C482.439 229.779 484.997 228.363 484.32 226.904C483.819 225.841 481.915 225.7 481.647 224.575C481.343 223.302 483.512 222.344 483.093 221.101C482.766 220.1 481.039 220.005 480.61 219.03C480.064 217.79 482.105 216.701 481.883 215.386C481.69 214.225 480.064 213.933 478.916 213.423C477.061 212.579 476.112 210.685 474.689 209.301C473.574 208.27 472.222 207.529 470.752 207.146C469.282 206.762 467.74 206.748 466.263 207.103C466.263 207.103 464.198 206.171 463.39 206.38Z" fill="#1B1B43"/>
<path d="M481.13 408.019L483.04 427.368H454.492L466.674 416.38L468.346 406.942L481.13 408.019Z" fill="#9881AE"/>
<path d="M467.085 418.164L466.62 418.708L470.789 422.274L471.255 421.729L467.085 418.164Z" fill="#1B1B43"/>
<path d="M484.834 410.258L481.343 410.199L467.814 409.964L464.052 409.898C458.661 369.888 451.824 325.776 452.455 302.857C452.57 298.562 452.956 295.006 453.659 292.363L465.763 293.999L477.307 295.576C477.091 298.242 476.947 301.137 476.885 304.228C476.692 312.913 477.035 323.162 477.735 334.464C479.145 356.96 481.981 383.585 484.834 410.258Z" fill="#1B1B43"/>
<path d="M507.769 407.032L512.548 426.859L535.241 436.891L523.536 417.542L520.55 406.194L507.769 407.032Z" fill="#9881AE"/>
<path d="M523.255 417.327L520.207 421.147L520.767 421.594L523.815 417.774L523.255 417.327Z" fill="#1B1B43"/>
<path d="M525.325 409.544H504.183C495.053 386.94 486.021 360.996 477.735 334.48C474.611 324.496 471.595 314.427 468.713 304.43C467.731 300.946 466.727 297.476 465.769 294.015C465.306 292.39 464.854 290.765 464.411 289.141L489.138 289.5C490.126 293.659 491.177 297.89 492.292 302.193C500.627 334.65 512.151 371.065 525.325 409.544Z" fill="#1B1B43"/>
<path d="M472.78 318.479C473.5 320.536 474.199 322.6 474.877 324.672C475.561 326.743 476.202 328.823 476.866 330.887L478.767 337.142C479.378 339.235 479.987 341.326 480.543 343.436L480.275 343.517C479.539 341.466 478.852 339.399 478.168 337.328L476.189 331.113C475.561 329.026 474.903 326.949 474.298 324.855C473.693 322.762 473.088 320.668 472.512 318.568L472.78 318.479Z" fill="white"/>
<path d="M492.475 293.06C492.046 294.305 491.258 295.396 490.21 296.194C489.162 296.992 487.902 297.462 486.587 297.545C476.796 298.608 466.371 299.288 455.448 299.687C453.926 299.791 452.422 299.316 451.236 298.357C450.05 297.397 449.27 296.025 449.053 294.516C446.566 277.251 446.009 259.763 447.391 242.376C465.308 232.703 478.746 241.244 491.88 240.413C492.534 245.908 491.765 253.282 491.743 259.131C491.743 260.243 491.743 261.296 491.821 262.271C491.929 263.926 491.965 265.719 491.971 267.505C491.994 269.618 491.972 271.712 492.001 273.56C492.066 278.526 494.324 287.518 492.475 293.06Z" fill="#FFC857"/>
<path d="M491.972 267.495C489.973 266.641 487.889 264.185 487.179 261.718L491.759 259.124C491.759 260.236 491.759 261.29 491.837 262.264C491.929 263.916 491.965 265.712 491.972 267.495Z" fill="#1B1B43"/>
<path d="M447.387 242.38C441.613 246.757 420.942 268.55 423.559 279.999C426.153 291.373 439.147 278.746 447.567 262.082L452.225 250.257L447.387 242.38Z" fill="#FFC857"/>
<path d="M427.674 280.718C427.105 282.268 425.266 287.021 429.83 289.344C430.207 289.535 430.63 289.618 431.051 289.583C431.473 289.548 431.877 289.398 432.218 289.148C432.752 288.705 433.432 288.479 434.125 288.513C435.558 288.693 436.087 287.348 437.262 286.632C438.436 285.916 439.552 284.045 439.225 282.707C438.067 277.672 430.811 275.611 427.674 280.718Z" fill="#FFBC96"/>
<path d="M527.505 216.657L529.857 208.243C529.857 208.243 530.839 201.959 531.755 202.355C532.671 202.751 532.854 207.788 532.854 207.788C532.854 207.788 535.961 198.708 536.936 198.956C537.911 199.205 535.468 208.04 535.468 208.04C535.468 208.04 540.701 208.606 540.564 211.966C540.427 215.325 533.93 221.937 533.93 221.937L527.505 216.657Z" fill="#FFBC96"/>
<path d="M485.372 240.231C485.372 240.231 503.037 242.805 514.584 230.918C526.131 219.03 528.068 214.064 528.068 214.064L536.681 222.118C525.641 246.891 509.34 260.097 486.147 263.244L485.372 240.231Z" fill="#FFC857"/>
<path d="M447.117 276.604C447.035 274.151 446.904 271.472 446.79 268.881C446.463 261.858 446.1 254.599 446.59 250.405L447.123 250.471C446.639 254.619 446.989 261.855 447.326 268.855C447.451 271.449 447.581 274.131 447.653 276.588L447.117 276.604Z" fill="#1B1B43"/>
<path opacity="0.6" d="M462.397 262.711C462.273 265.4 458.579 264.507 458.282 262.384C457.984 260.261 460.277 258.919 462.125 258.995C463.787 259.063 465.197 260.012 466.414 261.059C468.75 263.074 470.722 265.445 474.095 265.351C476.247 265.288 478.05 263.427 477.238 261.193C476.378 258.818 473.015 257.945 471.151 259.593C470.889 259.822 471.272 260.202 471.53 259.973C473.607 258.137 477.765 260.234 476.709 263.136C475.93 265.272 473.31 264.984 471.589 264.353C467.791 262.963 465.649 257.621 460.977 258.537C458.511 259.021 456.398 262.236 458.714 264.196C460.349 265.566 462.829 265.017 462.933 262.724C462.933 262.377 462.413 262.377 462.397 262.724V262.711Z" fill="white"/>
<path d="M473.57 227.15V238.488C473.57 242.178 470.858 245.165 467.518 245.165C466.707 245.158 465.907 244.98 465.17 244.641C464.433 244.303 463.776 243.813 463.243 243.202C462.168 241.998 461.544 240.458 461.479 238.845C461.479 238.724 461.479 238.603 461.479 238.482V229.421L469.788 227.86L473.57 227.15Z" fill="#FFBC96"/>
<path d="M470.485 230.933C469.504 235.006 464.646 238.13 461.479 238.853C461.479 238.732 461.479 238.611 461.479 238.49V229.429L469.788 227.868L470.485 230.933Z" fill="#D28572"/>
<path d="M457.801 215.313C457.801 215.313 454.324 232.153 458.652 233.678C468.056 236.995 474.089 228.267 473.565 227.135L473.837 216.474L466.584 214.24L457.801 215.313Z" fill="#FFBC96"/>
<path d="M456.41 218.226C456.485 218.998 457.499 219.341 458.242 219.106C458.984 218.87 459.55 218.278 460.204 217.86C460.859 217.441 461.774 217.205 462.376 217.699C462.586 217.869 462.733 218.115 462.959 218.265C463.59 218.697 464.424 218.223 465.042 217.768C465.661 217.313 466.518 216.865 467.126 217.326C467.735 217.788 467.656 218.883 468.356 219.165C468.919 219.394 469.616 218.91 470.136 219.217C470.29 219.335 470.408 219.493 470.477 219.673C470.547 219.854 470.564 220.051 470.528 220.241C470.489 220.627 470.345 220.997 470.325 221.386C470.32 221.848 470.489 222.294 470.798 222.638C471.107 222.981 471.534 223.195 471.994 223.237L476.299 219.462L472.897 212.953L462.383 212.835L456.891 214.143L456.41 218.226Z" fill="#1B1B43"/>
<path d="M474.329 226.927C475.935 226 476.594 224.138 475.803 222.767C475.012 221.396 473.069 221.037 471.464 221.963C469.858 222.89 469.199 224.753 469.99 226.123C470.781 227.494 472.724 227.854 474.329 226.927Z" fill="#FFBC96"/>
<path d="M573.339 426.563H529.262V427.64H573.339V426.563Z" fill="#1B1B43"/>
<path d="M512.541 426.563H0V427.64H512.541V426.563Z" fill="#4B0082"/>
</g>
<defs>
<clipPath id="clip0_4893_35724">
<rect width="573.34" height="436.894" fill="white"/>
</clipPath>
</defs>
</svg>
