<svg width="573" height="427" viewBox="0 0 573 427" fill="none" xmlns="http://www.w3.org/2000/svg">
<g clip-path="url(#clip0_4893_35724)">
<path d="M476.706 393.618C497.321 370.369 508.802 340.395 516.351 310.25C524.19 278.886 528.18 245.939 521.962 214.217C515.743 182.495 498.245 152.007 470.606 135.248C432.605 112.2 378.413 121.027 349.694 154.945C331.646 176.261 323.071 205.479 301.027 222.626C285.265 234.89 264.372 239.19 244.437 237.802C224.503 236.415 205.333 229.778 186.937 222.012C161.75 211.372 135.453 198.187 108.482 202.631C78.1287 207.625 54.9047 235.242 48.13 265.231C41.3553 295.22 48.5233 326.852 60.618 355.134C70.2038 377.509 82.802 398.47 98.0629 417.434H448.85C459.163 410.783 468.533 402.772 476.706 393.618Z" fill="white"/>
<path opacity="0.4" d="M412.061 82.8105C428.61 66.2609 428.61 39.4286 412.061 22.8789C395.511 6.32927 368.679 6.32925 352.129 22.8789C335.579 39.4286 335.579 66.2609 352.129 82.8105C368.679 99.3602 395.511 99.3602 412.061 82.8105Z" fill="#F0EBF4"/>
<path opacity="0.4" d="M105.6 155.47C138.387 155.47 164.967 128.89 164.967 96.102C164.967 63.3142 138.387 36.7344 105.6 36.7344C72.8117 36.7344 46.2319 63.3142 46.2319 96.102C46.2319 128.89 72.8117 155.47 105.6 155.47Z" fill="#F0EBF4"/>
<path d="M140.939 315.152H49.8818V324.958H140.939V315.152Z" fill="#CEBFDD"/>
<path d="M140.939 280.13H49.8818V289.935H140.939V280.13Z" fill="#CEBFDD"/>
<path d="M140.939 245.107H49.8818V254.913H140.939V245.107Z" fill="#CEBFDD"/>
<path d="M140.939 348.776H49.8818V358.582H140.939V348.776Z" fill="#CEBFDD"/>
<path d="M50.4142 244.76H49.3623V417.779H50.4142V244.76Z" fill="#4B0082"/>
<path d="M141.475 244.76H140.423V417.779H141.475V244.76Z" fill="#4B0082"/>
<path d="M466.148 153.012C465.892 153.012 465.64 153.012 465.387 153.012L465.41 152.312C467.017 152.367 468.626 152.239 470.205 151.932L470.34 152.619C468.958 152.885 467.555 153.016 466.148 153.012ZM460.47 152.261C458.865 151.828 457.316 151.21 455.853 150.419L456.173 149.802C457.591 150.568 459.093 151.167 460.649 151.586L460.47 152.261ZM475.078 151.097L474.79 150.458C476.255 149.794 477.64 148.966 478.918 147.99L479.343 148.543C478.023 149.554 476.592 150.411 475.078 151.097ZM451.774 147.58C450.529 146.479 449.413 145.239 448.449 143.884L449.018 143.478C449.953 144.788 451.033 145.988 452.237 147.056L451.774 147.58ZM482.917 145.096L482.377 144.652C483.4 143.41 484.278 142.055 484.992 140.614L485.632 140.933C484.889 142.416 483.978 143.809 482.917 145.083V145.096ZM446.051 139.533C445.418 137.992 444.967 136.383 444.708 134.737L445.399 134.625C445.653 136.214 446.088 137.769 446.697 139.258L446.051 139.533ZM487.294 136.243L486.613 136.083C486.977 134.511 487.161 132.902 487.16 131.288H487.86C487.862 132.953 487.673 134.614 487.297 136.237L487.294 136.243ZM445.185 129.83L444.484 129.782C444.6 128.123 444.904 126.483 445.392 124.893L446.064 125.098C445.592 126.634 445.298 128.22 445.188 129.823L445.185 129.83ZM487.067 129.44C486.929 127.837 486.607 126.256 486.108 124.727L486.773 124.51C487.293 126.089 487.628 127.723 487.774 129.379L487.067 129.44ZM448.004 120.689L447.4 120.337C448.242 118.903 449.244 117.569 450.386 116.36L450.895 116.843C449.789 118.012 448.82 119.302 448.004 120.689ZM484.091 120.369C483.252 118.997 482.258 117.724 481.13 116.578L481.629 116.085C482.795 117.27 483.821 118.584 484.688 120.002L484.091 120.369ZM454.581 113.751L454.194 113.166C455.583 112.253 457.072 111.502 458.632 110.928L458.875 111.584C457.365 112.14 455.925 112.867 454.581 113.751ZM477.389 113.54C476.031 112.678 474.577 111.975 473.057 111.446L473.287 110.784C474.858 111.332 476.359 112.058 477.763 112.949L477.389 113.54ZM463.549 110.442L463.463 109.749C465.112 109.547 466.778 109.532 468.431 109.704L468.357 110.401C466.758 110.232 465.145 110.246 463.549 110.442Z" fill="#BFABD3"/>
<path d="M133.11 58.4555C132.858 58.4555 132.602 58.4555 132.349 58.4555L132.375 57.7553C133.983 57.8094 135.591 57.6818 137.171 57.3749L137.305 58.0622C135.922 58.3279 134.518 58.4595 133.11 58.4555ZM127.435 57.7042C125.829 57.2705 124.279 56.6525 122.815 55.8626L123.135 55.2456C124.553 56.0107 126.055 56.6094 127.611 57.0296L127.435 57.7042ZM142.04 56.5404L141.752 55.901C143.218 55.2388 144.603 54.4107 145.88 53.4328L146.305 53.9859C144.983 54.9987 143.548 55.8558 142.03 56.5404H142.04ZM118.723 53.0044C117.476 51.9038 116.359 50.6637 115.395 49.3085L115.967 48.9024C116.9 50.2139 117.981 51.4142 119.187 52.48L118.723 53.0044ZM149.866 50.5234L149.326 50.0758C150.349 48.835 151.226 47.48 151.938 46.0378L152.578 46.3575C151.838 47.8487 150.93 49.2507 149.873 50.5362L149.866 50.5234ZM113.003 44.97C112.37 43.4291 111.92 41.8197 111.661 40.1743L112.351 40.0656C112.604 41.6524 113.04 43.2048 113.649 44.6918L113.003 44.97ZM154.246 41.6801L153.565 41.5202C153.929 39.9529 154.112 38.3494 154.112 36.7405H154.812C154.815 38.4032 154.626 40.0606 154.25 41.6801H154.246ZM112.14 35.2666L111.44 35.2187C111.555 33.5596 111.86 31.9193 112.351 30.3303L113.019 30.5381C112.546 32.0753 112.251 33.6619 112.14 35.2666ZM154.023 34.8734C153.884 33.2722 153.562 31.6921 153.063 30.164L153.728 29.9434C154.247 31.5228 154.583 33.1566 154.729 34.8127L154.023 34.8734ZM114.957 26.1484L114.353 25.7935C115.193 24.3593 116.195 23.026 117.339 21.8195L117.847 22.2991C116.741 23.4688 115.772 24.7602 114.957 26.1484ZM151.043 25.8095C150.206 24.4277 149.212 23.1468 148.082 21.9921L148.581 21.503C149.754 22.6895 150.785 24.0081 151.654 25.4323L151.043 25.8095ZM121.533 19.2074L121.146 18.6224C122.534 17.7092 124.022 16.9583 125.581 16.3844L125.824 17.0398C124.316 17.5921 122.877 18.3151 121.533 19.1946V19.2074ZM144.338 18.9932C142.98 18.1241 141.527 17.414 140.006 16.8767L140.237 16.2149C141.806 16.7618 143.308 17.487 144.713 18.3762L144.338 18.9932ZM130.498 15.8984L130.415 15.2046C132.064 15.0026 133.731 14.9876 135.383 15.1599L135.31 15.8536C133.71 15.6835 132.096 15.6943 130.498 15.8856V15.8984Z" fill="#BFABD3"/>
<path d="M423.559 54.948V54.2478C425.159 54.229 426.747 53.9615 428.265 53.4549L428.486 54.1199C426.896 54.6492 425.234 54.9285 423.559 54.948ZM418.61 54.2318C417.012 53.7381 415.501 52.9958 414.134 52.0322L414.537 51.4599C415.846 52.3808 417.292 53.0907 418.821 53.5636L418.61 54.2318ZM432.895 51.8148L432.479 51.2489C433.767 50.2971 434.899 49.1518 435.836 47.8535L436.402 48.266C435.428 49.6227 434.249 50.8199 432.908 51.8148H432.895ZM410.537 48.5633C409.527 47.2287 408.732 45.7444 408.181 44.164L408.843 43.9338C409.364 45.4446 410.12 46.8642 411.081 48.1413L410.537 48.5633ZM438.672 43.8091L438.007 43.5949C438.497 42.071 438.745 40.4798 438.742 38.8792C438.742 38.6394 438.742 38.3996 438.742 38.163L439.443 38.131C439.443 38.3804 439.459 38.6298 439.459 38.8792C439.454 40.5536 439.188 42.2171 438.669 43.8091H438.672ZM407.308 39.2564C407.308 39.1317 407.308 39.0039 407.308 38.8792C407.306 37.3314 407.528 35.7916 407.967 34.3073L408.638 34.5055C408.217 35.9254 408.002 37.3982 407.999 38.8792C407.999 39.0007 407.999 39.119 407.999 39.2372L407.308 39.2564ZM437.767 33.5016C437.205 32.0024 436.412 30.6001 435.417 29.3453L435.964 28.9105C437.006 30.2209 437.836 31.6871 438.423 33.2554L437.767 33.5016ZM410.691 30.2117L410.112 29.8153C411.06 28.4349 412.216 27.2097 413.539 26.1833L413.968 26.7396C412.701 27.7145 411.596 28.8817 410.691 30.1989V30.2117ZM431.907 26.1098C430.576 25.2203 429.114 24.544 427.575 24.1052L427.763 23.4338C429.373 23.8825 430.902 24.5828 432.294 25.5087L431.907 26.1098ZM418.159 24.4377L417.919 23.7759C419.494 23.2093 421.148 22.8922 422.821 22.8359L422.843 23.5361C421.242 23.584 419.658 23.884 418.15 24.4249L418.159 24.4377Z" fill="#BFABD3"/>
<path d="M459.79 85.6868C464.564 84.0068 467.072 78.7751 465.392 74.0015C463.712 69.228 458.48 66.7202 453.706 68.4003C448.933 70.0804 446.425 75.3121 448.105 80.0857C449.785 84.8592 455.017 87.3669 459.79 85.6868Z" fill="#F0EBF4"/>
<path d="M409.374 107.525V189.02H392.167C393.324 185.623 393.909 182.058 393.896 178.469C393.896 164.053 384.804 152.377 373.582 152.377C362.36 152.377 353.27 164.053 353.27 178.469C353.258 182.058 353.842 185.623 355 189.02H220.164C220.88 191.752 221.24 194.565 221.235 197.39C221.235 211.799 212.142 223.482 200.924 223.482C189.705 223.482 180.609 211.799 180.609 197.39C180.606 194.565 180.966 191.752 181.68 189.02H164.55V107.525H181.296C180.837 109.743 180.607 112.002 180.609 114.268C180.609 128.677 189.702 140.359 200.924 140.359C212.146 140.359 221.235 128.677 221.235 114.268C221.239 112.002 221.008 109.743 220.548 107.525H355.608C354.045 103.659 353.252 99.5259 353.27 95.3565C353.27 80.947 362.36 69.2646 373.582 69.2646C384.804 69.2646 393.896 80.947 393.896 95.3565C393.916 99.5262 393.121 103.66 391.556 107.525H409.374Z" fill="#BFABD3"/>
<path d="M322.011 189.523L320.643 189.204C323.186 177.86 327.56 167.007 333.591 157.069C338.03 149.676 340.658 141.338 341.261 132.736C341.864 124.134 340.424 115.511 337.06 107.571L338.339 107.024C341.788 115.168 343.264 124.012 342.645 132.835C342.027 141.657 339.332 150.209 334.78 157.792C328.827 167.604 324.514 178.322 322.011 189.523Z" fill="white"/>
<path d="M251.923 189.526C249.6 178.511 245.394 167.979 239.489 158.395C233.998 149.521 231.103 139.286 231.132 128.85C231.132 121.361 232.655 113.951 235.608 107.068L236.886 107.618C234.015 114.327 232.536 121.55 232.541 128.847C232.512 139.022 235.334 149.001 240.688 157.653C246.679 167.375 250.946 178.058 253.3 189.232L251.923 189.526Z" fill="white"/>
<path d="M275.499 154.328V126.937H280.5L294.714 150.904L294.486 150.946V126.937H298.034V154.328H292.992L278.819 130.299L279.047 130.341V154.328H275.499ZM273.196 141.899V139.367H300.338V141.899H273.196Z" fill="#F4F4F4"/>
<path d="M208.306 138.577C207.65 142.078 206.185 145.378 204.028 148.213C200.738 152.58 195.875 156.177 189.577 158.901C182.377 162.015 172.798 163.696 164.55 160.819V161.558C167.526 162.533 170.641 163.018 173.774 162.993C179.474 162.993 185.162 161.561 189.858 159.531C196.253 156.756 201.224 153.085 204.588 148.622C206.916 145.552 208.453 141.956 209.064 138.151C208.827 138.308 208.562 138.446 208.306 138.577Z" fill="white"/>
<path d="M409.374 152.335L398.069 138.022C393.075 131.701 387.915 125.166 384.676 117.643C381.066 109.251 380.58 100.865 383.314 94.0293C385.001 89.8516 388.018 86.3467 391.898 84.0574C391.815 83.84 391.726 83.6226 391.639 83.418C387.58 85.7798 384.423 89.4253 382.665 93.7799C379.861 100.788 380.347 109.363 384.033 117.928C387.307 125.537 392.499 132.11 397.519 138.466L409.374 153.493V152.335Z" fill="white"/>
<path d="M409.374 189.02V236.3C409.374 244.618 406.373 252.657 400.923 258.941C395.473 265.225 387.939 269.332 379.704 270.509H194.219C185.985 269.331 178.452 265.223 173.002 258.94C167.552 252.656 164.551 244.617 164.55 236.3V189.02H181.68C180.966 191.753 180.606 194.566 180.609 197.39C180.609 211.8 189.702 223.482 200.924 223.482C212.146 223.482 221.235 211.8 221.235 197.39C221.24 194.566 220.88 191.753 220.164 189.02H354.99C353.833 185.624 353.248 182.058 353.261 178.47C353.261 164.054 362.35 152.378 373.572 152.378C384.794 152.378 393.887 164.054 393.887 178.47C393.899 182.058 393.315 185.624 392.157 189.02H409.374Z" fill="#4B0082"/>
<path opacity="0.8" d="M319.882 213.706H318.767V213.006H318.482V210.646C318.482 210.237 318.482 209.828 318.482 209.419L319.882 209.438C319.882 209.841 319.882 210.243 319.882 210.646V213.706ZM314.767 213.706H310.774V212.306H314.767V213.706ZM306.774 213.706H302.781V212.306H306.774V213.706ZM298.781 213.706H294.791V212.306H298.781V213.706ZM290.789 213.706H286.799V212.306H290.789V213.706ZM282.796 213.706H278.85V212.306H282.84L282.796 213.706ZM274.803 213.706H270.867V212.306H274.857L274.803 213.706ZM266.81 213.706H262.881V212.306H266.874L266.81 213.706ZM258.817 213.706H254.897V212.306H258.891L258.817 213.706ZM254.012 209.185C253.983 207.871 253.926 206.538 253.849 205.224L255.246 205.141C255.326 206.474 255.383 207.823 255.412 209.153L254.012 209.185ZM320.023 205.476L318.623 205.4C318.696 204.073 318.795 202.724 318.923 201.391L320.317 201.525C320.193 202.839 320.093 204.169 320.023 205.476ZM253.523 201.269C253.395 199.958 253.241 198.635 253.066 197.33L254.453 197.145C254.632 198.462 254.773 199.805 254.917 201.135L253.523 201.269ZM320.784 197.589L319.397 197.397C319.579 196.074 319.787 194.737 320.036 193.426L321.414 193.673C321.155 194.958 320.95 196.281 320.784 197.589ZM252.471 193.414C252.244 192.112 251.991 190.802 251.716 189.52L253.088 189.229C253.363 190.527 253.622 191.853 253.852 193.174L252.471 193.414ZM322.168 189.782L320.8 189.488L320.861 189.216L322.223 189.536L322.168 189.782Z" fill="white"/>
<path opacity="0.8" d="M409.38 220.313C402.49 222.663 394.817 222.068 388.791 221.253C387.07 221.019 385.322 220.747 383.627 220.485C377.984 219.612 372.143 218.708 366.363 219.04C357.638 219.539 350.403 223.043 346.505 228.654C343.276 233.312 342.068 239.463 342.707 248.022C343.3 255.718 344.981 263.291 347.701 270.514H348.446C345.697 263.279 344 255.688 343.407 247.971C342.768 239.582 343.948 233.584 347.084 229.054C350.853 223.618 357.897 220.223 366.401 219.737C372.13 219.417 377.927 220.309 383.538 221.179C385.232 221.441 386.984 221.713 388.711 221.946C394.753 222.765 402.43 223.353 409.396 221.048L409.38 220.313Z" fill="white"/>
<path opacity="0.8" d="M203.577 249.705C198.481 243.157 190.469 238.592 180.996 236.849C175.996 235.928 170.56 235.768 164.55 236.366C164.55 236.6 164.55 236.833 164.55 237.066C170.516 236.472 175.906 236.625 180.855 237.536C190.152 239.25 198.021 243.723 203.011 250.133C207.561 255.981 209.591 262.938 210.323 270.512H211.03C210.301 262.797 208.242 255.703 203.577 249.705Z" fill="white"/>
<path d="M347.692 337.115L318.972 272.322H254.959L226.242 337.115L224.96 336.546L254.048 270.922H319.883L348.971 336.546L347.692 337.115Z" fill="#4B0082"/>
<path d="M319.45 256.572H254.522V272.078H319.45V256.572Z" fill="#1B1B43"/>
<path d="M389.921 332.7H183.997V417.776H389.921V332.7Z" fill="#F0EBF4"/>
<path opacity="0.3" d="M389.921 332.7V417.776H183.997V405.413C252.297 408.054 342.018 386.754 367.627 332.7H389.921Z" fill="#CEBFDD"/>
<path d="M84.7489 299.988L82.1816 315.398H98.7588L95.7247 299.988H84.7489Z" fill="#1B1B43"/>
<path d="M107.535 173.323L107.03 184.28L106.755 190.274L106.246 201.298L101.578 302.206H80.2024L79.5022 191.886C76.9957 184.622 76.3722 177.818 77.5072 171.405C78.2727 167.146 79.779 163.055 81.9576 159.316L97.0162 153.012L99.9447 158.671L105.031 168.505L107.535 173.323Z" fill="#4B0082"/>
<path d="M114.784 253.609L108.742 267.619L130.981 280.139L125.204 265.432L127.829 257.289L114.784 253.609Z" fill="#1B1B43"/>
<path d="M107.011 184.282L106.228 201.3C100.566 195.657 98.9895 189.023 99.4595 181.906L107.011 184.282Z" fill="#1B1B43"/>
<path d="M145.542 215.126L130.515 261.165L126.915 260.119L113.641 256.26L110.252 255.282L122.999 205.928L106.741 190.262L99.4103 183.203L87.7056 171.939L87.8239 171.117L89.6654 158.53L99.941 158.665L114.833 158.86L119.75 164.365L139.525 186.473C142.95 190.304 145.308 194.967 146.364 199.995C147.42 205.024 147.136 210.241 145.542 215.126Z" fill="#4B0082"/>
<path opacity="0.6" d="M119.745 164.371C112.331 167.984 107.865 166.232 101.036 167.018C96.5596 167.536 86.3288 172.623 77.5015 171.405C78.267 167.146 79.7732 163.055 81.9519 159.316L97.0104 153.012L99.939 158.671L114.831 158.866L119.745 164.371Z" fill="#1B1B43"/>
<path d="M99.293 112.387L112.082 125.345L137.297 114.311C135.417 111.68 129.304 103.013 127.118 100.445L99.293 112.387Z" fill="#F1E0CB"/>
<path d="M166.005 73.1445L141.314 94.332L127.109 100.429C129.283 102.987 134.111 109.701 135.987 112.335L137.049 111.76C144.628 107.645 151.442 102.256 157.191 95.8282L172.147 79.0976L166.005 73.1445Z" fill="#FFBC96"/>
<path d="M382.967 30.3036L388.722 76.8827L371.038 79.0727C372.117 75.0448 372.398 70.8451 371.867 66.7094C370.095 52.4118 359.638 41.9348 348.502 43.3128C337.366 44.6907 329.776 57.4025 331.557 71.7001C332.05 75.8405 333.346 79.8448 335.374 83.488L201.334 100.084C202.063 102.231 202.57 104.446 202.847 106.696C204.615 120.994 197.028 133.705 185.902 135.083C174.776 136.461 164.296 125.984 162.524 111.687C162.242 109.437 162.193 107.165 162.377 104.906L145.752 106.965L139.997 60.3823C138.873 51.287 141.408 42.1177 147.044 34.8912C152.68 27.6646 160.955 22.9726 170.05 21.8472L344.442 0.250512C353.535 -0.871722 362.703 1.66387 369.927 7.29969C377.152 12.9355 381.842 21.21 382.967 30.3036Z" fill="#FFC857"/>
<path d="M222.384 97.5696L221.025 97.1796C221.179 96.6488 221.341 96.1213 221.511 95.597L222.845 96.0286C222.697 96.5465 222.544 97.0602 222.384 97.5696ZM224.197 92.3295L222.899 91.8052C223.401 90.5583 223.954 89.3178 224.545 88.1125L225.802 88.7295C225.23 89.8965 224.689 91.1082 224.197 92.3295ZM227.659 85.2542L226.448 84.5509C227.122 83.3903 227.848 82.2393 228.603 81.1299L229.76 81.9196C229.018 82.9939 228.318 84.1161 227.659 85.2478V85.2542ZM322.18 85.2031C321.524 84.0713 320.818 82.9491 320.082 81.8685L321.24 81.0788C321.994 82.1882 322.717 83.3392 323.391 84.5029L322.18 85.2031ZM232.091 78.7353L230.994 77.8689C231.825 76.8138 232.705 75.7779 233.609 74.7868L234.642 75.746C233.763 76.6987 232.903 77.709 232.091 78.7353ZM317.748 78.6873C316.94 77.6642 316.076 76.6571 315.191 75.6884L316.223 74.7293C317.135 75.7236 318.017 76.7563 318.845 77.8049L317.748 78.6873ZM237.401 72.9165L236.442 71.903C237.401 70.9758 238.434 70.0742 239.47 69.2238L240.358 70.3076C239.345 71.1357 238.351 72.0149 237.401 72.9165ZM312.425 72.8813C311.466 71.9829 310.478 71.1069 309.468 70.2789L310.353 69.195C311.392 70.0423 312.412 70.9407 313.387 71.8614L312.425 72.8813ZM243.485 67.9162L242.673 66.7716C243.773 65.9947 244.911 65.2498 246.056 64.556L246.778 65.7549C245.663 66.4327 244.556 67.1553 243.485 67.9162ZM306.328 67.897C305.254 67.1393 304.145 66.4167 303.026 65.7453L303.751 64.5432C304.896 65.2338 306.034 65.9755 307.134 66.7524L306.328 67.897ZM250.222 63.8398L249.582 62.5897C250.781 61.9791 252.012 61.4068 253.249 60.8888L253.793 62.1677C252.591 62.6856 251.398 63.2356 250.222 63.8398ZM299.582 63.8398C298.418 63.2515 297.213 62.692 296.008 62.1837L296.551 60.9049C297.789 61.426 299.023 61.9983 300.215 62.6057L299.582 63.8398ZM257.473 60.7866L257.025 59.4565C258.304 59.0281 259.583 58.6413 260.9 58.3088L261.249 59.6643C259.989 59.9905 258.716 60.3581 257.473 60.7866ZM292.322 60.7866C291.087 60.3709 289.818 59.9937 288.549 59.6643L288.897 58.3088C290.202 58.6445 291.503 59.0345 292.769 59.4597L292.322 60.7866ZM265.101 58.8235L264.852 57.4455C265.453 57.3368 266.054 57.2377 266.661 57.1482C267.39 57.0395 268.122 56.9468 268.851 56.8669L269.002 58.2608C268.292 58.3375 267.58 58.4281 266.866 58.5326C266.276 58.62 265.687 58.7159 265.101 58.8203V58.8235ZM284.703 58.8235C283.424 58.5901 282.107 58.3983 280.802 58.2576L280.953 56.8669C282.292 57.0107 283.635 57.2058 284.952 57.4455L284.703 58.8235ZM272.934 57.9795L272.883 56.5791C274.239 56.5322 275.586 56.5322 276.924 56.5791L276.873 57.9795C275.572 57.9219 274.255 57.9219 272.934 57.9699V57.9795Z" fill="white"/>
<path d="M243.587 12.7451L242.071 12.9338C240.846 13.8609 239.645 14.8051 238.468 15.7664C220.331 30.5596 204.55 49.4866 181.984 57.7544C172.016 61.4024 161.142 62.5501 150.915 59.3018C146.964 58.0524 143.224 56.2148 139.821 53.8507C139.801 54.1257 139.785 54.4038 139.776 54.6788C148.258 60.3889 159.278 62.8187 169.298 61.591C192.727 58.7136 210.647 41.5353 227.333 26.4001C232.394 21.7962 237.822 17.0613 243.587 12.7451Z" fill="white"/>
<path d="M383.08 31.2673C372.616 32.4471 362.024 31.6414 351.969 28.0702C337.431 22.8972 326.027 11.963 312.938 4.1748L311.841 4.31228C323.613 11.1797 334.157 20.8511 346.438 26.5548C358.03 31.9387 370.688 33.3167 383.16 31.9259L383.08 31.2673Z" fill="white"/>
<path d="M115.968 89.707C115.968 89.707 120.521 93.1216 119.821 94.5219C119.12 95.9223 115.62 96.3187 115.62 96.3187L115.968 89.707Z" fill="#D28572"/>
<path d="M111.901 101.138V111.468L97.8018 109.802V100.303L97.8913 98.0268L101.744 94.2158L109.043 99.1906L111.901 101.138Z" fill="#FFBC96"/>
<path d="M111.901 101.132V108.878L111.843 108.936C107.326 108.466 104.49 105.377 102.325 101.231L109.039 99.1846L111.901 101.132Z" fill="#1B1B43"/>
<path d="M116.623 85.1544C116.623 85.1544 118.461 101.351 113.557 103.452C108.208 105.757 101.136 101.281 101.136 101.281L99.9111 93.7515L103.94 84.208L116.623 85.1544Z" fill="#FFBC96"/>
<path d="M107.738 92.4217C108.01 89.6785 108.956 87.2647 110.89 85.3304C116.073 87.2839 120.322 86.2096 123.062 80.215C118.944 80.6082 116.859 80.5059 111.766 77.2353C105.417 73.1653 99.3328 79.8186 99.3328 79.8186C89.2042 84.1731 92.9385 92.3386 97.8013 100.309C98.9459 97.5499 100.759 95.0593 106.293 94.0458L107.738 92.4217Z" fill="#1B1B43"/>
<path d="M108.927 91.4899C109.991 93.162 109.863 95.1506 108.639 95.9308C107.414 96.7109 105.554 95.9947 104.483 94.3322C103.412 92.6697 103.543 90.6715 104.77 89.8914C105.998 89.1113 107.849 89.8178 108.927 91.4899Z" fill="#FFBC96"/>
<path d="M143.939 115.186L162.326 112.385L179.312 95.5747C179.312 95.5747 181.764 80.6888 182.829 81.0405C183.894 81.3922 184.229 88.0454 184.229 88.0454C184.229 88.0454 188.785 76.6604 189.834 77.1751C190.883 77.6899 188.61 87.3293 188.61 87.3293C188.61 87.3293 194.563 89.433 194.387 91.1818C194.211 92.9306 189.994 98.7239 188.418 100.476C187.497 101.502 181.304 109.77 176.323 116.462C174.276 119.21 171.689 121.51 168.72 123.22C165.75 124.93 162.462 126.014 159.058 126.405L136.244 129.02L143.939 115.186Z" fill="#FFBC96"/>
<path d="M143.94 115.185L142.188 132.52L124.156 131.653C124.156 131.653 123.744 135.701 123.12 140.765C122.28 147.565 121.061 156.211 119.952 159.309C118.034 164.744 112.774 162.109 104.893 161.409C97.0125 160.709 89.6591 164.91 82.1299 165.61C74.6006 166.31 77.5771 162.093 79.1533 156.856C80.7295 151.619 83.5302 134.441 82.9899 127.443C82.4496 120.444 85.4389 111.508 95.2477 108.356C105.057 105.203 143.94 115.185 143.94 115.185Z" fill="#F1E0CB"/>
<path d="M124.153 131.654C124.153 131.654 123.741 135.702 123.117 140.766C120.278 138.874 118.322 135.939 118.2 131.303L124.153 131.654Z" fill="#1B1B43"/>
<path d="M143.877 115.439C143.477 115.333 103.807 104.668 93.5122 109.703L93.2788 109.23C97.6877 107.075 107.573 107.382 122.657 110.141C133.863 112.194 143.912 114.905 144.014 114.937L143.877 115.439Z" fill="#1B1B43"/>
<path d="M452.897 201.707C452.107 201.908 451.56 202.544 451.055 203.136C450.55 203.727 449.971 204.344 449.165 204.495C448.421 204.629 447.656 204.328 446.892 204.306C446.374 204.288 445.861 204.411 445.407 204.661C444.953 204.911 444.575 205.278 444.312 205.726C444.084 206.168 443.993 206.668 444.05 207.162C444.107 207.656 444.309 208.122 444.632 208.501C443.465 208.609 442.253 208.728 441.256 209.284C440.258 209.84 439.539 210.969 439.9 212.001C440.056 212.322 440.193 212.651 440.313 212.986C440.568 214.096 439.337 214.952 438.26 215.48C437.183 216.007 435.926 216.791 436.076 217.913C436.239 219.122 437.928 219.684 438.378 220.829C438.871 222.076 437.739 223.291 436.687 224.183C435.635 225.075 434.519 226.309 435.041 227.543C435.306 228.182 435.942 228.601 436.348 229.164C436.55 229.439 436.409 230.762 436.134 232.096C436.056 232.483 436.055 232.883 436.131 233.271C436.207 233.659 436.359 234.028 436.578 234.358C436.797 234.687 437.079 234.97 437.408 235.19C437.737 235.41 438.106 235.564 438.493 235.641L444.91 236.92L466.44 239.455L476.894 237.198C476.255 236.725 476.073 235.919 476.028 235.165C475.983 234.41 476.028 233.643 475.708 232.949C475.388 232.255 474.535 231.686 473.79 231.948C474.415 231.496 474.95 230.93 475.366 230.28C475.565 229.957 475.664 229.584 475.651 229.205C475.638 228.827 475.513 228.461 475.292 228.153C474.49 227.162 472.565 227.194 472.095 226.034C471.513 224.576 474.014 223.191 473.352 221.766C472.863 220.726 471.002 220.589 470.74 219.489C470.442 218.245 472.562 217.309 472.153 216.094C471.833 215.115 470.145 215.023 469.726 214.07C469.192 212.858 471.187 211.794 470.97 210.508C470.781 209.373 469.192 209.089 468.07 208.59C466.257 207.765 465.33 205.914 463.939 204.562C462.85 203.553 461.528 202.83 460.091 202.455C458.654 202.08 457.147 202.066 455.704 202.413C455.704 202.413 453.686 201.502 452.897 201.707Z" fill="#1B1B43"/>
<path d="M470.234 398.778L472.101 417.689H444.2L456.106 406.95L457.74 397.727L470.234 398.778Z" fill="#9881AE"/>
<path d="M456.507 408.693L456.052 409.226L460.127 412.711L460.582 412.178L456.507 408.693Z" fill="#1B1B43"/>
<path d="M473.854 400.967L470.443 400.909L457.219 400.679L453.543 400.615C448.274 361.511 441.592 318.398 442.209 295.999C442.321 291.801 442.698 288.325 443.385 285.742L455.215 287.341L466.497 288.882C466.286 291.487 466.146 294.317 466.085 297.338C465.896 305.827 466.232 315.843 466.916 326.889C468.294 348.876 471.066 374.898 473.854 400.967Z" fill="#1B1B43"/>
<path d="M496.27 397.815L500.941 417.192L523.119 426.998L511.68 408.087L508.761 396.996L496.27 397.815Z" fill="#9881AE"/>
<path d="M511.405 407.876L508.426 411.61L508.974 412.047L511.952 408.313L511.405 407.876Z" fill="#1B1B43"/>
<path d="M513.427 400.27H492.764C483.841 378.178 475.014 352.821 466.915 326.905C463.862 317.147 460.914 307.307 458.098 297.536C457.139 294.131 456.157 290.739 455.22 287.357C454.769 285.769 454.326 284.181 453.894 282.593L478.061 282.944C479.026 287.009 480.054 291.144 481.143 295.349C489.289 327.071 500.553 362.662 513.427 400.27Z" fill="#1B1B43"/>
<path d="M462.074 311.268C462.777 313.278 463.46 315.295 464.123 317.32C464.791 319.344 465.418 321.377 466.067 323.394L467.924 329.507C468.522 331.553 469.117 333.596 469.661 335.659L469.398 335.738C468.679 333.734 468.008 331.713 467.339 329.689L465.405 323.615C464.791 321.575 464.149 319.545 463.557 317.499C462.966 315.453 462.374 313.406 461.812 311.354L462.074 311.268Z" fill="white"/>
<path d="M481.323 286.423C480.904 287.64 480.133 288.706 479.109 289.486C478.085 290.266 476.853 290.725 475.568 290.806C465.999 291.845 455.81 292.51 445.134 292.9C443.647 293.002 442.176 292.537 441.017 291.6C439.858 290.662 439.096 289.321 438.884 287.846C436.453 270.972 435.909 253.88 437.26 236.886C454.771 227.432 467.904 235.78 480.741 234.968C481.38 240.339 480.629 247.546 480.607 253.262C480.607 254.349 480.607 255.379 480.683 256.331C480.789 257.949 480.824 259.701 480.83 261.447C480.853 263.512 480.83 265.558 480.859 267.365C480.923 272.218 483.129 281.007 481.323 286.423Z" fill="#FFC857"/>
<path d="M480.83 261.437C478.877 260.603 476.84 258.202 476.146 255.791L480.622 253.256C480.622 254.343 480.623 255.372 480.699 256.325C480.789 257.94 480.824 259.695 480.83 261.437Z" fill="#1B1B43"/>
<path d="M437.255 236.891C431.612 241.168 411.41 262.468 413.967 273.658C416.503 284.774 429.202 272.433 437.431 256.147L441.984 244.589L437.255 236.891Z" fill="#FFC857"/>
<path d="M417.989 274.361C417.432 275.876 415.636 280.522 420.096 282.792C420.464 282.978 420.878 283.059 421.29 283.025C421.702 282.991 422.096 282.844 422.429 282.6C422.952 282.168 423.616 281.946 424.293 281.98C425.694 282.155 426.212 280.841 427.359 280.141C428.507 279.441 429.597 277.612 429.278 276.305C428.146 271.384 421.055 269.37 417.989 274.361Z" fill="#FFBC96"/>
<path d="M515.56 211.75L517.858 203.527C517.858 203.527 518.817 197.385 519.713 197.772C520.608 198.159 520.787 203.082 520.787 203.082C520.787 203.082 523.824 194.207 524.777 194.45C525.73 194.693 523.341 203.329 523.341 203.329C523.341 203.329 528.457 203.882 528.323 207.165C528.188 210.449 521.839 216.91 521.839 216.91L515.56 211.75Z" fill="#FFBC96"/>
<path d="M474.38 234.791C474.38 234.791 491.644 237.307 502.93 225.688C514.216 214.07 516.109 209.217 516.109 209.217L524.527 217.088C513.737 241.3 497.805 254.207 475.138 257.283L474.38 234.791Z" fill="#FFC857"/>
<path d="M436.992 270.34C436.912 267.942 436.784 265.324 436.672 262.792C436.352 255.928 435.997 248.833 436.477 244.734L436.998 244.798C436.525 248.852 436.867 255.924 437.196 262.766C437.318 265.302 437.446 267.923 437.516 270.324L436.992 270.34Z" fill="#1B1B43"/>
<path opacity="0.6" d="M451.925 256.761C451.804 259.389 448.194 258.516 447.903 256.442C447.612 254.367 449.853 253.056 451.66 253.129C453.284 253.196 454.662 254.124 455.851 255.147C458.134 257.116 460.062 259.434 463.358 259.341C465.462 259.281 467.224 257.461 466.431 255.278C465.59 252.957 462.303 252.103 460.481 253.714C460.225 253.938 460.599 254.309 460.852 254.085C462.882 252.292 466.945 254.341 465.913 257.177C465.152 259.265 462.591 258.983 460.909 258.366C457.197 257.007 455.103 251.786 450.538 252.682C448.127 253.155 446.062 256.298 448.325 258.213C449.924 259.552 452.347 259.015 452.45 256.774C452.45 256.435 451.941 256.435 451.925 256.774V256.761Z" fill="white"/>
<path d="M462.845 222.006V233.087C462.845 236.694 460.194 239.613 456.93 239.613C456.138 239.606 455.356 239.431 454.636 239.101C453.915 238.77 453.273 238.291 452.752 237.694C451.701 236.517 451.092 235.012 451.028 233.436C451.028 233.317 451.028 233.199 451.028 233.081V224.225L459.149 222.7L462.845 222.006Z" fill="#FFBC96"/>
<path d="M459.83 225.704C458.871 229.684 454.123 232.737 451.028 233.444C451.028 233.326 451.028 233.207 451.028 233.089V224.233L459.149 222.708L459.83 225.704Z" fill="#D28572"/>
<path d="M447.434 210.437C447.434 210.437 444.035 226.896 448.265 228.386C457.457 231.628 463.352 223.098 462.841 221.992L463.106 211.572L456.018 209.389L447.434 210.437Z" fill="#FFBC96"/>
<path d="M446.074 213.284C446.147 214.038 447.138 214.374 447.864 214.144C448.59 213.913 449.143 213.335 449.782 212.925C450.422 212.516 451.317 212.286 451.905 212.769C452.11 212.935 452.254 213.175 452.474 213.322C453.091 213.744 453.907 213.28 454.511 212.836C455.115 212.392 455.953 211.954 456.548 212.404C457.142 212.855 457.065 213.926 457.75 214.201C458.3 214.425 458.981 213.952 459.489 214.252C459.639 214.367 459.755 214.521 459.823 214.698C459.891 214.875 459.908 215.067 459.873 215.253C459.834 215.63 459.694 215.991 459.674 216.372C459.669 216.823 459.834 217.26 460.136 217.595C460.438 217.93 460.856 218.14 461.305 218.182L465.512 214.492L462.187 208.13L451.912 208.015L446.544 209.294L446.074 213.284Z" fill="#1B1B43"/>
<path d="M463.587 221.788C465.156 220.882 465.801 219.062 465.028 217.722C464.254 216.383 462.356 216.031 460.787 216.937C459.218 217.843 458.573 219.663 459.346 221.003C460.12 222.342 462.018 222.694 463.587 221.788Z" fill="#FFBC96"/>
<path d="M560.355 416.903H517.276V417.955H560.355V416.903Z" fill="#1B1B43"/>
<path d="M500.934 416.903H0V417.955H500.934V416.903Z" fill="#4B0082"/>
</g>
<defs>
<clipPath id="clip0_4893_35724">
<rect width="560.356" height="427" fill="white"/>
</clipPath>
</defs>
</svg>
