<svg width="574" height="428" viewBox="0 0 574 428" fill="none" xmlns="http://www.w3.org/2000/svg">
<g clip-path="url(#clip0_4893_37089)">
<path d="M573.34 375.423H0V375.71H573.34V375.423Z" fill="#E0E0E0"/>
<path d="M317.194 383.897H278.035V384.184H317.194V383.897Z" fill="#E0E0E0"/>
<path d="M376.524 27.8301H81.8271V176.394H376.524V27.8301Z" fill="#BFABD3"/>
<path d="M380.366 27.8301H85.6689V176.394H380.366V27.8301Z" fill="#DFD2EB"/>
<path d="M373.473 34.79H92.5713V169.41H373.473V34.79Z" fill="#F0EBF4"/>
<path d="M113.372 169.422L189.557 34.8018H225.254L149.08 169.422H113.372Z" fill="white"/>
<path d="M161.062 169.422L237.248 34.8018H272.944L196.77 169.422H161.062Z" fill="white"/>
<path d="M260.297 169.422L336.471 34.8018H351.171L274.997 169.422H260.297Z" fill="white"/>
<path d="M282.026 34.79H271.637V169.41H282.026V34.79Z" fill="#E0E0E0"/>
<path d="M186.737 34.79H176.348V169.41H186.737V34.79Z" fill="#E0E0E0"/>
<path d="M285.672 29.6191H275.283V173.849H285.672V29.6191Z" fill="#E7DFEE"/>
<path d="M190.383 29.6191H179.994V173.849H190.383V29.6191Z" fill="#E7DFEE"/>
<path d="M373.473 34.79H370.572V169.41H373.473V34.79Z" fill="#E7DFEE"/>
<path d="M335.702 219.544C335.702 219.544 336.184 232.868 354.794 232.868C373.405 232.868 373.898 219.544 373.898 219.544H335.702Z" fill="#EBEBEB"/>
<path d="M378.897 222.846C378.897 222.846 379.264 232.868 393.254 232.868C407.243 232.868 407.599 222.846 407.599 222.846H378.897Z" fill="#EBEBEB"/>
<path d="M348.809 241.182H317.481V366.823H348.809V241.182Z" fill="#EBEBEB"/>
<path d="M477.971 366.812H323.49V375.423H477.971V366.812Z" fill="#DFD2EB"/>
<path d="M483.991 241.17H348.809V366.812H483.991V241.17Z" fill="#E7DFEE"/>
<path d="M471.675 253.324H361.124V297.884H471.675V253.324Z" fill="#EBEBEB"/>
<path d="M471.675 306.003H361.124V350.563H471.675V306.003Z" fill="#F0EBF4"/>
<path d="M428.858 258.209H403.986C403.176 258.209 402.399 257.888 401.826 257.317C401.252 256.745 400.928 255.969 400.925 255.159C400.931 254.349 401.255 253.574 401.828 253.001C402.401 252.428 403.176 252.104 403.986 252.098H428.858C429.668 252.104 430.443 252.428 431.016 253.001C431.589 253.574 431.914 254.349 431.92 255.159C431.917 255.969 431.593 256.745 431.019 257.317C430.445 257.888 429.668 258.209 428.858 258.209Z" fill="#E7DFEE"/>
<path d="M428.858 310.888H403.986C403.176 310.888 402.399 310.567 401.826 309.995C401.252 309.424 400.928 308.648 400.925 307.838C400.931 307.028 401.255 306.253 401.828 305.68C402.401 305.107 403.176 304.782 403.986 304.776H428.858C429.668 304.782 430.443 305.107 431.016 305.68C431.589 306.253 431.914 307.028 431.92 307.838C431.917 308.648 431.593 309.424 431.019 309.995C430.445 310.567 429.668 310.888 428.858 310.888Z" fill="#E7DFEE"/>
<path d="M488.153 232.868H348.797V241.182H488.153V232.868Z" fill="#EBEBEB"/>
<path d="M348.797 232.856H313.09V241.17H348.797V232.856Z" fill="#E0E0E0"/>
<path d="M481.17 48.7451H413.31V126.926H481.17V48.7451Z" fill="#BFABD3"/>
<path d="M488.875 48.7451H415.339V126.926H488.875V48.7451Z" fill="#DFD2EB"/>
<path d="M482.718 54.9033H421.497V120.757H482.718V54.9033Z" fill="#F0EBF4"/>
<path d="M462.479 70.8652H441.736C438.753 70.8652 436.335 73.2833 436.335 76.2661V99.3946C436.335 102.377 438.753 104.795 441.736 104.795H462.479C465.462 104.795 467.88 102.377 467.88 99.3946V76.2661C467.88 73.2833 465.462 70.8652 462.479 70.8652Z" fill="white"/>
<path d="M308.56 302.632H300.683V375.423H308.56V302.632Z" fill="#E0E0E0"/>
<path opacity="0.5" d="M308.56 302.632H304.615V375.423H308.56V302.632Z" fill="#E7DFEE"/>
<path d="M274.057 323.02H268.644C269.237 322.518 269.714 321.893 270.041 321.187C270.368 320.482 270.537 319.715 270.536 318.938H206.402C206.403 319.715 206.574 320.484 206.903 321.189C207.232 321.894 207.711 322.519 208.306 323.02H202.962C201.046 323.02 199.209 323.781 197.854 325.136C196.499 326.49 195.738 328.328 195.738 330.244V351.308C195.738 353.224 196.499 355.062 197.854 356.416C199.209 357.771 201.046 358.532 202.962 358.532H274.057C275.972 358.532 277.81 357.771 279.165 356.416C280.52 355.062 281.281 353.224 281.281 351.308V330.244C281.281 328.328 280.52 326.49 279.165 325.136C277.81 323.781 275.972 323.02 274.057 323.02Z" fill="#E7DFEE"/>
<path d="M214.739 338.58H171.612C168.927 338.58 166.75 340.757 166.75 343.442V353.67C166.75 356.356 168.927 358.532 171.612 358.532H214.739C217.424 358.532 219.6 356.356 219.6 353.67V343.442C219.6 340.757 217.424 338.58 214.739 338.58Z" fill="#EBEBEB"/>
<path d="M217.972 334.177H168.378C167.479 334.177 166.75 334.906 166.75 335.805V337.663C166.75 338.562 167.479 339.291 168.378 339.291H217.972C218.871 339.291 219.6 338.562 219.6 337.663V335.805C219.6 334.906 218.871 334.177 217.972 334.177Z" fill="#E0E0E0"/>
<path d="M224.474 270.124C224.474 270.124 225.219 294.204 253.427 294.204C281.636 294.204 282.381 270.124 282.381 270.124H224.474Z" fill="#EBEBEB"/>
<path d="M123.601 294.215H88.4209V302.632H123.601V294.215Z" fill="#E0E0E0"/>
<path d="M335.863 294.215H123.612V302.632H335.863V294.215Z" fill="#E7DFEE"/>
<path d="M123.601 358.532H88.4209V366.949H123.601V358.532Z" fill="#E0E0E0"/>
<path d="M96.3093 302.632H88.4316V375.423H96.3093V302.632Z" fill="#E0E0E0"/>
<path opacity="0.5" d="M96.3098 302.632H92.3652V375.423H96.3098V302.632Z" fill="#E7DFEE"/>
<path d="M127.546 302.632H119.668V375.423H127.546V302.632Z" fill="#E7DFEE"/>
<path d="M123.613 302.632H119.668V375.423H123.613V302.632Z" fill="#E0E0E0"/>
<path d="M335.851 302.632H327.974V375.423H335.851V302.632Z" fill="#E7DFEE"/>
<path d="M331.918 302.632H327.974V375.423H331.918V302.632Z" fill="#E0E0E0"/>
<path d="M335.863 358.532H123.612V366.949H335.863V358.532Z" fill="#E7DFEE"/>
<path d="M180.212 289.25H137.418V294.215H180.212V289.25Z" fill="#E0E0E0"/>
<path d="M195.543 289.238H180.212V294.203H195.543V289.238Z" fill="#EBEBEB"/>
<path d="M286.67 427.207C409.459 427.207 508.999 421.395 508.999 414.226C508.999 407.058 409.459 401.246 286.67 401.246C163.88 401.246 64.3398 407.058 64.3398 414.226C64.3398 421.395 163.88 427.207 286.67 427.207Z" fill="#9881AE"/>
<path d="M217.828 109.738C217.908 123.326 208.173 123.189 208.367 118.969C208.562 114.749 206.154 104.647 208.367 105.622C210.581 106.596 217.793 103.729 217.828 109.738Z" fill="#1A2E35"/>
<path d="M211.704 134.346C213.046 134.242 215.74 135.492 215.981 139.036C216.044 140.065 216.345 141.066 216.86 141.959C217.376 142.853 218.091 143.614 218.951 144.184C218.951 144.184 214.491 144.723 211.567 142.407C209.181 140.538 208.126 136.444 209.376 135.527C210.063 134.977 210.855 134.575 211.704 134.346Z" fill="#1A2E35"/>
<path d="M209.949 124.69C212.243 126.72 214.341 132.087 209.17 134.632C203.998 137.178 195.868 131.249 195.868 131.249L204.801 127.11L209.949 124.69Z" fill="#1A2E35"/>
<path d="M212.495 134.838C212.37 134.095 212.162 133.368 211.876 132.671C211.854 132.613 211.821 132.56 211.779 132.515C211.737 132.469 211.686 132.433 211.629 132.407C211.573 132.382 211.512 132.367 211.45 132.365C211.388 132.364 211.326 132.374 211.268 132.396H211.176L208 134.483C207.949 134.518 207.905 134.562 207.871 134.613C207.837 134.665 207.813 134.723 207.801 134.784C207.79 134.844 207.79 134.907 207.803 134.967C207.815 135.028 207.839 135.085 207.874 135.137C207.91 135.184 207.953 135.227 208 135.263C208.459 135.596 208.95 135.88 209.468 136.111C210.213 136.409 211.761 135.561 212.289 135.194C212.35 135.156 212.4 135.104 212.436 135.042C212.472 134.98 212.493 134.91 212.495 134.838Z" fill="#4B0082"/>
<path opacity="0.3" d="M212.495 134.838C212.37 134.095 212.162 133.368 211.876 132.671C211.854 132.613 211.821 132.56 211.779 132.515C211.737 132.469 211.686 132.433 211.629 132.407C211.573 132.382 211.512 132.367 211.45 132.365C211.388 132.364 211.326 132.374 211.268 132.396H211.176L208 134.483C207.949 134.518 207.905 134.562 207.871 134.613C207.837 134.665 207.813 134.723 207.801 134.784C207.79 134.844 207.79 134.907 207.803 134.967C207.815 135.028 207.839 135.085 207.874 135.137C207.91 135.184 207.953 135.227 208 135.263C208.459 135.596 208.95 135.88 209.468 136.111C210.213 136.409 211.761 135.561 212.289 135.194C212.35 135.156 212.4 135.104 212.436 135.042C212.472 134.98 212.493 134.91 212.495 134.838Z" fill="black"/>
<path d="M178.313 129.208C177.04 128.784 174.127 129.358 173.049 132.752C172.742 133.736 172.212 134.636 171.5 135.382C170.788 136.128 169.913 136.699 168.944 137.052C168.944 137.052 173.153 138.634 176.547 137.052C179.299 135.802 181.248 132.064 180.296 130.871C179.757 130.186 179.082 129.62 178.313 129.208Z" fill="#1A2E35"/>
<path d="M190.949 105.874C186.305 107.135 180.056 112.639 182.831 119.393C180.09 121.262 176.581 126.64 180.686 130.08C185.101 133.784 195.96 128.59 195.96 128.59L196.04 126.824L197.336 113.683L190.949 105.874Z" fill="#1A2E35"/>
<path d="M177.43 129.507C177.735 128.811 178.12 128.153 178.576 127.546C178.657 127.447 178.774 127.385 178.9 127.372C179.027 127.359 179.154 127.397 179.253 127.477L179.322 127.546L181.89 130.355C181.934 130.399 181.969 130.451 181.992 130.508C182.016 130.565 182.028 130.626 182.028 130.688C182.028 130.749 182.016 130.811 181.992 130.868C181.969 130.925 181.934 130.977 181.89 131.02C181.854 131.064 181.806 131.096 181.753 131.112C181.232 131.326 180.69 131.483 180.136 131.582C179.333 131.697 178.095 130.516 177.613 130.034C177.533 129.975 177.472 129.893 177.439 129.799C177.407 129.705 177.403 129.603 177.43 129.507Z" fill="#4B0082"/>
<path opacity="0.3" d="M177.43 129.507C177.735 128.811 178.12 128.153 178.576 127.546C178.657 127.447 178.774 127.385 178.9 127.372C179.027 127.359 179.154 127.397 179.253 127.477L179.322 127.546L181.89 130.355C181.934 130.399 181.969 130.451 181.992 130.508C182.016 130.565 182.028 130.626 182.028 130.688C182.028 130.749 182.016 130.811 181.992 130.868C181.969 130.925 181.934 130.977 181.89 131.02C181.854 131.064 181.806 131.096 181.753 131.112C181.232 131.326 180.69 131.483 180.136 131.582C179.333 131.697 178.095 130.516 177.613 130.034C177.533 129.975 177.472 129.893 177.439 129.799C177.407 129.705 177.403 129.603 177.43 129.507Z" fill="black"/>
<path d="M219.215 153.736C221.405 155.433 223.801 157.245 226.209 158.896C228.618 160.548 231.037 162.21 233.525 163.735C236.014 165.26 238.536 166.682 241.082 168.035L242.997 169.01L244.946 169.916C245.588 170.226 246.242 170.501 246.907 170.753L247.882 171.154C248.214 171.281 248.57 171.441 248.776 171.498C249.975 171.864 251.203 172.129 252.446 172.29C253.799 172.485 255.221 172.622 256.665 172.725C259.543 172.909 262.502 172.989 265.472 173.001C268.442 173.012 271.446 173.001 274.439 172.909L283.44 172.657L284.002 177.163C277.979 178.376 271.898 179.275 265.781 179.858C262.697 180.133 259.601 180.339 256.436 180.362C254.854 180.362 253.248 180.362 251.597 180.213C249.821 180.111 248.061 179.822 246.345 179.353C245.818 179.216 245.485 179.078 245.095 178.952L243.949 178.55C243.18 178.298 242.424 178.023 241.655 177.713L239.431 176.819L237.252 175.856C234.372 174.559 231.566 173.105 228.847 171.498C226.141 169.905 223.48 168.253 220.912 166.487C218.29 164.711 215.764 162.797 213.344 160.754L219.215 153.736Z" fill="#FD897B"/>
<path d="M207.312 148.588C210.167 146.363 221.92 153.645 225.498 156.683L222.895 172.427C222.895 172.427 205.982 165.341 204.961 160.502C203.906 155.445 205.156 150.285 207.312 148.588Z" fill="#1A2E35"/>
<path d="M282.19 173.046L289.277 167.554L289.838 176.051C289.838 176.051 284.954 179.078 281.731 177.197L282.19 173.046Z" fill="#FD897B"/>
<path d="M295.595 166.717L299.218 170.753L289.792 176.051L289.23 167.554L295.595 166.717Z" fill="#FD897B"/>
<path d="M160.963 403.025L169.896 403.69L173.152 383.13L164.231 382.465L160.963 403.025Z" fill="#FD897B"/>
<path d="M97.7695 374.289L105.349 379.059L118.846 363.051L111.266 358.27L97.7695 374.289Z" fill="#FD897B"/>
<path d="M107.746 377.35L100.648 370.206C100.525 370.084 100.363 370.01 100.191 369.997C100.018 369.984 99.8466 370.034 99.7076 370.137L93.2518 374.965C92.9541 375.205 92.7639 375.554 92.7231 375.934C92.6823 376.315 92.794 376.696 93.0339 376.994L93.1371 377.109C95.6484 379.551 96.99 380.606 100.109 383.748C102.024 385.686 104.627 388.702 107.276 391.374C109.925 394.045 112.699 391.557 111.862 390.227C107.987 384.184 108.686 381.925 108.422 378.852C108.391 378.285 108.15 377.749 107.746 377.35Z" fill="#1A2E35"/>
<path d="M170.492 402.405H160.424C160.247 402.405 160.075 402.466 159.939 402.58C159.803 402.693 159.711 402.85 159.679 403.024L158.085 410.982C158.051 411.155 158.053 411.333 158.088 411.506C158.124 411.679 158.193 411.843 158.292 411.989C158.391 412.135 158.518 412.259 158.665 412.356C158.813 412.453 158.978 412.52 159.151 412.553C159.257 412.576 159.366 412.576 159.472 412.553C162.981 412.496 164.689 412.289 169.116 412.289C171.833 412.289 179.436 412.565 183.231 412.565C187.027 412.565 187.405 408.849 185.857 408.517C178.977 407.003 174.241 404.928 171.982 402.932C171.567 402.58 171.036 402.392 170.492 402.405Z" fill="#1A2E35"/>
<path d="M173.152 383.129L171.341 394.55L162.534 393.071L164.22 382.476L173.152 383.129Z" fill="#E77064"/>
<path d="M111.266 358.281L118.846 363.051L113.261 369.679L105.51 365.104L111.266 358.281Z" fill="#E77064"/>
<path d="M168 196.578L203.708 203.539C222.158 153.578 218.144 151.938 218.144 151.938C215.55 150.511 212.869 149.247 210.118 148.154L209.636 147.971C207.343 147.134 206.884 147.007 203.834 146.113C198.582 144.863 193.686 143.82 187.62 142.96L186.473 142.799C185.326 142.661 184.283 142.547 183.228 142.444C182.517 142.363 181.806 142.317 181.129 142.272L178.836 142.145C174.914 141.951 172.105 142.008 172.105 142.008C173.194 173.209 171.429 182.165 168 196.578Z" fill="#1A2E35"/>
<path d="M192.531 124.69C192.531 130.103 191.694 139.861 187.359 142.636C187.359 142.636 187.761 148.209 197.45 150.089C208.114 152.165 203.573 145.789 203.573 145.789C198.035 143.267 198.987 138.978 200.821 135.125L192.531 124.69Z" fill="#FD897B"/>
<path d="M195.914 128.945L200.822 135.126C200.396 136.021 200.043 136.949 199.767 137.901C197.599 137.144 195.019 134.117 195.18 131.743C195.25 130.773 195.499 129.825 195.914 128.945Z" fill="#E77064"/>
<path d="M192.016 112.26C190.869 121.078 190.17 124.782 193.701 130.114C199.01 138.141 210.087 137.625 213.86 129.334C217.3 121.869 218.584 108.694 210.729 103.591C209.401 102.714 207.912 102.106 206.349 101.804C204.785 101.502 203.177 101.511 201.617 101.83C200.057 102.15 198.575 102.774 197.256 103.666C195.937 104.558 194.807 105.702 193.931 107.031C192.899 108.604 192.244 110.393 192.016 112.26Z" fill="#FD897B"/>
<path d="M220.717 98.2941C220.878 99.6925 220.773 101.109 220.407 102.468C220.325 102.007 220.214 101.551 220.075 101.103C216.933 90.7146 202.783 93.1914 198.517 97.6634C191.637 95.6911 185.09 97.2621 185.961 105.69C186.07 107.862 186.851 109.945 188.197 111.653C187.131 114.611 188.197 119.324 191.717 119.462C196.671 119.657 201.372 113.098 203.264 109.497C206.705 110.082 211.658 110.644 215.419 109.727C216.05 110.105 216.566 110.369 216.566 110.369C220.568 108.224 223.618 106.149 220.717 98.2941Z" fill="#1A2E35"/>
<path d="M188.965 118.281C188.821 119.994 189.357 121.695 190.456 123.017C191.947 124.748 193.896 123.727 194.596 121.675C195.18 119.817 195.1 116.687 193.105 115.712C192.759 115.549 192.384 115.456 192.001 115.439C191.619 115.421 191.237 115.479 190.877 115.609C190.517 115.738 190.186 115.938 189.904 116.196C189.621 116.454 189.392 116.765 189.229 117.111C189.063 117.479 188.973 117.877 188.965 118.281Z" fill="#FD897B"/>
<path d="M202.921 203.193C202.921 203.193 203.058 274.081 197.256 300.775C191.225 328.548 173.485 391.73 173.485 391.73L160.643 390.067C160.643 390.067 170.699 326.243 174.976 298.642C179.643 268.565 176.788 198.102 176.788 198.102L202.921 203.193Z" fill="#4B0082"/>
<path opacity="0.3" d="M202.921 203.193C202.921 203.193 203.058 274.081 197.256 300.775C191.225 328.548 173.485 391.73 173.485 391.73L160.643 390.067C160.643 390.067 170.699 326.243 174.976 298.642C179.643 268.565 176.788 198.102 176.788 198.102L202.921 203.193Z" fill="black"/>
<path d="M175.675 392.842L158.44 390.617L159.174 384.517L178.737 386.81L175.675 392.842Z" fill="#1A2E35"/>
<path d="M194.034 201.358C194.034 201.358 174.804 259.942 165.252 293.689C155.184 329.293 116.587 368.67 116.587 368.67L105.521 362.272C105.521 362.272 131.895 324.89 141.585 291.671C161.319 224.234 153.212 209.947 167.752 196.232L194.034 201.358Z" fill="#4B0082"/>
<path opacity="0.3" d="M194.034 201.358C194.034 201.358 174.804 259.942 165.252 293.689C155.184 329.293 116.587 368.67 116.587 368.67L105.521 362.272C105.521 362.272 131.895 324.89 141.585 291.671C161.319 224.234 153.212 209.947 167.752 196.232L194.034 201.358Z" fill="black"/>
<path d="M118.387 370.447L103.01 361.572L106.84 356.091L123.914 365.505L118.387 370.447Z" fill="#1A2E35"/>
<path d="M204.743 117.283C204.606 117.994 204.87 118.636 205.34 118.728C205.81 118.819 206.291 118.315 206.486 117.581C206.681 116.847 206.36 116.216 205.89 116.125C205.42 116.033 204.881 116.56 204.743 117.283Z" fill="#1A2E35"/>
<path d="M212.759 118.831C212.621 119.542 212.885 120.196 213.355 120.288C213.826 120.379 214.307 119.875 214.445 119.141C214.582 118.407 214.319 117.776 213.848 117.696C213.378 117.616 212.897 118.109 212.759 118.831Z" fill="#1A2E35"/>
<path d="M213.642 117.708L215.442 117.559C215.442 117.559 214.307 118.717 213.642 117.708Z" fill="#1A2E35"/>
<path d="M210.408 119.646C210.725 121.384 211.281 123.07 212.059 124.656C211.649 124.849 211.2 124.949 210.747 124.949C210.293 124.949 209.845 124.849 209.434 124.656L210.408 119.646Z" fill="#FD5652"/>
<path d="M206.429 126.95C205.47 126.793 204.564 126.407 203.787 125.823C203.011 125.24 202.387 124.478 201.968 123.602C201.957 123.577 201.95 123.55 201.949 123.523C201.948 123.495 201.953 123.468 201.962 123.442C201.972 123.417 201.987 123.393 202.005 123.373C202.024 123.354 202.047 123.338 202.072 123.326C202.123 123.307 202.181 123.308 202.232 123.329C202.283 123.351 202.324 123.391 202.347 123.441C202.747 124.247 203.332 124.947 204.053 125.484C204.774 126.022 205.611 126.383 206.498 126.537C206.525 126.541 206.551 126.551 206.575 126.565C206.598 126.58 206.619 126.599 206.635 126.621C206.651 126.644 206.662 126.669 206.668 126.696C206.674 126.723 206.675 126.751 206.67 126.778C206.659 126.832 206.628 126.879 206.583 126.911C206.538 126.943 206.483 126.957 206.429 126.95Z" fill="#1A2E35"/>
<path d="M202.92 114.221C202.81 114.216 202.705 114.169 202.627 114.091C202.548 114.012 202.502 113.908 202.496 113.797C202.501 113.68 202.55 113.569 202.634 113.487C203.125 113.025 203.719 112.688 204.368 112.502C205.016 112.317 205.699 112.289 206.36 112.421C206.469 112.453 206.561 112.526 206.616 112.624C206.672 112.723 206.687 112.839 206.659 112.948C206.645 113.001 206.621 113.051 206.589 113.094C206.556 113.138 206.515 113.175 206.468 113.202C206.421 113.23 206.37 113.248 206.316 113.256C206.262 113.263 206.207 113.26 206.154 113.246C205.629 113.153 205.089 113.184 204.578 113.335C204.066 113.486 203.597 113.754 203.207 114.118C203.128 114.188 203.026 114.224 202.92 114.221Z" fill="#1A2E35"/>
<path d="M217.208 115.816C217.124 115.817 217.041 115.792 216.972 115.745C216.902 115.698 216.848 115.63 216.818 115.552C216.621 115.055 216.312 114.611 215.914 114.255C215.516 113.899 215.04 113.64 214.525 113.499C214.47 113.49 214.417 113.469 214.37 113.439C214.323 113.409 214.282 113.37 214.25 113.324C214.218 113.278 214.196 113.227 214.184 113.172C214.172 113.118 214.171 113.061 214.181 113.006C214.203 112.897 214.266 112.8 214.358 112.736C214.45 112.672 214.563 112.645 214.674 112.662C215.328 112.826 215.933 113.143 216.44 113.588C216.947 114.033 217.34 114.592 217.586 115.219C217.609 115.271 217.622 115.326 217.623 115.382C217.624 115.438 217.615 115.493 217.594 115.546C217.574 115.598 217.544 115.646 217.505 115.686C217.466 115.726 217.42 115.759 217.368 115.781L217.208 115.816Z" fill="#1A2E35"/>
<path d="M205.706 123.555C205.351 123.557 205.001 123.476 204.682 123.318C204.364 123.161 204.087 122.932 203.872 122.65C203.332 121.809 202.973 120.865 202.815 119.879C202.657 118.892 202.704 117.884 202.954 116.916C203.608 113.293 205.878 110.346 208.023 110.346C208.379 110.351 208.731 110.436 209.05 110.595C209.37 110.753 209.649 110.982 209.869 111.263C210.408 112.104 210.768 113.047 210.926 114.034C211.084 115.021 211.036 116.029 210.786 116.996C210.133 120.62 207.851 123.555 205.706 123.555ZM208 110.667C205.993 110.667 203.837 113.511 203.207 116.996C202.805 119.29 203.126 121.354 204.067 122.466C204.257 122.714 204.502 122.916 204.782 123.055C205.062 123.194 205.371 123.267 205.683 123.269C207.702 123.269 209.846 120.436 210.477 116.951C210.72 116.029 210.769 115.067 210.621 114.125C210.473 113.184 210.131 112.283 209.617 111.481C209.431 111.232 209.191 111.03 208.914 110.889C208.638 110.748 208.333 110.672 208.023 110.667H208Z" fill="#F9F9F9"/>
<path d="M214.616 124.702C214.245 124.697 213.88 124.607 213.548 124.44C213.216 124.273 212.927 124.034 212.701 123.739C212.186 122.967 211.838 122.096 211.678 121.182C211.518 120.268 211.55 119.33 211.772 118.429C212.357 115.058 214.559 112.329 216.68 112.329C217.052 112.339 217.417 112.432 217.748 112.6C218.079 112.769 218.369 113.009 218.595 113.304C219.105 114.076 219.451 114.945 219.611 115.856C219.771 116.767 219.741 117.702 219.524 118.601C218.951 121.984 216.749 124.702 214.616 124.702ZM216.646 112.616C214.651 112.616 212.587 115.242 212.059 118.487C211.853 119.347 211.825 120.239 211.974 121.11C212.124 121.982 212.45 122.813 212.931 123.555C213.136 123.812 213.393 124.021 213.686 124.169C213.979 124.318 214.3 124.402 214.628 124.415C216.623 124.415 218.698 121.801 219.214 118.556C219.418 117.696 219.447 116.805 219.3 115.934C219.152 115.063 218.83 114.231 218.354 113.487C218.151 113.229 217.894 113.017 217.601 112.867C217.308 112.716 216.986 112.631 216.657 112.616H216.646Z" fill="#F9F9F9"/>
<path d="M110.384 381.512C109.237 381.512 108.09 379.746 107.414 378.726C107.391 378.692 107.379 378.652 107.379 378.611C107.379 378.57 107.391 378.53 107.414 378.496C107.438 378.463 107.472 378.436 107.51 378.42C107.548 378.404 107.59 378.399 107.632 378.405C107.998 378.485 111.152 379.173 111.553 380.251C111.599 380.37 111.611 380.499 111.589 380.624C111.567 380.749 111.511 380.866 111.427 380.962C111.319 381.139 111.165 381.285 110.982 381.381C110.798 381.478 110.591 381.524 110.384 381.512ZM107.987 378.932C108.87 380.262 109.73 381.054 110.349 381.088C110.487 381.089 110.622 381.055 110.743 380.989C110.863 380.922 110.965 380.826 111.037 380.71C111.076 380.669 111.102 380.618 111.112 380.563C111.122 380.508 111.116 380.451 111.095 380.4C110.888 379.872 109.248 379.253 107.987 378.932Z" fill="#4B0082"/>
<path d="M108.503 378.933C108.156 378.934 107.809 378.896 107.471 378.818C107.436 378.806 107.405 378.786 107.379 378.76C107.353 378.735 107.334 378.703 107.322 378.669C107.299 378.602 107.299 378.529 107.322 378.462C107.402 378.394 109.156 376.662 110.452 376.662H110.544C110.704 376.673 110.861 376.717 111.003 376.792C111.145 376.867 111.27 376.971 111.37 377.098C111.486 377.22 111.559 377.378 111.576 377.546C111.592 377.715 111.552 377.884 111.461 378.027C111.094 378.646 109.627 378.933 108.503 378.933ZM107.987 378.485C109.065 378.611 110.808 378.302 111.163 377.786C111.22 377.706 111.266 377.579 111.094 377.362C111.034 377.277 110.955 377.208 110.864 377.16C110.772 377.113 110.67 377.087 110.567 377.086C109.581 377.271 108.679 377.76 107.987 378.485Z" fill="#4B0082"/>
<path d="M173.783 403.953C172.834 403.931 171.889 403.816 170.963 403.609C170.918 403.6 170.878 403.578 170.847 403.545C170.817 403.512 170.797 403.471 170.791 403.426C170.785 403.382 170.794 403.338 170.814 403.299C170.835 403.26 170.866 403.229 170.905 403.208C171.329 403.002 175.01 401.167 176.077 401.786C176.173 401.848 176.253 401.933 176.309 402.033C176.365 402.133 176.395 402.245 176.398 402.36C176.41 402.553 176.376 402.747 176.298 402.924C176.22 403.102 176.101 403.258 175.951 403.38C175.312 403.808 174.55 404.01 173.783 403.953ZM171.685 403.334C173.646 403.655 175.125 403.575 175.698 403.082C175.797 402.998 175.874 402.892 175.924 402.772C175.973 402.653 175.994 402.523 175.985 402.394C175.987 402.351 175.978 402.308 175.958 402.269C175.937 402.231 175.907 402.199 175.87 402.176C175.297 401.844 173.256 402.623 171.685 403.323V403.334Z" fill="#4B0082"/>
<path d="M171.019 403.633H170.893C170.86 403.611 170.833 403.58 170.817 403.543C170.8 403.506 170.795 403.466 170.801 403.426C170.801 403.266 171.352 399.619 173.347 399.619H173.519C174.092 399.619 174.253 399.963 174.287 400.204C174.448 401.213 172.223 403.162 171.1 403.644L171.019 403.633ZM173.313 400.009C172.017 400.009 171.444 402.119 171.249 403.036C172.395 402.36 173.92 400.835 173.829 400.227C173.829 400.227 173.829 400.043 173.427 400.009H173.313Z" fill="#4B0082"/>
<path d="M205.626 116.136L207.426 115.976C207.426 115.976 206.291 117.157 205.626 116.136Z" fill="#1A2E35"/>
<path d="M197.749 157.715C182.842 152.062 178.187 143.6 178.542 141.822L180.835 141.96H181.283C181.855 141.975 182.425 142.025 182.991 142.109C184.046 142.201 185.136 142.315 186.236 142.464L187.383 142.625C192.856 143.291 198.274 144.344 203.597 145.778C206.028 146.489 206.831 146.719 208.184 147.2L209.33 147.636L209.812 147.819C211.005 150.388 210.741 155.64 197.749 157.715Z" fill="#FD897B"/>
<path d="M197.749 157.715C182.842 152.062 178.187 143.6 178.542 141.822L180.835 141.96H181.283C184.31 146.26 190.938 152.2 197.692 153.014C203.127 151.867 208.253 150.56 208.207 147.2L209.353 147.636L209.835 147.819C211.005 150.388 210.741 155.64 197.749 157.715Z" fill="#4B0082"/>
<path opacity="0.3" d="M197.749 157.715C182.842 152.062 178.187 143.6 178.542 141.822L180.835 141.96H181.283C184.31 146.26 190.938 152.2 197.692 153.014C203.127 151.867 208.253 150.56 208.207 147.2L209.353 147.636L209.835 147.819C211.005 150.388 210.741 155.64 197.749 157.715Z" fill="black"/>
<path d="M167.625 194.03L165.332 196.92C165.16 197.138 165.412 197.448 165.825 197.528L203.276 204.821C203.597 204.89 203.895 204.821 203.952 204.58L204.893 201.449C204.961 201.232 204.721 200.991 204.365 200.922L168.199 193.881C168.098 193.859 167.994 193.861 167.894 193.887C167.795 193.913 167.703 193.962 167.625 194.03Z" fill="#1A2E35"/>
<path d="M171.696 199.018L170.733 198.835C170.538 198.835 170.412 198.674 170.446 198.548L171.707 194.489C171.707 194.363 171.937 194.306 172.12 194.34L173.095 194.523C173.29 194.523 173.416 194.695 173.382 194.81L172.12 198.881C172.076 198.949 172.01 198.999 171.932 199.024C171.855 199.049 171.772 199.047 171.696 199.018Z" fill="#4B0082"/>
<path opacity="0.3" d="M171.696 199.018L170.733 198.835C170.538 198.835 170.412 198.674 170.446 198.548L171.707 194.489C171.707 194.363 171.937 194.306 172.12 194.34L173.095 194.523C173.29 194.523 173.416 194.695 173.382 194.81L172.12 198.881C172.076 198.949 172.01 198.999 171.932 199.024C171.855 199.049 171.772 199.047 171.696 199.018Z" fill="black"/>
<path d="M174.242 155.502C173.806 158.219 173.393 161.235 173.095 164.056C172.797 166.877 172.533 169.789 172.396 172.725C172.319 174.17 172.273 175.615 172.258 177.059V181.359C172.315 184.167 172.534 186.97 172.912 189.753C173.13 190.705 173.519 191.61 174.058 192.425C174.748 193.539 175.515 194.604 176.352 195.613C178.184 197.788 180.144 199.852 182.223 201.793C184.321 203.811 186.523 205.761 188.782 207.664C191.041 209.568 193.369 211.46 195.662 213.283L193.197 217.044C187.799 214.088 182.639 210.718 177.762 206.965C175.242 205.038 172.866 202.931 170.653 200.658C169.47 199.442 168.384 198.135 167.408 196.748C166.195 195.111 165.332 193.241 164.874 191.255L164.449 188.824C164.3 188.033 164.197 187.242 164.105 186.462C163.876 184.88 163.75 183.309 163.624 181.738C163.385 178.613 163.312 175.479 163.406 172.346C163.498 169.239 163.67 166.143 163.979 163.058C164.289 159.974 164.679 156.947 165.298 153.759L174.242 155.502Z" fill="#FD897B"/>
<path d="M166.628 144.058C161.72 148.026 162.889 159.814 162.889 159.814L179.402 165.249C179.402 165.249 178.645 151.684 177.842 146.776C176.856 140.962 171.444 140.148 166.628 144.058Z" fill="#1A2E35"/>
<path d="M193.644 212.549L201.108 209.774L199.962 216.872C199.962 216.872 194.549 218.822 191.774 216.322L193.644 212.549Z" fill="#FD897B"/>
<path d="M209.995 210.829V216.31L199.962 216.872L201.109 209.774L209.995 210.829Z" fill="#FD897B"/>
<path d="M200.535 204.637L199.629 204.431C199.434 204.431 199.308 204.27 199.343 204.144L200.604 200.085C200.604 199.959 200.833 199.901 201.028 199.936L201.991 200.119C202.186 200.119 202.312 200.291 202.278 200.406L201.017 204.476C200.925 204.614 200.776 204.683 200.535 204.637Z" fill="#4B0082"/>
<path opacity="0.3" d="M200.535 204.637L199.629 204.431C199.434 204.431 199.308 204.27 199.343 204.144L200.604 200.085C200.604 199.959 200.833 199.901 201.028 199.936L201.991 200.119C202.186 200.119 202.312 200.291 202.278 200.406L201.017 204.476C200.925 204.614 200.776 204.683 200.535 204.637Z" fill="black"/>
<path d="M186.122 201.816L185.147 201.633C184.952 201.633 184.826 201.472 184.872 201.346L186.133 197.287C186.133 197.161 186.351 197.103 186.546 197.138L187.521 197.321C187.704 197.321 187.842 197.493 187.796 197.608L186.534 201.679C186.5 201.816 186.317 201.874 186.122 201.816Z" fill="#4B0082"/>
<path opacity="0.3" d="M186.122 201.816L185.147 201.633C184.952 201.633 184.826 201.472 184.872 201.346L186.133 197.287C186.133 197.161 186.351 197.103 186.546 197.138L187.521 197.321C187.704 197.321 187.842 197.493 187.796 197.608L186.534 201.679C186.5 201.816 186.317 201.874 186.122 201.816Z" fill="black"/>
<path d="M113.089 268.645L172.533 398.472C173.896 401.423 176.37 403.714 179.417 404.847C182.463 405.979 185.834 405.86 188.793 404.515L198.23 400.204L416.753 300.156C419.705 298.798 421.999 296.326 423.133 293.281C424.268 290.236 424.151 286.866 422.807 283.908L370.278 169.24L363.398 154.092C362.031 151.145 359.556 148.858 356.511 147.726C353.466 146.595 350.098 146.711 347.138 148.049L119.167 252.397C116.215 253.755 113.92 256.226 112.781 259.269C111.643 262.313 111.754 265.683 113.089 268.645Z" fill="#4B0082"/>
<path opacity="0.1" d="M369.369 169.656L369.368 169.653L362.491 154.513C362.49 154.511 362.489 154.509 362.489 154.508C361.232 151.803 358.958 149.703 356.162 148.664C353.366 147.624 350.271 147.73 347.552 148.959C347.552 148.959 347.551 148.96 347.55 148.96L119.585 253.305C116.873 254.554 114.764 256.823 113.718 259.62C112.672 262.415 112.774 265.51 114 268.231C114 268.232 114 268.233 114.001 268.234L173.441 398.053C173.441 398.054 173.441 398.054 173.442 398.055C174.694 400.765 176.967 402.869 179.765 403.909C182.564 404.949 185.66 404.84 188.378 403.605C188.379 403.605 188.379 403.605 188.379 403.605L197.814 399.295L197.815 399.294L416.335 299.248L369.369 169.656ZM369.369 169.656L421.897 284.321C421.897 284.322 421.898 284.322 421.898 284.323C423.131 287.04 423.238 290.136 422.196 292.932C421.154 295.728 419.048 297.999 416.337 299.247L369.369 169.656Z" fill="url(#paint0_linear_4893_37089)" stroke="#F0EBF4" stroke-width="2"/>
<path d="M387.48 206.781L137.214 321.362L166.503 385.336L416.77 270.755L387.48 206.781Z" fill="#4B0082"/>
<path opacity="0.3" d="M387.48 206.781L137.214 321.362L166.503 385.336L416.77 270.755L387.48 206.781Z" fill="white"/>
<path d="M377.117 236.377L218.965 308.785L229.447 331.681L387.6 259.273L377.117 236.377Z" fill="#4B0082"/>
<path opacity="0.8" d="M377.117 236.377L218.965 308.785L229.447 331.681L387.6 259.273L377.117 236.377Z" fill="white"/>
<path d="M378.927 183.474L128.46 299.101L144.229 333.259L394.696 217.633L378.927 183.474Z" fill="#4B0082"/>
<path opacity="0.3" d="M378.927 183.474L128.46 299.101L144.229 333.259L394.696 217.633L378.927 183.474Z" fill="black"/>
<path d="M147.077 270.307L198.23 400.192L416.753 300.144C419.705 298.786 421.999 296.314 423.133 293.269C424.268 290.224 424.151 286.854 422.807 283.896L370.278 169.228L154.003 254.403C150.984 255.604 148.562 257.95 147.264 260.929C145.967 263.908 145.9 267.279 147.077 270.307Z" fill="#4B0082"/>
<path d="M162.293 254.885L398.853 171.808C401.922 170.74 405.289 170.93 408.218 172.338C411.146 173.745 413.399 176.255 414.482 179.319L461.794 314.042C462.863 317.111 462.675 320.478 461.27 323.409C459.865 326.339 457.357 328.595 454.295 329.683L217.735 412.76C214.664 413.822 211.298 413.629 208.369 412.222C205.44 410.816 203.185 408.31 202.094 405.249L154.782 270.491C153.724 267.425 153.92 264.065 155.326 261.143C156.733 258.22 159.237 255.971 162.293 254.885Z" fill="#4B0082"/>
<g opacity="0.1" filter="url(#filter0_d_4893_37089)">
<path d="M162.293 254.885L398.853 171.808C401.922 170.74 405.289 170.93 408.218 172.338C411.146 173.745 413.399 176.255 414.482 179.319L461.794 314.042C462.863 317.111 462.675 320.478 461.27 323.409C459.865 326.339 457.357 328.595 454.295 329.683L217.735 412.76C214.664 413.822 211.298 413.629 208.369 412.222C205.44 410.816 203.185 408.31 202.094 405.249L154.782 270.491C153.724 267.425 153.92 264.065 155.326 261.143C156.733 258.22 159.237 255.971 162.293 254.885Z" fill="url(#paint1_linear_4893_37089)"/>
<path d="M162.628 255.827L399.182 172.752C399.182 172.752 399.183 172.752 399.183 172.752C402.002 171.771 405.094 171.947 407.784 173.239C410.475 174.532 412.544 176.838 413.539 179.652L460.85 314.371C461.832 317.191 461.659 320.284 460.368 322.976C459.078 325.668 456.775 327.739 453.964 328.739C453.963 328.74 453.961 328.74 453.96 328.741L217.408 411.815C217.407 411.815 217.407 411.815 217.406 411.815C214.585 412.791 211.493 412.613 208.802 411.321C206.112 410.029 204.04 407.727 203.037 404.916C203.037 404.915 203.036 404.914 203.036 404.913L155.727 270.165C155.727 270.164 155.727 270.163 155.727 270.163C154.756 267.346 154.936 264.261 156.228 261.576C157.519 258.892 159.819 256.826 162.625 255.828C162.626 255.828 162.627 255.827 162.628 255.827Z" stroke="#F0EBF4" stroke-width="2"/>
</g>
<path d="M430.437 230.265L171.703 321.098L192.201 379.486L450.935 288.654L430.437 230.265Z" fill="#4B0082"/>
<path opacity="0.3" d="M430.437 230.265L171.703 321.098L192.201 379.486L450.935 288.654L430.437 230.265Z" fill="white"/>
<path d="M399.597 201.904L346.112 220.681L349.037 229.013L402.522 210.236L399.597 201.904Z" fill="#4B0082"/>
<path opacity="0.8" d="M399.597 201.904L346.112 220.681L349.037 229.013L402.522 210.236L399.597 201.904Z" fill="white"/>
<path d="M437.467 304.735L394.396 319.86L395.931 324.231L439.002 309.106L437.467 304.735Z" fill="#4B0082"/>
<path opacity="0.8" d="M437.467 304.735L394.396 319.86L395.931 324.231L439.002 309.106L437.467 304.735Z" fill="white"/>
<path d="M440.409 313.097L384.907 332.588L386.442 336.959L441.944 317.468L440.409 313.097Z" fill="#4B0082"/>
<path opacity="0.8" d="M440.409 313.097L384.907 332.588L386.442 336.959L441.944 317.468L440.409 313.097Z" fill="white"/>
<path d="M242.508 376.946L214.757 386.691L218.059 396.093L245.809 386.348L242.508 376.946Z" fill="#4B0082"/>
<path opacity="0.8" d="M242.508 376.946L214.757 386.691L218.059 396.093L245.809 386.348L242.508 376.946Z" fill="white"/>
<path d="M390.884 296.417L423.289 285.042C424.997 284.434 426.396 283.176 427.182 281.542C427.968 279.908 428.077 278.03 427.486 276.316C426.885 274.601 425.63 273.194 423.995 272.401C422.36 271.609 420.478 271.495 418.759 272.085L386.343 283.551C384.634 284.159 383.235 285.417 382.449 287.051C381.663 288.685 381.554 290.564 382.146 292.278C382.765 293.978 384.03 295.366 385.665 296.141C387.301 296.916 389.175 297.015 390.884 296.417Z" fill="#4B0082"/>
<path d="M335.373 315.911L367.79 304.525C369.485 303.914 370.873 302.663 371.656 301.04C372.439 299.416 372.553 297.551 371.975 295.844C371.365 294.138 370.106 292.742 368.472 291.958C366.839 291.174 364.962 291.067 363.249 291.659L330.844 303.045C329.135 303.653 327.736 304.911 326.95 306.545C326.164 308.179 326.055 310.058 326.647 311.772C327.266 313.469 328.529 314.855 330.162 315.63C331.794 316.405 333.666 316.506 335.373 315.911Z" fill="#4B0082"/>
<path d="M279.897 335.404L312.313 324.018C314.005 323.403 315.388 322.15 316.166 320.527C316.944 318.904 317.055 317.041 316.476 315.337C315.866 313.631 314.607 312.235 312.973 311.451C311.339 310.667 309.462 310.56 307.75 311.152L275.31 322.539C273.604 323.149 272.207 324.408 271.424 326.041C270.64 327.675 270.533 329.552 271.125 331.265C271.744 332.973 273.014 334.368 274.657 335.143C276.301 335.919 278.184 336.013 279.897 335.404Z" fill="#4B0082"/>
<path d="M224.363 354.898L256.78 343.512C258.478 342.904 259.868 341.653 260.653 340.03C261.438 338.406 261.554 336.54 260.977 334.832C260.367 333.125 259.108 331.729 257.474 330.945C255.84 330.162 253.963 330.054 252.251 330.646L219.834 342.033C218.126 342.641 216.726 343.898 215.941 345.533C215.155 347.167 215.046 349.045 215.637 350.759C216.256 352.457 217.519 353.843 219.152 354.617C220.785 355.392 222.657 355.493 224.363 354.898Z" fill="#4B0082"/>
<g opacity="0.8">
<path d="M390.885 296.417L423.29 285.042C424.998 284.434 426.397 283.176 427.183 281.542C427.969 279.908 428.078 278.03 427.487 276.316C426.886 274.601 425.631 273.194 423.996 272.401C422.361 271.609 420.479 271.495 418.76 272.085L386.344 283.551C384.635 284.159 383.236 285.417 382.45 287.051C381.664 288.685 381.555 290.564 382.147 292.278C382.766 293.978 384.031 295.366 385.666 296.141C387.302 296.916 389.176 297.015 390.885 296.417Z" fill="white"/>
<path d="M335.373 315.91L367.79 304.524C369.485 303.913 370.873 302.662 371.656 301.039C372.439 299.415 372.553 297.55 371.975 295.843C371.365 294.137 370.106 292.741 368.472 291.957C366.839 291.173 364.962 291.066 363.249 291.658L330.844 303.044C329.135 303.652 327.736 304.91 326.95 306.544C326.164 308.178 326.055 310.057 326.647 311.771C327.266 313.468 328.529 314.854 330.162 315.629C331.794 316.404 333.666 316.505 335.373 315.91Z" fill="white"/>
<path d="M279.897 335.404L312.313 324.018C314.005 323.403 315.388 322.15 316.166 320.527C316.944 318.904 317.055 317.041 316.476 315.337C315.866 313.631 314.607 312.235 312.973 311.451C311.339 310.667 309.462 310.56 307.75 311.152L275.31 322.539C273.604 323.149 272.207 324.408 271.424 326.041C270.64 327.675 270.533 329.552 271.125 331.265C271.744 332.973 273.014 334.368 274.657 335.143C276.301 335.919 278.184 336.013 279.897 335.404Z" fill="white"/>
<path d="M224.363 354.898L256.78 343.511C258.478 342.903 259.868 341.652 260.653 340.029C261.438 338.405 261.554 336.539 260.977 334.831C260.367 333.124 259.108 331.728 257.474 330.944C255.84 330.161 253.963 330.053 252.251 330.645L219.834 342.032C218.126 342.64 216.726 343.897 215.941 345.532C215.155 347.166 215.046 349.044 215.637 350.758C216.256 352.456 217.519 353.842 219.152 354.616C220.785 355.391 222.657 355.492 224.363 354.898Z" fill="white"/>
</g>
<path d="M407.731 234.224L378.887 244.353C376.437 245.214 375.149 247.897 376.009 250.347L382.02 267.463C382.88 269.913 385.563 271.201 388.013 270.341L416.857 260.212C419.307 259.351 420.595 256.668 419.735 254.218L413.724 237.102C412.864 234.652 410.18 233.364 407.731 234.224Z" fill="#4B0082"/>
<path opacity="0.3" d="M407.731 234.224L378.887 244.353C376.437 245.214 375.149 247.897 376.009 250.347L382.02 267.463C382.88 269.913 385.563 271.201 388.013 270.341L416.857 260.212C419.307 259.351 420.595 256.668 419.735 254.218L413.724 237.102C412.864 234.652 410.18 233.364 407.731 234.224Z" fill="black"/>
<path d="M233.663 266.03C232.943 263.975 231.826 262.081 230.374 260.458C228.922 258.834 227.165 257.513 225.202 256.57C223.239 255.626 221.11 255.079 218.935 254.959C216.761 254.839 214.584 255.149 212.529 255.871L189.229 264.62L188.931 264.7L188.243 264.987L187.818 265.147C183.857 266.714 180.68 269.789 178.987 273.698C177.293 277.606 177.222 282.027 178.788 285.988C180.354 289.95 183.43 293.126 187.338 294.82C191.247 296.513 195.668 296.585 199.629 295.018L221.691 287.68C222.327 287.537 222.955 287.361 223.572 287.152C224.028 286.993 224.476 286.809 224.913 286.602C228.678 284.886 231.664 281.823 233.283 278.015C234.903 274.208 235.038 269.932 233.663 266.03Z" fill="#4B0082"/>
<path opacity="0.8" d="M233.663 266.03C232.943 263.975 231.826 262.081 230.374 260.458C228.922 258.834 227.165 257.513 225.202 256.57C223.239 255.626 221.11 255.079 218.935 254.959C216.761 254.839 214.584 255.149 212.529 255.871L189.229 264.62L188.931 264.7L188.243 264.987L187.818 265.147C183.857 266.714 180.68 269.789 178.987 273.698C177.293 277.606 177.222 282.027 178.788 285.988C180.354 289.95 183.43 293.126 187.338 294.82C191.247 296.513 195.668 296.585 199.629 295.018L221.691 287.68C222.327 287.537 222.955 287.361 223.572 287.152C224.028 286.993 224.476 286.809 224.913 286.602C228.678 284.886 231.664 281.823 233.283 278.015C234.903 274.208 235.038 269.932 233.663 266.03Z" fill="#FFC857"/>
</g>
<defs>
<filter id="filter0_d_4893_37089" x="150.109" y="171.125" width="316.369" height="250.312" filterUnits="userSpaceOnUse" color-interpolation-filters="sRGB">
<feFlood flood-opacity="0" result="BackgroundImageFix"/>
<feColorMatrix in="SourceAlpha" type="matrix" values="0 0 0 0 0 0 0 0 0 0 0 0 0 0 0 0 0 0 127 0" result="hardAlpha"/>
<feOffset dy="4"/>
<feGaussianBlur stdDeviation="2"/>
<feComposite in2="hardAlpha" operator="out"/>
<feColorMatrix type="matrix" values="0 0 0 0 0 0 0 0 0 0 0 0 0 0 0 0 0 0 0.25 0"/>
<feBlend mode="normal" in2="BackgroundImageFix" result="effect1_dropShadow_4893_37089"/>
<feBlend mode="normal" in="SourceGraphic" in2="effect1_dropShadow_4893_37089" result="shape"/>
</filter>
<linearGradient id="paint0_linear_4893_37089" x1="267.954" y1="146.954" x2="267.954" y2="405.617" gradientUnits="userSpaceOnUse">
<stop stop-color="#64497D"/>
<stop offset="1" stop-color="#FFC857"/>
</linearGradient>
<linearGradient id="paint1_linear_4893_37089" x1="308.294" y1="171.125" x2="308.294" y2="413.437" gradientUnits="userSpaceOnUse">
<stop stop-color="#64497D"/>
<stop offset="1" stop-color="#FFC857"/>
</linearGradient>
<clipPath id="clip0_4893_37089">
<rect width="573.34" height="427.207" fill="white"/>
</clipPath>
</defs>
</svg>
