<svg width="573" height="427" viewBox="0 0 573 427" fill="none" xmlns="http://www.w3.org/2000/svg">
<g clip-path="url(#clip0_4893_37089)">
<path d="M573.062 375.241H0V375.528H573.062V375.241Z" fill="#E0E0E0"/>
<path d="M317.041 383.711H277.9V383.997H317.041V383.711Z" fill="#E0E0E0"/>
<path d="M376.341 27.8164H81.7871V176.308H376.341V27.8164Z" fill="#BFABD3"/>
<path d="M380.181 27.8164H85.627V176.308H380.181V27.8164Z" fill="#DFD2EB"/>
<path d="M373.292 34.7734H92.5264V169.328H373.292V34.7734Z" fill="#F0EBF4"/>
<path d="M113.317 169.34L189.466 34.7852H225.145L149.008 169.34H113.317Z" fill="white"/>
<path d="M160.984 169.34L237.133 34.7852H272.812L196.675 169.34H160.984Z" fill="white"/>
<path d="M260.17 169.34L336.307 34.7852H351L274.863 169.34H260.17Z" fill="white"/>
<path d="M281.89 34.7734H271.506V169.328H281.89V34.7734Z" fill="#E0E0E0"/>
<path d="M186.647 34.7734H176.263V169.328H186.647V34.7734Z" fill="#E0E0E0"/>
<path d="M285.534 29.6045H275.15V173.764H285.534V29.6045Z" fill="#E7DFEE"/>
<path d="M190.291 29.6045H179.907V173.764H190.291V29.6045Z" fill="#E7DFEE"/>
<path d="M373.292 34.7734H370.393V169.328H373.292V34.7734Z" fill="#E7DFEE"/>
<path d="M335.539 219.437C335.539 219.437 336.02 232.754 354.622 232.754C373.224 232.754 373.716 219.437 373.716 219.437H335.539Z" fill="#EBEBEB"/>
<path d="M378.714 222.737C378.714 222.737 379.081 232.754 393.063 232.754C407.046 232.754 407.401 222.737 407.401 222.737H378.714Z" fill="#EBEBEB"/>
<path d="M348.639 241.064H317.327V366.645H348.639V241.064Z" fill="#EBEBEB"/>
<path d="M477.739 366.634H323.333V375.241H477.739V366.634Z" fill="#DFD2EB"/>
<path d="M483.756 241.053H348.64V366.634H483.756V241.053Z" fill="#E7DFEE"/>
<path d="M471.447 253.202H360.949V297.741H471.447V253.202Z" fill="#EBEBEB"/>
<path d="M471.447 305.854H360.949V350.393H471.447V305.854Z" fill="#F0EBF4"/>
<path d="M428.65 258.084H403.791C402.981 258.084 402.204 257.764 401.631 257.192C401.057 256.621 400.734 255.845 400.73 255.036C400.736 254.226 401.061 253.451 401.633 252.879C402.206 252.306 402.981 251.982 403.791 251.976H428.65C429.46 251.982 430.235 252.306 430.807 252.879C431.38 253.451 431.704 254.226 431.71 255.036C431.707 255.845 431.383 256.621 430.81 257.192C430.236 257.764 429.46 258.084 428.65 258.084Z" fill="#E7DFEE"/>
<path d="M428.65 310.737H403.791C402.981 310.737 402.204 310.416 401.631 309.845C401.057 309.273 400.734 308.498 400.73 307.688C400.736 306.878 401.061 306.103 401.633 305.531C402.206 304.958 402.981 304.634 403.791 304.628H428.65C429.46 304.634 430.235 304.958 430.807 305.531C431.38 306.103 431.704 306.878 431.71 307.688C431.707 308.498 431.383 309.273 430.81 309.845C430.236 310.416 429.46 310.737 428.65 310.737Z" fill="#E7DFEE"/>
<path d="M487.916 232.755H348.628V241.064H487.916V232.755Z" fill="#EBEBEB"/>
<path d="M348.628 232.743H312.938V241.053H348.628V232.743Z" fill="#E0E0E0"/>
<path d="M480.937 48.7217H413.109V126.864H480.937V48.7217Z" fill="#BFABD3"/>
<path d="M488.639 48.7217H415.138V126.864H488.639V48.7217Z" fill="#DFD2EB"/>
<path d="M482.484 54.876H421.292V120.698H482.484V54.876Z" fill="#F0EBF4"/>
<path d="M462.255 70.8301H441.521C438.54 70.8301 436.123 73.247 436.123 76.2283V99.3456C436.123 102.327 438.54 104.744 441.521 104.744H462.255C465.236 104.744 467.653 102.327 467.653 99.3456V76.2283C467.653 73.247 465.236 70.8301 462.255 70.8301Z" fill="white"/>
<path d="M308.411 302.485H300.537V375.241H308.411V302.485Z" fill="#E0E0E0"/>
<path opacity="0.5" d="M308.41 302.485H304.468V375.241H308.41V302.485Z" fill="#E7DFEE"/>
<path d="M273.924 322.863H268.514C269.107 322.362 269.583 321.737 269.91 321.032C270.237 320.327 270.406 319.56 270.405 318.783H206.303C206.303 319.561 206.474 320.329 206.803 321.034C207.132 321.738 207.61 322.363 208.205 322.863H202.864C200.949 322.863 199.113 323.624 197.758 324.978C196.404 326.332 195.644 328.169 195.644 330.084V351.138C195.644 353.053 196.404 354.89 197.758 356.244C199.113 357.598 200.949 358.359 202.864 358.359H273.924C275.839 358.359 277.675 357.598 279.03 356.244C280.384 354.89 281.144 353.053 281.144 351.138V330.084C281.144 328.169 280.384 326.332 279.03 324.978C277.675 323.624 275.839 322.863 273.924 322.863Z" fill="#E7DFEE"/>
<path d="M214.634 338.416H171.529C168.845 338.416 166.669 340.592 166.669 343.276V353.499C166.669 356.183 168.845 358.359 171.529 358.359H214.634C217.318 358.359 219.494 356.183 219.494 353.499V343.276C219.494 340.592 217.318 338.416 214.634 338.416Z" fill="#EBEBEB"/>
<path d="M217.866 334.015H168.296C167.398 334.015 166.669 334.743 166.669 335.642V337.499C166.669 338.398 167.398 339.126 168.296 339.126H217.866C218.765 339.126 219.494 338.398 219.494 337.499V335.642C219.494 334.743 218.765 334.015 217.866 334.015Z" fill="#E0E0E0"/>
<path d="M224.365 269.992C224.365 269.992 225.11 294.061 253.305 294.061C281.5 294.061 282.245 269.992 282.245 269.992H224.365Z" fill="#EBEBEB"/>
<path d="M123.541 294.072H88.3779V302.485H123.541V294.072Z" fill="#E0E0E0"/>
<path d="M335.699 294.072H123.552V302.485H335.699V294.072Z" fill="#E7DFEE"/>
<path d="M123.541 358.358H88.3779V366.771H123.541V358.358Z" fill="#E0E0E0"/>
<path d="M96.2625 302.485H88.3887V375.241H96.2625V302.485Z" fill="#E0E0E0"/>
<path opacity="0.5" d="M96.263 302.485H92.3203V375.241H96.263V302.485Z" fill="#E7DFEE"/>
<path d="M127.483 302.485H119.609V375.241H127.483V302.485Z" fill="#E7DFEE"/>
<path d="M123.552 302.485H119.609V375.241H123.552V302.485Z" fill="#E0E0E0"/>
<path d="M335.688 302.485H327.814V375.241H335.688V302.485Z" fill="#E7DFEE"/>
<path d="M331.757 302.485H327.814V375.241H331.757V302.485Z" fill="#E0E0E0"/>
<path d="M335.699 358.358H123.552V366.771H335.699V358.358Z" fill="#E7DFEE"/>
<path d="M180.125 289.109H137.352V294.072H180.125V289.109Z" fill="#E0E0E0"/>
<path d="M195.449 289.099H180.125V294.061H195.449V289.099Z" fill="#EBEBEB"/>
<path d="M286.531 427C409.26 427 508.753 421.191 508.753 414.026C508.753 406.86 409.26 401.052 286.531 401.052C163.801 401.052 64.3086 406.86 64.3086 414.026C64.3086 421.191 163.801 427 286.531 427Z" fill="#9881AE"/>
<path d="M217.722 109.684C217.802 123.266 208.072 123.128 208.266 118.911C208.461 114.693 206.054 104.596 208.266 105.57C210.478 106.544 217.688 103.679 217.722 109.684Z" fill="#1A2E35"/>
<path d="M211.601 134.28C212.942 134.177 215.636 135.426 215.876 138.968C215.939 139.997 216.24 140.997 216.755 141.89C217.27 142.783 217.985 143.545 218.845 144.114C218.845 144.114 214.386 144.653 211.464 142.338C209.08 140.469 208.025 136.378 209.275 135.461C209.961 134.912 210.753 134.51 211.601 134.28Z" fill="#1A2E35"/>
<path d="M209.848 124.63C212.14 126.659 214.238 132.022 209.068 134.567C203.899 137.111 195.773 131.186 195.773 131.186L204.702 127.048L209.848 124.63Z" fill="#1A2E35"/>
<path d="M212.392 134.773C212.267 134.03 212.059 133.303 211.773 132.607C211.752 132.549 211.719 132.495 211.676 132.45C211.634 132.405 211.583 132.368 211.527 132.343C211.47 132.317 211.409 132.303 211.348 132.301C211.286 132.299 211.224 132.309 211.166 132.332H211.074L207.899 134.417C207.848 134.452 207.804 134.496 207.77 134.548C207.736 134.599 207.713 134.657 207.701 134.718C207.689 134.779 207.69 134.841 207.702 134.902C207.714 134.962 207.739 135.02 207.773 135.071C207.809 135.118 207.852 135.161 207.899 135.197C208.358 135.53 208.849 135.814 209.366 136.045C210.111 136.343 211.659 135.495 212.186 135.128C212.247 135.09 212.298 135.038 212.334 134.976C212.37 134.914 212.39 134.844 212.392 134.773Z" fill="#4B0082"/>
<path opacity="0.3" d="M212.392 134.773C212.267 134.03 212.059 133.303 211.773 132.607C211.752 132.549 211.719 132.495 211.676 132.45C211.634 132.405 211.583 132.368 211.527 132.343C211.47 132.317 211.409 132.303 211.348 132.301C211.286 132.299 211.224 132.309 211.166 132.332H211.074L207.899 134.417C207.848 134.452 207.804 134.496 207.77 134.548C207.736 134.599 207.713 134.657 207.701 134.718C207.689 134.779 207.69 134.841 207.702 134.902C207.714 134.962 207.739 135.02 207.773 135.071C207.809 135.118 207.852 135.161 207.899 135.197C208.358 135.53 208.849 135.814 209.366 136.045C210.111 136.343 211.659 135.495 212.186 135.128C212.247 135.09 212.298 135.038 212.334 134.976C212.37 134.914 212.39 134.844 212.392 134.773Z" fill="black"/>
<path d="M178.226 129.146C176.954 128.722 174.043 129.295 172.965 132.687C172.659 133.671 172.129 134.571 171.417 135.317C170.705 136.062 169.831 136.633 168.862 136.985C168.862 136.985 173.069 138.567 176.461 136.985C179.212 135.736 181.16 132 180.209 130.808C179.67 130.123 178.995 129.557 178.226 129.146Z" fill="#1A2E35"/>
<path d="M190.856 105.822C186.215 107.083 179.968 112.584 182.742 119.335C180.003 121.203 176.495 126.579 180.599 130.017C185.011 133.719 195.865 128.527 195.865 128.527L195.945 126.762L197.24 113.627L190.856 105.822Z" fill="#1A2E35"/>
<path d="M177.344 129.443C177.649 128.748 178.034 128.09 178.49 127.483C178.57 127.385 178.687 127.322 178.814 127.309C178.94 127.296 179.067 127.334 179.166 127.414L179.235 127.483L181.802 130.291C181.846 130.335 181.88 130.387 181.904 130.444C181.928 130.501 181.94 130.562 181.94 130.624C181.94 130.685 181.928 130.746 181.904 130.804C181.88 130.861 181.846 130.912 181.802 130.956C181.766 130.999 181.718 131.031 181.665 131.048C181.144 131.261 180.602 131.419 180.049 131.518C179.246 131.632 178.008 130.452 177.527 129.97C177.447 129.911 177.386 129.829 177.354 129.735C177.321 129.641 177.317 129.539 177.344 129.443Z" fill="#4B0082"/>
<path opacity="0.3" d="M177.344 129.443C177.649 128.748 178.034 128.09 178.49 127.483C178.57 127.385 178.687 127.322 178.814 127.309C178.94 127.296 179.067 127.334 179.166 127.414L179.235 127.483L181.802 130.291C181.846 130.335 181.88 130.387 181.904 130.444C181.928 130.501 181.94 130.562 181.94 130.624C181.94 130.685 181.928 130.746 181.904 130.804C181.88 130.861 181.846 130.912 181.802 130.956C181.766 130.999 181.718 131.031 181.665 131.048C181.144 131.261 180.602 131.419 180.049 131.518C179.246 131.632 178.008 130.452 177.527 129.97C177.447 129.911 177.386 129.829 177.354 129.735C177.321 129.641 177.317 129.539 177.344 129.443Z" fill="black"/>
<path d="M219.108 153.661C221.297 155.357 223.693 157.168 226.1 158.819C228.507 160.469 230.925 162.131 233.412 163.655C235.899 165.18 238.421 166.601 240.965 167.953L242.879 168.928L244.827 169.833C245.469 170.142 246.123 170.417 246.787 170.67L247.761 171.071C248.094 171.197 248.449 171.357 248.655 171.415C249.854 171.78 251.081 172.044 252.323 172.205C253.675 172.4 255.097 172.538 256.541 172.641C259.418 172.824 262.375 172.905 265.343 172.916C268.312 172.927 271.314 172.916 274.306 172.824L283.303 172.572L283.864 177.076C277.844 178.289 271.766 179.188 265.652 179.77C262.569 180.045 259.475 180.251 256.312 180.274C254.73 180.274 253.125 180.274 251.475 180.125C249.7 180.023 247.941 179.734 246.226 179.266C245.698 179.128 245.366 178.99 244.976 178.864L243.83 178.463C243.062 178.211 242.306 177.936 241.538 177.627L239.315 176.733L237.137 175.77C234.258 174.474 231.454 173.02 228.736 171.415C226.031 169.821 223.372 168.171 220.805 166.406C218.184 164.631 215.659 162.718 213.24 160.675L219.108 153.661Z" fill="#FD897B"/>
<path d="M207.212 148.515C210.066 146.292 221.813 153.57 225.389 156.607L222.788 172.343C222.788 172.343 205.882 165.26 204.862 160.423C203.808 155.369 205.057 150.212 207.212 148.515Z" fill="#1A2E35"/>
<path d="M282.053 172.962L289.136 167.472L289.698 175.964C289.698 175.964 284.815 178.99 281.595 177.111L282.053 172.962Z" fill="#FD897B"/>
<path d="M295.452 166.635L299.074 170.669L289.652 175.964L289.091 167.471L295.452 166.635Z" fill="#FD897B"/>
<path d="M160.885 402.828L169.813 403.493L173.068 382.943L164.151 382.278L160.885 402.828Z" fill="#FD897B"/>
<path d="M97.7227 374.107L105.299 378.875L118.788 362.875L111.213 358.096L97.7227 374.107Z" fill="#FD897B"/>
<path d="M107.694 377.167L100.599 370.026C100.477 369.904 100.314 369.83 100.142 369.817C99.9695 369.805 99.7982 369.854 99.6593 369.957L93.2066 374.783C92.9091 375.023 92.719 375.372 92.6782 375.752C92.6373 376.132 92.7491 376.513 92.9889 376.811L93.092 376.926C95.602 379.367 96.943 380.422 100.06 383.562C101.974 385.499 104.576 388.513 107.224 391.184C109.871 393.854 112.645 391.367 111.808 390.038C107.934 383.997 108.633 381.74 108.37 378.668C108.338 378.101 108.097 377.566 107.694 377.167Z" fill="#1A2E35"/>
<path d="M170.409 402.21H160.347C160.17 402.209 159.998 402.271 159.862 402.384C159.726 402.497 159.634 402.654 159.602 402.829L158.008 410.783C157.975 410.956 157.976 411.134 158.012 411.306C158.048 411.479 158.117 411.643 158.216 411.789C158.315 411.935 158.442 412.059 158.589 412.156C158.736 412.253 158.901 412.32 159.074 412.353C159.18 412.376 159.29 412.376 159.395 412.353C162.902 412.295 164.61 412.089 169.034 412.089C171.75 412.089 179.349 412.364 183.143 412.364C186.937 412.364 187.315 408.651 185.768 408.318C178.891 406.806 174.157 404.731 171.899 402.737C171.484 402.385 170.954 402.197 170.409 402.21Z" fill="#1A2E35"/>
<path d="M173.068 382.943L171.257 394.359L162.455 392.88L164.14 382.29L173.068 382.943Z" fill="#E77064"/>
<path d="M111.213 358.106L118.788 362.874L113.207 369.499L105.459 364.926L111.213 358.106Z" fill="#E77064"/>
<path d="M167.919 196.483L203.609 203.44C222.05 153.503 218.039 151.864 218.039 151.864C215.446 150.438 212.766 149.174 210.016 148.082L209.535 147.898C207.242 147.062 206.784 146.936 203.735 146.042C198.486 144.792 193.592 143.749 187.529 142.89L186.383 142.729C185.237 142.592 184.194 142.477 183.139 142.374C182.429 142.294 181.718 142.248 181.042 142.202L178.75 142.076C174.83 141.881 172.022 141.939 172.022 141.939C173.111 173.125 171.346 182.076 167.919 196.483Z" fill="#1A2E35"/>
<path d="M192.438 124.63C192.438 130.04 191.601 139.793 187.269 142.567C187.269 142.567 187.67 148.137 197.354 150.017C208.013 152.091 203.475 145.719 203.475 145.719C197.939 143.197 198.89 138.911 200.724 135.06L192.438 124.63Z" fill="#FD897B"/>
<path d="M195.819 128.882L200.724 135.059C200.299 135.954 199.946 136.882 199.67 137.833C197.504 137.077 194.925 134.051 195.085 131.678C195.156 130.709 195.404 129.761 195.819 128.882Z" fill="#E77064"/>
<path d="M191.922 112.205C190.776 121.019 190.077 124.721 193.607 130.051C198.914 138.073 209.985 137.558 213.756 129.271C217.194 121.81 218.478 108.641 210.627 103.541C209.299 102.663 207.811 102.056 206.248 101.754C204.686 101.452 203.079 101.461 201.519 101.78C199.96 102.1 198.479 102.723 197.161 103.615C195.842 104.507 194.713 105.65 193.836 106.979C192.805 108.551 192.15 110.339 191.922 112.205Z" fill="#FD897B"/>
<path d="M220.61 98.246C220.771 99.6437 220.666 101.059 220.301 102.418C220.218 101.957 220.107 101.501 219.968 101.054C216.828 90.6702 202.685 93.1458 198.421 97.6157C191.545 95.6443 185 97.2145 185.871 105.639C185.98 107.809 186.761 109.892 188.106 111.598C187.04 114.555 188.106 119.266 191.625 119.403C196.576 119.598 201.275 113.043 203.166 109.444C206.605 110.028 211.556 110.59 215.315 109.673C215.946 110.051 216.461 110.315 216.461 110.315C220.461 108.171 223.51 106.097 220.61 98.246Z" fill="#1A2E35"/>
<path d="M188.874 118.223C188.73 119.935 189.265 121.635 190.364 122.956C191.854 124.687 193.802 123.667 194.501 121.615C195.086 119.759 195.005 116.63 193.011 115.655C192.665 115.493 192.29 115.4 191.908 115.382C191.526 115.364 191.144 115.422 190.784 115.552C190.425 115.682 190.094 115.881 189.811 116.139C189.529 116.397 189.3 116.707 189.137 117.054C188.971 117.421 188.881 117.819 188.874 118.223Z" fill="#FD897B"/>
<path d="M202.822 203.094C202.822 203.094 202.96 273.947 197.16 300.629C191.132 328.388 173.401 391.539 173.401 391.539L160.564 389.878C160.564 389.878 170.616 326.084 174.891 298.497C179.556 268.434 176.702 198.005 176.702 198.005L202.822 203.094Z" fill="#4B0082"/>
<path opacity="0.3" d="M202.822 203.094C202.822 203.094 202.96 273.947 197.16 300.629C191.132 328.388 173.401 391.539 173.401 391.539L160.564 389.878C160.564 389.878 170.616 326.084 174.891 298.497C179.556 268.434 176.702 198.005 176.702 198.005L202.822 203.094Z" fill="black"/>
<path d="M175.59 392.651L158.364 390.427L159.098 384.33L178.651 386.622L175.59 392.651Z" fill="#1A2E35"/>
<path d="M193.939 201.26C193.939 201.26 174.719 259.815 165.171 293.546C155.108 329.133 116.53 368.491 116.53 368.491L105.47 362.095C105.47 362.095 131.831 324.732 141.515 291.529C161.24 224.125 153.137 209.844 167.67 196.137L193.939 201.26Z" fill="#4B0082"/>
<path opacity="0.3" d="M193.939 201.26C193.939 201.26 174.719 259.815 165.171 293.546C155.108 329.133 116.53 368.491 116.53 368.491L105.47 362.095C105.47 362.095 131.831 324.732 141.515 291.529C161.24 224.125 153.137 209.844 167.67 196.137L193.939 201.26Z" fill="black"/>
<path d="M118.329 370.267L102.96 361.396L106.788 355.918L123.854 365.328L118.329 370.267Z" fill="#1A2E35"/>
<path d="M204.644 117.226C204.506 117.936 204.77 118.578 205.24 118.67C205.71 118.761 206.191 118.257 206.386 117.524C206.581 116.79 206.26 116.16 205.79 116.068C205.32 115.976 204.781 116.504 204.644 117.226Z" fill="#1A2E35"/>
<path d="M212.656 118.773C212.518 119.484 212.782 120.137 213.252 120.229C213.721 120.32 214.203 119.816 214.34 119.083C214.478 118.349 214.214 117.719 213.744 117.638C213.274 117.558 212.793 118.051 212.656 118.773Z" fill="#1A2E35"/>
<path d="M213.538 117.65L215.338 117.501C215.338 117.501 214.203 118.659 213.538 117.65Z" fill="#1A2E35"/>
<path d="M210.306 119.587C210.623 121.324 211.178 123.01 211.957 124.595C211.546 124.788 211.098 124.888 210.644 124.888C210.191 124.888 209.743 124.788 209.332 124.595L210.306 119.587Z" fill="#FD5652"/>
<path d="M206.329 126.888C205.371 126.731 204.465 126.344 203.689 125.762C202.913 125.179 202.289 124.417 201.871 123.541C201.859 123.516 201.853 123.489 201.852 123.462C201.851 123.435 201.855 123.407 201.865 123.382C201.874 123.356 201.889 123.333 201.908 123.313C201.926 123.293 201.949 123.277 201.974 123.266C202.026 123.246 202.083 123.247 202.134 123.269C202.185 123.29 202.226 123.33 202.249 123.38C202.649 124.186 203.233 124.885 203.954 125.423C204.675 125.96 205.512 126.321 206.398 126.475C206.425 126.479 206.451 126.489 206.475 126.503C206.498 126.518 206.519 126.537 206.535 126.559C206.551 126.581 206.562 126.607 206.568 126.634C206.574 126.661 206.575 126.689 206.57 126.716C206.559 126.769 206.528 126.817 206.483 126.849C206.438 126.881 206.383 126.894 206.329 126.888Z" fill="#1A2E35"/>
<path d="M202.822 114.165C202.711 114.16 202.606 114.113 202.528 114.035C202.449 113.957 202.403 113.852 202.397 113.741C202.402 113.624 202.451 113.514 202.535 113.432C203.026 112.97 203.62 112.633 204.268 112.447C204.916 112.262 205.599 112.234 206.26 112.366C206.368 112.398 206.46 112.471 206.516 112.569C206.571 112.668 206.586 112.784 206.558 112.893C206.545 112.946 206.521 112.996 206.488 113.039C206.456 113.083 206.415 113.12 206.368 113.147C206.321 113.175 206.269 113.193 206.215 113.201C206.161 113.208 206.106 113.205 206.054 113.191C205.529 113.098 204.989 113.128 204.478 113.28C203.967 113.431 203.498 113.699 203.108 114.062C203.029 114.132 202.927 114.169 202.822 114.165Z" fill="#1A2E35"/>
<path d="M217.103 115.758C217.019 115.759 216.936 115.735 216.867 115.688C216.797 115.64 216.743 115.573 216.713 115.495C216.517 114.998 216.207 114.554 215.809 114.198C215.411 113.842 214.936 113.584 214.421 113.443C214.366 113.434 214.313 113.413 214.266 113.383C214.219 113.353 214.179 113.314 214.147 113.268C214.115 113.222 214.092 113.171 214.08 113.116C214.068 113.062 214.067 113.005 214.077 112.95C214.099 112.841 214.163 112.744 214.255 112.68C214.346 112.616 214.459 112.59 214.57 112.607C215.224 112.77 215.829 113.087 216.335 113.532C216.842 113.976 217.234 114.535 217.481 115.162C217.504 115.214 217.516 115.269 217.518 115.325C217.519 115.381 217.509 115.436 217.489 115.489C217.469 115.541 217.439 115.589 217.4 115.629C217.361 115.669 217.315 115.702 217.263 115.724L217.103 115.758Z" fill="#1A2E35"/>
<path d="M205.607 123.495C205.252 123.497 204.902 123.416 204.584 123.258C204.266 123.101 203.988 122.872 203.774 122.59C203.235 121.749 202.875 120.806 202.717 119.82C202.559 118.834 202.607 117.826 202.857 116.859C203.51 113.238 205.779 110.292 207.923 110.292C208.279 110.297 208.63 110.382 208.949 110.541C209.269 110.699 209.548 110.928 209.768 111.209C210.307 112.05 210.666 112.992 210.824 113.979C210.982 114.965 210.934 115.973 210.685 116.94C210.031 120.561 207.751 123.495 205.607 123.495ZM207.9 110.613C205.894 110.613 203.739 113.455 203.109 116.94C202.708 119.232 203.029 121.295 203.968 122.407C204.159 122.655 204.403 122.856 204.683 122.995C204.964 123.134 205.272 123.207 205.584 123.209C207.602 123.209 209.745 120.378 210.375 116.894C210.618 115.973 210.668 115.011 210.52 114.07C210.372 113.129 210.03 112.229 209.516 111.427C209.33 111.178 209.09 110.976 208.814 110.835C208.537 110.694 208.233 110.618 207.923 110.613H207.9Z" fill="#F9F9F9"/>
<path d="M214.512 124.641C214.141 124.636 213.776 124.547 213.445 124.38C213.113 124.213 212.824 123.973 212.598 123.678C212.084 122.907 211.735 122.036 211.576 121.123C211.416 120.209 211.448 119.272 211.67 118.372C212.254 115.002 214.455 112.274 216.575 112.274C216.947 112.284 217.311 112.377 217.642 112.545C217.973 112.714 218.263 112.954 218.489 113.249C218.999 114.02 219.345 114.889 219.504 115.8C219.664 116.711 219.635 117.645 219.418 118.544C218.845 121.925 216.644 124.641 214.512 124.641ZM216.541 112.561C214.547 112.561 212.484 115.186 211.956 118.429C211.751 119.288 211.722 120.181 211.872 121.051C212.021 121.922 212.347 122.754 212.827 123.495C213.032 123.751 213.29 123.961 213.582 124.109C213.875 124.257 214.196 124.341 214.524 124.355C216.518 124.355 218.592 121.741 219.108 118.498C219.312 117.639 219.341 116.748 219.193 115.878C219.046 115.007 218.724 114.176 218.249 113.432C218.045 113.174 217.788 112.962 217.495 112.812C217.203 112.661 216.881 112.576 216.552 112.561H216.541Z" fill="#F9F9F9"/>
<path d="M110.329 381.327C109.183 381.327 108.037 379.562 107.361 378.542C107.338 378.508 107.326 378.468 107.326 378.427C107.326 378.387 107.338 378.347 107.361 378.313C107.385 378.279 107.419 378.253 107.457 378.237C107.495 378.221 107.537 378.215 107.579 378.221C107.945 378.301 111.097 378.989 111.498 380.066C111.544 380.185 111.556 380.314 111.534 380.439C111.512 380.564 111.456 380.681 111.372 380.777C111.265 380.955 111.111 381.1 110.927 381.196C110.743 381.293 110.537 381.338 110.329 381.327ZM107.934 378.748C108.817 380.078 109.676 380.869 110.295 380.903C110.432 380.904 110.568 380.87 110.688 380.804C110.809 380.738 110.91 380.641 110.983 380.525C111.021 380.484 111.047 380.434 111.058 380.379C111.068 380.324 111.062 380.267 111.04 380.215C110.834 379.688 109.195 379.069 107.934 378.748Z" fill="#4B0082"/>
<path d="M108.45 378.749C108.103 378.75 107.757 378.712 107.419 378.634C107.384 378.622 107.353 378.603 107.327 378.577C107.301 378.551 107.282 378.52 107.27 378.485C107.247 378.418 107.247 378.346 107.27 378.279C107.35 378.21 109.104 376.479 110.399 376.479H110.491C110.651 376.49 110.807 376.534 110.949 376.609C111.092 376.685 111.216 376.789 111.316 376.915C111.433 377.037 111.505 377.195 111.522 377.363C111.538 377.532 111.498 377.701 111.407 377.843C111.041 378.462 109.574 378.749 108.45 378.749ZM107.935 378.302C109.012 378.428 110.754 378.118 111.109 377.603C111.167 377.522 111.213 377.396 111.041 377.179C110.981 377.094 110.902 377.025 110.81 376.978C110.719 376.93 110.617 376.904 110.513 376.904C109.529 377.088 108.626 377.577 107.935 378.302Z" fill="#4B0082"/>
<path d="M173.699 403.757C172.75 403.734 171.806 403.619 170.879 403.413C170.835 403.404 170.795 403.382 170.764 403.349C170.734 403.316 170.714 403.274 170.708 403.23C170.702 403.186 170.711 403.142 170.731 403.103C170.752 403.064 170.783 403.033 170.822 403.012C171.246 402.806 174.925 400.972 175.991 401.591C176.087 401.653 176.167 401.737 176.223 401.837C176.279 401.937 176.31 402.049 176.312 402.164C176.324 402.357 176.29 402.551 176.212 402.728C176.135 402.906 176.016 403.062 175.865 403.184C175.227 403.612 174.465 403.813 173.699 403.757ZM171.601 403.138C173.561 403.459 175.04 403.379 175.613 402.886C175.711 402.802 175.788 402.696 175.838 402.576C175.888 402.457 175.909 402.327 175.899 402.198C175.902 402.155 175.892 402.112 175.872 402.074C175.852 402.035 175.822 402.003 175.785 401.981C175.212 401.648 173.172 402.428 171.601 403.127V403.138Z" fill="#4B0082"/>
<path d="M170.937 403.436H170.811C170.777 403.414 170.751 403.383 170.735 403.347C170.718 403.31 170.713 403.27 170.719 403.23C170.719 403.069 171.27 399.425 173.264 399.425H173.436C174.009 399.425 174.169 399.769 174.204 400.009C174.364 401.018 172.141 402.966 171.017 403.448L170.937 403.436ZM173.229 399.814C171.934 399.814 171.361 401.923 171.166 402.84C172.313 402.164 173.837 400.64 173.745 400.032C173.745 400.032 173.745 399.849 173.344 399.814H173.229Z" fill="#4B0082"/>
<path d="M205.526 116.079L207.327 115.919C207.327 115.919 206.191 117.1 205.526 116.079Z" fill="#1A2E35"/>
<path d="M197.653 157.638C182.753 151.988 178.1 143.529 178.455 141.753L180.747 141.89H181.194C181.766 141.905 182.336 141.955 182.902 142.039C183.957 142.131 185.045 142.246 186.146 142.395L187.292 142.555C192.762 143.221 198.177 144.274 203.498 145.707C205.928 146.418 206.73 146.647 208.083 147.128L209.229 147.564L209.71 147.747C210.902 150.314 210.638 155.564 197.653 157.638Z" fill="#FD897B"/>
<path d="M197.653 157.638C182.753 151.988 178.1 143.529 178.455 141.753L180.747 141.89H181.194C184.22 146.188 190.845 152.125 197.595 152.939C203.028 151.793 208.151 150.486 208.105 147.128L209.252 147.564L209.733 147.747C210.902 150.314 210.638 155.564 197.653 157.638Z" fill="#4B0082"/>
<path opacity="0.3" d="M197.653 157.638C182.753 151.988 178.1 143.529 178.455 141.753L180.747 141.89H181.194C184.22 146.188 190.845 152.125 197.595 152.939C203.028 151.793 208.151 150.486 208.105 147.128L209.252 147.564L209.733 147.747C210.902 150.314 210.638 155.564 197.653 157.638Z" fill="black"/>
<path d="M167.544 193.936L165.252 196.824C165.08 197.042 165.332 197.351 165.745 197.431L203.177 204.721C203.498 204.789 203.796 204.721 203.853 204.48L204.793 201.351C204.862 201.133 204.621 200.893 204.266 200.824L168.117 193.787C168.017 193.765 167.912 193.767 167.813 193.793C167.713 193.818 167.621 193.867 167.544 193.936Z" fill="#1A2E35"/>
<path d="M171.613 198.921L170.651 198.738C170.456 198.738 170.33 198.578 170.364 198.451L171.625 194.394C171.625 194.268 171.854 194.211 172.037 194.245L173.012 194.429C173.206 194.429 173.333 194.6 173.298 194.715L172.037 198.784C171.993 198.852 171.927 198.902 171.85 198.927C171.772 198.952 171.689 198.95 171.613 198.921Z" fill="#4B0082"/>
<path opacity="0.3" d="M171.613 198.921L170.651 198.738C170.456 198.738 170.33 198.578 170.364 198.451L171.625 194.394C171.625 194.268 171.854 194.211 172.037 194.245L173.012 194.429C173.206 194.429 173.333 194.6 173.298 194.715L172.037 198.784C171.993 198.852 171.927 198.902 171.85 198.927C171.772 198.952 171.689 198.95 171.613 198.921Z" fill="black"/>
<path d="M174.158 155.426C173.722 158.142 173.309 161.156 173.011 163.976C172.713 166.795 172.45 169.706 172.312 172.64C172.236 174.085 172.19 175.529 172.175 176.973V181.271C172.232 184.078 172.45 186.879 172.828 189.66C173.047 190.612 173.435 191.517 173.974 192.331C174.664 193.445 175.43 194.509 176.266 195.517C178.097 197.692 180.057 199.755 182.135 201.695C184.232 203.712 186.433 205.66 188.69 207.563C190.948 209.465 193.275 211.357 195.567 213.179L193.103 216.938C187.708 213.983 182.551 210.615 177.676 206.864C175.157 204.938 172.782 202.832 170.57 200.56C169.387 199.345 168.303 198.038 167.327 196.652C166.114 195.015 165.252 193.146 164.794 191.162L164.37 188.732C164.221 187.941 164.118 187.15 164.026 186.371C163.797 184.789 163.671 183.219 163.544 181.649C163.306 178.526 163.233 175.393 163.327 172.262C163.418 169.156 163.59 166.062 163.9 162.979C164.209 159.896 164.599 156.87 165.218 153.684L174.158 155.426Z" fill="#FD897B"/>
<path d="M166.547 143.988C161.641 147.954 162.81 159.736 162.81 159.736L179.314 165.168C179.314 165.168 178.558 151.61 177.756 146.704C176.77 140.893 171.36 140.08 166.547 143.988Z" fill="#1A2E35"/>
<path d="M193.55 212.445L201.011 209.672L199.865 216.766C199.865 216.766 194.455 218.715 191.682 216.216L193.55 212.445Z" fill="#FD897B"/>
<path d="M209.894 210.726V216.205L199.865 216.766L201.011 209.672L209.894 210.726Z" fill="#FD897B"/>
<path d="M200.438 204.538L199.532 204.332C199.338 204.332 199.211 204.171 199.246 204.045L200.507 199.988C200.507 199.862 200.736 199.805 200.931 199.839L201.893 200.022C202.088 200.022 202.214 200.194 202.18 200.309L200.919 204.378C200.828 204.515 200.679 204.584 200.438 204.538Z" fill="#4B0082"/>
<path opacity="0.3" d="M200.438 204.538L199.532 204.332C199.338 204.332 199.211 204.171 199.246 204.045L200.507 199.988C200.507 199.862 200.736 199.805 200.931 199.839L201.893 200.022C202.088 200.022 202.214 200.194 202.18 200.309L200.919 204.378C200.828 204.515 200.679 204.584 200.438 204.538Z" fill="black"/>
<path d="M186.031 201.718L185.057 201.535C184.862 201.535 184.736 201.374 184.782 201.248L186.043 197.191C186.043 197.065 186.26 197.008 186.455 197.042L187.429 197.225C187.613 197.225 187.75 197.397 187.704 197.512L186.444 201.581C186.409 201.718 186.226 201.776 186.031 201.718Z" fill="#4B0082"/>
<path opacity="0.3" d="M186.031 201.718L185.057 201.535C184.862 201.535 184.736 201.374 184.782 201.248L186.043 197.191C186.043 197.065 186.26 197.008 186.455 197.042L187.429 197.225C187.613 197.225 187.75 197.397 187.704 197.512L186.444 201.581C186.409 201.718 186.226 201.776 186.031 201.718Z" fill="black"/>
<path d="M113.035 268.514L172.45 398.278C173.812 401.227 176.286 403.518 179.331 404.649C182.376 405.781 185.745 405.662 188.702 404.318L198.135 400.009L416.552 300.009C419.502 298.652 421.795 296.181 422.929 293.138C424.063 290.095 423.946 286.726 422.603 283.769L370.099 169.156L363.222 154.016C361.856 151.071 359.382 148.785 356.339 147.654C353.295 146.523 349.929 146.638 346.97 147.976L119.109 252.273C116.159 253.631 113.865 256.101 112.727 259.143C111.59 262.185 111.7 265.553 113.035 268.514Z" fill="#4B0082"/>
<path opacity="0.1" d="M369.189 169.57L369.19 169.573L421.693 284.182C421.693 284.183 421.693 284.184 421.693 284.184C422.926 286.9 423.033 289.994 421.992 292.789C420.95 295.584 418.844 297.854 416.134 299.101L197.719 399.099L197.718 399.1L188.288 403.408C188.288 403.408 188.288 403.408 188.287 403.408C185.571 404.642 182.476 404.751 179.679 403.712C176.882 402.673 174.61 400.569 173.359 397.861C173.358 397.86 173.358 397.859 173.358 397.859L113.947 268.103C113.946 268.102 113.946 268.101 113.946 268.101C112.72 265.381 112.619 262.287 113.664 259.493C114.709 256.698 116.816 254.43 119.527 253.182C119.527 253.182 119.527 253.182 119.528 253.182L347.382 148.887C347.383 148.887 347.384 148.887 347.385 148.886C350.102 147.658 353.195 147.552 355.99 148.591C358.785 149.63 361.058 151.729 362.314 154.433C362.314 154.435 362.315 154.436 362.315 154.437L369.189 169.57Z" fill="url(#paint0_linear_4893_37089)" stroke="#F0EBF4" stroke-width="2"/>
<path d="M387.293 206.681L137.147 321.206L166.423 385.149L416.568 270.624L387.293 206.681Z" fill="#4B0082"/>
<path opacity="0.3" d="M387.293 206.681L137.147 321.206L166.423 385.149L416.568 270.624L387.293 206.681Z" fill="white"/>
<path d="M376.935 236.262L218.859 308.635L229.337 331.519L387.412 259.146L376.935 236.262Z" fill="#4B0082"/>
<path opacity="0.8" d="M376.935 236.262L218.859 308.635L229.337 331.519L387.412 259.146L376.935 236.262Z" fill="white"/>
<path d="M378.744 183.385L128.398 298.955L144.16 333.097L394.506 217.527L378.744 183.385Z" fill="#4B0082"/>
<path opacity="0.3" d="M378.744 183.385L128.398 298.955L144.16 333.097L394.506 217.527L378.744 183.385Z" fill="black"/>
<path d="M147.006 270.176L198.135 399.998L416.552 299.999C419.502 298.641 421.795 296.17 422.929 293.127C424.063 290.084 423.946 286.715 422.603 283.758L370.099 169.146L153.929 254.28C150.911 255.48 148.49 257.825 147.194 260.802C145.897 263.78 145.83 267.149 147.006 270.176Z" fill="#4B0082"/>
<path d="M162.215 254.76L398.66 171.724C401.728 170.656 405.093 170.847 408.02 172.253C410.948 173.66 413.199 176.169 414.282 179.231L461.571 313.889C462.639 316.956 462.451 320.322 461.046 323.251C459.642 326.18 457.136 328.434 454.075 329.522L217.63 412.559C214.561 413.62 211.196 413.427 208.269 412.021C205.341 410.616 203.087 408.111 201.997 405.052L154.708 270.359C153.65 267.294 153.846 263.936 155.252 261.015C156.658 258.094 159.16 255.846 162.215 254.76Z" fill="#4B0082"/>
<g opacity="0.1" filter="url(#filter0_d_4893_37089)">
<path d="M162.215 254.76L398.66 171.724C401.728 170.656 405.093 170.847 408.02 172.253C410.948 173.66 413.199 176.169 414.282 179.231L461.571 313.889C462.639 316.956 462.451 320.322 461.046 323.251C459.642 326.18 457.136 328.434 454.075 329.522L217.63 412.559C214.561 413.62 211.196 413.427 208.269 412.021C205.341 410.616 203.087 408.111 201.997 405.052L154.708 270.359C153.65 267.294 153.846 263.936 155.252 261.015C156.658 258.094 159.16 255.846 162.215 254.76Z" fill="url(#paint1_linear_4893_37089)"/>
<path d="M162.55 255.703L398.989 172.668C401.807 171.687 404.898 171.862 407.587 173.155C410.276 174.447 412.344 176.751 413.339 179.564L460.627 314.218C461.608 317.036 461.435 320.128 460.145 322.819C458.855 325.508 456.554 327.579 453.744 328.579C453.743 328.579 453.741 328.579 453.74 328.58L217.303 411.614C217.302 411.614 217.302 411.614 217.301 411.614C214.482 412.589 211.391 412.411 208.702 411.12C206.013 409.829 203.942 407.528 202.94 404.719C202.939 404.718 202.939 404.717 202.939 404.716L155.653 270.033C155.653 270.032 155.652 270.031 155.652 270.03C154.682 267.216 154.862 264.132 156.153 261.449C157.444 258.766 159.742 256.701 162.547 255.703C162.548 255.703 162.549 255.703 162.55 255.703Z" stroke="#F0EBF4" stroke-width="2"/>
</g>
<path d="M430.229 230.153L171.62 320.941L192.108 379.302L450.717 288.514L430.229 230.153Z" fill="#4B0082"/>
<path opacity="0.3" d="M430.229 230.153L171.62 320.941L192.108 379.302L450.717 288.514L430.229 230.153Z" fill="white"/>
<path d="M399.404 201.806L345.945 220.573L348.869 228.901L402.327 210.134L399.404 201.806Z" fill="#4B0082"/>
<path opacity="0.8" d="M399.404 201.806L345.945 220.573L348.869 228.901L402.327 210.134L399.404 201.806Z" fill="white"/>
<path d="M437.256 304.587L394.206 319.705L395.74 324.074L438.79 308.956L437.256 304.587Z" fill="#4B0082"/>
<path opacity="0.8" d="M437.256 304.587L394.206 319.705L395.74 324.074L438.79 308.956L437.256 304.587Z" fill="white"/>
<path d="M440.196 312.945L384.721 332.427L386.255 336.796L441.73 317.314L440.196 312.945Z" fill="#4B0082"/>
<path opacity="0.8" d="M440.196 312.945L384.721 332.427L386.255 336.796L441.73 317.314L440.196 312.945Z" fill="white"/>
<path d="M242.391 376.763L214.653 386.504L217.953 395.901L245.691 386.16L242.391 376.763Z" fill="#4B0082"/>
<path opacity="0.8" d="M242.391 376.763L214.653 386.504L217.953 395.901L245.691 386.16L242.391 376.763Z" fill="white"/>
<path d="M390.695 296.273L423.084 284.904C424.792 284.296 426.19 283.039 426.976 281.406C427.761 279.772 427.87 277.895 427.279 276.182C426.678 274.468 425.424 273.061 423.79 272.269C422.156 271.477 420.275 271.363 418.557 271.953L386.156 283.414C384.448 284.021 383.05 285.279 382.264 286.912C381.479 288.545 381.37 290.423 381.961 292.136C382.58 293.835 383.844 295.223 385.479 295.997C387.113 296.772 388.987 296.871 390.695 296.273Z" fill="#4B0082"/>
<path d="M335.211 315.758L367.611 304.377C369.306 303.766 370.694 302.516 371.476 300.893C372.258 299.271 372.373 297.406 371.795 295.7C371.185 293.995 369.927 292.599 368.294 291.816C366.661 291.033 364.785 290.925 363.073 291.517L330.683 302.898C328.976 303.506 327.577 304.763 326.792 306.396C326.006 308.03 325.897 309.907 326.488 311.62C327.108 313.317 328.369 314.702 330.001 315.477C331.634 316.251 333.505 316.352 335.211 315.758Z" fill="#4B0082"/>
<path d="M279.762 335.242L312.162 323.861C313.853 323.246 315.235 321.994 316.013 320.372C316.791 318.75 316.902 316.888 316.323 315.185C315.713 313.479 314.455 312.084 312.822 311.3C311.189 310.517 309.313 310.41 307.601 311.001L275.177 322.382C273.472 322.992 272.076 324.251 271.293 325.884C270.509 327.517 270.402 329.393 270.994 331.104C271.612 332.812 272.882 334.206 274.524 334.981C276.167 335.756 278.05 335.85 279.762 335.242Z" fill="#4B0082"/>
<path d="M224.254 354.725L256.655 343.344C258.352 342.736 259.742 341.487 260.527 339.864C261.311 338.241 261.427 336.376 260.85 334.668C260.24 332.963 258.982 331.567 257.349 330.784C255.716 330 253.84 329.893 252.128 330.485L219.727 341.866C218.02 342.474 216.621 343.731 215.836 345.364C215.05 346.997 214.941 348.875 215.532 350.588C216.151 352.285 217.413 353.67 219.045 354.444C220.677 355.219 222.549 355.319 224.254 354.725Z" fill="#4B0082"/>
<g opacity="0.8">
<path d="M390.695 296.273L423.084 284.904C424.792 284.296 426.19 283.039 426.976 281.406C427.761 279.772 427.87 277.895 427.279 276.182C426.678 274.468 425.424 273.061 423.79 272.269C422.156 271.477 420.275 271.363 418.557 271.953L386.156 283.414C384.448 284.021 383.05 285.279 382.264 286.912C381.479 288.545 381.37 290.423 381.961 292.136C382.58 293.835 383.844 295.223 385.479 295.997C387.113 296.772 388.987 296.871 390.695 296.273Z" fill="white"/>
<path d="M335.211 315.758L367.611 304.377C369.306 303.766 370.694 302.516 371.476 300.893C372.258 299.271 372.373 297.406 371.795 295.7C371.185 293.995 369.927 292.599 368.294 291.816C366.661 291.033 364.785 290.925 363.073 291.517L330.683 302.898C328.976 303.506 327.577 304.763 326.792 306.396C326.006 308.03 325.897 309.907 326.488 311.62C327.108 313.317 328.369 314.702 330.001 315.477C331.634 316.251 333.505 316.352 335.211 315.758Z" fill="white"/>
<path d="M279.762 335.241L312.162 323.86C313.853 323.245 315.235 321.993 316.013 320.371C316.791 318.749 316.902 316.887 316.323 315.184C315.713 313.478 314.455 312.083 312.822 311.299C311.189 310.516 309.313 310.409 307.601 311.001L275.177 322.382C273.472 322.991 272.076 324.25 271.293 325.883C270.509 327.516 270.402 329.392 270.994 331.104C271.612 332.811 272.882 334.205 274.524 334.98C276.167 335.755 278.05 335.849 279.762 335.241Z" fill="white"/>
<path d="M224.254 354.725L256.655 343.344C258.352 342.736 259.742 341.487 260.527 339.864C261.311 338.241 261.427 336.376 260.85 334.668C260.24 332.963 258.982 331.567 257.349 330.784C255.716 330 253.84 329.893 252.128 330.485L219.727 341.866C218.02 342.474 216.621 343.731 215.836 345.364C215.05 346.997 214.941 348.875 215.532 350.588C216.151 352.285 217.413 353.67 219.045 354.444C220.677 355.219 222.549 355.319 224.254 354.725Z" fill="white"/>
</g>
<path d="M407.534 234.111L378.704 244.235C376.256 245.095 374.968 247.777 375.828 250.226L381.835 267.333C382.695 269.782 385.377 271.07 387.826 270.21L416.655 260.086C419.104 259.226 420.392 256.544 419.532 254.095L413.524 236.987C412.665 234.539 409.982 233.251 407.534 234.111Z" fill="#4B0082"/>
<path opacity="0.3" d="M407.534 234.111L378.704 244.235C376.256 245.095 374.968 247.777 375.828 250.226L381.835 267.333C382.695 269.782 385.377 271.07 387.826 270.21L416.655 260.086C419.104 259.226 420.392 256.544 419.532 254.095L413.524 236.987C412.665 234.539 409.982 233.251 407.534 234.111Z" fill="black"/>
<path d="M233.549 265.901C232.831 263.846 231.714 261.954 230.263 260.331C228.812 258.709 227.055 257.388 225.093 256.445C223.131 255.502 221.003 254.955 218.829 254.835C216.656 254.715 214.48 255.025 212.426 255.746L189.137 264.491L188.839 264.572L188.152 264.858L187.727 265.019C183.768 266.584 180.593 269.658 178.9 273.565C177.208 277.471 177.136 281.89 178.702 285.849C180.267 289.809 183.341 292.984 187.248 294.676C191.154 296.369 195.573 296.44 199.533 294.875L221.584 287.54C222.219 287.398 222.847 287.222 223.464 287.013C223.92 286.853 224.368 286.669 224.805 286.462C228.568 284.747 231.552 281.686 233.171 277.88C234.789 274.075 234.924 269.801 233.549 265.901Z" fill="#4B0082"/>
<path opacity="0.8" d="M233.549 265.901C232.831 263.846 231.714 261.954 230.263 260.331C228.812 258.709 227.055 257.388 225.093 256.445C223.131 255.502 221.003 254.955 218.829 254.835C216.656 254.715 214.48 255.025 212.426 255.746L189.137 264.491L188.839 264.572L188.152 264.858L187.727 265.019C183.768 266.584 180.593 269.658 178.9 273.565C177.208 277.471 177.136 281.89 178.702 285.849C180.267 289.809 183.341 292.984 187.248 294.676C191.154 296.369 195.573 296.44 199.533 294.875L221.584 287.54C222.219 287.398 222.847 287.222 223.464 287.013C223.92 286.853 224.368 286.669 224.805 286.462C228.568 284.747 231.552 281.686 233.171 277.88C234.789 274.075 234.924 269.801 233.549 265.901Z" fill="#FFC857"/>
</g>
<defs>
<filter id="filter0_d_4893_37089" x="150.035" y="171.041" width="316.22" height="250.194" filterUnits="userSpaceOnUse" color-interpolation-filters="sRGB">
<feFlood flood-opacity="0" result="BackgroundImageFix"/>
<feColorMatrix in="SourceAlpha" type="matrix" values="0 0 0 0 0 0 0 0 0 0 0 0 0 0 0 0 0 0 127 0" result="hardAlpha"/>
<feOffset dy="4"/>
<feGaussianBlur stdDeviation="2"/>
<feComposite in2="hardAlpha" operator="out"/>
<feColorMatrix type="matrix" values="0 0 0 0 0 0 0 0 0 0 0 0 0 0 0 0 0 0 0.25 0"/>
<feBlend mode="normal" in2="BackgroundImageFix" result="effect1_dropShadow_4893_37089"/>
<feBlend mode="normal" in="SourceGraphic" in2="effect1_dropShadow_4893_37089" result="shape"/>
</filter>
<linearGradient id="paint0_linear_4893_37089" x1="267.825" y1="146.882" x2="267.825" y2="405.42" gradientUnits="userSpaceOnUse">
<stop stop-color="#64497D"/>
<stop offset="1" stop-color="#FFC857"/>
</linearGradient>
<linearGradient id="paint1_linear_4893_37089" x1="308.145" y1="171.041" x2="308.145" y2="413.236" gradientUnits="userSpaceOnUse">
<stop stop-color="#64497D"/>
<stop offset="1" stop-color="#FFC857"/>
</linearGradient>
<clipPath id="clip0_4893_37089">
<rect width="573.062" height="427" fill="white"/>
</clipPath>
</defs>
</svg>
