<svg width="574" height="428" viewBox="0 0 574 428" fill="none" xmlns="http://www.w3.org/2000/svg">
<g clip-path="url(#clip0_4893_37385)">
<path d="M573.34 375.48H0V375.767H573.34V375.48Z" fill="#E7DFEE"/>
<path d="M341.527 22.291H120.149V181.209H341.527V22.291Z" fill="#F0EBF4"/>
<path d="M328.925 181.209L272.623 22.291H230.368L286.67 181.209H328.925Z" fill="white"/>
<path d="M215.301 181.209L158.999 22.291H143.587L199.889 181.209H215.301Z" fill="white"/>
<path d="M109.6 16.833H352.088C352.217 16.833 352.345 16.8586 352.464 16.9083C352.583 16.958 352.691 17.0308 352.782 17.1225C352.872 17.2143 352.944 17.3231 352.992 17.4426C353.04 17.5622 353.065 17.6902 353.063 17.8192C353.063 18.0777 352.96 18.3256 352.778 18.5084C352.595 18.6911 352.347 18.7938 352.088 18.7938H109.6C109.34 18.7938 109.091 18.6915 108.907 18.5091C108.722 18.3266 108.617 18.0787 108.614 17.8192C108.614 17.5576 108.718 17.3068 108.903 17.1218C109.088 16.9369 109.338 16.833 109.6 16.833Z" fill="#BFABD3"/>
<path d="M232.157 21.9473H229.531V181.554H232.157V21.9473Z" fill="#DFD2EB"/>
<path d="M229.52 21.9473H228.212V181.554H229.52V21.9473Z" fill="#BFABD3"/>
<path d="M118.624 180.086V20.6973H343.052V180.086V182.712H118.624V180.086ZM340.438 180.086V23.392H121.25V180.086H340.438Z" fill="#DFD2EB"/>
<path d="M118.612 20.7666H117.305V182.747H118.612V20.7666Z" fill="#BFABD3"/>
<path d="M89.0741 223.419H71.0024V369.999H89.0741V223.419Z" fill="#DFD2EB"/>
<path d="M273.575 369.999H74.4771V375.48H273.575V369.999Z" fill="#F0F0F0"/>
<path d="M89.0855 369.999H277.049V223.419L89.0855 223.419L89.0855 369.999Z" fill="#F0EBF4"/>
<path d="M87.205 218.638H68.7319V223.419H87.205V218.638Z" fill="#BFABD3"/>
<path d="M87.1938 223.407L279.309 223.407V218.626L87.1938 218.626V223.407Z" fill="#BFABD3"/>
<path d="M270.548 305.911H95.5757V233.452H270.548V305.911ZM96.7912 304.695H269.332V234.668H96.7912V304.695Z" fill="#E7DFEE"/>
<path d="M270.548 359.954H95.5757V313.158H270.548V359.954ZM96.7912 358.739H269.332V314.374H96.7912V358.739Z" fill="#E7DFEE"/>
<path d="M245.366 234.061H120.757C119.87 234.061 119.151 234.779 119.151 235.666V236.342C119.151 237.229 119.87 237.948 120.757 237.948H245.366C246.253 237.948 246.972 237.229 246.972 236.342V235.666C246.972 234.779 246.253 234.061 245.366 234.061Z" fill="#E7DFEE"/>
<path d="M245.366 313.766H120.757C119.87 313.766 119.151 314.484 119.151 315.371V316.048C119.151 316.934 119.87 317.653 120.757 317.653H245.366C246.253 317.653 246.972 316.934 246.972 316.048V315.371C246.972 314.484 246.253 313.766 245.366 313.766Z" fill="#E7DFEE"/>
<path d="M398.884 368.439H504.012L504.012 47.6902H398.884L398.884 368.439Z" fill="#DFD2EB"/>
<path d="M398.884 47.7012H395.547V368.451H398.884V47.7012Z" fill="#BFABD3"/>
<path d="M415.947 356.204H486.96L486.96 59.9249H415.947L415.947 356.204Z" fill="#F0EBF4"/>
<path d="M286.67 427.265C409.459 427.265 509 421.453 509 414.284C509 407.115 409.459 401.304 286.67 401.304C163.881 401.304 64.3403 407.115 64.3403 414.284C64.3403 421.453 163.881 427.265 286.67 427.265Z" fill="#9881AE"/>
<path d="M164.388 404.297L173.367 400.891L167.863 379.196L158.884 382.602L164.388 404.297Z" fill="#B55B52"/>
<path d="M96.9292 404.469H106.527L107.972 382.234H98.3625L96.9292 404.469Z" fill="#B55B52"/>
<path d="M107.49 403.368H95.7825C95.5944 403.365 95.4115 403.43 95.2665 403.549C95.1215 403.669 95.024 403.837 94.9913 404.022L93.5235 412.553C93.494 412.766 93.5105 412.983 93.5719 413.189C93.6333 413.395 93.7382 413.585 93.8795 413.747C94.0208 413.909 94.1953 414.039 94.391 414.128C94.5868 414.216 94.7993 414.262 95.0142 414.262C98.7753 414.193 101.516 413.975 106.263 413.975C109.176 413.975 117.994 414.285 122.03 414.285C126.066 414.285 126.387 410.294 124.713 409.927C117.237 408.31 111.549 406.086 109.073 403.953C108.631 403.577 108.07 403.37 107.49 403.368Z" fill="#263238"/>
<path d="M172.908 399.883L163.104 403.598C162.925 403.666 162.775 403.793 162.677 403.957C162.579 404.121 162.54 404.314 162.565 404.504L163.827 413.15C163.849 413.363 163.92 413.568 164.034 413.749C164.149 413.93 164.304 414.082 164.487 414.193C164.671 414.304 164.877 414.372 165.091 414.389C165.304 414.407 165.519 414.375 165.719 414.296C169.227 412.897 172.22 411.12 176.692 409.515C181.801 407.854 186.715 405.643 191.347 402.921C194.672 400.811 193.273 396.798 191.702 397.429C184.57 400.295 182.816 401.236 175.328 399.791C174.528 399.597 173.691 399.628 172.908 399.883Z" fill="#263238"/>
<path d="M147.578 111.848C150.594 117.191 153.781 122.695 156.992 128.016C160.203 133.336 163.494 138.657 166.991 143.611C167.828 144.861 168.768 146.065 169.617 147.223C169.805 147.56 170.058 147.856 170.362 148.094C170.899 148.369 171.51 148.466 172.105 148.369C173.201 148.258 174.277 147.999 175.304 147.601C177.906 146.58 180.39 145.281 182.712 143.725C183.95 142.911 185.212 142.074 186.439 141.18C187.666 140.285 188.904 139.322 190.028 138.462L195.406 143.255C194.425 144.672 193.372 146.039 192.252 147.349C191.17 148.67 190.021 149.937 188.812 151.144C187.572 152.394 186.258 153.57 184.879 154.665C183.442 155.84 181.908 156.891 180.293 157.807C178.47 158.863 176.509 159.662 174.467 160.18C171.929 160.835 169.266 160.835 166.727 160.18C163.984 159.417 161.524 157.866 159.652 155.72C158.506 154.389 157.359 153.14 156.327 151.821C152.175 146.669 148.312 141.291 144.757 135.71C141.202 130.183 137.877 124.645 134.827 118.751L147.578 111.848Z" fill="#B65B52"/>
<path d="M130.538 112.295C127.958 121.102 146.179 145.113 146.179 145.113L164.526 133.291C161.065 125.654 156.794 118.411 151.786 111.687C144.298 102.113 133.382 102.629 130.538 112.295Z" fill="#4B0082"/>
<path opacity="0.2" d="M130.538 112.295C127.958 121.102 146.179 145.113 146.179 145.113L164.526 133.291C161.065 125.654 156.794 118.411 151.786 111.687C144.298 102.113 133.382 102.629 130.538 112.295Z" fill="black"/>
<path opacity="0.2" d="M141.741 122.626C145.525 124.243 151.087 133.348 153.988 140.102L146.179 145.113C141.826 139.294 137.909 133.162 134.46 126.766C136.925 124.025 139.746 121.778 141.741 122.626Z" fill="black"/>
<path d="M188.893 141.455L192.264 132.018L201.816 136.604C201.816 136.604 199.832 145.009 192.837 144.998L188.893 141.455Z" fill="#B55B52"/>
<path d="M200.761 125.803L204.809 130.275L201.816 136.582L192.264 132.018L200.761 125.803Z" fill="#B55B52"/>
<path opacity="0.2" d="M167.863 379.196L170.695 390.388L161.717 393.794L158.884 382.613L167.863 379.196Z" fill="black"/>
<path opacity="0.2" d="M98.3625 382.246H107.972L107.226 393.701H97.6172L98.3625 382.246Z" fill="black"/>
<path d="M87.7441 108.396C98.0643 144.872 96.3901 183.573 97.0323 191.439L148.358 189.513C157.084 135.137 141.478 104.876 141.478 104.876C141.478 104.876 138.187 104.245 133.703 103.787C132.304 103.638 130.791 103.512 129.208 103.431C128.337 103.374 127.454 103.351 126.559 103.328C119.272 103.451 111.997 103.995 104.772 104.956C103.408 105.128 102.02 105.323 100.667 105.553C99.3141 105.782 98.2019 105.988 97.0437 106.218C91.7346 107.261 87.7441 108.396 87.7441 108.396Z" fill="#4B0082"/>
<path opacity="0.2" d="M87.7441 108.396C98.0643 144.872 96.3901 183.573 97.0323 191.439L148.358 189.513C157.084 135.137 141.478 104.876 141.478 104.876C141.478 104.876 138.187 104.245 133.703 103.787C132.304 103.638 130.791 103.512 129.208 103.431C128.337 103.374 127.454 103.351 126.559 103.328C119.272 103.451 111.997 103.995 104.772 104.956C103.408 105.128 102.02 105.323 100.667 105.553C99.3141 105.782 98.2019 105.988 97.0437 106.218C91.7346 107.261 87.7441 108.396 87.7441 108.396Z" fill="black"/>
<path opacity="0.2" d="M98.672 124.048C99.5894 127.568 98.5344 143.679 94.8536 147.647C94.349 142.486 93.7069 137.109 92.7896 131.593L98.672 124.048Z" fill="black"/>
<path d="M105.059 80.3252C106.951 87.2053 109.279 99.9564 104.727 104.99C108.82 108.499 114.118 112.501 122.454 112.169C130.791 111.836 128.922 106.229 126.502 103.373C118.544 102.089 118.315 96.287 119.278 90.76L105.059 80.3252Z" fill="#B55B52"/>
<path d="M122.672 110.941L124.186 111.962L118.659 113.567L120.081 111.01L122.672 110.941Z" fill="#4B0082"/>
<path d="M124.759 110.402L124.186 111.962L129.735 113.567L129.357 110.597L124.759 110.402Z" fill="#4B0082"/>
<path d="M101.413 104.406L103.591 103.317C103.94 103.142 104.33 103.067 104.718 103.099C105.106 103.131 105.478 103.27 105.793 103.5C110.833 107.156 116.595 109.693 122.695 110.942C118.315 113.029 119.393 118.648 119.393 118.648C119.393 118.648 105.461 114.061 101.046 105.736C100.921 105.51 100.889 105.245 100.958 104.996C101.026 104.748 101.19 104.536 101.413 104.406Z" fill="white"/>
<path d="M128.933 102.972L125.733 102.491C125.651 102.477 125.566 102.489 125.49 102.524C125.414 102.558 125.35 102.615 125.306 102.686C125.262 102.757 125.24 102.839 125.242 102.923C125.245 103.007 125.272 103.088 125.321 103.156C126.467 104.75 128.302 108.247 124.759 110.403C129.139 112.49 130.492 117.615 130.492 117.615C130.492 117.615 136.226 111.458 129.552 103.328C129.392 103.142 129.174 103.016 128.933 102.972Z" fill="white"/>
<path opacity="0.2" d="M110.85 84.5225L119.255 90.6457C119.012 91.939 118.885 93.2515 118.877 94.5674C115.861 94.361 111.515 91.3911 110.965 88.2836C110.703 87.0466 110.665 85.773 110.85 84.5225Z" fill="black"/>
<path d="M129.426 66.1185C129.036 69.4553 125.837 72.322 123.773 72.9986L121.193 58.5389C126.984 54.4453 129.965 61.44 129.426 66.1185Z" fill="#263238"/>
<path d="M102.158 70.1203C103.832 79.5002 104.325 85.0845 109.657 89.3845C117.684 95.8518 128.841 90.1757 130.011 80.4863C131.066 71.7601 128.153 57.8852 118.475 55.1905C116.343 54.5873 114.093 54.5387 111.937 55.0495C109.781 55.5602 107.791 56.6134 106.157 58.109C104.522 59.6046 103.297 61.493 102.597 63.5952C101.897 65.6973 101.746 67.9434 102.158 70.1203Z" fill="#B55B52"/>
<path d="M103.947 76.4496C108.293 78.743 110.196 73.5714 110.242 71.4616C110.242 68.1133 108.843 64.4324 107.111 63.0908C115.505 63.0908 132.109 62.678 127.912 54.6856C123.715 46.6933 115.299 47.5991 109.026 51.9795C105.69 54.2728 94.8879 52.2776 97.5596 58.5041C91.9294 61.4969 96.8143 72.6541 103.947 76.4496Z" fill="#263238"/>
<path d="M98.4769 57.9885C96.9804 57.9811 95.5271 57.486 94.3374 56.5781C94.5324 57.4163 94.9969 58.1674 95.6596 58.7163C96.3224 59.2652 97.147 59.5815 98.0068 59.6168L98.4769 57.9885Z" fill="#263238"/>
<path d="M98.6149 77.8376C99.6909 79.9959 101.573 81.6437 103.855 82.4243C106.882 83.399 107.57 80.624 106.837 77.7114C106.172 75.0741 104.75 71.5079 101.665 71.7946C98.5805 72.0812 97.3306 75.2002 98.6149 77.8376Z" fill="#B55B52"/>
<path d="M159.538 291.028C155.639 261.983 148.357 189.513 148.357 189.513L114.668 190.786C114.668 190.786 130.584 263.198 136.34 292.565C142.097 321.931 158.127 392.796 158.127 392.796L173.332 387.063C173.332 387.063 163.608 321.232 159.538 291.028Z" fill="#FFC857"/>
<path opacity="0.2" d="M127.282 210.302C124.507 210.964 121.932 212.281 119.771 214.143C122.959 228.786 127.121 248.062 130.699 265.044C133.084 250.332 133.153 222.571 127.282 210.302Z" fill="black"/>
<path d="M130.16 190.2C130.16 190.2 122.993 268.817 119.714 296.75C116.125 327.355 111.687 391.488 111.687 391.488H94.028C94.028 391.488 93.3056 334.762 95.5875 304.811C98.1905 270.697 97.0209 191.439 97.0209 191.439L130.16 190.2Z" fill="#FFC857"/>
<path d="M113.98 391.867H93.2712L92.8354 385.675L115.953 385.273L113.98 391.867Z" fill="#F1A34F"/>
<path d="M175.316 386.661L157.198 393.53L154.985 387.682L175.121 379.689L175.316 386.661Z" fill="#F1A34F"/>
<path d="M116.801 71.1519C116.881 71.9316 117.363 72.5049 117.867 72.4476C118.372 72.3903 118.704 71.7137 118.613 70.9455C118.521 70.1772 118.051 69.6038 117.546 69.6612C117.042 69.7185 116.709 70.3377 116.801 71.1519Z" fill="#263238"/>
<path d="M125.493 70.1086C125.584 70.8768 126.066 71.4502 126.559 71.3929C127.052 71.3355 127.408 70.6704 127.316 69.9022C127.224 69.1339 126.743 68.5491 126.238 68.6064C125.734 68.6638 125.401 69.3403 125.493 70.1086Z" fill="#263238"/>
<path d="M122.775 70.8076C123.961 73.0536 125.451 75.1256 127.202 76.9653C126.725 77.4087 126.156 77.7414 125.535 77.9396C124.915 78.1378 124.258 78.1967 123.612 78.112L122.775 70.8076Z" fill="#A02724"/>
<path d="M120.608 80.5091C119.737 80.507 118.876 80.3269 118.077 79.9799C117.279 79.6328 116.56 79.1261 115.964 78.4909C115.942 78.4681 115.924 78.4408 115.913 78.4109C115.902 78.381 115.897 78.349 115.899 78.3172C115.901 78.2853 115.91 78.2542 115.924 78.2258C115.939 78.1974 115.959 78.1724 115.984 78.1524C116.009 78.1323 116.038 78.1177 116.069 78.1094C116.1 78.1011 116.132 78.0994 116.163 78.1043C116.195 78.1091 116.225 78.1206 116.252 78.1378C116.279 78.155 116.302 78.1776 116.319 78.2043C116.99 78.8957 117.813 79.4199 118.724 79.7346C119.634 80.0493 120.605 80.1457 121.56 80.016C121.589 80.0112 121.619 80.0124 121.648 80.0198C121.677 80.0271 121.705 80.0403 121.728 80.0586C121.752 80.0769 121.772 80.0999 121.786 80.1261C121.8 80.1523 121.809 80.1812 121.812 80.211C121.819 80.2701 121.802 80.3294 121.766 80.3765C121.729 80.4236 121.676 80.4547 121.617 80.4632C121.283 80.5063 120.945 80.5217 120.608 80.5091Z" fill="#263238"/>
<path d="M113.797 68.6065C113.722 68.6288 113.642 68.6288 113.567 68.6065C113.515 68.5769 113.47 68.5373 113.434 68.4899C113.398 68.4425 113.372 68.3884 113.357 68.3307C113.342 68.273 113.338 68.2129 113.347 68.154C113.356 68.095 113.376 68.0383 113.407 67.9873C113.756 67.3589 114.251 66.8229 114.849 66.4241C115.447 66.0252 116.132 65.7749 116.847 65.694C116.907 65.6909 116.967 65.6997 117.024 65.7199C117.081 65.7402 117.133 65.7714 117.178 65.8119C117.223 65.8524 117.259 65.9013 117.285 65.9558C117.311 66.0104 117.325 66.0694 117.328 66.1297C117.331 66.1894 117.322 66.2491 117.302 66.3052C117.282 66.3614 117.25 66.4129 117.21 66.4568C117.169 66.5006 117.12 66.5358 117.066 66.5604C117.011 66.585 116.952 66.5984 116.893 66.5998C116.325 66.6718 115.782 66.8764 115.308 67.1971C114.833 67.5178 114.442 67.9457 114.163 68.446C114.121 68.5017 114.065 68.5457 114.001 68.5737C113.937 68.6018 113.866 68.6131 113.797 68.6065Z" fill="#263238"/>
<path d="M128.898 66.6916C128.822 66.6886 128.748 66.6673 128.682 66.6293C128.616 66.5914 128.561 66.538 128.52 66.4738C128.229 65.9817 127.824 65.5666 127.339 65.2634C126.854 64.9601 126.304 64.7775 125.734 64.7308C125.612 64.7308 125.495 64.6825 125.409 64.5965C125.323 64.5105 125.275 64.3938 125.275 64.2722C125.275 64.1505 125.323 64.0338 125.409 63.9478C125.495 63.8618 125.612 63.8135 125.734 63.8135C126.454 63.8717 127.151 64.0995 127.766 64.4781C128.382 64.8567 128.9 65.3755 129.277 65.9922C129.309 66.0418 129.33 66.0972 129.341 66.1553C129.351 66.2133 129.35 66.2728 129.337 66.3304C129.324 66.3879 129.3 66.4424 129.266 66.4906C129.232 66.5388 129.189 66.5799 129.139 66.6114C129.069 66.6614 128.985 66.6894 128.898 66.6916Z" fill="#263238"/>
<path d="M110.746 405.042C109.892 405.021 109.042 404.905 108.212 404.698C108.169 404.688 108.129 404.665 108.099 404.632C108.068 404.6 108.048 404.559 108.04 404.515C108.029 404.472 108.031 404.426 108.048 404.385C108.064 404.344 108.094 404.309 108.132 404.286C108.464 404.068 111.469 402.164 112.558 402.703C112.678 402.764 112.781 402.856 112.855 402.968C112.929 403.081 112.973 403.211 112.982 403.345C113.023 403.565 113.006 403.791 112.934 404.001C112.862 404.212 112.736 404.401 112.57 404.549C112.038 404.922 111.393 405.096 110.746 405.042ZM108.866 404.377C110.506 404.698 111.755 404.641 112.306 404.205C112.416 404.101 112.5 403.971 112.548 403.827C112.596 403.683 112.607 403.529 112.581 403.38C112.581 403.196 112.478 403.139 112.421 403.116C111.813 402.829 110.081 403.689 108.866 404.377Z" fill="#4B0082"/>
<path d="M108.27 404.698C108.228 404.708 108.185 404.708 108.143 404.698C108.109 404.676 108.08 404.645 108.061 404.609C108.041 404.573 108.03 404.533 108.029 404.492C108.029 404.377 108.132 401.602 109.175 400.696C109.301 400.578 109.452 400.49 109.617 400.438C109.782 400.387 109.956 400.373 110.127 400.398C110.301 400.4 110.47 400.46 110.607 400.568C110.744 400.675 110.841 400.825 110.884 400.994C111.136 402.061 109.325 404.171 108.35 404.71C108.323 404.713 108.295 404.709 108.27 404.698ZM110.013 400.811C109.826 400.812 109.647 400.882 109.508 401.006C108.874 401.884 108.529 402.938 108.522 404.022C109.474 403.265 110.609 401.728 110.46 401.04C110.46 400.983 110.46 400.857 110.116 400.811H110.013Z" fill="#4B0082"/>
<path d="M174.295 400.788C174.252 400.79 174.21 400.779 174.173 400.757C174.136 400.734 174.107 400.701 174.089 400.662C174.064 400.625 174.051 400.581 174.051 400.536C174.051 400.491 174.064 400.448 174.089 400.41C174.422 400.043 177.334 396.844 178.676 397.039C178.8 397.053 178.919 397.099 179.02 397.174C179.12 397.248 179.199 397.348 179.249 397.463C179.34 397.641 179.387 397.837 179.387 398.036C179.387 398.236 179.34 398.432 179.249 398.61C178.596 399.848 175.889 400.479 174.33 400.731L174.295 400.788ZM178.527 397.486C177.758 397.486 176.084 398.988 174.915 400.215C177.025 399.791 178.469 399.137 178.836 398.438C178.899 398.317 178.931 398.184 178.931 398.048C178.931 397.912 178.899 397.779 178.836 397.658C178.819 397.613 178.789 397.573 178.751 397.543C178.712 397.512 178.667 397.493 178.618 397.486H178.527Z" fill="#4B0082"/>
<path d="M174.296 400.788H174.227C174.188 400.777 174.153 400.757 174.125 400.729C174.097 400.7 174.077 400.665 174.066 400.627C174.066 400.524 173.367 398.013 174.146 396.637C174.257 396.439 174.406 396.266 174.585 396.128C174.765 395.99 174.971 395.89 175.19 395.834C175.798 395.662 176.073 395.903 176.211 396.121C176.761 397.072 175.351 399.836 174.445 400.707C174.428 400.732 174.406 400.752 174.38 400.766C174.354 400.78 174.325 400.787 174.296 400.788ZM175.545 396.201H175.305C175.143 396.239 174.991 396.313 174.861 396.416C174.73 396.519 174.623 396.649 174.548 396.797C174.168 397.831 174.12 398.957 174.41 400.019C175.259 398.873 176.142 396.854 175.809 396.281C175.763 396.304 175.706 396.212 175.511 396.224L175.545 396.201Z" fill="#4B0082"/>
<path d="M98.2936 121.973C95.4154 127.902 92.4799 134.025 89.6362 140.056C88.2257 143.095 86.8039 146.122 85.4737 149.161L83.4785 153.748L82.5612 156.007L82.3318 156.58L82.1598 157.004C82.0451 157.268 81.9649 157.555 81.8617 157.818C81.1502 160.078 81.0239 162.48 81.4947 164.802C82.0566 167.497 83.0767 170.077 84.5105 172.427C86.089 175.058 87.9168 177.531 89.9687 179.812C91.0122 180.958 92.113 182.174 93.2597 183.252C93.833 183.802 94.4064 184.399 95.0141 184.892C95.6218 185.385 96.2296 186.038 96.7341 186.44L92.8813 192.574C91.2243 191.732 89.6198 190.79 88.0767 189.754C86.5516 188.756 85.0609 187.701 83.6161 186.554C80.6404 184.197 77.947 181.503 75.5893 178.528C73.0212 175.333 71.0586 171.695 69.7986 167.795C68.4571 163.493 68.2634 158.916 69.2367 154.516C69.3858 153.977 69.5005 153.369 69.6725 152.888L70.1197 151.466L70.9223 148.932C71.4957 147.269 72.069 145.595 72.6653 143.955C73.8693 140.664 75.1307 137.408 76.4952 134.197C79.1211 127.798 82.0681 121.606 85.3476 115.334L98.2936 121.973Z" fill="#B65B52"/>
<path d="M87.7443 108.396C78.9836 111.136 70.3721 140.847 70.3721 140.847L90.588 149.722C90.588 149.722 97.147 135.366 100.908 124.117C105.071 111.859 98.3511 105.07 87.7443 108.396Z" fill="#4B0082"/>
<path opacity="0.2" d="M87.7443 108.396C78.9836 111.136 70.3721 140.847 70.3721 140.847L90.588 149.722C90.588 149.722 97.147 135.366 100.908 124.117C105.071 111.859 98.3511 105.07 87.7443 108.396Z" fill="black"/>
<path d="M94.5554 184.582L102.938 189.559L94.7848 197.677C94.7848 197.677 87.7098 192.23 89.8197 187.965L94.5554 184.582Z" fill="#B55B52"/>
<path d="M108.545 197.505L100.128 203.399L94.7847 197.677L102.938 189.559L108.545 197.505Z" fill="#B55B52"/>
<path d="M514.131 182.426L513.731 187.95L514.875 188.033L515.275 182.509L514.131 182.426Z" fill="#4B0082"/>
<path d="M515.642 161.509L514.482 177.532L515.626 177.615L516.786 161.592L515.642 161.509Z" fill="#4B0082"/>
<path d="M484.266 341.768H203.41C201.404 341.792 199.416 341.395 197.572 340.604C195.729 339.813 194.071 338.645 192.706 337.175C191.341 335.706 190.299 333.966 189.646 332.07C188.993 330.173 188.745 328.161 188.916 326.162L203.823 118.842C204.192 114.645 206.1 110.731 209.18 107.855C212.26 104.979 216.294 103.342 220.507 103.259H501.363C503.368 103.234 505.357 103.629 507.2 104.419C509.043 105.209 510.701 106.375 512.066 107.844C513.431 109.313 514.474 111.052 515.127 112.948C515.78 114.844 516.029 116.856 515.857 118.854L500.95 326.174C500.583 330.373 498.677 334.289 495.597 337.168C492.517 340.047 488.481 341.685 484.266 341.768Z" fill="#4B0082"/>
<path d="M418.94 414.284H327.767L311.519 301.623H402.691L418.94 414.284Z" fill="#4B0082"/>
<path d="M404.457 407.564H305.843L303.882 414.284H402.508L404.457 407.564Z" fill="#4B0082"/>
<path d="M407.496 355.861L318.639 350.999L311.519 301.623H399.675L407.496 355.861Z" fill="#263238"/>
<path d="M481.101 341.768H200.233C198.225 341.791 196.234 341.392 194.389 340.597C192.544 339.803 190.886 338.63 189.523 337.155C188.159 335.68 187.12 333.936 186.472 332.034C185.824 330.133 185.583 328.117 185.762 326.116L200.669 118.796C201.049 114.611 202.958 110.712 206.032 107.845C209.106 104.979 213.128 103.346 217.33 103.259H498.198C500.202 103.235 502.189 103.632 504.031 104.422C505.873 105.213 507.53 106.38 508.894 107.848C510.258 109.317 511.299 111.055 511.951 112.95C512.604 114.846 512.852 116.857 512.681 118.854L497.774 326.173C497.41 330.372 495.505 334.288 492.427 337.167C489.349 340.046 485.315 341.685 481.101 341.768Z" fill="#263238"/>
<path d="M511.954 120.798L503.43 239.725L504.528 239.803L513.052 120.877L511.954 120.798Z" fill="white"/>
<path d="M502.729 250.079L499.777 291.266L500.875 291.344L503.827 250.158L502.729 250.079Z" fill="white"/>
<path d="M480.459 337.847H201.38C199.819 337.864 198.271 337.554 196.837 336.938C195.403 336.321 194.114 335.411 193.052 334.266C191.99 333.121 191.18 331.767 190.673 330.291C190.166 328.814 189.974 327.248 190.108 325.692L204.912 119.221C205.197 115.947 206.685 112.894 209.088 110.652C211.492 108.409 214.64 107.136 217.926 107.078H497.051C498.611 107.061 500.158 107.37 501.591 107.986C503.025 108.603 504.313 109.511 505.375 110.655C506.436 111.798 507.247 113.151 507.755 114.626C508.262 116.102 508.456 117.667 508.323 119.221L493.52 325.715C493.23 328.995 491.735 332.052 489.322 334.293C486.91 336.534 483.751 337.8 480.459 337.847Z" fill="white"/>
<path opacity="0.2" d="M480.459 337.847H201.38C199.819 337.864 198.271 337.554 196.837 336.938C195.403 336.321 194.114 335.411 193.052 334.266C191.99 333.121 191.18 331.767 190.673 330.291C190.166 328.814 189.974 327.248 190.108 325.692L204.912 119.221C205.197 115.947 206.685 112.894 209.088 110.652C211.492 108.409 214.64 107.136 217.926 107.078H497.051C498.611 107.061 500.158 107.37 501.591 107.986C503.025 108.603 504.313 109.511 505.375 110.655C506.436 111.798 507.247 113.151 507.755 114.626C508.262 116.102 508.456 117.667 508.323 119.221L493.52 325.715C493.23 328.995 491.735 332.052 489.322 334.293C486.91 336.534 483.751 337.8 480.459 337.847Z" fill="#4B0082"/>
<path opacity="0.5" d="M272.979 328.696H207.801C207.047 328.705 206.299 328.556 205.605 328.259C204.912 327.961 204.289 327.522 203.775 326.969C203.262 326.415 202.871 325.761 202.626 325.047C202.381 324.333 202.289 323.576 202.355 322.825L216.734 122.156C216.87 120.571 217.589 119.094 218.752 118.009C219.915 116.925 221.439 116.31 223.029 116.285H288.206C288.961 116.274 289.71 116.421 290.405 116.718C291.099 117.015 291.723 117.455 292.236 118.008C292.75 118.562 293.141 119.217 293.385 119.931C293.63 120.646 293.721 121.404 293.653 122.156L279.274 322.825C279.135 324.408 278.415 325.884 277.253 326.968C276.09 328.052 274.568 328.668 272.979 328.696Z" fill="white"/>
<path opacity="0.4" d="M270.456 144.539H236.721C236.042 144.546 235.368 144.412 234.744 144.143C234.12 143.875 233.559 143.48 233.097 142.982C232.635 142.484 232.282 141.895 232.061 141.253C231.84 140.611 231.755 139.93 231.813 139.253L232.18 134.081C232.304 132.656 232.952 131.327 233.998 130.351C235.044 129.375 236.414 128.821 237.844 128.795H271.591C272.27 128.788 272.944 128.923 273.568 129.191C274.192 129.459 274.753 129.855 275.215 130.352C275.677 130.85 276.03 131.439 276.251 132.081C276.472 132.723 276.557 133.405 276.499 134.081L276.121 139.253C276.009 140.683 275.365 142.019 274.316 142.998C273.268 143.976 271.89 144.526 270.456 144.539Z" fill="#4B0082"/>
<path d="M249.002 225.724H197.504C196.323 225.74 195.151 225.508 194.065 225.044C192.978 224.58 192 223.894 191.194 223.031C190.388 222.167 189.771 221.145 189.382 220.029C188.994 218.913 188.843 217.729 188.939 216.551L192.642 164.996C192.871 162.518 194.006 160.212 195.83 158.519C197.654 156.826 200.039 155.866 202.527 155.823H254.036C255.216 155.809 256.386 156.042 257.472 156.507C258.557 156.971 259.533 157.657 260.338 158.521C261.143 159.384 261.76 160.406 262.147 161.521C262.535 162.636 262.686 163.82 262.59 164.996L258.898 216.505C258.682 218.994 257.551 221.315 255.723 223.018C253.895 224.721 251.5 225.685 249.002 225.724Z" fill="#4B0082"/>
<path d="M256.386 183.526C255.435 183.546 254.525 183.916 253.831 184.566C253.136 185.216 252.707 186.099 252.625 187.047L252.086 194.523C252.047 194.973 252.104 195.426 252.251 195.854C252.398 196.281 252.634 196.672 252.942 197.003C253.249 197.333 253.623 197.596 254.039 197.773C254.454 197.95 254.902 198.038 255.354 198.032H260.583C260.819 198.03 261.045 197.939 261.217 197.777C261.389 197.616 261.494 197.396 261.512 197.161L262.429 184.398C262.439 184.286 262.425 184.173 262.388 184.067C262.351 183.961 262.293 183.863 262.216 183.781C262.139 183.699 262.046 183.634 261.942 183.59C261.839 183.546 261.727 183.524 261.615 183.526H256.386Z" fill="white"/>
<path d="M236.514 168.883H204.109C203.928 168.886 203.748 168.85 203.582 168.779C203.415 168.707 203.265 168.602 203.142 168.469C203.019 168.336 202.925 168.178 202.867 168.007C202.808 167.835 202.786 167.654 202.802 167.473C202.833 167.092 203.006 166.736 203.286 166.475C203.566 166.214 203.933 166.067 204.316 166.063H236.778C236.959 166.06 237.139 166.096 237.306 166.167C237.472 166.239 237.622 166.345 237.745 166.477C237.868 166.61 237.962 166.768 238.021 166.939C238.079 167.111 238.101 167.292 238.085 167.473C238.051 167.863 237.869 168.226 237.578 168.488C237.286 168.749 236.906 168.891 236.514 168.883Z" fill="white"/>
<path d="M236.01 176.05H203.536C203.355 176.052 203.175 176.017 203.008 175.945C202.842 175.874 202.692 175.768 202.569 175.635C202.446 175.502 202.352 175.345 202.293 175.173C202.235 175.002 202.213 174.82 202.229 174.639C202.263 174.26 202.437 173.907 202.716 173.649C202.996 173.39 203.362 173.245 203.742 173.241H236.216C236.397 173.237 236.576 173.271 236.743 173.341C236.91 173.411 237.059 173.516 237.183 173.648C237.306 173.78 237.4 173.936 237.459 174.107C237.518 174.278 237.54 174.46 237.524 174.639C237.492 175.021 237.32 175.377 237.04 175.638C236.76 175.898 236.393 176.045 236.01 176.05Z" fill="white"/>
<path d="M224.268 183.228H203.02C202.839 183.229 202.66 183.192 202.494 183.12C202.329 183.048 202.18 182.942 202.057 182.81C201.934 182.677 201.84 182.52 201.781 182.35C201.722 182.179 201.698 181.998 201.713 181.818C201.744 181.436 201.916 181.08 202.196 180.82C202.476 180.559 202.844 180.412 203.226 180.407H224.474C224.655 180.405 224.835 180.441 225.002 180.512C225.168 180.584 225.318 180.689 225.441 180.822C225.564 180.955 225.658 181.112 225.717 181.284C225.775 181.455 225.797 181.637 225.781 181.818C225.747 182.198 225.574 182.553 225.295 182.813C225.015 183.073 224.65 183.221 224.268 183.228Z" fill="white"/>
<path opacity="0.5" d="M236.606 217.399H205.256C204.481 217.409 203.713 217.256 203 216.95C202.288 216.644 201.648 216.193 201.12 215.625C200.593 215.056 200.191 214.384 199.94 213.651C199.688 212.918 199.593 212.14 199.66 211.368L200.807 194.867C200.946 193.242 201.683 191.727 202.876 190.614C204.069 189.502 205.632 188.872 207.263 188.847H238.67C239.444 188.838 240.212 188.991 240.923 189.296C241.634 189.601 242.274 190.051 242.801 190.618C243.328 191.185 243.731 191.856 243.983 192.588C244.235 193.319 244.332 194.096 244.266 194.867L243.119 211.368C242.977 213.003 242.231 214.526 241.027 215.641C239.823 216.756 238.247 217.383 236.606 217.399Z" fill="white"/>
<path opacity="0.4" d="M265.926 245.011H226.848C226.511 245.016 226.178 244.95 225.869 244.817C225.559 244.685 225.281 244.489 225.052 244.243C224.823 243.997 224.648 243.705 224.539 243.387C224.429 243.069 224.388 242.732 224.417 242.397C224.479 241.691 224.8 241.033 225.319 240.55C225.838 240.067 226.517 239.794 227.226 239.782H266.305C266.64 239.779 266.972 239.847 267.28 239.98C267.588 240.113 267.865 240.309 268.092 240.555C268.32 240.801 268.494 241.092 268.603 241.409C268.712 241.726 268.753 242.063 268.724 242.397C268.665 243.102 268.346 243.759 267.829 244.243C267.312 244.726 266.634 244.999 265.926 245.011Z" fill="#4B0082"/>
<path opacity="0.8" d="M258.003 255.274H233.258C232.921 255.278 232.588 255.212 232.279 255.08C231.97 254.948 231.691 254.752 231.462 254.506C231.233 254.26 231.059 253.968 230.949 253.65C230.84 253.332 230.798 252.995 230.827 252.66C230.886 251.955 231.206 251.297 231.722 250.814C232.239 250.331 232.917 250.057 233.625 250.045H258.427C258.763 250.041 259.096 250.107 259.405 250.239C259.714 250.371 259.991 250.567 260.219 250.814C260.447 251.06 260.621 251.352 260.729 251.67C260.837 251.988 260.877 252.325 260.847 252.66C260.786 253.372 260.461 254.037 259.934 254.521C259.408 255.005 258.718 255.274 258.003 255.274Z" fill="white"/>
<path opacity="0.4" d="M263.897 273.323H224.818C224.482 273.325 224.15 273.258 223.841 273.125C223.533 272.992 223.256 272.797 223.027 272.551C222.798 272.305 222.623 272.014 222.513 271.697C222.403 271.38 222.36 271.043 222.387 270.708C222.45 270.002 222.771 269.344 223.29 268.862C223.809 268.379 224.488 268.105 225.197 268.094H264.275C264.611 268.091 264.943 268.158 265.251 268.291C265.559 268.424 265.835 268.62 266.063 268.866C266.291 269.112 266.465 269.403 266.574 269.721C266.682 270.038 266.724 270.374 266.695 270.708C266.635 271.413 266.316 272.071 265.799 272.554C265.282 273.037 264.604 273.311 263.897 273.323Z" fill="#4B0082"/>
<path opacity="0.8" d="M256.019 283.574H231.228C230.892 283.58 230.559 283.516 230.25 283.385C229.941 283.254 229.662 283.059 229.433 282.814C229.204 282.568 229.029 282.277 228.919 281.96C228.81 281.643 228.768 281.306 228.797 280.971C228.857 280.26 229.181 279.598 229.705 279.114C230.23 278.63 230.916 278.36 231.629 278.357H256.398C256.734 278.352 257.067 278.418 257.377 278.551C257.686 278.683 257.964 278.878 258.193 279.125C258.422 279.371 258.597 279.663 258.706 279.981C258.816 280.299 258.857 280.636 258.829 280.971C258.766 281.676 258.444 282.333 257.925 282.813C257.406 283.294 256.727 283.565 256.019 283.574Z" fill="white"/>
<path opacity="0.4" d="M261.867 301.634H222.788C222.453 301.637 222.12 301.57 221.812 301.437C221.503 301.304 221.226 301.108 220.997 300.862C220.769 300.617 220.594 300.326 220.483 300.009C220.373 299.691 220.33 299.355 220.357 299.02C220.417 298.313 220.738 297.654 221.257 297.17C221.777 296.687 222.457 296.414 223.167 296.405H262.246C262.582 296.401 262.915 296.467 263.223 296.599C263.532 296.732 263.809 296.928 264.038 297.174C264.266 297.421 264.439 297.712 264.548 298.03C264.656 298.348 264.696 298.685 264.665 299.02C264.606 299.725 264.286 300.383 263.77 300.866C263.253 301.349 262.575 301.623 261.867 301.634Z" fill="#4B0082"/>
<path opacity="0.8" d="M253.99 311.886H229.199C228.862 311.891 228.529 311.825 228.22 311.692C227.91 311.56 227.632 311.364 227.403 311.118C227.174 310.872 226.999 310.58 226.89 310.262C226.78 309.944 226.739 309.607 226.768 309.272C226.83 308.568 227.15 307.911 227.666 307.429C228.182 306.946 228.859 306.672 229.566 306.657H254.368C254.704 306.655 255.037 306.722 255.345 306.855C255.653 306.988 255.931 307.183 256.159 307.429C256.388 307.675 256.563 307.966 256.673 308.283C256.783 308.6 256.826 308.937 256.799 309.272C256.739 309.979 256.419 310.638 255.899 311.121C255.38 311.605 254.699 311.877 253.99 311.886Z" fill="white"/>
<path opacity="0.5" d="M483.532 269.837C485.229 267.246 489.116 268.335 488.898 271.328L485.137 323.8C484.942 326.495 482.901 328.696 480.551 328.696H291.566C289.273 328.696 287.53 326.495 287.725 323.8L290.018 292.622C290.095 291.63 290.389 290.668 290.881 289.803C291.372 288.939 292.048 288.194 292.861 287.621C293.674 287.048 294.603 286.662 295.582 286.489C296.562 286.317 297.567 286.363 298.527 286.625C309.179 289.938 318.307 287.989 326.792 283.781C344.933 274.779 360.115 255.446 380.973 255.446C381.776 255.446 382.567 255.446 383.335 255.515C414.364 257.384 423.813 295.936 447.847 295.936C454.957 295.936 461.435 292.862 467.089 288.494C473.946 283.139 479.599 275.834 483.532 269.837Z" fill="#4B0082"/>
<path opacity="0.5" d="M487.454 291.452L485.16 323.8C484.965 326.495 482.924 328.697 480.574 328.697H291.566C289.273 328.697 287.53 326.495 287.725 323.8L292.312 259.517C292.621 255.114 298.389 253.257 300.728 256.823C306.76 265.996 316.036 277.91 326.712 283.781C330.592 286.046 334.983 287.289 339.475 287.393C354.748 287.393 367.74 269.287 383.255 255.515C392.761 247.076 403.218 240.265 415.729 240.265C441.839 240.265 445.691 282.692 467.008 288.494C471.113 289.641 475.872 289.377 481.56 287.198C482.232 286.908 482.969 286.796 483.697 286.876C484.426 286.955 485.121 287.222 485.715 287.651C486.309 288.08 486.782 288.656 487.086 289.322C487.391 289.988 487.518 290.723 487.454 291.452Z" fill="#4B0082"/>
<g opacity="0.8">
<path d="M488.382 278.907C488.28 278.903 488.182 278.862 488.107 278.792C488.07 278.757 488.043 278.714 488.027 278.666C488.016 278.617 488.016 278.566 488.027 278.517C488.026 278.466 488.036 278.415 488.056 278.367C488.076 278.32 488.105 278.277 488.142 278.242C488.215 278.169 488.314 278.128 488.417 278.128C488.52 278.128 488.619 278.169 488.692 278.242C488.73 278.276 488.76 278.319 488.78 278.367C488.799 278.414 488.809 278.465 488.807 278.517C488.812 278.566 488.812 278.616 488.807 278.666C488.783 278.712 488.752 278.755 488.715 278.792C488.672 278.835 488.62 278.868 488.562 278.888C488.504 278.908 488.443 278.914 488.382 278.907Z" fill="white"/>
<path d="M304.604 305.774C304.501 305.774 304.402 305.733 304.329 305.66C304.255 305.587 304.214 305.487 304.214 305.384C304.217 305.283 304.26 305.186 304.332 305.116C304.405 305.045 304.503 305.006 304.604 305.006C304.708 305.006 304.807 305.047 304.88 305.12C304.953 305.193 304.994 305.292 304.994 305.395C304.994 305.5 304.953 305.6 304.881 305.675C304.808 305.75 304.709 305.794 304.604 305.797V305.774ZM300.671 305.556C300.619 305.553 300.568 305.54 300.522 305.517C300.476 305.493 300.434 305.461 300.401 305.421C300.368 305.381 300.343 305.335 300.328 305.285C300.314 305.236 300.309 305.183 300.316 305.132C300.321 305.08 300.337 305.031 300.362 304.986C300.387 304.94 300.421 304.901 300.462 304.869C300.502 304.837 300.549 304.813 300.598 304.799C300.648 304.785 300.7 304.781 300.751 304.788C300.853 304.799 300.946 304.85 301.01 304.93C301.074 305.009 301.105 305.11 301.095 305.212C301.084 305.308 301.039 305.397 300.967 305.463C300.895 305.528 300.802 305.565 300.705 305.567L300.671 305.556ZM308.09 305.212C308.084 305.161 308.088 305.109 308.101 305.059C308.115 305.009 308.139 304.963 308.171 304.922C308.203 304.882 308.243 304.848 308.288 304.823C308.333 304.798 308.383 304.782 308.434 304.776C308.485 304.77 308.537 304.774 308.587 304.788C308.637 304.802 308.683 304.825 308.724 304.857C308.764 304.889 308.798 304.929 308.823 304.974C308.848 305.019 308.864 305.069 308.87 305.12C308.876 305.172 308.872 305.224 308.858 305.273C308.845 305.323 308.821 305.37 308.789 305.41C308.757 305.451 308.717 305.484 308.672 305.509C308.627 305.535 308.577 305.55 308.526 305.556C308.475 305.562 308.423 305.559 308.373 305.545C308.323 305.531 308.277 305.507 308.236 305.475C308.195 305.443 308.162 305.403 308.137 305.358C308.112 305.313 308.096 305.263 308.09 305.212ZM296.795 304.96C296.694 304.935 296.605 304.873 296.548 304.786C296.49 304.698 296.468 304.593 296.486 304.49C296.51 304.388 296.573 304.3 296.66 304.242C296.747 304.185 296.853 304.163 296.956 304.18C297.057 304.205 297.146 304.267 297.203 304.354C297.261 304.441 297.283 304.547 297.265 304.65C297.245 304.738 297.195 304.817 297.124 304.873C297.054 304.929 296.966 304.96 296.876 304.96H296.795ZM311.92 304.57C311.906 304.519 311.903 304.467 311.91 304.415C311.917 304.363 311.934 304.313 311.961 304.268C311.988 304.223 312.023 304.184 312.066 304.153C312.108 304.122 312.156 304.1 312.207 304.088C312.307 304.067 312.411 304.085 312.499 304.138C312.586 304.192 312.65 304.276 312.677 304.375C312.701 304.477 312.685 304.584 312.631 304.674C312.578 304.764 312.491 304.83 312.39 304.857H312.298C312.208 304.865 312.118 304.84 312.045 304.788C311.971 304.735 311.919 304.658 311.897 304.57H311.92ZM437.332 304.73C437.229 304.73 437.13 304.689 437.057 304.616C436.984 304.543 436.942 304.444 436.942 304.341C436.942 304.237 436.984 304.138 437.057 304.065C437.13 303.992 437.229 303.951 437.332 303.951C437.436 303.951 437.535 303.992 437.608 304.065C437.681 304.138 437.722 304.237 437.722 304.341C437.722 304.444 437.681 304.543 437.608 304.616C437.535 304.689 437.436 304.73 437.332 304.73ZM440.83 304.18C440.823 304.129 440.827 304.078 440.841 304.029C440.855 303.98 440.879 303.934 440.911 303.895C440.943 303.855 440.983 303.822 441.028 303.798C441.073 303.774 441.123 303.76 441.174 303.756C441.225 303.748 441.278 303.75 441.328 303.764C441.379 303.777 441.426 303.8 441.467 303.833C441.508 303.865 441.541 303.905 441.566 303.951C441.591 303.997 441.605 304.048 441.609 304.1C441.619 304.204 441.587 304.309 441.521 304.39C441.454 304.472 441.359 304.524 441.254 304.535C441.151 304.542 441.05 304.509 440.971 304.443C440.892 304.376 440.841 304.282 440.83 304.18ZM433.411 304.49C433.36 304.484 433.311 304.468 433.266 304.443C433.221 304.418 433.182 304.384 433.151 304.343C433.12 304.302 433.097 304.256 433.085 304.206C433.072 304.156 433.07 304.104 433.078 304.054C433.084 304.003 433.1 303.953 433.125 303.908C433.15 303.862 433.184 303.823 433.224 303.791C433.265 303.759 433.311 303.735 433.361 303.721C433.411 303.707 433.463 303.703 433.514 303.71C433.616 303.724 433.709 303.777 433.773 303.859C433.838 303.94 433.868 304.043 433.858 304.146C433.847 304.242 433.801 304.331 433.73 304.396C433.658 304.462 433.565 304.499 433.468 304.501L433.411 304.49ZM292.988 304.019C292.938 304.006 292.892 303.983 292.851 303.952C292.81 303.92 292.776 303.881 292.75 303.836C292.725 303.791 292.708 303.742 292.702 303.691C292.695 303.64 292.699 303.588 292.713 303.538C292.745 303.438 292.814 303.354 292.905 303.303C292.997 303.252 293.104 303.237 293.206 303.263C293.306 303.294 293.389 303.364 293.438 303.456C293.487 303.548 293.499 303.655 293.47 303.756C293.447 303.837 293.397 303.909 293.328 303.959C293.26 304.009 293.176 304.034 293.092 304.031H292.988V304.019ZM444.683 303.641C444.671 303.59 444.67 303.538 444.679 303.487C444.689 303.436 444.709 303.387 444.738 303.344C444.767 303.301 444.804 303.265 444.848 303.237C444.892 303.209 444.941 303.191 444.992 303.182C445.043 303.172 445.095 303.172 445.145 303.183C445.195 303.193 445.243 303.213 445.286 303.242C445.329 303.27 445.365 303.307 445.393 303.35C445.422 303.393 445.441 303.441 445.451 303.492C445.461 303.542 445.461 303.594 445.451 303.645C445.44 303.695 445.42 303.743 445.392 303.786C445.363 303.828 445.326 303.865 445.283 303.893C445.24 303.922 445.192 303.941 445.141 303.951H445.072C444.982 303.95 444.894 303.92 444.824 303.864C444.753 303.807 444.703 303.729 444.683 303.641ZM429.558 303.779C429.507 303.77 429.458 303.75 429.415 303.72C429.372 303.691 429.335 303.653 429.308 303.608C429.281 303.564 429.264 303.514 429.258 303.462C429.251 303.411 429.256 303.358 429.271 303.309C429.296 303.208 429.359 303.122 429.447 303.068C429.535 303.014 429.641 302.998 429.741 303.022C429.842 303.046 429.928 303.11 429.982 303.198C430.036 303.286 430.052 303.392 430.028 303.492C430.007 303.577 429.959 303.652 429.89 303.706C429.822 303.761 429.737 303.79 429.65 303.79H429.558V303.779ZM315.635 303.458C315.615 303.41 315.605 303.358 315.606 303.306C315.607 303.254 315.618 303.203 315.64 303.155C315.662 303.108 315.693 303.066 315.731 303.031C315.77 302.996 315.815 302.97 315.865 302.953C315.96 302.915 316.067 302.917 316.162 302.958C316.256 302.999 316.331 303.075 316.369 303.171C316.387 303.219 316.396 303.27 316.394 303.322C316.393 303.373 316.381 303.424 316.36 303.471C316.338 303.518 316.308 303.56 316.27 303.595C316.232 303.63 316.188 303.658 316.14 303.675C316.094 303.686 316.047 303.686 316.002 303.675C315.927 303.677 315.852 303.658 315.787 303.619C315.722 303.581 315.67 303.525 315.635 303.458ZM448.478 302.781C448.462 302.731 448.457 302.678 448.463 302.625C448.468 302.572 448.484 302.522 448.51 302.476C448.536 302.429 448.571 302.389 448.612 302.357C448.654 302.325 448.702 302.301 448.753 302.288C448.803 302.274 448.855 302.27 448.906 302.277C448.957 302.283 449.007 302.299 449.052 302.325C449.096 302.351 449.136 302.385 449.167 302.426C449.199 302.467 449.222 302.513 449.235 302.563C449.249 302.613 449.253 302.665 449.246 302.716C449.24 302.767 449.224 302.817 449.198 302.861C449.172 302.906 449.138 302.946 449.097 302.977C449.056 303.008 449.01 303.032 448.96 303.045H448.857C448.774 303.047 448.692 303.022 448.624 302.975C448.556 302.927 448.505 302.86 448.478 302.781ZM425.797 302.643C425.7 302.61 425.62 302.539 425.575 302.446C425.53 302.354 425.523 302.248 425.556 302.15C425.592 302.053 425.665 301.973 425.759 301.928C425.854 301.883 425.962 301.876 426.061 301.91C426.158 301.946 426.238 302.019 426.283 302.113C426.328 302.207 426.335 302.315 426.301 302.414C426.271 302.489 426.219 302.554 426.151 302.599C426.084 302.644 426.004 302.668 425.923 302.666C425.88 302.671 425.836 302.663 425.797 302.643ZM319.156 301.91C319.132 301.864 319.118 301.814 319.113 301.762C319.109 301.711 319.115 301.659 319.131 301.61C319.147 301.561 319.173 301.515 319.207 301.476C319.24 301.437 319.281 301.405 319.328 301.382C319.422 301.338 319.53 301.333 319.628 301.367C319.727 301.401 319.808 301.472 319.855 301.566C319.878 301.611 319.893 301.66 319.897 301.71C319.901 301.761 319.894 301.812 319.878 301.86C319.862 301.908 319.837 301.953 319.803 301.991C319.77 302.029 319.729 302.06 319.683 302.082C319.623 302.099 319.559 302.099 319.5 302.082C319.44 302.078 319.382 302.06 319.33 302.03C319.279 302 319.235 301.959 319.201 301.91H319.156ZM452.17 301.634C452.152 301.587 452.144 301.536 452.146 301.486C452.147 301.435 452.159 301.385 452.181 301.339C452.202 301.293 452.232 301.252 452.27 301.218C452.308 301.184 452.352 301.158 452.4 301.141C452.497 301.111 452.602 301.12 452.694 301.164C452.785 301.209 452.857 301.287 452.893 301.382C452.926 301.481 452.92 301.589 452.875 301.683C452.83 301.777 452.75 301.85 452.652 301.887H452.526C452.454 301.878 452.386 301.85 452.33 301.806C452.273 301.761 452.23 301.702 452.205 301.634H452.17ZM422.139 301.153C422.092 301.132 422.05 301.102 422.015 301.064C421.98 301.027 421.953 300.983 421.934 300.935C421.916 300.887 421.908 300.836 421.91 300.785C421.911 300.734 421.923 300.683 421.944 300.637C421.989 300.544 422.067 300.473 422.163 300.437C422.259 300.4 422.365 300.402 422.46 300.442C422.508 300.463 422.551 300.493 422.588 300.531C422.624 300.57 422.652 300.615 422.67 300.664C422.688 300.713 422.696 300.766 422.693 300.818C422.691 300.871 422.678 300.922 422.655 300.969C422.623 301.037 422.573 301.094 422.51 301.135C422.447 301.175 422.374 301.197 422.299 301.199C422.254 301.194 422.211 301.179 422.173 301.153H422.139ZM455.805 300.258C455.785 300.211 455.775 300.16 455.775 300.109C455.775 300.057 455.785 300.006 455.806 299.959C455.826 299.912 455.856 299.869 455.893 299.834C455.931 299.799 455.975 299.771 456.023 299.754C456.07 299.731 456.12 299.719 456.171 299.718C456.223 299.716 456.274 299.725 456.321 299.745C456.369 299.764 456.412 299.793 456.447 299.831C456.483 299.868 456.51 299.912 456.528 299.96C456.549 300.008 456.56 300.059 456.561 300.11C456.561 300.162 456.552 300.213 456.533 300.261C456.513 300.309 456.485 300.353 456.449 300.39C456.412 300.427 456.369 300.456 456.321 300.476C456.272 300.487 456.221 300.487 456.172 300.476C456.103 300.472 456.035 300.45 455.977 300.411C455.919 300.373 455.872 300.32 455.84 300.258H455.805ZM322.561 300.029C322.505 299.939 322.487 299.831 322.511 299.728C322.535 299.625 322.598 299.535 322.687 299.479C322.731 299.451 322.78 299.433 322.83 299.424C322.881 299.416 322.933 299.418 322.983 299.429C323.033 299.441 323.08 299.463 323.122 299.493C323.164 299.523 323.199 299.561 323.226 299.605C323.254 299.648 323.272 299.697 323.28 299.748C323.289 299.798 323.287 299.85 323.275 299.9C323.264 299.951 323.242 299.998 323.212 300.04C323.182 300.081 323.144 300.117 323.1 300.144C323.041 300.188 322.968 300.212 322.894 300.212C322.834 300.206 322.776 300.186 322.724 300.154C322.673 300.122 322.629 300.08 322.596 300.029H322.561ZM418.641 299.398C418.549 299.347 418.481 299.262 418.451 299.162C418.421 299.061 418.432 298.952 418.481 298.859C418.534 298.769 418.62 298.703 418.72 298.676C418.821 298.648 418.928 298.66 419.02 298.71C419.109 298.761 419.175 298.845 419.203 298.943C419.231 299.042 419.219 299.148 419.169 299.238C419.135 299.299 419.085 299.351 419.025 299.387C418.964 299.423 418.895 299.443 418.825 299.444C418.773 299.436 418.723 299.421 418.676 299.398H418.641ZM459.372 298.687C459.328 298.595 459.323 298.488 459.357 298.392C459.392 298.295 459.463 298.216 459.555 298.171C459.65 298.128 459.757 298.122 459.856 298.156C459.954 298.191 460.036 298.262 460.083 298.355C460.104 298.402 460.115 298.452 460.117 298.503C460.119 298.554 460.11 298.605 460.092 298.653C460.074 298.701 460.046 298.745 460.011 298.782C459.976 298.82 459.934 298.85 459.888 298.871H459.716C459.653 298.867 459.592 298.849 459.538 298.817C459.484 298.785 459.439 298.741 459.406 298.687H459.372ZM325.795 297.873C325.736 297.788 325.712 297.682 325.729 297.58C325.746 297.477 325.803 297.385 325.887 297.323C325.971 297.263 326.075 297.237 326.178 297.252C326.281 297.267 326.373 297.321 326.437 297.403C326.496 297.489 326.52 297.594 326.502 297.697C326.485 297.8 326.429 297.892 326.345 297.954C326.278 298.002 326.199 298.03 326.116 298.034C326.059 298.029 326.005 298.012 325.955 297.984C325.906 297.957 325.863 297.919 325.829 297.873H325.795ZM415.236 297.438C415.192 297.412 415.155 297.377 415.125 297.337C415.095 297.296 415.073 297.25 415.061 297.2C415.05 297.151 415.048 297.1 415.056 297.05C415.064 297 415.083 296.953 415.11 296.91C415.133 296.864 415.166 296.824 415.207 296.792C415.247 296.76 415.293 296.737 415.343 296.724C415.393 296.711 415.444 296.709 415.495 296.717C415.546 296.725 415.594 296.744 415.637 296.772C415.682 296.798 415.721 296.833 415.752 296.874C415.784 296.916 415.806 296.963 415.819 297.013C415.832 297.063 415.835 297.115 415.827 297.167C415.819 297.218 415.802 297.267 415.775 297.311C415.74 297.369 415.692 297.417 415.633 297.451C415.575 297.485 415.51 297.504 415.442 297.506C415.389 297.493 415.338 297.47 415.293 297.438H415.236ZM462.835 296.944C462.786 296.853 462.775 296.746 462.806 296.647C462.836 296.549 462.904 296.466 462.995 296.417C463.087 296.371 463.193 296.362 463.291 296.392C463.389 296.422 463.472 296.488 463.523 296.578C463.572 296.67 463.582 296.779 463.552 296.88C463.522 296.981 463.454 297.066 463.362 297.116C463.301 297.127 463.239 297.127 463.179 297.116C463.121 297.111 463.065 297.092 463.016 297.063C462.966 297.033 462.924 296.993 462.892 296.944H462.835ZM328.891 295.523C328.858 295.483 328.834 295.437 328.819 295.388C328.804 295.338 328.8 295.287 328.805 295.235C328.81 295.184 328.826 295.135 328.85 295.089C328.875 295.044 328.908 295.004 328.948 294.972C329.03 294.909 329.132 294.88 329.235 294.891C329.337 294.901 329.432 294.951 329.499 295.029C329.57 295.106 329.609 295.206 329.609 295.31C329.609 295.415 329.57 295.515 329.499 295.591C329.426 295.645 329.337 295.673 329.246 295.672C329.188 295.674 329.13 295.662 329.078 295.636C329.026 295.61 328.981 295.571 328.948 295.523H328.891ZM411.933 295.351C411.847 295.294 411.786 295.206 411.765 295.105C411.743 295.004 411.763 294.898 411.819 294.812C411.877 294.724 411.968 294.663 412.071 294.642C412.173 294.62 412.281 294.64 412.369 294.697C412.453 294.755 412.512 294.843 412.534 294.944C412.555 295.044 412.537 295.148 412.484 295.236C412.449 295.292 412.4 295.339 412.341 295.371C412.283 295.403 412.218 295.42 412.151 295.419C412.094 295.407 412.04 295.383 411.991 295.351H411.933ZM466.24 295.064C466.213 295.02 466.196 294.97 466.188 294.919C466.18 294.868 466.183 294.816 466.196 294.766C466.209 294.715 466.231 294.668 466.263 294.627C466.294 294.586 466.333 294.551 466.378 294.525C466.468 294.474 466.574 294.46 466.675 294.485C466.775 294.511 466.862 294.574 466.917 294.663C466.968 294.753 466.982 294.859 466.956 294.96C466.931 295.06 466.867 295.147 466.779 295.202C466.716 295.236 466.645 295.256 466.573 295.259C466.515 295.249 466.461 295.226 466.413 295.193C466.365 295.159 466.326 295.115 466.298 295.064H466.24ZM408.688 293.183C408.603 293.123 408.544 293.032 408.525 292.929C408.506 292.826 408.527 292.72 408.585 292.633C408.647 292.55 408.738 292.493 408.84 292.474C408.942 292.455 409.048 292.475 409.136 292.53C409.219 292.592 409.276 292.683 409.295 292.785C409.314 292.887 409.294 292.992 409.239 293.08C409.201 293.134 409.152 293.177 409.094 293.207C409.036 293.237 408.971 293.253 408.906 293.252C408.848 293.241 408.793 293.218 408.746 293.183H408.688ZM469.566 293.046C469.513 292.955 469.496 292.848 469.52 292.746C469.543 292.643 469.605 292.554 469.692 292.495C469.735 292.468 469.784 292.45 469.835 292.441C469.885 292.433 469.937 292.434 469.987 292.446C470.038 292.458 470.085 292.479 470.127 292.509C470.168 292.54 470.204 292.578 470.231 292.621C470.258 292.665 470.276 292.714 470.285 292.764C470.293 292.815 470.292 292.867 470.28 292.917C470.268 292.967 470.247 293.015 470.216 293.056C470.186 293.098 470.148 293.133 470.104 293.16C470.046 293.207 469.973 293.231 469.898 293.229C469.842 293.219 469.789 293.198 469.741 293.166C469.694 293.135 469.654 293.094 469.623 293.046H469.566ZM331.964 293.046C331.894 292.971 331.855 292.873 331.855 292.771C331.855 292.668 331.894 292.57 331.964 292.495C332.04 292.424 332.141 292.385 332.245 292.385C332.349 292.385 332.449 292.424 332.526 292.495C332.599 292.568 332.64 292.667 332.64 292.771C332.64 292.874 332.599 292.973 332.526 293.046C332.492 293.077 332.452 293.101 332.409 293.117C332.366 293.133 332.32 293.14 332.274 293.137C332.22 293.148 332.165 293.147 332.112 293.135C332.058 293.123 332.008 293.101 331.964 293.069V293.046ZM472.891 290.89C472.832 290.804 472.808 290.699 472.825 290.596C472.843 290.494 472.899 290.401 472.983 290.34C473.025 290.309 473.074 290.288 473.125 290.277C473.176 290.266 473.228 290.265 473.28 290.275C473.331 290.284 473.38 290.304 473.423 290.333C473.467 290.362 473.504 290.399 473.533 290.443C473.59 290.528 473.612 290.633 473.592 290.733C473.573 290.834 473.515 290.924 473.43 290.982C473.365 291.025 473.29 291.049 473.212 291.05C473.151 291.054 473.091 291.044 473.035 291.02C472.979 290.996 472.93 290.959 472.891 290.913V290.89ZM405.523 290.982C405.48 290.954 405.443 290.918 405.414 290.875C405.386 290.833 405.366 290.785 405.356 290.734C405.347 290.684 405.347 290.632 405.358 290.582C405.369 290.532 405.39 290.484 405.42 290.443C405.477 290.356 405.565 290.295 405.666 290.274C405.767 290.252 405.873 290.272 405.959 290.328C406.003 290.357 406.04 290.394 406.069 290.438C406.098 290.481 406.118 290.53 406.127 290.581C406.137 290.633 406.136 290.686 406.125 290.737C406.114 290.788 406.093 290.836 406.062 290.878C406.028 290.933 405.981 290.977 405.925 291.007C405.868 291.037 405.805 291.052 405.741 291.05C405.666 291.056 405.59 291.04 405.523 291.005V290.982ZM334.957 290.546C334.919 290.511 334.889 290.468 334.869 290.421C334.849 290.373 334.838 290.322 334.838 290.271C334.838 290.219 334.849 290.168 334.869 290.121C334.889 290.074 334.919 290.031 334.957 289.996C335.031 289.925 335.13 289.886 335.232 289.886C335.334 289.886 335.433 289.925 335.507 289.996C335.58 290.069 335.621 290.168 335.621 290.271C335.621 290.374 335.58 290.473 335.507 290.546C335.438 290.607 335.348 290.64 335.255 290.638C335.203 290.648 335.15 290.648 335.098 290.636C335.047 290.624 334.999 290.601 334.957 290.569V290.546ZM402.29 288.826C402.246 288.799 402.208 288.764 402.178 288.722C402.148 288.679 402.127 288.632 402.116 288.581C402.105 288.531 402.105 288.479 402.115 288.428C402.125 288.377 402.146 288.329 402.175 288.287C402.202 288.243 402.237 288.205 402.28 288.175C402.322 288.145 402.369 288.124 402.42 288.113C402.47 288.103 402.522 288.102 402.573 288.112C402.624 288.123 402.672 288.143 402.714 288.172C402.801 288.229 402.861 288.317 402.883 288.418C402.904 288.519 402.885 288.625 402.829 288.711C402.795 288.765 402.747 288.81 402.691 288.84C402.635 288.87 402.572 288.885 402.508 288.883C402.433 288.894 402.357 288.882 402.29 288.849V288.826ZM476.079 288.642C476.048 288.602 476.025 288.556 476.012 288.507C476 288.458 475.997 288.406 476.004 288.356C476.012 288.306 476.029 288.257 476.056 288.214C476.083 288.171 476.118 288.133 476.159 288.104C476.243 288.043 476.348 288.018 476.45 288.033C476.553 288.048 476.646 288.102 476.709 288.184C476.768 288.27 476.792 288.375 476.775 288.478C476.758 288.58 476.701 288.672 476.618 288.734C476.55 288.779 476.47 288.803 476.388 288.803C476.329 288.808 476.27 288.798 476.216 288.773C476.162 288.749 476.115 288.712 476.079 288.665V288.642ZM337.95 288.058C337.877 287.985 337.836 287.886 337.836 287.782C337.836 287.679 337.877 287.58 337.95 287.507C338.031 287.444 338.134 287.415 338.236 287.426C338.339 287.437 338.433 287.486 338.5 287.565C338.533 287.604 338.557 287.65 338.572 287.7C338.586 287.749 338.591 287.801 338.586 287.852C338.581 287.903 338.565 287.953 338.541 287.998C338.516 288.043 338.483 288.083 338.443 288.115C338.409 288.146 338.369 288.171 338.326 288.186C338.283 288.202 338.236 288.209 338.19 288.207C338.097 288.196 338.012 288.151 337.95 288.081V288.058ZM399.045 286.728C399.001 286.701 398.963 286.665 398.933 286.623C398.903 286.582 398.881 286.534 398.869 286.484C398.858 286.434 398.856 286.382 398.864 286.332C398.873 286.281 398.891 286.232 398.919 286.189C398.946 286.145 398.981 286.107 399.023 286.077C399.064 286.047 399.112 286.025 399.162 286.013C399.212 286.002 399.264 286 399.315 286.008C399.365 286.017 399.414 286.035 399.458 286.062C399.501 286.089 399.539 286.125 399.57 286.167C399.6 286.208 399.621 286.256 399.633 286.306C399.645 286.356 399.646 286.408 399.638 286.458C399.629 286.509 399.611 286.558 399.584 286.601C399.549 286.659 399.5 286.707 399.442 286.741C399.384 286.775 399.318 286.794 399.251 286.796C399.177 286.796 399.104 286.772 399.045 286.728ZM479.221 286.315C479.189 286.274 479.165 286.228 479.151 286.178C479.137 286.128 479.134 286.076 479.14 286.025C479.146 285.974 479.163 285.925 479.189 285.88C479.214 285.835 479.248 285.796 479.289 285.764C479.33 285.732 479.376 285.709 479.426 285.695C479.476 285.681 479.528 285.677 479.579 285.684C479.63 285.69 479.68 285.707 479.724 285.732C479.769 285.758 479.808 285.792 479.84 285.833C479.899 285.917 479.924 286.02 479.912 286.122C479.899 286.223 479.849 286.317 479.771 286.384C479.706 286.436 479.625 286.465 479.542 286.464C479.478 286.473 479.414 286.466 479.354 286.444C479.294 286.422 479.24 286.385 479.198 286.338L479.221 286.315ZM341.023 285.65C340.962 285.565 340.937 285.461 340.952 285.358C340.967 285.256 341.021 285.163 341.103 285.099C341.187 285.039 341.292 285.014 341.394 285.029C341.497 285.044 341.59 285.098 341.653 285.179C341.714 285.264 341.739 285.368 341.724 285.471C341.709 285.573 341.655 285.666 341.573 285.73C341.506 285.778 341.426 285.806 341.344 285.81C341.28 285.817 341.215 285.807 341.155 285.783C341.095 285.76 341.042 285.721 341 285.673L341.023 285.65ZM395.708 284.744C395.663 284.718 395.624 284.683 395.593 284.642C395.562 284.6 395.539 284.553 395.526 284.503C395.513 284.453 395.511 284.401 395.518 284.35C395.526 284.298 395.543 284.249 395.57 284.205C395.595 284.16 395.629 284.122 395.669 284.09C395.709 284.059 395.756 284.037 395.805 284.024C395.854 284.011 395.905 284.008 395.956 284.016C396.006 284.023 396.054 284.041 396.098 284.067C396.143 284.091 396.183 284.124 396.215 284.164C396.248 284.204 396.271 284.25 396.285 284.299C396.299 284.348 396.303 284.4 396.296 284.451C396.29 284.502 396.273 284.551 396.247 284.595C396.213 284.656 396.163 284.708 396.102 284.744C396.042 284.78 395.973 284.8 395.903 284.801C395.829 284.807 395.754 284.795 395.685 284.767L395.708 284.744ZM482.259 283.884C482.227 283.844 482.202 283.798 482.188 283.749C482.173 283.699 482.168 283.648 482.173 283.597C482.179 283.545 482.194 283.496 482.219 283.451C482.243 283.405 482.277 283.366 482.317 283.333C482.356 283.301 482.402 283.276 482.452 283.262C482.501 283.247 482.553 283.242 482.604 283.247C482.655 283.253 482.705 283.268 482.75 283.293C482.795 283.317 482.835 283.351 482.867 283.391C482.937 283.465 482.976 283.564 482.976 283.666C482.976 283.768 482.937 283.867 482.867 283.941C482.794 283.996 482.706 284.028 482.615 284.033C482.546 284.048 482.475 284.044 482.408 284.022C482.342 284 482.282 283.96 482.236 283.907L482.259 283.884ZM344.188 283.379C344.157 283.337 344.136 283.288 344.125 283.237C344.114 283.186 344.113 283.134 344.123 283.082C344.132 283.031 344.152 282.982 344.181 282.938C344.21 282.895 344.247 282.858 344.291 282.829C344.379 282.772 344.486 282.752 344.589 282.774C344.692 282.795 344.783 282.856 344.841 282.943C344.897 283.03 344.917 283.136 344.895 283.237C344.874 283.338 344.813 283.426 344.727 283.482C344.663 283.527 344.587 283.551 344.509 283.551C344.443 283.556 344.378 283.545 344.318 283.519C344.258 283.493 344.206 283.453 344.165 283.402L344.188 283.379ZM392.348 282.898C392.257 282.849 392.189 282.766 392.159 282.667C392.128 282.568 392.139 282.461 392.188 282.37C392.211 282.324 392.243 282.283 392.282 282.249C392.321 282.215 392.366 282.19 392.415 282.174C392.464 282.158 392.516 282.152 392.568 282.156C392.619 282.16 392.669 282.174 392.715 282.198C392.805 282.251 392.872 282.335 392.904 282.435C392.936 282.534 392.93 282.642 392.887 282.737C392.85 282.799 392.798 282.85 392.736 282.886C392.674 282.922 392.603 282.942 392.532 282.943C392.447 282.966 392.358 282.958 392.279 282.921L392.348 282.898ZM485.229 281.373C485.156 281.299 485.115 281.2 485.115 281.097C485.115 280.994 485.156 280.895 485.229 280.822C485.304 280.752 485.402 280.713 485.504 280.713C485.607 280.713 485.705 280.752 485.78 280.822C485.85 280.897 485.889 280.995 485.889 281.097C485.889 281.2 485.85 281.298 485.78 281.373C485.746 281.405 485.707 281.432 485.664 281.449C485.62 281.467 485.574 281.476 485.527 281.476C485.473 281.485 485.417 281.483 485.364 281.469C485.311 281.455 485.261 281.43 485.218 281.395L485.229 281.373ZM347.444 281.327C347.418 281.282 347.401 281.232 347.394 281.18C347.387 281.128 347.391 281.076 347.405 281.026C347.419 280.975 347.443 280.928 347.475 280.888C347.507 280.847 347.547 280.813 347.593 280.788C347.683 280.738 347.789 280.726 347.888 280.754C347.986 280.782 348.07 280.848 348.121 280.937C348.147 280.982 348.164 281.032 348.171 281.083C348.178 281.135 348.174 281.188 348.16 281.238C348.146 281.288 348.122 281.335 348.09 281.376C348.058 281.417 348.017 281.451 347.972 281.476C347.907 281.49 347.841 281.49 347.777 281.476C347.713 281.48 347.65 281.468 347.592 281.442C347.534 281.416 347.483 281.377 347.444 281.327ZM388.782 281.258C388.735 281.237 388.693 281.207 388.658 281.169C388.623 281.132 388.596 281.088 388.578 281.04C388.559 280.992 388.551 280.941 388.553 280.89C388.554 280.839 388.566 280.789 388.587 280.742C388.608 280.695 388.638 280.653 388.675 280.618C388.713 280.583 388.757 280.556 388.805 280.537C388.853 280.519 388.904 280.511 388.955 280.513C389.006 280.514 389.056 280.526 389.103 280.547C389.151 280.567 389.194 280.596 389.23 280.633C389.266 280.67 389.294 280.714 389.312 280.763C389.33 280.811 389.339 280.863 389.336 280.914C389.334 280.966 389.321 281.017 389.298 281.063C389.267 281.131 389.217 281.189 389.154 281.23C389.091 281.271 389.018 281.292 388.942 281.292C388.891 281.29 388.84 281.279 388.793 281.258H388.782ZM385.216 279.847C385.166 279.831 385.121 279.804 385.082 279.77C385.044 279.735 385.013 279.692 384.991 279.645C384.97 279.598 384.958 279.547 384.957 279.495C384.957 279.443 384.966 279.391 384.986 279.343C385.025 279.247 385.099 279.17 385.193 279.127C385.287 279.084 385.394 279.08 385.491 279.114C385.587 279.152 385.664 279.226 385.707 279.32C385.749 279.414 385.754 279.521 385.72 279.618C385.694 279.694 385.644 279.759 385.578 279.804C385.512 279.849 385.433 279.873 385.353 279.87C385.306 279.874 385.259 279.866 385.216 279.847ZM350.884 279.526C350.845 279.432 350.843 279.326 350.879 279.23C350.915 279.134 350.987 279.055 351.079 279.01C351.126 278.987 351.178 278.974 351.23 278.972C351.283 278.969 351.335 278.977 351.384 278.995C351.434 279.014 351.479 279.042 351.517 279.078C351.555 279.114 351.586 279.157 351.607 279.205C351.627 279.253 351.638 279.304 351.639 279.355C351.64 279.407 351.631 279.459 351.611 279.507C351.592 279.555 351.564 279.598 351.527 279.635C351.491 279.672 351.448 279.701 351.4 279.721C351.347 279.733 351.292 279.733 351.24 279.721C351.168 279.725 351.097 279.708 351.035 279.674C350.972 279.639 350.92 279.588 350.884 279.526ZM381.535 278.598C381.435 278.566 381.352 278.497 381.303 278.405C381.254 278.312 381.242 278.205 381.271 278.105C381.303 278.005 381.372 277.922 381.464 277.873C381.556 277.823 381.664 277.812 381.764 277.841C381.864 277.872 381.947 277.942 381.996 278.034C382.045 278.126 382.057 278.233 382.028 278.334C382.002 278.413 381.951 278.483 381.883 278.532C381.815 278.582 381.734 278.609 381.65 278.609H381.535V278.598ZM354.485 278.059C354.469 278.01 354.462 277.958 354.466 277.907C354.471 277.855 354.485 277.805 354.508 277.759C354.532 277.714 354.564 277.673 354.603 277.64C354.642 277.606 354.688 277.581 354.737 277.566C354.786 277.55 354.838 277.543 354.889 277.547C354.94 277.551 354.99 277.565 355.036 277.589C355.082 277.612 355.123 277.645 355.156 277.684C355.189 277.723 355.214 277.769 355.23 277.818C355.246 277.867 355.252 277.918 355.248 277.97C355.244 278.021 355.23 278.071 355.207 278.117C355.183 278.163 355.151 278.204 355.112 278.237C355.072 278.27 355.027 278.295 354.978 278.311H354.852C354.774 278.309 354.699 278.284 354.635 278.239C354.572 278.194 354.524 278.131 354.496 278.059H354.485ZM377.797 277.646C377.697 277.624 377.61 277.563 377.554 277.478C377.498 277.392 377.478 277.287 377.499 277.187C377.508 277.136 377.528 277.087 377.557 277.043C377.586 277 377.624 276.963 377.668 276.935C377.713 276.907 377.762 276.888 377.814 276.881C377.865 276.873 377.918 276.876 377.969 276.889C378.019 276.899 378.067 276.918 378.109 276.947C378.152 276.975 378.188 277.012 378.216 277.055C378.244 277.097 378.263 277.146 378.271 277.196C378.28 277.246 378.279 277.298 378.267 277.348C378.248 277.437 378.199 277.516 378.128 277.573C378.057 277.629 377.968 277.659 377.877 277.657H377.797V277.646ZM358.211 276.992C358.2 276.941 358.199 276.888 358.208 276.836C358.217 276.784 358.237 276.735 358.266 276.691C358.295 276.647 358.332 276.61 358.376 276.581C358.42 276.551 358.469 276.532 358.521 276.522C358.621 276.502 358.726 276.521 358.811 276.577C358.897 276.633 358.958 276.72 358.98 276.82C358.992 276.871 358.993 276.923 358.985 276.974C358.976 277.025 358.957 277.074 358.929 277.118C358.902 277.162 358.865 277.199 358.823 277.229C358.78 277.259 358.732 277.28 358.682 277.29H358.601C358.515 277.288 358.431 277.258 358.362 277.204C358.294 277.151 358.245 277.076 358.223 276.992H358.211ZM374.001 276.992C373.899 276.975 373.807 276.919 373.745 276.836C373.683 276.752 373.655 276.648 373.669 276.545C373.674 276.494 373.69 276.445 373.715 276.4C373.741 276.355 373.775 276.316 373.815 276.285C373.856 276.254 373.903 276.232 373.952 276.219C374.002 276.207 374.054 276.204 374.104 276.212C374.207 276.229 374.299 276.286 374.361 276.369C374.423 276.452 374.45 276.557 374.437 276.66C374.421 276.752 374.373 276.836 374.302 276.896C374.231 276.957 374.141 276.991 374.047 276.992H373.99H374.001ZM362.041 276.339C362.032 276.237 362.062 276.136 362.127 276.056C362.191 275.977 362.284 275.926 362.385 275.914C362.437 275.906 362.489 275.909 362.54 275.922C362.59 275.935 362.637 275.959 362.678 275.991C362.719 276.023 362.753 276.064 362.778 276.11C362.802 276.156 362.817 276.206 362.821 276.258C362.831 276.363 362.799 276.467 362.732 276.549C362.666 276.63 362.57 276.682 362.466 276.694C362.363 276.697 362.263 276.661 362.186 276.593C362.109 276.525 362.062 276.43 362.053 276.327L362.041 276.339ZM370.16 276.591C370.108 276.59 370.057 276.578 370.01 276.556C369.963 276.534 369.921 276.503 369.887 276.464C369.853 276.425 369.826 276.38 369.81 276.331C369.794 276.282 369.788 276.23 369.793 276.178C369.796 276.127 369.809 276.077 369.831 276.03C369.854 275.984 369.885 275.943 369.923 275.909C369.962 275.875 370.006 275.849 370.055 275.832C370.103 275.815 370.155 275.808 370.206 275.811C370.31 275.82 370.407 275.869 370.476 275.949C370.544 276.028 370.579 276.131 370.573 276.235C370.567 276.335 370.523 276.428 370.451 276.496C370.378 276.565 370.282 276.603 370.183 276.602L370.16 276.591ZM365.917 276.086C365.916 276.035 365.925 275.983 365.944 275.935C365.963 275.887 365.991 275.844 366.028 275.807C366.064 275.771 366.108 275.742 366.156 275.723C366.204 275.704 366.255 275.695 366.307 275.696C366.41 275.696 366.51 275.738 366.583 275.811C366.656 275.884 366.697 275.983 366.697 276.086C366.697 276.19 366.656 276.289 366.583 276.362C366.51 276.435 366.41 276.476 366.307 276.476C366.256 276.475 366.205 276.463 366.159 276.442C366.112 276.421 366.07 276.391 366.035 276.354C366 276.317 365.972 276.273 365.954 276.225C365.936 276.177 365.927 276.126 365.929 276.075L365.917 276.086Z" fill="white"/>
<path d="M289.25 302.781C289.201 302.791 289.15 302.791 289.101 302.781C289.052 302.761 289.009 302.73 288.975 302.689C288.935 302.657 288.907 302.612 288.895 302.563C288.883 302.514 288.883 302.463 288.895 302.414C288.898 302.311 288.939 302.214 289.009 302.139C289.044 302.102 289.087 302.074 289.135 302.058C289.182 302.036 289.233 302.024 289.284 302.024C289.336 302.024 289.387 302.036 289.433 302.058C289.483 302.071 289.527 302.099 289.56 302.139C289.596 302.174 289.625 302.217 289.645 302.265C289.665 302.312 289.675 302.363 289.674 302.414C289.686 302.463 289.686 302.514 289.674 302.563C289.657 302.613 289.625 302.657 289.583 302.689C289.549 302.73 289.505 302.761 289.456 302.781C289.389 302.804 289.317 302.804 289.25 302.781Z" fill="white"/>
</g>
<path d="M352.123 185.373L349.451 182.483C344.626 187.047 338.25 189.612 331.608 189.661C326.338 189.744 321.208 187.97 317.115 184.649C313.022 181.328 310.229 176.672 309.225 171.498L305.212 172.553L301.542 173.516C302.585 178.933 305.123 183.95 308.87 187.999C320.509 200.543 341.137 200.543 354.576 187.999L352.123 185.373Z" fill="white"/>
<path d="M357.844 142.304L354.324 145.572L351.905 147.865C354.04 150.183 355.673 152.918 356.699 155.898C357.725 158.878 358.123 162.039 357.867 165.18C357.347 171.81 354.34 177.999 349.451 182.506L351.549 184.8L354.576 188.056C361.026 182.101 364.99 173.931 365.676 165.18C366.018 161.033 365.499 156.86 364.151 152.923C362.804 148.986 360.656 145.371 357.844 142.304Z" fill="#263238"/>
<path d="M357.844 142.303C346.206 129.77 325.577 129.77 312.149 142.303C307.899 146.193 304.702 151.094 302.853 156.551C301.005 162.008 300.566 167.844 301.577 173.516L306.163 172.369L309.305 171.544C308.904 169.455 308.781 167.323 308.938 165.202C309.495 158.588 312.491 152.417 317.344 147.888C322.197 143.36 328.56 140.797 335.197 140.698C338.344 140.663 341.463 141.284 344.357 142.52C347.251 143.755 349.857 145.579 352.008 147.876L355.104 144.975L357.844 142.303Z" fill="#4B0082"/>
<path d="M390.788 185.372L393.873 182.483C391.744 180.164 390.118 177.43 389.097 174.452C388.077 171.473 387.685 168.316 387.945 165.179C388.415 159.668 390.575 154.436 394.129 150.198C397.684 145.96 402.46 142.923 407.805 141.5L407.025 137.556L406.326 133.955C400.683 135.459 395.499 138.335 391.236 142.326C377.797 154.859 376.329 175.488 387.956 188.032L390.788 185.372Z" fill="white"/>
<path d="M433.663 188.01L430.624 184.731L428.537 182.438C423.714 187.007 417.338 189.576 410.695 189.627C407.546 189.662 404.425 189.042 401.529 187.806C398.634 186.57 396.026 184.746 393.873 182.449L391.453 184.742L387.956 188.01C390.801 191.031 394.239 193.431 398.056 195.059C401.872 196.687 405.984 197.508 410.133 197.47C418.888 197.396 427.292 194.017 433.663 188.01Z" fill="#263238"/>
<path d="M433.663 188.01C447.091 175.465 448.57 154.836 436.943 142.303C433.079 138.261 428.189 135.347 422.795 133.872C417.402 132.397 411.709 132.418 406.326 133.932L407.198 138.393L407.805 141.477C409.894 140.93 412.044 140.652 414.204 140.652C417.358 140.605 420.486 141.222 423.386 142.463C426.287 143.703 428.894 145.539 431.039 147.851C433.184 150.164 434.819 152.902 435.838 155.887C436.857 158.872 437.237 162.038 436.954 165.179C436.431 171.805 433.425 177.989 428.537 182.494L431.221 185.395L433.663 188.01Z" fill="#4B0082"/>
<path opacity="0.3" d="M487.821 135.722C488.136 135.721 488.448 135.785 488.737 135.91C489.026 136.036 489.286 136.219 489.502 136.449C489.717 136.68 489.882 136.952 489.988 137.249C490.093 137.546 490.136 137.861 490.114 138.176L488.692 157.956C488.625 158.655 488.305 159.306 487.792 159.785C487.278 160.265 486.608 160.54 485.906 160.559H466.114C465.798 160.56 465.485 160.495 465.195 160.37C464.905 160.244 464.644 160.059 464.428 159.828C464.213 159.596 464.048 159.323 463.943 159.024C463.839 158.726 463.797 158.409 463.82 158.094L465.231 138.313C465.298 137.615 465.619 136.966 466.132 136.489C466.646 136.011 467.316 135.738 468.017 135.722H487.798M487.798 134.701H468.04C467.082 134.72 466.165 135.092 465.464 135.746C464.764 136.4 464.329 137.29 464.245 138.245L462.834 158.025C462.796 158.478 462.853 158.933 463 159.363C463.148 159.792 463.384 160.187 463.692 160.52C464.001 160.853 464.376 161.119 464.793 161.299C465.21 161.48 465.66 161.571 466.114 161.568H485.894C486.853 161.552 487.772 161.18 488.473 160.526C489.174 159.872 489.607 158.98 489.69 158.025L491.112 138.245C491.15 137.791 491.093 137.334 490.945 136.904C490.796 136.473 490.559 136.079 490.25 135.745C489.94 135.412 489.564 135.146 489.145 134.967C488.727 134.787 488.276 134.697 487.821 134.701H487.798Z" fill="#4B0082"/>
<path opacity="0.3" d="M485.378 169.767C485.693 169.766 486.005 169.83 486.295 169.955C486.584 170.081 486.844 170.264 487.059 170.494C487.275 170.725 487.44 170.997 487.545 171.294C487.651 171.591 487.694 171.906 487.672 172.221L486.261 192.001C486.192 192.699 485.871 193.348 485.358 193.827C484.845 194.306 484.176 194.582 483.475 194.604H463.683C463.367 194.605 463.054 194.54 462.764 194.414C462.474 194.289 462.213 194.104 461.997 193.873C461.782 193.641 461.617 193.367 461.512 193.069C461.408 192.771 461.366 192.454 461.39 192.139L462.811 172.358C462.879 171.66 463.199 171.011 463.713 170.534C464.226 170.056 464.897 169.783 465.598 169.767H485.367M485.367 168.746H465.609C464.65 168.763 463.732 169.134 463.031 169.788C462.33 170.443 461.896 171.334 461.814 172.29L460.392 192.07C460.354 192.523 460.41 192.98 460.559 193.411C460.707 193.841 460.944 194.236 461.254 194.569C461.564 194.903 461.94 195.168 462.358 195.348C462.776 195.527 463.228 195.618 463.683 195.613H483.463C484.421 195.594 485.339 195.222 486.039 194.568C486.74 193.914 487.174 193.024 487.259 192.07L488.669 172.29C488.707 171.836 488.651 171.379 488.502 170.949C488.354 170.518 488.117 170.124 487.807 169.79C487.497 169.456 487.121 169.191 486.703 169.012C486.285 168.832 485.833 168.741 485.378 168.746H485.367Z" fill="#4B0082"/>
<path d="M456.378 279.194C456.644 279.187 456.908 279.237 457.153 279.34C457.398 279.443 457.619 279.596 457.8 279.79C457.98 279.987 458.117 280.219 458.202 280.472C458.287 280.725 458.318 280.993 458.293 281.258C458.243 281.854 457.973 282.409 457.537 282.818C457.101 283.226 456.529 283.459 455.931 283.471C455.665 283.479 455.399 283.43 455.153 283.327C454.907 283.224 454.686 283.07 454.505 282.874C454.324 282.679 454.186 282.447 454.102 282.194C454.018 281.94 453.988 281.672 454.016 281.407C454.065 280.811 454.333 280.254 454.77 279.844C455.207 279.435 455.78 279.203 456.378 279.194ZM456.378 278.185C455.527 278.199 454.712 278.528 454.089 279.108C453.466 279.688 453.081 280.479 453.007 281.327C452.97 281.731 453.019 282.138 453.149 282.522C453.28 282.906 453.49 283.258 453.766 283.556C454.042 283.853 454.377 284.089 454.75 284.249C455.123 284.408 455.526 284.487 455.931 284.48C456.784 284.466 457.601 284.136 458.224 283.553C458.847 282.97 459.232 282.177 459.302 281.327C459.338 280.924 459.288 280.518 459.157 280.135C459.025 279.753 458.815 279.402 458.539 279.106C458.264 278.809 457.929 278.574 457.557 278.416C457.184 278.257 456.783 278.179 456.378 278.185Z" fill="#4B0082"/>
<path d="M456.677 278.197L456.172 278.162L456.253 277.153L456.746 277.188L456.677 278.197Z" fill="#4B0082"/>
<path d="M456.895 275.123H456.39L456.539 273.059H457.044L456.895 275.123ZM457.193 270.972H456.688L456.837 268.908H457.342L457.193 270.972ZM457.491 266.833H456.986L457.135 264.757H457.64L457.491 266.833ZM457.789 262.693H457.285L457.434 260.618H457.938L457.789 262.693ZM458.087 258.554H457.583L457.732 256.478H458.236L458.087 258.554ZM458.385 254.414H457.881L458.03 252.339H458.534L458.385 254.414ZM458.683 250.263H458.179L458.328 248.199H458.833L458.683 250.263ZM458.982 246.124H458.477L458.626 244.048H459.131L458.982 246.124ZM459.28 241.984H458.775L458.924 239.909H459.429L459.28 241.984ZM459.566 237.845H459.062L459.211 235.769H459.716L459.566 237.845ZM459.865 233.705H459.36L459.509 231.63H460.014L459.865 233.705Z" fill="#4B0082"/>
<path d="M459.717 228.516L459.646 229.522L460.149 229.558L460.221 228.552L459.717 228.516Z" fill="#4B0082"/>
<path d="M481.353 229.084H299.788C299.291 229.089 298.798 228.989 298.342 228.792C297.886 228.594 297.476 228.303 297.139 227.938C296.799 227.572 296.539 227.139 296.375 226.667C296.211 226.196 296.147 225.695 296.187 225.197L297.093 212.698C297.179 211.676 297.642 210.722 298.392 210.022C299.143 209.323 300.127 208.928 301.153 208.914H482.752C483.248 208.911 483.739 209.011 484.195 209.208C484.65 209.404 485.059 209.694 485.397 210.057C485.734 210.42 485.992 210.85 486.155 211.318C486.318 211.787 486.381 212.284 486.341 212.778L485.447 225.277C485.364 226.309 484.898 227.271 484.14 227.976C483.382 228.681 482.388 229.076 481.353 229.084ZM301.153 210.015C300.401 210.027 299.682 210.317 299.133 210.83C298.584 211.343 298.245 212.041 298.183 212.79L297.288 225.289C297.259 225.636 297.302 225.985 297.415 226.315C297.527 226.644 297.707 226.947 297.942 227.204C298.179 227.455 298.465 227.653 298.783 227.788C299.101 227.922 299.443 227.989 299.788 227.983H481.353C482.105 227.974 482.827 227.685 483.376 227.171C483.925 226.658 484.263 225.958 484.323 225.208L485.229 212.71C485.256 212.367 485.212 212.023 485.1 211.698C484.988 211.374 484.81 211.076 484.577 210.823C484.345 210.57 484.063 210.368 483.749 210.229C483.435 210.09 483.096 210.017 482.752 210.015H301.153Z" fill="#4B0082"/>
<path opacity="0.8" fill-rule="evenodd" clip-rule="evenodd" d="M477.455 216.987H305.338C305.119 216.989 304.901 216.946 304.7 216.859C304.498 216.772 304.317 216.644 304.168 216.483C304.019 216.322 303.905 216.132 303.834 215.924C303.763 215.717 303.736 215.497 303.756 215.278C303.798 214.821 304.007 214.395 304.343 214.082C304.68 213.769 305.119 213.59 305.579 213.581H477.707C477.925 213.579 478.141 213.622 478.341 213.708C478.541 213.794 478.721 213.921 478.869 214.081C479.017 214.241 479.13 214.43 479.2 214.636C479.271 214.843 479.297 215.061 479.278 215.278C479.241 215.739 479.034 216.169 478.696 216.485C478.359 216.801 477.917 216.98 477.455 216.987Z" fill="white"/>
<path opacity="0.8" fill-rule="evenodd" clip-rule="evenodd" d="M448.776 224.153H304.822C304.604 224.156 304.388 224.112 304.188 224.026C303.988 223.94 303.808 223.813 303.66 223.653C303.512 223.493 303.399 223.304 303.329 223.098C303.258 222.892 303.232 222.673 303.251 222.456C303.288 221.996 303.496 221.565 303.833 221.25C304.17 220.934 304.612 220.755 305.074 220.748H449.017C449.246 220.737 449.474 220.777 449.685 220.865C449.897 220.952 450.087 221.084 450.242 221.252C450.397 221.42 450.513 221.62 450.583 221.838C450.653 222.056 450.674 222.287 450.645 222.514C450.589 222.968 450.368 223.387 450.023 223.689C449.679 223.992 449.235 224.157 448.776 224.153Z" fill="white"/>
</g>
<defs>
<clipPath id="clip0_4893_37385">
<rect width="573.34" height="427.264" fill="white"/>
</clipPath>
</defs>
</svg>
