<svg width="573" height="427" viewBox="0 0 573 427" fill="none" xmlns="http://www.w3.org/2000/svg">
<g clip-path="url(#clip0_4893_37385)">
<path d="M572.985 375.248H0V375.535H572.985V375.248Z" fill="#E7DFEE"/>
<path d="M341.316 22.2783H120.075V181.098H341.316V22.2783Z" fill="#F0EBF4"/>
<path d="M328.722 181.098L272.455 22.2783H230.226L286.493 181.098H328.722Z" fill="white"/>
<path d="M215.168 181.098L158.9 22.2783H143.499L199.766 181.098H215.168Z" fill="white"/>
<path d="M109.532 16.8232H351.87C351.999 16.8232 352.127 16.8488 352.246 16.8985C352.365 16.9481 352.473 17.0209 352.563 17.1126C352.654 17.2043 352.725 17.313 352.774 17.4325C352.822 17.552 352.846 17.6799 352.844 17.8088C352.844 18.0671 352.742 18.3149 352.559 18.4976C352.376 18.6802 352.129 18.7829 351.87 18.7829H109.532C109.273 18.7829 109.024 18.6806 108.839 18.4983C108.655 18.3159 108.549 18.0682 108.546 17.8088C108.546 17.5474 108.65 17.2967 108.835 17.1119C109.02 16.9271 109.271 16.8232 109.532 16.8232Z" fill="#BFABD3"/>
<path d="M232.013 21.9346H229.389V181.442H232.013V21.9346Z" fill="#DFD2EB"/>
<path d="M229.377 21.9346H228.071V181.442H229.377V21.9346Z" fill="#BFABD3"/>
<path d="M118.551 179.975V20.6855H342.84V179.975V182.6H118.551V179.975ZM340.227 179.975V23.3786H121.175V179.975H340.227Z" fill="#DFD2EB"/>
<path d="M118.539 20.7539H117.233V182.634H118.539V20.7539Z" fill="#BFABD3"/>
<path d="M89.019 223.281H70.9585V369.771H89.019V223.281Z" fill="#DFD2EB"/>
<path d="M273.406 369.771H74.4307V375.248H273.406V369.771Z" fill="#F0F0F0"/>
<path d="M89.0305 369.771H276.878V223.281L89.0305 223.281L89.0305 369.771Z" fill="#F0EBF4"/>
<path d="M87.151 218.503H68.6895V223.282H87.151V218.503Z" fill="#BFABD3"/>
<path d="M87.1394 223.27L279.135 223.27V218.491L87.1394 218.491V223.27Z" fill="#BFABD3"/>
<path d="M270.38 305.722H95.5166V233.309H270.38V305.722ZM96.7313 304.508H269.165V234.523H96.7313V304.508Z" fill="#E7DFEE"/>
<path d="M270.38 359.732H95.5166V312.965H270.38V359.732ZM96.7313 358.517H269.165V314.18H96.7313V358.517Z" fill="#E7DFEE"/>
<path d="M245.215 233.916H120.682C119.796 233.916 119.078 234.634 119.078 235.52V236.197C119.078 237.083 119.796 237.801 120.682 237.801H245.215C246.101 237.801 246.819 237.083 246.819 236.197V235.52C246.819 234.634 246.101 233.916 245.215 233.916Z" fill="#E7DFEE"/>
<path d="M245.215 313.572H120.682C119.796 313.572 119.078 314.291 119.078 315.177V315.853C119.078 316.739 119.796 317.457 120.682 317.457H245.215C246.101 317.457 246.819 316.739 246.819 315.853V315.177C246.819 314.291 246.101 313.572 245.215 313.572Z" fill="#E7DFEE"/>
<path d="M398.637 368.212H503.7L503.7 47.6611H398.637L398.637 368.212Z" fill="#DFD2EB"/>
<path d="M398.637 47.6729H395.303V368.224H398.637V47.6729Z" fill="#BFABD3"/>
<path d="M415.689 355.984H486.659L486.659 59.8885H415.689L415.689 355.984Z" fill="#F0EBF4"/>
<path d="M286.492 427C409.206 427 508.685 421.193 508.685 414.028C508.685 406.864 409.206 401.056 286.492 401.056C163.779 401.056 64.3003 406.864 64.3003 414.028C64.3003 421.193 163.779 427 286.492 427Z" fill="#9881AE"/>
<path d="M164.286 404.046L173.259 400.643L167.759 378.961L158.786 382.364L164.286 404.046Z" fill="#B55B52"/>
<path d="M96.8691 404.218H106.461L107.905 381.998H98.3016L96.8691 404.218Z" fill="#B55B52"/>
<path d="M107.423 403.118H95.723C95.535 403.115 95.3522 403.18 95.2073 403.299C95.0624 403.419 94.9649 403.586 94.9323 403.771L93.4654 412.297C93.4359 412.51 93.4524 412.727 93.5138 412.933C93.5751 413.139 93.68 413.329 93.8212 413.491C93.9624 413.653 94.1367 413.782 94.3324 413.871C94.528 413.96 94.7404 414.005 94.9552 414.005C98.714 413.936 101.453 413.718 106.197 413.718C109.108 413.718 117.92 414.028 121.954 414.028C125.988 414.028 126.309 410.04 124.636 409.673C117.164 408.057 111.48 405.834 109.005 403.703C108.563 403.327 108.003 403.12 107.423 403.118Z" fill="#263238"/>
<path d="M172.801 399.635L163.003 403.348C162.824 403.416 162.674 403.542 162.576 403.707C162.478 403.871 162.439 404.064 162.465 404.253L163.725 412.894C163.747 413.107 163.818 413.312 163.933 413.493C164.048 413.674 164.203 413.826 164.386 413.937C164.569 414.048 164.775 414.115 164.989 414.133C165.202 414.151 165.417 414.119 165.616 414.04C169.123 412.642 172.114 410.865 176.583 409.261C181.689 407.601 186.599 405.392 191.228 402.672C194.552 400.563 193.154 396.552 191.584 397.183C184.456 400.048 182.702 400.987 175.219 399.543C174.42 399.349 173.583 399.381 172.801 399.635Z" fill="#263238"/>
<path d="M147.486 111.778C150.5 117.119 153.686 122.619 156.895 127.936C160.103 133.254 163.392 138.571 166.888 143.522C167.724 144.771 168.664 145.974 169.512 147.132C169.7 147.468 169.953 147.765 170.257 148.002C170.793 148.277 171.404 148.374 171.999 148.277C173.094 148.166 174.169 147.907 175.196 147.51C177.796 146.489 180.278 145.191 182.599 143.636C183.837 142.823 185.097 141.986 186.323 141.092C187.549 140.198 188.787 139.236 189.91 138.376L195.285 143.166C194.304 144.583 193.253 145.948 192.133 147.258C191.051 148.578 189.904 149.844 188.695 151.051C187.456 152.3 186.143 153.475 184.765 154.569C183.328 155.743 181.795 156.794 180.181 157.709C178.359 158.764 176.4 159.563 174.359 160.081C171.822 160.735 169.161 160.735 166.624 160.081C163.882 159.318 161.424 157.768 159.553 155.623C158.407 154.294 157.261 153.045 156.23 151.727C152.08 146.578 148.22 141.203 144.667 135.626C141.115 130.102 137.791 124.567 134.743 118.677L147.486 111.778Z" fill="#B65B52"/>
<path d="M130.458 112.225C127.879 121.026 146.089 145.023 146.089 145.023L164.424 133.208C160.966 125.576 156.697 118.337 151.692 111.618C144.209 102.049 133.3 102.564 130.458 112.225Z" fill="#4B0082"/>
<path opacity="0.2" d="M130.458 112.225C127.879 121.026 146.089 145.023 146.089 145.023L164.424 133.208C160.966 125.576 156.697 118.337 151.692 111.618C144.209 102.049 133.3 102.564 130.458 112.225Z" fill="black"/>
<path opacity="0.2" d="M141.653 122.551C145.435 124.167 150.993 133.266 153.892 140.015L146.088 145.023C141.738 139.208 137.823 133.08 134.376 126.688C136.84 123.949 139.659 121.703 141.653 122.551Z" fill="black"/>
<path d="M188.776 141.367L192.145 131.936L201.691 136.519C201.691 136.519 199.708 144.919 192.718 144.908L188.776 141.367Z" fill="#B55B52"/>
<path d="M200.637 125.725L204.682 130.194L201.691 136.497L192.145 131.936L200.637 125.725Z" fill="#B55B52"/>
<path opacity="0.2" d="M167.759 378.961L170.589 390.146L161.616 393.549L158.786 382.376L167.759 378.961Z" fill="black"/>
<path opacity="0.2" d="M98.3015 382.01H107.905L107.16 393.458H97.5566L98.3015 382.01Z" fill="black"/>
<path d="M87.6899 108.329C98.0037 144.782 96.3306 183.459 96.9723 191.32L148.266 189.395C156.987 135.053 141.39 104.811 141.39 104.811C141.39 104.811 138.101 104.18 133.62 103.722C132.222 103.573 130.71 103.447 129.128 103.367C128.257 103.31 127.375 103.287 126.481 103.264C119.198 103.387 111.928 103.93 104.708 104.891C103.344 105.063 101.957 105.258 100.605 105.487C99.2528 105.716 98.1412 105.922 96.9838 106.152C91.6779 107.194 87.6899 108.329 87.6899 108.329Z" fill="#4B0082"/>
<path opacity="0.2" d="M87.6899 108.329C98.0037 144.782 96.3306 183.459 96.9723 191.32L148.266 189.395C156.987 135.053 141.39 104.811 141.39 104.811C141.39 104.811 138.101 104.18 133.62 103.722C132.222 103.573 130.71 103.447 129.128 103.367C128.257 103.31 127.375 103.287 126.481 103.264C119.198 103.387 111.928 103.93 104.708 104.891C103.344 105.063 101.957 105.258 100.605 105.487C99.2528 105.716 98.1412 105.922 96.9838 106.152C91.6779 107.194 87.6899 108.329 87.6899 108.329Z" fill="black"/>
<path opacity="0.2" d="M98.6108 123.972C99.5275 127.49 98.4732 143.591 94.7947 147.556C94.2905 142.399 93.6487 137.024 92.7319 131.512L98.6108 123.972Z" fill="black"/>
<path d="M104.994 80.2754C106.885 87.1512 109.211 99.8944 104.662 104.925C108.753 108.432 114.047 112.431 122.378 112.099C130.71 111.767 128.842 106.163 126.424 103.309C118.471 102.026 118.241 96.2273 119.204 90.7037L104.994 80.2754Z" fill="#B55B52"/>
<path d="M122.596 110.873L124.109 111.893L118.585 113.497L120.006 110.942L122.596 110.873Z" fill="#4B0082"/>
<path d="M124.682 110.334L124.109 111.893L129.655 113.497L129.277 110.529L124.682 110.334Z" fill="#4B0082"/>
<path d="M101.35 104.341L103.527 103.252C103.875 103.078 104.265 103.002 104.653 103.035C105.041 103.067 105.413 103.206 105.728 103.435C110.764 107.089 116.523 109.625 122.619 110.873C118.242 112.958 119.319 118.574 119.319 118.574C119.319 118.574 105.395 113.99 100.983 105.67C100.858 105.445 100.827 105.179 100.895 104.931C100.964 104.682 101.127 104.47 101.35 104.341Z" fill="white"/>
<path d="M128.853 102.909L125.656 102.427C125.573 102.414 125.489 102.425 125.412 102.46C125.336 102.495 125.272 102.551 125.228 102.622C125.184 102.693 125.162 102.776 125.165 102.859C125.167 102.943 125.195 103.024 125.243 103.092C126.389 104.685 128.223 108.18 124.682 110.334C129.059 112.42 130.411 117.543 130.411 117.543C130.411 117.543 136.141 111.389 129.472 103.264C129.312 103.078 129.094 102.952 128.853 102.909Z" fill="white"/>
<path opacity="0.2" d="M110.781 84.4697L119.181 90.5892C118.938 91.8817 118.811 93.1933 118.803 94.5084C115.789 94.3021 111.446 91.3341 110.896 88.2285C110.635 86.9923 110.596 85.7195 110.781 84.4697Z" fill="black"/>
<path d="M129.346 66.0769C128.956 69.4117 125.759 72.2766 123.696 72.9527L121.118 58.502C126.905 54.4109 129.884 61.4014 129.346 66.0769Z" fill="#263238"/>
<path d="M102.095 70.0766C103.768 79.4506 104.261 85.0315 109.589 89.3289C117.611 95.7922 128.761 90.1196 129.93 80.4362C130.985 71.7153 128.074 57.8491 118.402 55.1561C116.271 54.5532 114.022 54.5046 111.868 55.0151C109.713 55.5255 107.725 56.578 106.091 58.0727C104.457 59.5674 103.233 61.4547 102.534 63.5555C101.834 65.6563 101.683 67.901 102.095 70.0766Z" fill="#B55B52"/>
<path d="M103.883 76.4022C108.226 78.6941 110.128 73.5258 110.174 71.4172C110.174 68.0709 108.776 64.3924 107.045 63.0516C115.434 63.0516 132.028 62.639 127.833 54.6516C123.639 46.6642 115.228 47.5695 108.959 51.9471C105.624 54.2391 94.8294 52.2451 97.4995 58.4677C91.8728 61.4587 96.7547 72.609 103.883 76.4022Z" fill="#263238"/>
<path d="M98.4163 57.9525C96.9207 57.9451 95.4683 57.4502 94.2793 56.543C94.4741 57.3806 94.9383 58.1313 95.6007 58.6798C96.2631 59.2283 97.0871 59.5445 97.9464 59.5798L98.4163 57.9525Z" fill="#263238"/>
<path d="M98.5536 77.7889C99.6289 79.9459 101.51 81.5926 103.791 82.3728C106.816 83.3469 107.504 80.5736 106.77 77.6629C106.106 75.0271 104.685 71.4631 101.602 71.7496C98.5192 72.0361 97.2701 75.1532 98.5536 77.7889Z" fill="#B55B52"/>
<path d="M159.439 290.847C155.543 261.82 148.266 189.395 148.266 189.395L114.597 190.667C114.597 190.667 130.503 263.035 136.256 292.383C142.009 321.731 158.029 392.552 158.029 392.552L173.225 386.822C173.225 386.822 163.507 321.032 159.439 290.847Z" fill="#FFC857"/>
<path opacity="0.2" d="M127.203 210.171C124.43 210.833 121.856 212.149 119.697 214.01C122.883 228.644 127.042 247.908 130.618 264.88C133.002 250.177 133.07 222.433 127.203 210.171Z" fill="black"/>
<path d="M130.079 190.082C130.079 190.082 122.917 268.65 119.64 296.566C116.053 327.152 111.618 391.246 111.618 391.246H93.9698C93.9698 391.246 93.2479 334.555 95.5284 304.622C98.1297 270.529 96.9608 191.32 96.9608 191.32L130.079 190.082Z" fill="#FFC857"/>
<path d="M113.91 391.624H93.2133L92.7778 385.436L115.881 385.035L113.91 391.624Z" fill="#F1A34F"/>
<path d="M175.208 386.422L157.101 393.286L154.89 387.442L175.013 379.454L175.208 386.422Z" fill="#F1A34F"/>
<path d="M116.729 71.108C116.809 71.8872 117.29 72.4602 117.794 72.4029C118.299 72.3456 118.631 71.6695 118.539 70.9017C118.448 70.1339 117.978 69.5609 117.473 69.6182C116.969 69.6755 116.637 70.2943 116.729 71.108Z" fill="#263238"/>
<path d="M125.415 70.0647C125.507 70.8325 125.988 71.4055 126.481 71.3482C126.974 71.2909 127.329 70.6262 127.237 69.8584C127.146 69.0906 126.664 68.5062 126.16 68.5634C125.656 68.6207 125.323 69.2969 125.415 70.0647Z" fill="#263238"/>
<path d="M122.699 70.7637C123.884 73.0083 125.373 75.079 127.123 76.9175C126.646 77.3607 126.077 77.6932 125.457 77.8913C124.837 78.0893 124.181 78.1482 123.536 78.0635L122.699 70.7637Z" fill="#A02724"/>
<path d="M120.533 80.4588C119.663 80.4567 118.802 80.2767 118.004 79.9299C117.206 79.5831 116.487 79.0767 115.892 78.4419C115.87 78.419 115.853 78.3918 115.842 78.3619C115.83 78.332 115.826 78.3001 115.828 78.2682C115.829 78.2364 115.838 78.2053 115.853 78.1769C115.867 78.1485 115.888 78.1235 115.912 78.1035C115.937 78.0835 115.966 78.0689 115.997 78.0606C116.028 78.0523 116.06 78.0506 116.091 78.0554C116.123 78.0603 116.153 78.0717 116.18 78.0889C116.207 78.1061 116.23 78.1288 116.247 78.1554C116.917 78.8464 117.74 79.3703 118.65 79.6848C119.56 79.9993 120.531 80.0956 121.485 79.966C121.514 79.9612 121.544 79.9624 121.573 79.9698C121.602 79.9771 121.629 79.9903 121.653 80.0086C121.677 80.0268 121.696 80.0498 121.711 80.076C121.725 80.1022 121.734 80.1311 121.737 80.1608C121.743 80.2199 121.727 80.2792 121.69 80.3263C121.654 80.3733 121.601 80.4044 121.542 80.4129C121.207 80.456 120.87 80.4713 120.533 80.4588Z" fill="#263238"/>
<path d="M113.726 68.5637C113.652 68.586 113.572 68.586 113.497 68.5637C113.446 68.5341 113.4 68.4945 113.364 68.4471C113.328 68.3998 113.302 68.3457 113.287 68.2881C113.272 68.2304 113.269 68.1704 113.277 68.1114C113.286 68.0525 113.306 67.9959 113.337 67.9449C113.686 67.3168 114.18 66.7812 114.778 66.3826C115.376 65.984 116.061 65.7338 116.775 65.6529C116.835 65.6499 116.895 65.6587 116.952 65.6789C117.009 65.6991 117.061 65.7304 117.106 65.7708C117.15 65.8113 117.187 65.8601 117.213 65.9146C117.238 65.9691 117.253 66.0282 117.256 66.0884C117.259 66.1481 117.25 66.2077 117.23 66.2638C117.209 66.32 117.178 66.3715 117.137 66.4153C117.097 66.4591 117.048 66.4943 116.993 66.5188C116.939 66.5434 116.88 66.5568 116.821 66.5583C116.253 66.6301 115.71 66.8346 115.237 67.1552C114.763 67.4757 114.371 67.9033 114.093 68.4033C114.051 68.4589 113.995 68.5029 113.931 68.531C113.866 68.559 113.796 68.5703 113.726 68.5637Z" fill="#263238"/>
<path d="M128.819 66.6498C128.743 66.6468 128.669 66.6254 128.603 66.5875C128.537 66.5496 128.481 66.4963 128.44 66.4321C128.149 65.9403 127.744 65.5255 127.26 65.2225C126.775 64.9194 126.225 64.7369 125.656 64.6902C125.534 64.6902 125.417 64.6419 125.332 64.556C125.246 64.47 125.197 64.3534 125.197 64.2318C125.197 64.1103 125.246 63.9937 125.332 63.9077C125.417 63.8217 125.534 63.7734 125.656 63.7734C126.376 63.8317 127.072 64.0593 127.687 64.4376C128.303 64.816 128.82 65.3345 129.197 65.9508C129.228 66.0004 129.25 66.0558 129.26 66.1138C129.271 66.1718 129.269 66.2313 129.257 66.2888C129.244 66.3463 129.22 66.4007 129.186 66.4489C129.152 66.4971 129.109 66.5381 129.059 66.5696C128.989 66.6196 128.905 66.6476 128.819 66.6498Z" fill="#263238"/>
<path d="M110.678 404.792C109.824 404.77 108.974 404.655 108.145 404.448C108.102 404.438 108.062 404.415 108.032 404.382C108.001 404.349 107.981 404.309 107.973 404.265C107.962 404.222 107.965 404.176 107.981 404.135C107.998 404.094 108.027 404.059 108.065 404.035C108.397 403.818 111.4 401.915 112.488 402.454C112.609 402.515 112.711 402.606 112.785 402.719C112.859 402.831 112.903 402.961 112.912 403.096C112.953 403.315 112.936 403.541 112.864 403.752C112.792 403.962 112.666 404.151 112.5 404.299C111.969 404.671 111.324 404.846 110.678 404.792ZM108.798 404.127C110.437 404.448 111.686 404.391 112.236 403.955C112.347 403.851 112.43 403.721 112.478 403.577C112.526 403.433 112.537 403.28 112.511 403.13C112.511 402.947 112.408 402.889 112.351 402.867C111.744 402.58 110.013 403.44 108.798 404.127Z" fill="#4B0082"/>
<path d="M108.203 404.447C108.161 404.458 108.118 404.458 108.077 404.447C108.042 404.425 108.014 404.394 107.994 404.358C107.974 404.322 107.963 404.282 107.962 404.241C107.962 404.126 108.065 401.353 109.108 400.448C109.234 400.33 109.385 400.242 109.549 400.19C109.714 400.139 109.888 400.125 110.059 400.15C110.233 400.152 110.402 400.212 110.538 400.319C110.675 400.427 110.772 400.577 110.815 400.746C111.067 401.812 109.257 403.92 108.283 404.459C108.255 404.462 108.228 404.458 108.203 404.447ZM109.944 400.562C109.758 400.564 109.579 400.633 109.44 400.757C108.806 401.635 108.462 402.689 108.455 403.771C109.406 403.015 110.54 401.479 110.391 400.792C110.391 400.734 110.391 400.608 110.048 400.562H109.944Z" fill="#4B0082"/>
<path d="M174.188 400.54C174.145 400.542 174.102 400.531 174.066 400.508C174.029 400.486 174 400.453 173.982 400.414C173.957 400.377 173.944 400.333 173.944 400.288C173.944 400.243 173.957 400.199 173.982 400.162C174.314 399.795 177.225 396.598 178.566 396.793C178.69 396.807 178.808 396.853 178.909 396.928C179.01 397.002 179.089 397.102 179.139 397.217C179.229 397.394 179.276 397.591 179.276 397.79C179.276 397.989 179.229 398.185 179.139 398.363C178.485 399.6 175.781 400.231 174.222 400.483L174.188 400.54ZM178.417 397.24C177.649 397.24 175.976 398.741 174.807 399.967C176.915 399.543 178.359 398.89 178.726 398.191C178.788 398.07 178.821 397.937 178.821 397.801C178.821 397.666 178.788 397.532 178.726 397.412C178.708 397.366 178.679 397.326 178.64 397.296C178.602 397.266 178.556 397.246 178.508 397.24H178.417Z" fill="#4B0082"/>
<path d="M174.188 400.54H174.119C174.081 400.53 174.046 400.51 174.018 400.481C173.989 400.453 173.969 400.418 173.959 400.38C173.959 400.277 173.26 397.767 174.039 396.392C174.149 396.194 174.298 396.021 174.477 395.883C174.657 395.745 174.862 395.645 175.082 395.59C175.689 395.418 175.964 395.659 176.102 395.876C176.652 396.827 175.242 399.589 174.337 400.46C174.32 400.484 174.298 400.504 174.272 400.518C174.246 400.532 174.217 400.54 174.188 400.54ZM175.437 395.956H175.196C175.035 395.995 174.883 396.068 174.752 396.171C174.622 396.274 174.515 396.404 174.44 396.552C174.061 397.585 174.012 398.711 174.302 399.773C175.15 398.627 176.033 396.61 175.701 396.037C175.655 396.06 175.597 395.968 175.403 395.979L175.437 395.956Z" fill="#4B0082"/>
<path d="M98.2328 121.897C95.3564 127.822 92.4227 133.941 89.5807 139.969C88.1711 143.006 86.7501 146.031 85.4208 149.068L83.4268 153.652L82.51 155.909L82.2809 156.482L82.109 156.906C81.9944 157.17 81.9141 157.456 81.811 157.72C81.0999 159.978 80.9738 162.379 81.4443 164.699C82.0058 167.393 83.0253 169.97 84.4582 172.32C86.0357 174.949 87.8624 177.42 89.913 179.7C90.9558 180.846 92.056 182.06 93.202 183.138C93.7749 183.688 94.3479 184.284 94.9553 184.776C95.5626 185.269 96.17 185.922 96.6742 186.323L92.8238 192.454C91.1678 191.612 89.5643 190.671 88.0222 189.635C86.498 188.638 85.0083 187.584 83.5643 186.438C80.5905 184.082 77.8987 181.39 75.5425 178.416C72.976 175.223 71.0147 171.588 69.7554 167.69C68.4147 163.391 68.2211 158.816 69.1939 154.42C69.3428 153.881 69.4574 153.274 69.6293 152.792L70.0763 151.371L70.8784 148.839C71.4514 147.177 72.0244 145.504 72.6203 143.865C73.8236 140.576 75.0842 137.322 76.4479 134.113C79.0721 127.718 82.0173 121.53 85.2948 115.262L98.2328 121.897Z" fill="#B65B52"/>
<path d="M87.6901 108.329C78.9348 111.068 70.3286 140.76 70.3286 140.76L90.5321 149.63C90.5321 149.63 97.087 135.282 100.846 124.04C105.006 111.79 98.2903 105.005 87.6901 108.329Z" fill="#4B0082"/>
<path opacity="0.2" d="M87.6901 108.329C78.9348 111.068 70.3286 140.76 70.3286 140.76L90.5321 149.63C90.5321 149.63 97.087 135.282 100.846 124.04C105.006 111.79 98.2903 105.005 87.6901 108.329Z" fill="black"/>
<path d="M94.4971 184.467L102.874 189.44L94.7263 197.554C94.7263 197.554 87.6557 192.11 89.7642 187.847L94.4971 184.467Z" fill="#B55B52"/>
<path d="M108.478 197.382L100.066 203.272L94.7261 197.554L102.874 189.44L108.478 197.382Z" fill="#B55B52"/>
<path d="M513.814 182.312L513.414 187.833L514.557 187.916L514.957 182.395L513.814 182.312Z" fill="#4B0082"/>
<path d="M515.324 161.409L514.165 177.422L515.308 177.505L516.467 161.491L515.324 161.409Z" fill="#4B0082"/>
<path d="M483.967 341.556H203.284C201.28 341.58 199.292 341.183 197.45 340.393C195.608 339.602 193.951 338.435 192.587 336.966C191.223 335.497 190.181 333.759 189.529 331.864C188.876 329.968 188.628 327.957 188.799 325.96L203.697 118.768C204.066 114.573 205.973 110.662 209.051 107.788C212.128 104.913 216.16 103.277 220.371 103.194H501.053C503.057 103.17 505.044 103.564 506.886 104.354C508.728 105.143 510.385 106.309 511.749 107.777C513.114 109.245 514.156 110.982 514.808 112.877C515.461 114.772 515.709 116.783 515.538 118.78L500.641 325.971C500.274 330.168 498.368 334.082 495.29 336.959C492.212 339.836 488.179 341.473 483.967 341.556Z" fill="#4B0082"/>
<path d="M418.681 414.027H327.565L311.326 301.436H402.442L418.681 414.027Z" fill="#4B0082"/>
<path d="M404.207 407.312H305.653L303.694 414.028H402.259L404.207 407.312Z" fill="#4B0082"/>
<path d="M407.244 355.64L318.443 350.781L311.326 301.436H399.428L407.244 355.64Z" fill="#263238"/>
<path d="M480.804 341.556H200.11C198.102 341.579 196.112 341.18 194.269 340.386C192.425 339.592 190.768 338.42 189.406 336.946C188.043 335.472 187.004 333.728 186.357 331.828C185.71 329.928 185.468 327.913 185.647 325.914L200.545 118.722C200.925 114.539 202.833 110.643 205.905 107.778C208.977 104.913 212.997 103.281 217.196 103.194H497.89C499.893 103.171 501.879 103.567 503.72 104.357C505.56 105.147 507.216 106.313 508.579 107.781C509.942 109.249 510.983 110.986 511.635 112.88C512.286 114.774 512.535 116.784 512.364 118.78L497.466 325.971C497.102 330.167 495.199 334.081 492.122 336.958C489.046 339.835 485.015 341.473 480.804 341.556Z" fill="#263238"/>
<path d="M511.638 120.723L503.118 239.576L504.215 239.655L512.735 120.802L511.638 120.723Z" fill="white"/>
<path d="M502.418 249.924L499.468 291.085L500.565 291.164L503.516 250.003L502.418 249.924Z" fill="white"/>
<path d="M480.162 337.637H201.256C199.696 337.654 198.149 337.344 196.716 336.728C195.282 336.112 193.994 335.202 192.933 334.058C191.872 332.914 191.062 331.561 190.555 330.085C190.049 328.609 189.856 327.044 189.991 325.49L204.785 119.146C205.071 115.874 206.558 112.823 208.96 110.582C211.361 108.341 214.508 107.069 217.792 107.01H496.744C498.303 106.994 499.849 107.303 501.281 107.919C502.714 108.534 504.002 109.443 505.062 110.585C506.123 111.728 506.933 113.08 507.441 114.554C507.948 116.029 508.142 117.593 508.009 119.146L493.215 325.513C492.926 328.791 491.431 331.845 489.02 334.085C486.609 336.324 483.452 337.59 480.162 337.637Z" fill="white"/>
<path opacity="0.2" d="M480.162 337.637H201.256C199.696 337.654 198.149 337.344 196.716 336.728C195.282 336.112 193.994 335.202 192.933 334.058C191.872 332.914 191.062 331.561 190.555 330.085C190.049 328.609 189.856 327.044 189.991 325.49L204.785 119.146C205.071 115.874 206.558 112.823 208.96 110.582C211.361 108.341 214.508 107.069 217.792 107.01H496.744C498.303 106.994 499.849 107.303 501.281 107.919C502.714 108.534 504.002 109.443 505.062 110.585C506.123 111.728 506.933 113.08 507.441 114.554C507.948 116.029 508.142 117.593 508.009 119.146L493.215 325.513C492.926 328.791 491.431 331.845 489.02 334.085C486.609 336.324 483.452 337.59 480.162 337.637Z" fill="#4B0082"/>
<path opacity="0.5" d="M272.81 328.492H207.673C206.919 328.501 206.171 328.352 205.478 328.055C204.785 327.758 204.162 327.319 203.65 326.766C203.137 326.213 202.745 325.559 202.501 324.846C202.256 324.132 202.164 323.376 202.23 322.625L216.6 122.08C216.736 120.496 217.455 119.02 218.617 117.936C219.779 116.852 221.302 116.238 222.891 116.212H288.028C288.783 116.201 289.531 116.349 290.225 116.646C290.919 116.942 291.543 117.382 292.056 117.935C292.569 118.488 292.96 119.143 293.204 119.857C293.448 120.571 293.539 121.328 293.472 122.08L279.101 322.625C278.963 324.207 278.243 325.682 277.082 326.766C275.92 327.849 274.398 328.464 272.81 328.492Z" fill="white"/>
<path opacity="0.4" d="M270.289 144.449H236.574C235.895 144.457 235.223 144.322 234.599 144.054C233.975 143.786 233.415 143.39 232.953 142.893C232.491 142.396 232.138 141.807 231.917 141.165C231.696 140.524 231.612 139.843 231.669 139.166L232.036 133.998C232.16 132.574 232.808 131.246 233.853 130.27C234.898 129.295 236.268 128.741 237.697 128.715H271.423C272.102 128.708 272.775 128.843 273.398 129.111C274.022 129.379 274.582 129.774 275.044 130.271C275.506 130.769 275.859 131.357 276.08 131.999C276.301 132.641 276.385 133.322 276.328 133.998L275.95 139.166C275.838 140.595 275.195 141.931 274.147 142.909C273.099 143.887 271.722 144.436 270.289 144.449Z" fill="#4B0082"/>
<path d="M248.848 225.584H197.382C196.202 225.6 195.031 225.368 193.945 224.904C192.859 224.441 191.882 223.756 191.076 222.893C190.27 222.03 189.653 221.008 189.265 219.893C188.877 218.777 188.726 217.594 188.822 216.417L192.523 164.894C192.752 162.417 193.886 160.112 195.709 158.421C197.532 156.729 199.915 155.769 202.402 155.726H253.879C255.058 155.713 256.228 155.946 257.312 156.41C258.397 156.874 259.373 157.56 260.177 158.422C260.982 159.285 261.598 160.306 261.985 161.421C262.373 162.535 262.523 163.718 262.428 164.894L258.738 216.371C258.522 218.858 257.392 221.178 255.565 222.88C253.738 224.582 251.344 225.546 248.848 225.584Z" fill="#4B0082"/>
<path d="M256.228 183.412C255.277 183.431 254.368 183.801 253.674 184.451C252.98 185.1 252.551 185.983 252.469 186.93L251.93 194.402C251.892 194.852 251.948 195.305 252.095 195.732C252.243 196.158 252.478 196.55 252.785 196.88C253.093 197.21 253.467 197.473 253.882 197.65C254.297 197.827 254.745 197.915 255.196 197.909H260.422C260.658 197.907 260.884 197.816 261.056 197.654C261.228 197.493 261.333 197.273 261.35 197.038L262.267 184.283C262.277 184.171 262.263 184.059 262.226 183.952C262.189 183.846 262.131 183.749 262.054 183.667C261.977 183.585 261.884 183.519 261.781 183.476C261.677 183.432 261.566 183.41 261.453 183.412H256.228Z" fill="white"/>
<path d="M236.368 168.778H203.983C203.802 168.78 203.622 168.745 203.456 168.673C203.289 168.602 203.14 168.496 203.017 168.364C202.893 168.231 202.8 168.074 202.741 167.902C202.682 167.731 202.66 167.549 202.676 167.369C202.708 166.988 202.88 166.632 203.16 166.371C203.44 166.11 203.807 165.964 204.189 165.959H236.632C236.813 165.957 236.992 165.992 237.159 166.064C237.325 166.135 237.475 166.241 237.598 166.374C237.721 166.507 237.815 166.664 237.873 166.835C237.932 167.006 237.954 167.188 237.938 167.369C237.903 167.759 237.722 168.121 237.431 168.383C237.139 168.644 236.759 168.786 236.368 168.778Z" fill="white"/>
<path d="M235.864 175.941H203.41C203.229 175.943 203.049 175.907 202.883 175.836C202.717 175.765 202.567 175.659 202.444 175.526C202.321 175.393 202.227 175.236 202.168 175.065C202.11 174.893 202.088 174.712 202.104 174.531C202.138 174.152 202.311 173.799 202.591 173.541C202.87 173.283 203.236 173.137 203.616 173.133H236.07C236.251 173.129 236.43 173.163 236.597 173.233C236.763 173.304 236.913 173.408 237.036 173.54C237.159 173.672 237.254 173.828 237.312 173.999C237.371 174.17 237.393 174.351 237.377 174.531C237.345 174.912 237.173 175.268 236.893 175.529C236.613 175.789 236.246 175.936 235.864 175.941Z" fill="white"/>
<path d="M224.129 183.114H202.894C202.714 183.115 202.535 183.078 202.37 183.006C202.204 182.934 202.055 182.828 201.932 182.696C201.809 182.563 201.715 182.407 201.656 182.236C201.597 182.066 201.574 181.885 201.588 181.705C201.619 181.323 201.792 180.968 202.072 180.707C202.351 180.446 202.718 180.299 203.101 180.295H224.336C224.517 180.293 224.696 180.328 224.863 180.4C225.029 180.471 225.179 180.577 225.302 180.71C225.425 180.842 225.519 181 225.577 181.171C225.636 181.342 225.658 181.524 225.642 181.705C225.608 182.085 225.435 182.439 225.156 182.699C224.876 182.959 224.511 183.107 224.129 183.114Z" fill="white"/>
<path opacity="0.5" d="M236.46 217.265H205.129C204.354 217.274 203.586 217.121 202.875 216.815C202.163 216.51 201.523 216.059 200.996 215.491C200.469 214.923 200.067 214.251 199.816 213.518C199.564 212.786 199.469 212.008 199.537 211.237L200.683 194.746C200.821 193.122 201.558 191.608 202.75 190.496C203.942 189.385 205.505 188.755 207.134 188.73H238.522C239.296 188.721 240.063 188.873 240.774 189.178C241.485 189.483 242.124 189.933 242.651 190.5C243.177 191.066 243.58 191.737 243.832 192.468C244.084 193.199 244.18 193.975 244.115 194.746L242.969 211.237C242.827 212.871 242.081 214.393 240.878 215.507C239.675 216.621 238.1 217.248 236.46 217.265Z" fill="white"/>
<path opacity="0.4" d="M265.762 244.859H226.707C226.371 244.864 226.038 244.798 225.729 244.666C225.42 244.534 225.142 244.338 224.913 244.092C224.684 243.846 224.51 243.554 224.4 243.237C224.291 242.919 224.249 242.582 224.278 242.247C224.34 241.541 224.662 240.884 225.18 240.401C225.699 239.919 226.377 239.645 227.086 239.634H266.14C266.475 239.631 266.807 239.698 267.115 239.831C267.423 239.964 267.699 240.16 267.927 240.406C268.154 240.652 268.328 240.943 268.437 241.26C268.546 241.577 268.587 241.913 268.558 242.247C268.499 242.951 268.18 243.609 267.663 244.091C267.146 244.574 266.469 244.848 265.762 244.859Z" fill="#4B0082"/>
<path opacity="0.8" d="M257.844 255.115H233.114C232.778 255.12 232.444 255.054 232.135 254.922C231.826 254.79 231.548 254.594 231.319 254.348C231.091 254.102 230.916 253.81 230.806 253.493C230.697 253.175 230.655 252.838 230.684 252.503C230.744 251.798 231.063 251.141 231.579 250.658C232.096 250.175 232.773 249.902 233.48 249.89H258.268C258.603 249.885 258.936 249.951 259.245 250.084C259.553 250.216 259.83 250.412 260.058 250.658C260.286 250.904 260.46 251.196 260.568 251.514C260.676 251.831 260.716 252.168 260.686 252.503C260.625 253.215 260.3 253.879 259.774 254.363C259.247 254.846 258.559 255.115 257.844 255.115Z" fill="white"/>
<path opacity="0.4" d="M263.734 273.153H224.679C224.343 273.156 224.011 273.089 223.703 272.956C223.395 272.823 223.117 272.628 222.889 272.382C222.66 272.136 222.486 271.846 222.375 271.529C222.265 271.212 222.223 270.875 222.25 270.541C222.312 269.835 222.633 269.178 223.152 268.695C223.67 268.213 224.349 267.939 225.057 267.928H264.112C264.447 267.925 264.779 267.992 265.087 268.125C265.394 268.258 265.671 268.454 265.898 268.7C266.126 268.946 266.3 269.236 266.409 269.554C266.517 269.871 266.559 270.207 266.53 270.541C266.47 271.245 266.151 271.903 265.635 272.385C265.118 272.868 264.441 273.142 263.734 273.153Z" fill="#4B0082"/>
<path opacity="0.8" d="M255.861 283.398H231.085C230.75 283.404 230.417 283.339 230.108 283.209C229.799 283.078 229.521 282.883 229.292 282.638C229.063 282.393 228.888 282.102 228.778 281.785C228.669 281.468 228.627 281.131 228.656 280.797C228.716 280.086 229.04 279.424 229.564 278.94C230.088 278.457 230.774 278.187 231.486 278.184H256.239C256.576 278.179 256.909 278.245 257.218 278.378C257.527 278.51 257.805 278.705 258.034 278.951C258.262 279.198 258.437 279.489 258.547 279.807C258.656 280.125 258.698 280.462 258.669 280.797C258.606 281.501 258.285 282.157 257.766 282.638C257.247 283.118 256.568 283.389 255.861 283.398Z" fill="white"/>
<path opacity="0.4" d="M261.705 301.448H222.651C222.315 301.45 221.983 301.383 221.674 301.25C221.366 301.117 221.089 300.922 220.861 300.676C220.632 300.43 220.457 300.14 220.347 299.823C220.237 299.506 220.194 299.169 220.221 298.835C220.281 298.128 220.602 297.469 221.121 296.986C221.64 296.503 222.32 296.231 223.029 296.222H262.084C262.419 296.217 262.752 296.283 263.061 296.416C263.369 296.548 263.646 296.744 263.874 296.99C264.102 297.236 264.276 297.528 264.384 297.846C264.492 298.163 264.532 298.5 264.502 298.835C264.442 299.539 264.123 300.197 263.606 300.679C263.09 301.162 262.412 301.436 261.705 301.448Z" fill="#4B0082"/>
<path opacity="0.8" d="M253.833 311.692H229.057C228.721 311.697 228.388 311.631 228.079 311.499C227.77 311.367 227.492 311.171 227.263 310.925C227.034 310.679 226.859 310.387 226.75 310.07C226.64 309.752 226.599 309.415 226.628 309.08C226.69 308.376 227.009 307.72 227.525 307.238C228.041 306.756 228.718 306.481 229.424 306.467H254.211C254.547 306.464 254.879 306.531 255.187 306.664C255.495 306.797 255.773 306.992 256.001 307.238C256.23 307.484 256.405 307.775 256.515 308.092C256.625 308.409 256.668 308.745 256.64 309.08C256.581 309.786 256.26 310.445 255.741 310.928C255.222 311.411 254.542 311.684 253.833 311.692Z" fill="white"/>
<path opacity="0.5" d="M483.233 269.67C484.929 267.08 488.814 268.169 488.596 271.16L484.837 323.599C484.643 326.292 482.603 328.493 480.253 328.493H291.386C289.094 328.493 287.352 326.292 287.547 323.599L289.839 292.44C289.915 291.45 290.21 290.488 290.701 289.624C291.192 288.76 291.868 288.015 292.68 287.443C293.492 286.87 294.421 286.484 295.4 286.312C296.379 286.14 297.383 286.186 298.342 286.447C308.988 289.759 318.11 287.811 326.59 283.605C344.72 274.609 359.892 255.288 380.737 255.288C381.54 255.288 382.33 255.288 383.098 255.357C414.108 257.225 423.551 295.752 447.57 295.752C454.675 295.752 461.15 292.681 466.8 288.315C473.653 282.963 479.302 275.663 483.233 269.67Z" fill="#4B0082"/>
<path opacity="0.5" d="M487.152 291.271L484.86 323.599C484.665 326.292 482.626 328.492 480.276 328.492H291.386C289.094 328.492 287.352 326.292 287.547 323.599L292.131 259.356C292.44 254.956 298.205 253.099 300.542 256.663C306.57 265.831 315.841 277.737 326.51 283.605C330.388 285.868 334.776 287.11 339.265 287.215C354.529 287.215 367.513 269.12 383.018 255.357C392.518 246.922 402.969 240.115 415.472 240.115C441.566 240.115 445.416 282.516 466.72 288.315C470.822 289.461 475.578 289.197 481.262 287.02C481.934 286.729 482.67 286.618 483.398 286.698C484.126 286.777 484.821 287.044 485.415 287.473C486.008 287.901 486.481 288.476 486.785 289.142C487.09 289.808 487.216 290.542 487.152 291.271Z" fill="#4B0082"/>
<g opacity="0.8">
<path d="M488.081 278.735C487.978 278.731 487.88 278.69 487.805 278.62C487.768 278.586 487.741 278.542 487.725 278.494C487.715 278.445 487.715 278.394 487.725 278.345C487.725 278.294 487.735 278.243 487.754 278.196C487.774 278.148 487.803 278.106 487.84 278.07C487.913 277.997 488.012 277.956 488.115 277.956C488.218 277.956 488.317 277.997 488.39 278.07C488.428 278.105 488.458 278.147 488.478 278.195C488.498 278.242 488.507 278.294 488.505 278.345C488.51 278.395 488.51 278.445 488.505 278.494C488.481 278.541 488.45 278.583 488.413 278.62C488.37 278.663 488.318 278.696 488.26 278.716C488.203 278.736 488.141 278.742 488.081 278.735Z" fill="white"/>
<path d="M304.416 305.584C304.312 305.584 304.213 305.543 304.14 305.47C304.067 305.397 304.026 305.298 304.026 305.195C304.029 305.093 304.071 304.997 304.144 304.927C304.217 304.856 304.314 304.817 304.416 304.817C304.519 304.817 304.618 304.858 304.691 304.931C304.764 305.004 304.805 305.103 304.805 305.206C304.805 305.311 304.765 305.411 304.692 305.486C304.619 305.561 304.52 305.604 304.416 305.607V305.584ZM300.485 305.367C300.433 305.364 300.382 305.35 300.336 305.327C300.29 305.304 300.248 305.272 300.215 305.232C300.182 305.192 300.157 305.146 300.142 305.096C300.128 305.046 300.123 304.994 300.13 304.943C300.135 304.891 300.151 304.842 300.176 304.796C300.201 304.751 300.235 304.712 300.276 304.68C300.316 304.648 300.363 304.624 300.412 304.61C300.462 304.596 300.514 304.592 300.565 304.599C300.667 304.61 300.759 304.661 300.824 304.741C300.888 304.82 300.919 304.921 300.909 305.023C300.898 305.119 300.852 305.208 300.781 305.273C300.709 305.339 300.616 305.376 300.519 305.378L300.485 305.367ZM307.899 305.023C307.893 304.972 307.897 304.92 307.911 304.87C307.925 304.82 307.948 304.774 307.98 304.733C308.012 304.693 308.052 304.659 308.097 304.634C308.142 304.609 308.192 304.593 308.243 304.587C308.294 304.581 308.346 304.585 308.396 304.599C308.446 304.613 308.492 304.636 308.533 304.668C308.573 304.7 308.607 304.74 308.632 304.785C308.657 304.83 308.673 304.88 308.679 304.931C308.685 304.982 308.681 305.034 308.667 305.084C308.653 305.134 308.63 305.18 308.598 305.221C308.566 305.261 308.526 305.295 308.481 305.32C308.436 305.345 308.386 305.361 308.335 305.367C308.284 305.373 308.232 305.369 308.182 305.355C308.132 305.341 308.086 305.318 308.045 305.286C308.005 305.254 307.971 305.214 307.946 305.169C307.921 305.124 307.905 305.074 307.899 305.023ZM296.612 304.771C296.51 304.746 296.422 304.684 296.364 304.597C296.307 304.51 296.285 304.404 296.302 304.301C296.327 304.199 296.389 304.111 296.476 304.054C296.563 303.996 296.669 303.974 296.772 303.991C296.873 304.016 296.962 304.078 297.019 304.165C297.077 304.253 297.099 304.358 297.081 304.461C297.061 304.549 297.011 304.628 296.94 304.684C296.87 304.74 296.782 304.771 296.692 304.771H296.612ZM311.727 304.381C311.713 304.331 311.71 304.278 311.717 304.226C311.724 304.174 311.741 304.125 311.768 304.08C311.795 304.035 311.83 303.996 311.873 303.965C311.915 303.934 311.963 303.912 312.013 303.9C312.114 303.879 312.218 303.896 312.305 303.95C312.393 304.003 312.456 304.088 312.483 304.186C312.508 304.288 312.492 304.395 312.438 304.485C312.384 304.575 312.298 304.641 312.197 304.668H312.105C312.015 304.676 311.925 304.651 311.851 304.599C311.778 304.546 311.726 304.469 311.704 304.381H311.727ZM437.062 304.542C436.958 304.542 436.859 304.5 436.786 304.427C436.713 304.354 436.672 304.255 436.672 304.152C436.672 304.049 436.713 303.949 436.786 303.876C436.859 303.803 436.958 303.762 437.062 303.762C437.165 303.762 437.264 303.803 437.337 303.876C437.41 303.949 437.451 304.049 437.451 304.152C437.451 304.255 437.41 304.354 437.337 304.427C437.264 304.5 437.165 304.542 437.062 304.542ZM440.557 303.991C440.551 303.941 440.554 303.89 440.568 303.84C440.583 303.791 440.606 303.746 440.638 303.706C440.671 303.667 440.71 303.634 440.755 303.61C440.8 303.586 440.85 303.572 440.901 303.567C440.952 303.559 441.005 303.562 441.055 303.575C441.106 303.589 441.153 303.612 441.194 303.644C441.234 303.677 441.268 303.717 441.293 303.763C441.317 303.809 441.332 303.859 441.336 303.911C441.346 304.016 441.314 304.12 441.248 304.202C441.181 304.283 441.085 304.335 440.981 304.347C440.878 304.353 440.777 304.32 440.698 304.254C440.619 304.188 440.568 304.094 440.557 303.991ZM433.143 304.301C433.092 304.295 433.042 304.279 432.998 304.254C432.953 304.229 432.914 304.195 432.883 304.154C432.852 304.114 432.829 304.067 432.817 304.017C432.804 303.968 432.802 303.916 432.81 303.865C432.816 303.814 432.832 303.764 432.857 303.719C432.882 303.674 432.915 303.634 432.956 303.602C432.997 303.57 433.043 303.547 433.093 303.533C433.142 303.519 433.194 303.515 433.246 303.522C433.348 303.536 433.441 303.589 433.505 303.67C433.569 303.751 433.599 303.854 433.589 303.957C433.578 304.053 433.533 304.142 433.461 304.208C433.39 304.273 433.297 304.31 433.2 304.312L433.143 304.301ZM292.807 303.831C292.757 303.818 292.71 303.795 292.67 303.763C292.629 303.732 292.595 303.693 292.569 303.648C292.543 303.603 292.527 303.554 292.521 303.502C292.514 303.451 292.518 303.399 292.532 303.35C292.564 303.25 292.632 303.166 292.724 303.115C292.815 303.064 292.923 303.049 293.025 303.075C293.124 303.106 293.207 303.176 293.256 303.268C293.306 303.36 293.317 303.467 293.288 303.567C293.265 303.649 293.215 303.721 293.147 303.77C293.078 303.82 292.995 303.846 292.91 303.842H292.807V303.831ZM444.407 303.453C444.396 303.402 444.395 303.35 444.404 303.299C444.414 303.248 444.433 303.199 444.462 303.156C444.491 303.113 444.529 303.077 444.573 303.049C444.617 303.021 444.666 303.003 444.717 302.994C444.767 302.985 444.819 302.985 444.87 302.995C444.92 303.005 444.968 303.025 445.01 303.054C445.053 303.083 445.09 303.119 445.118 303.162C445.146 303.205 445.166 303.253 445.175 303.304C445.185 303.354 445.185 303.406 445.175 303.457C445.165 303.507 445.145 303.555 445.116 303.598C445.087 303.64 445.05 303.677 445.007 303.705C444.964 303.733 444.916 303.753 444.866 303.762H444.797C444.707 303.762 444.619 303.731 444.548 303.675C444.478 303.619 444.428 303.541 444.407 303.453ZM429.292 303.59C429.241 303.581 429.192 303.561 429.149 303.532C429.106 303.503 429.07 303.465 429.043 303.42C429.016 303.376 428.998 303.326 428.992 303.274C428.985 303.223 428.99 303.17 429.006 303.121C429.03 303.02 429.093 302.934 429.181 302.88C429.269 302.826 429.375 302.81 429.475 302.834C429.576 302.858 429.662 302.922 429.716 303.01C429.769 303.098 429.786 303.204 429.762 303.304C429.741 303.389 429.693 303.464 429.624 303.518C429.556 303.572 429.471 303.602 429.384 303.602H429.292V303.59ZM315.44 303.27C315.42 303.222 315.41 303.17 315.411 303.118C315.412 303.066 315.423 303.015 315.445 302.967C315.466 302.92 315.497 302.878 315.536 302.843C315.574 302.808 315.62 302.782 315.669 302.765C315.765 302.728 315.872 302.729 315.966 302.77C316.061 302.811 316.135 302.887 316.173 302.983C316.192 303.031 316.2 303.082 316.199 303.134C316.197 303.185 316.185 303.236 316.164 303.283C316.143 303.33 316.112 303.372 316.074 303.407C316.037 303.442 315.992 303.469 315.944 303.487C315.899 303.498 315.852 303.498 315.807 303.487C315.731 303.489 315.657 303.47 315.592 303.431C315.527 303.393 315.474 303.337 315.44 303.27ZM448.201 302.593C448.185 302.543 448.18 302.49 448.185 302.437C448.191 302.385 448.207 302.334 448.232 302.288C448.258 302.242 448.293 302.202 448.335 302.169C448.377 302.137 448.424 302.114 448.476 302.101C448.525 302.087 448.577 302.083 448.628 302.089C448.68 302.096 448.729 302.112 448.774 302.138C448.818 302.163 448.858 302.197 448.889 302.238C448.921 302.279 448.944 302.326 448.957 302.376C448.971 302.425 448.975 302.477 448.968 302.528C448.962 302.58 448.945 302.629 448.92 302.674C448.894 302.719 448.86 302.758 448.819 302.789C448.778 302.821 448.732 302.844 448.682 302.857H448.579C448.496 302.859 448.414 302.834 448.346 302.787C448.278 302.74 448.227 302.672 448.201 302.593ZM425.533 302.456C425.436 302.422 425.357 302.351 425.312 302.259C425.266 302.167 425.26 302.06 425.293 301.963C425.329 301.865 425.402 301.785 425.496 301.741C425.59 301.696 425.698 301.689 425.797 301.722C425.895 301.759 425.974 301.832 426.019 301.926C426.064 302.02 426.071 302.128 426.037 302.227C426.007 302.302 425.955 302.366 425.888 302.411C425.82 302.456 425.74 302.48 425.659 302.479C425.616 302.483 425.572 302.475 425.533 302.456ZM318.958 301.722C318.934 301.677 318.92 301.627 318.916 301.575C318.912 301.524 318.918 301.472 318.934 301.423C318.95 301.374 318.975 301.329 319.009 301.289C319.043 301.25 319.084 301.218 319.13 301.195C319.224 301.151 319.332 301.146 319.431 301.18C319.529 301.214 319.61 301.286 319.657 301.379C319.68 301.424 319.695 301.473 319.699 301.523C319.703 301.574 319.696 301.625 319.68 301.673C319.664 301.721 319.639 301.765 319.605 301.803C319.572 301.842 319.531 301.872 319.485 301.894C319.425 301.912 319.362 301.912 319.302 301.894C319.242 301.89 319.184 301.873 319.133 301.843C319.081 301.813 319.037 301.772 319.004 301.722H318.958ZM451.891 301.447C451.872 301.4 451.864 301.35 451.866 301.299C451.867 301.248 451.879 301.198 451.901 301.152C451.922 301.106 451.953 301.065 451.99 301.031C452.028 300.997 452.072 300.971 452.12 300.955C452.217 300.925 452.322 300.933 452.414 300.978C452.505 301.022 452.576 301.1 452.613 301.195C452.646 301.294 452.639 301.402 452.594 301.496C452.55 301.59 452.47 301.663 452.372 301.7H452.246C452.174 301.691 452.106 301.663 452.05 301.619C451.993 301.574 451.95 301.515 451.925 301.447H451.891ZM421.878 300.966C421.831 300.945 421.789 300.915 421.754 300.878C421.719 300.84 421.691 300.797 421.673 300.749C421.655 300.701 421.647 300.65 421.648 300.599C421.65 300.547 421.662 300.497 421.683 300.45C421.728 300.358 421.806 300.287 421.902 300.25C421.998 300.214 422.104 300.216 422.199 300.256C422.247 300.277 422.29 300.307 422.326 300.345C422.362 300.383 422.39 300.428 422.408 300.478C422.426 300.527 422.434 300.579 422.432 300.632C422.429 300.684 422.416 300.736 422.393 300.783C422.361 300.85 422.311 300.907 422.248 300.948C422.186 300.988 422.113 301.011 422.038 301.012C421.993 301.008 421.949 300.992 421.912 300.966H421.878ZM455.523 300.072C455.503 300.025 455.493 299.974 455.493 299.923C455.493 299.871 455.503 299.82 455.524 299.773C455.544 299.726 455.574 299.684 455.611 299.648C455.649 299.613 455.693 299.586 455.741 299.568C455.787 299.546 455.838 299.533 455.889 299.532C455.94 299.53 455.991 299.54 456.039 299.559C456.087 299.578 456.129 299.608 456.165 299.645C456.201 299.682 456.228 299.726 456.245 299.774C456.266 299.822 456.277 299.873 456.278 299.924C456.279 299.976 456.269 300.027 456.25 300.075C456.231 300.123 456.202 300.167 456.166 300.204C456.13 300.241 456.087 300.27 456.039 300.29C455.99 300.301 455.939 300.301 455.89 300.29C455.82 300.286 455.753 300.263 455.695 300.225C455.637 300.187 455.589 300.134 455.558 300.072H455.523ZM322.362 299.843C322.306 299.753 322.288 299.645 322.311 299.542C322.335 299.439 322.398 299.35 322.488 299.293C322.531 299.266 322.58 299.247 322.63 299.239C322.681 299.23 322.733 299.232 322.783 299.244C322.833 299.256 322.88 299.277 322.922 299.307C322.964 299.337 322.999 299.375 323.026 299.419C323.054 299.463 323.072 299.511 323.08 299.562C323.089 299.613 323.087 299.665 323.075 299.715C323.064 299.765 323.042 299.812 323.012 299.854C322.982 299.895 322.944 299.931 322.9 299.958C322.841 300.002 322.768 300.026 322.694 300.026C322.634 300.02 322.576 300 322.524 299.968C322.473 299.936 322.429 299.894 322.396 299.843H322.362ZM418.382 299.213C418.29 299.162 418.222 299.077 418.192 298.976C418.162 298.876 418.173 298.767 418.222 298.674C418.275 298.584 418.36 298.518 418.461 298.49C418.562 298.463 418.669 298.475 418.761 298.525C418.85 298.576 418.915 298.659 418.943 298.758C418.971 298.857 418.959 298.963 418.91 299.052C418.875 299.114 418.826 299.165 418.765 299.201C418.705 299.238 418.636 299.257 418.566 299.259C418.514 299.251 418.464 299.235 418.417 299.213H418.382ZM459.087 298.502C459.044 298.409 459.039 298.303 459.073 298.207C459.107 298.11 459.178 298.031 459.271 297.987C459.365 297.943 459.473 297.937 459.571 297.972C459.67 298.006 459.751 298.077 459.798 298.17C459.819 298.217 459.831 298.267 459.832 298.318C459.834 298.369 459.825 298.42 459.807 298.468C459.789 298.516 459.762 298.56 459.727 298.597C459.692 298.635 459.65 298.665 459.603 298.686H459.431C459.369 298.682 459.308 298.664 459.254 298.632C459.2 298.6 459.155 298.555 459.122 298.502H459.087ZM325.593 297.689C325.534 297.603 325.511 297.498 325.528 297.395C325.545 297.292 325.601 297.2 325.685 297.139C325.769 297.078 325.874 297.053 325.976 297.068C326.079 297.083 326.171 297.137 326.235 297.219C326.294 297.304 326.317 297.41 326.3 297.512C326.283 297.615 326.227 297.707 326.143 297.769C326.076 297.817 325.997 297.845 325.914 297.849C325.858 297.844 325.803 297.827 325.754 297.799C325.704 297.772 325.661 297.734 325.628 297.689H325.593ZM414.979 297.253C414.935 297.227 414.898 297.193 414.868 297.152C414.838 297.112 414.816 297.065 414.805 297.016C414.793 296.967 414.791 296.916 414.799 296.866C414.808 296.816 414.826 296.769 414.853 296.726C414.876 296.68 414.909 296.64 414.95 296.608C414.99 296.576 415.036 296.553 415.086 296.54C415.136 296.527 415.187 296.525 415.238 296.533C415.289 296.541 415.337 296.56 415.38 296.589C415.425 296.615 415.464 296.649 415.495 296.69C415.526 296.732 415.549 296.779 415.562 296.829C415.574 296.879 415.577 296.931 415.57 296.982C415.562 297.034 415.544 297.083 415.517 297.127C415.483 297.185 415.434 297.233 415.376 297.267C415.318 297.301 415.252 297.32 415.185 297.322C415.131 297.309 415.081 297.286 415.036 297.253H414.979ZM462.548 296.76C462.499 296.669 462.489 296.562 462.519 296.464C462.549 296.365 462.617 296.282 462.709 296.233C462.8 296.188 462.906 296.179 463.004 296.209C463.102 296.238 463.185 296.305 463.236 296.394C463.285 296.487 463.296 296.595 463.266 296.696C463.236 296.796 463.167 296.881 463.075 296.932C463.015 296.943 462.953 296.943 462.892 296.932C462.834 296.927 462.779 296.908 462.729 296.879C462.68 296.849 462.637 296.809 462.605 296.76H462.548ZM328.687 295.339C328.655 295.3 328.63 295.254 328.616 295.204C328.601 295.155 328.596 295.104 328.601 295.052C328.607 295.001 328.622 294.952 328.647 294.907C328.671 294.861 328.705 294.822 328.745 294.789C328.826 294.726 328.929 294.697 329.031 294.708C329.133 294.719 329.228 294.768 329.295 294.847C329.366 294.923 329.405 295.023 329.405 295.127C329.405 295.232 329.366 295.332 329.295 295.408C329.222 295.462 329.133 295.49 329.043 295.488C328.984 295.491 328.926 295.478 328.874 295.452C328.822 295.426 328.778 295.387 328.745 295.339H328.687ZM411.678 295.167C411.592 295.111 411.531 295.023 411.51 294.922C411.488 294.821 411.508 294.716 411.564 294.629C411.622 294.542 411.713 294.481 411.815 294.459C411.918 294.438 412.026 294.458 412.114 294.514C412.198 294.572 412.257 294.661 412.278 294.761C412.3 294.861 412.282 294.965 412.229 295.053C412.193 295.109 412.144 295.156 412.086 295.188C412.028 295.22 411.963 295.237 411.896 295.236C411.839 295.224 411.785 295.2 411.736 295.167H411.678ZM465.952 294.881C465.925 294.837 465.907 294.788 465.9 294.736C465.892 294.685 465.895 294.633 465.907 294.583C465.92 294.533 465.943 294.486 465.974 294.444C466.005 294.403 466.044 294.368 466.089 294.342C466.179 294.291 466.286 294.277 466.386 294.303C466.487 294.328 466.573 294.392 466.628 294.48C466.679 294.57 466.693 294.677 466.667 294.777C466.642 294.877 466.578 294.964 466.49 295.019C466.427 295.053 466.356 295.073 466.284 295.076C466.226 295.066 466.172 295.043 466.124 295.01C466.077 294.976 466.037 294.932 466.009 294.881H465.952ZM408.435 293.002C408.35 292.941 408.291 292.85 408.272 292.748C408.253 292.645 408.274 292.539 408.332 292.452C408.394 292.368 408.485 292.312 408.587 292.292C408.689 292.273 408.794 292.293 408.882 292.348C408.965 292.41 409.022 292.501 409.041 292.603C409.061 292.705 409.041 292.811 408.985 292.898C408.948 292.952 408.898 292.996 408.841 293.026C408.783 293.055 408.718 293.071 408.653 293.07C408.595 293.06 408.54 293.036 408.493 293.002H408.435ZM469.275 292.864C469.222 292.774 469.206 292.666 469.229 292.564C469.253 292.462 469.314 292.373 469.401 292.314C469.445 292.287 469.493 292.268 469.544 292.26C469.595 292.251 469.646 292.253 469.697 292.265C469.747 292.277 469.794 292.298 469.836 292.328C469.877 292.358 469.913 292.396 469.94 292.44C469.967 292.484 469.985 292.532 469.994 292.583C470.002 292.634 470 292.686 469.989 292.736C469.977 292.786 469.955 292.833 469.925 292.875C469.895 292.916 469.857 292.952 469.814 292.979C469.755 293.025 469.682 293.049 469.607 293.047C469.551 293.038 469.498 293.016 469.451 292.985C469.403 292.953 469.363 292.912 469.332 292.864H469.275ZM331.759 292.864C331.688 292.79 331.649 292.691 331.649 292.589C331.649 292.487 331.688 292.388 331.759 292.314C331.835 292.243 331.935 292.204 332.039 292.204C332.143 292.204 332.244 292.243 332.32 292.314C332.393 292.387 332.434 292.486 332.434 292.589C332.434 292.692 332.393 292.791 332.32 292.864C332.286 292.896 332.247 292.92 332.203 292.936C332.16 292.951 332.114 292.958 332.068 292.956C332.014 292.966 331.959 292.965 331.906 292.953C331.853 292.941 331.803 292.919 331.759 292.887V292.864ZM472.598 290.71C472.539 290.624 472.516 290.519 472.533 290.416C472.55 290.313 472.606 290.221 472.69 290.16C472.733 290.129 472.781 290.108 472.832 290.097C472.883 290.086 472.935 290.085 472.987 290.095C473.038 290.104 473.087 290.124 473.13 290.153C473.174 290.182 473.211 290.219 473.24 290.263C473.297 290.348 473.319 290.452 473.299 290.553C473.28 290.654 473.222 290.743 473.137 290.801C473.072 290.845 472.997 290.869 472.919 290.87C472.859 290.874 472.798 290.863 472.742 290.839C472.687 290.815 472.637 290.779 472.598 290.733V290.71ZM405.272 290.801C405.229 290.774 405.192 290.737 405.163 290.695C405.135 290.652 405.115 290.605 405.105 290.554C405.096 290.504 405.096 290.452 405.107 290.402C405.118 290.352 405.139 290.304 405.169 290.263C405.226 290.176 405.314 290.115 405.415 290.094C405.516 290.073 405.621 290.092 405.708 290.148C405.752 290.177 405.789 290.214 405.818 290.258C405.847 290.301 405.866 290.35 405.876 290.401C405.886 290.453 405.885 290.505 405.874 290.556C405.863 290.607 405.841 290.656 405.811 290.698C405.777 290.752 405.73 290.797 405.674 290.827C405.617 290.857 405.554 290.872 405.49 290.87C405.415 290.876 405.339 290.86 405.272 290.824V290.801ZM334.749 290.366C334.712 290.331 334.682 290.288 334.662 290.241C334.641 290.193 334.631 290.142 334.631 290.091C334.631 290.039 334.641 289.988 334.662 289.941C334.682 289.894 334.712 289.851 334.749 289.816C334.824 289.746 334.922 289.707 335.025 289.707C335.127 289.707 335.225 289.746 335.3 289.816C335.372 289.889 335.413 289.988 335.413 290.091C335.413 290.194 335.372 290.293 335.3 290.366C335.23 290.427 335.14 290.46 335.047 290.458C334.996 290.468 334.942 290.468 334.891 290.456C334.84 290.444 334.791 290.421 334.749 290.389V290.366ZM402.041 288.647C401.997 288.62 401.959 288.585 401.929 288.543C401.899 288.501 401.878 288.453 401.867 288.402C401.857 288.352 401.856 288.3 401.866 288.249C401.877 288.199 401.897 288.151 401.926 288.108C401.953 288.064 401.989 288.026 402.031 287.996C402.073 287.966 402.12 287.945 402.171 287.935C402.221 287.924 402.273 287.924 402.324 287.934C402.375 287.944 402.422 287.964 402.465 287.994C402.551 288.05 402.612 288.138 402.634 288.239C402.655 288.34 402.636 288.446 402.579 288.532C402.546 288.586 402.498 288.631 402.442 288.661C402.386 288.691 402.322 288.706 402.259 288.704C402.184 288.715 402.108 288.703 402.041 288.67V288.647ZM475.784 288.464C475.753 288.423 475.73 288.377 475.718 288.328C475.705 288.279 475.702 288.228 475.71 288.177C475.717 288.127 475.735 288.079 475.761 288.035C475.788 287.992 475.823 287.954 475.864 287.925C475.949 287.865 476.053 287.839 476.155 287.854C476.258 287.869 476.351 287.923 476.414 288.005C476.473 288.091 476.497 288.196 476.48 288.299C476.463 288.401 476.406 288.493 476.323 288.555C476.255 288.6 476.175 288.624 476.093 288.624C476.035 288.629 475.975 288.618 475.921 288.594C475.867 288.57 475.82 288.533 475.784 288.486V288.464ZM337.74 287.879C337.668 287.806 337.627 287.707 337.627 287.604C337.627 287.501 337.668 287.402 337.74 287.329C337.822 287.266 337.925 287.237 338.027 287.248C338.129 287.258 338.224 287.308 338.291 287.386C338.323 287.426 338.347 287.472 338.362 287.521C338.377 287.571 338.382 287.622 338.376 287.673C338.371 287.724 338.356 287.774 338.331 287.819C338.307 287.864 338.273 287.904 338.233 287.936C338.199 287.968 338.16 287.992 338.116 288.008C338.073 288.024 338.027 288.031 337.981 288.028C337.888 288.017 337.802 287.972 337.74 287.902V287.879ZM398.798 286.55C398.754 286.523 398.716 286.488 398.686 286.446C398.656 286.404 398.634 286.357 398.623 286.307C398.611 286.257 398.609 286.205 398.618 286.154C398.626 286.103 398.644 286.055 398.672 286.011C398.699 285.967 398.734 285.929 398.776 285.899C398.817 285.869 398.865 285.848 398.915 285.836C398.965 285.824 399.017 285.823 399.067 285.831C399.118 285.839 399.167 285.858 399.21 285.885C399.254 285.912 399.292 285.947 399.322 285.989C399.352 286.031 399.374 286.078 399.386 286.128C399.397 286.178 399.399 286.23 399.39 286.281C399.382 286.332 399.364 286.38 399.336 286.424C399.302 286.482 399.253 286.53 399.195 286.564C399.137 286.598 399.071 286.617 399.004 286.619C398.93 286.619 398.857 286.594 398.798 286.55ZM478.924 286.137C478.892 286.097 478.869 286.05 478.855 286.001C478.841 285.951 478.837 285.899 478.843 285.848C478.85 285.797 478.866 285.747 478.892 285.703C478.918 285.658 478.952 285.619 478.993 285.587C479.033 285.555 479.08 285.532 479.129 285.518C479.179 285.504 479.231 285.5 479.282 285.507C479.333 285.513 479.383 285.53 479.427 285.555C479.472 285.581 479.511 285.615 479.543 285.656C479.602 285.74 479.627 285.843 479.615 285.944C479.602 286.046 479.552 286.139 479.474 286.206C479.409 286.259 479.328 286.287 479.245 286.286C479.182 286.295 479.117 286.288 479.057 286.266C478.997 286.244 478.944 286.208 478.901 286.16L478.924 286.137ZM340.812 285.473C340.751 285.388 340.726 285.284 340.741 285.181C340.756 285.079 340.81 284.986 340.892 284.923C340.976 284.862 341.081 284.837 341.183 284.852C341.286 284.867 341.378 284.921 341.442 285.003C341.502 285.087 341.528 285.191 341.513 285.294C341.498 285.396 341.444 285.489 341.362 285.553C341.295 285.601 341.215 285.629 341.133 285.633C341.068 285.639 341.004 285.63 340.944 285.606C340.884 285.582 340.831 285.544 340.789 285.495L340.812 285.473ZM395.463 284.567C395.418 284.541 395.379 284.507 395.348 284.465C395.317 284.424 395.294 284.377 395.281 284.327C395.268 284.277 395.266 284.224 395.273 284.173C395.281 284.122 395.299 284.073 395.325 284.029C395.35 283.984 395.384 283.945 395.424 283.914C395.464 283.883 395.511 283.861 395.56 283.848C395.609 283.835 395.66 283.832 395.711 283.84C395.761 283.847 395.809 283.865 395.853 283.891C395.898 283.915 395.938 283.948 395.97 283.988C396.002 284.028 396.026 284.073 396.04 284.123C396.054 284.172 396.058 284.224 396.051 284.275C396.045 284.325 396.028 284.374 396.002 284.418C395.967 284.48 395.918 284.531 395.857 284.567C395.797 284.604 395.728 284.623 395.658 284.625C395.584 284.631 395.509 284.619 395.44 284.59L395.463 284.567ZM481.961 283.708C481.928 283.668 481.904 283.622 481.889 283.573C481.874 283.524 481.87 283.472 481.875 283.421C481.88 283.37 481.896 283.32 481.92 283.275C481.945 283.23 481.978 283.19 482.018 283.158C482.058 283.125 482.104 283.101 482.153 283.086C482.202 283.071 482.254 283.067 482.305 283.072C482.356 283.077 482.406 283.093 482.451 283.117C482.496 283.142 482.536 283.175 482.568 283.215C482.638 283.289 482.677 283.388 482.677 283.49C482.677 283.592 482.638 283.691 482.568 283.765C482.495 283.82 482.407 283.852 482.316 283.857C482.248 283.872 482.176 283.868 482.11 283.846C482.043 283.824 481.984 283.784 481.938 283.731L481.961 283.708ZM343.975 283.204C343.944 283.161 343.923 283.113 343.912 283.062C343.901 283.011 343.9 282.958 343.91 282.907C343.919 282.855 343.939 282.807 343.968 282.763C343.997 282.72 344.034 282.682 344.078 282.654C344.166 282.597 344.273 282.577 344.376 282.598C344.479 282.62 344.569 282.681 344.628 282.768C344.684 282.855 344.703 282.96 344.682 283.061C344.66 283.162 344.6 283.25 344.513 283.307C344.449 283.352 344.373 283.376 344.295 283.375C344.23 283.381 344.165 283.37 344.105 283.344C344.045 283.318 343.992 283.277 343.952 283.226L343.975 283.204ZM392.105 282.722C392.014 282.674 391.946 282.591 391.916 282.492C391.886 282.393 391.896 282.286 391.945 282.195C391.968 282.149 392 282.108 392.039 282.074C392.078 282.041 392.123 282.015 392.173 281.999C392.222 281.983 392.273 281.977 392.325 281.981C392.376 281.985 392.426 282 392.472 282.023C392.562 282.076 392.629 282.16 392.661 282.26C392.693 282.359 392.687 282.467 392.644 282.562C392.607 282.623 392.555 282.675 392.493 282.711C392.431 282.747 392.361 282.767 392.289 282.768C392.205 282.791 392.115 282.782 392.037 282.745L392.105 282.722ZM484.929 281.198C484.856 281.125 484.815 281.026 484.815 280.923C484.815 280.82 484.856 280.721 484.929 280.648C485.003 280.578 485.102 280.539 485.204 280.539C485.306 280.539 485.405 280.578 485.479 280.648C485.549 280.722 485.588 280.821 485.588 280.923C485.588 281.025 485.549 281.124 485.479 281.198C485.446 281.231 485.406 281.257 485.363 281.275C485.32 281.292 485.274 281.302 485.227 281.301C485.173 281.311 485.117 281.308 485.064 281.294C485.01 281.281 484.96 281.256 484.917 281.221L484.929 281.198ZM347.229 281.152C347.203 281.107 347.186 281.058 347.179 281.006C347.172 280.954 347.176 280.902 347.19 280.851C347.204 280.801 347.228 280.754 347.26 280.713C347.292 280.673 347.332 280.639 347.378 280.614C347.468 280.564 347.574 280.552 347.672 280.58C347.771 280.608 347.855 280.673 347.905 280.763C347.932 280.808 347.949 280.857 347.955 280.909C347.962 280.961 347.958 281.013 347.945 281.063C347.931 281.114 347.907 281.161 347.874 281.201C347.842 281.242 347.802 281.276 347.756 281.301C347.692 281.316 347.626 281.316 347.561 281.301C347.498 281.305 347.435 281.294 347.377 281.268C347.319 281.242 347.268 281.202 347.229 281.152ZM388.541 281.084C388.495 281.062 388.453 281.032 388.418 280.995C388.382 280.958 388.355 280.914 388.337 280.866C388.319 280.818 388.31 280.767 388.312 280.716C388.314 280.665 388.325 280.614 388.347 280.568C388.368 280.521 388.398 280.479 388.435 280.444C388.472 280.409 388.516 280.382 388.564 280.364C388.612 280.345 388.663 280.337 388.714 280.339C388.765 280.34 388.816 280.352 388.862 280.373C388.91 280.393 388.953 280.422 388.989 280.459C389.025 280.496 389.053 280.54 389.071 280.589C389.089 280.637 389.098 280.689 389.095 280.74C389.093 280.792 389.08 280.842 389.057 280.889C389.026 280.957 388.976 281.015 388.913 281.056C388.85 281.096 388.777 281.118 388.702 281.118C388.65 281.116 388.6 281.104 388.553 281.084H388.541ZM384.977 279.674C384.928 279.658 384.883 279.631 384.844 279.596C384.805 279.561 384.774 279.519 384.753 279.472C384.731 279.424 384.72 279.373 384.719 279.321C384.718 279.269 384.728 279.218 384.748 279.17C384.787 279.074 384.86 278.997 384.954 278.954C385.048 278.911 385.155 278.907 385.252 278.941C385.348 278.979 385.425 279.053 385.468 279.147C385.511 279.241 385.516 279.347 385.482 279.445C385.455 279.52 385.405 279.585 385.339 279.631C385.273 279.676 385.195 279.699 385.115 279.697C385.068 279.701 385.021 279.693 384.977 279.674ZM350.667 279.353C350.627 279.259 350.626 279.152 350.662 279.057C350.698 278.961 350.77 278.882 350.862 278.837C350.909 278.815 350.96 278.801 351.013 278.799C351.065 278.796 351.118 278.804 351.167 278.823C351.216 278.841 351.261 278.869 351.299 278.905C351.338 278.941 351.368 278.984 351.389 279.032C351.41 279.08 351.421 279.131 351.422 279.182C351.423 279.234 351.413 279.285 351.394 279.333C351.375 279.381 351.346 279.425 351.31 279.462C351.274 279.499 351.23 279.528 351.183 279.548C351.13 279.56 351.075 279.56 351.022 279.548C350.951 279.551 350.88 279.535 350.817 279.5C350.755 279.466 350.703 279.415 350.667 279.353ZM381.299 278.425C381.199 278.393 381.116 278.324 381.067 278.232C381.018 278.14 381.006 278.032 381.035 277.932C381.067 277.833 381.136 277.75 381.228 277.7C381.32 277.651 381.428 277.64 381.528 277.669C381.627 277.7 381.711 277.769 381.76 277.861C381.809 277.953 381.82 278.061 381.792 278.161C381.765 278.241 381.715 278.31 381.647 278.36C381.579 278.409 381.497 278.436 381.413 278.436H381.299V278.425ZM354.265 277.886C354.249 277.837 354.243 277.786 354.247 277.734C354.251 277.683 354.265 277.633 354.289 277.587C354.312 277.542 354.344 277.501 354.384 277.468C354.423 277.434 354.468 277.409 354.517 277.394C354.566 277.377 354.618 277.371 354.669 277.375C354.721 277.379 354.771 277.393 354.816 277.417C354.862 277.44 354.903 277.473 354.936 277.512C354.969 277.551 354.995 277.597 355.01 277.646C355.026 277.695 355.032 277.746 355.028 277.797C355.024 277.849 355.01 277.899 354.987 277.945C354.963 277.99 354.931 278.031 354.892 278.064C354.853 278.098 354.807 278.123 354.758 278.138H354.632C354.554 278.137 354.479 278.112 354.416 278.067C354.353 278.022 354.304 277.959 354.277 277.886H354.265ZM377.563 277.474C377.463 277.452 377.376 277.391 377.32 277.306C377.264 277.22 377.245 277.116 377.265 277.015C377.274 276.964 377.294 276.915 377.323 276.872C377.353 276.828 377.39 276.791 377.435 276.763C377.479 276.735 377.528 276.717 377.58 276.709C377.632 276.701 377.684 276.704 377.735 276.717C377.785 276.727 377.833 276.746 377.875 276.775C377.918 276.803 377.954 276.84 377.982 276.883C378.01 276.926 378.029 276.974 378.037 277.024C378.046 277.074 378.045 277.126 378.033 277.176C378.014 277.265 377.965 277.344 377.894 277.401C377.823 277.457 377.734 277.487 377.643 277.485H377.563V277.474ZM357.99 276.821C357.978 276.769 357.977 276.716 357.986 276.664C357.996 276.613 358.015 276.563 358.044 276.52C358.073 276.476 358.111 276.438 358.154 276.409C358.198 276.38 358.247 276.36 358.299 276.351C358.399 276.33 358.504 276.35 358.589 276.406C358.675 276.461 358.736 276.549 358.758 276.649C358.769 276.699 358.771 276.751 358.762 276.802C358.754 276.854 358.735 276.902 358.707 276.946C358.679 276.99 358.643 277.028 358.601 277.057C358.558 277.087 358.51 277.108 358.46 277.118H358.379C358.293 277.116 358.209 277.086 358.141 277.033C358.072 276.979 358.024 276.904 358.001 276.821H357.99ZM373.77 276.821C373.667 276.804 373.575 276.747 373.513 276.664C373.451 276.581 373.424 276.477 373.437 276.374C373.443 276.323 373.459 276.273 373.484 276.229C373.509 276.184 373.543 276.145 373.584 276.114C373.625 276.083 373.671 276.061 373.721 276.048C373.771 276.035 373.822 276.033 373.873 276.041C373.975 276.058 374.067 276.114 374.129 276.198C374.191 276.281 374.219 276.385 374.205 276.488C374.189 276.58 374.142 276.664 374.07 276.725C373.999 276.785 373.909 276.819 373.816 276.821H373.758H373.77ZM361.817 276.167C361.808 276.066 361.838 275.964 361.903 275.885C361.967 275.806 362.06 275.755 362.161 275.743C362.213 275.735 362.265 275.738 362.316 275.751C362.366 275.764 362.413 275.788 362.454 275.82C362.495 275.852 362.529 275.893 362.553 275.939C362.578 275.985 362.592 276.035 362.597 276.087C362.606 276.192 362.574 276.296 362.508 276.377C362.442 276.459 362.346 276.511 362.241 276.523C362.139 276.526 362.039 276.49 361.962 276.421C361.885 276.353 361.838 276.258 361.829 276.156L361.817 276.167ZM369.931 276.419C369.879 276.418 369.828 276.406 369.781 276.384C369.734 276.363 369.692 276.331 369.658 276.293C369.624 276.254 369.598 276.209 369.581 276.159C369.565 276.11 369.559 276.058 369.564 276.007C369.567 275.956 369.58 275.906 369.602 275.859C369.625 275.813 369.656 275.772 369.694 275.738C369.733 275.704 369.777 275.678 369.826 275.661C369.874 275.644 369.925 275.637 369.977 275.64C370.081 275.649 370.178 275.698 370.246 275.777C370.315 275.857 370.35 275.96 370.343 276.064C370.337 276.163 370.294 276.257 370.221 276.325C370.149 276.393 370.053 276.431 369.954 276.431L369.931 276.419ZM365.691 275.915C365.689 275.864 365.698 275.812 365.717 275.764C365.736 275.716 365.765 275.673 365.801 275.636C365.838 275.6 365.881 275.571 365.929 275.552C365.977 275.533 366.029 275.524 366.08 275.526C366.184 275.526 366.283 275.567 366.356 275.64C366.429 275.713 366.47 275.812 366.47 275.915C366.47 276.019 366.429 276.118 366.356 276.191C366.283 276.264 366.184 276.305 366.08 276.305C366.029 276.303 365.979 276.292 365.932 276.271C365.885 276.25 365.843 276.22 365.808 276.183C365.773 276.145 365.746 276.102 365.727 276.054C365.709 276.006 365.701 275.955 365.702 275.904L365.691 275.915Z" fill="white"/>
<path d="M289.071 302.594C289.022 302.605 288.971 302.605 288.922 302.594C288.873 302.575 288.83 302.543 288.796 302.503C288.757 302.47 288.728 302.426 288.716 302.376C288.704 302.327 288.704 302.276 288.716 302.227C288.719 302.125 288.76 302.027 288.83 301.952C288.865 301.915 288.908 301.887 288.957 301.872C289.003 301.85 289.054 301.838 289.106 301.838C289.157 301.838 289.208 301.85 289.255 301.872C289.304 301.885 289.348 301.913 289.381 301.952C289.418 301.988 289.447 302.031 289.466 302.078C289.486 302.125 289.496 302.176 289.496 302.227C289.508 302.276 289.508 302.327 289.496 302.376C289.478 302.427 289.446 302.471 289.404 302.503C289.37 302.543 289.327 302.575 289.278 302.594C289.211 302.617 289.138 302.617 289.071 302.594Z" fill="white"/>
</g>
<path d="M351.905 185.258L349.235 182.37C344.413 186.931 338.041 189.495 331.403 189.544C326.137 189.627 321.009 187.853 316.919 184.534C312.829 181.215 310.037 176.562 309.034 171.392L305.023 172.446L301.356 173.409C302.398 178.822 304.934 183.836 308.679 187.882C320.31 200.419 340.926 200.419 354.357 187.882L351.905 185.258Z" fill="white"/>
<path d="M357.623 142.215L354.105 145.481L351.687 147.773C353.822 150.089 355.453 152.823 356.479 155.801C357.504 158.779 357.902 161.937 357.646 165.077C357.126 171.703 354.122 177.888 349.235 182.393L351.332 184.685L354.357 187.939C360.803 181.988 364.764 173.823 365.45 165.077C365.792 160.933 365.273 156.762 363.926 152.828C362.58 148.893 360.434 145.28 357.623 142.215Z" fill="#263238"/>
<path d="M357.623 142.214C345.992 129.689 325.376 129.689 311.956 142.214C307.709 146.102 304.513 151 302.666 156.454C300.819 161.907 300.38 167.739 301.39 173.408L305.974 172.262L309.114 171.437C308.713 169.35 308.59 167.219 308.748 165.099C309.304 158.489 312.298 152.322 317.148 147.796C321.998 143.27 328.357 140.709 334.99 140.61C338.135 140.576 341.252 141.196 344.144 142.431C347.037 143.666 349.64 145.489 351.79 147.784L354.884 144.885L357.623 142.214Z" fill="#4B0082"/>
<path d="M390.547 185.257L393.63 182.37C391.502 180.052 389.877 177.32 388.857 174.343C387.837 171.367 387.445 168.212 387.705 165.077C388.175 159.569 390.333 154.34 393.886 150.105C397.438 145.87 402.211 142.834 407.553 141.413L406.774 137.47L406.075 133.872C400.435 135.375 395.255 138.249 390.994 142.238C377.563 154.763 376.096 175.379 387.716 187.916L390.547 185.257Z" fill="white"/>
<path d="M433.395 187.894L430.358 184.616L428.272 182.324C423.453 186.891 417.08 189.458 410.441 189.509C407.295 189.544 404.175 188.924 401.281 187.689C398.387 186.454 395.782 184.631 393.63 182.336L391.212 184.628L387.716 187.894C390.559 190.912 393.995 193.311 397.81 194.938C401.624 196.565 405.733 197.385 409.879 197.348C418.629 197.273 427.028 193.896 433.395 187.894Z" fill="#263238"/>
<path d="M433.395 187.894C446.814 175.357 448.292 154.741 436.672 142.215C432.811 138.176 427.924 135.263 422.533 133.789C417.143 132.316 411.454 132.336 406.075 133.85L406.946 138.307L407.553 141.39C409.64 140.843 411.789 140.565 413.948 140.565C417.099 140.519 420.226 141.135 423.124 142.375C426.023 143.614 428.628 145.449 430.772 147.76C432.916 150.071 434.55 152.807 435.568 155.79C436.587 158.774 436.967 161.938 436.684 165.077C436.16 171.699 433.156 177.879 428.272 182.381L430.954 185.281L433.395 187.894Z" fill="#4B0082"/>
<path opacity="0.3" d="M487.519 135.637C487.834 135.637 488.146 135.701 488.435 135.826C488.724 135.951 488.984 136.134 489.199 136.364C489.414 136.594 489.579 136.866 489.685 137.163C489.79 137.46 489.833 137.775 489.811 138.09L488.39 157.858C488.323 158.556 488.003 159.206 487.49 159.686C486.977 160.165 486.307 160.44 485.605 160.459H465.826C465.51 160.46 465.197 160.395 464.907 160.27C464.617 160.144 464.356 159.959 464.141 159.728C463.926 159.497 463.761 159.223 463.656 158.925C463.552 158.627 463.51 158.31 463.534 157.995L464.943 138.227C465.01 137.53 465.331 136.881 465.844 136.404C466.357 135.926 467.027 135.654 467.728 135.637H487.496M487.496 134.617H467.751C466.793 134.636 465.877 135.008 465.176 135.662C464.476 136.315 464.042 137.204 463.958 138.158L462.548 157.926C462.51 158.379 462.566 158.834 462.714 159.264C462.862 159.693 463.097 160.087 463.406 160.42C463.714 160.753 464.089 161.018 464.505 161.199C464.922 161.379 465.372 161.471 465.826 161.467H485.594C486.552 161.451 487.47 161.08 488.171 160.426C488.872 159.772 489.305 158.881 489.387 157.926L490.808 138.158C490.846 137.705 490.789 137.249 490.641 136.818C490.493 136.388 490.256 135.994 489.946 135.661C489.637 135.327 489.261 135.062 488.843 134.883C488.425 134.703 487.974 134.613 487.519 134.617H487.496Z" fill="#4B0082"/>
<path opacity="0.3" d="M485.078 169.661C485.393 169.66 485.705 169.724 485.994 169.849C486.283 169.974 486.543 170.158 486.758 170.388C486.973 170.618 487.139 170.89 487.244 171.187C487.349 171.484 487.392 171.799 487.37 172.113L485.96 191.881C485.891 192.579 485.57 193.228 485.058 193.706C484.546 194.185 483.877 194.461 483.176 194.482H463.396C463.08 194.483 462.767 194.419 462.478 194.293C462.188 194.167 461.927 193.983 461.712 193.752C461.496 193.52 461.331 193.247 461.227 192.949C461.122 192.65 461.081 192.334 461.104 192.019L462.525 172.251C462.592 171.553 462.913 170.904 463.426 170.427C463.939 169.95 464.609 169.677 465.31 169.661H485.067M485.067 168.641H465.321C464.363 168.657 463.445 169.028 462.744 169.682C462.044 170.336 461.61 171.227 461.528 172.182L460.107 191.95C460.069 192.403 460.126 192.86 460.274 193.29C460.422 193.72 460.659 194.114 460.969 194.448C461.278 194.781 461.654 195.046 462.072 195.226C462.49 195.405 462.941 195.496 463.396 195.491H483.164C484.122 195.472 485.039 195.1 485.739 194.447C486.439 193.793 486.873 192.904 486.957 191.95L488.367 172.182C488.405 171.728 488.348 171.272 488.2 170.842C488.052 170.412 487.815 170.017 487.506 169.684C487.196 169.351 486.82 169.086 486.402 168.906C485.984 168.726 485.533 168.636 485.078 168.641H485.067Z" fill="#4B0082"/>
<path d="M456.097 279.021C456.362 279.014 456.626 279.063 456.871 279.166C457.116 279.269 457.336 279.422 457.518 279.616C457.697 279.813 457.834 280.045 457.919 280.298C458.004 280.55 458.035 280.818 458.01 281.083C457.96 281.678 457.69 282.234 457.254 282.642C456.818 283.05 456.247 283.283 455.65 283.295C455.383 283.303 455.118 283.254 454.872 283.151C454.626 283.048 454.405 282.894 454.224 282.698C454.043 282.503 453.906 282.271 453.821 282.018C453.737 281.765 453.708 281.497 453.736 281.232C453.784 280.636 454.053 280.079 454.489 279.671C454.926 279.262 455.499 279.03 456.097 279.021ZM456.097 278.012C455.246 278.026 454.431 278.355 453.809 278.935C453.186 279.515 452.801 280.305 452.727 281.152C452.69 281.556 452.739 281.963 452.869 282.347C453 282.73 453.21 283.082 453.486 283.38C453.761 283.677 454.096 283.913 454.469 284.072C454.842 284.231 455.244 284.31 455.65 284.303C456.502 284.289 457.319 283.959 457.941 283.377C458.564 282.794 458.948 282.002 459.019 281.152C459.054 280.749 459.005 280.344 458.873 279.961C458.742 279.579 458.531 279.228 458.256 278.932C457.981 278.636 457.646 278.401 457.274 278.243C456.902 278.084 456.501 278.006 456.097 278.012Z" fill="#4B0082"/>
<path d="M456.395 278.024L455.89 277.99L455.97 276.98L456.463 277.015L456.395 278.024Z" fill="#4B0082"/>
<path d="M456.612 274.953H456.108L456.257 272.89H456.761L456.612 274.953ZM456.91 270.805H456.406L456.555 268.742H457.059L456.91 270.805ZM457.208 266.668H456.704L456.853 264.593H457.357L457.208 266.668ZM457.506 262.531H457.002L457.151 260.456H457.655L457.506 262.531ZM457.804 258.394H457.3L457.449 256.319H457.953L457.804 258.394ZM458.102 254.257H457.598L457.747 252.183H458.251L458.102 254.257ZM458.4 250.108H457.896L458.045 248.046H458.549L458.4 250.108ZM458.698 245.971H458.194L458.343 243.897H458.847L458.698 245.971ZM458.996 241.834H458.492L458.64 239.76H459.145L458.996 241.834ZM459.282 237.697H458.778L458.927 235.623H459.431L459.282 237.697ZM459.58 233.561H459.076L459.225 231.486H459.729L459.58 233.561Z" fill="#4B0082"/>
<path d="M459.433 228.373L459.362 229.38L459.865 229.416L459.937 228.409L459.433 228.373Z" fill="#4B0082"/>
<path d="M481.056 228.942H299.603C299.106 228.947 298.613 228.847 298.158 228.65C297.702 228.452 297.292 228.161 296.955 227.796C296.616 227.43 296.356 226.998 296.192 226.527C296.028 226.055 295.964 225.555 296.004 225.057L296.91 212.566C296.995 211.544 297.458 210.591 298.208 209.892C298.958 209.193 299.941 208.798 300.966 208.784H482.454C482.949 208.781 483.44 208.881 483.895 209.078C484.35 209.274 484.759 209.563 485.096 209.926C485.434 210.29 485.692 210.719 485.854 211.187C486.017 211.655 486.08 212.152 486.041 212.646L485.147 225.137C485.064 226.168 484.598 227.13 483.84 227.834C483.083 228.539 482.09 228.934 481.056 228.942ZM300.966 209.884C300.216 209.896 299.496 210.186 298.948 210.699C298.399 211.211 298.061 211.91 297.998 212.658L297.104 225.149C297.075 225.496 297.118 225.845 297.231 226.174C297.343 226.503 297.523 226.806 297.758 227.062C297.994 227.313 298.281 227.512 298.598 227.646C298.916 227.78 299.258 227.847 299.603 227.842H481.056C481.807 227.833 482.528 227.543 483.077 227.03C483.626 226.517 483.964 225.818 484.024 225.068L484.929 212.577C484.956 212.235 484.912 211.891 484.8 211.567C484.688 211.242 484.51 210.945 484.278 210.692C484.045 210.439 483.764 210.237 483.45 210.098C483.136 209.959 482.797 209.886 482.454 209.884H300.966Z" fill="#4B0082"/>
<path opacity="0.8" fill-rule="evenodd" clip-rule="evenodd" d="M477.159 216.852H305.149C304.93 216.854 304.712 216.811 304.511 216.724C304.31 216.638 304.129 216.51 303.98 216.349C303.831 216.188 303.717 215.998 303.646 215.79C303.575 215.583 303.548 215.363 303.568 215.144C303.61 214.687 303.819 214.261 304.155 213.949C304.491 213.636 304.931 213.458 305.39 213.448H477.411C477.629 213.446 477.845 213.489 478.045 213.575C478.245 213.661 478.425 213.788 478.573 213.948C478.72 214.108 478.833 214.297 478.904 214.503C478.974 214.709 479 214.927 478.981 215.144C478.944 215.605 478.737 216.035 478.4 216.35C478.063 216.666 477.621 216.845 477.159 216.852Z" fill="white"/>
<path opacity="0.8" fill-rule="evenodd" clip-rule="evenodd" d="M448.499 224.014H304.634C304.416 224.017 304.2 223.974 304 223.888C303.8 223.802 303.62 223.675 303.472 223.515C303.325 223.355 303.212 223.166 303.141 222.96C303.071 222.754 303.044 222.535 303.064 222.318C303.101 221.858 303.308 221.428 303.645 221.113C303.982 220.797 304.424 220.618 304.886 220.611H448.739C448.968 220.601 449.196 220.641 449.407 220.728C449.618 220.815 449.808 220.947 449.963 221.115C450.118 221.283 450.235 221.483 450.304 221.701C450.374 221.919 450.395 222.149 450.367 222.376C450.311 222.83 450.089 223.249 449.745 223.551C449.4 223.853 448.957 224.018 448.499 224.014Z" fill="white"/>
</g>
<defs>
<clipPath id="clip0_4893_37385">
<rect width="572.985" height="427" fill="white"/>
</clipPath>
</defs>
</svg>
