<svg width="573" height="427" viewBox="0 0 573 427" fill="none" xmlns="http://www.w3.org/2000/svg">
<g clipPath="url(#clip0_4893_37646)">
<path d="M572.985 375.248H0V375.535H572.985V375.248Z" fill="#EBEBEB"/>
<path d="M271.595 324.138H50.3306C48.5952 324.138 46.9308 323.449 45.7037 322.221C44.4765 320.994 43.7871 319.33 43.7871 317.595V6.54381C43.8022 4.81832 44.4983 3.16864 45.7238 1.95386C46.9493 0.739083 48.605 0.057551 50.3306 0.0576172H271.595C273.33 0.0576172 274.994 0.747019 276.221 1.97416C277.449 3.2013 278.138 4.86566 278.138 6.60111V317.595C278.138 319.33 277.449 320.994 276.221 322.221C274.994 323.449 273.33 324.138 271.595 324.138ZM50.3306 0.286812C48.6721 0.289841 47.0823 0.95003 45.9096 2.12279C44.7368 3.29555 44.0766 4.88528 44.0736 6.54381V317.595C44.0766 319.253 44.7368 320.843 45.9096 322.016C47.0823 323.188 48.6721 323.848 50.3306 323.852H271.595C273.253 323.848 274.843 323.188 276.016 322.016C277.188 320.843 277.849 319.253 277.852 317.595V6.54381C277.849 4.88528 277.188 3.29555 276.016 2.12279C274.843 0.95003 273.253 0.289841 271.595 0.286812H50.3306Z" fill="#EBEBEB"/>
<path d="M519.48 324.138H298.193C296.458 324.135 294.796 323.445 293.569 322.218C292.343 320.992 291.652 319.329 291.649 317.595V6.54381C291.668 4.81925 292.365 3.17131 293.589 1.95717C294.814 0.743032 296.468 0.0605375 298.193 0.0576172H519.48C521.201 0.0635814 522.851 0.747777 524.072 1.96191C525.292 3.17604 525.985 4.82228 526 6.54381V317.595C526 319.326 525.314 320.987 524.092 322.213C522.87 323.44 521.211 324.132 519.48 324.138ZM298.193 0.286812C296.534 0.289841 294.945 0.95003 293.772 2.12279C292.599 3.29555 291.939 4.88528 291.936 6.54381V317.595C291.939 319.253 292.599 320.843 293.772 322.016C294.945 323.188 296.534 323.848 298.193 323.852H519.48C521.138 323.848 522.728 323.188 523.901 322.016C525.074 320.843 525.734 319.253 525.737 317.595V6.54381C525.734 4.88528 525.074 3.29555 523.901 2.12279C522.728 0.95003 521.138 0.289841 519.48 0.286812H298.193Z" fill="#EBEBEB"/>
<path d="M85.5693 224.988L255.608 224.988L255.608 45.5522L85.5693 45.5522L85.5693 224.988Z" fill="#E6E6E6"/>
<path d="M78.339 224.988L252.229 224.988L252.229 45.5522L78.339 45.5522L78.339 224.988Z" fill="#BFABD3"/>
<path d="M85.5693 231.704L255.608 231.704V225L85.5693 225V231.704Z" fill="#E6E6E6"/>
<path d="M66.3292 231.704L240.219 231.704V225L66.3292 225V231.704Z" fill="#9881AE"/>
<path d="M242.132 214.881V55.6484L88.4458 55.6484V214.881H242.132Z" fill="#F0EBF4"/>
<path d="M189.796 214.892L165.409 55.6484H137.425L161.811 214.892H189.796Z" fill="white"/>
<path d="M155.795 214.892L131.409 55.6484H120.499L144.885 214.892H155.795Z" fill="white"/>
<path d="M100.846 215.442L100.846 56.1523H88.24L88.24 215.442H100.846Z" fill="#DFD2EB"/>
<path d="M313.114 375.236H332.664L332.664 138.616H313.114V375.236Z" fill="#DFD2EB"/>
<path d="M318.247 375.248H313.102V365.634H323.633L318.247 375.248Z" fill="#DFD2EB"/>
<path d="M471.349 375.236H490.899L490.899 138.616H471.349V375.236Z" fill="#DFD2EB"/>
<path d="M313.102 371.891H475.83L475.83 138.628L313.102 138.628V371.891Z" fill="#DFD2EB"/>
<path d="M320.803 210.034L468.129 210.034C470.179 210.034 471.842 208.372 471.842 206.321V146.158C471.842 144.107 470.179 142.445 468.129 142.445H320.803C318.752 142.445 317.09 144.107 317.09 146.158V206.321C317.09 208.372 318.752 210.034 320.803 210.034Z" fill="#E6E6E6"/>
<path d="M320.803 288.544H468.129C470.179 288.544 471.842 286.882 471.842 284.831V224.668C471.842 222.617 470.179 220.955 468.129 220.955H320.803C318.752 220.955 317.09 222.617 317.09 224.668V284.831C317.09 286.882 318.752 288.544 320.803 288.544Z" fill="#F0EBF4"/>
<path d="M320.803 367.066H468.129C470.179 367.066 471.842 365.404 471.842 363.353V303.19C471.842 301.139 470.179 299.477 468.129 299.477H320.803C318.752 299.477 317.09 301.139 317.09 303.19V363.353C317.09 365.404 318.752 367.066 320.803 367.066Z" fill="#F0EBF4"/>
<path d="M363.365 150.787H422.118C424.594 150.787 426.966 147.097 428.662 140.6H356.81C358.517 147.097 360.889 150.787 363.365 150.787Z" fill="#F0F0F0"/>
<path d="M363.365 229.252H422.118C424.594 229.252 426.966 225.574 428.662 219.064H356.81C358.517 225.619 360.889 229.252 363.365 229.252Z" fill="#F0F0F0"/>
<path d="M363.365 307.808H422.118C424.594 307.808 426.966 304.129 428.662 297.62H356.81C358.517 304.129 360.889 307.808 363.365 307.808Z" fill="#F0F0F0"/>
<path d="M436.019 105.877C436.019 105.877 436.282 138.892 446.241 138.892C456.199 138.892 456.474 105.877 456.474 105.877H436.019Z" fill="#E6E6E6"/>
<path d="M328.516 106.117C328.516 106.117 329.157 138.892 353.991 138.892C378.824 138.892 379.465 106.117 379.465 106.117H328.516Z" fill="#E6E6E6"/>
<path d="M360.259 114.345C360.259 114.345 360.74 138.891 379.339 138.891C397.938 138.891 398.42 114.345 398.42 114.345H360.259Z" fill="#F0F0F0"/>
<path d="M385.046 120.9C385.046 120.9 385.401 138.892 399.027 138.892C412.652 138.892 413.008 120.9 413.008 120.9H385.046Z" fill="#EBEBEB"/>
<path d="M452.658 110.724C452.531 110.726 452.406 110.699 452.291 110.644C451.145 110.082 441.691 105.086 442.333 100.204C442.66 98.4962 443.365 96.8831 444.396 95.4825C445.725 93.3854 446.688 91.8842 445.026 89.6152C442.482 86.1772 445.255 83.3238 447.708 80.8256C448.877 79.7537 449.894 78.5277 450.733 77.1814C451.741 75.302 450.928 73.8695 449.805 71.887C448.572 70.0411 447.849 67.9025 447.708 65.6873C447.664 63.2114 448.27 60.7674 449.464 58.5982C450.658 56.4289 452.4 54.61 454.515 53.3223C454.607 53.2623 454.71 53.2219 454.819 53.2036C454.927 53.1853 455.038 53.1895 455.145 53.2159C455.252 53.2423 455.352 53.2904 455.439 53.3572C455.527 53.4239 455.599 53.508 455.653 53.604C455.707 53.7001 455.74 53.8061 455.751 53.9156C455.761 54.025 455.75 54.1355 455.716 54.2402C455.682 54.3449 455.627 54.4415 455.555 54.5241C455.482 54.6067 455.393 54.6735 455.294 54.7204C453.428 55.8631 451.893 57.4747 450.844 59.3949C449.794 61.315 449.266 63.4766 449.312 65.6644C449.451 67.6085 450.099 69.4817 451.191 71.0963C452.337 73.1476 453.563 75.2791 452.131 77.9721C451.225 79.4543 450.118 80.8041 448.842 81.983C446.195 84.6875 444.659 86.4523 446.309 88.7098C448.601 91.8498 447.089 94.2563 445.748 96.3649C444.846 97.573 444.224 98.9665 443.926 100.445C443.502 103.642 450.343 107.882 453.013 109.246C453.171 109.328 453.297 109.461 453.371 109.623C453.445 109.785 453.463 109.966 453.422 110.14C453.382 110.313 453.284 110.468 453.146 110.58C453.008 110.692 452.836 110.755 452.658 110.758V110.724Z" fill="#E6E6E6"/>
<path d="M464.118 67.2574C464.118 67.2574 450.905 66.4093 450.057 75.0156C457.104 83.576 464.118 67.2574 464.118 67.2574Z" fill="#F0F0F0"/>
<path d="M439.377 54.7773C439.377 54.7773 440.935 67.9216 449.553 67.2111C456.704 58.7653 439.377 54.7773 439.377 54.7773Z" fill="#F0F0F0"/>
<path d="M438.655 78.4766C438.655 78.4766 446.493 81.9145 444.453 87.0713C437.91 89.9248 438.655 78.4766 438.655 78.4766Z" fill="#F0F0F0"/>
<path d="M451.604 87.5293C451.604 87.5293 450.137 93.9238 445.931 93.1216C442.848 88.5721 451.604 87.5293 451.604 87.5293Z" fill="#F0F0F0"/>
<path d="M456.543 81.135C456.543 81.135 449.931 86.5555 446.229 82.3727C446.699 75.2448 456.543 81.135 456.543 81.135Z" fill="#F0F0F0"/>
<path d="M163.943 268.719H82.7393V375.248H163.943V268.719Z" fill="#F0EBF4"/>
<path d="M91.8955 365.45V278.517H90.486V365.45H91.8955Z" fill="#E7DFEE"/>
<path d="M154.924 278.506H90.4746V280.294H154.924V278.506Z" fill="#E7DFEE"/>
<path d="M246.567 268.719H165.363V375.248H246.567V268.719Z" fill="#F0EBF4"/>
<path d="M246.567 375.248H254.657V268.719H246.567V375.248Z" fill="#BFABD3"/>
<path d="M174.509 365.45V278.517H173.099V365.45H174.509Z" fill="#E7DFEE"/>
<path d="M165.353 375.237V270.14H163.943V375.237H165.353Z" fill="#E6E6E6"/>
<path d="M237.536 278.506H173.087V280.294H237.536V278.506Z" fill="#E7DFEE"/>
<path d="M159.749 279.411C160.151 279.411 160.537 279.57 160.822 279.853C161.108 280.137 161.27 280.522 161.273 280.924V305.677C161.267 306.077 161.104 306.459 160.818 306.74C160.533 307.021 160.149 307.178 159.749 307.178C159.346 307.178 158.961 307.019 158.675 306.736C158.39 306.452 158.228 306.068 158.225 305.665V280.912C158.231 280.512 158.394 280.13 158.679 279.849C158.964 279.569 159.348 279.411 159.749 279.411Z" fill="#E7DFEE"/>
<path d="M169.604 279.411C170.006 279.411 170.392 279.57 170.677 279.853C170.963 280.137 171.125 280.522 171.128 280.924V305.677C171.122 306.077 170.958 306.459 170.673 306.74C170.388 307.021 170.004 307.178 169.604 307.178C169.202 307.178 168.818 307.019 168.534 306.735C168.25 306.451 168.091 306.067 168.091 305.665V280.912C168.094 280.513 168.255 280.131 168.538 279.85C168.821 279.569 169.204 279.411 169.604 279.411Z" fill="#E7DFEE"/>
<path d="M257.27 265.086H80.2178V270.14H257.27V265.086Z" fill="#BFABD3"/>
<path d="M257.27 265.086H243.141V270.14H257.27V265.086Z" fill="#E7DFEE"/>
<path d="M286.493 427C409.206 427 508.685 421.193 508.685 414.028C508.685 406.864 409.206 401.056 286.493 401.056C163.78 401.056 64.3008 406.864 64.3008 414.028C64.3008 421.193 163.78 427 286.493 427Z" fill="#9881AE"/>
<path d="M488.296 57.0243L487.902 58.1006L510.473 66.3512L510.866 65.2749L488.296 57.0243Z" fill="#4B0082"/>
<path d="M475.368 52.2938L474.975 53.3701L482.175 56.0023L482.569 54.926L475.368 52.2938Z" fill="#4B0082"/>
<path d="M404.034 30.494L523.273 74.0409C526.519 75.2363 529.161 77.6688 530.619 80.8063C532.077 83.9438 532.233 87.531 531.054 90.7835L439.766 340.605C438.57 343.852 436.138 346.493 433 347.951C429.863 349.409 426.276 349.566 423.023 348.386L303.842 304.839C300.597 303.641 297.958 301.209 296.5 298.072C295.043 294.935 294.885 291.349 296.061 288.097L387.338 38.2752C388.533 35.0394 390.958 32.4066 394.085 30.9495C397.212 29.4923 400.788 29.3286 404.034 30.494Z" fill="#4B0082"/>
<path d="M435.137 338.714L526.322 89.259C526.722 88.1658 526.903 87.0043 526.854 85.8411C526.805 84.6779 526.527 83.5357 526.037 82.4799C525.546 81.4241 524.852 80.4754 523.994 79.688C523.137 78.9006 522.133 78.2899 521.039 77.891L400.196 33.7253C399.102 33.3253 397.94 33.1449 396.776 33.1946C395.613 33.2442 394.47 33.5229 393.414 34.0147C392.358 34.5065 391.41 35.2017 390.623 36.0605C389.836 36.9193 389.226 37.9249 388.828 39.0197L297.655 288.463C297.253 289.556 297.071 290.718 297.119 291.882C297.167 293.045 297.444 294.188 297.935 295.244C298.426 296.3 299.121 297.249 299.979 298.036C300.838 298.824 301.843 299.433 302.938 299.831L423.769 344.008C424.863 344.408 426.025 344.589 427.189 344.539C428.352 344.489 429.495 344.211 430.551 343.719C431.607 343.227 432.555 342.532 433.342 341.673C434.129 340.814 434.739 339.809 435.137 338.714Z" fill="#DFD2EB"/>
<path d="M474.111 58.9826C472.436 61.2267 470.083 62.872 467.4 63.6748C464.717 64.4777 461.846 64.3955 459.214 63.4404L456.807 62.558C454.173 61.5935 451.92 59.8045 450.384 57.4569C448.847 55.1093 448.11 52.3286 448.281 49.5283L474.111 58.9826Z" fill="#4B0082"/>
<path opacity="0.1" d="M431.629 337.488C432.172 337.685 432.77 337.659 433.294 337.416C433.818 337.174 434.224 336.734 434.426 336.194L523.983 91.1621C524.18 90.6195 524.154 90.0212 523.911 89.4975C523.669 88.9739 523.229 88.5672 522.688 88.3659C522.146 88.1696 521.547 88.1955 521.024 88.438C520.5 88.6805 520.093 89.12 519.892 89.6609L430.334 334.681C430.135 335.225 430.159 335.826 430.401 336.352C430.644 336.879 431.086 337.287 431.629 337.488Z" fill="#4B0082"/>
<path opacity="0.1" d="M301.126 289.782C301.669 289.978 302.267 289.952 302.791 289.71C303.314 289.467 303.721 289.028 303.922 288.487L393.48 43.4553C393.676 42.9143 393.65 42.3176 393.407 41.7958C393.164 41.274 392.725 40.8695 392.185 40.6706C391.642 40.4743 391.044 40.5002 390.52 40.7427C389.997 40.9852 389.59 41.4247 389.389 41.9656L299.831 286.997C299.635 287.538 299.662 288.135 299.904 288.657C300.147 289.178 300.586 289.583 301.126 289.782Z" fill="#4B0082"/>
<g opacity="0.9">
<path d="M429.286 318.307L466.151 79.9024C467.055 74.0543 463.047 68.5804 457.199 67.6761L344.265 50.2132C338.417 49.3089 332.943 53.3167 332.039 59.1648L295.174 297.57C294.27 303.418 298.278 308.892 304.126 309.796L417.06 327.259C422.908 328.163 428.382 324.156 429.286 318.307Z" fill="#E7DFEE"/>
<path d="M418.75 327.976C418.17 327.975 417.592 327.929 417.019 327.838L304.072 310.385C301.117 309.925 298.465 308.312 296.697 305.9C294.929 303.487 294.19 300.472 294.641 297.516L331.495 59.1541C331.953 56.1975 333.565 53.5435 335.978 51.7751C338.391 50.0066 341.408 49.2684 344.365 49.7228L457.312 67.1759C460.269 67.636 462.923 69.2507 464.691 71.6656C466.46 74.0805 467.197 77.0983 466.743 80.0566L429.9 318.418C429.48 321.077 428.128 323.499 426.085 325.25C424.041 327.002 421.441 327.968 418.75 327.976ZM342.646 50.6739C340.229 50.6854 337.896 51.5564 336.063 53.1311C334.23 54.7059 333.017 56.8815 332.641 59.2687L295.776 297.688C295.367 300.344 296.03 303.053 297.618 305.221C299.206 307.389 301.589 308.839 304.244 309.251L417.191 326.658C419.849 327.066 422.559 326.404 424.729 324.817C426.899 323.229 428.351 320.846 428.765 318.189L465.608 79.8274C466.017 77.17 465.355 74.4591 463.767 72.2893C462.179 70.1195 459.796 68.668 457.14 68.2531L344.193 50.8C343.681 50.7197 343.164 50.6776 342.646 50.6739Z" fill="#4B0082"/>
<path d="M439.216 161.811C438.649 161.808 438.082 161.766 437.52 161.685L334.681 145.79C333.257 145.573 331.89 145.078 330.658 144.332C329.426 143.586 328.353 142.604 327.501 141.442C326.65 140.28 326.036 138.962 325.694 137.563C325.353 136.164 325.291 134.711 325.513 133.287L333.053 84.5493C333.263 83.1261 333.755 81.7593 334.501 80.5292C335.247 79.2992 336.232 78.2308 337.397 77.387C338.556 76.5324 339.872 75.916 341.271 75.5738C342.669 75.2315 344.122 75.1701 345.545 75.393L448.384 91.2876C451.253 91.7339 453.829 93.2988 455.547 95.6399C457.266 97.981 457.986 100.907 457.552 103.779L450.023 152.528C449.622 155.109 448.313 157.461 446.332 159.163C444.351 160.865 441.828 161.803 439.216 161.811ZM343.871 76.4129C341.533 76.4158 339.273 77.2549 337.499 78.7786C335.725 80.3023 334.555 82.4101 334.199 84.7212L326.67 133.471C326.473 134.743 326.529 136.042 326.834 137.293C327.139 138.544 327.688 139.723 328.449 140.762C329.21 141.8 330.168 142.679 331.269 143.347C332.37 144.015 333.591 144.46 334.864 144.655L437.761 160.55C439.033 160.747 440.332 160.692 441.583 160.387C442.834 160.081 444.013 159.533 445.052 158.772C446.09 158.011 446.969 157.052 447.637 155.952C448.305 154.851 448.75 153.629 448.945 152.356L456.474 103.607C456.866 101.038 456.224 98.4181 454.688 96.3217C453.153 94.2253 450.848 92.823 448.281 92.4222L345.441 76.5275C344.922 76.4464 344.397 76.4081 343.871 76.4129Z" fill="#4B0082"/>
<path d="M425.522 235.909C424.824 235.907 424.127 235.853 423.437 235.749L325.754 220.656C322.2 220.108 319.009 218.17 316.883 215.268C314.758 212.367 313.872 208.74 314.42 205.186C314.969 201.631 316.907 198.44 319.808 196.315C322.71 194.189 326.337 193.304 329.891 193.852L427.585 208.956C431.136 209.509 434.323 211.449 436.446 214.349C438.569 217.25 439.454 220.874 438.907 224.427C438.408 227.62 436.786 230.531 434.332 232.636C431.879 234.741 428.755 235.902 425.522 235.909ZM327.817 194.872C324.681 194.86 321.657 196.035 319.352 198.161C317.047 200.288 315.633 203.208 315.393 206.335C315.154 209.462 316.107 212.563 318.061 215.016C320.015 217.469 322.825 219.091 325.926 219.556L423.609 234.649C426.865 235.145 430.186 234.328 432.84 232.377C435.494 230.425 437.264 227.5 437.761 224.243C438.269 220.999 437.468 217.686 435.534 215.032C433.6 212.378 430.691 210.601 427.448 210.09L329.719 194.987C329.089 194.903 328.453 194.865 327.817 194.872Z" fill="#4B0082"/>
<path d="M420.571 268.007C419.873 268.01 419.175 267.957 418.486 267.847L320.803 252.754C319.022 252.508 317.307 251.91 315.759 250.994C314.211 250.079 312.861 248.865 311.787 247.422C310.713 245.98 309.937 244.338 309.503 242.593C309.07 240.848 308.988 239.034 309.262 237.257C309.537 235.479 310.162 233.775 311.102 232.241C312.041 230.708 313.277 229.377 314.736 228.326C316.195 227.275 317.848 226.524 319.6 226.118C321.352 225.713 323.167 225.659 324.94 225.962L422.634 241.054C426.007 241.578 429.059 243.354 431.179 246.03C433.299 248.705 434.332 252.081 434.072 255.485C433.811 258.889 432.277 262.069 429.774 264.39C427.271 266.711 423.985 268.003 420.571 268.007ZM322.831 226.959C319.71 226.971 316.709 228.158 314.424 230.285C312.14 232.411 310.74 235.32 310.505 238.432C310.269 241.544 311.215 244.631 313.153 247.077C315.091 249.523 317.88 251.149 320.963 251.631L418.657 266.735C421.911 267.237 425.231 266.425 427.886 264.479C430.541 262.533 432.314 259.612 432.816 256.358C433.317 253.105 432.506 249.785 430.56 247.13C428.614 244.475 425.693 242.701 422.439 242.2L324.757 227.108C324.12 227.007 323.476 226.957 322.831 226.959Z" fill="#4B0082"/>
<path d="M415.621 300.118C414.915 300.115 414.211 300.061 413.512 299.957L315.83 284.853C312.322 284.255 309.19 282.301 307.11 279.414C305.03 276.527 304.169 272.938 304.712 269.421C305.255 265.904 307.159 262.742 310.013 260.616C312.867 258.491 316.442 257.573 319.967 258.06L417.661 273.153C421.211 273.709 424.396 275.649 426.518 278.549C428.64 281.449 429.527 285.072 428.983 288.624C428.482 291.81 426.861 294.714 424.413 296.814C421.964 298.914 418.847 300.073 415.621 300.083V300.118ZM317.893 259.046C314.757 259.034 311.732 260.209 309.428 262.335C307.123 264.462 305.709 267.382 305.469 270.509C305.229 273.636 306.182 276.737 308.136 279.19C310.09 281.643 312.901 283.265 316.002 283.73L413.696 298.823C416.939 299.324 420.249 298.52 422.901 296.588C425.554 294.655 427.333 291.75 427.849 288.509C428.098 286.898 428.027 285.253 427.641 283.67C427.255 282.086 426.56 280.594 425.597 279.278C424.634 277.963 423.421 276.85 422.028 276.004C420.635 275.157 419.089 274.593 417.477 274.345L319.795 259.252C319.167 259.133 318.531 259.064 317.893 259.046Z" fill="#4B0082"/>
<path d="M432.879 185.428C432.635 185.451 432.39 185.451 432.146 185.428L383.282 177.876C382.662 177.781 382.067 177.565 381.532 177.24C380.996 176.915 380.529 176.487 380.159 175.982C379.789 175.476 379.521 174.902 379.373 174.294C379.225 173.685 379.198 173.052 379.294 172.433C379.489 171.18 380.172 170.056 381.195 169.306C382.217 168.556 383.495 168.243 384.749 168.434L433.613 175.997C434.232 176.088 434.827 176.302 435.363 176.627C435.898 176.952 436.363 177.38 436.73 177.888C437.103 178.393 437.372 178.967 437.521 179.577C437.671 180.187 437.698 180.82 437.601 181.44C437.413 182.557 436.836 183.57 435.971 184.3C435.107 185.031 434.011 185.43 432.879 185.428ZM384.015 169.476C383.103 169.48 382.225 169.826 381.557 170.447C380.888 171.068 380.478 171.918 380.407 172.827C380.336 173.737 380.61 174.64 381.175 175.357C381.739 176.073 382.553 176.552 383.454 176.696L432.329 184.248C433.279 184.39 434.247 184.151 435.022 183.583C435.408 183.304 435.735 182.95 435.983 182.543C436.231 182.135 436.395 181.683 436.466 181.211C436.541 180.74 436.522 180.259 436.411 179.795C436.299 179.331 436.097 178.894 435.816 178.508C435.535 178.123 435.18 177.796 434.773 177.548C434.365 177.3 433.912 177.135 433.441 177.063L384.565 169.511C384.383 169.488 384.199 169.476 384.015 169.476Z" fill="#263238"/>
<path d="M430.748 199.249C430.504 199.266 430.259 199.266 430.015 199.249L360.58 188.523C359.345 188.31 358.243 187.62 357.512 186.602C356.78 185.584 356.479 184.319 356.671 183.08C356.863 181.842 357.535 180.728 358.54 179.98C359.546 179.232 360.805 178.909 362.047 179.08L431.47 189.806C432.723 190.001 433.847 190.685 434.597 191.707C435.347 192.73 435.66 194.008 435.469 195.261C435.282 196.377 434.705 197.391 433.84 198.121C432.976 198.852 431.88 199.251 430.748 199.249ZM361.302 180.112C360.64 180.12 359.993 180.308 359.43 180.658C358.867 181.007 358.411 181.504 358.11 182.094C357.809 182.684 357.675 183.345 357.723 184.005C357.77 184.666 357.998 185.301 358.38 185.841C358.663 186.227 359.019 186.553 359.428 186.801C359.837 187.049 360.291 187.213 360.764 187.285L430.187 198.012C430.661 198.094 431.147 198.082 431.616 197.975C432.085 197.868 432.529 197.669 432.921 197.39C433.312 197.11 433.645 196.755 433.898 196.346C434.152 195.937 434.321 195.481 434.397 195.006C434.473 194.53 434.454 194.045 434.341 193.577C434.227 193.109 434.022 192.669 433.737 192.281C433.452 191.893 433.092 191.566 432.679 191.318C432.267 191.07 431.809 190.907 431.333 190.838L361.898 180.112C361.7 180.092 361.5 180.092 361.302 180.112Z" fill="#263238"/>
<path d="M365.431 123.311C371.278 116.935 370.849 107.025 364.472 101.178C358.095 95.3307 348.186 95.7599 342.338 102.137C336.491 108.513 336.92 118.423 343.297 124.27C349.674 130.117 359.583 129.688 365.431 123.311Z" fill="#4B0082"/>
</g>
<g opacity="0.9">
<path d="M343.035 324.149L349.521 82.9908C349.592 80.1516 348.534 77.4001 346.579 75.3399C344.624 73.2797 341.932 72.0789 339.093 72.0009L224.839 68.9297C221.999 68.8527 219.245 69.9068 217.182 71.8602C215.119 73.8137 213.916 76.5065 213.838 79.3466L207.421 320.505C207.347 323.346 208.403 326.1 210.359 328.163C212.314 330.226 215.008 331.428 217.849 331.506L332.091 334.577C334.922 334.636 337.662 333.572 339.712 331.618C341.762 329.665 342.957 326.98 343.035 324.149Z" fill="#4B0082"/>
<path opacity="0.1" d="M343.035 324.149L349.521 82.9908C349.592 80.1516 348.534 77.4001 346.579 75.3399C344.624 73.2797 341.932 72.0789 339.093 72.0009L224.839 68.9297C221.999 68.8527 219.245 69.9068 217.182 71.8602C215.119 73.8137 213.916 76.5065 213.838 79.3466L207.421 320.505C207.347 323.346 208.403 326.1 210.359 328.163C212.314 330.226 215.008 331.428 217.849 331.506L332.091 334.577C334.922 334.636 337.662 333.572 339.712 331.618C341.762 329.665 342.957 326.98 343.035 324.149Z" fill="black"/>
<path opacity="0.2" d="M339.096 267.387L340.421 218.094C340.575 212.362 336.053 207.59 330.321 207.436L226.316 204.64C220.584 204.486 215.813 209.007 215.659 214.739L214.333 264.033C214.179 269.765 218.701 274.536 224.433 274.69L328.438 277.487C334.17 277.641 338.942 273.119 339.096 267.387Z" fill="#263238"/>
<path d="M302.307 306.741C302.238 309.401 302.959 312.021 304.379 314.27C305.8 316.519 307.855 318.297 310.286 319.377C312.717 320.457 315.414 320.792 318.036 320.339C320.657 319.885 323.085 318.664 325.012 316.83C326.939 314.996 328.278 312.632 328.861 310.036C329.444 307.441 329.243 304.731 328.284 302.249C327.326 299.768 325.652 297.626 323.476 296.096C321.3 294.566 318.718 293.716 316.059 293.654C312.501 293.568 309.053 294.898 306.475 297.352C303.896 299.806 302.397 303.183 302.307 306.741Z" fill="#E7DFEE"/>
<path d="M244.764 315.081C250.153 309.974 250.382 301.466 245.275 296.077C240.169 290.688 231.66 290.46 226.272 295.566C220.883 300.673 220.654 309.181 225.761 314.57C230.867 319.958 239.375 320.187 244.764 315.081Z" fill="#E7DFEE"/>
<path d="M261.842 304.911C261.773 307.571 262.494 310.191 263.914 312.44C265.335 314.689 267.391 316.467 269.822 317.547C272.253 318.627 274.949 318.962 277.571 318.508C280.192 318.055 282.62 316.834 284.547 315C286.474 313.166 287.814 310.802 288.396 308.206C288.979 305.611 288.778 302.9 287.819 300.419C286.861 297.937 285.187 295.796 283.011 294.266C280.835 292.736 278.254 291.886 275.594 291.824C272.036 291.738 268.589 293.068 266.01 295.522C263.432 297.976 261.933 301.353 261.842 304.911Z" fill="#E7DFEE"/>
<path d="M341.619 110.356C341.715 106.917 340.44 103.581 338.076 101.082C335.713 98.5825 332.453 97.1245 329.014 97.0286L230.197 94.3699C226.759 94.2774 223.424 95.5528 220.926 97.9162C218.427 100.28 216.968 103.538 216.869 106.976C216.776 110.414 218.052 113.748 220.415 116.247C222.779 118.745 226.037 120.204 229.475 120.303L328.338 122.985C331.772 123.065 335.098 121.781 337.587 119.414C340.076 117.047 341.526 113.79 341.619 110.356Z" fill="#E7DFEE"/>
<path d="M341.608 174.892C341.7 171.454 340.425 168.12 338.062 165.621C335.698 163.123 332.44 161.664 329.002 161.565L230.197 158.906C226.759 158.814 223.424 160.089 220.926 162.452C218.427 164.816 216.968 168.074 216.869 171.512C216.776 174.95 218.052 178.284 220.415 180.783C222.779 183.282 226.037 184.74 229.475 184.839L328.28 187.487C331.716 187.579 335.049 186.305 337.547 183.944C340.046 181.584 341.506 178.328 341.608 174.892Z" fill="#E7DFEE"/>
<path d="M341.609 238.851C341.704 235.412 340.43 232.076 338.066 229.577C335.702 227.077 332.442 225.619 329.003 225.523L230.198 222.865C226.76 222.775 223.428 224.052 220.93 226.414C218.432 228.777 216.972 232.034 216.87 235.47C216.777 238.908 218.053 242.243 220.416 244.741C222.78 247.24 226.038 248.699 229.476 248.798L328.281 251.445C331.717 251.538 335.05 250.264 337.548 247.903C340.047 245.542 341.507 242.287 341.609 238.851Z" fill="#E7DFEE"/>
</g>
<path d="M130.285 123.982L128.933 125.518L127.5 127.18L124.681 130.617C122.847 132.909 121.037 135.201 119.375 137.608C116.043 142.116 113.233 146.987 110.998 152.127C110.517 153.308 110.096 154.513 109.738 155.737C109.42 156.82 109.198 157.928 109.073 159.049C108.816 161.716 108.793 164.4 109.004 167.071C109.534 172.991 110.406 178.876 111.617 184.696L104.18 187.71C102.505 184.855 101.03 181.888 99.7676 178.828C98.4727 175.72 97.4042 172.522 96.5703 169.26C95.6467 165.778 95.1238 162.202 95.0118 158.602C94.9444 156.586 95.0942 154.569 95.4587 152.586C95.808 150.751 96.2595 148.938 96.811 147.154C99.0141 140.562 102.098 134.298 105.979 128.532C107.847 125.724 109.795 123.008 111.88 120.418C112.912 119.112 113.978 117.832 115.078 116.579C115.628 115.949 116.224 115.319 116.751 114.7C117.278 114.081 117.897 113.554 118.584 112.786L130.285 123.982Z" fill="#FFC857"/>
<path d="M112.901 184.822L115.995 187.63L105.12 193.359C104.619 192.444 104.234 191.47 103.974 190.46C103.799 189.734 103.771 188.981 103.892 188.245C104.012 187.508 104.277 186.803 104.673 186.17C105.069 185.537 105.587 184.99 106.197 184.56C106.807 184.129 107.496 183.825 108.225 183.664C109.04 183.471 109.89 183.475 110.703 183.677C111.517 183.878 112.27 184.271 112.901 184.822Z" fill="#FFB573"/>
<path d="M120.166 194.677L110.975 198.986L105.119 193.325L115.994 187.618L120.166 194.677Z" fill="#FFB573"/>
<path d="M159.862 82.0056C159.862 82.7734 160.183 83.4037 160.676 83.4037C161.169 83.4037 161.616 82.8077 161.661 82.0514C161.707 81.2951 161.352 80.6533 160.848 80.6533C160.344 80.6533 159.908 81.2492 159.862 82.0056Z" fill="#263238"/>
<path d="M160.115 83.3926C160.874 85.7349 161.962 87.9574 163.347 89.9934C162.815 90.3563 162.21 90.5986 161.574 90.7035C160.939 90.8084 160.288 90.7734 159.668 90.6007L160.115 83.3926Z" fill="#FF5652"/>
<path d="M157.353 77.7201C157.41 77.7315 157.469 77.7312 157.526 77.7194C157.583 77.7076 157.637 77.6845 157.685 77.6513C158.142 77.3145 158.672 77.0919 159.233 77.0021C159.793 76.9124 160.366 76.9582 160.905 77.1357C161.018 77.178 161.143 77.1754 161.254 77.1285C161.365 77.0816 161.453 76.9939 161.501 76.8835C161.526 76.831 161.54 76.774 161.543 76.7159C161.545 76.6579 161.536 76.5999 161.516 76.5454C161.495 76.4909 161.464 76.4411 161.425 76.3988C161.385 76.3565 161.337 76.3226 161.284 76.2991C160.604 76.0781 159.882 76.0189 159.176 76.1263C158.47 76.2338 157.798 76.5049 157.215 76.9179C157.165 76.9485 157.12 76.9888 157.085 77.0366C157.05 77.0843 157.025 77.1386 157.011 77.1962C156.998 77.2537 156.995 77.3135 157.005 77.372C157.014 77.4304 157.035 77.4864 157.066 77.5367C157.099 77.585 157.142 77.626 157.191 77.6575C157.24 77.689 157.295 77.7103 157.353 77.7201Z" fill="#263238"/>
<path d="M137.814 84.916C138.731 91.9523 139.04 106.151 133.906 110.127C133.906 110.127 135.579 115.857 148.426 117.473C162.556 119.226 155.634 111.354 155.634 111.354C148.036 108.557 148.598 102.908 150.294 97.7394L137.814 84.916Z" fill="#FFB573"/>
<path d="M103.653 394.385H103.745C103.92 394.306 104.068 394.177 104.17 394.014C104.272 393.85 104.323 393.661 104.318 393.468C104.332 393.319 104.313 393.168 104.262 393.028C104.21 392.887 104.127 392.759 104.02 392.655C103.046 391.669 99.8713 391.864 99.7453 391.876C99.7013 391.876 99.6585 391.89 99.6219 391.914C99.5854 391.938 99.5566 391.973 99.539 392.013C99.5167 392.049 99.5049 392.091 99.5049 392.133C99.5049 392.176 99.5167 392.218 99.539 392.254C100.25 392.907 102.484 394.706 103.653 394.385ZM100.295 392.277C101.361 392.277 103.114 392.368 103.733 392.953C103.796 393.013 103.843 393.087 103.873 393.168C103.903 393.249 103.914 393.336 103.905 393.423C103.905 393.847 103.687 393.915 103.63 393.938C102.965 394.19 101.35 393.205 100.295 392.277Z" fill="#4B0082"/>
<path d="M101.338 392.048C102.484 391.75 103.698 391.177 103.962 390.535C104.029 390.382 104.04 390.21 103.991 390.051C103.943 389.891 103.839 389.754 103.698 389.664C103.564 389.558 103.409 389.48 103.243 389.437C103.078 389.393 102.905 389.385 102.736 389.412C101.326 389.618 99.6416 391.841 99.5728 391.944C99.5502 391.978 99.5381 392.018 99.5381 392.059C99.5381 392.1 99.5502 392.14 99.5728 392.174C99.591 392.208 99.6172 392.237 99.6491 392.259C99.681 392.281 99.7178 392.295 99.7562 392.3C100.292 392.287 100.824 392.202 101.338 392.048ZM102.621 389.893H102.782C102.889 389.871 103.001 389.874 103.107 389.899C103.214 389.925 103.314 389.974 103.4 390.042C103.63 390.225 103.572 390.352 103.549 390.409C103.309 391.005 101.441 391.727 100.226 391.864C100.846 391.016 101.67 390.338 102.621 389.893Z" fill="#4B0082"/>
<path d="M161.341 404.86C162.333 404.99 163.337 404.736 164.148 404.15C164.251 404.006 164.306 403.834 164.306 403.657C164.306 403.48 164.251 403.308 164.148 403.164C164.077 403.034 163.979 402.921 163.86 402.832C163.741 402.743 163.605 402.681 163.461 402.648C161.902 402.213 158.522 404.092 158.384 404.173C158.344 404.198 158.311 404.234 158.289 404.276C158.267 404.318 158.256 404.366 158.258 404.413C158.264 404.458 158.284 404.499 158.315 404.532C158.346 404.565 158.386 404.588 158.43 404.597C159.391 404.768 160.365 404.856 161.341 404.86ZM162.922 403.027C163.063 403.008 163.205 403.008 163.346 403.027C163.436 403.045 163.521 403.084 163.594 403.139C163.668 403.195 163.728 403.266 163.77 403.347C163.919 403.622 163.862 403.76 163.77 403.84C163.3 404.448 160.905 404.459 159.186 404.218C160.344 403.586 161.612 403.181 162.922 403.027Z" fill="#4B0082"/>
<path d="M158.499 404.585H158.59C159.736 404.08 162.097 402.029 162.028 400.963C162.028 400.711 161.833 400.402 161.215 400.333C160.76 400.293 160.307 400.432 159.954 400.723C158.716 401.708 158.361 404.252 158.338 404.367C158.336 404.404 158.344 404.442 158.36 404.476C158.376 404.51 158.4 404.539 158.43 404.562C158.451 404.574 158.474 404.582 158.499 404.585ZM160.962 400.746H161.1C161.501 400.746 161.513 400.952 161.524 400.998C161.604 401.639 160 403.29 158.808 403.943C158.959 402.857 159.435 401.843 160.172 401.032C160.396 400.853 160.675 400.756 160.962 400.757V400.746Z" fill="#4B0082"/>
<path d="M148.116 404.367H157.57L159.393 382.479H149.938L148.116 404.367Z" fill="#FFB573"/>
<path d="M89.1104 391.727L98.1062 393.48L106.403 372.074L97.4072 370.32L89.1104 391.727Z" fill="#FFB573"/>
<path d="M99.7564 390.764L90.8637 385.31C90.7003 385.214 90.5093 385.177 90.322 385.204C90.1346 385.231 89.962 385.321 89.8323 385.459L83.6555 391.704C83.5056 391.849 83.3907 392.027 83.3195 392.223C83.2484 392.42 83.2229 392.63 83.245 392.837C83.2671 393.045 83.3362 393.245 83.447 393.422C83.5579 393.599 83.7075 393.748 83.8847 393.859C87.0247 395.704 88.652 396.448 92.5597 398.844C94.9663 400.322 99.9169 404.287 103.504 405.857C107.091 407.427 109.234 404.035 107.939 403.061C102.048 398.718 101.51 395.039 100.708 392.059C100.566 391.523 100.226 391.06 99.7564 390.764Z" fill="#263238"/>
<path d="M157.548 403.278H147.234C147.045 403.278 146.86 403.341 146.711 403.457C146.561 403.573 146.455 403.736 146.409 403.92L144.197 412.332C144.139 412.53 144.129 412.739 144.167 412.942C144.206 413.144 144.291 413.335 144.418 413.498C144.544 413.662 144.707 413.793 144.894 413.881C145.081 413.969 145.286 414.011 145.492 414.005C149.217 413.947 154.66 413.73 159.244 413.73C164.71 413.73 165.604 414.028 172.021 414.028C175.906 414.028 177.132 410.097 175.528 409.742C168.194 408.126 165.994 407.954 159.76 404.012C159.105 403.567 158.339 403.313 157.548 403.278Z" fill="#263238"/>
<path d="M171.162 142.891C171.025 146.1 170.807 149.641 170.463 153.549C169.569 164.149 167.885 177.362 164.997 193.784H114.437C114.437 186.61 119.891 153.675 115.961 119.834C115.726 117.554 116.39 115.272 117.81 113.472C119.231 111.673 121.297 110.498 123.57 110.197C126.137 109.865 129.013 109.578 131.832 109.441C138.993 109.028 146.171 109.028 153.331 109.441C156.487 109.746 159.624 110.224 162.728 110.873C164.509 111.238 166.143 112.117 167.429 113.403C168.714 114.688 169.594 116.323 169.959 118.104C170.864 122.676 171.678 130.309 171.162 142.891Z" fill="#FFC857"/>
<path opacity="0.3" d="M160.905 193.933C160.867 193.924 160.834 193.902 160.813 193.87C160.792 193.838 160.784 193.799 160.79 193.761C163.438 178.645 165.283 165.111 166.257 153.537C166.578 149.847 166.807 146.26 166.944 142.88C167.483 129.861 166.555 122.252 165.684 118.127C165.68 118.109 165.681 118.09 165.685 118.072C165.689 118.054 165.696 118.037 165.707 118.022C165.718 118.007 165.731 117.995 165.747 117.985C165.763 117.975 165.78 117.969 165.798 117.966C165.816 117.961 165.835 117.96 165.854 117.962C165.873 117.965 165.89 117.971 165.907 117.981C165.923 117.99 165.937 118.003 165.948 118.018C165.959 118.034 165.966 118.051 165.97 118.069C167.219 123.971 167.655 132.554 167.231 142.891C167.093 146.329 166.864 149.87 166.543 153.56C165.569 165.134 163.724 178.68 161.065 193.806C161.064 193.826 161.059 193.844 161.05 193.861C161.041 193.878 161.028 193.893 161.013 193.905C160.998 193.917 160.981 193.926 160.962 193.93C160.943 193.935 160.924 193.936 160.905 193.933Z" fill="black"/>
<path opacity="0.2" d="M162.2 135.19C162.074 142.33 165.753 158.362 169.214 165.685C169.741 161.296 170.165 157.262 170.474 153.549C170.738 150.375 170.933 147.452 171.07 144.748L162.2 135.19Z" fill="black"/>
<path d="M203.386 152.655L211.832 147.636L213.368 159.187C213.368 159.187 206.675 161.055 202.928 158.798L203.386 152.655Z" fill="#FFB573"/>
<path d="M222.936 148.461L220.152 157.674L213.368 159.187L211.832 147.636L222.936 148.461Z" fill="#FFB573"/>
<path d="M168.595 115.801C169.031 116.809 169.317 117.542 169.604 118.299C169.89 119.055 170.154 119.766 170.406 120.465L171.873 124.636C172.835 127.375 173.763 130.068 174.749 132.658C175.735 135.248 176.72 137.906 177.809 140.37C178.792 142.721 179.941 145 181.247 147.189C181.757 148.045 182.332 148.86 182.966 149.63C183.206 149.928 183.424 150.134 183.516 150.237C183.607 150.34 183.584 150.317 183.516 150.317C183.447 150.317 183.516 150.317 183.584 150.317L183.756 150.42C184.479 150.786 185.251 151.044 186.048 151.188C187.185 151.38 188.334 151.491 189.486 151.52C194.893 151.468 200.285 150.939 205.599 149.939H205.874C206.799 149.788 207.749 149.962 208.561 150.432C209.372 150.902 209.996 151.639 210.326 152.517C210.655 153.395 210.671 154.36 210.369 155.248C210.067 156.137 209.466 156.893 208.67 157.388C207.313 158.249 205.913 159.041 204.475 159.76C203.066 160.482 201.622 161.135 200.132 161.731C197.071 163.002 193.882 163.94 190.621 164.527C188.825 164.857 187.003 165.018 185.177 165.008C183.043 165.033 180.918 164.731 178.875 164.115L178.015 163.817C177.692 163.717 177.378 163.59 177.075 163.439C176.424 163.138 175.796 162.79 175.196 162.396C174.186 161.722 173.242 160.955 172.377 160.104C170.964 158.748 169.686 157.259 168.561 155.657C164.95 150.28 161.956 144.514 159.634 138.468C158.488 135.614 157.41 132.738 156.425 129.942L154.981 125.759L154.293 123.765C154.087 123.146 153.847 122.493 153.709 122.149L153.629 121.92C152.966 119.978 153.066 117.856 153.909 115.985C154.752 114.114 156.274 112.633 158.168 111.842C160.061 111.051 162.185 111.009 164.108 111.725C166.031 112.441 167.611 113.861 168.526 115.697L168.595 115.801Z" fill="#FFC857"/>
<path opacity="0.2" d="M159.393 382.479L158.453 393.766H148.999L149.939 382.479H159.393Z" fill="black"/>
<path opacity="0.2" d="M97.407 370.32L106.403 372.074L102.117 383.109L93.1211 381.356L97.407 370.32Z" fill="black"/>
<path d="M134.559 79.8631C134.559 89.2371 134.078 94.7607 138.501 99.654C145.171 107.023 156.986 102.977 159.782 93.6834C162.315 85.3064 161.891 71.3829 152.906 67.4637C143.922 63.5444 134.559 70.489 134.559 79.8631Z" fill="#FFB573"/>
<path d="M155.748 84.5727C156.55 82.3724 159.759 72.9182 153.811 69.9616C147.864 67.005 140.06 66.0882 135.212 68.1968C130.365 70.3054 126.847 77.9834 126.847 77.9834C126.847 77.9834 129.139 94.1645 138.581 97.0867C148.024 100.009 158.728 88.7784 155.748 84.5727Z" fill="#263238"/>
<path d="M153.457 71.1762C154.475 70.8484 155.432 70.3526 156.287 69.7094C159.725 66.3746 153.64 64.14 147.612 63.5899C140.736 62.9825 131.019 65.6985 127.134 70.7293C130.812 72.6201 148.208 72.7004 153.457 71.1762Z" fill="#263238"/>
<path d="M152.895 70.2364C153.802 70.2311 154.702 70.0683 155.553 69.7551C160.137 67.4632 154.854 64.4493 150.133 62.4324C144.781 60.1404 136.175 59.8769 131.729 63.0398C134.215 65.5609 148.253 70.1448 152.895 70.2364Z" fill="#263238"/>
<path d="M151.635 83.2776C151.64 85.3375 152.338 87.3357 153.617 88.9501C155.325 91.0244 157.33 89.8211 157.823 87.3572C158.27 85.134 157.926 81.3753 155.749 80.1949C153.571 79.0146 151.658 80.7565 151.635 83.2776Z" fill="#FFB573"/>
<path d="M147.062 193.783C147.062 193.783 148.621 265.326 139.04 291.706C124.005 333.534 107.629 381.986 107.629 381.986L90.3711 378.147C90.3711 378.147 104.283 325.375 111.835 290.182C118.711 258.553 113.394 219.613 114.436 193.783H147.062Z" fill="#4B0082"/>
<g opacity="0.3">
<path d="M147.062 193.783C147.062 193.783 148.621 265.326 139.04 291.706C124.005 333.534 107.629 381.986 107.629 381.986L90.3711 378.147C90.3711 378.147 104.283 325.375 111.835 290.182C118.711 258.553 113.394 219.613 114.436 193.783H147.062Z" fill="white"/>
</g>
<path opacity="0.2" d="M147.142 209.769C142.432 208.383 138.685 208.91 137.55 213.15C134.582 224.232 140.988 253.465 144.185 266.839C146.489 247.586 147.062 224.667 147.142 209.769Z" fill="black"/>
<path d="M112.305 376.749C112.385 376.749 108.03 382.353 108.03 382.353L89.1562 378.158L91.3107 371.684L112.305 376.749Z" fill="#4B0082"/>
<path d="M165.02 193.783C165.02 193.783 175.517 253.901 175.333 282.733C175.139 315.061 162.052 391.601 162.052 391.601H146.008C146.008 391.601 148.025 314.683 148.506 285.232C149.033 253.144 131.718 193.806 131.718 193.806L165.02 193.783Z" fill="#4B0082"/>
<g opacity="0.3">
<path d="M165.02 193.783C165.02 193.783 175.517 253.901 175.333 282.733C175.139 315.061 162.052 391.601 162.052 391.601H146.008C146.008 391.601 148.025 314.683 148.506 285.232C149.033 253.144 131.718 193.806 131.718 193.806L165.02 193.783Z" fill="white"/>
</g>
<path d="M165.409 385.206C165.478 385.206 164.263 391.853 164.263 391.853H144.782L144.495 385.917L165.409 385.206Z" fill="#4B0082"/>
<path d="M146.993 214.354C146.945 214.369 146.893 214.369 146.844 214.354L140.175 210.423C140.138 210.398 140.107 210.366 140.083 210.328C140.059 210.291 140.044 210.249 140.037 210.205L138.662 199.456C138.656 199.415 138.659 199.373 138.671 199.334C138.683 199.294 138.703 199.258 138.731 199.227C138.759 199.197 138.793 199.174 138.83 199.158C138.868 199.143 138.908 199.135 138.948 199.135H151.737C151.809 199.132 151.878 199.156 151.932 199.203C151.985 199.25 152.018 199.316 152.024 199.387L153.25 209.793C153.256 209.845 153.247 209.899 153.225 209.947C153.202 209.996 153.168 210.037 153.124 210.068L147.142 214.262C147.104 214.308 147.051 214.34 146.993 214.354ZM140.587 209.953L146.982 213.723L152.712 209.724L151.566 199.742H139.281L140.587 209.953Z" fill="white"/>
</g>
<defs>
<clipPath id="clip0_4893_37646">
<rect width="572.985" height="427" fill="white"/>
</clipPath>
</defs>
</svg>
