<svg width="574" height="428" viewBox="0 0 574 428" fill="none" xmlns="http://www.w3.org/2000/svg">
<g clip-path="url(#clip0_4893_37646)">
<path d="M573.34 375.48H0V375.767H573.34V375.48Z" fill="#EBEBEB"/>
<path d="M271.763 324.339H50.362C48.6255 324.339 46.9601 323.649 45.7322 322.421C44.5043 321.193 43.8145 319.528 43.8145 317.791V6.54783C43.8296 4.82126 44.5261 3.17056 45.7523 1.95503C46.9786 0.739505 48.6354 0.057551 50.362 0.0576172H271.763C273.5 0.0576172 275.165 0.747446 276.393 1.97535C277.621 3.20325 278.311 4.86864 278.311 6.60516V317.791C278.311 319.528 277.621 321.193 276.393 322.421C275.165 323.649 273.5 324.339 271.763 324.339ZM50.362 0.286954C48.7024 0.289985 47.1117 0.950583 45.9382 2.12407C44.7648 3.29755 44.1042 4.88827 44.1011 6.54783V317.791C44.1042 319.451 44.7648 321.041 45.9382 322.215C47.1117 323.388 48.7024 324.049 50.362 324.052H271.763C273.423 324.049 275.013 323.388 276.187 322.215C277.36 321.041 278.021 319.451 278.024 317.791V6.54783C278.021 4.88827 277.36 3.29755 276.187 2.12407C275.013 0.950583 273.423 0.289985 271.763 0.286954H50.362Z" fill="#EBEBEB"/>
<path d="M519.802 324.339H298.378C296.642 324.336 294.978 323.645 293.751 322.418C292.524 321.19 291.833 319.527 291.83 317.791V6.54783C291.848 4.8222 292.546 3.17323 293.771 1.95835C294.997 0.743456 296.652 0.0605393 298.378 0.0576172H519.802C521.524 0.0635851 523.175 0.748204 524.396 1.96309C525.618 3.17797 526.311 4.82523 526.326 6.54783V317.791C526.326 319.524 525.639 321.186 524.417 322.413C523.194 323.64 521.534 324.333 519.802 324.339ZM298.378 0.286954C296.718 0.289985 295.127 0.950583 293.954 2.12407C292.78 3.29755 292.12 4.88827 292.117 6.54783V317.791C292.12 319.451 292.78 321.041 293.954 322.215C295.127 323.388 296.718 324.049 298.378 324.052H519.802C521.461 324.049 523.052 323.388 524.225 322.215C525.399 321.041 526.059 319.451 526.062 317.791V6.54783C526.059 4.88827 525.399 3.29755 524.225 2.12407C523.052 0.950583 521.461 0.289985 519.802 0.286954H298.378Z" fill="#EBEBEB"/>
<path d="M85.6222 225.128L255.767 225.128L255.767 45.5808L85.6222 45.5808L85.6222 225.128Z" fill="#E6E6E6"/>
<path d="M78.3875 225.128L252.385 225.128L252.385 45.5808L78.3875 45.5808L78.3875 225.128Z" fill="#BFABD3"/>
<path d="M85.6222 231.848L255.767 231.848V225.14L85.6222 225.14V231.848Z" fill="#E6E6E6"/>
<path d="M66.37 231.848L240.367 231.848V225.14L66.37 225.14V231.848Z" fill="#9881AE"/>
<path d="M242.282 215.014V55.6826L88.501 55.6826V215.014H242.282Z" fill="#F0EBF4"/>
<path d="M189.913 215.025L165.512 55.6826H137.51L161.911 215.025H189.913Z" fill="white"/>
<path d="M155.891 215.025L131.49 55.6826H120.573L144.975 215.025H155.891Z" fill="white"/>
<path d="M100.908 215.575L100.908 56.1865H88.2947L88.2947 215.575H100.908Z" fill="#DFD2EB"/>
<path d="M313.308 375.469H332.87L332.87 138.702H313.308V375.469Z" fill="#DFD2EB"/>
<path d="M318.444 375.481H313.296V365.86H323.834L318.444 375.481Z" fill="#DFD2EB"/>
<path d="M471.641 375.469H491.203L491.203 138.702H471.641V375.469Z" fill="#DFD2EB"/>
<path d="M313.296 372.121H476.125L476.125 138.714L313.296 138.714V372.121Z" fill="#DFD2EB"/>
<path d="M321.001 210.164L468.419 210.164C470.47 210.164 472.134 208.501 472.134 206.449V146.248C472.134 144.196 470.47 142.533 468.419 142.533H321.001C318.949 142.533 317.286 144.196 317.286 146.248V206.449C317.286 208.501 318.949 210.164 321.001 210.164Z" fill="#E6E6E6"/>
<path d="M321.001 288.723H468.419C470.47 288.723 472.134 287.059 472.134 285.007V224.807C472.134 222.755 470.47 221.091 468.419 221.091H321.001C318.949 221.091 317.286 222.755 317.286 224.807V285.007C317.286 287.059 318.949 288.723 321.001 288.723Z" fill="#F0EBF4"/>
<path d="M321.001 367.293H468.419C470.47 367.293 472.134 365.63 472.134 363.578V303.377C472.134 301.325 470.47 299.662 468.419 299.662H321.001C318.949 299.662 317.286 301.325 317.286 303.377V363.578C317.286 365.63 318.949 367.293 321.001 367.293Z" fill="#F0EBF4"/>
<path d="M363.589 150.881H422.38C424.856 150.881 427.23 147.188 428.927 140.687H357.03C358.739 147.188 361.112 150.881 363.589 150.881Z" fill="#F0F0F0"/>
<path d="M363.589 229.393H422.38C424.856 229.393 427.23 225.712 428.927 219.199H357.03C358.739 225.758 361.112 229.393 363.589 229.393Z" fill="#F0F0F0"/>
<path d="M363.589 307.999H422.38C424.856 307.999 427.23 304.318 428.927 297.805H357.03C358.739 304.318 361.112 307.999 363.589 307.999Z" fill="#F0F0F0"/>
<path d="M436.289 105.942C436.289 105.942 436.553 138.978 446.517 138.978C456.482 138.978 456.757 105.942 456.757 105.942H436.289Z" fill="#E6E6E6"/>
<path d="M328.719 106.183C328.719 106.183 329.361 138.978 354.209 138.978C379.058 138.978 379.7 106.183 379.7 106.183H328.719Z" fill="#E6E6E6"/>
<path d="M360.481 114.416C360.481 114.416 360.963 138.978 379.574 138.978C398.184 138.978 398.666 114.416 398.666 114.416H360.481Z" fill="#F0F0F0"/>
<path d="M385.284 120.975C385.284 120.975 385.64 138.977 399.274 138.977C412.908 138.977 413.263 120.975 413.263 120.975H385.284Z" fill="#EBEBEB"/>
<path d="M452.939 110.793C452.812 110.795 452.686 110.767 452.572 110.713C451.425 110.151 441.965 105.151 442.607 100.266C442.935 98.5574 443.64 96.9434 444.671 95.5419C446.002 93.4435 446.965 91.9413 445.302 89.6709C442.756 86.2309 445.531 83.3757 447.985 80.8759C449.155 79.8033 450.174 78.5766 451.013 77.2294C452.022 75.3489 451.208 73.9155 450.084 71.9318C448.85 70.0847 448.126 67.9448 447.985 65.7282C447.942 63.2509 448.548 60.8053 449.743 58.6347C450.938 56.4641 452.68 54.6441 454.797 53.3556C454.889 53.2955 454.992 53.2551 455.101 53.2368C455.209 53.2185 455.321 53.2227 455.427 53.2491C455.534 53.2755 455.634 53.3237 455.722 53.3905C455.809 53.4573 455.882 53.5414 455.936 53.6375C455.989 53.7336 456.022 53.8397 456.033 53.9492C456.044 54.0587 456.032 54.1693 455.999 54.274C455.965 54.3788 455.91 54.4755 455.837 54.5582C455.765 54.6408 455.676 54.7076 455.576 54.7545C453.709 55.8979 452.174 57.5106 451.124 59.4319C450.073 61.3532 449.545 63.5162 449.591 65.7053C449.73 67.6506 450.379 69.525 451.471 71.1406C452.618 73.1931 453.845 75.326 452.412 78.0206C451.505 79.5038 450.397 80.8544 449.121 82.034C446.472 84.7402 444.935 86.5061 446.586 88.765C448.88 91.9069 447.366 94.315 446.025 96.4249C445.122 97.6337 444.499 99.0281 444.201 100.507C443.777 103.706 450.623 107.949 453.294 109.314C453.452 109.396 453.578 109.529 453.652 109.691C453.726 109.853 453.744 110.035 453.704 110.208C453.663 110.382 453.566 110.536 453.427 110.649C453.289 110.761 453.117 110.823 452.939 110.827V110.793Z" fill="#E6E6E6"/>
<path d="M464.406 67.2994C464.406 67.2994 451.184 66.4508 450.336 75.0624C457.388 83.6281 464.406 67.2994 464.406 67.2994Z" fill="#F0F0F0"/>
<path d="M439.648 54.8115C439.648 54.8115 441.208 67.9639 449.831 67.253C456.986 58.802 439.648 54.8115 439.648 54.8115Z" fill="#F0F0F0"/>
<path d="M438.926 78.5254C438.926 78.5254 446.769 81.9654 444.728 87.1255C438.181 89.9807 438.926 78.5254 438.926 78.5254Z" fill="#F0F0F0"/>
<path d="M451.884 87.584C451.884 87.584 450.416 93.9825 446.208 93.1798C443.123 88.6275 451.884 87.584 451.884 87.584Z" fill="#F0F0F0"/>
<path d="M456.826 81.1853C456.826 81.1853 450.21 86.6091 446.506 82.4237C446.976 75.2914 456.826 81.1853 456.826 81.1853Z" fill="#F0F0F0"/>
<path d="M164.044 268.886H82.79V375.481H164.044V268.886Z" fill="#F0EBF4"/>
<path d="M91.9521 365.677V278.689H90.5417V365.677H91.9521Z" fill="#E7DFEE"/>
<path d="M155.02 278.678H90.5303V280.467H155.02V278.678Z" fill="#E7DFEE"/>
<path d="M246.72 268.886H165.466V375.481H246.72V268.886Z" fill="#F0EBF4"/>
<path d="M246.72 375.48H254.815V268.885H246.72V375.48Z" fill="#BFABD3"/>
<path d="M174.616 365.677V278.689H173.206V365.677H174.616Z" fill="#E7DFEE"/>
<path d="M165.454 375.47V270.308H164.044V375.47H165.454Z" fill="#E6E6E6"/>
<path d="M237.684 278.678H173.194V280.467H237.684V278.678Z" fill="#E7DFEE"/>
<path d="M159.847 279.584C160.25 279.584 160.636 279.743 160.922 280.027C161.207 280.31 161.369 280.695 161.372 281.098V305.866C161.366 306.266 161.203 306.648 160.918 306.93C160.632 307.211 160.248 307.368 159.847 307.368C159.445 307.368 159.059 307.209 158.773 306.925C158.487 306.642 158.325 306.257 158.322 305.854V281.086C158.328 280.686 158.492 280.304 158.777 280.023C159.062 279.741 159.447 279.584 159.847 279.584Z" fill="#E7DFEE"/>
<path d="M169.709 279.584C170.111 279.584 170.498 279.743 170.783 280.027C171.069 280.31 171.231 280.695 171.234 281.098V305.866C171.228 306.266 171.065 306.648 170.779 306.93C170.494 307.211 170.109 307.368 169.709 307.368C169.308 307.368 168.923 307.209 168.639 306.925C168.355 306.641 168.195 306.256 168.195 305.854V281.086C168.198 280.687 168.359 280.305 168.643 280.023C168.926 279.742 169.309 279.584 169.709 279.584Z" fill="#E7DFEE"/>
<path d="M257.43 265.25H80.2676V270.307H257.43V265.25Z" fill="#BFABD3"/>
<path d="M257.43 265.25H243.291V270.307H257.43V265.25Z" fill="#E7DFEE"/>
<path d="M286.67 427.265C409.459 427.265 508.999 421.453 508.999 414.284C508.999 407.115 409.459 401.304 286.67 401.304C163.88 401.304 64.3398 407.115 64.3398 414.284C64.3398 421.453 163.88 427.265 286.67 427.265Z" fill="#9881AE"/>
<path d="M488.599 57.0597L488.205 58.1367L510.789 66.3924L511.183 65.3155L488.599 57.0597Z" fill="#4B0082"/>
<path d="M475.662 52.3263L475.269 53.4033L482.474 56.0371L482.867 54.9601L475.662 52.3263Z" fill="#4B0082"/>
<path d="M404.285 30.5131L523.597 74.0869C526.846 75.2831 529.489 77.717 530.948 80.8565C532.407 83.9959 532.564 87.5854 531.383 90.8399L440.039 340.816C438.843 344.065 436.409 346.708 433.269 348.167C430.13 349.626 426.54 349.782 423.286 348.602L304.031 305.028C300.784 303.83 298.143 301.395 296.685 298.257C295.226 295.118 295.068 291.53 296.245 288.275L387.578 38.299C388.775 35.0613 391.201 32.4269 394.33 30.9688C397.459 29.5107 401.037 29.347 404.285 30.5131Z" fill="#4B0082"/>
<path d="M435.406 338.925L526.647 89.3152C527.048 88.2213 527.229 87.0591 527.18 85.8952C527.131 84.7313 526.853 83.5884 526.362 82.5319C525.871 81.4755 525.177 80.5261 524.319 79.7382C523.46 78.9504 522.455 78.3393 521.361 77.9402L400.444 33.7471C399.349 33.3468 398.186 33.1664 397.022 33.2161C395.857 33.2658 394.714 33.5446 393.657 34.0367C392.601 34.5288 391.652 35.2244 390.864 36.0837C390.077 36.9431 389.467 37.9493 389.068 39.0448L297.839 288.643C297.436 289.737 297.254 290.899 297.302 292.063C297.351 293.228 297.628 294.371 298.119 295.428C298.611 296.485 299.306 297.434 300.165 298.222C301.023 299.01 302.029 299.62 303.125 300.018L424.031 344.222C425.125 344.623 426.288 344.803 427.453 344.753C428.617 344.704 429.761 344.425 430.817 343.933C431.874 343.441 432.823 342.745 433.61 341.886C434.398 341.026 435.008 340.02 435.406 338.925Z" fill="#DFD2EB"/>
<path d="M474.405 59.0197C472.728 61.2652 470.373 62.9115 467.689 63.7148C465.004 64.5182 462.132 64.4359 459.498 63.4803L457.09 62.5973C454.454 61.6322 452.199 59.8421 450.662 57.493C449.125 55.144 448.387 52.3616 448.558 49.5596L474.405 59.0197Z" fill="#4B0082"/>
<path opacity="0.1" d="M431.898 337.698C432.441 337.894 433.04 337.868 433.563 337.625C434.087 337.383 434.494 336.943 434.696 336.402L524.309 91.2186C524.505 90.6756 524.479 90.077 524.237 89.553C523.994 89.029 523.554 88.6221 523.013 88.4207C522.47 88.2242 521.871 88.2502 521.348 88.4928C520.824 88.7355 520.417 89.1753 520.215 89.7165L430.602 334.888C430.402 335.433 430.426 336.034 430.669 336.561C430.912 337.087 431.354 337.496 431.898 337.698Z" fill="#4B0082"/>
<path opacity="0.1" d="M301.314 289.96C301.857 290.157 302.455 290.131 302.979 289.888C303.503 289.646 303.91 289.206 304.112 288.665L393.725 43.4816C393.921 42.9402 393.894 42.3431 393.652 41.821C393.409 41.2989 392.969 40.8941 392.429 40.6951C391.886 40.4987 391.287 40.5246 390.763 40.7672C390.239 41.0099 389.832 41.4497 389.631 41.9909L300.018 287.174C299.822 287.715 299.848 288.312 300.091 288.835C300.334 289.357 300.773 289.762 301.314 289.96Z" fill="#4B0082"/>
<g opacity="0.9">
<path d="M429.552 318.505L466.44 79.9529C467.345 74.1012 463.334 68.6239 457.483 67.719L344.479 50.2453C338.627 49.3405 333.15 53.3507 332.245 59.2024L295.357 297.755C294.453 303.607 298.463 309.084 304.315 309.989L417.319 327.463C423.17 328.368 428.648 324.357 429.552 318.505Z" fill="#E7DFEE"/>
<path d="M419.008 328.179C418.428 328.179 417.849 328.133 417.277 328.042L304.26 310.578C301.303 310.117 298.649 308.503 296.88 306.09C295.111 303.676 294.371 300.659 294.823 297.701L331.7 59.1913C332.158 56.2329 333.771 53.5772 336.186 51.8077C338.6 50.0381 341.618 49.2995 344.577 49.7541L457.594 67.218C460.553 67.6784 463.209 69.2941 464.978 71.7105C466.748 74.1269 467.486 77.1465 467.031 80.1067L430.165 318.616C429.746 321.276 428.392 323.7 426.348 325.452C424.303 327.205 421.701 328.171 419.008 328.179ZM342.857 50.7058C340.439 50.7173 338.104 51.5889 336.27 53.1646C334.436 54.7403 333.222 56.9173 332.847 59.3059L295.958 297.873C295.549 300.53 296.212 303.242 297.801 305.411C299.39 307.58 301.775 309.03 304.432 309.443L417.449 326.861C420.108 327.27 422.82 326.607 424.992 325.018C427.163 323.43 428.615 321.045 429.03 318.387L465.896 79.8774C466.305 77.2183 465.642 74.5057 464.054 72.3346C462.465 70.1635 460.08 68.711 457.422 68.2959L344.405 50.832C343.893 50.7517 343.376 50.7095 342.857 50.7058Z" fill="#4B0082"/>
<path d="M439.489 161.911C438.921 161.909 438.354 161.866 437.792 161.785L334.889 145.881C333.464 145.664 332.096 145.168 330.863 144.421C329.63 143.675 328.557 142.692 327.705 141.53C326.852 140.368 326.238 139.049 325.897 137.648C325.555 136.248 325.494 134.794 325.715 133.37L333.26 84.602C333.47 83.1779 333.963 81.8102 334.709 80.5794C335.455 79.3486 336.441 78.2795 337.606 77.4352C338.766 76.58 340.083 75.9633 341.483 75.6208C342.882 75.2784 344.336 75.2169 345.759 75.44L448.662 91.3444C451.533 91.791 454.111 93.3569 455.83 95.6994C457.549 98.0419 458.271 100.97 457.836 103.843L450.302 152.623C449.901 155.205 448.591 157.559 446.609 159.262C444.627 160.964 442.102 161.904 439.489 161.911ZM344.085 76.4605C341.745 76.4634 339.484 77.303 337.709 78.8277C335.934 80.3523 334.763 82.4614 334.407 84.774L326.873 133.554C326.676 134.827 326.732 136.127 327.037 137.378C327.342 138.63 327.892 139.81 328.653 140.849C329.414 141.888 330.373 142.768 331.475 143.436C332.576 144.105 333.799 144.55 335.072 144.745L438.033 160.65C439.306 160.847 440.606 160.791 441.857 160.486C443.109 160.181 444.288 159.632 445.328 158.87C446.367 158.109 447.246 157.15 447.915 156.048C448.583 154.947 449.028 153.725 449.224 152.451L456.758 103.671C457.15 101.101 456.507 98.4793 454.971 96.3816C453.434 94.2839 451.128 92.8808 448.559 92.4797L345.656 76.5752C345.136 76.4941 344.611 76.4557 344.085 76.4605Z" fill="#4B0082"/>
<path d="M425.786 236.055C425.087 236.053 424.389 235.999 423.699 235.895L325.956 220.793C322.399 220.244 319.206 218.305 317.079 215.402C314.952 212.499 314.066 208.87 314.615 205.313C315.164 201.756 317.103 198.563 320.006 196.437C322.909 194.31 326.538 193.423 330.095 193.972L427.85 209.086C431.403 209.639 434.592 211.58 436.716 214.482C438.84 217.385 439.726 221.011 439.179 224.566C438.679 227.762 437.056 230.674 434.601 232.78C432.146 234.887 429.02 236.048 425.786 236.055ZM328.02 194.993C324.882 194.98 321.855 196.156 319.549 198.284C317.243 200.412 315.828 203.334 315.588 206.463C315.349 209.592 316.302 212.695 318.257 215.149C320.213 217.604 323.024 219.227 326.128 219.692L423.871 234.794C427.129 235.291 430.452 234.473 433.107 232.521C435.763 230.568 437.535 227.641 438.032 224.382C438.54 221.136 437.738 217.821 435.803 215.165C433.868 212.51 430.958 210.731 427.712 210.221L329.923 195.108C329.292 195.024 328.656 194.986 328.02 194.993Z" fill="#4B0082"/>
<path d="M420.832 268.174C420.133 268.177 419.435 268.123 418.745 268.013L321.002 252.912C319.219 252.665 317.504 252.067 315.955 251.151C314.406 250.235 313.055 249.02 311.98 247.576C310.905 246.133 310.129 244.491 309.695 242.744C309.261 240.998 309.179 239.183 309.454 237.404C309.728 235.626 310.354 233.92 311.294 232.386C312.235 230.852 313.471 229.52 314.931 228.468C316.391 227.416 318.045 226.665 319.798 226.259C321.551 225.853 323.367 225.8 325.141 226.102L422.896 241.204C426.271 241.728 429.324 243.506 431.446 246.183C433.568 248.86 434.601 252.238 434.341 255.644C434.08 259.05 432.544 262.232 430.04 264.554C427.536 266.877 424.247 268.17 420.832 268.174ZM323.031 227.1C319.908 227.112 316.905 228.301 314.619 230.428C312.333 232.556 310.933 235.467 310.697 238.581C310.461 241.695 311.407 244.783 313.347 247.231C315.286 249.679 318.077 251.306 321.162 251.788L418.917 266.901C422.172 267.403 425.494 266.591 428.151 264.644C430.808 262.697 432.582 259.774 433.084 256.518C433.586 253.262 432.774 249.941 430.826 247.284C428.879 244.627 425.956 242.853 422.701 242.351L324.958 227.249C324.321 227.148 323.676 227.098 323.031 227.1Z" fill="#4B0082"/>
<path d="M415.878 300.304C415.172 300.301 414.467 300.248 413.768 300.143L316.025 285.03C312.515 284.431 309.382 282.477 307.3 279.588C305.219 276.699 304.357 273.107 304.9 269.588C305.443 266.069 307.349 262.905 310.204 260.778C313.06 258.651 316.638 257.733 320.165 258.221L417.919 273.322C421.472 273.879 424.659 275.82 426.782 278.722C428.906 281.624 429.793 285.248 429.249 288.803C428.747 291.991 427.126 294.897 424.675 296.999C422.225 299.1 419.106 300.26 415.878 300.269V300.304ZM318.089 259.207C314.952 259.194 311.925 260.37 309.619 262.498C307.313 264.626 305.898 267.548 305.658 270.677C305.418 273.806 306.372 276.909 308.327 279.363C310.282 281.818 313.094 283.441 316.197 283.906L413.952 299.008C417.197 299.51 420.509 298.706 423.163 296.772C425.817 294.838 427.597 291.931 428.113 288.688C428.363 287.076 428.292 285.431 427.906 283.846C427.519 282.261 426.824 280.768 425.861 279.452C424.897 278.136 423.684 277.022 422.289 276.175C420.895 275.328 419.348 274.764 417.736 274.515L319.993 259.413C319.365 259.294 318.728 259.225 318.089 259.207Z" fill="#4B0082"/>
<path d="M433.147 185.543C432.903 185.566 432.657 185.566 432.413 185.543L383.519 177.987C382.899 177.892 382.304 177.675 381.767 177.35C381.231 177.025 380.765 176.597 380.394 176.091C380.023 175.585 379.756 175.011 379.607 174.402C379.459 173.792 379.432 173.16 379.528 172.54C379.723 171.286 380.407 170.161 381.43 169.411C382.453 168.661 383.732 168.347 384.986 168.538L433.881 176.106C434.501 176.197 435.096 176.412 435.632 176.737C436.167 177.061 436.633 177.49 437 177.998C437.373 178.504 437.642 179.078 437.792 179.688C437.941 180.298 437.968 180.932 437.871 181.553C437.684 182.67 437.106 183.684 436.241 184.415C435.376 185.145 434.279 185.545 433.147 185.543ZM384.252 169.582C383.34 169.585 382.461 169.932 381.792 170.553C381.123 171.174 380.713 172.025 380.642 172.935C380.571 173.845 380.845 174.748 381.41 175.466C381.975 176.183 382.789 176.661 383.691 176.806L432.596 184.362C433.547 184.504 434.516 184.265 435.291 183.697C435.678 183.417 436.005 183.063 436.253 182.656C436.501 182.248 436.665 181.795 436.736 181.324C436.811 180.852 436.792 180.37 436.681 179.906C436.569 179.442 436.367 179.005 436.085 178.619C435.804 178.233 435.449 177.907 435.041 177.659C434.633 177.41 434.181 177.245 433.709 177.173L384.803 169.616C384.62 169.593 384.436 169.582 384.252 169.582Z" fill="#263238"/>
<path d="M431.015 199.373C430.77 199.39 430.525 199.39 430.281 199.373L360.803 188.64C359.567 188.427 358.465 187.736 357.733 186.718C357.001 185.699 356.699 184.434 356.892 183.194C357.084 181.955 357.756 180.841 358.762 180.092C359.769 179.343 361.029 179.02 362.271 179.192L431.737 189.924C432.991 190.119 434.116 190.803 434.866 191.827C435.616 192.85 435.93 194.128 435.739 195.383C435.552 196.5 434.974 197.514 434.109 198.244C433.244 198.975 432.147 199.375 431.015 199.373ZM361.526 180.224C360.863 180.232 360.215 180.421 359.652 180.77C359.089 181.12 358.633 181.616 358.332 182.207C358.031 182.797 357.897 183.459 357.944 184.119C357.992 184.78 358.219 185.416 358.602 185.957C358.885 186.343 359.241 186.669 359.65 186.917C360.06 187.165 360.514 187.33 360.987 187.402L430.453 198.135C430.927 198.217 431.414 198.205 431.883 198.098C432.353 197.991 432.797 197.792 433.189 197.512C433.581 197.232 433.913 196.877 434.167 196.468C434.421 196.058 434.59 195.603 434.666 195.127C434.742 194.651 434.723 194.165 434.609 193.697C434.496 193.229 434.291 192.788 434.005 192.4C433.72 192.012 433.36 191.685 432.947 191.437C432.534 191.189 432.076 191.026 431.599 190.956L362.122 180.224C361.924 180.204 361.724 180.204 361.526 180.224Z" fill="#263238"/>
<path d="M365.657 123.388C371.508 117.007 371.079 107.091 364.698 101.24C358.318 95.3896 348.402 95.8191 342.551 102.2C336.7 108.58 337.13 118.496 343.51 124.347C349.891 130.198 359.807 129.768 365.657 123.388Z" fill="#4B0082"/>
</g>
<g opacity="0.9">
<path d="M343.248 324.35L349.738 83.0425C349.809 80.2015 348.75 77.4483 346.794 75.3869C344.838 73.3254 342.144 72.1239 339.303 72.0458L224.979 68.9727C222.137 68.8956 219.381 69.9504 217.317 71.905C215.252 73.8597 214.049 76.5542 213.971 79.396L207.55 320.703C207.476 323.546 208.533 326.302 210.489 328.366C212.446 330.43 215.141 331.633 217.984 331.711L332.297 334.785C335.13 334.843 337.871 333.779 339.923 331.824C341.974 329.869 343.17 327.182 343.248 324.35Z" fill="#4B0082"/>
<path opacity="0.1" d="M343.248 324.35L349.738 83.0425C349.809 80.2015 348.75 77.4483 346.794 75.3869C344.838 73.3254 342.144 72.1239 339.303 72.0458L224.979 68.9727C222.137 68.8956 219.381 69.9504 217.317 71.905C215.252 73.8597 214.049 76.5542 213.971 79.396L207.55 320.703C207.476 323.546 208.533 326.302 210.489 328.366C212.446 330.43 215.141 331.633 217.984 331.711L332.297 334.785C335.13 334.843 337.871 333.779 339.923 331.824C341.974 329.869 343.17 327.182 343.248 324.35Z" fill="black"/>
<path opacity="0.2" d="M339.307 267.553L340.633 218.229C340.787 212.493 336.263 207.719 330.527 207.565L226.457 204.767C220.722 204.612 215.947 209.137 215.793 214.873L214.467 264.196C214.313 269.932 218.837 274.707 224.573 274.861L328.642 277.659C334.378 277.813 339.153 273.288 339.307 267.553Z" fill="#263238"/>
<path d="M302.495 306.932C302.425 309.593 303.147 312.215 304.568 314.465C305.989 316.716 308.046 318.495 310.479 319.575C312.911 320.656 315.61 320.991 318.233 320.538C320.856 320.084 323.285 318.862 325.213 317.027C327.142 315.192 328.482 312.826 329.065 310.229C329.648 307.632 329.447 304.92 328.488 302.437C327.529 299.954 325.854 297.811 323.677 296.28C321.499 294.749 318.916 293.899 316.255 293.837C312.694 293.751 309.245 295.081 306.665 297.537C304.085 299.992 302.585 303.371 302.495 306.932Z" fill="#E7DFEE"/>
<path d="M244.916 315.276C250.308 310.167 250.537 301.653 245.428 296.261C240.318 290.869 231.805 290.64 226.413 295.75C221.021 300.86 220.792 309.373 225.901 314.765C231.011 320.157 239.524 320.386 244.916 315.276Z" fill="#E7DFEE"/>
<path d="M262.006 305.1C261.936 307.761 262.657 310.383 264.079 312.633C265.5 314.884 267.557 316.662 269.99 317.743C272.422 318.824 275.121 319.159 277.744 318.706C280.366 318.252 282.796 317.03 284.724 315.195C286.652 313.36 287.993 310.994 288.576 308.397C289.159 305.8 288.958 303.088 287.998 300.605C287.039 298.122 285.365 295.979 283.187 294.448C281.01 292.917 278.427 292.067 275.766 292.005C272.205 291.919 268.756 293.249 266.176 295.705C263.596 298.16 262.096 301.539 262.006 305.1Z" fill="#E7DFEE"/>
<path d="M341.831 110.425C341.927 106.984 340.652 103.646 338.286 101.145C335.921 98.6437 332.659 97.1848 329.218 97.0888L230.34 94.4285C226.899 94.336 223.563 95.6122 221.063 97.977C218.563 100.342 217.103 103.602 217.004 107.042C216.911 110.482 218.187 113.819 220.552 116.319C222.917 118.819 226.177 120.279 229.617 120.378L328.541 123.061C331.978 123.141 335.305 121.856 337.796 119.488C340.287 117.12 341.738 113.861 341.831 110.425Z" fill="#E7DFEE"/>
<path d="M341.82 175.001C341.912 171.561 340.636 168.224 338.271 165.724C335.907 163.224 332.646 161.764 329.206 161.665L230.34 159.005C226.899 158.912 223.563 160.188 221.063 162.553C218.563 164.918 217.103 168.178 217.004 171.618C216.911 175.058 218.187 178.395 220.552 180.895C222.917 183.395 226.177 184.855 229.617 184.954L328.484 187.603C331.922 187.695 335.257 186.421 337.757 184.059C340.257 181.696 341.718 178.439 341.82 175.001Z" fill="#E7DFEE"/>
<path d="M341.821 239C341.916 235.559 340.641 232.22 338.276 229.72C335.91 227.219 332.648 225.76 329.207 225.664L230.341 223.003C226.901 222.914 223.567 224.191 221.067 226.555C218.567 228.919 217.107 232.178 217.005 235.617C216.912 239.057 218.188 242.393 220.553 244.894C222.918 247.394 226.178 248.854 229.618 248.953L328.485 251.602C331.923 251.694 335.258 250.42 337.758 248.057C340.258 245.695 341.719 242.438 341.821 239Z" fill="#E7DFEE"/>
</g>
<path d="M130.366 124.06L129.013 125.596L127.58 127.259L124.759 130.699C122.924 132.992 121.112 135.286 119.45 137.694C116.116 142.204 113.304 147.078 111.068 152.222C110.586 153.404 110.165 154.609 109.806 155.834C109.489 156.917 109.266 158.026 109.141 159.148C108.885 161.816 108.861 164.502 109.072 167.175C109.602 173.099 110.475 178.987 111.687 184.811L104.245 187.826C102.569 184.97 101.094 182.001 99.8301 178.94C98.5345 175.829 97.4653 172.629 96.6309 169.365C95.7066 165.881 95.1834 162.303 95.0714 158.701C95.0039 156.684 95.1538 154.665 95.5186 152.681C95.8681 150.845 96.3198 149.031 96.8717 147.245C99.0762 140.649 102.162 134.381 106.045 128.612C107.914 125.802 109.864 123.085 111.951 120.493C112.983 119.186 114.049 117.906 115.15 116.652C115.7 116.021 116.296 115.391 116.824 114.771C117.351 114.152 117.971 113.625 118.659 112.856L130.366 124.06Z" fill="#FFC857"/>
<path d="M112.971 184.937L116.067 187.746L105.185 193.48C104.684 192.564 104.299 191.589 104.038 190.579C103.864 189.853 103.836 189.099 103.956 188.362C104.076 187.625 104.342 186.919 104.738 186.286C105.134 185.653 105.653 185.105 106.263 184.674C106.873 184.244 107.563 183.94 108.292 183.779C109.108 183.585 109.958 183.589 110.772 183.791C111.586 183.992 112.34 184.385 112.971 184.937Z" fill="#FFB573"/>
<path d="M120.24 194.799L111.044 199.11L105.185 193.446L116.067 187.735L120.24 194.799Z" fill="#FFB573"/>
<path d="M159.962 82.0572C159.962 82.8255 160.283 83.4561 160.776 83.4561C161.269 83.4561 161.716 82.8599 161.762 82.1031C161.808 81.3462 161.453 80.7041 160.948 80.7041C160.444 80.7041 160.008 81.3004 159.962 82.0572Z" fill="#263238"/>
<path d="M160.214 83.4443C160.973 85.7881 162.062 88.0119 163.447 90.0492C162.915 90.4123 162.31 90.6549 161.674 90.7598C161.038 90.8648 160.387 90.8297 159.767 90.6569L160.214 83.4443Z" fill="#FF5652"/>
<path d="M157.451 77.768C157.508 77.7794 157.567 77.7791 157.624 77.7673C157.681 77.7555 157.735 77.7323 157.783 77.6992C158.24 77.3621 158.771 77.1394 159.332 77.0496C159.892 76.9598 160.466 77.0056 161.005 77.1832C161.118 77.2255 161.243 77.223 161.354 77.176C161.465 77.1291 161.554 77.0414 161.602 76.9309C161.627 76.8783 161.641 76.8213 161.643 76.7632C161.646 76.7051 161.636 76.6471 161.616 76.5926C161.596 76.5381 161.565 76.4882 161.525 76.4459C161.485 76.4035 161.437 76.3696 161.384 76.3461C160.704 76.1249 159.982 76.0657 159.275 76.1733C158.568 76.2808 157.896 76.552 157.313 76.9653C157.262 76.9959 157.218 77.0362 157.183 77.084C157.148 77.1318 157.123 77.1861 157.109 77.2437C157.095 77.3013 157.093 77.3611 157.102 77.4197C157.112 77.4782 157.133 77.5342 157.164 77.5845C157.197 77.6328 157.24 77.6739 157.289 77.7054C157.338 77.7369 157.393 77.7582 157.451 77.768Z" fill="#263238"/>
<path d="M137.899 84.9697C138.817 92.0103 139.126 106.218 133.989 110.197C133.989 110.197 135.663 115.93 148.518 117.547C162.656 119.301 155.73 111.424 155.73 111.424C148.128 108.626 148.69 102.973 150.387 97.8011L137.899 84.9697Z" fill="#FFB573"/>
<path d="M103.717 394.63H103.809C103.984 394.551 104.132 394.421 104.234 394.258C104.337 394.095 104.388 393.905 104.382 393.713C104.397 393.563 104.378 393.412 104.326 393.271C104.275 393.13 104.192 393.003 104.084 392.898C103.109 391.912 99.9331 392.107 99.807 392.119C99.763 392.119 99.7201 392.133 99.6835 392.157C99.6469 392.182 99.6181 392.216 99.6006 392.256C99.5782 392.293 99.5664 392.334 99.5664 392.377C99.5664 392.419 99.5782 392.461 99.6006 392.497C100.311 393.151 102.548 394.951 103.717 394.63ZM100.357 392.52C101.424 392.52 103.178 392.612 103.797 393.197C103.86 393.257 103.908 393.33 103.937 393.412C103.967 393.493 103.978 393.58 103.969 393.667C103.969 394.091 103.752 394.16 103.694 394.183C103.029 394.435 101.412 393.449 100.357 392.52Z" fill="#4B0082"/>
<path d="M101.401 392.291C102.548 391.993 103.763 391.42 104.027 390.778C104.094 390.625 104.105 390.453 104.056 390.293C104.008 390.133 103.904 389.996 103.763 389.906C103.629 389.8 103.474 389.722 103.308 389.679C103.142 389.636 102.969 389.627 102.8 389.654C101.39 389.86 99.7042 392.085 99.6354 392.188C99.6127 392.222 99.6006 392.262 99.6006 392.303C99.6006 392.344 99.6127 392.384 99.6354 392.418C99.6535 392.452 99.6797 392.481 99.7116 392.503C99.7436 392.525 99.7804 392.539 99.8188 392.544C100.355 392.531 100.887 392.446 101.401 392.291ZM102.686 390.136H102.846C102.954 390.114 103.065 390.116 103.172 390.142C103.279 390.168 103.379 390.216 103.465 390.285C103.695 390.468 103.637 390.594 103.614 390.652C103.374 391.248 101.504 391.97 100.289 392.108C100.909 391.259 101.734 390.581 102.686 390.136Z" fill="#4B0082"/>
<path d="M161.441 405.111C162.434 405.241 163.439 404.987 164.251 404.4C164.353 404.256 164.408 404.083 164.408 403.907C164.408 403.73 164.353 403.557 164.251 403.413C164.179 403.284 164.081 403.17 163.962 403.081C163.844 402.992 163.707 402.93 163.563 402.897C162.003 402.462 158.62 404.342 158.483 404.423C158.443 404.448 158.41 404.484 158.388 404.526C158.366 404.568 158.355 404.616 158.357 404.663C158.363 404.708 158.383 404.75 158.413 404.782C158.444 404.815 158.484 404.838 158.529 404.847C159.49 405.018 160.465 405.106 161.441 405.111ZM163.024 403.276C163.164 403.258 163.307 403.258 163.448 403.276C163.538 403.294 163.623 403.333 163.696 403.388C163.77 403.444 163.83 403.515 163.872 403.597C164.021 403.872 163.964 404.01 163.872 404.09C163.402 404.698 161.005 404.709 159.285 404.468C160.444 403.835 161.713 403.431 163.024 403.276Z" fill="#4B0082"/>
<path d="M158.597 404.836H158.689C159.836 404.332 162.198 402.279 162.129 401.213C162.129 400.96 161.934 400.651 161.315 400.582C160.86 400.542 160.407 400.682 160.054 400.972C158.815 401.958 158.46 404.504 158.437 404.618C158.435 404.656 158.442 404.693 158.458 404.727C158.474 404.761 158.498 404.791 158.529 404.813C158.55 404.826 158.573 404.834 158.597 404.836ZM161.063 400.995H161.2C161.602 400.995 161.613 401.201 161.625 401.247C161.705 401.889 160.099 403.54 158.907 404.194C159.058 403.108 159.534 402.093 160.271 401.282C160.496 401.102 160.775 401.005 161.063 401.006V400.995Z" fill="#4B0082"/>
<path d="M148.208 404.618H157.668L159.491 382.717H150.031L148.208 404.618Z" fill="#FFB573"/>
<path d="M89.166 391.97L98.1675 393.724L106.469 372.304L97.468 370.55L89.166 391.97Z" fill="#FFB573"/>
<path d="M99.8184 391.007L90.9202 385.549C90.7567 385.453 90.5656 385.416 90.3781 385.443C90.1907 385.47 90.0179 385.56 89.8882 385.698L83.7076 391.947C83.5575 392.093 83.4425 392.27 83.3714 392.467C83.3002 392.663 83.2747 392.873 83.2968 393.081C83.3189 393.289 83.388 393.489 83.4989 393.666C83.6098 393.843 83.7596 393.993 83.9369 394.103C87.0788 395.949 88.7071 396.695 92.6173 399.091C95.0253 400.57 99.9789 404.538 103.568 406.109C107.157 407.68 109.301 404.286 108.006 403.311C102.112 398.965 101.573 395.284 100.77 392.303C100.629 391.766 100.288 391.303 99.8184 391.007Z" fill="#263238"/>
<path d="M157.646 403.528H147.326C147.136 403.528 146.952 403.591 146.802 403.707C146.653 403.823 146.546 403.987 146.5 404.17L144.287 412.587C144.229 412.785 144.219 412.995 144.257 413.197C144.295 413.4 144.381 413.591 144.508 413.755C144.634 413.918 144.798 414.049 144.984 414.137C145.171 414.225 145.376 414.268 145.583 414.261C149.31 414.204 154.756 413.986 159.343 413.986C164.813 413.986 165.707 414.284 172.129 414.284C176.016 414.284 177.243 410.351 175.637 409.996C168.299 408.379 166.097 408.207 159.859 404.262C159.204 403.817 158.437 403.563 157.646 403.528Z" fill="#263238"/>
<path d="M171.268 142.98C171.131 146.19 170.913 149.734 170.569 153.644C169.675 164.251 167.989 177.472 165.099 193.904H114.508C114.508 186.726 119.966 153.77 116.033 119.908C115.798 117.626 116.462 115.343 117.884 113.542C119.305 111.742 121.373 110.566 123.647 110.265C126.215 109.932 129.094 109.646 131.914 109.508C139.079 109.095 146.262 109.095 153.426 109.508C156.584 109.814 159.723 110.292 162.829 110.941C164.611 111.306 166.247 112.187 167.533 113.473C168.819 114.759 169.699 116.395 170.064 118.177C170.97 122.752 171.784 130.389 171.268 142.98Z" fill="#FFC857"/>
<path opacity="0.3" d="M161.006 194.053C160.968 194.045 160.935 194.022 160.914 193.99C160.892 193.958 160.884 193.919 160.891 193.881C163.54 178.756 165.386 165.214 166.361 153.632C166.682 149.94 166.911 146.351 167.049 142.968C167.588 129.942 166.659 122.328 165.787 118.2C165.784 118.182 165.784 118.163 165.788 118.145C165.793 118.127 165.8 118.11 165.811 118.095C165.821 118.08 165.835 118.068 165.851 118.058C165.866 118.049 165.884 118.042 165.902 118.039C165.92 118.034 165.939 118.033 165.958 118.035C165.976 118.038 165.994 118.044 166.01 118.054C166.026 118.063 166.04 118.076 166.051 118.092C166.062 118.107 166.07 118.124 166.074 118.143C167.324 124.048 167.76 132.637 167.335 142.98C167.198 146.42 166.968 149.963 166.647 153.655C165.673 165.237 163.827 178.791 161.166 193.927C161.165 193.946 161.16 193.965 161.151 193.982C161.142 193.999 161.129 194.014 161.114 194.025C161.099 194.037 161.081 194.046 161.063 194.051C161.044 194.055 161.025 194.056 161.006 194.053Z" fill="black"/>
<path opacity="0.2" d="M162.301 135.274C162.175 142.418 165.856 158.46 169.319 165.788C169.846 161.396 170.27 157.359 170.58 153.644C170.844 150.468 171.039 147.544 171.176 144.838L162.301 135.274Z" fill="black"/>
<path d="M203.512 152.75L211.963 147.728L213.5 159.286C213.5 159.286 206.803 161.155 203.054 158.896L203.512 152.75Z" fill="#FFB573"/>
<path d="M223.075 148.553L220.289 157.772L213.5 159.286L211.964 147.728L223.075 148.553Z" fill="#FFB573"/>
<path d="M168.699 115.873C169.135 116.882 169.422 117.616 169.708 118.372C169.995 119.129 170.259 119.84 170.511 120.54L171.979 124.714C172.942 127.454 173.871 130.149 174.857 132.74C175.843 135.332 176.829 137.992 177.919 140.458C178.903 142.81 180.052 145.09 181.359 147.28C181.87 148.137 182.445 148.953 183.079 149.723C183.32 150.021 183.537 150.227 183.629 150.33C183.721 150.434 183.698 150.411 183.629 150.411C183.56 150.411 183.629 150.411 183.698 150.411L183.87 150.514C184.593 150.88 185.366 151.138 186.163 151.282C187.301 151.475 188.45 151.586 189.603 151.615C195.014 151.562 200.409 151.033 205.726 150.032H206.001C206.927 149.881 207.877 150.055 208.69 150.526C209.502 150.996 210.126 151.733 210.456 152.612C210.786 153.491 210.801 154.456 210.499 155.345C210.197 156.234 209.596 156.99 208.799 157.486C207.441 158.348 206.04 159.14 204.602 159.859C203.192 160.582 201.747 161.235 200.256 161.832C197.193 163.103 194.002 164.042 190.739 164.63C188.942 164.959 187.118 165.12 185.292 165.111C183.156 165.135 181.03 164.834 178.985 164.217L178.125 163.919C177.802 163.818 177.487 163.692 177.185 163.54C176.533 163.24 175.904 162.891 175.304 162.497C174.294 161.823 173.349 161.055 172.483 160.203C171.07 158.847 169.791 157.357 168.665 155.754C165.052 150.374 162.056 144.604 159.732 138.554C158.586 135.699 157.508 132.821 156.522 130.023L155.077 125.837L154.389 123.842C154.182 123.223 153.942 122.569 153.804 122.225L153.724 121.996C153.061 120.053 153.161 117.93 154.004 116.057C154.847 114.185 156.371 112.703 158.265 111.912C160.16 111.12 162.285 111.078 164.209 111.795C166.134 112.511 167.714 113.932 168.631 115.77L168.699 115.873Z" fill="#FFC857"/>
<path opacity="0.2" d="M159.491 382.717L158.551 394.012H149.091L150.031 382.717H159.491Z" fill="black"/>
<path opacity="0.2" d="M97.4673 370.55L106.469 372.304L102.18 383.347L93.1787 381.592L97.4673 370.55Z" fill="black"/>
<path d="M134.643 79.9124C134.643 89.2923 134.162 94.8193 138.588 99.7156C145.262 107.089 157.084 103.041 159.882 93.7414C162.416 85.3592 161.992 71.427 153.002 67.5054C144.012 63.5837 134.643 70.5326 134.643 79.9124Z" fill="#FFB573"/>
<path d="M155.845 84.6255C156.648 82.4239 159.858 72.9638 153.907 70.0054C147.956 67.0469 140.147 66.1296 135.297 68.2395C130.446 70.3494 126.926 78.0321 126.926 78.0321C126.926 78.0321 129.219 94.2232 138.668 97.1473C148.116 100.071 158.826 88.8338 155.845 84.6255Z" fill="#263238"/>
<path d="M153.552 71.221C154.571 70.893 155.529 70.3969 156.384 69.7533C159.824 66.4164 153.736 64.1804 147.704 63.63C140.824 63.0222 131.1 65.7399 127.213 70.7738C130.894 72.6658 148.3 72.7461 153.552 71.221Z" fill="#263238"/>
<path d="M152.99 70.2804C153.898 70.2751 154.798 70.1121 155.65 69.7988C160.237 67.5055 154.951 64.4897 150.226 62.4716C144.871 60.1782 136.26 59.9145 131.811 63.0793C134.299 65.602 148.346 70.1887 152.99 70.2804Z" fill="#263238"/>
<path d="M151.729 83.3295C151.733 85.3907 152.432 87.3902 153.712 89.0056C155.421 91.0811 157.428 89.8771 157.921 87.4117C158.368 85.1871 158.024 81.426 155.845 80.245C153.666 79.0639 151.751 80.8068 151.729 83.3295Z" fill="#FFB573"/>
<path d="M147.153 193.904C147.153 193.904 148.713 265.492 139.126 291.888C124.082 333.742 107.696 382.224 107.696 382.224L90.4268 378.382C90.4268 378.382 104.347 325.578 111.904 290.363C118.784 258.715 113.464 219.75 114.507 193.904H147.153Z" fill="#4B0082"/>
<g opacity="0.3">
<path d="M147.153 193.904C147.153 193.904 148.713 265.492 139.126 291.888C124.082 333.742 107.696 382.224 107.696 382.224L90.4268 378.382C90.4268 378.382 104.347 325.578 111.904 290.363C118.784 258.715 113.464 219.75 114.507 193.904H147.153Z" fill="white"/>
</g>
<path opacity="0.2" d="M147.233 209.901C142.52 208.513 138.771 209.041 137.636 213.283C134.666 224.372 141.076 253.624 144.275 267.005C146.58 247.741 147.153 224.808 147.233 209.901Z" fill="black"/>
<path d="M112.375 376.983C112.455 376.983 108.098 382.591 108.098 382.591L89.2119 378.394L91.3677 371.915L112.375 376.983Z" fill="#4B0082"/>
<path d="M165.121 193.904C165.121 193.904 175.625 254.059 175.441 282.91C175.247 315.257 162.151 391.844 162.151 391.844H146.098C146.098 391.844 148.116 314.879 148.598 285.409C149.125 253.302 131.799 193.927 131.799 193.927L165.121 193.904Z" fill="#4B0082"/>
<g opacity="0.3">
<path d="M165.121 193.904C165.121 193.904 175.625 254.059 175.441 282.91C175.247 315.257 162.151 391.844 162.151 391.844H146.098C146.098 391.844 148.116 314.879 148.598 285.409C149.125 253.302 131.799 193.927 131.799 193.927L165.121 193.904Z" fill="white"/>
</g>
<path d="M165.512 385.445C165.581 385.445 164.365 392.096 164.365 392.096H144.872L144.585 386.156L165.512 385.445Z" fill="#4B0082"/>
<path d="M147.084 214.487C147.036 214.502 146.984 214.502 146.935 214.487L140.262 210.554C140.225 210.529 140.194 210.497 140.17 210.459C140.146 210.422 140.131 210.38 140.124 210.336L138.748 199.58C138.742 199.539 138.745 199.498 138.757 199.458C138.769 199.418 138.789 199.382 138.817 199.351C138.845 199.321 138.879 199.298 138.916 199.282C138.954 199.267 138.994 199.259 139.035 199.259H151.832C151.903 199.256 151.972 199.28 152.026 199.327C152.079 199.374 152.112 199.44 152.118 199.511L153.345 209.923C153.351 209.976 153.342 210.03 153.32 210.078C153.297 210.126 153.263 210.168 153.219 210.198L147.233 214.395C147.195 214.441 147.143 214.473 147.084 214.487ZM140.674 210.084L147.073 213.856L152.806 209.854L151.66 199.867H139.367L140.674 210.084Z" fill="white"/>
</g>
<defs>
<clipPath id="clip0_4893_37646">
<rect width="573.34" height="427.264" fill="white"/>
</clipPath>
</defs>
</svg>
