<svg width="17" height="16" viewBox="0 0 17 16" fill="none" xmlns="http://www.w3.org/2000/svg">
<g id="vuesax/outline/add-circle">
<g id="add-circle">
<path id="Vector" d="M8.5026 15.1666C4.54927 15.1666 1.33594 11.9533 1.33594 7.99992C1.33594 4.04659 4.54927 0.833252 8.5026 0.833252C12.4559 0.833252 15.6693 4.04659 15.6693 7.99992C15.6693 11.9533 12.4559 15.1666 8.5026 15.1666ZM8.5026 1.83325C5.1026 1.83325 2.33594 4.59992 2.33594 7.99992C2.33594 11.3999 5.1026 14.1666 8.5026 14.1666C11.9026 14.1666 14.6693 11.3999 14.6693 7.99992C14.6693 4.59992 11.9026 1.83325 8.5026 1.83325Z" fill="#F4F4F4"/>
<path id="Vector_2" d="M11.1693 8.5H5.83594C5.5626 8.5 5.33594 8.27333 5.33594 8C5.33594 7.72667 5.5626 7.5 5.83594 7.5H11.1693C11.4426 7.5 11.6693 7.72667 11.6693 8C11.6693 8.27333 11.4426 8.5 11.1693 8.5Z" fill="#F4F4F4"/>
<path id="Vector_3" d="M8.5 11.1666C8.22667 11.1666 8 10.9399 8 10.6666V5.33325C8 5.05992 8.22667 4.83325 8.5 4.83325C8.77333 4.83325 9 5.05992 9 5.33325V10.6666C9 10.9399 8.77333 11.1666 8.5 11.1666Z" fill="#F4F4F4"/>
</g>
</g>
</svg>
