<svg width="16" height="16" viewBox="0 0 16 16" fill="none" xmlns="http://www.w3.org/2000/svg">
<path d="M12.0467 6.88002C11.9201 6.88002 11.7934 6.83336 11.6934 6.73336L8.00008 3.04002L4.30674 6.73336C4.11341 6.92669 3.79341 6.92669 3.60008 6.73336C3.40674 6.54002 3.40674 6.22002 3.60008 6.02669L7.64675 1.98002C7.84008 1.78669 8.16008 1.78669 8.35341 1.98002L12.4001 6.02669C12.5934 6.22002 12.5934 6.54002 12.4001 6.73336C12.3067 6.83336 12.1734 6.88002 12.0467 6.88002Z" fill="#7ABA98"/>
<path d="M8 14.1667C7.72667 14.1667 7.5 13.94 7.5 13.6667V2.44666C7.5 2.17332 7.72667 1.94666 8 1.94666C8.27333 1.94666 8.5 2.17332 8.5 2.44666V13.6667C8.5 13.94 8.27333 14.1667 8 14.1667Z" fill="#7ABA98"/>
</svg>
