<svg width="16" height="17" viewBox="0 0 16 17" fill="none" xmlns="http://www.w3.org/2000/svg">
<path d="M12.0014 4.49998C11.5947 4.49998 11.2214 4.26665 11.0347 3.90665L10.5547 2.93998C10.2481 2.33331 9.44808 1.83331 8.76808 1.83331H7.24141C6.55475 1.83331 5.75475 2.33331 5.44808 2.93998L4.96808 3.90665C4.78141 4.26665 4.40808 4.49998 4.00141 4.49998C2.55475 4.49998 1.40808 5.71998 1.50141 7.15998L1.84808 12.6666C1.92808 14.04 2.66808 15.1666 4.50808 15.1666H11.4947C13.3347 15.1666 14.0681 14.04 14.1547 12.6666L14.5014 7.15998C14.5947 5.71998 13.4481 4.49998 12.0014 4.49998ZM7.00141 5.33331H9.00141C9.27475 5.33331 9.50141 5.55998 9.50141 5.83331C9.50141 6.10665 9.27475 6.33331 9.00141 6.33331H7.00141C6.72808 6.33331 6.50141 6.10665 6.50141 5.83331C6.50141 5.55998 6.72808 5.33331 7.00141 5.33331ZM8.00141 12.58C6.76141 12.58 5.74808 11.5733 5.74808 10.3266C5.74808 9.07998 6.75475 8.07331 8.00141 8.07331C9.24808 8.07331 10.2547 9.07998 10.2547 10.3266C10.2547 11.5733 9.24141 12.58 8.00141 12.58Z" fill="#FFC857"/>
</svg>
