<svg width="15" height="15" viewBox="0 0 15 15" fill="none" xmlns="http://www.w3.org/2000/svg">
<path d="M5.73552 10.9767C5.49635 10.9767 5.29802 10.7783 5.29802 10.5392V8.09501L4.87802 8.51501C4.70885 8.68418 4.42885 8.68418 4.25969 8.51501C4.09052 8.34584 4.09052 8.06584 4.25969 7.89668L5.42635 6.73001C5.54885 6.60751 5.74135 6.56668 5.90469 6.63668C6.06802 6.70084 6.17302 6.86418 6.17302 7.03918V10.5392C6.17302 10.7783 5.97469 10.9767 5.73552 10.9767Z" fill="#4B0082"/>
<path d="M6.89958 8.64275C6.78875 8.64275 6.67792 8.60191 6.59042 8.51441L5.42375 7.34775C5.25458 7.17858 5.25458 6.89858 5.42375 6.72941C5.59292 6.56025 5.87292 6.56025 6.04208 6.72941L7.20875 7.89608C7.37792 8.06525 7.37792 8.34525 7.20875 8.51441C7.12125 8.60191 7.01042 8.64275 6.89958 8.64275Z" fill="#4B0082"/>
<path d="M9.23177 13.8932H5.73177C2.56427 13.8932 1.21094 12.5399 1.21094 9.3724V5.8724C1.21094 2.7049 2.56427 1.35156 5.73177 1.35156H8.64844C8.8876 1.35156 9.08594 1.5499 9.08594 1.78906C9.08594 2.02823 8.8876 2.22656 8.64844 2.22656H5.73177C3.0426 2.22656 2.08594 3.18323 2.08594 5.8724V9.3724C2.08594 12.0616 3.0426 13.0182 5.73177 13.0182H9.23177C11.9209 13.0182 12.8776 12.0616 12.8776 9.3724V6.45573C12.8776 6.21656 13.0759 6.01823 13.3151 6.01823C13.5543 6.01823 13.7526 6.21656 13.7526 6.45573V9.3724C13.7526 12.5399 12.3993 13.8932 9.23177 13.8932Z" fill="#4B0082"/>
<path d="M13.3151 6.89334H10.9818C8.98677 6.89334 8.21094 6.11751 8.21094 4.12251V1.78918C8.21094 1.61418 8.31594 1.45084 8.47927 1.38668C8.6426 1.31668 8.82927 1.35751 8.9576 1.48001L13.6243 6.14668C13.7468 6.26918 13.7876 6.46168 13.7176 6.62501C13.6476 6.78834 13.4901 6.89334 13.3151 6.89334ZM9.08594 2.84501V4.12251C9.08594 5.62751 9.47677 6.01834 10.9818 6.01834H12.2593L9.08594 2.84501Z" fill="#4B0082"/>
</svg>
