<svg width="16" height="16" viewBox="0 0 16 16" fill="none" xmlns="http://www.w3.org/2000/svg">
<path d="M13.7326 2.73336V4.20002C13.7326 4.73336 13.3993 5.40002 13.0659 5.73336L10.1993 8.26669C9.79927 8.60002 9.53261 9.26669 9.53261 9.80002V12.6667C9.53261 13.0667 9.26594 13.6 8.93261 13.8L7.99927 14.4C7.13261 14.9334 5.93261 14.3334 5.93261 13.2667V9.73336C5.93261 9.26669 5.66594 8.66669 5.39927 8.33336L5.08594 8.00669C4.87927 7.78669 4.83927 7.45336 5.00594 7.19336L8.41927 1.71336C8.53927 1.52002 8.75261 1.40002 8.98594 1.40002H12.3993C13.1326 1.40002 13.7326 2.00002 13.7326 2.73336Z" fill="#4B0082"/>
<path d="M6.89896 2.42002L4.53229 6.21336C4.30563 6.58002 3.78562 6.63336 3.48563 6.32002L2.86563 5.66669C2.53229 5.33336 2.26562 4.73336 2.26562 4.33336V2.80002C2.26562 2.00002 2.86563 1.40002 3.59896 1.40002H6.33229C6.85229 1.40002 7.17229 1.97336 6.89896 2.42002Z" fill="#4B0082"/>
</svg>
