<svg width="32" height="32" viewBox="0 0 32 32" fill="none" xmlns="http://www.w3.org/2000/svg">
<path d="M29.3334 10.0667C29.3334 10.9467 28.6134 11.6667 27.7334 11.6667H4.26675C3.38675 11.6667 2.66675 10.9467 2.66675 10.0667V10.0533C2.66675 6.99999 5.13341 4.53333 8.18675 4.53333H23.8001C26.8534 4.53333 29.3334 7.01333 29.3334 10.0667Z" fill="#9881AE"/>
<path d="M2.66675 15.2667V21.9467C2.66675 25 5.13341 27.4667 8.18675 27.4667H23.8001C26.8534 27.4667 29.3334 24.9867 29.3334 21.9334V15.2667C29.3334 14.3867 28.6134 13.6667 27.7334 13.6667H4.26675C3.38675 13.6667 2.66675 14.3867 2.66675 15.2667ZM10.6667 23H8.00008C7.45341 23 7.00008 22.5467 7.00008 22C7.00008 21.4534 7.45341 21 8.00008 21H10.6667C11.2134 21 11.6667 21.4534 11.6667 22C11.6667 22.5467 11.2134 23 10.6667 23ZM19.3334 23H14.0001C13.4534 23 13.0001 22.5467 13.0001 22C13.0001 21.4534 13.4534 21 14.0001 21H19.3334C19.8801 21 20.3334 21.4534 20.3334 22C20.3334 22.5467 19.8801 23 19.3334 23Z" fill="#9881AE"/>
</svg>
