<svg width="32" height="32" viewBox="0 0 32 32" fill="none" xmlns="http://www.w3.org/2000/svg">
<path d="M9.33342 2.66669H8.00008C4.00008 2.66669 2.66675 5.05335 2.66675 8.00002V9.33335V28C2.66675 29.1067 3.92008 29.7334 4.80008 29.0667L7.08008 27.36C7.61341 26.96 8.36008 27.0134 8.84008 27.4934L11.0534 29.72C11.5734 30.24 12.4267 30.24 12.9467 29.72L15.1867 27.48C15.6534 27.0134 16.4001 26.96 16.9201 27.36L19.2001 29.0667C20.0801 29.72 21.3334 29.0934 21.3334 28V5.33335C21.3334 3.86669 22.5334 2.66669 24.0001 2.66669H9.33342ZM15.0001 18.3334H9.00008C8.45341 18.3334 8.00008 17.88 8.00008 17.3334C8.00008 16.7867 8.45341 16.3334 9.00008 16.3334H15.0001C15.5467 16.3334 16.0001 16.7867 16.0001 17.3334C16.0001 17.88 15.5467 18.3334 15.0001 18.3334ZM16.0001 13H8.00008C7.45341 13 7.00008 12.5467 7.00008 12C7.00008 11.4534 7.45341 11 8.00008 11H16.0001C16.5467 11 17.0001 11.4534 17.0001 12C17.0001 12.5467 16.5467 13 16.0001 13Z" fill="#9881AE"/>
<path d="M24.0133 2.66669V4.66669C24.8933 4.66669 25.7333 5.02669 26.3466 5.62669C26.9866 6.28002 27.3333 7.12002 27.3333 8.00002V11.2267C27.3333 12.2134 26.8933 12.6667 25.8933 12.6667H23.3333V5.34669C23.3333 4.97335 23.6399 4.66669 24.0133 4.66669V2.66669ZM24.0133 2.66669C22.5333 2.66669 21.3333 3.86669 21.3333 5.34669V14.6667H25.8933C27.9999 14.6667 29.3333 13.3334 29.3333 11.2267V8.00002C29.3333 6.53335 28.7333 5.20002 27.7733 4.22669C26.7999 3.26669 25.4799 2.68002 24.0133 2.66669C24.0266 2.66669 24.0133 2.66669 24.0133 2.66669Z" fill="#9881AE"/>
</svg>
