<svg width="32" height="32" viewBox="0 0 32 32" fill="none" xmlns="http://www.w3.org/2000/svg">
<g id="vuesax/bold/card">
<g id="card">
<path id="Vector" d="M29.3332 10.0665C29.3332 10.9465 28.6132 11.6665 27.7332 11.6665H4.2665C3.3865 11.6665 2.6665 10.9465 2.6665 10.0665V10.0532C2.6665 6.99987 5.13317 4.5332 8.1865 4.5332H23.7998C26.8532 4.5332 29.3332 7.0132 29.3332 10.0665Z" fill="#4B0082"/>
<path id="Vector_2" d="M2.6665 15.2665V21.9465C2.6665 24.9998 5.13317 27.4665 8.1865 27.4665H23.7998C26.8532 27.4665 29.3332 24.9865 29.3332 21.9332V15.2665C29.3332 14.3865 28.6132 13.6665 27.7332 13.6665H4.2665C3.3865 13.6665 2.6665 14.3865 2.6665 15.2665ZM10.6665 22.9998H7.99984C7.45317 22.9998 6.99984 22.5465 6.99984 21.9998C6.99984 21.4532 7.45317 20.9998 7.99984 20.9998H10.6665C11.2132 20.9998 11.6665 21.4532 11.6665 21.9998C11.6665 22.5465 11.2132 22.9998 10.6665 22.9998ZM19.3332 22.9998H13.9998C13.4532 22.9998 12.9998 22.5465 12.9998 21.9998C12.9998 21.4532 13.4532 20.9998 13.9998 20.9998H19.3332C19.8798 20.9998 20.3332 21.4532 20.3332 21.9998C20.3332 22.5465 19.8798 22.9998 19.3332 22.9998Z" fill="#4B0082"/>
</g>
</g>
</svg>
