<svg width="32" height="32" viewBox="0 0 32 32" fill="none" xmlns="http://www.w3.org/2000/svg">
<g id="vuesax/bold/money-tick">
<g id="money-tick">
<path id="Vector" d="M22.667 5.33398H9.33366C5.33366 5.33398 2.66699 7.33398 2.66699 12.0007V16.7473C2.66699 17.2407 3.17366 17.5473 3.61366 17.3473C4.92033 16.7473 6.42699 16.5207 8.01366 16.8007C11.5203 17.4273 14.0937 20.6807 14.0003 24.2407C13.987 24.8006 13.907 25.3473 13.7603 25.8806C13.6537 26.294 13.987 26.6807 14.4137 26.6807H22.667C26.667 26.6807 29.3337 24.6807 29.3337 20.014V12.0007C29.3337 7.33398 26.667 5.33398 22.667 5.33398ZM16.0003 19.334C14.1603 19.334 12.667 17.8407 12.667 16.0007C12.667 14.1607 14.1603 12.6673 16.0003 12.6673C17.8403 12.6673 19.3337 14.1607 19.3337 16.0007C19.3337 17.8407 17.8403 19.334 16.0003 19.334ZM25.667 18.6673C25.667 19.214 25.2137 19.6673 24.667 19.6673C24.1203 19.6673 23.667 19.214 23.667 18.6673V13.334C23.667 12.7873 24.1203 12.334 24.667 12.334C25.2137 12.334 25.667 12.7873 25.667 13.334V18.6673Z" fill="#9881AE"/>
<path id="Vector_2" d="M6.66634 18.666C3.71967 18.666 1.33301 21.0527 1.33301 23.9993C1.33301 24.9993 1.61301 25.946 2.10634 26.746C3.02634 28.2927 4.71967 29.3327 6.66634 29.3327C8.61301 29.3327 10.3063 28.2927 11.2263 26.746C11.7197 25.946 11.9997 24.9993 11.9997 23.9993C11.9997 21.0527 9.61301 18.666 6.66634 18.666ZM9.29301 23.5593L6.45301 26.186C6.26634 26.3593 6.01301 26.4527 5.77301 26.4527C5.51967 26.4527 5.26634 26.3594 5.06634 26.1594L3.74634 24.8393C3.35967 24.4527 3.35967 23.8127 3.74634 23.426C4.13301 23.0393 4.77301 23.0393 5.15967 23.426L5.79967 24.066L7.93301 22.0927C8.33301 21.7193 8.97301 21.746 9.34634 22.146C9.71968 22.546 9.69301 23.186 9.29301 23.5593Z" fill="#9881AE"/>
</g>
</g>
</svg>
