<svg width="150" height="26" viewBox="0 0 150 26" fill="none" xmlns="http://www.w3.org/2000/svg">
<path d="M0.240845 1.02279H7.0716C8.58143 1.02279 9.93905 1.27239 11.1445 1.77161C12.3621 2.25865 13.3301 3.02574 14.0485 4.07288C14.7668 5.12002 15.126 6.48374 15.126 8.16403C15.126 9.83214 14.7668 11.2141 14.0485 12.31C13.3301 13.4058 12.3621 14.2277 11.1445 14.7756C9.93905 15.3114 8.58143 15.5792 7.0716 15.5792H3.364V25.1313H0.240845V1.02279ZM3.364 12.9675H6.21319C7.24815 12.9675 8.1857 12.8153 9.02585 12.5109C9.87817 12.2065 10.5539 11.7073 11.0532 11.0132C11.5646 10.3192 11.8202 9.38772 11.8202 8.21882C11.8202 7.03775 11.5646 6.11846 11.0532 5.46095C10.5539 4.79127 9.87817 4.32249 9.02585 4.05462C8.1857 3.77457 7.24815 3.63454 6.21319 3.63454H3.364V12.9675Z" fill="#F4F4F4"/>
<path d="M19.5083 18.2823C19.5204 19.1833 19.7153 20.0052 20.0927 20.748C20.4702 21.4907 21.0303 22.0812 21.773 22.5196C22.5279 22.9579 23.4533 23.1771 24.5491 23.1771C25.4745 23.1771 26.2599 23.0431 26.9052 22.7753C27.5627 22.4952 28.0985 22.1665 28.5124 21.789C28.9264 21.3994 29.2247 21.0524 29.4074 20.748L30.9598 22.6657C30.558 23.2501 30.0649 23.7615 29.4804 24.1999C28.9082 24.6382 28.208 24.973 27.3801 25.2044C26.5521 25.4479 25.5415 25.5697 24.3482 25.5697C22.741 25.5697 21.3469 25.2287 20.1658 24.5469C18.9969 23.8528 18.0959 22.897 17.4627 21.6794C16.8295 20.4496 16.513 19.0433 16.513 17.4604C16.513 15.9993 16.8113 14.6843 17.4079 13.5154C18.0045 12.3343 18.869 11.4029 20.0014 10.721C21.1459 10.0391 22.5218 9.69821 24.1291 9.69821C25.6024 9.69821 26.8809 10.0087 27.9645 10.6297C29.0604 11.2385 29.9066 12.103 30.5032 13.2232C31.112 14.3434 31.4164 15.6827 31.4164 17.2413C31.4164 17.3387 31.4103 17.5152 31.3982 17.7709C31.386 18.0144 31.3738 18.1849 31.3616 18.2823H19.5083ZM28.3846 15.8897C28.3724 15.3905 28.2263 14.8426 27.9463 14.246C27.6784 13.6493 27.24 13.1379 26.6312 12.7118C26.0224 12.2856 25.2006 12.0725 24.1656 12.0725C23.0941 12.0725 22.2296 12.2795 21.5721 12.6935C20.9268 13.1075 20.4519 13.6128 20.1475 14.2094C19.8431 14.7939 19.6666 15.354 19.6179 15.8897H28.3846Z" fill="#F4F4F4"/>
<path d="M40.5507 9.69821C41.33 9.69821 42.0545 9.77735 42.7242 9.93564C43.406 10.0939 43.9905 10.2827 44.4775 10.5018C44.9767 10.721 45.3298 10.9158 45.5368 11.0863L44.2766 13.0953C44.0331 12.8762 43.5947 12.6326 42.9616 12.3648C42.3284 12.0847 41.6222 11.9447 40.843 11.9447C39.9906 11.9447 39.2662 12.1152 38.6695 12.4561C38.0729 12.7848 37.7746 13.2658 37.7746 13.8989C37.7746 14.5321 38.079 15.0374 38.6878 15.4149C39.3088 15.7801 40.1367 16.0845 41.1717 16.3281C41.9997 16.5229 42.7729 16.7847 43.4912 17.1134C44.2218 17.4422 44.8123 17.8988 45.2629 18.4832C45.7134 19.0555 45.9386 19.8226 45.9386 20.7845C45.9386 21.6612 45.756 22.41 45.3907 23.031C45.0254 23.6398 44.5323 24.1329 43.9113 24.5103C43.2903 24.8756 42.5963 25.1435 41.8292 25.314C41.0621 25.4844 40.2829 25.5697 39.4914 25.5697C38.566 25.5697 37.732 25.4723 36.9892 25.2774C36.2465 25.0948 35.6194 24.8756 35.108 24.6199C34.6088 24.3521 34.2435 24.1207 34.0122 23.9259L35.2724 21.6612C35.589 21.9656 36.1065 22.2882 36.8249 22.6292C37.5554 22.9701 38.3834 23.1405 39.3088 23.1405C40.3316 23.1405 41.1595 22.9275 41.7927 22.5013C42.4258 22.063 42.7424 21.4968 42.7424 20.8027C42.7424 20.2792 42.5902 19.8591 42.2858 19.5425C41.9814 19.226 41.5735 18.9703 41.0621 18.7754C40.5507 18.5806 39.9906 18.4102 39.3818 18.264C38.7974 18.1301 38.2251 17.9536 37.665 17.7344C37.1171 17.5152 36.6118 17.2352 36.1491 16.8942C35.6986 16.5411 35.3394 16.115 35.0715 15.6158C34.8036 15.1044 34.6697 14.5077 34.6697 13.8259C34.6697 12.9614 34.9437 12.2247 35.4916 11.6159C36.0395 10.995 36.7579 10.5201 37.6468 10.1913C38.5356 9.86259 39.5036 9.69821 40.5507 9.69821Z" fill="#F4F4F4"/>
<path d="M61.6765 25.1313V22.2091C61.5791 22.5135 61.293 22.9336 60.8181 23.4693C60.3554 24.005 59.7162 24.4921 58.9004 24.9304C58.0968 25.3566 57.147 25.5697 56.0512 25.5697C54.6631 25.5697 53.4029 25.2409 52.2705 24.5834C51.1503 23.9259 50.2554 23.0066 49.5857 21.8255C48.9282 20.6323 48.5995 19.2381 48.5995 17.6431C48.5995 16.048 48.9282 14.6599 49.5857 13.4789C50.2554 12.2856 51.1503 11.3602 52.2705 10.7027C53.4029 10.033 54.6631 9.69821 56.0512 9.69821C57.1349 9.69821 58.0724 9.89303 58.8639 10.2827C59.6675 10.6723 60.3067 11.1228 60.7816 11.6342C61.2686 12.1456 61.5548 12.5839 61.64 12.9492V10.1365H64.7814V25.1313H61.6765ZM51.7409 17.6431C51.7409 18.7267 51.9783 19.6643 52.4532 20.4557C52.928 21.2472 53.5429 21.8621 54.2978 22.3004C55.0649 22.7266 55.8807 22.9396 56.7452 22.9396C57.6706 22.9396 58.4986 22.7205 59.2291 22.2821C59.9597 21.8438 60.5381 21.2289 60.9642 20.4375C61.3904 19.6338 61.6035 18.7024 61.6035 17.6431C61.6035 16.5838 61.3904 15.6584 60.9642 14.8669C60.5381 14.0633 59.9597 13.4423 59.2291 13.004C58.4986 12.5535 57.6706 12.3282 56.7452 12.3282C55.8807 12.3282 55.0649 12.5474 54.2978 12.9857C53.5429 13.4241 52.928 14.039 52.4532 14.8304C51.9783 15.6218 51.7409 16.5594 51.7409 17.6431Z" fill="#F4F4F4"/>
<path d="M76.6256 0.584448C78.0137 0.584448 79.207 0.742737 80.2054 1.05931C81.216 1.37589 82.0075 1.71073 82.5797 2.06384C83.1642 2.41694 83.5112 2.64829 83.6208 2.75787L82.0135 5.3331C81.8309 5.17481 81.5082 4.94956 81.0455 4.65733C80.5829 4.35293 80.0045 4.08506 79.3105 3.85371C78.6164 3.61019 77.825 3.48843 76.9361 3.48843C75.5602 3.48843 74.4705 3.76848 73.6669 4.32858C72.8754 4.8765 72.4797 5.65576 72.4797 6.66638C72.4797 7.34823 72.6867 7.95095 73.1007 8.47452C73.5268 8.98591 74.1235 9.45469 74.8906 9.88085C75.6576 10.307 76.5526 10.7453 77.5754 11.1959C78.4155 11.549 79.2374 11.9508 80.041 12.4013C80.8568 12.8518 81.5935 13.3815 82.251 13.9903C82.9207 14.5991 83.4503 15.3053 83.8399 16.1089C84.2417 16.9125 84.4426 17.8379 84.4426 18.885C84.4426 19.92 84.2296 20.8514 83.8034 21.6794C83.3894 22.5074 82.7989 23.2136 82.0318 23.798C81.2769 24.3703 80.3941 24.8087 79.3835 25.1131C78.3729 25.4175 77.2831 25.5697 76.1143 25.5697C74.641 25.5697 73.3077 25.387 72.1144 25.0217C70.9334 24.6565 69.9775 24.2729 69.247 23.8711C68.5286 23.4693 68.1146 23.2197 68.005 23.1223L69.7036 20.4375C69.8497 20.5592 70.1176 20.7419 70.5072 20.9854C70.8968 21.2167 71.3778 21.4603 71.9501 21.716C72.5223 21.9716 73.1677 22.1908 73.886 22.3735C74.6044 22.5439 75.3715 22.6292 76.1873 22.6292C77.8189 22.6292 79.0548 22.2639 79.8949 21.5333C80.7351 20.8027 81.1551 19.8652 81.1551 18.7206C81.1551 17.844 80.8873 17.0891 80.3515 16.4559C79.8158 15.8228 79.1035 15.2566 78.2146 14.7573C77.3258 14.2581 76.3456 13.7772 75.2741 13.3145C74.1783 12.8153 73.1737 12.2674 72.2605 11.6707C71.3473 11.0741 70.6107 10.3618 70.0506 9.53383C69.5027 8.69368 69.2287 7.68307 69.2287 6.502C69.2287 5.3331 69.5575 4.30423 70.215 3.41538C70.8847 2.52653 71.7796 1.83249 72.8998 1.33327C74.0322 0.834057 75.2741 0.584448 76.6256 0.584448Z" fill="#FFC857"/>
<path d="M87.0479 10.1365H89.9884V3.98156H93.148V10.1365H97.0018V12.8579H93.148V20.2731C93.148 21.1498 93.3002 21.7951 93.6046 22.2091C93.9212 22.6231 94.3413 22.8301 94.8649 22.8301C95.3276 22.8301 95.6867 22.7448 95.9424 22.5744C96.1981 22.4039 96.3503 22.2882 96.399 22.2273L97.6593 24.5651C97.5862 24.626 97.3914 24.7417 97.0748 24.9122C96.7582 25.0826 96.3503 25.2348 95.8511 25.3688C95.3519 25.5027 94.7674 25.5697 94.0978 25.5697C92.9289 25.5697 91.9487 25.2166 91.1573 24.5103C90.378 23.792 89.9884 22.6596 89.9884 21.1132V12.8579H87.0479V10.1365Z" fill="#F4F4F4"/>
<path d="M112.473 25.1313V22.2091C112.376 22.5135 112.09 22.9336 111.615 23.4693C111.152 24.005 110.513 24.4921 109.697 24.9304C108.894 25.3566 107.944 25.5697 106.848 25.5697C105.46 25.5697 104.2 25.2409 103.067 24.5834C101.947 23.9259 101.052 23.0066 100.383 21.8255C99.7251 20.6323 99.3963 19.2381 99.3963 17.6431C99.3963 16.048 99.7251 14.6599 100.383 13.4789C101.052 12.2856 101.947 11.3602 103.067 10.7027C104.2 10.033 105.46 9.69821 106.848 9.69821C107.932 9.69821 108.869 9.89303 109.661 10.2827C110.464 10.6723 111.104 11.1228 111.578 11.6342C112.066 12.1456 112.352 12.5839 112.437 12.9492V10.1365H115.578V25.1313H112.473ZM102.538 17.6431C102.538 18.7267 102.775 19.6643 103.25 20.4557C103.725 21.2472 104.34 21.8621 105.095 22.3004C105.862 22.7266 106.678 22.9396 107.542 22.9396C108.467 22.9396 109.295 22.7205 110.026 22.2821C110.757 21.8438 111.335 21.2289 111.761 20.4375C112.187 19.6338 112.4 18.7024 112.4 17.6431C112.4 16.5838 112.187 15.6584 111.761 14.8669C111.335 14.0633 110.757 13.4423 110.026 13.004C109.295 12.5535 108.467 12.3282 107.542 12.3282C106.678 12.3282 105.862 12.5474 105.095 12.9857C104.34 13.4241 103.725 14.039 103.25 14.8304C102.775 15.6218 102.538 16.5594 102.538 17.6431Z" fill="#F4F4F4"/>
<path d="M125.45 9.69821C126.229 9.69821 126.954 9.77735 127.623 9.93564C128.305 10.0939 128.89 10.2827 129.377 10.5018C129.876 10.721 130.229 10.9158 130.436 11.0863L129.176 13.0953C128.932 12.8762 128.494 12.6326 127.861 12.3648C127.228 12.0847 126.521 11.9447 125.742 11.9447C124.89 11.9447 124.165 12.1152 123.569 12.4561C122.972 12.7848 122.674 13.2658 122.674 13.8989C122.674 14.5321 122.978 15.0374 123.587 15.4149C124.208 15.7801 125.036 16.0845 126.071 16.3281C126.899 16.5229 127.672 16.7847 128.391 17.1134C129.121 17.4422 129.712 17.8988 130.162 18.4832C130.613 19.0555 130.838 19.8226 130.838 20.7845C130.838 21.6612 130.655 22.41 130.29 23.031C129.925 23.6398 129.432 24.1329 128.811 24.5103C128.19 24.8756 127.496 25.1435 126.728 25.314C125.961 25.4844 125.182 25.5697 124.391 25.5697C123.465 25.5697 122.631 25.4723 121.889 25.2774C121.146 25.0948 120.519 24.8756 120.007 24.6199C119.508 24.3521 119.143 24.1207 118.911 23.9259L120.172 21.6612C120.488 21.9656 121.006 22.2882 121.724 22.6292C122.455 22.9701 123.283 23.1405 124.208 23.1405C125.231 23.1405 126.059 22.9275 126.692 22.5013C127.325 22.063 127.642 21.4968 127.642 20.8027C127.642 20.2792 127.489 19.8591 127.185 19.5425C126.881 19.226 126.473 18.9703 125.961 18.7754C125.45 18.5806 124.89 18.4102 124.281 18.264C123.697 18.1301 123.124 17.9536 122.564 17.7344C122.016 17.5152 121.511 17.2352 121.048 16.8942C120.598 16.5411 120.239 16.115 119.971 15.6158C119.703 15.1044 119.569 14.5077 119.569 13.8259C119.569 12.9614 119.843 12.2247 120.391 11.6159C120.939 10.995 121.657 10.5201 122.546 10.1913C123.435 9.86259 124.403 9.69821 125.45 9.69821Z" fill="#F4F4F4"/>
<path d="M143.014 9.69821C144.001 9.69821 144.956 9.9052 145.882 10.3192C146.819 10.7332 147.586 11.3907 148.183 12.2917C148.792 13.1806 149.096 14.3434 149.096 15.7801V25.1313H145.882V16.4011C145.882 14.9156 145.541 13.8381 144.859 13.1684C144.189 12.4865 143.307 12.1456 142.211 12.1456C141.48 12.1456 140.78 12.3526 140.11 12.7666C139.441 13.1684 138.887 13.7285 138.448 14.4469C138.022 15.1531 137.809 15.9567 137.809 16.8577V25.1313H134.595V0H137.809V12.8031C137.919 12.3891 138.211 11.9386 138.686 11.4516C139.173 10.9645 139.794 10.5505 140.549 10.2096C141.304 9.86867 142.125 9.69821 143.014 9.69821Z" fill="#F4F4F4"/>
</svg>
