<svg width="149" height="26" viewBox="0 0 149 26" fill="none" xmlns="http://www.w3.org/2000/svg">
<path d="M0 1.02279H6.83075C8.34058 1.02279 9.69821 1.27239 10.9036 1.77161C12.1212 2.25865 13.0892 3.02574 13.8076 4.07288C14.526 5.12002 14.8852 6.48374 14.8852 8.16403C14.8852 9.83214 14.526 11.2141 13.8076 12.31C13.0892 13.4058 12.1212 14.2277 10.9036 14.7756C9.69821 15.3114 8.34058 15.5792 6.83075 15.5792H3.12315V25.1313H0V1.02279ZM3.12315 12.9675H5.97234C7.00731 12.9675 7.94486 12.8153 8.78501 12.5109C9.63733 12.2065 10.3131 11.7073 10.8123 11.0132C11.3237 10.3192 11.5794 9.38772 11.5794 8.21882C11.5794 7.03775 11.3237 6.11846 10.8123 5.46095C10.3131 4.79127 9.63733 4.32249 8.78501 4.05462C7.94486 3.77457 7.00731 3.63454 5.97234 3.63454H3.12315V12.9675Z" fill="#F4F4F4"/>
<path d="M19.2674 18.2823C19.2796 19.1833 19.4744 20.0052 19.8519 20.748C20.2293 21.4907 20.7894 22.0812 21.5322 22.5196C22.2871 22.9579 23.2125 23.1771 24.3083 23.1771C25.2337 23.1771 26.019 23.0431 26.6644 22.7753C27.3219 22.4952 27.8576 22.1665 28.2716 21.789C28.6856 21.3994 28.9839 21.0524 29.1665 20.748L30.719 22.6657C30.3172 23.2501 29.824 23.7615 29.2396 24.1999C28.6673 24.6382 27.9672 24.973 27.1392 25.2044C26.3113 25.4479 25.3006 25.5697 24.1074 25.5697C22.5002 25.5697 21.106 25.2287 19.9249 24.5469C18.756 23.8528 17.855 22.897 17.2219 21.6794C16.5887 20.4496 16.2721 19.0433 16.2721 17.4604C16.2721 15.9993 16.5704 14.6843 17.1671 13.5154C17.7637 12.3343 18.6282 11.4029 19.7606 10.721C20.9051 10.0391 22.281 9.69821 23.8882 9.69821C25.3615 9.69821 26.64 10.0087 27.7237 10.6297C28.8195 11.2385 29.6658 12.103 30.2624 13.2232C30.8712 14.3434 31.1756 15.6827 31.1756 17.2413C31.1756 17.3387 31.1695 17.5152 31.1573 17.7709C31.1451 18.0144 31.133 18.1849 31.1208 18.2823H19.2674ZM28.1438 15.8897C28.1316 15.3905 27.9855 14.8426 27.7054 14.246C27.4375 13.6493 26.9992 13.1379 26.3904 12.7118C25.7816 12.2856 24.9597 12.0725 23.9248 12.0725C22.8533 12.0725 21.9888 12.2795 21.3313 12.6935C20.6859 13.1075 20.2111 13.6128 19.9067 14.2094C19.6023 14.7939 19.4257 15.354 19.377 15.8897H28.1438Z" fill="#F4F4F4"/>
<path d="M40.3099 9.69821C41.0892 9.69821 41.8136 9.77735 42.4833 9.93564C43.1652 10.0939 43.7496 10.2827 44.2367 10.5018C44.7359 10.721 45.089 10.9158 45.296 11.0863L44.0358 13.0953C43.7922 12.8762 43.3539 12.6326 42.7207 12.3648C42.0876 12.0847 41.3814 11.9447 40.6021 11.9447C39.7498 11.9447 39.0253 12.1152 38.4287 12.4561C37.8321 12.7848 37.5338 13.2658 37.5338 13.8989C37.5338 14.5321 37.8382 15.0374 38.447 15.4149C39.0679 15.7801 39.8959 16.0845 40.9309 16.3281C41.7588 16.5229 42.532 16.7847 43.2504 17.1134C43.981 17.4422 44.5715 17.8988 45.022 18.4832C45.4725 19.0555 45.6978 19.8226 45.6978 20.7845C45.6978 21.6612 45.5151 22.41 45.1499 23.031C44.7846 23.6398 44.2915 24.1329 43.6705 24.5103C43.0495 24.8756 42.3555 25.1435 41.5884 25.314C40.8213 25.4844 40.042 25.5697 39.2506 25.5697C38.3252 25.5697 37.4911 25.4723 36.7484 25.2774C36.0057 25.0948 35.3786 24.8756 34.8672 24.6199C34.368 24.3521 34.0027 24.1207 33.7714 23.9259L35.0316 21.6612C35.3482 21.9656 35.8656 22.2882 36.584 22.6292C37.3146 22.9701 38.1426 23.1405 39.0679 23.1405C40.0907 23.1405 40.9187 22.9275 41.5518 22.5013C42.185 22.063 42.5016 21.4968 42.5016 20.8027C42.5016 20.2792 42.3494 19.8591 42.045 19.5425C41.7406 19.226 41.3327 18.9703 40.8213 18.7754C40.3099 18.5806 39.7498 18.4102 39.141 18.264C38.5565 18.1301 37.9843 17.9536 37.4242 17.7344C36.8762 17.5152 36.3709 17.2352 35.9083 16.8942C35.4577 16.5411 35.0985 16.115 34.8307 15.6158C34.5628 15.1044 34.4289 14.5077 34.4289 13.8259C34.4289 12.9614 34.7028 12.2247 35.2507 11.6159C35.7987 10.995 36.5171 10.5201 37.4059 10.1913C38.2948 9.86259 39.2628 9.69821 40.3099 9.69821Z" fill="#F4F4F4"/>
<path d="M61.4357 25.1313V22.2091C61.3383 22.5135 61.0521 22.9336 60.5773 23.4693C60.1146 24.005 59.4753 24.4921 58.6595 24.9304C57.8559 25.3566 56.9062 25.5697 55.8104 25.5697C54.4223 25.5697 53.1621 25.2409 52.0297 24.5834C50.9095 23.9259 50.0146 23.0066 49.3449 21.8255C48.6874 20.6323 48.3586 19.2381 48.3586 17.6431C48.3586 16.048 48.6874 14.6599 49.3449 13.4789C50.0146 12.2856 50.9095 11.3602 52.0297 10.7027C53.1621 10.033 54.4223 9.69821 55.8104 9.69821C56.894 9.69821 57.8316 9.89303 58.623 10.2827C59.4266 10.6723 60.0659 11.1228 60.5407 11.6342C61.0278 12.1456 61.3139 12.5839 61.3992 12.9492V10.1365H64.5406V25.1313H61.4357ZM51.5 17.6431C51.5 18.7267 51.7375 19.6643 52.2123 20.4557C52.6872 21.2472 53.3021 21.8621 54.057 22.3004C54.8241 22.7266 55.6399 22.9396 56.5044 22.9396C57.4298 22.9396 58.2577 22.7205 58.9883 22.2821C59.7189 21.8438 60.2972 21.2289 60.7234 20.4375C61.1495 19.6338 61.3626 18.7024 61.3626 17.6431C61.3626 16.5838 61.1495 15.6584 60.7234 14.8669C60.2972 14.0633 59.7189 13.4423 58.9883 13.004C58.2577 12.5535 57.4298 12.3282 56.5044 12.3282C55.6399 12.3282 54.8241 12.5474 54.057 12.9857C53.3021 13.4241 52.6872 14.039 52.2123 14.8304C51.7375 15.6218 51.5 16.5594 51.5 17.6431Z" fill="#F4F4F4"/>
<path d="M76.3848 0.584448C77.7729 0.584448 78.9661 0.742737 79.9646 1.05931C80.9752 1.37589 81.7666 1.71073 82.3389 2.06384C82.9233 2.41694 83.2703 2.64829 83.3799 2.75787L81.7727 5.3331C81.5901 5.17481 81.2674 4.94956 80.8047 4.65733C80.342 4.35293 79.7636 4.08506 79.0696 3.85371C78.3756 3.61019 77.5841 3.48843 76.6953 3.48843C75.3194 3.48843 74.2296 3.76848 73.426 4.32858C72.6346 4.8765 72.2389 5.65576 72.2389 6.66638C72.2389 7.34823 72.4459 7.95095 72.8598 8.47452C73.286 8.98591 73.8826 9.45469 74.6497 9.88085C75.4168 10.307 76.3117 10.7453 77.3345 11.1959C78.1747 11.549 78.9966 11.9508 79.8002 12.4013C80.616 12.8518 81.3526 13.3815 82.0101 13.9903C82.6798 14.5991 83.2095 15.3053 83.5991 16.1089C84.0009 16.9125 84.2018 17.8379 84.2018 18.885C84.2018 19.92 83.9887 20.8514 83.5626 21.6794C83.1486 22.5074 82.5581 23.2136 81.791 23.798C81.036 24.3703 80.1533 24.8087 79.1427 25.1131C78.1321 25.4175 77.0423 25.5697 75.8734 25.5697C74.4001 25.5697 73.0668 25.387 71.8736 25.0217C70.6925 24.6565 69.7367 24.2729 69.0061 23.8711C68.2877 23.4693 67.8738 23.2197 67.7642 23.1223L69.4627 20.4375C69.6088 20.5592 69.8767 20.7419 70.2663 20.9854C70.656 21.2167 71.1369 21.4603 71.7092 21.716C72.2815 21.9716 72.9268 22.1908 73.6452 22.3735C74.3636 22.5439 75.1307 22.6292 75.9465 22.6292C77.578 22.6292 78.8139 22.2639 79.6541 21.5333C80.4942 20.8027 80.9143 19.8652 80.9143 18.7206C80.9143 17.844 80.6464 17.0891 80.1107 16.4559C79.5749 15.8228 78.8626 15.2566 77.9738 14.7573C77.0849 14.2581 76.1048 13.7772 75.0333 13.3145C73.9374 12.8153 72.9329 12.2674 72.0197 11.6707C71.1065 11.0741 70.3698 10.3618 69.8097 9.53383C69.2618 8.69368 68.9879 7.68307 68.9879 6.502C68.9879 5.3331 69.3166 4.30423 69.9741 3.41538C70.6438 2.52653 71.5387 1.83249 72.6589 1.33327C73.7913 0.834057 75.0333 0.584448 76.3848 0.584448Z" fill="#FFC857"/>
<path d="M86.807 10.1365H89.7475V3.98156H92.9072V10.1365H96.7609V12.8579H92.9072V20.2731C92.9072 21.1498 93.0594 21.7951 93.3638 22.2091C93.6804 22.6231 94.1004 22.8301 94.624 22.8301C95.0867 22.8301 95.4459 22.7448 95.7016 22.5744C95.9573 22.4039 96.1095 22.2882 96.1582 22.2273L97.4184 24.5651C97.3454 24.626 97.1505 24.7417 96.834 24.9122C96.5174 25.0826 96.1095 25.2348 95.6103 25.3688C95.1111 25.5027 94.5266 25.5697 93.8569 25.5697C92.688 25.5697 91.7079 25.2166 90.9164 24.5103C90.1371 23.792 89.7475 22.6596 89.7475 21.1132V12.8579H86.807V10.1365Z" fill="#F4F4F4"/>
<path d="M112.233 25.1313V22.2091C112.135 22.5135 111.849 22.9336 111.374 23.4693C110.911 24.005 110.272 24.4921 109.456 24.9304C108.653 25.3566 107.703 25.5697 106.607 25.5697C105.219 25.5697 103.959 25.2409 102.827 24.5834C101.706 23.9259 100.811 23.0066 100.142 21.8255C99.4843 20.6323 99.1555 19.2381 99.1555 17.6431C99.1555 16.048 99.4843 14.6599 100.142 13.4789C100.811 12.2856 101.706 11.3602 102.827 10.7027C103.959 10.033 105.219 9.69821 106.607 9.69821C107.691 9.69821 108.628 9.89303 109.42 10.2827C110.224 10.6723 110.863 11.1228 111.338 11.6342C111.825 12.1456 112.111 12.5839 112.196 12.9492V10.1365H115.337V25.1313H112.233ZM102.297 17.6431C102.297 18.7267 102.534 19.6643 103.009 20.4557C103.484 21.2472 104.099 21.8621 104.854 22.3004C105.621 22.7266 106.437 22.9396 107.301 22.9396C108.227 22.9396 109.055 22.7205 109.785 22.2821C110.516 21.8438 111.094 21.2289 111.52 20.4375C111.946 19.6338 112.16 18.7024 112.16 17.6431C112.16 16.5838 111.946 15.6584 111.52 14.8669C111.094 14.0633 110.516 13.4423 109.785 13.004C109.055 12.5535 108.227 12.3282 107.301 12.3282C106.437 12.3282 105.621 12.5474 104.854 12.9857C104.099 13.4241 103.484 14.039 103.009 14.8304C102.534 15.6218 102.297 16.5594 102.297 17.6431Z" fill="#F4F4F4"/>
<path d="M125.209 9.69821C125.988 9.69821 126.713 9.77735 127.383 9.93564C128.064 10.0939 128.649 10.2827 129.136 10.5018C129.635 10.721 129.988 10.9158 130.195 11.0863L128.935 13.0953C128.692 12.8762 128.253 12.6326 127.62 12.3648C126.987 12.0847 126.281 11.9447 125.501 11.9447C124.649 11.9447 123.925 12.1152 123.328 12.4561C122.731 12.7848 122.433 13.2658 122.433 13.8989C122.433 14.5321 122.737 15.0374 123.346 15.4149C123.967 15.7801 124.795 16.0845 125.83 16.3281C126.658 16.5229 127.431 16.7847 128.15 17.1134C128.88 17.4422 129.471 17.8988 129.921 18.4832C130.372 19.0555 130.597 19.8226 130.597 20.7845C130.597 21.6612 130.414 22.41 130.049 23.031C129.684 23.6398 129.191 24.1329 128.57 24.5103C127.949 24.8756 127.255 25.1435 126.488 25.314C125.721 25.4844 124.941 25.5697 124.15 25.5697C123.224 25.5697 122.39 25.4723 121.648 25.2774C120.905 25.0948 120.278 24.8756 119.766 24.6199C119.267 24.3521 118.902 24.1207 118.671 23.9259L119.931 21.6612C120.247 21.9656 120.765 22.2882 121.483 22.6292C122.214 22.9701 123.042 23.1405 123.967 23.1405C124.99 23.1405 125.818 22.9275 126.451 22.5013C127.084 22.063 127.401 21.4968 127.401 20.8027C127.401 20.2792 127.249 19.8591 126.944 19.5425C126.64 19.226 126.232 18.9703 125.721 18.7754C125.209 18.5806 124.649 18.4102 124.04 18.264C123.456 18.1301 122.884 17.9536 122.323 17.7344C121.776 17.5152 121.27 17.2352 120.808 16.8942C120.357 16.5411 119.998 16.115 119.73 15.6158C119.462 15.1044 119.328 14.5077 119.328 13.8259C119.328 12.9614 119.602 12.2247 120.15 11.6159C120.698 10.995 121.416 10.5201 122.305 10.1913C123.194 9.86259 124.162 9.69821 125.209 9.69821Z" fill="#F4F4F4"/>
<path d="M142.773 9.69821C143.76 9.69821 144.716 9.9052 145.641 10.3192C146.578 10.7332 147.346 11.3907 147.942 12.2917C148.551 13.1806 148.855 14.3434 148.855 15.7801V25.1313H145.641V16.4011C145.641 14.9156 145.3 13.8381 144.618 13.1684C143.948 12.4865 143.066 12.1456 141.97 12.1456C141.239 12.1456 140.539 12.3526 139.869 12.7666C139.2 13.1684 138.646 13.7285 138.207 14.4469C137.781 15.1531 137.568 15.9567 137.568 16.8577V25.1313H134.354V0H137.568V12.8031C137.678 12.3891 137.97 11.9386 138.445 11.4516C138.932 10.9645 139.553 10.5505 140.308 10.2096C141.063 9.86867 141.885 9.69821 142.773 9.69821Z" fill="#F4F4F4"/>
</svg>
