<svg width="32" height="32" viewBox="0 0 32 32" fill="none" xmlns="http://www.w3.org/2000/svg">
<g id="piggy-bank">
<path id="Vector" d="M31.1099 14.4444H29.471C28.9821 13.3333 28.271 12.35 27.3932 11.5278L28.4432 7.33333H26.6654C25.0321 7.33333 23.5876 8.08333 22.6099 9.23889C22.1876 9.17778 21.771 9.11111 21.3321 9.11111H14.221C9.92097 9.11111 6.33764 12.1667 5.50986 16.2222H3.10986C2.28764 16.2222 1.63764 15.4722 1.8043 14.6222C1.92653 13.9889 2.52097 13.5556 3.16541 13.5556H3.22097C3.4043 13.5556 3.5543 13.4056 3.5543 13.2222V12.1111C3.5543 11.9278 3.4043 11.7778 3.22097 11.7778C1.63764 11.7778 0.226525 12.9111 0.0265254 14.4778C-0.217919 16.3778 1.25986 18 3.10986 18H5.33208C5.33208 20.9 6.74319 23.45 8.88764 25.0722V29.5556C8.88764 30.0444 9.28764 30.4444 9.77653 30.4444H13.3321C13.821 30.4444 14.221 30.0444 14.221 29.5556V26.8889H21.3321V29.5556C21.3321 30.0444 21.7321 30.4444 22.221 30.4444H25.7765C26.2654 30.4444 26.6654 30.0444 26.6654 29.5556V25.0722C27.321 24.5778 27.9043 23.9944 28.4043 23.3333H31.1099C31.5987 23.3333 31.9987 22.9333 31.9987 22.4444V15.3333C31.9987 14.8444 31.5987 14.4444 31.1099 14.4444ZM23.9987 18C23.5099 18 23.1099 17.6 23.1099 17.1111C23.1099 16.6222 23.5099 16.2222 23.9987 16.2222C24.4876 16.2222 24.8876 16.6222 24.8876 17.1111C24.8876 17.6 24.4876 18 23.9987 18ZM14.221 7.33333H21.3321C21.6321 7.33333 21.9265 7.35556 22.2154 7.37778C22.2154 7.36111 22.221 7.35 22.221 7.33333C22.221 4.38889 19.8321 2 16.8876 2C13.9432 2 11.5543 4.38889 11.5543 7.33333C11.5543 7.45 11.5821 7.56111 11.5876 7.67778C12.4321 7.46111 13.3099 7.33333 14.221 7.33333Z" fill="#9881AE"/>
</g>
</svg>
