<svg width="17" height="17" viewBox="0 0 17 17" fill="none" xmlns="http://www.w3.org/2000/svg">
<path d="M8.89323 1.95508C5.2199 1.95508 2.22656 4.94841 2.22656 8.62175C2.22656 12.2951 5.2199 15.2884 8.89323 15.2884C12.5666 15.2884 15.5599 12.2951 15.5599 8.62175C15.5599 4.94841 12.5666 1.95508 8.89323 1.95508ZM12.0799 7.08841L8.2999 10.8684C8.20656 10.9617 8.0799 11.0151 7.94656 11.0151C7.81323 11.0151 7.68656 10.9617 7.59323 10.8684L5.70656 8.98174C5.51323 8.78841 5.51323 8.46841 5.70656 8.27508C5.8999 8.08174 6.2199 8.08174 6.41323 8.27508L7.94656 9.80841L11.3732 6.38175C11.5666 6.18841 11.8866 6.18841 12.0799 6.38175C12.2732 6.57508 12.2732 6.88841 12.0799 7.08841Z" fill="#F4F4F4"/>
</svg>
