<svg width="16" height="16" viewBox="0 0 16 16" fill="none" xmlns="http://www.w3.org/2000/svg">
<g id="vuesax/bold/frame">
<g id="frame">
<path id="Vector" d="M7.94633 1.68066C6.34921 1.68066 5.05078 2.97909 5.05078 4.57621C5.05078 6.14286 6.27606 7.4108 7.87318 7.46566C7.92195 7.45957 7.97071 7.45957 8.00729 7.46566C8.01948 7.46566 8.02558 7.46566 8.03777 7.46566C8.04386 7.46566 8.04386 7.46566 8.04996 7.46566C9.61051 7.4108 10.8358 6.14286 10.8419 4.57621C10.8419 2.97909 9.54345 1.68066 7.94633 1.68066Z" fill="#4B0082"/>
<path id="Vector_2" d="M11.0406 9.08768C9.33981 7.95385 6.56618 7.95385 4.85323 9.08768C4.07906 9.60583 3.65234 10.3069 3.65234 11.0567C3.65234 11.8064 4.07906 12.5014 4.84714 13.0134C5.70056 13.5864 6.82221 13.873 7.94385 13.873C9.06549 13.873 10.1871 13.5864 11.0406 13.0134C11.8086 12.4953 12.2354 11.8004 12.2354 11.0445C12.2293 10.2947 11.8086 9.59974 11.0406 9.08768Z" fill="#4B0082"/>
</g>
</g>
</svg>
