<svg width="32" height="32" viewBox="0 0 32 32" fill="none" xmlns="http://www.w3.org/2000/svg">
<path d="M29.3332 16.8267V19.5733C29.3332 20.32 28.7199 20.9333 27.9599 20.9333H25.3866C23.9466 20.9333 22.6265 19.88 22.5065 18.44C22.4265 17.6 22.7466 16.8133 23.3066 16.2667C23.7999 15.76 24.4799 15.4667 25.2266 15.4667H27.9599C28.7199 15.4667 29.3332 16.08 29.3332 16.8267Z" fill="#9881AE"/>
<path d="M20.5067 18.6133C20.3867 17.2133 20.8934 15.84 21.9067 14.84C22.7601 13.9733 23.9467 13.4667 25.2267 13.4667H25.9867C26.3601 13.4667 26.6667 13.16 26.6134 12.7867C26.2534 10.2 24.0134 8.20001 21.3334 8.20001H8.00008C5.05341 8.20001 2.66675 10.5867 2.66675 13.5333V22.8667C2.66675 25.8133 5.05341 28.2 8.00008 28.2H21.3334C24.0267 28.2 26.2534 26.2 26.6134 23.6133C26.6667 23.24 26.3601 22.9333 25.9867 22.9333H25.3867C22.8534 22.9333 20.7201 21.04 20.5067 18.6133ZM17.3334 15.8667H9.33342C8.78675 15.8667 8.33342 15.4267 8.33342 14.8667C8.33342 14.3067 8.78675 13.8667 9.33342 13.8667H17.3334C17.8801 13.8667 18.3334 14.32 18.3334 14.8667C18.3334 15.4133 17.8801 15.8667 17.3334 15.8667Z" fill="#9881AE"/>
<path d="M18.9467 5.30665C19.2934 5.66665 18.9867 6.19999 18.48 6.19999H8.04004C6.58671 6.19999 5.22671 6.62665 4.09337 7.35999C3.57337 7.69332 2.86671 7.33332 3.12004 6.75999C3.86671 5.01332 5.61337 3.79999 7.62671 3.79999H15.12C16.6667 3.79999 18.04 4.34665 18.9467 5.30665Z" fill="#9881AE"/>
</svg>
