<svg width="186" height="164" viewBox="0 0 186 164" fill="none" xmlns="http://www.w3.org/2000/svg">
<g id="Group 999">
<path id="Vector" fill-rule="evenodd" clip-rule="evenodd" d="M6.68936 53.3594C4.87936 53.4694 2.99936 53.7094 2.41936 54.8994C1.83936 56.0894 2.12936 57.8994 2.33936 59.7594C2.54936 61.6194 2.81936 63.3194 3.01936 65.1094C3.31936 67.7194 3.55936 70.4694 4.01936 73.1094C4.27936 74.7594 4.64936 75.9394 6.08936 76.1094C6.85936 76.1794 41.9194 72.4194 43.0294 72.2394C44.0906 72.189 45.1222 71.8726 46.0294 71.3194C47.0294 70.4794 46.8194 68.4494 46.5894 66.5094C46.1394 62.6094 45.5894 59.0494 45.2794 55.1294C45.1194 53.0494 45.2794 49.9194 43.6394 49.4494C43.1707 49.3554 42.688 49.3554 42.2194 49.4494C40.7794 49.5694 7.87936 53.2894 6.68936 53.3594Z" fill="#347AC1"/>
<path id="Vector_2" fill-rule="evenodd" clip-rule="evenodd" d="M9.97366 55.0998C8.49366 55.1898 6.97366 55.3898 6.49366 56.3598C6.01366 57.3298 6.25366 58.8198 6.42366 60.3598C6.59366 61.8998 6.81366 63.2598 6.98366 64.7198C7.23366 66.8498 7.42366 69.0898 7.76366 71.2098C7.97366 72.5598 8.27366 73.5098 9.44366 73.6198C10.0737 73.6198 38.6537 70.6198 39.5637 70.4598C40.413 70.4103 41.2372 70.1528 41.9637 69.7098C42.7537 69.0298 42.6037 67.3698 42.4237 65.7898C42.0637 62.5998 41.6037 59.7098 41.3537 56.5098C41.2237 54.8098 41.3537 52.2598 40.0237 51.8798C39.6407 51.8044 39.2466 51.8044 38.8637 51.8798C37.7637 51.9998 10.9437 54.9998 9.97366 55.0998Z" fill="#3C91E6"/>
<path id="Vector_3" fill-rule="evenodd" clip-rule="evenodd" d="M5.68562 56.9402C5.62562 56.3502 5.57562 55.7502 5.52562 55.1602C6.2625 55.1823 6.9997 55.1287 7.72562 55.0002C8.50562 54.8602 9.26562 54.6702 10.0256 54.4902C9.59562 57.0702 8.36562 59.2402 5.95562 59.7702C5.85515 59.3899 5.70733 59.0237 5.51562 58.6802C5.69284 58.1184 5.75074 57.5257 5.68562 56.9402Z" fill="#347AC1"/>
<path id="Vector_4" fill-rule="evenodd" clip-rule="evenodd" d="M9.38875 74.4802C8.55875 74.4802 7.72875 74.4802 6.88875 74.4802V73.4802C6.83949 72.225 6.69912 70.9751 6.46875 69.7402C8.11133 70.163 9.53744 71.1827 10.4688 72.6002C10.9214 73.1558 11.2611 73.7944 11.4688 74.4802C10.7888 74.4702 10.0887 74.4902 9.38875 74.4802Z" fill="#347AC1"/>
<path id="Vector_5" fill-rule="evenodd" clip-rule="evenodd" d="M11.4052 55.76C12.0052 56.23 15.1052 55.9 14.9252 54.86C14.7852 54 12.0552 54.35 11.4552 55.03C11.2952 55.21 11.2952 55.36 11.4052 55.76Z" fill="white"/>
<path id="Vector_6" fill-rule="evenodd" clip-rule="evenodd" d="M7.50034 67.33C8.67034 67.85 8.50034 65.04 7.77034 64.75C6.82034 64.36 6.47034 66.87 7.50034 67.33Z" fill="white"/>
<path id="Vector_7" fill-rule="evenodd" clip-rule="evenodd" d="M16.2891 54.8503C16.2891 55.8503 18.6791 55.4603 18.5191 54.5803C18.4591 54.2103 18.1791 54.1603 17.7091 54.1103C16.9891 54.0503 16.2891 54.1703 16.2891 54.8503Z" fill="white"/>
<path id="Vector_8" fill-rule="evenodd" clip-rule="evenodd" d="M24.1002 70.9098C34.3702 72.3598 32.8602 52.1898 22.2402 54.7398C14.1702 56.6698 17.0102 69.8998 24.1002 70.9098Z" fill="#347AC1"/>
<path id="Vector_9" fill-rule="evenodd" clip-rule="evenodd" d="M14.412 15.5199C12.832 14.6399 11.122 13.8299 9.99197 14.5199C8.86197 15.2099 8.11197 16.8999 7.29197 18.5199C6.47196 20.1399 5.78197 21.7699 4.99197 23.3899C3.83197 25.7499 2.55197 28.1899 1.49197 30.5999C0.821966 32.1399 0.491964 33.3199 1.64196 34.1999C2.25196 34.6699 33.792 50.4199 34.832 50.8699C35.7471 51.3913 36.7789 51.6733 37.832 51.6899C39.092 51.5099 40.042 49.6899 40.902 47.9399C42.622 44.4199 44.072 41.1199 45.902 37.6599C46.902 35.8199 48.732 33.2799 47.592 31.9899C47.2383 31.665 46.8236 31.4134 46.372 31.2499C45.152 30.7299 15.452 16.1099 14.412 15.5199Z" fill="#347AC1"/>
<path id="Vector_10" fill-rule="evenodd" clip-rule="evenodd" d="M16.294 18.7603C14.994 18.0403 13.604 17.3803 12.684 17.9403C11.764 18.5003 11.154 19.8802 10.484 21.2402C9.81404 22.6002 9.25404 23.8902 8.60404 25.2402C7.66404 27.1602 6.60404 29.1602 5.75404 31.1302C5.20404 32.3702 4.94404 33.3402 5.87404 34.0602C6.37404 34.4402 32.094 47.2803 32.934 47.6503C33.6754 48.073 34.5108 48.3033 35.364 48.3203C36.364 48.1703 37.164 46.7003 37.864 45.2603C39.274 42.3903 40.454 39.7003 41.974 36.8703C42.774 35.3703 44.274 33.3003 43.344 32.2603C43.055 31.9919 42.7149 31.7845 42.344 31.6503C41.294 31.1603 17.084 19.2303 16.294 18.7603Z" fill="#3C91E6"/>
<path id="Vector_11" fill-rule="evenodd" clip-rule="evenodd" d="M11.6381 17.9999C11.8981 17.4699 12.1781 16.9399 12.4581 16.4199C13.0656 16.8183 13.7123 17.1533 14.3881 17.4199C15.1181 17.7299 15.8581 17.9699 16.6081 18.2399C14.8581 20.1699 12.6081 21.3399 10.3281 20.4799C10.4462 20.1065 10.5201 19.7206 10.5481 19.3299C10.9983 18.9655 11.3692 18.5129 11.6381 17.9999Z" fill="#347AC1"/>
<path id="Vector_12" fill-rule="evenodd" clip-rule="evenodd" d="M5.2875 34.7599C4.6075 34.3099 3.9075 33.8599 3.1875 33.4199C3.3775 33.1199 3.5675 32.8299 3.7475 32.5299C4.39019 31.4563 4.94532 30.3327 5.4075 29.1699C6.59248 30.4028 7.26453 32.04 7.2875 33.7499C7.34963 34.4596 7.28186 35.1746 7.0875 35.8599C6.4675 35.5099 5.8775 35.1499 5.2875 34.7599Z" fill="#347AC1"/>
<path id="Vector_13" fill-rule="evenodd" clip-rule="evenodd" d="M17.0781 20.0797C17.3381 20.7997 20.0781 22.1997 20.5381 21.2297C20.8681 20.4297 18.3881 19.2297 17.5381 19.4997C17.2881 19.5697 17.1781 19.6797 17.0781 20.0797Z" fill="white"/>
<path id="Vector_14" fill-rule="evenodd" clip-rule="evenodd" d="M7.56232 27.7201C8.26232 28.8001 9.56232 26.3201 9.17232 25.7201C8.59232 24.8601 6.93232 26.7801 7.56232 27.7201Z" fill="white"/>
<path id="Vector_15" fill-rule="evenodd" clip-rule="evenodd" d="M21.6784 22.0003C21.1984 22.8503 23.3684 23.8103 23.6784 23.0003C23.8184 22.6503 23.6184 22.4603 23.2384 22.1703C22.7084 21.6603 22.0184 21.3603 21.6784 22.0003Z" fill="white"/>
<path id="Vector_16" fill-rule="evenodd" clip-rule="evenodd" d="M19.6037 39.6899C27.4737 46.4499 37.0837 28.6899 26.7537 25.0799C18.9237 22.3499 14.1737 34.9999 19.6037 39.6899Z" fill="#347AC1"/>
<path id="Vector_17" fill-rule="evenodd" clip-rule="evenodd" d="M119.993 41.2396C112.763 20.8996 83.1033 2.23959 56.2833 11.3696C49.5333 13.6696 42.2833 18.2296 37.7933 23.5496C25.7933 37.1896 22.6433 63.8796 29.7933 77.4096C42.5833 72.8596 56.3433 68.3096 68.9033 63.8196C72.4933 62.5396 77.0133 61.0496 80.3433 59.8996C80.3433 60.6596 78.9633 64.4996 78.1533 66.5096C72.6833 80.1896 67.1533 92.7796 62.1533 105.57C71.0004 107.214 80.1257 106.475 88.5933 103.43C96.2033 100.88 102.703 97.2796 108.313 91.5496C119.233 80.3596 126.293 58.9996 119.993 41.2396Z" fill="#BFABD3"/>
<path id="Vector_18" opacity="0.2" d="M120.378 42.41C120.248 42.02 120.128 41.63 119.988 41.24C119.728 40.52 119.438 39.79 119.128 39.07L118.928 46.92L107.598 46.64L107.878 35.25L117.328 35.49C117.068 35.03 116.798 34.58 116.518 34.13L107.908 33.92L108.148 24.14C107.728 23.74 107.288 23.36 106.848 22.97L106.578 33.89L95.2881 33.61L95.5681 22.22L106.328 22.48C105.768 22.01 105.208 21.55 104.628 21.1L95.6281 20.88L95.7581 15.37C95.3281 15.14 94.8881 14.92 94.4481 14.7L94.2981 20.85L82.9581 20.57L83.2081 10.57L81.8881 10.26L81.6281 20.56L70.2881 20.28L70.4981 9C70.0581 9 69.6081 9 69.1681 9L68.8881 20.19L57.5481 19.91L57.7781 10.91L56.4281 11.33L56.2181 19.92L44.8881 19.63L44.9481 17.15C44.4781 17.48 44.0381 17.81 43.5881 18.15V19.61H41.8581C41.3481 20.04 40.8581 20.47 40.3981 20.92L43.5581 20.99L43.2881 32.32L32.2081 32.05C31.6081 33.25 31.0481 34.48 30.5281 35.75L30.3081 44.75L27.7281 44.68C27.6181 45.12 27.5281 45.57 27.4381 46.01L30.2781 46.08L29.9981 57.47L26.0781 57.37C26.0781 57.82 26.0781 58.27 26.0781 58.71L29.9781 58.81L29.6981 70.19L27.2481 70.13C27.3581 70.59 27.4781 71.04 27.5981 71.48H29.6681L29.5381 76.66C29.6581 76.9 29.7681 77.14 29.8881 77.37L30.8881 77.02L31.0281 71.52L42.3581 71.79V73.03L43.6981 72.57V71.83H45.6981L49.3381 70.58L43.7381 70.44L44.0181 59.05L55.3581 59.33L55.1281 68.59L56.4681 68.13L56.6881 59.37L68.0281 59.65L67.9181 64.13L69.0381 63.73L69.2581 63.66L69.3581 59.66L80.0981 59.92L80.4781 59.79C80.4832 59.8365 80.4832 59.8835 80.4781 59.93H80.6981L80.2881 71.44L76.2181 71.33L75.6781 72.66L80.2581 72.77L79.9781 84.16L70.9781 83.94C70.7981 84.38 70.6181 84.82 70.4281 85.26L79.9381 85.5L79.6581 96.89L68.3181 96.61L68.4781 89.93L67.0681 93.34L66.9881 96.57H65.7481L65.2081 97.9H66.9481L66.7481 106.2L68.0781 106.31L68.2781 97.93L79.6181 98.21L79.4381 105.75L80.7681 105.51L80.9481 98.24L92.2881 98.52L92.1981 102.08L93.5481 101.52L93.6181 98.52L99.1381 98.65C99.8281 98.25 100.508 97.81 101.138 97.37L93.5981 97.18L93.8781 85.79L105.218 86.07L105.018 94.48C105.468 94.09 105.928 93.69 106.368 93.28L106.548 86.11L112.548 86.25L113.448 84.94L106.578 84.77L106.858 73.38L118.198 73.66L118.138 75.98C118.658 74.73 119.138 73.45 119.568 72.14L119.848 60.97H121.998C121.998 60.53 122.088 60.08 122.128 59.64L119.878 59.58L120.158 48.19H121.728C121.648 47.74 121.568 47.29 121.478 46.85L120.288 47L120.378 42.41ZM42.2881 70.5L30.9481 70.22L31.2881 58.83L42.6281 59.11L42.2881 70.5ZM42.5981 57.77L31.2881 57.49L31.5781 46.1L42.9081 46.38L42.5981 57.77ZM42.9081 45.05L31.5881 44.77L31.8681 33.38L43.2081 33.66L42.9081 45.05ZM55.2681 58.05L43.9281 57.77L44.2081 46.38L55.5481 46.66L55.2681 58.05ZM55.5781 45.32L44.2881 45.08L44.5681 33.69L55.8781 34L55.5781 45.32ZM55.8981 32.6L44.5581 32.32L44.8481 21L56.1881 21.28L55.8981 32.6ZM67.8981 58.36L56.5581 58.08L56.8381 46.69L68.1781 46.97L67.8981 58.36ZM68.2881 45.67L56.9581 45.39L57.2081 34L68.5381 34.28L68.2881 45.67ZM68.5781 33L57.2881 32.67L57.5681 21.28L68.9081 21.56L68.5781 33ZM80.5781 58.76L69.2881 58.43L69.5581 47L80.8981 47.28L80.5781 58.76ZM80.9281 46L69.5881 45.72L69.8781 34.33L81.2081 34.61L80.9281 46ZM81.2881 33.26L69.9081 33L70.1881 21.61L81.5281 21.89L81.2881 33.26ZM92.3781 97.2L81.0381 96.92L81.3281 85.53L92.6581 85.81L92.3781 97.2ZM92.6981 84.47L81.2881 84.19L81.5681 72.81L92.9081 73.09L92.6981 84.47ZM93.0081 71.75L81.6681 71.47L81.9481 60.08L93.2881 60.36L93.0081 71.75ZM93.2881 59L81.9481 58.72L82.2281 47.33L93.5681 47.61L93.2881 59ZM93.5981 46.28L82.2881 46L82.5681 34.61L93.9081 34.89L93.5981 46.28ZM93.9081 33.55L82.5781 33.27L82.8581 21.88L94.1881 22.16L93.9081 33.55ZM105.288 84.79L93.9581 84.51L94.2381 73.12L105.578 73.4L105.288 84.79ZM105.608 72.06L94.2881 71.78L94.5681 60.39L105.908 60.67L105.608 72.06ZM105.918 59.34L94.5781 59.06L94.8681 47.67L106.198 47.95L105.918 59.34ZM106.288 46.61L94.9481 46.33L95.2281 34.94L106.568 35.22L106.288 46.61ZM118.288 72.37L106.948 72.09L107.228 60.71L118.568 60.99L118.288 72.37ZM118.598 59.65L107.288 59.37L107.558 48L118.898 48.28L118.598 59.65Z" fill="white"/>
<path id="Vector_19" fill-rule="evenodd" clip-rule="evenodd" d="M92.7257 43.9998C94.9957 43.9298 98.8257 43.1998 98.7257 46.2098C98.6257 49.2198 93.8058 48.3698 90.8658 48.2998C82.7058 48.0898 75.2757 48.2998 66.8657 48.0498C65.0057 48.0498 63.6857 47.7698 63.7357 46.0498C63.7357 44.5098 64.7357 44.2598 66.0957 44.1598C74.2557 43.5698 83.8057 43.7998 92.5157 44.0198L92.7257 43.9998Z" fill="#FFC857"/>
<path id="Vector_20" fill-rule="evenodd" clip-rule="evenodd" d="M78.0252 49.71C79.4452 49.71 80.9352 49.91 80.9652 51.71C80.9652 53.71 79.4252 53.95 77.5352 54.03C74.0752 54.17 71.1752 54.24 67.3952 54.35C65.7852 54.35 63.8552 54.58 63.8752 52.43C63.8752 51.03 64.8752 50.58 66.3352 50.43C70.0752 50.07 74.1952 49.76 78.0252 49.71Z" fill="#F6B83A"/>
<path id="Vector_21" fill-rule="evenodd" clip-rule="evenodd" d="M48.531 2.85169C47.531 1.36169 46.311 -0.14831 45.001 0.0116899C43.691 0.17169 42.271 1.31169 40.801 2.45169C39.331 3.59169 38.001 4.70169 36.581 5.81169C34.501 7.42169 32.291 9.05169 30.291 10.7517C29.011 11.8317 28.201 12.7517 28.841 14.0517C29.151 14.7417 50.541 42.7717 51.291 43.5917C51.8885 44.4348 52.681 45.121 53.601 45.5917C54.821 45.9817 56.461 44.7717 58.011 43.5917C61.111 41.1917 63.861 38.8617 67.011 36.5917C68.711 35.3817 71.481 33.9017 71.011 32.2517C70.844 31.8242 70.5999 31.431 70.291 31.0917C69.431 30.0417 49.211 3.84169 48.531 2.85169Z" fill="#347AC1"/>
<path id="Vector_22" fill-rule="evenodd" clip-rule="evenodd" d="M48.7394 6.99963C47.8894 5.78963 46.9294 4.57963 45.8594 4.67963C44.7894 4.77963 43.6294 5.74963 42.4394 6.67963C41.2494 7.60963 40.1594 8.51963 38.9994 9.41963C37.3094 10.7296 35.4894 12.0596 33.8494 13.4196C32.8494 14.2996 32.1394 15.0496 32.6594 16.1096C32.9394 16.6696 50.3794 39.5196 50.9794 40.2296C51.4569 40.932 52.1034 41.5028 52.8594 41.8896C53.8594 42.2196 55.1894 41.2296 56.4494 40.2496C58.9894 38.2496 61.2294 36.3996 63.8394 34.5296C65.2194 33.5296 67.4794 32.3296 67.0994 30.9896C66.9638 30.6194 66.7565 30.2796 66.4894 29.9896C65.7794 29.1396 49.2894 7.76963 48.7394 6.99963Z" fill="#3C91E6"/>
<path id="Vector_23" fill-rule="evenodd" clip-rule="evenodd" d="M65.7197 33.8095L64.5497 34.8095C64.1962 34.0717 63.9375 33.2922 63.7797 32.4895C63.5886 31.4384 63.6723 30.3558 64.0227 29.3466C64.3731 28.3375 64.9784 27.4359 65.7797 26.7295C66.9097 28.1995 68.0497 29.7295 69.1397 31.2095C67.9389 31.9931 66.796 32.862 65.7197 33.8095Z" fill="#347AC1"/>
<path id="Vector_24" fill-rule="evenodd" clip-rule="evenodd" d="M31.8603 16.5198C31.4403 15.8098 31.0203 15.0998 30.5703 14.3898L31.4603 13.8398C32.5173 13.1542 33.5202 12.3886 34.4603 11.5498C34.976 13.1793 34.8581 14.9434 34.1303 16.4898C33.8771 17.1544 33.5005 17.7652 33.0203 18.2898C32.6003 17.7098 32.2203 17.1298 31.8603 16.5198Z" fill="#347AC1"/>
<path id="Vector_25" fill-rule="evenodd" clip-rule="evenodd" d="M47.1714 33.0803C46.8414 32.4103 46.2414 31.9203 45.7114 32.2903C44.8014 32.9103 46.1914 34.9603 47.0514 34.2903C47.3814 34.0003 47.4314 33.6303 47.1714 33.0803Z" fill="white"/>
<path id="Vector_26" fill-rule="evenodd" clip-rule="evenodd" d="M48.925 8.53007C48.835 9.29007 50.715 11.7701 51.525 11.0801C52.175 10.5101 50.465 8.37007 49.525 8.21007C49.345 8.17007 49.185 8.21007 48.925 8.53007Z" fill="white"/>
<path id="Vector_27" fill-rule="evenodd" clip-rule="evenodd" d="M37.0061 11.1996C37.1661 12.4696 39.4661 10.8396 39.3461 10.0896C39.1961 9.07955 36.8661 10.0796 37.0061 11.1996Z" fill="white"/>
<path id="Vector_28" fill-rule="evenodd" clip-rule="evenodd" d="M52.2319 12.2394C51.4219 12.7894 52.9418 14.5994 53.6118 14.0094C53.8918 13.7594 53.8018 13.4994 53.6118 13.0694C53.2918 12.4294 52.7919 11.8594 52.2319 12.2394Z" fill="white"/>
<path id="Vector_29" fill-rule="evenodd" clip-rule="evenodd" d="M42.5518 27.2495C46.6318 36.7794 63.0918 25.0395 55.4018 17.2495C49.5718 11.3795 39.7318 20.6595 42.5518 27.2495Z" fill="#347AC1"/>
<path id="Vector_30" fill-rule="evenodd" clip-rule="evenodd" d="M17.6972 42.3095C19.7472 39.8995 27.2872 38.5595 35.0872 37.2295C43.7872 35.7495 50.6472 32.9895 53.9372 35.4795C55.9372 36.9695 57.3172 42.2795 58.3972 46.4795C59.3072 49.9995 61.3972 56.1395 60.1172 58.8095C58.4972 62.0795 46.3672 63.8095 41.7272 64.7395C38.7872 65.3595 35.2072 66.3195 31.3872 66.9095C25.3872 67.8295 21.7472 68.3995 19.6972 61.5895C18.6972 58.2195 14.7172 45.8095 17.6972 42.3095Z" fill="#F6B83A"/>
<path id="Vector_31" d="M32.0416 61.9002L44.1716 40.8202C45.0216 39.3402 42.8016 37.8202 41.9416 39.3002L29.8116 60.3702C28.9516 61.8602 31.1716 63.3702 32.0416 61.9002Z" fill="white"/>
<path id="Vector_32" d="M30.0222 48.0003C29.5536 47.876 29.1154 47.6573 28.7344 47.3577C28.3534 47.058 28.0375 46.6837 27.8063 46.2577C27.575 45.8317 27.4332 45.363 27.3895 44.8802C27.3458 44.3975 27.4011 43.9109 27.5522 43.4503C27.8873 42.5079 28.57 41.7292 29.4605 41.2738C30.351 40.8183 31.3819 40.7205 32.3422 41.0003C32.8098 41.1257 33.2469 41.3451 33.6268 41.6452C34.0067 41.9453 34.3215 42.3198 34.5517 42.7457C34.782 43.1715 34.9229 43.6399 34.966 44.1222C35.0091 44.6044 34.9533 45.0903 34.8022 45.5503C34.4711 46.4934 33.7906 47.2734 32.9011 47.7293C32.0117 48.1852 30.9811 48.2822 30.0222 48.0003ZM31.6721 43.0003C31.2742 42.8925 30.8504 42.9348 30.4816 43.1192C30.1128 43.3036 29.8247 43.6172 29.6721 44.0003C29.6072 44.1932 29.5816 44.3972 29.597 44.6002C29.6123 44.8031 29.6683 45.001 29.7616 45.1819C29.8548 45.3629 29.9835 45.5232 30.1399 45.6535C30.2963 45.7838 30.4773 45.8813 30.6721 45.9403C31.0701 46.0481 31.4939 46.0057 31.8627 45.8213C32.2315 45.6369 32.5196 45.3233 32.6721 44.9403C32.7371 44.7474 32.7627 44.5434 32.7473 44.3404C32.732 44.1374 32.676 43.9396 32.5827 43.7586C32.4895 43.5777 32.3608 43.4173 32.2044 43.287C32.048 43.1568 31.867 43.0593 31.6721 43.0003Z" fill="white"/>
<path id="Vector_33" d="M42.3633 60.9997C41.8289 60.8559 41.3295 60.6049 40.8952 60.262C40.4609 59.919 40.101 59.4914 39.8372 59.005C39.5734 58.5186 39.4113 57.9836 39.3608 57.4326C39.3103 56.8815 39.3723 56.326 39.5433 55.7997C39.9263 54.7214 40.7074 53.8306 41.7264 53.3099C42.7454 52.7893 43.925 52.6783 45.0233 52.9997C45.5576 53.1435 46.057 53.3946 46.4913 53.7375C46.9256 54.0804 47.2855 54.5081 47.5493 54.9945C47.8131 55.4809 47.9752 56.0159 48.0257 56.5669C48.0762 57.1179 48.0142 57.6734 47.8433 58.1997C47.4602 59.278 46.6791 60.1689 45.6601 60.6895C44.6411 61.2102 43.4615 61.3212 42.3633 60.9997ZM44.3633 54.9997C43.8168 54.8389 43.2295 54.8933 42.7218 55.1517C42.2141 55.4102 41.8247 55.8532 41.6333 56.3897C41.5399 56.6525 41.5025 56.932 41.5235 57.2101C41.5446 57.4883 41.6235 57.7589 41.7554 58.0047C41.8872 58.2505 42.069 58.466 42.2891 58.6373C42.5092 58.8087 42.7626 58.9321 43.0333 58.9997C43.5784 59.1602 44.1643 59.1055 44.6703 58.8469C45.1763 58.5883 45.5639 58.1455 45.7533 57.6097C45.8466 57.3469 45.884 57.0674 45.863 56.7893C45.8419 56.5112 45.763 56.2405 45.6311 55.9947C45.4993 55.749 45.3175 55.5335 45.0974 55.3621C44.8773 55.1907 44.6239 55.0673 44.3533 54.9997H44.3633Z" fill="white"/>
<path id="Vector_34" d="M23.2914 83.1902C23.1314 82.2402 22.2914 81.7302 21.0014 81.9202C19.7114 82.1102 15.0914 82.8002 13.4014 83.3002C10.8214 84.0502 11.8414 86.9802 14.1314 86.4802C18.5514 85.5302 23.7014 85.6502 23.2914 83.1902Z" fill="#E7DFEE"/>
<path id="Vector_35" d="M18.9088 98.3195C24.0788 93.3195 24.4088 93.0195 24.7088 92.4195C25.4988 90.8195 23.5288 89.4195 22.5688 90.3095C20.366 92.1604 18.2974 94.1654 16.3788 96.3095C16.1136 96.645 15.9925 97.0721 16.0422 97.4969C16.0919 97.9216 16.3083 98.3093 16.6438 98.5745C16.9793 98.8397 17.4064 98.9608 17.8312 98.9111C18.2559 98.8614 18.6436 98.645 18.9088 98.3095" fill="#E7DFEE"/>
<path id="Vector_36" d="M28.1102 103.84C30.5502 99.9496 32.1102 98.3196 30.3802 97.1996C30.1867 97.0738 29.9689 96.9903 29.7409 96.9544C29.5128 96.9186 29.2798 96.9313 29.0571 96.9917C28.8343 97.0522 28.6268 97.1589 28.4482 97.305C28.2695 97.4511 28.1237 97.6333 28.0202 97.8396C27.0202 99.3096 26.1202 100.84 25.2202 102.36C25.0994 102.551 25.0198 102.766 24.9865 102.989C24.9532 103.213 24.9669 103.442 25.0266 103.66C25.0864 103.878 25.191 104.082 25.3338 104.257C25.4765 104.433 25.6543 104.577 25.8558 104.68C26.0572 104.783 26.278 104.844 26.504 104.857C26.7299 104.87 26.9562 104.836 27.1682 104.757C27.3803 104.678 27.5736 104.555 27.7358 104.397C27.898 104.239 28.0255 104.049 28.1102 103.84Z" fill="#E7DFEE"/>
<path id="Vector_37" fill-rule="evenodd" clip-rule="evenodd" d="M47.1844 84.4602C42.6944 90.4602 53.5144 95.0002 53.2944 97.0002C53.1044 98.5302 52.4644 99.8102 52.3844 101.18C52.2244 103.65 53.0944 104.3 53.7644 106.6L39.6944 110.79C38.8262 108.852 38.1205 106.845 37.5844 104.79C36.9691 102.688 36.5145 100.542 36.2244 98.3702C35.6644 92.9302 38.2244 88.1202 43.1644 82.6802C44.8744 80.8102 49.1644 76.5802 50.3844 78.0602C51.3844 79.2502 47.9944 83.1402 47.2144 84.5102" fill="#C4765B"/>
<path id="Vector_38" fill-rule="evenodd" clip-rule="evenodd" d="M28.4609 82.4194C43.0109 76.8494 57.9009 71.7494 72.9509 66.8994C67.2009 79.0794 62.3109 92.5094 56.5609 104.689C42.5709 100.509 33.9409 92.5694 28.4609 82.4194Z" fill="#FFC857"/>
<path id="Vector_39" fill-rule="evenodd" clip-rule="evenodd" d="M41.2917 86.6704C42.8917 86.8104 43.0517 91.3504 43.0717 93.8504C43.0717 95.4804 42.8717 97.0304 42.9917 98.5004C46.7017 99.8104 52.6917 102.33 53.7217 106.56L39.6517 110.75C37.5517 106.29 36.9417 99.7504 37.7717 94.0704C38.1617 91.4004 39.4917 86.5204 41.2917 86.6704Z" fill="#DB9171"/>
<path id="Vector_40" fill-rule="evenodd" clip-rule="evenodd" d="M118.433 78.8295L120.503 91.0995C124.693 90.6295 128.903 90.1795 133.103 89.7795C133.514 89.433 133.908 89.0659 134.283 88.6795C135.543 87.3695 137.623 84.6795 137.683 82.8595C137.683 82.8595 136.943 77.7995 136.743 75.5095C136.263 69.9995 138.813 67.8095 140.513 63.2595C141.723 60.2201 142.435 57.0056 142.623 53.7395C142.973 44.7395 136.453 37.7395 129.983 36.3195C127.543 35.7995 122.813 35.7295 119.983 36.8995C116.846 38.0791 114.083 40.0786 111.983 42.6895C108.983 46.8595 108.573 52.0695 108.983 59.2395C109.183 63.1595 108.343 67.4595 108.583 70.3895C109.003 75.9995 111.023 79.8395 118.433 78.8295Z" fill="#DB9171"/>
<path id="Vector_41" fill-rule="evenodd" clip-rule="evenodd" d="M118.808 54.9401C114.268 57.9401 111.578 54.1401 111.578 54.1401C112.665 53.3216 114.029 52.9625 115.378 53.1401C116.697 53.347 117.906 53.9958 118.808 54.9801" fill="white"/>
<path id="Vector_42" fill-rule="evenodd" clip-rule="evenodd" d="M111.578 54.1401C112.008 54.7173 112.558 55.1948 113.19 55.54C113.821 55.8852 114.52 56.0899 115.238 56.1401C115.399 55.9292 115.537 55.7012 115.648 55.4601C115.753 55.0159 115.713 54.5496 115.533 54.1301C115.353 53.7106 115.042 53.3601 114.648 53.1301C113.564 53.119 112.508 53.471 111.648 54.1301" fill="#347AC1"/>
<path id="Vector_43" d="M119.433 52.8999C118.343 52.0032 117.022 51.4334 115.622 51.2564C114.223 51.0794 112.801 51.3025 111.523 51.8999L110.883 50.7599C112.392 50.0149 114.085 49.7232 115.757 49.9202C117.429 50.1172 119.008 50.7944 120.303 51.8699L119.433 52.8999Z" fill="#F6B83A"/>
<path id="Vector_44" fill-rule="evenodd" clip-rule="evenodd" d="M109.664 53.38C110.774 53.23 110.444 61.0901 109.664 64.1501C108.244 64.5401 106.354 64.1501 105.874 63.0101C104.934 60.7001 108.534 53.52 109.614 53.38" fill="#C4765B"/>
<path id="Vector_45" fill-rule="evenodd" clip-rule="evenodd" d="M112.29 66.9395C112.77 69.6995 109.01 72.4295 108.29 71.5095C108.082 71.2013 107.954 70.8461 107.917 70.476C107.88 70.1059 107.937 69.7325 108.08 69.3895C108.928 69.3394 109.752 69.0917 110.486 68.6663C111.221 68.2409 111.845 67.6495 112.31 66.9395" fill="#C4765B"/>
<path id="Vector_46" fill-rule="evenodd" clip-rule="evenodd" d="M112.294 66.94C111.414 68.34 108.734 68.72 107.994 68.73C106.814 64.89 110.504 67.59 112.294 66.94Z" fill="#C4765B"/>
<path id="Vector_47" d="M124.542 61.6999C124.673 62.4546 124.578 63.2315 124.268 63.9321C123.958 64.6327 123.447 65.2254 122.799 65.6352C122.152 66.045 121.397 66.2534 120.631 66.2341C119.866 66.2147 119.123 65.9684 118.497 65.5264C117.871 65.0844 117.39 64.4665 117.116 63.7512C116.842 63.0358 116.786 62.2551 116.956 61.5079C117.125 60.7608 117.513 60.0808 118.07 59.5542C118.626 59.0276 119.326 58.6781 120.082 58.5499C120.582 58.4624 121.094 58.4745 121.589 58.5857C122.084 58.6968 122.552 58.9047 122.967 59.1974C123.381 59.4902 123.734 59.862 124.004 60.2914C124.274 60.7209 124.457 61.1995 124.542 61.6999Z" fill="#C4765B"/>
<path id="Vector_48" fill-rule="evenodd" clip-rule="evenodd" d="M118.43 78.83C121.481 78.0765 124.333 76.671 126.79 74.71C126.408 76.7634 125.525 78.6909 124.221 80.3218C122.916 81.9527 121.229 83.2367 119.31 84.06L118.43 78.83Z" fill="#C4765B"/>
<path id="Vector_49" fill-rule="evenodd" clip-rule="evenodd" d="M146.199 19.0902C147.3 18.8545 148.441 18.8975 149.521 19.2154C150.6 19.5332 151.583 20.1159 152.379 20.9103C153.519 22.1603 153.889 23.9102 154.849 25.4602C156.169 27.5702 158.989 28.7902 159.789 31.5602C161.109 36.0902 157.299 37.9902 155.159 40.3502C153.509 42.1802 152.989 45.1703 150.019 45.6503C148.76 45.7538 147.498 45.4971 146.379 44.9103C145.099 44.2403 143.959 42.5303 142.299 41.3603C140.639 40.1903 138.849 39.6302 137.889 37.9502C137.022 36.0768 136.676 34.0038 136.889 31.9502C137.34 30.13 137.905 28.3398 138.579 26.5902C139.739 22.6702 141.289 20.0002 146.199 19.0902Z" fill="#FFC857"/>
<path id="Vector_50" fill-rule="evenodd" clip-rule="evenodd" d="M147 21.0698C147.86 21.0233 148.719 21.1729 149.512 21.5073C150.306 21.8416 151.013 22.352 151.58 22.9998C153.16 24.7898 153.13 27.3398 154.58 29.1998C155.4 30.2598 157.16 30.7498 157.58 32.1998C157.813 33.1911 157.769 34.2273 157.454 35.1954C157.138 36.1635 156.562 37.0264 155.79 37.6898C156.097 36.8811 156.226 36.0156 156.167 35.1526C156.108 34.2896 155.864 33.4495 155.45 32.6898C155.07 32.0498 154.14 31.4598 153.45 30.6098C152.4 29.2398 152.16 27.5298 151.66 25.9898C151.363 24.8423 150.78 23.7889 149.965 22.9283C149.15 22.0678 148.13 21.4283 147 21.0698Z" fill="#F6B83A"/>
<path id="Vector_51" fill-rule="evenodd" clip-rule="evenodd" d="M126.764 27.2999C128.693 26.8194 130.717 26.8787 132.615 27.4713C134.513 28.0639 136.211 29.167 137.524 30.6599C138.654 32.0599 139.314 33.9299 140.644 35.2599C142.834 37.4499 146.404 37.9899 148.474 40.0599C151.344 42.9299 152.334 47.5999 152.534 51.8599C152.834 58.2899 149.214 66.0299 145.014 69.3199C142.274 71.4599 137.634 71.4099 133.674 70.1399C123.774 66.9499 129.954 61.8699 126.674 55.6699C125.874 54.1799 124.074 54.2399 123.224 52.0699C122.704 50.7099 122.854 46.6899 117.094 45.2499C109.164 43.2499 107.814 39.3899 107.894 38.2499C108.054 36.0499 108.834 34.6099 110.714 33.7199C111.782 33.4264 112.872 33.2191 113.974 33.0999C118.824 32.0999 122.164 27.9899 126.534 27.3399L126.764 27.2999Z" fill="#FFC857"/>
<path id="Vector_52" d="M148.47 40.0599C146.4 37.9899 142.83 37.4499 140.64 35.2599C139.31 33.9299 138.64 32.0599 137.52 30.6599C136.207 29.167 134.509 28.0639 132.611 27.4713C130.713 26.8787 128.689 26.8194 126.76 27.2999H126.52C126.345 27.3226 126.171 27.356 126 27.3999C127.459 27.2873 128.925 27.4828 130.303 27.9738C131.681 28.4648 132.941 29.2403 134 30.2499C135.38 31.6299 135.95 33.2499 136.92 35.0199C137.804 36.6257 139.021 38.0237 140.49 39.1199C143.49 41.2499 148.73 41.9199 149.75 46.1199C150.51 49.2899 149.16 52.1199 149.15 54.4899C149.15 56.3199 150.15 58.2699 150.15 60.4299C150.147 61.4098 149.971 62.3814 149.63 63.2999C151.547 59.7765 152.528 55.8206 152.48 51.8099C152.29 47.5999 151.34 42.9299 148.47 40.0599Z" fill="#F6B83A"/>
<path id="Vector_53" fill-rule="evenodd" clip-rule="evenodd" d="M134.293 60.7302C134.053 62.8702 131.473 66.5602 128.483 66.2202C126.413 65.9802 126.563 62.0102 126.813 59.8802C126.842 59.3682 126.975 58.8675 127.205 58.4088C127.434 57.95 127.755 57.543 128.147 57.2125C128.539 56.8819 128.995 56.6349 129.486 56.4865C129.977 56.3381 130.493 56.2914 131.002 56.3493C131.512 56.4072 132.004 56.5685 132.449 56.8233C132.894 57.0781 133.283 57.421 133.591 57.8311C133.899 58.2412 134.12 58.7098 134.241 59.2083C134.361 59.7068 134.379 60.2247 134.293 60.7302Z" fill="#DB9171"/>
<path id="Vector_54" fill-rule="evenodd" clip-rule="evenodd" d="M124.011 31.54C122.501 30.27 127.011 28.54 127.631 29.85C128.351 31.43 125.201 31.97 124.161 31.65C124.102 31.626 124.051 31.5883 124.011 31.54Z" fill="white"/>
<path id="Vector_55" fill-rule="evenodd" clip-rule="evenodd" d="M128.904 32.6203C127.834 31.4303 131.554 29.7403 131.904 31.3503C132.234 32.5703 129.644 33.4403 128.904 32.6203Z" fill="white"/>
<path id="Vector_56" fill-rule="evenodd" clip-rule="evenodd" d="M146.29 56.9999C147.23 57.2399 146.59 58.8399 146.1 59.9999C145.61 61.1599 144.98 62.2799 144.39 62.1099C143.48 61.8299 144.22 60.2799 144.57 59.3699C144.92 58.4599 145.29 56.7199 146.29 56.9999Z" fill="white"/>
<path id="Vector_57" fill-rule="evenodd" clip-rule="evenodd" d="M146.201 63.6599C147.341 63.9599 145.761 66.8399 144.911 66.4499C144.061 66.0599 145.291 63.4199 146.201 63.6599Z" fill="white"/>
<path id="Vector_58" fill-rule="evenodd" clip-rule="evenodd" d="M143.221 64.4997C143.651 65.2197 143.031 66.8597 142.221 67.7997C141.941 68.1297 141.551 68.4297 141.151 68.1697C140.531 67.7697 141.241 66.6997 141.611 65.8697C141.981 65.0397 142.231 63.9997 143.221 64.4997Z" fill="white"/>
<path id="Vector_59" fill-rule="evenodd" clip-rule="evenodd" d="M151.031 94.2702C151.031 94.1702 151.031 94.1602 151.151 94.1602C151.271 94.1602 151.261 94.1602 151.261 94.2702C161.451 99.1202 167.451 108.58 172.911 119.44C175.461 124.51 183.081 144.03 184.291 148.65C184.971 151.27 185.731 153.91 184.291 156.19C181.941 159.92 174.681 159.72 168.881 159.97C167.311 160.03 165.721 160.03 164.201 160.06C162.681 160.09 161.201 160.37 159.981 159.71C160.501 153.71 161.171 147.5 161.541 141.38C161.79 135.31 161.546 129.23 160.811 123.2C159.581 111.32 157.431 101.29 151.031 94.2702Z" fill="#3C91E6"/>
<path id="Vector_60" fill-rule="evenodd" clip-rule="evenodd" d="M165.17 134.39C165.3 134.39 165.25 134.62 165.4 134.62C167.25 138.13 169.09 141.43 171.26 145.07C171.6 145.65 173.26 148.18 171.61 148.62C170.75 148.84 169.81 147.83 169.26 147.18C167.65 145.098 166.224 142.879 165 140.55C164.6 138.62 165.45 136.34 165.17 134.39Z" fill="#347AC1"/>
<path id="Vector_61" d="M166.038 123.999C165.358 114.869 163.038 106.589 158.598 100.729C157.308 99.0195 155.758 96.9695 153.938 95.9795C156.442 99.1948 158.281 102.876 159.348 106.809C161.458 114.229 161.778 123.059 162.038 132.339C162.038 133.599 162.098 134.86 162.108 136.13C162.108 137.036 162.108 137.956 162.108 138.889C162.17 145.953 161.792 153.013 160.978 160.029C161.998 160.239 166.938 136.179 166.038 123.999Z" fill="#347AC1"/>
<path id="Vector_62" fill-rule="evenodd" clip-rule="evenodd" d="M161.011 160.08C140.561 159.96 119.201 160.25 98.6011 158.86C98.5861 147.9 97.4773 136.969 95.2911 126.23C94.3511 121.5 93.1011 116.42 92.4211 111.07C91.7411 105.72 91.5711 99.33 93.9111 95.07C96.1511 90.94 101.201 88.68 106.121 87.2C111.672 85.559 117.423 84.6875 123.211 84.61C142.971 84.19 155.071 91.94 159.331 106.89C161.441 114.31 161.761 123.14 162.021 132.42C162.368 141.652 162.031 150.898 161.011 160.08Z" fill="#3C91E6"/>
<path id="Vector_63" fill-rule="evenodd" clip-rule="evenodd" d="M135.349 78.57C136.437 78.4459 137.537 78.517 138.599 78.78C141.069 79.72 142.529 83.55 142.909 86.89C143.059 88.19 143.129 89.6 142.549 90.31C141.549 91.58 137.739 91.31 134.609 90.99C129.169 90.45 123.829 89.83 118.289 88.92C116.409 88.62 111.699 88.49 111.459 86.79C111.219 85.09 114.099 83.89 115.849 83.26C118.199 82.41 120.099 81.95 121.849 81.38C123.849 80.72 125.979 80.15 128.129 79.62C130.493 79.0194 132.913 78.6675 135.349 78.57Z" fill="#347AC1"/>
<path id="Vector_64" fill-rule="evenodd" clip-rule="evenodd" d="M157.801 113.92C156.851 113.09 156.221 111.07 155.721 109.05C155.501 108.18 155.181 106.78 155.931 106.5C156.831 106.16 157.461 107.7 157.681 108.25C158.378 109.921 158.751 111.709 158.781 113.52C158.663 113.661 158.511 113.772 158.341 113.842C158.17 113.911 157.984 113.938 157.801 113.92Z" fill="white"/>
<path id="Vector_65" fill-rule="evenodd" clip-rule="evenodd" d="M153.529 107.26C151.809 108.32 150.169 104.26 151.789 103.76C152.489 103.57 154.029 105.26 154.079 106.35C154.076 106.537 154.023 106.719 153.927 106.879C153.83 107.039 153.693 107.17 153.529 107.26Z" fill="white"/>
<path id="Vector_66" fill-rule="evenodd" clip-rule="evenodd" d="M151.462 98.8898C150.892 99.3198 149.992 98.7998 149.342 97.9898C148.812 97.3398 148.122 95.8498 149.022 95.5098C149.359 95.4914 149.696 95.5589 150 95.7057C150.304 95.8526 150.566 96.0742 150.762 96.3498C151.412 97.1298 152.202 98.3298 151.462 98.8898Z" fill="white"/>
<path id="Vector_67" fill-rule="evenodd" clip-rule="evenodd" d="M39.2891 109.94L53.0991 104.89C58.9191 114.37 63.4491 122.33 68.7391 132.31C74.4391 119.98 81.4391 108.03 89.9391 97.8802C92.7091 94.5702 96.0791 91.1602 100.209 89.8802C103.799 88.7302 107.409 89.9602 108.809 92.8802C110.209 95.8002 109.329 101.06 108.349 104.74C107.349 108.61 106.099 112.12 104.959 115.38C100.079 129.38 94.0991 141.77 85.9591 152.16C84.0046 154.781 81.7529 157.167 79.2491 159.27C76.659 161.487 73.5713 163.045 70.2491 163.81C68.838 164.028 67.3969 163.947 66.0189 163.574C64.6409 163.2 63.3567 162.541 62.2491 161.64C58.9891 159.02 56.6491 154.64 54.6891 150.64C48.3198 137.574 43.1648 123.95 39.2891 109.94Z" fill="#3C91E6"/>
<path id="Vector_68" d="M111.935 98.1298C111.795 93.8898 110.135 89.5398 106.235 88.5098C107.753 89.9805 108.798 91.8713 109.235 93.9398C110.055 96.9898 109.235 101.42 108.375 104.68C107.375 108.55 106.125 112.06 104.985 115.32C102.687 121.995 99.9543 128.512 96.8047 134.83C97.0747 136.67 108.045 118.83 110.215 109.83C111.327 106.028 111.906 102.091 111.935 98.1298Z" fill="#347AC1"/>
<path id="Vector_69" d="M73.1134 140.07C74.2134 139.89 73.8934 138.13 73.5434 136.88C72.8234 134.28 72.1934 132.13 71.4634 130.09C71.2634 129.469 71.0021 128.869 70.6834 128.3C70.0334 129.63 69.3934 130.97 68.7734 132.3C69.0517 133.317 69.3855 134.319 69.7734 135.3C70.2934 136.36 71.7934 140.28 73.1134 140.07Z" fill="#347AC1"/>
<path id="Vector_70" fill-rule="evenodd" clip-rule="evenodd" d="M102.453 91.7103C105.023 91.9103 101.013 97.5203 99.4533 96.5203C97.5933 95.3503 100.823 92.2003 102.223 91.7203C102.299 91.7043 102.377 91.7009 102.453 91.7103Z" fill="white"/>
<path id="Vector_71" fill-rule="evenodd" clip-rule="evenodd" d="M96.151 94.4696C98.151 94.9196 95.031 99.8196 93.531 98.3396C92.381 97.2096 94.761 94.1496 96.151 94.4696Z" fill="white"/>
<path id="Vector_72" fill-rule="evenodd" clip-rule="evenodd" d="M59.4206 148.449C60.2606 149.049 60.9206 150.649 61.4806 152.259C61.7206 152.949 62.0906 154.069 61.4806 154.349C60.8706 154.629 60.1406 153.489 59.9206 153.059C59.2304 151.75 58.796 150.321 58.6406 148.849C58.7271 148.723 58.8437 148.62 58.9799 148.551C59.1161 148.481 59.2676 148.446 59.4206 148.449Z" fill="white"/>
<path id="Vector_73" fill-rule="evenodd" clip-rule="evenodd" d="M64.8903 154.05C66.2203 153.05 67.8903 156.29 66.5703 156.77C66.0103 156.98 64.6403 155.71 64.5703 154.83C64.5502 154.683 64.5692 154.534 64.6254 154.397C64.6816 154.26 64.773 154.14 64.8903 154.05Z" fill="white"/>
<path id="Vector_74" fill-rule="evenodd" clip-rule="evenodd" d="M65.2918 158.41C65.7218 158.02 66.4918 158.41 67.0818 158.99C67.6718 159.57 68.2318 160.64 67.5218 160.99C67.25 161.035 66.9711 161.008 66.7131 160.912C66.4551 160.815 66.227 160.653 66.0518 160.44C65.4118 159.84 64.6818 158.93 65.2918 158.41Z" fill="white"/>
</g>
</svg>
