<svg width="220" height="180" viewBox="0 0 220 180" fill="none" xmlns="http://www.w3.org/2000/svg">
<g id="Group 1006">
<path id="Vector" fill-rule="evenodd" clip-rule="evenodd" d="M18.2063 71.2209C22.8663 70.7509 27.2963 70.5609 31.8963 70.1409C31.8963 80.9409 29.6263 102.401 29.4763 113.071C32.8963 102.401 37.6062 80.3609 46.6562 73.9509C46.5162 76.0609 46.0562 78.0409 45.7162 80.1209C43.7162 92.6409 45.8463 119.121 45.4163 121.271C45.2263 122.271 40.4163 129.741 39.6263 130.971C37.2174 134.309 34.6163 137.505 31.8363 140.541C30.073 142.734 28.093 144.745 25.9263 146.541C21.5463 149.891 14.6963 151.731 11.3463 146.951C7.34625 141.271 8.06625 129.491 8.53625 122.021C9.34528 110.46 11.0809 98.9836 13.7263 87.7009C14.8894 82.1231 16.3854 76.6199 18.2063 71.2209Z" fill="#3C91E6"/>
<g id="Group 1005">
<g id="Group 1001">
<path id="Vector_2" fill-rule="evenodd" clip-rule="evenodd" d="M131.579 48.1307C130.459 49.5707 129.209 50.9707 127.899 50.7807C126.589 50.5907 125.239 49.3307 123.839 48.1207C122.439 46.9107 121.169 45.7207 119.839 44.5407C117.839 42.8207 115.719 41.0707 113.839 39.2707C112.619 38.1207 111.839 37.1607 112.569 35.9007C112.939 35.2307 135.799 8.38068 136.569 7.56068C137.194 6.74109 138.012 6.08844 138.949 5.66068C140.189 5.33068 141.769 6.66068 143.249 7.91068C146.249 10.4807 148.839 12.9107 151.909 15.4007C153.539 16.7007 156.219 18.3207 155.679 19.9507C155.484 20.3872 155.206 20.7813 154.859 21.1107C153.949 22.1307 132.309 47.2107 131.579 48.1307Z" fill="#347AC1"/>
<path id="Vector_3" fill-rule="evenodd" clip-rule="evenodd" d="M131.948 44.4605C131.038 45.6305 130.008 46.7805 128.948 46.6205C127.888 46.4605 126.778 45.4405 125.628 44.4505C124.478 43.4605 123.458 42.4505 122.348 41.5305C120.728 40.1305 118.978 38.7005 117.418 37.2305C116.418 36.3005 115.808 35.5105 116.418 34.4805C116.728 33.9405 135.358 12.0505 135.998 11.3805C136.519 10.6973 137.208 10.16 137.998 9.82054C138.998 9.55054 140.288 10.6005 141.498 11.6505C143.918 13.7405 146.058 15.7505 148.558 17.7605C149.888 18.8205 152.078 20.1405 151.638 21.4705C151.471 21.8208 151.245 22.139 150.968 22.4105C150.188 23.2305 132.578 43.6905 131.948 44.4605Z" fill="#3C91E6"/>
<path id="Vector_4" fill-rule="evenodd" clip-rule="evenodd" d="M137.953 7.75118L134.333 11.9412C137.193 12.9412 140.333 12.9412 142.133 11.2112C140.759 10.0312 139.379 8.86451 137.993 7.71118L137.953 7.75118Z" fill="#347AC1"/>
<path id="Vector_5" fill-rule="evenodd" clip-rule="evenodd" d="M150.371 18.571C150.011 18.211 149.641 17.861 149.261 17.511C148.872 18.2317 148.573 18.9974 148.371 19.791C148.123 20.8298 148.148 21.9148 148.442 22.9413C148.736 23.9678 149.29 24.9011 150.051 25.651C151.261 24.241 152.471 22.811 153.641 21.351C152.484 20.5054 151.391 19.5762 150.371 18.571Z" fill="#347AC1"/>
<path id="Vector_6" fill-rule="evenodd" clip-rule="evenodd" d="M134.399 14.3412C133.859 15.1812 132.819 16.3412 132.189 16.0012C131.379 15.5212 132.099 14.7412 132.599 14.1112C133.099 13.4812 133.729 12.6912 134.349 13.1112C134.969 13.5312 134.609 14.0112 134.399 14.3412Z" fill="white"/>
<path id="Vector_7" fill-rule="evenodd" clip-rule="evenodd" d="M131.811 18.301C131.451 18.961 130.811 19.411 130.311 19.021C129.441 18.341 130.941 16.371 131.761 17.081C132.081 17.351 132.101 17.761 131.811 18.301Z" fill="white"/>
<path id="Vector_8" fill-rule="evenodd" clip-rule="evenodd" d="M126.89 23.8808C131.47 14.5808 147.29 27.1908 139.19 34.5308C133.05 40.1308 123.72 30.3008 126.89 23.8808Z" fill="#347AC1"/>
</g>
<g id="Group 1000">
<path id="Vector_9" fill-rule="evenodd" clip-rule="evenodd" d="M176.778 18.321C178.358 17.411 180.058 16.591 181.188 17.261C182.318 17.931 183.098 19.621 183.928 21.261C184.758 22.901 185.488 24.491 186.298 26.101C187.478 28.451 188.798 30.881 189.878 33.281C190.568 34.801 190.878 35.981 189.768 36.881C189.168 37.351 157.768 53.471 156.768 53.881C155.856 54.4139 154.824 54.7096 153.768 54.741C152.508 54.571 151.538 52.741 150.658 51.021C148.888 47.521 147.398 44.241 145.498 40.791C144.498 38.971 142.628 36.451 143.748 35.151C144.098 34.826 144.505 34.5683 144.948 34.391C146.218 33.881 175.748 18.911 176.778 18.321Z" fill="#347AC1"/>
<path id="Vector_10" fill-rule="evenodd" clip-rule="evenodd" d="M174.949 21.571C176.229 20.841 177.619 20.171 178.539 20.711C179.459 21.251 180.099 22.631 180.779 23.991C181.459 25.351 182.039 26.621 182.709 27.991C183.709 29.901 184.709 31.881 185.629 33.841C186.189 35.081 186.459 36.041 185.539 36.771C185.049 37.161 159.479 50.301 158.639 50.681C157.9 51.1038 157.069 51.3406 156.219 51.371C155.219 51.241 154.399 49.771 153.679 48.371C152.239 45.511 151.029 42.841 149.479 40.031C148.649 38.541 147.129 36.481 148.049 35.431C148.338 35.1604 148.678 34.9497 149.049 34.811C150.079 34.261 174.149 22.061 174.949 21.571Z" fill="#3C91E6"/>
<path id="Vector_11" fill-rule="evenodd" clip-rule="evenodd" d="M155.511 53.2515L160.461 50.7615C158.211 48.6915 155.301 47.5415 152.971 48.4615C153.791 50.0715 154.621 51.6815 155.471 53.2715L155.511 53.2515Z" fill="#347AC1"/>
<path id="Vector_12" fill-rule="evenodd" clip-rule="evenodd" d="M148.127 38.5106L148.757 39.9006C149.396 39.3882 149.965 38.793 150.447 38.1306C151.075 37.2655 151.467 36.2524 151.586 35.1903C151.706 34.1281 151.547 33.0532 151.127 32.0706C149.477 32.9206 147.807 33.7806 146.127 34.6806C146.889 35.905 147.558 37.1853 148.127 38.5106Z" fill="#347AC1"/>
<path id="Vector_13" fill-rule="evenodd" clip-rule="evenodd" d="M179.592 20.7509C179.322 20.2209 179.032 19.7009 178.742 19.1809C178.142 19.608 177.498 19.97 176.822 20.2609C176.102 20.5709 175.362 20.8209 174.622 21.0909C176.392 23.0109 178.622 24.1509 180.922 23.2709C180.795 22.8992 180.718 22.5126 180.692 22.1209C180.233 21.7465 179.858 21.2797 179.592 20.7509Z" fill="#347AC1"/>
<path id="Vector_14" fill-rule="evenodd" clip-rule="evenodd" d="M186.129 37.4508C186.819 36.9908 187.509 36.5208 188.219 36.0808L187.649 35.2008C186.995 34.1303 186.427 33.0102 185.949 31.8508C184.782 33.1027 184.132 34.7495 184.129 36.4608C184.071 37.1691 184.149 37.8819 184.359 38.5608C184.949 38.2108 185.549 37.8408 186.129 37.4508Z" fill="#347AC1"/>
<path id="Vector_15" fill-rule="evenodd" clip-rule="evenodd" d="M161.29 48.5007C162.11 47.9307 163.52 47.2307 163.96 47.8107C164.53 48.5607 163.57 49.0007 162.87 49.4007C162.17 49.8007 161.29 50.2807 160.87 49.6507C160.45 49.0207 160.95 48.7307 161.29 48.5007Z" fill="white"/>
<path id="Vector_16" fill-rule="evenodd" clip-rule="evenodd" d="M165.195 45.8206C165.775 45.3506 166.525 45.1806 166.845 45.7306C167.405 46.7306 165.265 47.9406 164.765 46.9706C164.585 46.6006 164.715 46.2106 165.195 45.8206Z" fill="white"/>
<path id="Vector_17" fill-rule="evenodd" clip-rule="evenodd" d="M174.156 22.911C173.916 23.631 171.156 25.061 170.716 24.091C170.376 23.301 172.846 22.091 173.716 22.331C173.946 22.391 174.056 22.501 174.156 22.911Z" fill="white"/>
<path id="Vector_18" fill-rule="evenodd" clip-rule="evenodd" d="M183.775 30.4407C183.085 31.5107 181.705 29.0607 182.135 28.4407C182.705 27.5807 184.385 29.4807 183.775 30.4407Z" fill="white"/>
<path id="Vector_19" fill-rule="evenodd" clip-rule="evenodd" d="M169.584 24.8314C170.074 25.6714 167.914 26.6614 167.584 25.8314C167.434 25.4914 167.584 25.2914 168.004 24.9914C168.554 24.5514 169.234 24.2414 169.584 24.8314Z" fill="white"/>
<path id="Vector_20" fill-rule="evenodd" clip-rule="evenodd" d="M171.866 42.5415C164.086 49.4015 154.266 31.7115 164.546 28.0115C172.346 25.2015 177.246 37.8115 171.866 42.5415Z" fill="#347AC1"/>
</g>
<g id="Group 1004">
<path id="Vector_21" fill-rule="evenodd" clip-rule="evenodd" d="M86.8074 29.9208C84.4574 30.2808 81.2774 31.2208 79.6674 32.5608C74.6674 36.6708 75.1574 46.9508 75.0174 53.7508C74.8474 62.2408 75.1874 69.9108 75.0174 77.5908C74.8774 85.5908 74.2674 93.1208 73.4874 100.541C73.0195 104.354 72.7458 108.189 72.6674 112.031C72.6674 115.881 72.8274 120.861 74.9974 124.411C77.1674 127.961 81.6474 129.571 86.5774 130.061C91.5653 130.487 96.5739 130.62 101.577 130.461C112.137 130.241 122.697 129.631 132.577 129.541C152.947 129.351 172.947 129.731 193.417 129.541C198.617 129.491 204.057 129.701 209.467 127.951C214.877 126.201 217.687 123.211 218.797 118.951C219.907 114.691 219.907 110.251 219.797 105.291C219.627 91.1508 219.067 76.7208 219.107 62.3508C219.107 55.5208 219.407 48.4308 218.757 40.8208C218.527 38.1508 218.017 33.9608 216.037 32.0108C214.717 30.7108 211.747 29.8308 209.507 29.4208C206.982 29.0156 204.434 28.7717 201.877 28.6908C196.487 28.4108 190.397 29.1508 185.177 29.3108C179.717 29.4708 174.057 29.7408 168.467 29.9208C162.877 30.1008 157.387 30.0208 152.137 29.9208C141.467 29.8008 130.467 29.9208 119.677 29.6908C111.907 29.5408 103.507 29.2908 95.3974 29.3208C92.5229 29.3005 89.6511 29.501 86.8074 29.9208Z" fill="#BFABD3"/>
<path id="Vector_22" opacity="0.2" d="M80.5181 31.971C81.0088 31.6834 81.5202 31.4327 82.0481 31.221V38.021H95.0481V29.421H96.5781V38.021H109.418V29.571H110.948V37.991H123.948V29.831H125.478V37.971H138.478V29.901H140.008V37.971H153.008V29.971H154.528V37.971H167.528V29.971H168.398H169.058V38.031H182.058V29.481H183.588V38.081H196.588V28.801H198.118V38.121H211.118V29.971C211.628 30.101 212.118 30.261 212.638 30.431V38.121H218.268C218.348 38.611 218.408 39.121 218.458 39.551H212.638V51.631H219.038V53.061H212.638V65.241H218.968V66.671H212.638V78.851H219.118V80.281H212.608V92.461H219.378V93.891H212.578V106.071H219.578V107.501H212.578V119.501H218.648C218.498 119.991 218.328 120.501 218.138 120.931H212.828V126.581C212.334 126.853 211.827 127.1 211.308 127.321V120.931H198.308V129.551C197.798 129.551 197.308 129.551 196.778 129.551V120.911H183.778V129.601H182.248V120.911H169.248V129.571H167.718V120.911H154.718V129.511H153.198V120.911H140.198V129.501H138.668V120.901H125.668V129.671H124.138V120.851H111.138V130.131L109.608 130.181V120.851H96.7981V130.451H95.2681V120.871H82.2681V129.181C81.7481 129.031 81.2681 128.851 80.7381 128.661V120.871H73.7981C73.6681 120.401 73.5581 119.921 73.4681 119.441H80.7381V107.441H73.1081C73.1081 106.961 73.1681 106.441 73.2081 106.011H80.7381V93.891H74.3881L74.5081 92.461H80.7381V80.281H74.9481C74.9481 79.811 74.9481 79.281 74.9481 78.851H80.4381V66.671H74.9481C74.9481 66.201 74.9481 65.721 74.9481 65.241H80.4481V53.061H74.9581C74.9581 52.601 74.9581 52.121 74.9581 51.631H80.4281V39.451H75.9281C76.0381 38.961 76.1681 38.451 76.3081 38.021H80.4281L80.5181 31.971ZM198.278 119.481H211.278V107.481H198.278V119.481ZM198.278 106.071H211.278V93.891H198.278V106.071ZM198.278 92.461H211.278V80.281H198.278V92.461ZM198.278 78.851H211.278V66.671H198.278V78.851ZM198.278 65.241H211.278V53.061H198.278V65.241ZM198.278 51.631H211.278V39.451H198.278V51.631ZM183.718 119.481H196.718V107.481H183.718V119.481ZM183.718 106.071H196.718V93.891H183.718V106.071ZM183.718 92.461H196.718V80.281H183.718V92.461ZM183.718 78.851H196.718V66.671H183.718V78.851ZM183.718 65.241H196.718V53.061H183.718V65.241ZM183.718 51.631H196.718V39.451H183.718V51.631ZM169.168 119.481H182.168V107.481H169.168V119.481ZM169.168 106.071H182.168V93.891H169.168V106.071ZM169.168 92.461H182.168V80.281H169.168V92.461ZM169.168 78.851H182.168V66.671H169.168V78.851ZM169.168 65.241H182.168V53.061H169.168V65.241ZM169.168 51.631H182.168V39.451H169.168V51.631ZM154.608 119.481H167.608V107.481H154.608V119.481ZM154.608 106.071H167.608V93.891H154.608V106.071ZM154.608 92.461H167.608V80.281H154.608V92.461ZM154.608 78.851H167.608V66.671H154.608V78.851ZM154.608 65.241H167.608V53.061H154.608V65.241ZM154.608 51.631H167.608V39.451H154.608V51.631ZM140.058 119.481H153.058V107.481H140.058V119.481ZM140.058 106.071H153.058V93.891H140.058V106.071ZM140.058 92.461H153.058V80.281H140.058V92.461ZM140.058 78.851H153.058V66.671H140.058V78.851ZM140.058 65.241H153.058V53.061H140.058V65.241ZM140.058 51.631H153.058V39.451H140.058V51.631ZM125.498 119.481H138.498V107.481H125.498V119.481ZM125.498 106.071H138.498V93.891H125.498V106.071ZM125.498 92.461H138.498V80.281H125.498V92.461ZM125.498 78.851H138.498V66.671H125.498V78.851ZM125.498 65.241H138.498V53.061H125.498V65.241ZM125.498 51.631H138.498V39.451H125.498V51.631ZM110.948 119.481H123.948V107.481H110.948V119.481ZM110.948 106.071H123.948V93.891H110.948V106.071ZM110.948 92.461H123.948V80.281H110.948V92.461ZM110.948 78.851H123.948V66.671H110.948V78.851ZM110.948 65.241H123.948V53.061H110.948V65.241ZM110.948 51.631H123.948V39.451H110.948V51.631ZM96.6081 119.481H109.418V107.481H96.6081V119.481ZM96.6081 106.071H109.418V93.891H96.6081V106.071ZM96.6081 92.461H109.418V80.281H96.6081V92.461ZM96.6081 78.851H109.418V66.671H96.6081V78.851ZM96.6081 65.241H109.418V53.061H96.6081V65.241ZM96.6081 51.631H109.418V39.451H96.6081V51.631ZM82.0481 119.481H95.0481V107.481H82.0481V119.481ZM82.0481 106.071H95.0481V93.891H82.0481V106.071ZM82.0481 92.461H95.0481V80.281H82.0481V92.461ZM82.0481 78.851H95.0481V66.671H82.0481V78.851ZM82.0481 65.241H95.0481V53.061H82.0481V65.241ZM82.0481 51.631H95.0481V39.451H82.0481V51.631Z" fill="white"/>
<path id="Vector_23" fill-rule="evenodd" clip-rule="evenodd" d="M119.371 42.1309C126.088 51.3358 134.65 59.0396 144.511 64.7509C152.563 69.6621 161.508 72.9284 170.831 74.3609C172.643 74.6319 174.469 74.8055 176.301 74.8809C178.221 74.9509 180.851 75.1809 180.891 73.4709C180.855 73.0837 180.675 72.7242 180.386 72.4645C180.096 72.2049 179.719 72.0642 179.331 72.0709C178.421 71.9909 177.331 72.0709 176.521 72.0009C171.475 71.7904 166.48 70.9196 161.661 69.4109C156.074 67.5976 150.707 65.1659 145.661 62.1609C136.052 56.6008 127.775 49.0067 121.411 39.9109C122.131 40.2409 122.761 40.6309 123.551 41.0909C124.341 41.5509 125.001 42.1709 125.921 41.9809C126.196 41.8902 126.433 41.7101 126.595 41.4691C126.756 41.2281 126.832 40.9401 126.811 40.6509C126.811 39.8909 125.721 39.3709 124.811 38.8009C123.281 37.8009 121.541 36.8009 120.151 35.8009C119.464 35.1577 118.693 34.6095 117.861 34.1709C117.485 34.0454 117.078 34.0581 116.711 34.2066C116.344 34.3551 116.043 34.6297 115.861 34.9809C115.651 36.0332 115.675 37.1188 115.931 38.1609C116.091 39.2209 116.351 40.3809 116.451 41.1609C116.571 42.1609 116.671 43.3909 116.741 44.4209C116.831 45.6409 116.951 46.5609 117.851 46.7809C120.011 47.3309 119.671 44.3009 119.371 42.1309Z" fill="#7C75D1"/>
<path id="Vector_24" fill-rule="evenodd" clip-rule="evenodd" d="M205.859 121.061C207.089 119.671 206.719 106.741 206.859 94.4806C207.039 82.8206 207.859 71.7806 207.069 71.0306C206.069 70.0306 200.709 69.9806 199.569 71.2606C198.429 72.5406 197.729 119.261 198.309 120.061C199.599 121.761 204.689 122.361 205.859 121.061Z" fill="#347AC1"/>
<path id="Vector_25" fill-rule="evenodd" clip-rule="evenodd" d="M193.34 120.631C194.58 118.631 194.26 100.411 194.5 83.1007C194.72 66.6407 195.5 51.0507 194.8 49.9907C193.8 48.5907 188.44 48.5407 187.3 50.3507C186.06 52.3507 185.3 118.131 185.85 119.251C187.09 121.641 192.17 122.481 193.34 120.631Z" fill="#FFC857"/>
<path id="Vector_26" fill-rule="evenodd" clip-rule="evenodd" d="M178.364 121.041C179.594 120.111 179.194 111.451 179.364 103.231C179.504 95.4211 180.244 88.0311 179.504 87.5211C178.504 86.8511 173.134 86.8011 171.994 87.6611C170.854 88.5211 170.304 119.811 170.894 120.351C172.114 121.491 177.204 121.911 178.364 121.041Z" fill="#347AC1"/>
<path id="Vector_27" fill-rule="evenodd" clip-rule="evenodd" d="M164.296 120.501C165.536 118.791 165.196 102.831 165.416 87.6915C165.616 73.2915 166.416 59.6915 165.676 58.6915C164.676 57.4615 159.316 57.4215 158.176 59.0015C157.036 60.5815 156.176 118.271 156.806 119.251C158.046 121.381 163.126 122.131 164.296 120.501Z" fill="#FFC857"/>
<path id="Vector_28" fill-rule="evenodd" clip-rule="evenodd" d="M149.342 120.521C150.572 119.081 150.212 105.711 150.402 93.031C150.582 80.971 151.402 69.551 150.622 68.771C149.622 67.771 144.262 67.701 143.122 69.021C141.982 70.341 141.262 118.671 141.852 119.491C143.092 121.241 148.172 121.871 149.342 120.521Z" fill="#347AC1"/>
<path id="Vector_29" fill-rule="evenodd" clip-rule="evenodd" d="M135.369 120.801C136.599 120.161 136.169 114.121 136.299 108.401C136.409 102.951 137.129 97.8006 136.389 97.4006C135.389 96.9306 130.019 96.8806 128.889 97.4806C127.759 98.0806 127.289 119.881 127.889 120.261C129.119 121.131 134.209 121.401 135.369 120.801Z" fill="white"/>
<path id="Vector_30" fill-rule="evenodd" clip-rule="evenodd" d="M120.371 120.421C121.601 119.301 121.211 108.881 121.371 99.0011C121.521 89.6011 122.281 80.7111 121.541 80.1011C120.541 79.2911 115.171 79.2411 114.031 80.2711C112.891 81.3011 112.281 118.961 112.871 119.611C114.121 120.971 119.211 121.471 120.371 120.421Z" fill="#FFC857"/>
<path id="Vector_31" fill-rule="evenodd" clip-rule="evenodd" d="M108.752 119.871C109.992 117.961 109.672 100.231 109.902 83.4109C110.122 67.4109 110.902 52.2809 110.192 51.2509C109.192 49.8909 103.832 49.8409 102.692 51.6009C101.552 53.3609 100.692 117.441 101.262 118.531C102.492 120.851 107.582 121.671 108.752 119.871Z" fill="#347AC1"/>
<path id="Vector_32" fill-rule="evenodd" clip-rule="evenodd" d="M200.217 118.521C189.587 118.011 100.407 118.351 89.2172 118.351C85.2872 118.351 80.5872 117.781 80.4872 120.651C80.4172 123.031 82.7272 123.081 85.3372 123.081L206.057 123.001C208.787 123.001 211.177 123.001 211.277 121.061C211.387 118.901 209.217 118.871 206.907 118.761C204.597 118.651 202.147 118.611 200.217 118.521Z" fill="#347AC1"/>
<path id="Vector_33" d="M209.952 50.5505L210.952 54.1305C211.014 54.318 211.031 54.5176 210.999 54.7125C210.968 54.9075 210.89 55.092 210.772 55.2505C210.63 55.4228 210.454 55.5635 210.254 55.6633C210.054 55.7632 209.836 55.8202 209.612 55.8305C209.322 55.8508 209.033 55.7704 208.794 55.6029C208.556 55.4354 208.382 55.1909 208.302 54.9105L206.732 49.7006L203.992 48.8305C203.772 49.5005 203.542 50.1705 203.322 50.8305L203.022 51.7405C202.941 52.0244 202.771 52.2746 202.537 52.4546C202.303 52.6346 202.018 52.7348 201.722 52.7405C201.495 52.7529 201.268 52.7133 201.059 52.625C200.849 52.5366 200.662 52.4017 200.512 52.2305C200.393 52.0766 200.315 51.8949 200.285 51.7025C200.256 51.5101 200.275 51.3133 200.342 51.1305L201.542 47.5205C201.437 47.2951 201.419 47.0384 201.492 46.8005C201.573 46.4948 201.761 46.2284 202.022 46.0505L204.022 40.0505C204.1 39.7667 204.268 39.5158 204.501 39.3355C204.733 39.1552 205.018 39.0552 205.312 39.0505C205.534 39.0354 205.756 39.0707 205.963 39.1538C206.169 39.237 206.353 39.3658 206.502 39.5305C206.601 39.6468 206.675 39.7826 206.718 39.929C206.761 40.0754 206.773 40.2293 206.752 40.3805C206.825 40.4924 206.882 40.6135 206.922 40.7405L209.002 47.6505L210.002 47.9605C210.342 48.0416 210.637 48.2522 210.824 48.5473C211.01 48.8424 211.074 49.1988 211.002 49.5405C210.935 49.788 210.802 50.0126 210.617 50.1905C210.432 50.3683 210.202 50.4927 209.952 50.5505ZM205.882 46.6305L205.372 44.9205L204.902 46.3205L205.882 46.6305Z" fill="#7C75D1"/>
<path id="Vector_34" d="M190.33 56.0614C190.35 55.8707 190.412 55.6867 190.511 55.5225C190.61 55.3583 190.744 55.2178 190.903 55.1109C191.063 55.0041 191.243 54.9336 191.433 54.9043C191.623 54.875 191.816 54.8877 192 54.9414C198.864 56.755 205.556 59.1641 212 62.1414C212.264 62.2464 212.481 62.4422 212.613 62.6934C212.745 62.9446 212.783 63.2347 212.72 63.5114C212.652 63.8183 212.485 64.0943 212.245 64.2968C212.005 64.4992 211.704 64.6169 211.39 64.6314C211.16 64.6416 210.93 64.5971 210.72 64.5014C204.481 61.6052 197.999 59.2629 191.35 57.5014C191.03 57.4337 190.748 57.2479 190.558 56.981C190.369 56.7141 190.288 56.3858 190.33 56.0614Z" fill="#7C75D1"/>
</g>
<path id="Vector_35" d="M126.053 10.901C126.883 10.431 127.053 9.45095 126.463 8.31095C125.873 7.17095 123.613 3.06096 122.573 1.64096C120.983 -0.519044 118.573 1.44095 119.823 3.41095C122.233 7.25095 123.873 12.131 126.053 10.901Z" fill="#E7DFEE"/>
<path id="Vector_36" d="M110.342 11.981C116.852 15.111 117.202 15.341 117.872 15.421C119.642 15.611 120.272 13.291 119.122 12.691C116.622 11.2509 114.022 9.99098 111.342 8.92105C110.939 8.79891 110.505 8.83945 110.131 9.03397C109.758 9.22849 109.476 9.56152 109.345 9.96169C109.214 10.3619 109.245 10.7973 109.432 11.1748C109.618 11.5523 109.945 11.8417 110.342 11.981Z" fill="#E7DFEE"/>
<path id="Vector_37" d="M108.286 22.5113C112.776 23.5113 114.816 24.3313 115.286 22.3813C115.338 22.1562 115.342 21.9227 115.298 21.6959C115.253 21.4692 115.162 21.2544 115.029 21.0655C114.895 20.8767 114.724 20.7181 114.525 20.6002C114.327 20.4823 114.105 20.4077 113.876 20.3813C112.156 19.9513 110.416 19.6113 108.676 19.2913C108.454 19.2419 108.225 19.2393 108.003 19.2836C107.78 19.3278 107.57 19.4181 107.384 19.5484C107.198 19.6788 107.042 19.8464 106.925 20.0406C106.808 20.2348 106.733 20.4513 106.704 20.6763C106.675 20.9013 106.694 21.1297 106.759 21.3471C106.823 21.5645 106.933 21.7659 107.08 21.9386C107.227 22.1113 107.408 22.2515 107.612 22.3501C107.816 22.4487 108.039 22.5036 108.266 22.5113" fill="#E7DFEE"/>
<g id="Group 1003">
<path id="Vector_38" fill-rule="evenodd" clip-rule="evenodd" d="M72.2778 16.1313C72.7778 16.1313 72.2778 16.0513 72.2778 15.9113C67.2778 11.7313 64.9878 8.91133 55.7078 8.73133C50.4578 8.65133 45.8578 11.5913 43.2678 14.1113C35.9278 21.2113 39.1878 31.1113 38.8578 29.2513C39.4878 32.9013 40.2878 36.7213 38.8578 39.7913C37.8243 41.6126 36.6857 43.3723 35.4478 45.0613C34.2638 46.8898 33.4359 48.9255 33.0078 51.0613C32.0578 56.2513 34.4278 60.4413 36.7878 63.5413C43.7178 72.6513 35.1678 78.8813 37.7878 89.6713C38.0367 90.8329 38.4474 91.9538 39.0078 93.0013C40.4919 95.0448 42.6538 96.4944 45.1078 97.0913C48.2444 97.7423 51.4812 97.7423 54.6178 97.0913C57.0558 96.5355 59.3581 95.4982 61.3896 94.0402C63.4211 92.5823 65.1408 90.7331 66.4478 88.6013C68.8849 83.6486 69.3218 77.9476 67.6678 72.6813C66.7597 70.3904 65.7007 68.1622 64.4978 66.0113C62.9178 62.8313 60.7378 58.8313 62.3078 54.6113C63.4978 51.4113 66.3078 49.1913 68.4078 46.6113C69.1623 45.7952 69.8169 44.8922 70.3578 43.9213C70.9794 42.3813 71.3182 40.7417 71.3578 39.0813C71.4838 36.6093 71.0247 34.1425 70.0178 31.8813C68.7878 28.8813 66.6178 26.4813 66.8478 22.5213C66.9033 21.001 67.4692 19.5437 68.4544 18.3844C69.4395 17.2251 70.7863 16.4314 72.2778 16.1313Z" fill="#FFC857"/>
<path id="Vector_39" d="M78.1291 172.191C78.0591 170.941 77.4391 169.891 77.3791 168.631C79.0091 166.501 80.8791 163.181 81.2891 160.521L69.6591 155.611C67.7202 157.41 65.4187 158.774 62.9091 159.611C61.9091 159.891 60.3291 159.731 59.9091 160.781C59.4891 161.831 60.9091 163.161 62.4891 163.691C63.5481 163.907 64.6401 163.907 65.6991 163.691C64.8459 165.266 64.0749 166.885 63.3891 168.541C62.5191 170.621 60.0591 174.541 61.9791 175.351C63.8991 176.161 66.1791 170.831 67.4791 169.881C67.3691 171.311 67.2391 172.811 67.2691 174.501C67.2691 175.871 67.1691 178.151 68.5191 178.601C70.6491 179.331 71.0491 174.541 71.2991 173.071C72.0491 174.641 74.7991 179.801 76.4791 179.181C77.7191 178.731 77.0191 176.711 77.3391 176.091C78.1491 176.861 79.8691 178.781 80.8191 177.741C82.1991 176.241 78.8191 173.001 78.1191 172.191" fill="#DB9171"/>
<path id="Vector_40" d="M78.1292 172.191C78.1449 170.963 77.8888 169.748 77.3792 168.631C78.1422 167.81 78.7883 166.888 79.2992 165.891C79.7968 164.921 80.2278 163.919 80.5892 162.891C79.8016 164.689 78.4825 166.204 76.8092 167.231C76.7344 167.361 76.674 167.498 76.6292 167.641C76.5693 168.448 76.647 169.26 76.8592 170.041C76.8777 170.834 77.0159 171.619 77.2692 172.371C77.6992 173.081 79.3992 173.821 81.1492 176.971C81.2892 174.941 79.3092 173.491 78.1292 172.191Z" fill="#C4765B"/>
<path id="Vector_41" d="M67.6094 160.331C65.6794 162.471 63.2894 163.581 59.9294 161.671C60.2094 162.671 61.5394 163.401 62.6294 163.751C63.6427 164.009 64.7068 163.988 65.7094 163.691C66.1594 162.461 67.4494 161.421 67.6094 160.331Z" fill="#C4765B"/>
<path id="Vector_42" d="M68.8125 164.861C67.3225 166.631 66.2025 169.731 64.9525 172.021C64.3214 173.227 63.5638 174.364 62.6925 175.411C63.7425 175.511 66.7425 171.921 67.5525 169.751C67.7174 168.065 68.1424 166.416 68.8125 164.861Z" fill="#C4765B"/>
<path id="Vector_43" d="M71.3125 173.071C71.3125 173.071 70.6225 170.991 70.3925 169.881C70.1833 168.953 70.1226 167.998 70.2125 167.051C68.4925 171.351 71.6025 174.111 69.3325 178.611C70.4025 178.271 70.6525 176.741 70.8825 175.901C71.145 174.98 71.2895 174.029 71.3125 173.071Z" fill="#C4765B"/>
<path id="Vector_44" d="M74.0582 168.881C72.0582 173.161 77.3482 176.091 76.4882 179.191C77.7882 178.641 77.5882 176.961 77.4882 176.191C76.3923 175.329 75.5131 174.223 74.921 172.961C74.3289 171.698 74.0403 170.315 74.0782 168.921" fill="#C4765B"/>
<g id="Group 1002">
<path id="Vector_45" fill-rule="evenodd" clip-rule="evenodd" d="M14.9497 51.8905C21.0897 55.1205 13.8297 63.2106 14.8297 64.7606C15.5997 65.9606 16.6397 66.7606 17.2497 67.8806C18.3597 69.8806 17.8897 70.7806 18.2497 72.9706L31.6797 70.8905C31.628 68.9206 31.4207 66.9578 31.0597 65.0206C30.7322 63.0192 30.261 61.0441 29.6497 59.1105C27.9497 54.3405 23.8997 51.3305 17.6497 48.7505C15.4797 47.8605 10.2297 46.0205 9.77966 47.7505C9.41966 49.1405 13.7797 51.0605 14.9897 51.8905" fill="#C4765B"/>
<path id="Vector_46" fill-rule="evenodd" clip-rule="evenodd" d="M14.6093 30.9412C15.0393 29.4312 15.6093 27.9412 16.6993 27.6212C17.7893 27.3012 19.2893 27.9312 20.8093 28.4512C22.3293 28.9712 23.7193 29.5012 25.1993 30.0112C27.3393 30.7412 29.6193 31.4512 31.7393 32.2712C33.0793 32.8012 34.0093 33.2712 33.8493 34.5612C33.7693 35.2212 24.1493 64.1112 23.7893 65.0212C23.5525 65.8886 23.1021 66.6828 22.4793 67.3312C21.5893 68.0012 19.9093 67.4712 18.3093 66.9312C15.0993 65.8312 12.1993 64.7012 8.9493 63.7312C7.2193 63.2112 4.54931 62.7812 4.45931 61.3012C4.47725 60.8905 4.57223 60.4868 4.73931 60.1112C5.14931 59.0112 14.3293 31.9312 14.6093 30.9412Z" fill="#347AC1"/>
<path id="Vector_47" fill-rule="evenodd" clip-rule="evenodd" d="M15.4672 34.0314C15.8172 32.8014 16.2673 31.5514 17.1673 31.3314C18.3255 31.273 19.48 31.5032 20.5272 32.0014C21.8172 32.4414 22.8973 32.8614 24.1073 33.2714C25.8573 33.8614 27.7072 34.4414 29.4372 35.1214C30.5372 35.5414 31.2873 35.9714 31.1573 36.9814C31.0873 37.5214 23.2473 61.0714 22.9573 61.8114C22.758 62.5184 22.3909 63.1668 21.8873 63.7014C21.1673 64.2414 19.7973 63.8114 18.4873 63.3714C15.8673 62.4714 13.4873 61.5614 10.8573 60.7614C9.44726 60.3414 7.26726 59.9914 7.19726 58.7614C7.20674 58.4161 7.28494 58.0762 7.42727 57.7614C7.75727 56.9114 15.2372 34.8414 15.4672 34.0314Z" fill="#3C91E6"/>
<path id="Vector_48" fill-rule="evenodd" clip-rule="evenodd" d="M31.9463 37.1313C32.0863 36.4313 32.2362 35.7313 32.4062 35.0213L31.5163 34.8313C30.4709 34.57 29.445 34.2359 28.4463 33.8313C28.4904 35.3054 29.0823 36.7101 30.1063 37.7713C30.4977 38.2446 30.9764 38.6384 31.5163 38.9313C31.6663 38.2813 31.8063 37.7013 31.9463 37.1313Z" fill="#347AC1"/>
<path id="Vector_49" fill-rule="evenodd" clip-rule="evenodd" d="M29.7014 41.5309C28.6314 41.8309 29.1514 39.4609 29.7914 39.3009C30.6514 39.1309 30.6414 41.2709 29.7014 41.5309Z" fill="white"/>
<path id="Vector_50" fill-rule="evenodd" clip-rule="evenodd" d="M27.8922 47.4507C26.0822 48.1407 26.9722 42.6307 28.0522 42.2607C29.4922 41.7507 29.4822 46.8407 27.8922 47.4507Z" fill="white"/>
<path id="Vector_51" fill-rule="evenodd" clip-rule="evenodd" d="M26.2121 48.8508C25.5521 57.7908 8.81208 52.8508 12.9121 44.3108C16.0321 37.8608 26.6721 42.6908 26.2121 48.8508Z" fill="#347AC1"/>
<path id="Vector_52" fill-rule="evenodd" clip-rule="evenodd" d="M0.382658 35.1307C0.102657 33.5907 -0.0773277 31.9707 0.802671 31.2407C1.68267 30.5107 3.27267 30.3707 4.86267 30.1707C6.45267 29.9707 7.94267 29.8507 9.49267 29.6507C11.7427 29.3707 14.1027 29.0107 16.3627 28.8207C17.8027 28.7107 18.8627 28.8207 19.2627 29.9607C19.4727 30.5907 23.4827 60.7707 23.5627 61.7407C23.7304 62.6275 23.672 63.5424 23.3927 64.4007C22.8927 65.4007 21.1527 65.6507 19.4727 65.8607C16.1027 66.2807 13.0127 66.5407 9.65268 67.0907C7.88268 67.3807 5.28265 68.1607 4.56265 66.8707C4.38818 66.4945 4.29613 66.0853 4.29266 65.6707C4.17266 64.5307 0.562658 36.1307 0.382658 35.1307Z" fill="#347AC1"/>
<path id="Vector_53" fill-rule="evenodd" clip-rule="evenodd" d="M2.50602 37.5512C2.27602 36.2912 2.13601 34.9712 2.84601 34.3712C3.8647 33.824 4.99978 33.5291 6.15601 33.5112C7.51601 33.3412 8.66601 33.2412 9.93601 33.0812C11.766 32.8512 13.686 32.5612 15.536 32.4112C16.706 32.3112 17.536 32.4112 17.896 33.3312C18.076 33.8412 21.336 58.4512 21.406 59.2412C21.546 59.9646 21.4978 60.7118 21.266 61.4112C20.856 62.2112 19.436 62.4112 18.076 62.6012C15.326 62.9412 12.806 63.1612 10.076 63.6012C8.62603 63.8412 6.51602 64.4812 5.91602 63.4312C5.78881 63.1121 5.7145 62.7743 5.69602 62.4312C5.59602 61.5012 2.65602 38.3812 2.50602 37.5512Z" fill="#3C91E6"/>
<path id="Vector_54" fill-rule="evenodd" clip-rule="evenodd" d="M22.6219 62.5911L22.0319 57.8411C19.7019 59.0711 17.9119 61.1011 18.0319 63.2711C19.5819 63.0711 21.1219 62.8611 22.6719 62.6311C22.6606 62.6298 22.6499 62.6254 22.6411 62.6183C22.6322 62.6112 22.6256 62.6018 22.6219 62.5911Z" fill="#347AC1"/>
<path id="Vector_55" fill-rule="evenodd" clip-rule="evenodd" d="M8.49252 64.3112L9.8125 64.2112C9.57714 63.5435 9.25793 62.9084 8.86252 62.3212C8.34079 61.5604 7.63085 60.9477 6.80191 60.5429C5.97297 60.138 5.0533 59.9549 4.13251 60.0112C4.34251 61.6012 4.5625 63.2112 4.8125 64.8012C6.02585 64.55 7.25571 64.3862 8.49252 64.3112Z" fill="#347AC1"/>
<path id="Vector_56" fill-rule="evenodd" clip-rule="evenodd" d="M3.17958 33.5811C2.65958 33.6411 2.17958 33.7211 1.64958 33.8111C1.82076 34.4217 1.92798 35.0484 1.96956 35.6811C1.96956 36.3611 1.96956 37.0411 1.96956 37.6811C4.03956 36.7911 5.60957 35.3111 5.56957 33.1811C5.16516 33.043 4.73361 33.0037 4.3109 33.0663C3.88819 33.1289 3.48658 33.2917 3.13957 33.5411L3.17958 33.5811Z" fill="#347AC1"/>
<path id="Vector_57" fill-rule="evenodd" clip-rule="evenodd" d="M18.6491 33.1305C18.4791 32.4405 18.2991 31.7405 18.1491 31.0305C17.8491 31.1105 17.5591 31.1805 17.2591 31.2405C16.2016 31.4618 15.1282 31.5989 14.0491 31.6505C14.7296 32.9642 15.8789 33.9743 17.2691 34.4805C17.8284 34.7276 18.4283 34.8699 19.0391 34.9005C18.9324 34.2938 18.8024 33.7038 18.6491 33.1305Z" fill="#347AC1"/>
<path id="Vector_58" fill-rule="evenodd" clip-rule="evenodd" d="M11.5787 62.6508C12.4287 62.4708 13.7887 62.3808 13.9487 62.9908C14.1487 63.7808 13.2287 63.8108 12.5387 63.8908C11.8487 63.9708 10.9887 64.0708 10.8687 63.4308C10.7487 62.7908 11.2487 62.7208 11.5787 62.6508Z" fill="white"/>
<path id="Vector_59" fill-rule="evenodd" clip-rule="evenodd" d="M15.5904 61.8207C16.2104 61.6507 16.8704 61.7607 16.9404 62.3107C17.0604 63.2507 14.9404 63.5307 14.8704 62.6007C14.8404 62.2407 15.0804 61.9707 15.5904 61.8207Z" fill="white"/>
<path id="Vector_60" fill-rule="evenodd" clip-rule="evenodd" d="M3.3494 38.6105C3.8694 39.0305 4.2294 41.6905 3.3494 41.7605C2.5994 41.8105 2.34939 39.4505 2.77939 38.8105C2.86939 38.6505 2.9494 38.5805 3.3494 38.6105Z" fill="white"/>
<path id="Vector_61" fill-rule="evenodd" clip-rule="evenodd" d="M12.2732 32.9809C12.9432 33.8509 10.5432 34.2609 10.1632 33.7309C9.63323 33.0209 11.6732 32.2009 12.2732 32.9809Z" fill="white"/>
<path id="Vector_62" fill-rule="evenodd" clip-rule="evenodd" d="M3.5882 42.9008C4.4182 42.7408 4.58818 44.7808 3.81818 44.8208C3.48818 44.8208 3.38819 44.6308 3.25819 44.2308C3.05819 43.6508 3.0082 43.0108 3.5882 42.9008Z" fill="white"/>
<path id="Vector_63" fill-rule="evenodd" clip-rule="evenodd" d="M18.6557 46.1309C21.9657 54.4509 4.73576 57.3109 4.70576 47.8709C4.68576 40.7509 16.3657 40.4309 18.6557 46.1309Z" fill="#347AC1"/>
<path id="Vector_64" fill-rule="evenodd" clip-rule="evenodd" d="M20.7184 51.4009C19.4284 52.1509 21.0984 56.0109 22.0784 58.1109C22.7084 59.4709 23.5084 60.6909 23.9884 61.9709C21.4084 64.5409 19.8884 69.5409 18.2184 72.9709L31.6484 70.8909C31.6484 66.3209 29.5484 60.6209 26.5984 56.1909C25.2084 54.1109 22.1584 50.5609 20.7184 51.4009Z" fill="#DB9171"/>
<path id="Vector_65" d="M11.2897 142.271C15.0297 146.991 22.9197 145.021 28.0097 141.561C30.5002 139.761 32.8109 137.725 34.9097 135.481C36.5297 133.891 38.3997 132.041 40.1797 130.131C39.9397 130.501 39.7497 130.801 39.6297 130.971C37.2208 134.309 34.6198 137.505 31.8397 140.541C30.0764 142.735 28.0964 144.745 25.9297 146.541C21.5497 149.891 14.6997 151.731 11.3497 146.951C9.09967 143.711 8.34969 138.491 8.20969 133.211C8.59969 136.751 9.49967 140.011 11.2897 142.271Z" fill="#347AC1"/>
<path id="Vector_66" fill-rule="evenodd" clip-rule="evenodd" d="M17.0158 146.371C17.8158 145.081 15.5858 144.491 15.1258 145.271C14.5058 146.331 16.3258 147.521 17.0158 146.371Z" fill="white"/>
<path id="Vector_67" fill-rule="evenodd" clip-rule="evenodd" d="M15.7624 142.551C16.2624 141.191 12.8624 140.321 12.5724 141.621C12.4524 142.161 12.7824 142.391 13.4124 142.731C14.3424 143.221 15.4124 143.491 15.7624 142.551Z" fill="white"/>
<path id="Vector_68" fill-rule="evenodd" clip-rule="evenodd" d="M18.3773 80.2608C18.1173 79.8308 18.4273 79.4208 18.7073 79.0308C18.9873 78.6408 19.2373 78.3708 19.6173 78.3508C20.1573 78.3508 20.1773 79.0808 19.9773 79.4908C19.8511 79.702 19.7037 79.8997 19.5373 80.0808C19.2473 80.4008 18.6673 80.7408 18.3773 80.2608Z" fill="white"/>
<path id="Vector_69" fill-rule="evenodd" clip-rule="evenodd" d="M19.0726 76.2311C18.7526 75.6511 19.1626 75.1611 19.5526 74.7811C20.1785 74.2289 20.8472 73.7273 21.5526 73.2811C22.3726 72.7211 23.9226 72.2111 24.2526 73.2811C24.5826 74.3511 22.5926 75.4711 21.5826 76.0511C20.8026 76.4711 19.5326 77.0711 19.0726 76.2311Z" fill="white"/>
<path id="Vector_70" fill-rule="evenodd" clip-rule="evenodd" d="M41.3356 160.131C61.0756 163.561 83.1856 161.561 103.016 157.241C101.306 151.071 100.896 147.461 100.076 140.241C97.7256 119.241 104.296 88.9008 92.9456 75.4808C88.8956 70.6908 80.6056 67.8208 71.9456 67.2008C69.0656 66.9908 65.6556 67.6408 62.4956 68.2008C59.6428 68.6224 56.8152 69.2 54.0256 69.9308C47.2356 71.8808 44.3056 75.5208 43.0256 81.1208C40.3556 92.7108 35.7556 95.2108 35.7556 101.611C35.7556 111.231 42.6756 117.041 43.9156 124.691C46.1156 138.221 42.1056 153.451 41.3356 160.131Z" fill="#347AC1"/>
<path id="Vector_71" d="M55.8594 76.2415C56.1294 76.4115 69.7894 77.1315 69.8594 77.1315C64.1394 91.9115 58.2994 119.131 62.3194 162.571C59.726 162.405 57.1627 162.188 54.6294 161.921C47.0994 117.251 50.9494 90.8715 55.8594 76.2415Z" fill="white"/>
<path id="Vector_72" fill-rule="evenodd" clip-rule="evenodd" d="M111.45 132.481C99.7904 138.311 87.4504 143.481 76.3704 149.841C78.3704 154.201 80.3703 158.551 82.2203 162.991C93.3403 161.131 103.04 159.131 111.95 154.771C116.14 152.771 119.89 150.591 124.19 148.011C129.88 144.591 136.36 142.501 135.51 132.851C134.91 126.001 130.66 117.971 127.84 112.571C124.667 106.594 121.064 100.856 117.06 95.4009C113.31 89.9374 109.097 84.8052 104.47 80.0609C99.7203 75.3209 94.2904 70.9209 87.1104 69.6509C80.6004 68.4909 76.0204 72.3809 76.7004 79.6509C77.2004 85.0209 80.6104 90.6509 83.2704 95.0009C91.3304 108.131 103.06 121.011 111.45 132.481Z" fill="#3C91E6"/>
<path id="Vector_73" fill-rule="evenodd" clip-rule="evenodd" d="M118.728 144.251C119.198 145.421 121.138 144.251 122.528 143.471C123.918 142.691 125.248 141.611 124.918 140.901C124.398 139.761 122.538 141.001 121.428 141.621C120.508 142.131 118.238 143.021 118.728 144.251Z" fill="white"/>
<path id="Vector_74" fill-rule="evenodd" clip-rule="evenodd" d="M127.318 142.92C127.908 144.34 131.318 141.781 130.678 140.761C130.038 139.741 126.848 141.84 127.318 142.92Z" fill="white"/>
<path id="Vector_75" fill-rule="evenodd" clip-rule="evenodd" d="M127.865 138.941C128.865 139.361 130.865 138.271 131.925 137.081C132.305 136.651 132.625 136.081 132.215 135.631C131.585 134.911 130.335 136.011 129.345 136.631C128.355 137.251 126.955 137.781 127.865 138.941Z" fill="white"/>
<path id="Vector_76" d="M111.451 132.481L108.621 128.721C108.621 128.721 116.831 125.921 117.761 127.831C118.591 129.531 111.451 132.481 111.451 132.481Z" fill="#347AC1"/>
<path id="Vector_77" d="M71.55 49.211C73.6352 46.5231 74.9736 43.3322 75.43 39.961C74.36 33.701 74.51 22.721 69.72 19.961C62.66 15.881 52.02 18.101 47.25 22.961C43.15 27.131 39.46 36.381 39.25 45.591C39.04 54.801 42.7 62.591 53.77 59.191C54.86 61.751 57.44 72.681 57.43 72.681C58.8 79.621 67.43 84.231 75.75 66.851C75.71 67.291 71.63 51.561 71.55 49.211Z" fill="#DB9171"/>
<path id="Vector_78" fill-rule="evenodd" clip-rule="evenodd" d="M53.6761 59.2307C57.0961 58.3807 61.0961 54.2307 61.0961 54.2307C61.1956 56.3901 60.7339 58.5384 59.756 60.4662C58.7781 62.394 57.3173 64.0355 55.5161 65.2307L53.6761 59.2307Z" fill="#C4765B"/>
<path id="Vector_79" fill-rule="evenodd" clip-rule="evenodd" d="M57.3828 39.5914C54.3828 35.8314 51.0728 38.3214 51.0728 38.3214C51.7443 39.312 52.779 39.9982 53.9528 40.2314C55.1227 40.4068 56.3175 40.1812 57.3428 39.5914" fill="white"/>
<path id="Vector_80" fill-rule="evenodd" clip-rule="evenodd" d="M51.0716 38.3211C51.5909 37.9589 52.182 37.7125 52.8048 37.5987C53.4277 37.4848 54.0677 37.5061 54.6816 37.661C54.7685 37.8756 54.8257 38.101 54.8516 38.331C54.818 38.7386 54.6524 39.1242 54.3799 39.4292C54.1074 39.7341 53.7428 39.9419 53.3416 40.021C52.4148 39.7267 51.6148 39.1276 51.0716 38.3211Z" fill="#347AC1"/>
<path id="Vector_81" fill-rule="evenodd" clip-rule="evenodd" d="M45.9531 38.0312C43.1631 34.5512 40.1031 36.8512 40.1031 36.8512C40.7361 37.7771 41.7108 38.4138 42.8131 38.6212C43.8965 38.7896 45.0048 38.5814 45.9531 38.0312Z" fill="white"/>
<path id="Vector_82" fill-rule="evenodd" clip-rule="evenodd" d="M40.1094 36.8507C40.5926 36.5174 41.1412 36.2905 41.7188 36.1854C42.2963 36.0802 42.8897 36.0991 43.4594 36.2407C43.5398 36.4423 43.5903 36.6546 43.6094 36.8707C43.5773 37.2476 43.4232 37.6037 43.1706 37.8852C42.918 38.1667 42.5806 38.3582 42.2094 38.4307C41.3514 38.1556 40.6114 37.5989 40.1094 36.8507Z" fill="#347AC1"/>
<path id="Vector_83" d="M52.8421 43.3514C52.5212 43.7907 52.3377 44.3153 52.3149 44.8589C52.2922 45.4024 52.4311 45.9406 52.7143 46.4051C52.9974 46.8697 53.412 47.2398 53.9056 47.4687C54.3991 47.6976 54.9495 47.7749 55.487 47.6909C56.0246 47.6069 56.5251 47.3654 56.9253 46.9969C57.3255 46.6283 57.6074 46.1494 57.7354 45.6206C57.8633 45.0918 57.8315 44.5369 57.644 44.0262C57.4566 43.5155 57.1218 43.0718 56.6821 42.7514C56.0932 42.3222 55.358 42.1444 54.638 42.2569C53.918 42.3694 53.2721 42.763 52.8421 43.3514Z" fill="#C4765B"/>
<path id="Vector_84" d="M41.7494 44.1911C41.4737 44.5665 41.1068 44.8655 40.6833 45.0598C40.2599 45.254 39.7939 45.337 39.3294 45.3011V44.9611C39.3755 43.246 39.5325 41.5358 39.7994 39.8411C40.2819 39.8867 40.7436 40.0595 41.1375 40.3418C41.5313 40.6241 41.8433 41.0059 42.0415 41.4481C42.2398 41.8903 42.3172 42.3771 42.2658 42.859C42.2145 43.3409 42.0363 43.8005 41.7494 44.1911Z" fill="#C4765B"/>
<path id="Vector_85" fill-rule="evenodd" clip-rule="evenodd" d="M58.7969 37.0109L58.0069 37.7309C57.1182 36.841 55.996 36.2204 54.7699 35.9409C53.5437 35.6613 52.2635 35.7341 51.0769 36.1509L50.6669 35.1509C52.0567 34.641 53.5645 34.5454 55.0076 34.8755C56.4507 35.2057 57.767 35.9474 58.7969 37.0109Z" fill="#FFC857"/>
<path id="Vector_86" fill-rule="evenodd" clip-rule="evenodd" d="M47.3203 35.611L46.5203 36.331C45.7002 35.5116 44.6651 34.9407 43.5345 34.6842C42.4039 34.4276 41.2238 34.4959 40.1303 34.881L39.7203 33.881C41.0194 33.4083 42.4272 33.32 43.7751 33.6268C45.123 33.9337 46.3539 34.6226 47.3203 35.611Z" fill="#FFC857"/>
<path id="Vector_87" fill-rule="evenodd" clip-rule="evenodd" d="M47.434 38.5109C46.814 38.3009 44.304 43.911 44.374 44.511C44.464 45.311 47.124 46.0909 47.374 45.8009C48.084 44.9909 48.374 38.8009 47.444 38.4709" fill="#C4765B"/>
<path id="Vector_88" d="M42.4837 49.9511C45.3737 51.9511 48.8438 50.5911 50.8438 48.4711L49.9437 47.6311C48.3037 49.3711 45.4837 50.5311 43.1837 48.9411L42.4837 49.9511Z" fill="#C4765B"/>
<path id="Vector_89" fill-rule="evenodd" clip-rule="evenodd" d="M72.5136 13.9513C70.9836 13.8013 66.9636 14.2613 65.5636 15.0513C62.5636 16.7413 62.1636 20.8013 63.3636 24.5613C63.7836 25.8713 64.2936 27.1813 64.8336 28.4713C65.8336 30.8713 67.2736 33.3113 67.3936 36.4713C67.5236 40.0813 66.2436 43.0513 65.3136 45.4713C64.0036 48.9513 61.9836 52.3413 62.7536 57.3013C63.8736 64.4613 69.5836 68.3013 72.1436 74.0113C73.0611 76.1665 73.4783 78.5017 73.3636 80.8413C73.1936 83.6313 72.2736 86.2013 71.6636 88.7713C70.8783 91.5018 70.6705 94.366 71.0536 97.1813C71.3844 99.5328 72.2344 101.781 73.542 103.763C74.8496 105.746 76.582 107.412 78.6136 108.641C85.6136 112.511 93.7036 107.351 95.9236 101.331C96.7284 98.7972 97.2221 96.1746 97.3936 93.5213C97.6006 91.0259 98.2614 88.5893 99.3436 86.3313C101.344 82.1713 104.744 79.4913 106.174 74.8613C107.364 71.0213 105.994 66.4413 104.464 63.1513C103.31 60.7017 101.789 58.4425 99.9536 56.4513C96.2336 52.2513 91.2036 49.0013 88.7336 45.1013C88.3546 44.5628 88.0202 43.9942 87.7336 43.4013C85.7336 38.7113 86.8236 32.0113 85.5436 26.8113C84.5398 22.2763 81.8291 18.3016 77.9736 15.7113C76.3121 14.7149 74.4442 14.1128 72.5136 13.9513Z" fill="#FFC857"/>
<path id="Vector_90" fill-rule="evenodd" clip-rule="evenodd" d="M61.9534 47.6006C60.3434 44.9306 61.6034 42.8706 62.4834 40.9006C63.9134 37.6706 66.3434 33.9006 64.7234 28.9706C63.2634 24.5506 60.1734 22.9706 57.7934 19.6506C59.7532 20.7543 61.5531 22.1202 63.1434 23.7106C65.0229 25.5769 66.3991 27.8888 67.1434 30.4306C68.4634 35.4306 65.8234 38.7106 64.0334 42.0906C63.0434 43.9306 62.1634 45.3606 61.9534 47.6006Z" fill="#FFC857"/>
<path id="Vector_91" fill-rule="evenodd" clip-rule="evenodd" d="M40.3984 31.1314C41.6116 31.799 43.008 32.0565 44.3795 31.8655C45.751 31.6745 47.0239 31.0451 48.0084 30.0714C49.5284 28.7314 51.2284 27.2414 52.9584 26.7014C56.4584 25.5914 60.0384 28.3814 63.3884 27.7614C66.3884 27.2214 67.7984 24.0014 69.6484 21.3614C64.3884 19.9414 61.4984 15.1714 56.3884 13.9814C46.3984 11.6514 46.0084 26.2714 40.3984 31.1314Z" fill="#FFC857"/>
<path id="Vector_92" fill-rule="evenodd" clip-rule="evenodd" d="M47.9506 69.9909C49.3606 65.1309 52.5405 60.9409 54.2205 60.9909C54.2205 60.9909 57.7005 71.7409 62.2205 79.3309C63.2405 81.1309 46.6006 74.5309 47.9506 69.9909Z" fill="white"/>
<path id="Vector_93" fill-rule="evenodd" clip-rule="evenodd" d="M72.8316 76.0614C67.8316 78.4714 62.3416 80.0614 61.6916 79.1414C61.2216 78.4414 68.2616 68.3414 68.6916 68.6314C70.9516 70.1314 73.1316 75.9214 72.8316 76.0614Z" fill="white"/>
<path id="Vector_94" fill-rule="evenodd" clip-rule="evenodd" d="M81.3026 27.2611C80.0626 27.0311 79.1426 25.8111 78.4226 24.9311C77.7026 24.0511 76.7126 23.0311 77.5926 22.1311C79.1726 22.3111 82.9526 25.8711 81.3026 27.2611Z" fill="white"/>
<path id="Vector_95" fill-rule="evenodd" clip-rule="evenodd" d="M76.1101 25.6111C75.4101 25.4311 74.6201 24.6111 75.1901 23.7911C76.0401 23.6011 77.1501 25.0111 76.1101 25.6111Z" fill="white"/>
<path id="Vector_96" fill-rule="evenodd" clip-rule="evenodd" d="M72.8975 17.9907C74.0475 17.4607 75.5775 19.3107 76.1875 20.1107C76.0775 20.2907 75.9775 20.4807 75.8775 20.6707C74.5475 20.8607 72.5475 19.1307 72.8975 17.9907Z" fill="white"/>
<path id="Vector_97" fill-rule="evenodd" clip-rule="evenodd" d="M65.2424 57.9707C63.7524 56.1007 67.2424 52.5907 68.1624 55.0407C68.5224 55.9807 66.8124 58.7307 65.2424 57.9707Z" fill="white"/>
<path id="Vector_98" fill-rule="evenodd" clip-rule="evenodd" d="M70.088 63.6811C68.728 64.6811 66.608 61.4611 67.288 60.3811C68.448 60.1911 70.458 62.3511 70.088 63.6811Z" fill="white"/>
<path id="Vector_99" fill-rule="evenodd" clip-rule="evenodd" d="M94.1182 85.1307C93.3882 86.1307 93.2182 88.2007 93.1682 90.2507C93.1682 91.1307 93.1682 92.5507 93.9182 92.6507C94.8582 92.7807 95.1282 91.1707 95.2182 90.6007C95.5325 88.8457 95.5088 87.0468 95.1482 85.3007C95.0049 85.1877 94.8352 85.1127 94.6551 85.083C94.475 85.0533 94.2902 85.0697 94.1182 85.1307Z" fill="white"/>
<path id="Vector_100" fill-rule="evenodd" clip-rule="evenodd" d="M91.448 92.4314C89.558 91.7914 88.868 96.0914 90.528 96.1714C91.238 96.1714 92.348 94.2514 92.168 93.1714C92.1211 92.9969 92.0302 92.8373 91.9042 92.7078C91.7782 92.5783 91.6212 92.4831 91.448 92.4314Z" fill="white"/>
<path id="Vector_101" fill-rule="evenodd" clip-rule="evenodd" d="M91.2454 100.921C90.6054 100.631 89.8554 101.321 89.4054 102.241C89.0454 102.981 88.6854 104.561 89.6254 104.691C90.0454 104.751 90.7254 104.271 91.1154 103.511C91.5054 102.751 92.0754 101.311 91.2454 100.921Z" fill="white"/>
</g>
</g>
</g>
</g>
</svg>
