<svg width="220" height="150" viewBox="0 0 220 150" fill="none" xmlns="http://www.w3.org/2000/svg">
<g id="Group 1007">
<path id="Vector" fill-rule="evenodd" clip-rule="evenodd" d="M56.7808 53.0518C57.6608 54.5418 58.6808 56.0518 59.9308 55.9918C61.1808 55.9318 62.6208 54.9418 64.0908 53.9918C65.5608 53.0418 66.8908 52.0417 68.3208 51.0917C70.4008 49.7017 72.6308 48.3018 74.6508 46.8318C75.9408 45.8918 76.7808 45.0718 76.2608 43.8318C75.9808 43.1618 57.5808 15.0917 56.9508 14.2217C56.4477 13.3653 55.7399 12.6472 54.8908 12.1317C53.7608 11.6717 52.1208 12.7018 50.5708 13.7418C47.4608 15.8118 44.6908 17.8218 41.5008 19.7418C39.8108 20.7418 37.0808 21.9917 37.4008 23.5917C37.5324 24.0302 37.7499 24.4382 38.0408 24.7917C38.7808 25.8217 56.2008 52.0718 56.7808 53.0518Z" fill="#347AC1"/>
<path id="Vector_2" fill-rule="evenodd" clip-rule="evenodd" d="M56.8288 49.5122C57.5488 50.7322 58.3788 51.9422 59.3988 51.9122C60.4188 51.8822 61.5888 51.0622 62.7888 50.2622C63.9888 49.4622 65.0688 48.6722 66.2388 47.8922C67.9288 46.7622 69.7488 45.6222 71.3988 44.4222C72.4488 43.6522 73.1288 42.9922 72.7088 41.9422C72.4888 41.3922 57.4788 18.5122 56.9688 17.8022C56.5557 17.1044 55.9791 16.5175 55.2888 16.0922C54.3688 15.7222 53.0288 16.5622 51.7688 17.4022C49.2288 19.1022 46.9688 20.7422 44.3688 22.3422C42.9888 23.1822 40.7688 24.1722 41.0288 25.4722C41.1357 25.8361 41.3124 26.1757 41.5488 26.4722C42.1488 27.3122 56.3588 48.7222 56.8288 49.5122Z" fill="#3C91E6"/>
<path id="Vector_3" fill-rule="evenodd" clip-rule="evenodd" d="M58.1276 20.792C58.5376 21.642 59.3676 22.8921 60.0076 22.6121C60.8276 22.2621 60.2376 21.442 59.8476 20.782C59.4576 20.122 58.9476 19.3121 58.3176 19.6421C57.6876 19.9721 57.9576 20.452 58.1276 20.792Z" fill="white"/>
<path id="Vector_4" fill-rule="evenodd" clip-rule="evenodd" d="M60.1001 24.8418C60.3601 25.5018 60.9002 26.0019 61.4302 25.6919C62.3302 25.1619 61.1501 23.1219 60.2901 23.6919C59.9601 23.9119 59.8801 24.2618 60.1001 24.8418Z" fill="white"/>
<path id="Vector_5" fill-rule="evenodd" clip-rule="evenodd" d="M64.0884 30.6925C60.8584 21.3625 44.4284 31.3925 51.1984 39.2825C56.3384 45.2625 66.3184 37.1325 64.0884 30.6925Z" fill="#347AC1"/>
<path id="Vector_6" fill-rule="evenodd" clip-rule="evenodd" d="M91.4036 6.13168C91.6236 4.41168 91.7336 2.62169 90.7336 1.86169C89.7336 1.10169 87.9736 1.04169 86.2036 0.861694C84.4336 0.681694 82.8036 0.671687 81.0836 0.541687C78.5936 0.351687 75.9735 0.0816992 73.4735 -0.00830078C71.8835 -0.00830078 70.7135 0.0717028 70.3435 1.4017C70.1435 2.1017 67.3435 35.5417 67.3435 36.6217C67.2098 37.6073 67.3232 38.6108 67.6736 39.5417C68.2836 40.5917 70.2035 40.7917 72.0635 40.9317C75.7935 41.2117 79.2135 41.3317 82.9435 41.7517C84.9435 41.9817 87.8036 42.7017 88.5436 41.2417C88.7032 40.8168 88.7812 40.3655 88.7736 39.9117C88.8136 38.6717 91.2636 7.26168 91.4036 6.13168Z" fill="#347AC1"/>
<path id="Vector_7" fill-rule="evenodd" clip-rule="evenodd" d="M89.1852 8.88235C89.3752 7.48235 89.4551 6.02237 88.6351 5.40237C87.8151 4.78237 86.3851 4.74235 84.9451 4.63235C83.5051 4.52235 82.1752 4.47237 80.7752 4.36237C78.7752 4.21237 76.6051 3.99236 74.5651 3.92236C73.2751 3.92236 72.3252 3.98236 72.0152 5.07236C71.8552 5.64236 69.5752 32.9023 69.5452 33.7823C69.4348 34.5858 69.5276 35.4041 69.8151 36.1624C70.3051 37.0224 71.8852 37.1624 73.3952 37.3024C76.3952 37.5324 79.2252 37.6224 82.2652 37.9724C83.8752 38.1524 86.2652 38.7424 86.8251 37.5524C86.9634 37.2096 87.0281 36.8417 87.0152 36.4724C87.0752 35.4124 89.0652 9.80235 89.1852 8.88235Z" fill="#3C91E6"/>
<path id="Vector_8" fill-rule="evenodd" clip-rule="evenodd" d="M88.2625 4.55179C88.8225 4.55179 89.3925 4.65177 89.9525 4.72177C89.7943 5.40405 89.7105 6.10146 89.7025 6.80179C89.7025 7.55179 89.7025 8.29178 89.7625 9.04178C87.4325 8.18178 85.6325 6.63177 85.5625 4.28177C85.9369 4.2613 86.3069 4.19068 86.6625 4.07178C87.1571 4.34015 87.7018 4.50356 88.2625 4.55179Z" fill="#347AC1"/>
<path id="Vector_9" fill-rule="evenodd" clip-rule="evenodd" d="M71.1694 4.85196C71.3294 4.08196 71.4894 3.30197 71.6194 2.52197L72.6194 2.70197C73.8006 2.88501 74.994 2.9786 76.1894 2.98196C75.5019 4.45904 74.2902 5.62801 72.7894 6.26196C72.1869 6.56819 71.5322 6.75817 70.8594 6.82196C70.9294 6.16196 71.0394 5.51196 71.1694 4.85196Z" fill="#347AC1"/>
<path id="Vector_10" fill-rule="evenodd" clip-rule="evenodd" d="M70.4703 30.7222C70.6703 29.7922 70.7803 28.2922 70.1103 28.1122C69.2403 27.8922 69.2003 28.9022 69.1103 29.6622C69.0203 30.4222 68.9203 31.3722 69.6203 31.5022C70.3203 31.6322 70.3903 31.0822 70.4703 30.7222Z" fill="white"/>
<path id="Vector_11" fill-rule="evenodd" clip-rule="evenodd" d="M71.4153 26.312C71.6153 25.632 71.4953 24.902 70.8853 24.822C69.8853 24.682 69.5253 27.012 70.5553 27.102C70.9453 27.132 71.2653 26.872 71.4153 26.312Z" fill="white"/>
<path id="Vector_12" fill-rule="evenodd" clip-rule="evenodd" d="M88.3123 10.1017C87.7723 10.5817 87.5123 13.5317 88.5223 13.5617C89.3523 13.5617 89.5223 10.9617 88.9823 10.2817C88.8523 10.1117 88.7123 10.0417 88.3123 10.1017Z" fill="white"/>
<path id="Vector_13" fill-rule="evenodd" clip-rule="evenodd" d="M78.2013 4.37207C77.5013 5.37207 80.2013 5.69207 80.5613 5.09207C81.1013 4.26207 78.8113 3.49207 78.2013 4.37207Z" fill="white"/>
<path id="Vector_14" fill-rule="evenodd" clip-rule="evenodd" d="M88.2572 14.8321C87.3372 14.7021 87.2572 16.9521 88.1072 16.9621C88.4672 16.9621 88.5672 16.7221 88.6972 16.2821C88.8972 15.6321 88.9272 14.9221 88.2572 14.8321Z" fill="white"/>
<path id="Vector_15" fill-rule="evenodd" clip-rule="evenodd" d="M71.8691 19.2618C68.6691 28.6018 87.7892 30.8218 87.3092 20.4318C86.9592 12.5318 74.0791 12.7918 71.8691 19.2618Z" fill="#347AC1"/>
<path id="Vector_16" fill-rule="evenodd" clip-rule="evenodd" d="M143.648 30.5926C145.888 30.9426 148.918 31.8326 150.448 33.1026C155.158 37.0126 154.738 46.8026 154.868 53.2726C155.038 61.3526 154.708 68.6626 154.868 75.9626C154.998 83.5926 155.578 90.7526 156.318 97.8126C156.668 101.153 157.068 104.733 157.108 108.753C157.108 112.413 156.948 117.153 154.888 120.533C152.828 123.913 148.558 125.453 143.888 125.913C139.149 126.311 134.391 126.438 129.638 126.293C119.578 126.083 109.538 125.503 100.158 125.413C80.7681 125.243 61.7381 125.593 42.2481 125.413C37.2981 125.413 32.1281 125.573 26.9681 123.903C21.8081 122.233 19.1481 119.393 18.0981 115.353C17.0481 111.313 17.0381 107.083 17.0981 102.353C17.2581 88.8926 17.7981 75.1526 17.7481 61.4826C17.7481 54.9726 17.4581 48.2326 18.0881 40.9926C18.3081 38.4426 18.7881 34.4526 20.6781 32.6026C21.9281 31.3726 24.7581 30.5326 26.8881 30.1326C29.2913 29.7511 31.7161 29.5206 34.1481 29.4426C39.2781 29.1826 45.0781 29.8826 50.0481 30.0326C55.2381 30.1826 60.6281 30.4426 65.9481 30.6126C71.2681 30.7826 76.4981 30.7026 81.4881 30.6126C91.6481 30.4926 102.118 30.6126 112.388 30.3926C119.788 30.2426 127.778 30.0126 135.498 30.0426C138.225 30.0212 140.949 30.2051 143.648 30.5926Z" fill="#BFABD3"/>
<path id="Vector_17" opacity="0.2" d="M149.643 32.542C149.175 32.2677 148.687 32.0303 148.183 31.832V38.312H135.783V30.1219H134.333V38.312H122.133V30.262H120.683V38.262H108.263V30.492H106.812V38.242H94.4125V30.552H92.9525V38.242H80.5525V30.632H79.1025V38.232H66.7025V30.5919H65.8725H65.2525V38.272H52.8525V30.162H51.3925V38.362H38.9925V29.522H37.5425V38.392H25.1625V30.632C24.6725 30.752 24.1625 30.902 23.7125 31.062V38.392H18.3525C18.2825 38.852 18.2225 39.312 18.1625 39.752H23.7125V51.262H17.6225V52.6219H23.7125V64.262H17.7125V65.6219H23.7125V77.222H17.5425V78.582H23.7425V90.172H17.2625V91.532H23.7425V103.132H17.0625C17.0625 103.582 17.0625 104.042 17.0625 104.492H23.7525V115.882H18.2125C18.3456 116.346 18.5093 116.8 18.7025 117.242H23.7525V122.622C24.2228 122.884 24.7068 123.121 25.2025 123.332V117.242H37.6025V125.462H39.0525V117.232H51.4525V125.512H52.9125V117.232H65.2625V125.492H66.7125V117.242H79.1125V125.432H80.5625V117.242H92.9625V125.422H94.4225V117.232H106.823V125.592H108.273V117.192H120.673V126.032L122.122 126.082V117.192H134.323V126.332H135.773V117.202H148.173V125.122C148.673 124.972 149.173 124.812 149.633 124.632V117.202H156.263C156.383 116.762 156.483 116.302 156.573 115.842H149.653V104.442H156.923C156.923 103.982 156.853 103.522 156.823 103.082H149.653V91.482H155.653C155.653 91.032 155.583 90.5719 155.543 90.1219H149.613V78.532H154.872V77.172H149.643V65.572H154.863C154.863 65.122 154.863 64.672 154.863 64.212H149.622V52.6219H154.842C154.842 52.1819 154.842 51.722 154.842 51.262H149.633V39.672H153.913C153.812 39.202 153.693 38.752 153.553 38.312H149.633L149.643 32.542ZM37.5625 115.832H25.1625V104.442H37.5625V115.832ZM37.5625 103.082H25.1625V91.482H37.5625V103.082ZM37.5625 90.082H25.1625V78.532H37.5625V90.082ZM37.5625 77.132H25.1625V65.532H37.5625V77.132ZM37.5625 64.132H25.1625V52.6219H37.5625V64.132ZM37.5625 51.182H25.1625V39.672H37.5625V51.182ZM51.4125 115.752H39.0125V104.442H51.4125V115.752ZM51.4125 103.002H39.0125V91.402H51.4125V103.002ZM51.4125 90.002H39.0125V78.532H51.4125V90.002ZM51.4125 77.052H39.0125V65.452H51.4125V77.052ZM51.4125 64.052H39.0125V52.6219H51.4125V64.052ZM51.4125 51.102H39.0125V39.672H51.4125V51.102ZM65.2625 115.832H52.8625V104.442H65.2625V115.832ZM65.2625 103.082H52.8625V91.482H65.2625V103.082ZM65.2625 90.082H52.8625V78.532H65.2625V90.082ZM65.2625 77.132H52.8625V65.532H65.2625V77.132ZM65.2625 64.132H52.8625V52.6219H65.2625V64.132ZM65.2625 51.262H52.8625V39.672H65.2625V51.262ZM79.1125 115.832H66.7125V104.442H79.1125V115.832ZM79.1125 103.082H66.7125V91.482H79.1125V103.082ZM79.1125 90.082H66.7125V78.532H79.1125V90.082ZM79.1125 77.132H66.7125V65.532H79.1125V77.132ZM79.1125 64.132H66.7125V52.6219H79.1125V64.132ZM79.1125 51.182H66.7125V39.672H79.1125V51.182ZM92.9625 115.752H80.5625V104.442H92.9625V115.752ZM92.9625 103.002H80.5625V91.402H92.9625V103.002ZM92.9625 90.002H80.5625V78.532H92.9625V90.002ZM92.9625 77.052H80.5625V65.452H92.9625V77.052ZM92.9625 64.052H80.5625V52.6219H92.9625V64.052ZM92.9625 51.102H80.5625V39.672H92.9625V51.102ZM106.823 115.672H94.4225V104.442H106.823V115.672ZM106.823 102.922H94.4225V91.322H106.823V102.922ZM106.823 89.922H94.4225V78.532H106.823V89.922ZM106.823 76.972H94.4225V65.3719H106.823V76.972ZM106.823 63.972H94.4225V52.6219H106.823V63.972ZM106.823 51.022H94.4225V39.672H106.823V51.022ZM120.673 115.592H108.263V104.442H120.663L120.673 115.592ZM120.673 102.842H108.263V91.242H120.663L120.673 102.842ZM120.673 89.8419H108.263V78.532H120.663L120.673 89.8419ZM120.673 76.892H108.263V65.292H120.663L120.673 76.892ZM120.673 63.892H108.263V52.6219H120.663L120.673 63.892ZM120.673 50.942H108.263V39.672H120.663L120.673 50.942ZM134.323 115.512H122.122V104.442H134.323V115.512ZM134.323 102.762H122.122V91.162H134.323V102.762ZM134.323 89.762H122.122V78.532H134.323V89.762ZM134.323 76.812H122.122V65.212H134.323V76.812ZM134.323 63.812H122.122V52.6219H134.323V63.812ZM134.323 50.862H122.122V39.672H134.323V50.862ZM148.173 115.432H135.773V104.442H148.173V115.432ZM148.173 102.682H135.773V91.082H148.173V102.682ZM148.173 89.682H135.773V78.532H148.173V89.682ZM148.173 76.732H135.773V65.132H148.173V76.732ZM148.173 63.732H135.773V52.6219H148.173V63.732ZM148.173 50.782H135.773V39.672H148.173V50.782Z" fill="white"/>
<path id="Vector_18" fill-rule="evenodd" clip-rule="evenodd" d="M144.688 69.6421C134.031 84.251 120.445 96.4777 104.798 105.542C92.8981 112.542 79.6181 118.352 63.0381 120.792C60.1616 121.221 57.2641 121.495 54.3581 121.612C51.3581 121.732 47.1381 122.102 47.0781 119.382C47.1335 118.768 47.4186 118.197 47.8764 117.783C48.3343 117.37 48.9313 117.145 49.5481 117.152C50.9881 117.032 52.7181 117.102 54.0081 117.042C62.0148 116.716 69.9433 115.334 77.5881 112.932C86.4753 110.068 95.0123 106.214 103.038 101.442C118.287 92.6156 131.42 80.5606 141.518 66.1221C140.378 66.6421 139.378 67.2721 138.118 68.0021C137.028 68.6321 135.818 69.7121 134.358 69.4121C133.917 69.276 133.537 68.9915 133.282 68.6069C133.027 68.2224 132.912 67.7614 132.958 67.3021C133.018 66.1021 134.678 65.3021 136.118 64.3621C138.558 62.8421 141.318 61.1521 143.508 59.5521C144.698 58.6921 145.668 57.5521 147.148 56.9721C147.744 56.7777 148.389 56.8006 148.969 57.0368C149.55 57.2729 150.027 57.7071 150.318 58.2621C150.798 59.3621 150.448 61.6821 150.198 63.3121C149.948 64.9421 149.538 66.8321 149.378 68.1221C149.178 69.7221 149.028 71.6521 148.908 73.2821C148.768 75.2221 148.578 76.6821 147.148 77.0321C143.668 77.8921 144.258 73.1021 144.688 69.6421Z" fill="#FFC857"/>
<path id="Vector_19" d="M94.9499 79.8818L93.7999 83.7018C93.7337 83.9014 93.7174 84.1142 93.7522 84.3216C93.7871 84.529 93.8721 84.7247 93.9999 84.8918C94.1466 85.0769 94.3316 85.2281 94.5422 85.3351C94.7527 85.4421 94.9839 85.5024 95.2199 85.5118C95.5332 85.5339 95.8443 85.4462 96.0999 85.2637C96.3554 85.0811 96.5393 84.8153 96.6199 84.5118L98.2899 78.9618L101.2 78.0418C101.44 78.7518 101.68 79.4618 101.91 80.1818L102.23 81.1818C102.328 81.4728 102.515 81.7257 102.764 81.905C103.014 82.0844 103.313 82.1812 103.62 82.1818C103.861 82.1983 104.102 82.1581 104.324 82.0643C104.547 81.9705 104.744 81.8258 104.9 81.6418C105.027 81.48 105.11 81.2884 105.141 81.0853C105.173 80.8822 105.152 80.6743 105.08 80.4818L103.81 76.6418C103.909 76.401 103.93 76.1351 103.87 75.8818C103.779 75.5543 103.577 75.2683 103.3 75.0718L101.18 68.6618C101.081 68.3732 100.895 68.1222 100.648 67.9432C100.401 67.7642 100.105 67.6659 99.7999 67.6618C99.5649 67.6447 99.3291 67.6818 99.1106 67.7702C98.8922 67.8586 98.6969 67.996 98.5399 68.1718C98.4333 68.2958 98.3541 68.4411 98.3076 68.5979C98.2611 68.7547 98.2482 68.9196 98.2699 69.0818C98.1882 69.197 98.1273 69.3256 98.0899 69.4618L95.8799 76.8118L94.8299 77.1418C94.4719 77.232 94.1626 77.4573 93.9669 77.7705C93.7712 78.0836 93.7042 78.4603 93.7799 78.8218C93.8611 79.0876 94.0128 79.3265 94.2188 79.5131C94.4248 79.6997 94.6774 79.8271 94.9499 79.8818ZM99.2699 75.7218L99.8199 73.8918L100.32 75.3818L99.2699 75.7218Z" fill="#347AC1"/>
<path id="Vector_20" d="M115.773 85.7318C115.75 85.5292 115.684 85.3338 115.578 85.1596C115.472 84.9853 115.329 84.8363 115.16 84.723C114.99 84.6096 114.798 84.5347 114.596 84.5034C114.395 84.4721 114.189 84.4852 113.993 84.5418C106.706 86.4797 99.5995 89.0425 92.7529 92.2018C92.4735 92.3153 92.2437 92.5246 92.1044 92.7921C91.9652 93.0595 91.9257 93.3679 91.993 93.6618C92.068 93.9858 92.2459 94.2769 92.5 94.4914C92.7542 94.7059 93.071 94.8323 93.403 94.8518C93.6484 94.8611 93.8923 94.8096 94.113 94.7018C100.752 91.636 107.644 89.1533 114.713 87.2818C115.05 87.2007 115.346 86.9973 115.541 86.7109C115.737 86.4245 115.82 86.0756 115.773 85.7318Z" fill="#347AC1"/>
<path id="Vector_21" fill-rule="evenodd" clip-rule="evenodd" d="M93.7279 37.6416C104.018 37.1516 115.148 37.5316 125.988 37.5316C129.798 37.5316 134.348 36.9716 134.438 39.7616C134.508 42.0616 132.268 42.1016 129.748 42.1016C115.748 42.1016 102.198 41.9916 88.0979 41.9816C85.4579 41.9816 83.1479 41.9816 83.0979 40.1116C82.9879 38.0116 85.0979 37.9816 87.3179 37.8816C89.5379 37.7816 91.8679 37.7316 93.7279 37.6416Z" fill="#347AC1"/>
<path id="Vector_22" fill-rule="evenodd" clip-rule="evenodd" d="M89.2603 44.5719C94.8891 44.209 100.537 44.2457 106.16 44.6819C108.16 44.9019 109.42 45.5319 109.44 47.0319C109.44 49.5319 106.54 49.1419 104.04 49.0319C98.6203 48.7819 94.2203 48.9319 88.7903 48.8019C86.1203 48.7319 83.1503 48.8619 83.0503 46.8019C82.9103 43.8919 87.1103 44.6719 89.2603 44.5719Z" fill="#347AC1"/>
<path id="Vector_23" fill-rule="evenodd" clip-rule="evenodd" d="M129.859 51.2624C131.939 51.1624 136.449 50.2624 136.549 53.2624C136.629 55.6224 134.139 55.6024 131.549 55.7224C128.959 55.8424 126.349 55.8424 124.269 55.8424C119.169 55.8424 114.909 56.0724 109.719 56.0724C102.529 56.0724 95.0789 56.0724 87.9089 55.6024C85.5789 55.4524 82.7289 55.6724 82.6289 53.4924C82.5289 51.3124 84.3489 51.3824 86.7289 51.3824C92.6689 51.3824 99.6189 51.5024 105.149 51.5024C114.139 51.4924 121.919 51.6324 129.859 51.2624Z" fill="#FFC857"/>
<path id="Vector_24" fill-rule="evenodd" clip-rule="evenodd" d="M40 103.492C46.67 96.6917 53.64 90.0617 60.78 83.4917C60.68 91.7217 61.38 100.432 61.29 108.662C52.45 109.952 45.63 107.742 40 103.492Z" fill="#FFC857" fill-opacity="0.58"/>
<path id="Vector_25" fill-rule="evenodd" clip-rule="evenodd" d="M28.8725 72.9321C38.5625 74.9321 47.6426 77.9321 57.2026 80.1921C55.9626 82.1921 54.0526 83.6121 52.3826 85.2521C47.3826 90.1221 41.9126 95.2521 36.8626 100.252C30.5326 95.2621 25.5525 81.0921 28.8725 72.9321Z" fill="#FFC857"/>
<path id="Vector_26" fill-rule="evenodd" clip-rule="evenodd" d="M64.6996 108.062C64.2596 99.6818 64.3896 91.0618 63.9796 82.0618C64.0012 80.8041 63.894 79.5476 63.6596 78.3118C63.0996 77.3118 56.9696 76.0218 55.6596 75.6718C48.5196 73.8018 41.8596 72.2118 34.7596 70.3518C33.1396 69.9218 31.3896 69.2518 30.3596 69.5618C30.1196 69.5618 30.1996 69.3818 30.3096 69.3618C31.6156 64.6714 34.1656 60.4214 37.6896 57.0618C50.3196 45.2118 71.5396 48.1118 80.6896 57.6118C88.6896 65.9218 90.1396 79.6118 86.8796 88.6118C85.1988 93.073 82.4523 97.0554 78.8796 100.212C74.9327 104.04 70.0388 106.749 64.6996 108.062Z" fill="#347AC1"/>
<path id="Vector_27" fill-rule="evenodd" clip-rule="evenodd" d="M23.2609 44.0824C24.7209 42.2724 30.2608 41.1324 35.8708 40.0024C42.2008 38.7424 47.1609 36.5824 49.6109 38.3224C51.1009 39.3724 52.2309 43.2324 53.1109 46.2624C53.8509 48.8124 55.5308 53.2624 54.6208 55.2624C53.5108 57.6924 44.6709 59.1724 41.3009 59.9824C39.1609 60.4924 36.5709 61.2824 33.7909 61.7824C29.3709 62.5824 26.7909 63.0724 25.1309 58.1424C24.3609 55.6924 21.1909 46.7024 23.2609 44.0824Z" fill="#FFC857"/>
<path id="Vector_28" d="M43.7327 43.4818C43.747 42.66 43.4425 41.8647 42.8832 41.2626C42.324 40.6604 41.5532 40.2981 40.7327 40.2517H40.4327C39.7404 40.1994 39.0529 40.4025 38.5002 40.8226C37.9474 41.2427 37.5677 41.8507 37.4327 42.5317C37.3638 42.9391 37.3797 43.3564 37.4795 43.7573C37.5793 44.1582 37.7608 44.5343 38.0127 44.8618C38.3062 45.2287 38.6711 45.5323 39.0854 45.7541C39.4996 45.9758 39.9546 46.1111 40.4227 46.1518C40.9737 46.2029 41.5285 46.1099 42.0327 45.8817C42.5037 45.6687 42.9095 45.3341 43.2083 44.9123C43.507 44.4905 43.6881 43.9967 43.7327 43.4818ZM40.7327 44.1418C40.1527 44.0918 39.4127 43.6017 39.3727 43.0617C39.3727 42.8517 39.4427 42.4617 40.1527 42.2917C40.3943 42.2281 40.6484 42.2297 40.8891 42.2964C41.1298 42.3632 41.3485 42.4927 41.5227 42.6718C41.6022 42.7719 41.6587 42.8883 41.6881 43.0128C41.7175 43.1372 41.719 43.2666 41.6927 43.3918C41.6835 43.5078 41.65 43.6205 41.5943 43.7227C41.5387 43.8249 41.4622 43.9143 41.3698 43.985C41.2774 44.0557 41.1711 44.1062 41.0579 44.1332C40.9447 44.1602 40.8271 44.1632 40.7127 44.1418H40.7327Z" fill="white"/>
<path id="Vector_29" d="M44.3288 48.1422C44.9088 47.4222 45.4488 46.7422 46.0488 45.8422C46.1988 45.6222 46.3487 45.3822 46.4987 45.1422C46.7687 44.7122 47.0488 44.2822 47.3988 43.7922C47.4987 43.6536 47.6054 43.5201 47.7188 43.3922C48.1187 42.8922 48.6287 42.2722 48.5287 41.6422C48.4778 41.4779 48.3775 41.3332 48.2416 41.2277C48.1057 41.1221 47.9406 41.0609 47.7688 41.0522C47.1488 41.0522 46.7687 41.6122 46.3687 42.1622C46.2787 42.3022 46.1787 42.4422 46.0887 42.5622L44.8687 44.1422C42.3287 47.4122 39.7088 50.8022 37.4688 54.2122L37.2988 54.4722C36.8115 55.0306 36.5201 55.7329 36.4688 56.4722C36.5248 56.6577 36.631 56.8241 36.7758 56.9529C36.9205 57.0818 37.098 57.1681 37.2888 57.2022H37.3588C38.0088 57.2522 38.3588 56.6622 38.7388 56.0422L38.8788 55.8222C40.2888 53.5422 41.7287 51.6022 43.1187 49.7322C43.5587 49.1122 43.9588 48.6222 44.3288 48.1422Z" fill="white"/>
<path id="Vector_30" d="M47.9207 54.7826C48.1981 54.3456 48.3577 53.8443 48.384 53.3273C48.4102 52.8104 48.3023 52.2955 48.0707 51.8326C47.8691 51.4317 47.5668 51.09 47.1934 50.8411C46.82 50.5921 46.3883 50.4445 45.9407 50.4126H45.4607C45.0436 50.4445 44.6377 50.5632 44.2691 50.7613C43.9006 50.9593 43.5775 51.2323 43.3207 51.5626C42.9902 52.0123 42.7839 52.5411 42.7225 53.0957C42.661 53.6504 42.7466 54.2115 42.9707 54.7226C43.156 55.1482 43.4543 55.515 43.8334 55.783C44.2124 56.0509 44.6577 56.2099 45.1207 56.2426H45.2007C45.7415 56.2541 46.276 56.1258 46.7525 55.87C47.2291 55.6142 47.6315 55.2396 47.9207 54.7826ZM46.0907 53.8426C45.9962 53.962 45.8738 54.0563 45.7344 54.1173C45.5949 54.1784 45.4425 54.2042 45.2907 54.1926C45.158 54.1816 45.0288 54.1442 44.9107 54.0826C44.8506 54.055 44.8038 54.0046 44.7807 53.9426C44.7145 53.743 44.6982 53.5302 44.733 53.3228C44.7679 53.1154 44.8529 52.9196 44.9807 52.7526C45.0488 52.6557 45.1362 52.5739 45.2373 52.5123C45.3385 52.4507 45.4513 52.4107 45.5686 52.3947C45.686 52.3788 45.8054 52.3872 45.9193 52.4195C46.0332 52.4519 46.1392 52.5074 46.2307 52.5826C46.2538 52.597 46.2736 52.616 46.2891 52.6383C46.3046 52.6607 46.3153 52.686 46.3207 52.7126C46.3759 52.9056 46.3839 53.109 46.3438 53.3057C46.3038 53.5024 46.217 53.6865 46.0907 53.8426Z" fill="white"/>
<path id="Vector_31" d="M36.3175 47.962C36.6775 47.382 36.4576 46.702 35.6776 46.202C34.8976 45.702 32.0876 43.9119 30.9476 43.3819C29.2076 42.5819 28.3875 44.6419 29.8475 45.4419C32.6775 47.0019 35.3875 49.442 36.3175 47.962Z" fill="white"/>
<path id="Vector_32" d="M27.1201 53.0225C32.2801 52.7325 32.5701 52.7525 33.0201 52.5625C34.1901 52.0725 33.7801 50.4125 32.8501 50.4325C30.7946 50.4006 28.7395 50.5142 26.7001 50.7725C26.4017 50.8282 26.1377 51.0001 25.9661 51.2505C25.7945 51.5009 25.7294 51.8091 25.7851 52.1075C25.8408 52.4059 26.0127 52.6699 26.2631 52.8415C26.5134 53.0131 26.8217 53.0782 27.1201 53.0225Z" fill="white"/>
<path id="Vector_33" d="M29.9327 59.3321C33.0727 58.3821 34.6527 58.2121 34.2727 56.8221C34.2274 56.6639 34.1492 56.5169 34.0432 56.3909C33.9373 56.265 33.8059 56.1628 33.6577 56.091C33.5095 56.0193 33.3479 55.9796 33.1833 55.9747C33.0187 55.9697 32.855 55.9995 32.7027 56.0621C31.4827 56.3821 30.2827 56.7821 29.0827 57.1821C28.9291 57.2285 28.7867 57.3062 28.6647 57.4104C28.5426 57.5146 28.4435 57.643 28.3736 57.7875C28.3037 57.9319 28.2646 58.0893 28.2586 58.2497C28.2527 58.4101 28.2801 58.5699 28.3391 58.7192C28.3981 58.8684 28.4874 59.0038 28.6014 59.1167C28.7154 59.2297 28.8516 59.3177 29.0014 59.3754C29.1512 59.433 29.3113 59.4589 29.4716 59.4514C29.6319 59.444 29.7889 59.4034 29.9327 59.3321Z" fill="white"/>
<path id="Vector_34" fill-rule="evenodd" clip-rule="evenodd" d="M17.5206 88.4819C16.2706 87.2919 14.8907 86.1419 13.6807 86.4819C12.4707 86.8219 11.3906 88.2219 10.2407 89.5719C9.09065 90.9219 8.06064 92.2019 6.95064 93.5019C5.32064 95.4019 3.55064 97.3519 2.00064 99.3219C1.00064 100.572 0.430643 101.582 1.28064 102.672C1.73064 103.242 27.0306 125.292 27.8806 125.952C28.5926 126.645 29.4653 127.15 30.4206 127.422C31.6306 127.552 32.9407 126.112 34.1507 124.702C36.5807 121.862 38.7006 119.172 41.2506 116.422C42.5906 114.962 44.8907 113.062 44.1507 111.602C43.9028 111.213 43.5839 110.873 43.2107 110.602C42.2607 109.832 18.3406 89.2619 17.5206 88.4819Z" fill="#347AC1"/>
<path id="Vector_35" fill-rule="evenodd" clip-rule="evenodd" d="M18.4326 91.9018C17.4326 90.9018 16.2826 89.9918 15.3026 90.2818C14.3226 90.5718 13.4326 91.7018 12.4926 92.8018C11.5526 93.9018 10.7226 94.9418 9.81256 96.0118C8.48256 97.5518 7.04258 99.1418 5.81258 100.752C5.01258 101.752 4.54258 102.592 5.23258 103.482C5.59258 103.952 26.2326 121.922 26.9126 122.482C27.4961 123.047 28.2108 123.46 28.9926 123.682C29.9926 123.792 30.9926 122.622 31.9926 121.462C33.9926 119.152 35.7126 116.962 37.7826 114.712C38.8826 113.532 40.7826 111.972 40.1526 110.792C39.9509 110.48 39.6932 110.209 39.3926 109.992C38.5626 109.262 19.1026 92.5418 18.4326 91.9018Z" fill="#3C91E6"/>
<path id="Vector_36" fill-rule="evenodd" clip-rule="evenodd" d="M29.2656 125.612L25.2656 122.182C27.8056 120.782 30.7656 120.382 32.7056 121.762C31.5856 123.095 30.449 124.388 29.2956 125.642L29.2656 125.612Z" fill="#347AC1"/>
<path id="Vector_37" fill-rule="evenodd" clip-rule="evenodd" d="M39.3951 113.672L38.4951 114.822C38.0278 114.206 37.6382 113.534 37.3351 112.822C36.954 111.878 36.8238 110.851 36.9569 109.842C37.0901 108.833 37.4822 107.875 38.0951 107.062C39.4251 108.222 40.7651 109.392 42.0951 110.602C41.1226 111.559 40.2203 112.585 39.3951 113.672Z" fill="#347AC1"/>
<path id="Vector_38" fill-rule="evenodd" clip-rule="evenodd" d="M14.3725 90.0925C14.7425 89.6625 15.1325 89.2425 15.5125 88.8325C15.9728 89.3598 16.4854 89.8389 17.0425 90.2625C17.6425 90.7225 18.2625 91.1225 18.8825 91.5425C16.8125 92.9125 14.4925 93.4525 12.5625 92.1125C12.7712 91.8048 12.933 91.4678 13.0425 91.1125C13.5521 90.869 14.0051 90.5215 14.3725 90.0925Z" fill="#347AC1"/>
<path id="Vector_39" fill-rule="evenodd" clip-rule="evenodd" d="M4.51843 104.032C3.98843 103.452 3.45844 102.862 2.89844 102.292L3.62843 101.602C4.4765 100.766 5.25571 99.8631 5.95844 98.9019C6.75205 100.326 6.98053 101.997 6.59843 103.582C6.48667 104.247 6.2491 104.885 5.89844 105.462C5.42844 105.002 4.96843 104.522 4.51843 104.032Z" fill="#347AC1"/>
<path id="Vector_40" fill-rule="evenodd" clip-rule="evenodd" d="M24.9525 119.912C24.3225 119.192 23.1825 118.222 22.6425 118.662C21.9425 119.222 22.7325 119.852 23.2925 120.382C23.8525 120.912 24.5525 121.552 25.0825 121.062C25.6125 120.572 25.2025 120.192 24.9525 119.912Z" fill="white"/>
<path id="Vector_41" fill-rule="evenodd" clip-rule="evenodd" d="M21.9486 116.543C21.5286 115.973 20.8686 115.643 20.4386 116.083C19.7186 116.843 21.4386 118.483 22.0786 117.703C22.3386 117.403 22.3086 117.013 21.9486 116.543Z" fill="white"/>
<path id="Vector_42" fill-rule="evenodd" clip-rule="evenodd" d="M18.8906 93.3223C18.9606 94.0423 21.1806 96.0023 21.8006 95.2023C22.4206 94.4023 20.3006 92.8723 19.4406 92.8923C19.2606 92.8923 19.0806 92.9723 18.8906 93.3223Z" fill="white"/>
<path id="Vector_43" fill-rule="evenodd" clip-rule="evenodd" d="M8.26126 98.082C8.65126 99.242 10.4813 97.282 10.2613 96.602C9.93126 95.692 7.94126 97.072 8.26126 98.082Z" fill="white"/>
<path id="Vector_44" fill-rule="evenodd" clip-rule="evenodd" d="M22.6852 96.1417C22.0452 96.8117 23.8052 98.2116 24.3152 97.5316C24.5352 97.2416 24.3952 97.0117 24.1152 96.6517C23.7052 96.1217 23.1452 95.6817 22.6852 96.1417Z" fill="white"/>
<path id="Vector_45" fill-rule="evenodd" clip-rule="evenodd" d="M16.5301 111.982C22.1601 120.092 35.2701 105.982 26.6101 100.232C20.0501 95.8523 12.6401 106.382 16.5301 111.982Z" fill="#347AC1"/>
<path id="Vector_46" fill-rule="evenodd" clip-rule="evenodd" d="M158.049 50.1926C159.859 51.6626 159.139 54.1926 156.639 54.5026C154.349 54.7526 150.719 53.0726 149.869 51.8926C149.019 50.7126 149.669 49.4726 151.269 49.4526C150.409 49.2326 149.139 48.7126 149.119 47.7626C149.119 47.0626 149.849 46.6226 150.699 46.3926C150.039 46.3126 149.299 46.0826 149.129 45.5026C148.819 44.4126 149.999 43.5526 150.919 43.3526C150.658 43.3311 150.408 43.2348 150.201 43.0751C149.993 42.9155 149.836 42.6993 149.749 42.4526C149.529 41.4526 150.849 40.3826 152.129 39.7126C153.344 39.0658 154.692 38.7066 156.069 38.6626C158.069 38.6626 159.069 40.4026 157.879 42.0726C158.629 42.3926 159.069 42.5226 159.279 43.0726C159.709 44.2526 158.599 45.3026 157.659 45.7326C158.919 46.2826 160.039 47.5626 159.429 49.0826C159.11 49.5918 158.621 49.971 158.049 50.1526" fill="#DB9171"/>
<path id="Vector_47" d="M157.491 59.5525C159.251 58.2625 156.721 55.3325 154.891 54.0825V59.5625C155.303 59.7582 155.754 59.8597 156.211 59.8597C156.667 59.8597 157.118 59.7582 157.531 59.5625" fill="#DB9171"/>
<path id="Vector_48" fill-rule="evenodd" clip-rule="evenodd" d="M158.68 46.3917C157.5 45.935 156.244 45.7076 154.98 45.7217C153.347 45.7554 151.729 46.0353 150.18 46.5517C152.44 44.8817 157.35 44.9517 158.68 46.3917Z" fill="#C4765B"/>
<path id="Vector_49" fill-rule="evenodd" clip-rule="evenodd" d="M150.401 49.6025C151.694 49.2016 153.058 49.0823 154.401 49.2525C156.251 49.4125 158.021 49.7526 158.551 50.7126C155.96 49.69 153.16 49.3091 150.391 49.6025" fill="#C4765B"/>
<path id="Vector_50" fill-rule="evenodd" clip-rule="evenodd" d="M158.863 42.5619C154.673 41.4919 152.063 43.022 150.453 43.482C152.663 41.722 157.213 41.2219 158.863 42.5619Z" fill="#C4765B"/>
<path id="Vector_51" fill-rule="evenodd" clip-rule="evenodd" d="M195.602 143.262C172.652 143.072 148.772 142.262 126.272 142.792C126.092 141.722 126.782 140.792 127.212 139.852C130.112 133.652 132.872 126.962 135.422 120.032C136.852 116.142 138.111 112.032 139.531 108.032C140.951 104.032 142.261 100.092 143.632 96.1919C146.451 88.1919 149.022 79.922 153.022 73.432C157.422 66.282 162.932 62.4319 173.902 61.8119C178.849 61.6198 183.788 62.3768 188.452 64.0419C196.852 66.8619 203.652 70.782 207.682 78.242C209.923 82.4146 210.978 87.1218 210.732 91.8519C210.252 101.972 207.162 110.592 204.402 118.942C201.582 127.482 198.701 135.542 195.602 143.262Z" fill="#347AC1"/>
<path id="Vector_52" fill-rule="evenodd" clip-rule="evenodd" d="M133.418 135.762C133.928 134.052 135.118 131.512 136.418 131.832C138.048 132.252 137.188 133.942 136.658 135.282C136.128 136.622 135.408 138.282 134.138 137.832C132.868 137.382 133.258 136.432 133.418 135.762Z" fill="white"/>
<path id="Vector_53" fill-rule="evenodd" clip-rule="evenodd" d="M139.63 129.042C139.93 127.742 140.79 126.652 141.85 127.042C143.68 127.762 142.08 131.872 140.32 131.042C139.65 130.802 139.4 130.112 139.63 129.042Z" fill="white"/>
<path id="Vector_54" d="M166.984 104.132C170.884 86.9822 174.914 72.6522 179.214 64.0622C184.374 63.4807 189.595 64.2922 194.334 66.4122C195.044 66.7122 195.734 67.0322 196.394 67.4122C190.134 70.1922 177.724 78.7422 166.984 104.132Z" fill="white"/>
<path id="Vector_55" fill-rule="evenodd" clip-rule="evenodd" d="M169.554 77.102C171.324 70.952 174.664 64.452 179.554 61.562C179.314 62.992 179.124 66.452 179.134 66.562C175.412 74.4728 172.401 82.6985 170.134 91.142C169.384 91.2906 168.606 91.1392 167.967 90.7204C167.327 90.3016 166.877 89.6487 166.714 88.902C166.504 86.952 169.394 81.672 171.104 78.832C170.494 78.312 169.264 78.102 169.554 77.102Z" fill="#3C91E6"/>
<path id="Vector_56" fill-rule="evenodd" clip-rule="evenodd" d="M206.261 26.9419C207.199 27.0986 208.097 27.439 208.904 27.9435C209.71 28.448 210.409 29.1067 210.961 29.8819C212.005 31.47 212.465 33.372 212.261 35.2619C211.841 38.8319 210.361 40.6719 210.621 41.4819C210.831 42.1419 211.731 42.1719 212.381 42.6519C212.972 43.1402 213.416 43.7829 213.663 44.5086C213.91 45.2343 213.951 46.0144 213.781 46.7619C213.431 48.7619 211.711 50.0919 210.971 51.8119C210.651 52.4588 210.535 53.1878 210.638 53.9022C210.742 54.6166 211.06 55.2826 211.551 55.8119C212.191 56.4319 212.631 56.2719 212.611 56.8719C212.611 58.2319 209.611 57.8719 208.611 57.5719C207.943 57.3481 207.31 57.0317 206.731 56.6319C206.081 56.2019 205.801 55.5419 204.981 55.5819C204.161 55.6219 203.741 56.6419 202.861 57.8119C202.262 58.8333 201.297 59.5879 200.161 59.9219C196.981 60.4119 195.261 57.9219 194.161 56.0519C193.96 55.5665 193.726 55.0954 193.461 54.6419C192.599 53.8719 191.653 53.2011 190.641 52.6419C187.911 50.7719 184.901 48.6419 182.081 46.8919C179.261 45.1419 176.181 43.2019 173.281 41.2619C172.293 40.7161 171.352 40.0872 170.471 39.3819C168.541 37.4919 167.131 33.9319 166.831 30.1119C166.741 29.0119 166.351 27.5219 167.421 26.7119C169.141 27.2219 169.691 28.9019 171.641 29.1719C170.843 27.6277 170.441 25.9097 170.471 24.1719C170.551 22.3719 171.291 19.6319 172.341 19.4819C173.391 19.3319 173.951 20.8119 174.451 21.4819C174.968 22.291 175.698 22.9416 176.561 23.3619C175.461 21.9619 174.401 17.1619 175.981 14.9119C176.791 13.7719 177.911 15.6919 178.911 16.2019C182.751 18.2019 187.631 16.3419 192.911 16.4419C200.371 16.5319 206.071 19.4219 206.261 26.9419Z" fill="#FFC857"/>
<path id="Vector_57" fill-rule="evenodd" clip-rule="evenodd" d="M206.968 52.1517C206.548 53.0917 205.968 53.6817 205.058 53.2317C204.738 52.0717 206.328 50.8717 206.968 52.1517Z" fill="white"/>
<path id="Vector_58" fill-rule="evenodd" clip-rule="evenodd" d="M201.625 51.2622L202.235 51.5322C202.465 52.7222 202.355 55.6322 200.665 55.6322C199.445 54.5422 200.375 51.9022 201.625 51.2622Z" fill="white"/>
<path id="Vector_59" d="M198.698 52.2621C201.318 50.4474 203.41 47.9697 204.758 45.0821C205.558 39.1921 208.758 29.4121 205.288 25.5821C200.118 19.9521 189.988 18.9521 184.358 21.9521C179.518 24.5321 173.608 31.7621 170.798 39.9521C167.988 48.1421 169.098 56.1621 179.948 56.2021C179.698 59.7621 179.188 65.622 179.148 66.912C179.008 70.712 180.858 77.1721 197.448 69.2321C197.318 69.5521 198.098 54.342 198.698 52.2621Z" fill="#DB9171"/>
<path id="Vector_60" fill-rule="evenodd" clip-rule="evenodd" d="M205.179 50.0116C203.379 51.6916 198.739 53.0116 197.259 51.4716C195.779 49.9316 198.049 45.9816 199.849 44.3016C200.205 43.8678 200.65 43.5151 201.153 43.2671C201.657 43.0191 202.208 42.8816 202.769 42.8638C203.33 42.846 203.888 42.9482 204.406 43.1637C204.925 43.3792 205.391 43.703 205.774 44.1133C206.157 44.5236 206.448 45.0111 206.627 45.543C206.807 46.0749 206.87 46.6389 206.814 47.1974C206.758 47.7559 206.583 48.2959 206.301 48.7813C206.019 49.2666 205.636 49.6861 205.179 50.0116Z" fill="#DB9171"/>
<path id="Vector_61" fill-rule="evenodd" clip-rule="evenodd" d="M179.9 55.8524C183.2 56.0524 187.96 53.4224 187.96 53.4224C187.332 55.3606 186.239 57.1157 184.776 58.5345C183.314 59.9533 181.527 60.9928 179.57 61.5623L179.9 55.8524Z" fill="#C4765B"/>
<path id="Vector_62" fill-rule="evenodd" clip-rule="evenodd" d="M189.933 39.712C188.183 35.192 184.273 36.582 184.273 36.582C184.446 37.158 184.731 37.694 185.112 38.1592C185.493 38.6243 185.963 39.0093 186.493 39.2919C187.56 39.8165 188.772 39.9646 189.933 39.712Z" fill="white"/>
<path id="Vector_63" fill-rule="evenodd" clip-rule="evenodd" d="M184.266 36.5824C184.873 36.3942 185.514 36.3379 186.145 36.4172C186.776 36.4965 187.383 36.7097 187.926 37.0424C187.939 37.2736 187.922 37.5055 187.876 37.7324C187.722 38.1126 187.448 38.4324 187.096 38.6435C186.745 38.8545 186.334 38.9454 185.926 38.9024C185.123 38.3422 184.537 37.5231 184.266 36.5824Z" fill="#7C75D1"/>
<path id="Vector_64" fill-rule="evenodd" clip-rule="evenodd" d="M179.459 34.7718C177.839 30.5918 174.219 31.8817 174.219 31.8817C174.38 32.415 174.645 32.9111 174.999 33.3418C175.352 33.7725 175.787 34.1292 176.279 34.3918C177.265 34.8741 178.386 35.008 179.459 34.7718Z" fill="white"/>
<path id="Vector_65" fill-rule="evenodd" clip-rule="evenodd" d="M174.266 31.882C174.828 31.7048 175.421 31.6506 176.006 31.7231C176.591 31.7955 177.154 31.993 177.656 32.302C177.669 32.5166 177.652 32.732 177.606 32.942C177.464 33.2952 177.21 33.5921 176.883 33.7872C176.556 33.9823 176.174 34.0648 175.796 34.022C175.059 33.5015 174.52 32.7474 174.266 31.882Z" fill="#7C75D1"/>
<path id="Vector_66" d="M184.442 41.9417C184.004 42.267 183.673 42.7146 183.489 43.2281C183.306 43.7416 183.278 44.2979 183.411 44.8269C183.543 45.3559 183.829 45.8337 184.233 46.2003C184.637 46.5668 185.14 46.8056 185.679 46.8864C186.218 46.9672 186.769 46.8865 187.263 46.6544C187.756 46.4223 188.17 46.0493 188.451 45.5824C188.733 45.1154 188.87 44.5755 188.845 44.0308C188.82 43.4861 188.635 42.961 188.312 42.5217C187.873 41.9345 187.221 41.5441 186.496 41.4355C185.771 41.3269 185.033 41.5088 184.442 41.9417Z" fill="#C4765B"/>
<path id="Vector_67" d="M173.569 39.4024C173.181 39.6781 172.729 39.8526 172.256 39.9102C171.783 39.9678 171.303 39.9067 170.859 39.7324C171.453 37.9884 172.189 36.296 173.059 34.6724C173.501 34.8478 173.883 35.1462 174.159 35.5323C174.591 36.1249 174.772 36.864 174.661 37.5888C174.551 38.3136 174.158 38.9655 173.569 39.4024Z" fill="#C4765B"/>
<path id="Vector_68" fill-rule="evenodd" clip-rule="evenodd" d="M192.073 37.6622L191.073 38.1122C190.489 36.9928 189.601 36.0609 188.512 35.424C187.422 34.7871 186.174 34.471 184.913 34.5122L184.812 33.4522C186.3 33.3752 187.779 33.7321 189.067 34.4795C190.356 35.2269 191.4 36.3326 192.073 37.6622Z" fill="#FFC857"/>
<path id="Vector_69" fill-rule="evenodd" clip-rule="evenodd" d="M181.493 32.8622L180.493 33.3122C179.955 32.2788 179.135 31.4194 178.127 30.8335C177.12 30.2476 175.968 29.9593 174.803 30.0022L174.703 28.9222C176.094 28.854 177.476 29.1897 178.68 29.8888C179.885 30.5879 180.862 31.6205 181.493 32.8622Z" fill="#FFC857"/>
<path id="Vector_70" fill-rule="evenodd" clip-rule="evenodd" d="M180.718 35.6723C180.198 35.2823 176.098 39.9022 175.968 40.5322C175.818 41.3322 178.128 42.8723 178.458 42.6723C179.368 42.1123 181.508 36.2623 180.718 35.6723Z" fill="#C4765B"/>
<path id="Vector_71" d="M172.539 45.1316C174.699 47.9316 178.439 47.6616 180.989 46.2316L180.379 45.1616C178.279 46.3316 175.229 46.5916 173.509 44.3716L172.539 45.1316Z" fill="#C4765B"/>
<path id="Vector_72" fill-rule="evenodd" clip-rule="evenodd" d="M206.591 26.832C207.784 27.2833 208.856 28.0049 209.724 28.94C210.591 29.8751 211.231 30.9985 211.591 32.2219C212.096 33.8895 212.122 35.6656 211.666 37.3472C211.21 39.0288 210.29 40.5482 209.011 41.732C206.711 43.672 203.521 44.5319 201.271 46.0719C200.221 46.7819 198.361 48.922 197.511 48.762C195.761 48.442 196.711 43.602 197.051 42.082C197.672 38.8286 199.265 35.8402 201.621 33.5119C200.161 30.702 199.031 27.8219 196.221 26.5919C191.761 24.6419 187.771 28.7719 183.081 28.5919C179.471 28.4519 177.251 25.5319 176.281 22.3719C175.631 20.2419 175.001 16.0519 176.281 14.5119C177.201 13.4019 178.561 15.5719 179.571 16.0419C183.331 17.7819 188.931 16.272 193.571 16.272C196.403 16.2797 199.186 17.0057 201.661 18.3819C204.411 20.0319 206.261 22.782 206.591 26.832Z" fill="#FFC857"/>
<path id="Vector_73" fill-rule="evenodd" clip-rule="evenodd" d="M209.788 34.7518C208.458 33.4418 206.928 32.2119 207.498 30.1519C209.948 30.2619 211.628 33.4818 209.788 34.7518Z" fill="white"/>
<path id="Vector_74" fill-rule="evenodd" clip-rule="evenodd" d="M208.69 36.1821C210.07 36.9921 208.11 39.5521 206.96 39.0221C206.13 37.9621 207.71 36.3521 208.69 36.1821Z" fill="white"/>
<path id="Vector_75" fill-rule="evenodd" clip-rule="evenodd" d="M181.189 23.7217C180.989 23.6417 180.919 23.9017 180.809 24.0417C178.699 23.7217 176.929 21.9016 177.279 20.0916C179.169 19.3616 181.679 21.9317 181.189 23.7217Z" fill="white"/>
<path id="Vector_76" fill-rule="evenodd" clip-rule="evenodd" d="M186.161 24.9522C185.691 26.0722 183.571 25.3822 183.281 24.4022C183.731 23.2022 185.881 23.9822 186.161 24.9522Z" fill="white"/>
<path id="Vector_77" fill-rule="evenodd" clip-rule="evenodd" d="M172.844 92.1026C173.316 92.6606 173.932 93.0787 174.624 93.3114C175.317 93.5442 176.061 93.5826 176.774 93.4226C180.404 92.1926 181.094 85.2126 183.164 80.9326C183.164 82.4626 183.464 84.2526 185.654 84.8026C187.844 85.3526 191.964 79.6325 193.444 77.6925C194.574 76.2125 195.794 74.4025 196.724 73.1625C197.974 71.4925 201.064 68.2126 199.034 66.7926C197.214 65.5226 192.604 69.3525 191.094 70.4725C183.774 75.8325 177.334 81.4626 172.844 92.1026Z" fill="#3C91E6"/>
<path id="Vector_78" fill-rule="evenodd" clip-rule="evenodd" d="M152.259 86.8225C150.639 87.2125 151.379 90.5025 152.019 92.6725C147.902 90.0371 143.32 88.2111 138.519 87.2925C137.239 87.0925 135.069 86.5725 134.519 87.5925C133.809 88.9225 136.219 89.9925 137.459 90.5225C138.9 91.0099 140.307 91.5946 141.669 92.2725C141.419 92.4425 140.179 93.2725 140.279 94.2125C140.349 94.9925 140.759 95.2725 141.509 95.7225C140.749 96.5425 140.509 96.9025 140.779 97.9225C141.049 99.1425 142.899 99.6525 142.899 99.6525C142.74 100.563 142.815 101.499 143.119 102.372C144.219 105.202 150.909 106.193 155.119 109.833C151.339 106.533 157.179 100.832 160.539 97.3125C158.939 95.9147 157.551 94.291 156.419 92.4925C155.299 90.7025 154.839 88.6325 153.839 87.3025C153.641 87.0996 153.396 86.9495 153.125 86.8656C152.854 86.7818 152.567 86.767 152.289 86.8225" fill="#DB9171"/>
<path id="Vector_79" fill-rule="evenodd" clip-rule="evenodd" d="M151.844 87.0121C150.484 88.0121 150.744 92.0821 153.294 94.0621C152.483 92.6071 152.134 90.94 152.294 89.2821C152.464 88.4021 153.394 87.2821 154.294 88.1721C153.804 86.6721 152.574 86.4621 151.794 87.0121" fill="#C4765B"/>
<path id="Vector_80" fill-rule="evenodd" clip-rule="evenodd" d="M143.514 92.2624C140.654 91.5524 138.514 94.5424 141.514 95.7724C141.27 95.9422 141.068 96.1639 140.921 96.4216C140.774 96.6793 140.686 96.9665 140.664 97.2624C140.699 97.8649 140.941 98.4367 141.349 98.8813C141.757 99.3259 142.306 99.6159 142.904 99.7024C142.691 100.633 142.75 101.605 143.073 102.503C143.395 103.402 143.968 104.189 144.724 104.772C145.984 105.862 149.894 106.402 151.474 107.452C150.836 106.875 150.168 106.331 149.474 105.822C146.984 104.182 143.684 102.822 145.134 100.432C144.134 99.7824 143.444 99.1524 143.314 98.2924C143.257 97.8833 143.286 97.4671 143.398 97.0696C143.51 96.6721 143.702 96.302 143.964 95.9824C143.194 94.9824 142.144 93.2024 143.544 92.2624" fill="#C4765B"/>
<path id="Vector_81" fill-rule="evenodd" clip-rule="evenodd" d="M196.612 119.162C185.342 111.982 173.442 103.542 160.682 96.5424C157.182 100.182 153.942 104.302 150.492 108.042C157.372 116.212 164.662 123.102 173.042 130.662C177.098 134.446 181.376 137.986 185.852 141.262C190.412 144.512 196.232 148.372 202.432 149.642C208.132 150.812 212.312 148.532 214.682 142.362C217.492 135.052 220.122 112.362 218.772 99.4524C218.112 93.1524 216.772 86.2724 214.312 81.8324C212.632 78.8324 208.432 74.8324 205.042 73.7624C196.192 71.0224 196.882 83.8924 196.662 90.3524C196.092 107.002 196.262 103.262 196.612 119.162Z" fill="#3C91E6"/>
<path id="Vector_82" d="M207.171 122.892C205.961 124.462 200.271 121.292 196.611 119.162L196.531 114.232C199.831 115.832 208.261 121.452 207.171 122.892Z" fill="#347AC1"/>
<path id="Vector_83" fill-rule="evenodd" clip-rule="evenodd" d="M205.499 145.952C205.649 148.742 211.499 145.122 210.499 143.292C209.329 141.162 206.049 144.292 205.499 145.692C205.479 145.778 205.479 145.867 205.499 145.952Z" fill="white"/>
<path id="Vector_84" fill-rule="evenodd" clip-rule="evenodd" d="M208.411 139.532C208.851 141.752 213.911 138.972 212.411 137.182C211.261 135.812 208.111 138.002 208.411 139.532Z" fill="white"/>
</g>
</svg>
