<svg width="17" height="16" viewBox="0 0 17 16" fill="none" xmlns="http://www.w3.org/2000/svg">
<g id="vuesax/linear/edit">
<g id="edit">
<path id="Vector" d="M7.83301 1.33337H6.49967C3.16634 1.33337 1.83301 2.66671 1.83301 6.00004V10C1.83301 13.3334 3.16634 14.6667 6.49967 14.6667H10.4997C13.833 14.6667 15.1663 13.3334 15.1663 10V8.66671" stroke="#4B0082" stroke-width="1.5" stroke-linecap="round" stroke-linejoin="round"/>
<path id="Vector_2" d="M11.1933 2.01338L5.93992 7.26671C5.73992 7.46671 5.53992 7.86005 5.49992 8.14671L5.21325 10.1534C5.10659 10.88 5.61992 11.3867 6.34659 11.2867L8.35325 11C8.63325 10.96 9.02659 10.76 9.23325 10.56L14.4866 5.30671C15.3933 4.40005 15.8199 3.34671 14.4866 2.01338C13.1533 0.680046 12.0999 1.10671 11.1933 2.01338Z" stroke="#4B0082" stroke-width="1.5" stroke-miterlimit="10" stroke-linecap="round" stroke-linejoin="round"/>
<path id="Vector_3" d="M10.4404 2.76672C10.8871 4.36006 12.1338 5.60672 13.7338 6.06006" stroke="#4B0082" stroke-width="1.5" stroke-miterlimit="10" stroke-linecap="round" stroke-linejoin="round"/>
</g>
</g>
</svg>
