<svg width="25" height="24" viewBox="0 0 25 24" fill="none" xmlns="http://www.w3.org/2000/svg">
<g id="vuesax/linear/like">
<g id="like">
<path id="Vector" d="M7.98047 18.35L11.0805 20.75C11.4805 21.15 12.3805 21.35 12.9805 21.35H16.7805C17.9805 21.35 19.2805 20.45 19.5805 19.25L21.9805 11.95C22.4805 10.55 21.5805 9.34997 20.0805 9.34997H16.0805C15.4805 9.34997 14.9805 8.84997 15.0805 8.14997L15.5805 4.94997C15.7805 4.04997 15.1805 3.04997 14.2805 2.74997C13.4805 2.44997 12.4805 2.84997 12.0805 3.44997L7.98047 9.54997" stroke="#4B0082" stroke-width="1.5" stroke-miterlimit="10"/>
<path id="Vector_2" d="M2.87891 18.3499V8.5499C2.87891 7.1499 3.47891 6.6499 4.87891 6.6499H5.87891C7.27891 6.6499 7.87891 7.1499 7.87891 8.5499V18.3499C7.87891 19.7499 7.27891 20.2499 5.87891 20.2499H4.87891C3.47891 20.2499 2.87891 19.7499 2.87891 18.3499Z" stroke="#4B0082" stroke-width="1.5" stroke-linecap="round" stroke-linejoin="round"/>
</g>
</g>
</svg>
