<svg width="48" height="48" viewBox="0 0 48 48" fill="none" xmlns="http://www.w3.org/2000/svg">
<rect width="48" height="48" rx="24" fill="#E7DFEE"/>
<path d="M31.11 16.9601C27.2 13.0501 20.85 13.0501 16.94 16.9601C12.96 20.9401 13.03 27.4301 17.14 31.3301C20.94 34.9201 27.1 34.9201 30.9 31.3301C35.02 27.4301 35.09 20.9401 31.11 16.9601ZM28.38 28.6501C27.18 29.7901 25.6 30.3601 24.02 30.3601C22.44 30.3601 20.86 29.7901 19.66 28.6501C19.36 28.3601 19.35 27.8901 19.63 27.5901C19.92 27.2901 20.39 27.2801 20.69 27.5601C22.52 29.2901 25.51 29.3001 27.35 27.5601C27.65 27.2801 28.13 27.2901 28.41 27.5901C28.7 27.8901 28.68 28.3601 28.38 28.6501Z" fill="#4B0082"/>
</svg>
