<svg width="48" height="48" viewBox="0 0 48 48" fill="none" xmlns="http://www.w3.org/2000/svg">
<rect width="48" height="48" rx="24" fill="#E7DFEE"/>
<path d="M29.5401 20.8099C31.1748 20.8099 32.5001 19.4847 32.5001 17.8499C32.5001 16.2151 31.1748 14.8899 29.5401 14.8899C27.9053 14.8899 26.5801 16.2151 26.5801 17.8499C26.5801 19.4847 27.9053 20.8099 29.5401 20.8099Z" fill="#4B0082"/>
<path d="M18.46 20.8099C20.0948 20.8099 21.42 19.4847 21.42 17.8499C21.42 16.2151 20.0948 14.8899 18.46 14.8899C16.8252 14.8899 15.5 16.2151 15.5 17.8499C15.5 19.4847 16.8252 20.8099 18.46 20.8099Z" fill="#4B0082"/>
<path d="M29.5401 33.1099C31.1748 33.1099 32.5001 31.7847 32.5001 30.1499C32.5001 28.5152 31.1748 27.1899 29.5401 27.1899C27.9053 27.1899 26.5801 28.5152 26.5801 30.1499C26.5801 31.7847 27.9053 33.1099 29.5401 33.1099Z" fill="#4B0082"/>
<path d="M18.46 33.1099C20.0948 33.1099 21.42 31.7847 21.42 30.1499C21.42 28.5152 20.0948 27.1899 18.46 27.1899C16.8252 27.1899 15.5 28.5152 15.5 30.1499C15.5 31.7847 16.8252 33.1099 18.46 33.1099Z" fill="#4B0082"/>
</svg>
