<svg width="48" height="48" viewBox="0 0 48 48" fill="none" xmlns="http://www.w3.org/2000/svg">
<rect width="48" height="48" rx="24" fill="#E7DFEE"/>
<path d="M33.75 20.0001C33.75 20.4101 33.41 20.7501 33 20.7501H15C14.59 20.7501 14.25 20.4101 14.25 20.0001C14.25 19.5901 14.59 19.2501 15 19.2501H16.02L16.4 17.4401C16.76 15.6901 17.51 14.0801 20.49 14.0801H27.51C30.49 14.0801 31.24 15.6901 31.6 17.4401L31.98 19.2501H33C33.41 19.2501 33.75 19.5901 33.75 20.0001Z" fill="#4B0082"/>
<path d="M34.1801 25.66C34.0301 24.01 33.5901 22.25 30.3801 22.25H17.6201C14.4101 22.25 13.9801 24.01 13.8201 25.66L13.2601 31.75C13.1901 32.51 13.4401 33.27 13.9601 33.84C14.4901 34.42 15.2401 34.75 16.0401 34.75H17.9201C19.5401 34.75 19.8501 33.82 20.0501 33.21L20.2501 32.61C20.4801 31.92 20.5401 31.75 21.4401 31.75H26.5601C27.4601 31.75 27.4901 31.85 27.7501 32.61L27.9501 33.21C28.1501 33.82 28.4601 34.75 30.0801 34.75H31.9601C32.7501 34.75 33.5101 34.42 34.0401 33.84C34.5601 33.27 34.8101 32.51 34.7401 31.75L34.1801 25.66ZM21.0001 27.75H18.0001C17.5901 27.75 17.2501 27.41 17.2501 27C17.2501 26.59 17.5901 26.25 18.0001 26.25H21.0001C21.4101 26.25 21.7501 26.59 21.7501 27C21.7501 27.41 21.4101 27.75 21.0001 27.75ZM30.0001 27.75H27.0001C26.5901 27.75 26.2501 27.41 26.2501 27C26.2501 26.59 26.5901 26.25 27.0001 26.25H30.0001C30.4101 26.25 30.7501 26.59 30.7501 27C30.7501 27.41 30.4101 27.75 30.0001 27.75Z" fill="#4B0082"/>
</svg>
