<svg width="32" height="32" viewBox="0 0 32 32" fill="none" xmlns="http://www.w3.org/2000/svg">
<rect width="32" height="32" rx="16" fill="#0496FF"/>
<path d="M11.3333 20.1666C11.2066 20.1666 11.08 20.12 10.98 20.02C10.7866 19.8266 10.7866 19.5066 10.98 19.3133L20.3133 9.97996C20.5066 9.78663 20.8266 9.78663 21.02 9.97996C21.2133 10.1733 21.2133 10.4933 21.02 10.6866L11.6866 20.02C11.5866 20.12 11.46 20.1666 11.3333 20.1666Z" fill="#F4F4F4"/>
<path d="M18.1799 20.1666H11.3333C11.0599 20.1666 10.8333 19.9399 10.8333 19.6666V12.8199C10.8333 12.5466 11.0599 12.3199 11.3333 12.3199C11.6066 12.3199 11.8333 12.5466 11.8333 12.8199V19.1666H18.1799C18.4533 19.1666 18.6799 19.3933 18.6799 19.6666C18.6799 19.9399 18.4533 20.1666 18.1799 20.1666Z" fill="#F4F4F4"/>
<path d="M21.6666 23.1666H10.3333C10.0599 23.1666 9.83325 22.94 9.83325 22.6666C9.83325 22.3933 10.0599 22.1666 10.3333 22.1666H21.6666C21.9399 22.1666 22.1666 22.3933 22.1666 22.6666C22.1666 22.94 21.9399 23.1666 21.6666 23.1666Z" fill="#F4F4F4"/>
</svg>
