<svg width="32" height="32" viewBox="0 0 32 32" fill="none" xmlns="http://www.w3.org/2000/svg">
<rect width="32" height="32" rx="16" fill="#4B0082"/>
<path d="M11.3333 20.1667C11.2066 20.1667 11.08 20.12 10.98 20.02C10.7866 19.8267 10.7866 19.5067 10.98 19.3133L20.3133 9.98001C20.5066 9.78667 20.8266 9.78667 21.02 9.98001C21.2133 10.1733 21.2133 10.4933 21.02 10.6867L11.6866 20.02C11.5866 20.12 11.46 20.1667 11.3333 20.1667Z" fill="#F4F4F4"/>
<path d="M18.1802 20.1667H11.3335C11.0602 20.1667 10.8335 19.94 10.8335 19.6667V12.82C10.8335 12.5467 11.0602 12.32 11.3335 12.32C11.6068 12.32 11.8335 12.5467 11.8335 12.82V19.1667H18.1802C18.4535 19.1667 18.6802 19.3933 18.6802 19.6667C18.6802 19.94 18.4535 20.1667 18.1802 20.1667Z" fill="#F4F4F4"/>
<path d="M21.6668 23.1667H10.3335C10.0602 23.1667 9.8335 22.94 9.8335 22.6667C9.8335 22.3933 10.0602 22.1667 10.3335 22.1667H21.6668C21.9402 22.1667 22.1668 22.3933 22.1668 22.6667C22.1668 22.94 21.9402 23.1667 21.6668 23.1667Z" fill="#F4F4F4"/>
</svg>
