<svg width="34" height="34" viewBox="0 0 34 34" fill="none" xmlns="http://www.w3.org/2000/svg">
<rect width="34" height="34" rx="17" fill="#1D1A2E"/>
<path d="M22.355 23.1875C22.2125 23.1875 22.07 23.135 21.9575 23.03C21.7325 22.8125 21.7325 22.46 21.95 22.235C23.2325 20.93 23.9375 19.205 23.9375 17.375C23.9375 13.55 20.825 10.4375 17 10.4375C13.175 10.4375 10.0625 13.55 10.0625 17.375C10.0625 19.1975 10.76 20.915 12.035 22.22C12.2525 22.445 12.245 22.7975 12.0275 23.015C11.8025 23.2325 11.45 23.225 11.2325 23.0075C9.755 21.4925 8.9375 19.49 8.9375 17.375C8.9375 12.9275 12.5525 9.3125 17 9.3125C21.4475 9.3125 25.0625 12.9275 25.0625 17.375C25.0625 19.4975 24.245 21.5075 22.7525 23.0225C22.6475 23.135 22.4975 23.1875 22.355 23.1875Z" fill="#F4F4F4"/>
<path d="M17.0002 24.6875C15.2977 24.6875 13.9102 23.3 13.9102 21.5975C13.9102 19.895 15.2977 18.5 17.0002 18.5C18.7027 18.5 20.0901 19.8875 20.0901 21.59C20.0901 23.2925 18.7027 24.6875 17.0002 24.6875ZM17.0002 19.625C15.9127 19.625 15.0352 20.51 15.0352 21.59C15.0352 22.67 15.9202 23.555 17.0002 23.555C18.0802 23.555 18.9651 22.67 18.9651 21.59C18.9651 20.51 18.0877 19.625 17.0002 19.625Z" fill="#F4F4F4"/>
<path d="M20 17.5625H19.4375C18.815 17.5625 18.3125 17.06 18.3125 16.4375V15.875C18.3125 14.945 19.07 14.1875 20 14.1875C20.93 14.1875 21.6875 14.945 21.6875 15.875C21.6875 16.805 20.93 17.5625 20 17.5625ZM20 15.3125C19.6925 15.3125 19.4375 15.5675 19.4375 15.875V16.4375H20C20.3075 16.4375 20.5625 16.1825 20.5625 15.875C20.5625 15.5675 20.3075 15.3125 20 15.3125Z" fill="#F4F4F4"/>
</svg>
