<svg width="32" height="32" viewBox="0 0 32 32" fill="none" xmlns="http://www.w3.org/2000/svg">
<rect width="32" height="32" rx="16" fill="#1D1A2E"/>
<path d="M11.3343 20.1676C11.2076 20.1676 11.0809 20.1209 10.9809 20.0209C10.7876 19.8276 10.7876 19.5076 10.9809 19.3143L20.3143 9.98094C20.5076 9.7876 20.8276 9.7876 21.0209 9.98094C21.2143 10.1743 21.2143 10.4943 21.0209 10.6876L11.6876 20.0209C11.5876 20.1209 11.4609 20.1676 11.3343 20.1676Z" fill="#F4F4F4"/>
<path d="M18.1826 20.167H11.3359C11.0626 20.167 10.8359 19.9403 10.8359 19.667V12.8203C10.8359 12.547 11.0626 12.3203 11.3359 12.3203C11.6093 12.3203 11.8359 12.547 11.8359 12.8203V19.167H18.1826C18.4559 19.167 18.6826 19.3936 18.6826 19.667C18.6826 19.9403 18.4559 20.167 18.1826 20.167Z" fill="#F4F4F4"/>
<path d="M21.6693 23.166H10.3359C10.0626 23.166 9.83594 22.9393 9.83594 22.666C9.83594 22.3927 10.0626 22.166 10.3359 22.166H21.6693C21.9426 22.166 22.1693 22.3927 22.1693 22.666C22.1693 22.9393 21.9426 23.166 21.6693 23.166Z" fill="#F4F4F4"/>
</svg>
