<svg width="32" height="32" viewBox="0 0 32 32" fill="none" xmlns="http://www.w3.org/2000/svg">
<rect width="32" height="32" rx="16" fill="#8BBEB2"/>
<path d="M21.6693 23.166H10.3359C10.0626 23.166 9.83594 22.9393 9.83594 22.666C9.83594 22.3927 10.0626 22.166 10.3359 22.166H21.6693C21.9426 22.166 22.1693 22.3927 22.1693 22.666C22.1693 22.9393 21.9426 23.166 21.6693 23.166Z" fill="#F4F4F4"/>
<path d="M20.6676 20.1676C20.5409 20.1676 20.4143 20.1209 20.3143 20.0209L10.9809 10.6876C10.7876 10.4943 10.7876 10.1743 10.9809 9.98094C11.1743 9.7876 11.4943 9.7876 11.6876 9.98094L21.0209 19.3143C21.2143 19.5076 21.2143 19.8276 21.0209 20.0209C20.9209 20.1209 20.7943 20.1676 20.6676 20.1676Z" fill="#F4F4F4"/>
<path d="M11.3359 17.6807C11.0626 17.6807 10.8359 17.454 10.8359 17.1807V10.334C10.8359 10.0607 11.0626 9.83398 11.3359 9.83398H18.1826C18.4559 9.83398 18.6826 10.0607 18.6826 10.334C18.6826 10.6073 18.4559 10.834 18.1826 10.834H11.8359V17.1807C11.8359 17.454 11.6093 17.6807 11.3359 17.6807Z" fill="#F4F4F4"/>
</svg>
