<svg width="32" height="32" viewBox="0 0 32 32" fill="none" xmlns="http://www.w3.org/2000/svg">
<rect width="32" height="32" rx="16" fill="#0496FF"/>
<path d="M21.6666 23.1667H10.3333C10.0599 23.1667 9.83325 22.94 9.83325 22.6667C9.83325 22.3933 10.0599 22.1667 10.3333 22.1667H21.6666C21.9399 22.1667 22.1666 22.3933 22.1666 22.6667C22.1666 22.94 21.9399 23.1667 21.6666 23.1667Z" fill="#F4F4F4"/>
<path d="M20.6666 20.1667C20.54 20.1667 20.4133 20.12 20.3133 20.02L10.98 10.6867C10.7866 10.4933 10.7866 10.1733 10.98 9.98001C11.1733 9.78667 11.4933 9.78667 11.6866 9.98001L21.02 19.3133C21.2133 19.5067 21.2133 19.8267 21.02 20.02C20.92 20.12 20.7933 20.1667 20.6666 20.1667Z" fill="#F4F4F4"/>
<path d="M11.3333 17.68C11.0599 17.68 10.8333 17.4533 10.8333 17.18V10.3333C10.8333 10.06 11.0599 9.83333 11.3333 9.83333H18.1799C18.4533 9.83333 18.6799 10.06 18.6799 10.3333C18.6799 10.6067 18.4533 10.8333 18.1799 10.8333H11.8333V17.18C11.8333 17.4533 11.6066 17.68 11.3333 17.68Z" fill="#F4F4F4"/>
</svg>
