<svg width="32" height="32" viewBox="0 0 32 32" fill="none" xmlns="http://www.w3.org/2000/svg">
<rect width="32" height="32" rx="16" fill="#4B0082"/>
<path d="M21.6668 23.1666H10.3335C10.0602 23.1666 9.8335 22.94 9.8335 22.6666C9.8335 22.3933 10.0602 22.1666 10.3335 22.1666H21.6668C21.9402 22.1666 22.1668 22.3933 22.1668 22.6666C22.1668 22.94 21.9402 23.1666 21.6668 23.1666Z" fill="#F4F4F4"/>
<path d="M20.6666 20.1666C20.54 20.1666 20.4133 20.12 20.3133 20.02L10.98 10.6866C10.7866 10.4933 10.7866 10.1733 10.98 9.97996C11.1733 9.78663 11.4933 9.78663 11.6866 9.97996L21.02 19.3133C21.2133 19.5066 21.2133 19.8266 21.02 20.02C20.92 20.12 20.7933 20.1666 20.6666 20.1666Z" fill="#F4F4F4"/>
<path d="M11.3335 17.68C11.0602 17.68 10.8335 17.4534 10.8335 17.18V10.3334C10.8335 10.06 11.0602 9.83337 11.3335 9.83337H18.1802C18.4535 9.83337 18.6802 10.06 18.6802 10.3334C18.6802 10.6067 18.4535 10.8334 18.1802 10.8334H11.8335V17.18C11.8335 17.4534 11.6068 17.68 11.3335 17.68Z" fill="#F4F4F4"/>
</svg>
