<svg width="24" height="24" viewBox="0 0 24 24" fill="none" xmlns="http://www.w3.org/2000/svg">
<g id="vuesax/linear/key-square">
<g id="key-square">
<path id="Vector" d="M9 22.0001H15C20 22.0001 22 20.0001 22 15.0001V9.00006C22 4.00006 20 2.00006 15 2.00006H9C4 2.00006 2 4.00006 2 9.00006V15.0001C2 20.0001 4 22.0001 9 22.0001Z" stroke="#4B0082" stroke-width="1.5" stroke-linecap="round" stroke-linejoin="round"/>
<path id="Vector_2" d="M16.2812 13.6101C15.1512 14.7401 13.5312 15.0901 12.1012 14.6401L9.51117 17.2201C9.33117 17.4101 8.96117 17.5301 8.69117 17.4901L7.49117 17.3301C7.09117 17.2801 6.73117 16.9001 6.67117 16.5101L6.51117 15.3101C6.47117 15.0501 6.60117 14.6801 6.78117 14.4901L9.36117 11.9101C8.92117 10.4801 9.26117 8.86008 10.3912 7.73008C12.0112 6.11008 14.6512 6.11008 16.2812 7.73008C17.9012 9.34008 17.9012 11.9801 16.2812 13.6101Z" stroke="#4B0082" stroke-width="1.5" stroke-miterlimit="10" stroke-linecap="round" stroke-linejoin="round"/>
<path id="Vector_3" d="M10.4516 16.28L9.60156 15.42" stroke="#4B0082" stroke-width="1.5" stroke-miterlimit="10" stroke-linecap="round" stroke-linejoin="round"/>
<path id="Vector_4" d="M13.3929 10.7H13.4019" stroke="#4B0082" stroke-width="2" stroke-linecap="round" stroke-linejoin="round"/>
</g>
</g>
</svg>
