<svg width="25" height="24" viewBox="0 0 25 24" fill="none" xmlns="http://www.w3.org/2000/svg">
<g id="vuesax/linear/finger-scan">
<g id="finger-scan">
<path id="Vector" d="M12.5016 14.8801C11.5916 14.8801 10.8516 14.14 10.8516 13.23V10.7601C10.8516 9.85007 11.5916 9.11005 12.5016 9.11005C13.4116 9.11005 14.1516 9.85007 14.1516 10.7601V13.23C14.1516 14.14 13.4116 14.8801 12.5016 14.8801Z" stroke="#4B0082" stroke-width="1.5" stroke-linecap="round"/>
<path id="Vector_2" d="M17.48 13.47C17.28 16.05 15.12 18.0701 12.5 18.0701C9.74 18.0701 7.5 15.8301 7.5 13.0701V10.9301C7.5 8.17005 9.74 5.93005 12.5 5.93005C15.09 5.93005 17.22 7.90004 17.47 10.42" stroke="#4B0082" stroke-width="1.5" stroke-linecap="round"/>
<path id="Vector_3" d="M15.5 2.00006H17.5C20.5 2.00006 22.5 4.00006 22.5 7.00006V9.00006" stroke="#4B0082" stroke-width="1.5" stroke-miterlimit="10" stroke-linecap="round" stroke-linejoin="round"/>
<path id="Vector_4" d="M2.5 9.00006V7.00006C2.5 4.00006 4.5 2.00006 7.5 2.00006H9.5" stroke="#4B0082" stroke-width="1.5" stroke-miterlimit="10" stroke-linecap="round" stroke-linejoin="round"/>
<path id="Vector_5" d="M15.5 22.0001H17.5C20.5 22.0001 22.5 20.0001 22.5 17.0001V15.0001" stroke="#4B0082" stroke-width="1.5" stroke-miterlimit="10" stroke-linecap="round" stroke-linejoin="round"/>
<path id="Vector_6" d="M2.5 15.0001V17.0001C2.5 20.0001 4.5 22.0001 7.5 22.0001H9.5" stroke="#4B0082" stroke-width="1.5" stroke-miterlimit="10" stroke-linecap="round" stroke-linejoin="round"/>
</g>
</g>
</svg>
