<svg width="473" height="213" viewBox="0 0 473 213" fill="none" xmlns="http://www.w3.org/2000/svg">
<line x1="1" y1="188.5" x2="473" y2="188.5" stroke="#CEBFDD"/>
<path d="M1.472 175.728C1.472 174.795 1.584 173.984 1.808 173.296C2.03733 172.608 2.34667 172.04 2.736 171.592C3.12533 171.139 3.56267 170.803 4.048 170.584C4.53333 170.36 5.03467 170.248 5.552 170.248C6.07467 170.248 6.57867 170.36 7.064 170.584C7.55467 170.803 7.992 171.139 8.376 171.592C8.76 172.04 9.064 172.608 9.288 173.296C9.512 173.984 9.624 174.795 9.624 175.728C9.624 176.693 9.512 177.52 9.288 178.208C9.064 178.896 8.76 179.461 8.376 179.904C7.992 180.341 7.55467 180.667 7.064 180.88C6.57867 181.088 6.07467 181.192 5.552 181.192C5.03467 181.192 4.53333 181.088 4.048 180.88C3.56267 180.667 3.12533 180.341 2.736 179.904C2.34667 179.461 2.03733 178.896 1.808 178.208C1.584 177.52 1.472 176.693 1.472 175.728ZM3.176 175.728C3.176 176.613 3.28 177.352 3.488 177.944C3.70133 178.531 3.98667 178.968 4.344 179.256C4.70667 179.539 5.10933 179.68 5.552 179.68C6.00533 179.68 6.408 179.536 6.76 179.248C7.11733 178.96 7.4 178.523 7.608 177.936C7.816 177.349 7.92 176.613 7.92 175.728C7.92 174.859 7.816 174.131 7.608 173.544C7.4 172.957 7.11733 172.515 6.76 172.216C6.408 171.912 6.00533 171.76 5.552 171.76C5.10933 171.76 4.70667 171.912 4.344 172.216C3.98667 172.515 3.70133 172.96 3.488 173.552C3.28 174.139 3.176 174.864 3.176 175.728Z" fill="#BFABD3"/>
<line x1="1" y1="155.5" x2="473" y2="155.5" stroke="#CEBFDD" stroke-dasharray="3 3"/>
<path d="M1.816 148V137.44H4.16L9.264 146.4L9.16 146.424V137.44H10.832V148H8.48L3.384 139.016L3.496 139.032V148H1.816ZM0.936 143.288V142.144H11.752V143.288H0.936ZM16.4221 138.712C16.0115 138.712 15.6488 138.8 15.3341 138.976C15.0248 139.147 14.7661 139.349 14.5581 139.584C14.3501 139.819 14.1901 140.032 14.0781 140.224C13.9715 140.416 13.9128 140.523 13.9021 140.544L12.4381 139.888C12.4488 139.84 12.4995 139.72 12.5901 139.528C12.6808 139.331 12.8221 139.107 13.0141 138.856C13.2061 138.6 13.4541 138.349 13.7581 138.104C14.0675 137.859 14.4408 137.656 14.8781 137.496C15.3208 137.331 15.8355 137.248 16.4221 137.248C17.0568 137.248 17.5955 137.336 18.0381 137.512C18.4808 137.688 18.8408 137.931 19.1181 138.24C19.3955 138.544 19.5981 138.893 19.7261 139.288C19.8541 139.683 19.9181 140.099 19.9181 140.536C19.9181 140.984 19.8141 141.437 19.6061 141.896C19.4035 142.355 19.1395 142.8 18.8141 143.232C18.4888 143.659 18.1395 144.059 17.7661 144.432C17.3928 144.805 17.0301 145.139 16.6781 145.432C16.3315 145.725 16.0328 145.965 15.7821 146.152C15.5368 146.339 15.3821 146.456 15.3181 146.504H19.8301V148H12.7261V146.64C12.8648 146.528 13.0915 146.349 13.4061 146.104C13.7261 145.859 14.0941 145.568 14.5101 145.232C14.9261 144.891 15.3475 144.52 15.7741 144.12C16.2061 143.72 16.6061 143.309 16.9741 142.888C17.3475 142.467 17.6461 142.053 17.8701 141.648C18.0995 141.243 18.2141 140.864 18.2141 140.512C18.2141 139.851 18.0595 139.387 17.7501 139.12C17.4408 138.848 16.9981 138.712 16.4221 138.712ZM21.3783 142.728C21.3783 141.795 21.4903 140.984 21.7143 140.296C21.9436 139.608 22.2529 139.04 22.6423 138.592C23.0316 138.139 23.4689 137.803 23.9543 137.584C24.4396 137.36 24.9409 137.248 25.4583 137.248C25.9809 137.248 26.4849 137.36 26.9703 137.584C27.4609 137.803 27.8983 138.139 28.2823 138.592C28.6663 139.04 28.9703 139.608 29.1943 140.296C29.4183 140.984 29.5303 141.795 29.5303 142.728C29.5303 143.693 29.4183 144.52 29.1943 145.208C28.9703 145.896 28.6663 146.461 28.2823 146.904C27.8983 147.341 27.4609 147.667 26.9703 147.88C26.4849 148.088 25.9809 148.192 25.4583 148.192C24.9409 148.192 24.4396 148.088 23.9543 147.88C23.4689 147.667 23.0316 147.341 22.6423 146.904C22.2529 146.461 21.9436 145.896 21.7143 145.208C21.4903 144.52 21.3783 143.693 21.3783 142.728ZM23.0823 142.728C23.0823 143.613 23.1863 144.352 23.3943 144.944C23.6076 145.531 23.8929 145.968 24.2503 146.256C24.6129 146.539 25.0156 146.68 25.4583 146.68C25.9116 146.68 26.3143 146.536 26.6663 146.248C27.0236 145.96 27.3063 145.523 27.5143 144.936C27.7223 144.349 27.8263 143.613 27.8263 142.728C27.8263 141.859 27.7223 141.131 27.5143 140.544C27.3063 139.957 27.0236 139.515 26.6663 139.216C26.3143 138.912 25.9116 138.76 25.4583 138.76C25.0156 138.76 24.6129 138.912 24.2503 139.216C23.8929 139.515 23.6076 139.96 23.3943 140.552C23.1863 141.139 23.0823 141.864 23.0823 142.728ZM35.2176 141.432H37.2256L33.9216 144.56L37.4736 148H35.4336L32.5456 145.176V148H30.8336V136.992H32.5456V143.936L35.2176 141.432Z" fill="#BFABD3"/>
<path d="M86.336 201.776C86.336 202.485 86.2187 203.096 85.984 203.608C85.7493 204.115 85.4053 204.507 84.952 204.784C84.4987 205.056 83.9413 205.192 83.28 205.192C82.784 205.192 82.36 205.125 82.008 204.992C81.656 204.859 81.3787 204.712 81.176 204.552C80.9787 204.387 80.856 204.264 80.808 204.184L81.496 202.736C81.56 202.827 81.6533 202.939 81.776 203.072C81.904 203.2 82.072 203.315 82.28 203.416C82.4933 203.512 82.7547 203.56 83.064 203.56C83.4213 203.56 83.7173 203.48 83.952 203.32C84.1867 203.155 84.3627 202.92 84.48 202.616C84.5973 202.312 84.656 201.947 84.656 201.52V194.44H86.336V201.776ZM89.7281 201.656C89.7281 202.296 89.8588 202.805 90.1201 203.184C90.3868 203.563 90.8055 203.752 91.3761 203.752C91.9521 203.752 92.3708 203.563 92.6321 203.184C92.8935 202.805 93.0241 202.296 93.0241 201.656V198.432H94.7201V201.872C94.7201 202.533 94.5895 203.115 94.3281 203.616C94.0668 204.112 93.6881 204.499 93.1921 204.776C92.6961 205.053 92.0908 205.192 91.3761 205.192C90.6668 205.192 90.0641 205.053 89.5681 204.776C89.0721 204.499 88.6935 204.112 88.4321 203.616C88.1708 203.115 88.0401 202.533 88.0401 201.872V198.432H89.7281V201.656ZM100.423 198.24C100.866 198.24 101.295 198.331 101.711 198.512C102.127 198.693 102.468 198.984 102.735 199.384C103.007 199.779 103.143 200.293 103.143 200.928V205H101.423V201.24C101.423 200.648 101.282 200.213 100.999 199.936C100.722 199.653 100.362 199.512 99.9191 199.512C99.6258 199.512 99.3458 199.595 99.0791 199.76C98.8125 199.925 98.5938 200.149 98.4231 200.432C98.2578 200.715 98.1751 201.04 98.1751 201.408V205H96.4631V198.432H98.1751V199.536C98.2231 199.355 98.3511 199.165 98.5591 198.968C98.7725 198.765 99.0418 198.595 99.3671 198.456C99.6925 198.312 100.044 198.24 100.423 198.24ZM108.597 199.728C108.597 198.795 108.709 197.984 108.933 197.296C109.162 196.608 109.472 196.04 109.861 195.592C110.25 195.139 110.688 194.803 111.173 194.584C111.658 194.36 112.16 194.248 112.677 194.248C113.2 194.248 113.704 194.36 114.189 194.584C114.68 194.803 115.117 195.139 115.501 195.592C115.885 196.04 116.189 196.608 116.413 197.296C116.637 197.984 116.749 198.795 116.749 199.728C116.749 200.693 116.637 201.52 116.413 202.208C116.189 202.896 115.885 203.461 115.501 203.904C115.117 204.341 114.68 204.667 114.189 204.88C113.704 205.088 113.2 205.192 112.677 205.192C112.16 205.192 111.658 205.088 111.173 204.88C110.688 204.667 110.25 204.341 109.861 203.904C109.472 203.461 109.162 202.896 108.933 202.208C108.709 201.52 108.597 200.693 108.597 199.728ZM110.301 199.728C110.301 200.613 110.405 201.352 110.613 201.944C110.826 202.531 111.112 202.968 111.469 203.256C111.832 203.539 112.234 203.68 112.677 203.68C113.13 203.68 113.533 203.536 113.885 203.248C114.242 202.96 114.525 202.523 114.733 201.936C114.941 201.349 115.045 200.613 115.045 199.728C115.045 198.859 114.941 198.131 114.733 197.544C114.525 196.957 114.242 196.515 113.885 196.216C113.533 195.912 113.13 195.76 112.677 195.76C112.234 195.76 111.832 195.912 111.469 196.216C111.112 196.515 110.826 196.96 110.613 197.552C110.405 198.139 110.301 198.864 110.301 199.728ZM119.484 202.472C119.522 202.584 119.586 202.712 119.676 202.856C119.767 203 119.89 203.141 120.044 203.28C120.199 203.413 120.391 203.525 120.62 203.616C120.85 203.707 121.124 203.752 121.444 203.752C122.084 203.752 122.586 203.547 122.948 203.136C123.311 202.72 123.49 202.176 123.484 201.504C123.479 200.869 123.311 200.381 122.98 200.04C122.65 199.693 122.207 199.52 121.652 199.52C121.306 199.52 121.002 199.581 120.74 199.704C120.484 199.827 120.276 199.976 120.116 200.152C119.956 200.328 119.844 200.491 119.78 200.64L118.34 200.136L119.252 194.44H124.716V195.936H120.692L120.244 198.824C120.271 198.776 120.359 198.699 120.508 198.592C120.663 198.48 120.874 198.376 121.14 198.28C121.412 198.179 121.738 198.128 122.116 198.128C122.644 198.128 123.14 198.248 123.604 198.488C124.068 198.723 124.447 199.083 124.74 199.568C125.034 200.048 125.18 200.664 125.18 201.416C125.186 202.168 125.036 202.827 124.732 203.392C124.434 203.957 124.007 204.4 123.452 204.72C122.903 205.035 122.252 205.192 121.5 205.192C120.946 205.192 120.466 205.123 120.06 204.984C119.655 204.84 119.314 204.661 119.036 204.448C118.759 204.235 118.538 204.013 118.372 203.784C118.207 203.549 118.09 203.341 118.02 203.16L119.484 202.472Z" fill="#BFABD3"/>
<path d="M151.336 201.776C151.336 202.485 151.219 203.096 150.984 203.608C150.749 204.115 150.405 204.507 149.952 204.784C149.499 205.056 148.941 205.192 148.28 205.192C147.784 205.192 147.36 205.125 147.008 204.992C146.656 204.859 146.379 204.712 146.176 204.552C145.979 204.387 145.856 204.264 145.808 204.184L146.496 202.736C146.56 202.827 146.653 202.939 146.776 203.072C146.904 203.2 147.072 203.315 147.28 203.416C147.493 203.512 147.755 203.56 148.064 203.56C148.421 203.56 148.717 203.48 148.952 203.32C149.187 203.155 149.363 202.92 149.48 202.616C149.597 202.312 149.656 201.947 149.656 201.52V194.44H151.336V201.776ZM154.728 201.656C154.728 202.296 154.859 202.805 155.12 203.184C155.387 203.563 155.805 203.752 156.376 203.752C156.952 203.752 157.371 203.563 157.632 203.184C157.893 202.805 158.024 202.296 158.024 201.656V198.432H159.72V201.872C159.72 202.533 159.589 203.115 159.328 203.616C159.067 204.112 158.688 204.499 158.192 204.776C157.696 205.053 157.091 205.192 156.376 205.192C155.667 205.192 155.064 205.053 154.568 204.776C154.072 204.499 153.693 204.112 153.432 203.616C153.171 203.115 153.04 202.533 153.04 201.872V198.432H154.728V201.656ZM165.423 198.24C165.866 198.24 166.295 198.331 166.711 198.512C167.127 198.693 167.468 198.984 167.735 199.384C168.007 199.779 168.143 200.293 168.143 200.928V205H166.423V201.24C166.423 200.648 166.282 200.213 165.999 199.936C165.722 199.653 165.362 199.512 164.919 199.512C164.626 199.512 164.346 199.595 164.079 199.76C163.812 199.925 163.594 200.149 163.423 200.432C163.258 200.715 163.175 201.04 163.175 201.408V205H161.463V198.432H163.175V199.536C163.223 199.355 163.351 199.165 163.559 198.968C163.772 198.765 164.042 198.595 164.367 198.456C164.692 198.312 165.044 198.24 165.423 198.24ZM173.597 199.728C173.597 198.795 173.709 197.984 173.933 197.296C174.162 196.608 174.472 196.04 174.861 195.592C175.25 195.139 175.688 194.803 176.173 194.584C176.658 194.36 177.16 194.248 177.677 194.248C178.2 194.248 178.704 194.36 179.189 194.584C179.68 194.803 180.117 195.139 180.501 195.592C180.885 196.04 181.189 196.608 181.413 197.296C181.637 197.984 181.749 198.795 181.749 199.728C181.749 200.693 181.637 201.52 181.413 202.208C181.189 202.896 180.885 203.461 180.501 203.904C180.117 204.341 179.68 204.667 179.189 204.88C178.704 205.088 178.2 205.192 177.677 205.192C177.16 205.192 176.658 205.088 176.173 204.88C175.688 204.667 175.25 204.341 174.861 203.904C174.472 203.461 174.162 202.896 173.933 202.208C173.709 201.52 173.597 200.693 173.597 199.728ZM175.301 199.728C175.301 200.613 175.405 201.352 175.613 201.944C175.826 202.531 176.112 202.968 176.469 203.256C176.832 203.539 177.234 203.68 177.677 203.68C178.13 203.68 178.533 203.536 178.885 203.248C179.242 202.96 179.525 202.523 179.733 201.936C179.941 201.349 180.045 200.613 180.045 199.728C180.045 198.859 179.941 198.131 179.733 197.544C179.525 196.957 179.242 196.515 178.885 196.216C178.533 195.912 178.13 195.76 177.677 195.76C177.234 195.76 176.832 195.912 176.469 196.216C176.112 196.515 175.826 196.96 175.613 197.552C175.405 198.139 175.301 198.864 175.301 199.728ZM187.188 198.072C187.77 198.072 188.314 198.219 188.82 198.512C189.332 198.8 189.748 199.208 190.068 199.736C190.388 200.264 190.548 200.877 190.548 201.576C190.548 202.275 190.378 202.896 190.036 203.44C189.695 203.984 189.236 204.413 188.66 204.728C188.09 205.037 187.46 205.192 186.772 205.192C186.068 205.192 185.431 205.04 184.86 204.736C184.295 204.432 183.844 204 183.508 203.44C183.172 202.88 183.004 202.221 183.004 201.464C183.004 200.659 183.14 199.979 183.412 199.424C183.684 198.864 184.002 198.36 184.364 197.912L187.164 194.44H189.156L185.748 198.528C185.85 198.421 186.023 198.32 186.268 198.224C186.514 198.123 186.82 198.072 187.188 198.072ZM186.788 203.784C187.183 203.784 187.543 203.688 187.868 203.496C188.199 203.299 188.46 203.037 188.652 202.712C188.85 202.381 188.948 202.016 188.948 201.616C188.948 201.216 188.85 200.853 188.652 200.528C188.46 200.197 188.199 199.936 187.868 199.744C187.543 199.552 187.183 199.456 186.788 199.456C186.388 199.456 186.023 199.552 185.692 199.744C185.362 199.936 185.098 200.197 184.9 200.528C184.708 200.853 184.612 201.216 184.612 201.616C184.612 202.016 184.708 202.381 184.9 202.712C185.098 203.037 185.362 203.299 185.692 203.496C186.023 203.688 186.388 203.784 186.788 203.784Z" fill="#BFABD3"/>
<path d="M217.336 201.776C217.336 202.485 217.219 203.096 216.984 203.608C216.749 204.115 216.405 204.507 215.952 204.784C215.499 205.056 214.941 205.192 214.28 205.192C213.784 205.192 213.36 205.125 213.008 204.992C212.656 204.859 212.379 204.712 212.176 204.552C211.979 204.387 211.856 204.264 211.808 204.184L212.496 202.736C212.56 202.827 212.653 202.939 212.776 203.072C212.904 203.2 213.072 203.315 213.28 203.416C213.493 203.512 213.755 203.56 214.064 203.56C214.421 203.56 214.717 203.48 214.952 203.32C215.187 203.155 215.363 202.92 215.48 202.616C215.597 202.312 215.656 201.947 215.656 201.52V194.44H217.336V201.776ZM220.728 201.656C220.728 202.296 220.859 202.805 221.12 203.184C221.387 203.563 221.805 203.752 222.376 203.752C222.952 203.752 223.371 203.563 223.632 203.184C223.893 202.805 224.024 202.296 224.024 201.656V198.432H225.72V201.872C225.72 202.533 225.589 203.115 225.328 203.616C225.067 204.112 224.688 204.499 224.192 204.776C223.696 205.053 223.091 205.192 222.376 205.192C221.667 205.192 221.064 205.053 220.568 204.776C220.072 204.499 219.693 204.112 219.432 203.616C219.171 203.115 219.04 202.533 219.04 201.872V198.432H220.728V201.656ZM231.423 198.24C231.866 198.24 232.295 198.331 232.711 198.512C233.127 198.693 233.468 198.984 233.735 199.384C234.007 199.779 234.143 200.293 234.143 200.928V205H232.423V201.24C232.423 200.648 232.282 200.213 231.999 199.936C231.722 199.653 231.362 199.512 230.919 199.512C230.626 199.512 230.346 199.595 230.079 199.76C229.812 199.925 229.594 200.149 229.423 200.432C229.258 200.715 229.175 201.04 229.175 201.408V205H227.463V198.432H229.175V199.536C229.223 199.355 229.351 199.165 229.559 198.968C229.772 198.765 230.042 198.595 230.367 198.456C230.692 198.312 231.044 198.24 231.423 198.24ZM239.597 199.728C239.597 198.795 239.709 197.984 239.933 197.296C240.162 196.608 240.472 196.04 240.861 195.592C241.25 195.139 241.688 194.803 242.173 194.584C242.658 194.36 243.16 194.248 243.677 194.248C244.2 194.248 244.704 194.36 245.189 194.584C245.68 194.803 246.117 195.139 246.501 195.592C246.885 196.04 247.189 196.608 247.413 197.296C247.637 197.984 247.749 198.795 247.749 199.728C247.749 200.693 247.637 201.52 247.413 202.208C247.189 202.896 246.885 203.461 246.501 203.904C246.117 204.341 245.68 204.667 245.189 204.88C244.704 205.088 244.2 205.192 243.677 205.192C243.16 205.192 242.658 205.088 242.173 204.88C241.688 204.667 241.25 204.341 240.861 203.904C240.472 203.461 240.162 202.896 239.933 202.208C239.709 201.52 239.597 200.693 239.597 199.728ZM241.301 199.728C241.301 200.613 241.405 201.352 241.613 201.944C241.826 202.531 242.112 202.968 242.469 203.256C242.832 203.539 243.234 203.68 243.677 203.68C244.13 203.68 244.533 203.536 244.885 203.248C245.242 202.96 245.525 202.523 245.733 201.936C245.941 201.349 246.045 200.613 246.045 199.728C246.045 198.859 245.941 198.131 245.733 197.544C245.525 196.957 245.242 196.515 244.885 196.216C244.533 195.912 244.13 195.76 243.677 195.76C243.234 195.76 242.832 195.912 242.469 196.216C242.112 196.515 241.826 196.96 241.613 197.552C241.405 198.139 241.301 198.864 241.301 199.728ZM249.38 194.44H256.436V195.616L251.1 205H249.228L254.46 195.936H249.38V194.44Z" fill="#BFABD3"/>
<path d="M282.336 201.776C282.336 202.485 282.219 203.096 281.984 203.608C281.749 204.115 281.405 204.507 280.952 204.784C280.499 205.056 279.941 205.192 279.28 205.192C278.784 205.192 278.36 205.125 278.008 204.992C277.656 204.859 277.379 204.712 277.176 204.552C276.979 204.387 276.856 204.264 276.808 204.184L277.496 202.736C277.56 202.827 277.653 202.939 277.776 203.072C277.904 203.2 278.072 203.315 278.28 203.416C278.493 203.512 278.755 203.56 279.064 203.56C279.421 203.56 279.717 203.48 279.952 203.32C280.187 203.155 280.363 202.92 280.48 202.616C280.597 202.312 280.656 201.947 280.656 201.52V194.44H282.336V201.776ZM285.728 201.656C285.728 202.296 285.859 202.805 286.12 203.184C286.387 203.563 286.805 203.752 287.376 203.752C287.952 203.752 288.371 203.563 288.632 203.184C288.893 202.805 289.024 202.296 289.024 201.656V198.432H290.72V201.872C290.72 202.533 290.589 203.115 290.328 203.616C290.067 204.112 289.688 204.499 289.192 204.776C288.696 205.053 288.091 205.192 287.376 205.192C286.667 205.192 286.064 205.053 285.568 204.776C285.072 204.499 284.693 204.112 284.432 203.616C284.171 203.115 284.04 202.533 284.04 201.872V198.432H285.728V201.656ZM296.423 198.24C296.866 198.24 297.295 198.331 297.711 198.512C298.127 198.693 298.468 198.984 298.735 199.384C299.007 199.779 299.143 200.293 299.143 200.928V205H297.423V201.24C297.423 200.648 297.282 200.213 296.999 199.936C296.722 199.653 296.362 199.512 295.919 199.512C295.626 199.512 295.346 199.595 295.079 199.76C294.812 199.925 294.594 200.149 294.423 200.432C294.258 200.715 294.175 201.04 294.175 201.408V205H292.463V198.432H294.175V199.536C294.223 199.355 294.351 199.165 294.559 198.968C294.772 198.765 295.042 198.595 295.367 198.456C295.692 198.312 296.044 198.24 296.423 198.24ZM304.597 199.728C304.597 198.795 304.709 197.984 304.933 197.296C305.162 196.608 305.472 196.04 305.861 195.592C306.25 195.139 306.688 194.803 307.173 194.584C307.658 194.36 308.16 194.248 308.677 194.248C309.2 194.248 309.704 194.36 310.189 194.584C310.68 194.803 311.117 195.139 311.501 195.592C311.885 196.04 312.189 196.608 312.413 197.296C312.637 197.984 312.749 198.795 312.749 199.728C312.749 200.693 312.637 201.52 312.413 202.208C312.189 202.896 311.885 203.461 311.501 203.904C311.117 204.341 310.68 204.667 310.189 204.88C309.704 205.088 309.2 205.192 308.677 205.192C308.16 205.192 307.658 205.088 307.173 204.88C306.688 204.667 306.25 204.341 305.861 203.904C305.472 203.461 305.162 202.896 304.933 202.208C304.709 201.52 304.597 200.693 304.597 199.728ZM306.301 199.728C306.301 200.613 306.405 201.352 306.613 201.944C306.826 202.531 307.112 202.968 307.469 203.256C307.832 203.539 308.234 203.68 308.677 203.68C309.13 203.68 309.533 203.536 309.885 203.248C310.242 202.96 310.525 202.523 310.733 201.936C310.941 201.349 311.045 200.613 311.045 199.728C311.045 198.859 310.941 198.131 310.733 197.544C310.525 196.957 310.242 196.515 309.885 196.216C309.533 195.912 309.13 195.76 308.677 195.76C308.234 195.76 307.832 195.912 307.469 196.216C307.112 196.515 306.826 196.96 306.613 197.552C306.405 198.139 306.301 198.864 306.301 199.728ZM317.78 205.192C317.108 205.192 316.5 205.056 315.956 204.784C315.412 204.512 314.978 204.144 314.652 203.68C314.332 203.211 314.172 202.683 314.172 202.096C314.172 201.579 314.26 201.141 314.436 200.784C314.612 200.421 314.847 200.12 315.14 199.88C315.439 199.635 315.767 199.443 316.124 199.304C315.863 199.176 315.618 199.013 315.388 198.816C315.164 198.613 314.98 198.363 314.836 198.064C314.698 197.76 314.628 197.395 314.628 196.968C314.628 196.424 314.767 195.949 315.044 195.544C315.327 195.133 315.706 194.816 316.18 194.592C316.66 194.363 317.191 194.248 317.772 194.248C318.359 194.248 318.887 194.363 319.356 194.592C319.826 194.816 320.196 195.133 320.468 195.544C320.746 195.949 320.884 196.424 320.884 196.968C320.884 197.608 320.74 198.107 320.452 198.464C320.164 198.821 319.818 199.101 319.412 199.304C319.77 199.443 320.095 199.635 320.388 199.88C320.687 200.12 320.924 200.421 321.1 200.784C321.282 201.141 321.372 201.579 321.372 202.096C321.372 202.683 321.212 203.211 320.892 203.68C320.572 204.144 320.14 204.512 319.596 204.784C319.058 205.056 318.452 205.192 317.78 205.192ZM317.772 203.696C318.114 203.696 318.42 203.619 318.692 203.464C318.97 203.304 319.191 203.088 319.356 202.816C319.522 202.539 319.604 202.232 319.604 201.896C319.604 201.555 319.522 201.248 319.356 200.976C319.191 200.704 318.97 200.488 318.692 200.328C318.42 200.168 318.114 200.088 317.772 200.088C317.431 200.088 317.119 200.168 316.836 200.328C316.559 200.488 316.338 200.704 316.172 200.976C316.012 201.248 315.932 201.555 315.932 201.896C315.932 202.232 316.012 202.536 316.172 202.808C316.338 203.08 316.559 203.296 316.836 203.456C317.119 203.616 317.431 203.696 317.772 203.696ZM317.78 198.752C318.068 198.752 318.33 198.68 318.564 198.536C318.804 198.392 318.994 198.2 319.132 197.96C319.276 197.72 319.348 197.456 319.348 197.168C319.348 196.88 319.276 196.619 319.132 196.384C318.988 196.144 318.796 195.955 318.556 195.816C318.322 195.672 318.06 195.6 317.772 195.6C317.49 195.6 317.226 195.672 316.98 195.816C316.74 195.955 316.548 196.144 316.404 196.384C316.266 196.619 316.196 196.88 316.196 197.168C316.196 197.456 316.266 197.72 316.404 197.96C316.548 198.2 316.74 198.392 316.98 198.536C317.226 198.68 317.492 198.752 317.78 198.752Z" fill="#BFABD3"/>
<path d="M348.336 201.776C348.336 202.485 348.219 203.096 347.984 203.608C347.749 204.115 347.405 204.507 346.952 204.784C346.499 205.056 345.941 205.192 345.28 205.192C344.784 205.192 344.36 205.125 344.008 204.992C343.656 204.859 343.379 204.712 343.176 204.552C342.979 204.387 342.856 204.264 342.808 204.184L343.496 202.736C343.56 202.827 343.653 202.939 343.776 203.072C343.904 203.2 344.072 203.315 344.28 203.416C344.493 203.512 344.755 203.56 345.064 203.56C345.421 203.56 345.717 203.48 345.952 203.32C346.187 203.155 346.363 202.92 346.48 202.616C346.597 202.312 346.656 201.947 346.656 201.52V194.44H348.336V201.776ZM351.728 201.656C351.728 202.296 351.859 202.805 352.12 203.184C352.387 203.563 352.805 203.752 353.376 203.752C353.952 203.752 354.371 203.563 354.632 203.184C354.893 202.805 355.024 202.296 355.024 201.656V198.432H356.72V201.872C356.72 202.533 356.589 203.115 356.328 203.616C356.067 204.112 355.688 204.499 355.192 204.776C354.696 205.053 354.091 205.192 353.376 205.192C352.667 205.192 352.064 205.053 351.568 204.776C351.072 204.499 350.693 204.112 350.432 203.616C350.171 203.115 350.04 202.533 350.04 201.872V198.432H351.728V201.656ZM362.423 198.24C362.866 198.24 363.295 198.331 363.711 198.512C364.127 198.693 364.468 198.984 364.735 199.384C365.007 199.779 365.143 200.293 365.143 200.928V205H363.423V201.24C363.423 200.648 363.282 200.213 362.999 199.936C362.722 199.653 362.362 199.512 361.919 199.512C361.626 199.512 361.346 199.595 361.079 199.76C360.812 199.925 360.594 200.149 360.423 200.432C360.258 200.715 360.175 201.04 360.175 201.408V205H358.463V198.432H360.175V199.536C360.223 199.355 360.351 199.165 360.559 198.968C360.772 198.765 361.042 198.595 361.367 198.456C361.692 198.312 362.044 198.24 362.423 198.24ZM370.597 199.728C370.597 198.795 370.709 197.984 370.933 197.296C371.162 196.608 371.472 196.04 371.861 195.592C372.25 195.139 372.688 194.803 373.173 194.584C373.658 194.36 374.16 194.248 374.677 194.248C375.2 194.248 375.704 194.36 376.189 194.584C376.68 194.803 377.117 195.139 377.501 195.592C377.885 196.04 378.189 196.608 378.413 197.296C378.637 197.984 378.749 198.795 378.749 199.728C378.749 200.693 378.637 201.52 378.413 202.208C378.189 202.896 377.885 203.461 377.501 203.904C377.117 204.341 376.68 204.667 376.189 204.88C375.704 205.088 375.2 205.192 374.677 205.192C374.16 205.192 373.658 205.088 373.173 204.88C372.688 204.667 372.25 204.341 371.861 203.904C371.472 203.461 371.162 202.896 370.933 202.208C370.709 201.52 370.597 200.693 370.597 199.728ZM372.301 199.728C372.301 200.613 372.405 201.352 372.613 201.944C372.826 202.531 373.112 202.968 373.469 203.256C373.832 203.539 374.234 203.68 374.677 203.68C375.13 203.68 375.533 203.536 375.885 203.248C376.242 202.96 376.525 202.523 376.733 201.936C376.941 201.349 377.045 200.613 377.045 199.728C377.045 198.859 376.941 198.131 376.733 197.544C376.525 196.957 376.242 196.515 375.885 196.216C375.533 195.912 375.13 195.76 374.677 195.76C374.234 195.76 373.832 195.912 373.469 196.216C373.112 196.515 372.826 196.96 372.613 197.552C372.405 198.139 372.301 198.864 372.301 199.728ZM381.42 205L384.828 200.912C384.727 201.019 384.554 201.123 384.308 201.224C384.063 201.32 383.756 201.368 383.388 201.368C382.812 201.368 382.266 201.224 381.748 200.936C381.236 200.643 380.82 200.232 380.5 199.704C380.186 199.176 380.028 198.563 380.028 197.864C380.028 197.165 380.199 196.544 380.54 196C380.882 195.456 381.338 195.029 381.908 194.72C382.479 194.405 383.111 194.248 383.804 194.248C384.508 194.248 385.143 194.4 385.708 194.704C386.279 195.008 386.732 195.44 387.068 196C387.404 196.56 387.572 197.219 387.572 197.976C387.572 198.781 387.436 199.464 387.164 200.024C386.892 200.579 386.575 201.08 386.212 201.528L383.412 205H381.42ZM383.788 199.984C384.188 199.984 384.551 199.888 384.876 199.696C385.207 199.504 385.471 199.243 385.668 198.912C385.866 198.581 385.964 198.219 385.964 197.824C385.964 197.424 385.866 197.061 385.668 196.736C385.471 196.405 385.207 196.144 384.876 195.952C384.551 195.755 384.188 195.656 383.788 195.656C383.394 195.656 383.031 195.755 382.7 195.952C382.375 196.144 382.114 196.405 381.916 196.736C381.724 197.061 381.628 197.424 381.628 197.824C381.628 198.219 381.724 198.581 381.916 198.912C382.114 199.243 382.375 199.504 382.7 199.696C383.031 199.888 383.394 199.984 383.788 199.984Z" fill="#BFABD3"/>
<path d="M414.336 201.776C414.336 202.485 414.219 203.096 413.984 203.608C413.749 204.115 413.405 204.507 412.952 204.784C412.499 205.056 411.941 205.192 411.28 205.192C410.784 205.192 410.36 205.125 410.008 204.992C409.656 204.859 409.379 204.712 409.176 204.552C408.979 204.387 408.856 204.264 408.808 204.184L409.496 202.736C409.56 202.827 409.653 202.939 409.776 203.072C409.904 203.2 410.072 203.315 410.28 203.416C410.493 203.512 410.755 203.56 411.064 203.56C411.421 203.56 411.717 203.48 411.952 203.32C412.187 203.155 412.363 202.92 412.48 202.616C412.597 202.312 412.656 201.947 412.656 201.52V194.44H414.336V201.776ZM417.728 201.656C417.728 202.296 417.859 202.805 418.12 203.184C418.387 203.563 418.805 203.752 419.376 203.752C419.952 203.752 420.371 203.563 420.632 203.184C420.893 202.805 421.024 202.296 421.024 201.656V198.432H422.72V201.872C422.72 202.533 422.589 203.115 422.328 203.616C422.067 204.112 421.688 204.499 421.192 204.776C420.696 205.053 420.091 205.192 419.376 205.192C418.667 205.192 418.064 205.053 417.568 204.776C417.072 204.499 416.693 204.112 416.432 203.616C416.171 203.115 416.04 202.533 416.04 201.872V198.432H417.728V201.656ZM428.423 198.24C428.866 198.24 429.295 198.331 429.711 198.512C430.127 198.693 430.468 198.984 430.735 199.384C431.007 199.779 431.143 200.293 431.143 200.928V205H429.423V201.24C429.423 200.648 429.282 200.213 428.999 199.936C428.722 199.653 428.362 199.512 427.919 199.512C427.626 199.512 427.346 199.595 427.079 199.76C426.812 199.925 426.594 200.149 426.423 200.432C426.258 200.715 426.175 201.04 426.175 201.408V205H424.463V198.432H426.175V199.536C426.223 199.355 426.351 199.165 426.559 198.968C426.772 198.765 427.042 198.595 427.367 198.456C427.692 198.312 428.044 198.24 428.423 198.24ZM438.229 196.552L436.445 197.544V195.92L439.029 194.44H439.917V205H438.229V196.552ZM441.597 199.728C441.597 198.795 441.709 197.984 441.933 197.296C442.162 196.608 442.472 196.04 442.861 195.592C443.25 195.139 443.688 194.803 444.173 194.584C444.658 194.36 445.16 194.248 445.677 194.248C446.2 194.248 446.704 194.36 447.189 194.584C447.68 194.803 448.117 195.139 448.501 195.592C448.885 196.04 449.189 196.608 449.413 197.296C449.637 197.984 449.749 198.795 449.749 199.728C449.749 200.693 449.637 201.52 449.413 202.208C449.189 202.896 448.885 203.461 448.501 203.904C448.117 204.341 447.68 204.667 447.189 204.88C446.704 205.088 446.2 205.192 445.677 205.192C445.16 205.192 444.658 205.088 444.173 204.88C443.688 204.667 443.25 204.341 442.861 203.904C442.472 203.461 442.162 202.896 441.933 202.208C441.709 201.52 441.597 200.693 441.597 199.728ZM443.301 199.728C443.301 200.613 443.405 201.352 443.613 201.944C443.826 202.531 444.112 202.968 444.469 203.256C444.832 203.539 445.234 203.68 445.677 203.68C446.13 203.68 446.533 203.536 446.885 203.248C447.242 202.96 447.525 202.523 447.733 201.936C447.941 201.349 448.045 200.613 448.045 199.728C448.045 198.859 447.941 198.131 447.733 197.544C447.525 196.957 447.242 196.515 446.885 196.216C446.533 195.912 446.13 195.76 445.677 195.76C445.234 195.76 444.832 195.912 444.469 196.216C444.112 196.515 443.826 196.96 443.613 197.552C443.405 198.139 443.301 198.864 443.301 199.728Z" fill="#BFABD3"/>
<line x1="1" y1="122.5" x2="473" y2="122.5" stroke="#CEBFDD" stroke-dasharray="3 3"/>
<path d="M1.816 115V104.44H4.16L9.264 113.4L9.16 113.424V104.44H10.832V115H8.48L3.384 106.016L3.496 106.032V115H1.816ZM0.936 110.288V109.144H11.752V110.288H0.936ZM18.3741 104.44V111.28H19.5821V112.776H18.3741V115H16.6861V112.776H12.2701V111.408L16.4941 104.44H18.3741ZM16.6861 111.28V106.816H16.6781L14.0141 111.28H16.6861ZM20.597 109.728C20.597 108.795 20.709 107.984 20.933 107.296C21.1623 106.608 21.4717 106.04 21.861 105.592C22.2503 105.139 22.6877 104.803 23.173 104.584C23.6583 104.36 24.1597 104.248 24.677 104.248C25.1997 104.248 25.7037 104.36 26.189 104.584C26.6797 104.803 27.117 105.139 27.501 105.592C27.885 106.04 28.189 106.608 28.413 107.296C28.637 107.984 28.749 108.795 28.749 109.728C28.749 110.693 28.637 111.52 28.413 112.208C28.189 112.896 27.885 113.461 27.501 113.904C27.117 114.341 26.6797 114.667 26.189 114.88C25.7037 115.088 25.1997 115.192 24.677 115.192C24.1597 115.192 23.6583 115.088 23.173 114.88C22.6877 114.667 22.2503 114.341 21.861 113.904C21.4717 113.461 21.1623 112.896 20.933 112.208C20.709 111.52 20.597 110.693 20.597 109.728ZM22.301 109.728C22.301 110.613 22.405 111.352 22.613 111.944C22.8263 112.531 23.1117 112.968 23.469 113.256C23.8317 113.539 24.2343 113.68 24.677 113.68C25.1303 113.68 25.533 113.536 25.885 113.248C26.2423 112.96 26.525 112.523 26.733 111.936C26.941 111.349 27.045 110.613 27.045 109.728C27.045 108.859 26.941 108.131 26.733 107.544C26.525 106.957 26.2423 106.515 25.885 106.216C25.533 105.912 25.1303 105.76 24.677 105.76C24.2343 105.76 23.8317 105.912 23.469 106.216C23.1117 106.515 22.8263 106.96 22.613 107.552C22.405 108.139 22.301 108.864 22.301 109.728ZM34.4364 108.432H36.4444L33.1404 111.56L36.6924 115H34.6524L31.7644 112.176V115H30.0524V103.992H31.7644V110.936L34.4364 108.432Z" fill="#BFABD3"/>
<line x1="1" y1="89.5" x2="473" y2="89.5" stroke="#CEBFDD" stroke-dasharray="3 3"/>
<path d="M1.816 82V71.44H4.16L9.264 80.4L9.16 80.424V71.44H10.832V82H8.48L3.384 73.016L3.496 73.032V82H1.816ZM0.936 77.288V76.144H11.752V77.288H0.936ZM16.7821 75.072C17.3635 75.072 17.9075 75.2187 18.4141 75.512C18.9261 75.8 19.3421 76.208 19.6621 76.736C19.9821 77.264 20.1421 77.8773 20.1421 78.576C20.1421 79.2747 19.9715 79.896 19.6301 80.44C19.2888 80.984 18.8301 81.4133 18.2541 81.728C17.6835 82.0373 17.0541 82.192 16.3661 82.192C15.6621 82.192 15.0248 82.04 14.4541 81.736C13.8888 81.432 13.4381 81 13.1021 80.44C12.7661 79.88 12.5981 79.2213 12.5981 78.464C12.5981 77.6587 12.7341 76.9787 13.0061 76.424C13.2781 75.864 13.5955 75.36 13.9581 74.912L16.7581 71.44H18.7501L15.3421 75.528C15.4435 75.4213 15.6168 75.32 15.8621 75.224C16.1075 75.1227 16.4141 75.072 16.7821 75.072ZM16.3821 80.784C16.7768 80.784 17.1368 80.688 17.4621 80.496C17.7928 80.2987 18.0541 80.0373 18.2461 79.712C18.4435 79.3813 18.5421 79.016 18.5421 78.616C18.5421 78.216 18.4435 77.8533 18.2461 77.528C18.0541 77.1973 17.7928 76.936 17.4621 76.744C17.1368 76.552 16.7768 76.456 16.3821 76.456C15.9821 76.456 15.6168 76.552 15.2861 76.744C14.9555 76.936 14.6915 77.1973 14.4941 77.528C14.3021 77.8533 14.2061 78.216 14.2061 78.616C14.2061 79.016 14.3021 79.3813 14.4941 79.712C14.6915 80.0373 14.9555 80.2987 15.2861 80.496C15.6168 80.688 15.9821 80.784 16.3821 80.784ZM21.4095 76.728C21.4095 75.7947 21.5215 74.984 21.7455 74.296C21.9748 73.608 22.2842 73.04 22.6735 72.592C23.0628 72.1387 23.5002 71.8027 23.9855 71.584C24.4708 71.36 24.9722 71.248 25.4895 71.248C26.0122 71.248 26.5162 71.36 27.0015 71.584C27.4922 71.8027 27.9295 72.1387 28.3135 72.592C28.6975 73.04 29.0015 73.608 29.2255 74.296C29.4495 74.984 29.5615 75.7947 29.5615 76.728C29.5615 77.6933 29.4495 78.52 29.2255 79.208C29.0015 79.896 28.6975 80.4613 28.3135 80.904C27.9295 81.3413 27.4922 81.6667 27.0015 81.88C26.5162 82.088 26.0122 82.192 25.4895 82.192C24.9722 82.192 24.4708 82.088 23.9855 81.88C23.5002 81.6667 23.0628 81.3413 22.6735 80.904C22.2842 80.4613 21.9748 79.896 21.7455 79.208C21.5215 78.52 21.4095 77.6933 21.4095 76.728ZM23.1135 76.728C23.1135 77.6133 23.2175 78.352 23.4255 78.944C23.6388 79.5307 23.9242 79.968 24.2815 80.256C24.6442 80.5387 25.0468 80.68 25.4895 80.68C25.9428 80.68 26.3455 80.536 26.6975 80.248C27.0548 79.96 27.3375 79.5227 27.5455 78.936C27.7535 78.3493 27.8575 77.6133 27.8575 76.728C27.8575 75.8587 27.7535 75.1307 27.5455 74.544C27.3375 73.9573 27.0548 73.5147 26.6975 73.216C26.3455 72.912 25.9428 72.76 25.4895 72.76C25.0468 72.76 24.6442 72.912 24.2815 73.216C23.9242 73.5147 23.6388 73.96 23.4255 74.552C23.2175 75.1387 23.1135 75.864 23.1135 76.728ZM35.2489 75.432H37.2569L33.9529 78.56L37.5049 82H35.4649L32.5769 79.176V82H30.8649V70.992H32.5769V77.936L35.2489 75.432Z" fill="#BFABD3"/>
<line x1="1" y1="56.5" x2="473" y2="56.5" stroke="#CEBFDD" stroke-dasharray="3 3"/>
<path d="M1.816 49V38.44H4.16L9.264 47.4L9.16 47.424V38.44H10.832V49H8.48L3.384 40.016L3.496 40.032V49H1.816ZM0.936 44.288V43.144H11.752V44.288H0.936ZM16.3741 49.192C15.7021 49.192 15.0941 49.056 14.5501 48.784C14.0061 48.512 13.5715 48.144 13.2461 47.68C12.9261 47.2107 12.7661 46.6827 12.7661 46.096C12.7661 45.5787 12.8541 45.1413 13.0301 44.784C13.2061 44.4213 13.4408 44.12 13.7341 43.88C14.0328 43.6347 14.3608 43.4427 14.7181 43.304C14.4568 43.176 14.2115 43.0133 13.9821 42.816C13.7581 42.6133 13.5741 42.3627 13.4301 42.064C13.2915 41.76 13.2221 41.3947 13.2221 40.968C13.2221 40.424 13.3608 39.9493 13.6381 39.544C13.9208 39.1333 14.2995 38.816 14.7741 38.592C15.2541 38.3627 15.7848 38.248 16.3661 38.248C16.9528 38.248 17.4808 38.3627 17.9501 38.592C18.4195 38.816 18.7901 39.1333 19.0621 39.544C19.3395 39.9493 19.4781 40.424 19.4781 40.968C19.4781 41.608 19.3341 42.1067 19.0461 42.464C18.7581 42.8213 18.4115 43.1013 18.0061 43.304C18.3635 43.4427 18.6888 43.6347 18.9821 43.88C19.2808 44.12 19.5181 44.4213 19.6941 44.784C19.8755 45.1413 19.9661 45.5787 19.9661 46.096C19.9661 46.6827 19.8061 47.2107 19.4861 47.68C19.1661 48.144 18.7341 48.512 18.1901 48.784C17.6515 49.056 17.0461 49.192 16.3741 49.192ZM16.3661 47.696C16.7075 47.696 17.0141 47.6187 17.2861 47.464C17.5635 47.304 17.7848 47.088 17.9501 46.816C18.1155 46.5387 18.1981 46.232 18.1981 45.896C18.1981 45.5547 18.1155 45.248 17.9501 44.976C17.7848 44.704 17.5635 44.488 17.2861 44.328C17.0141 44.168 16.7075 44.088 16.3661 44.088C16.0248 44.088 15.7128 44.168 15.4301 44.328C15.1528 44.488 14.9315 44.704 14.7661 44.976C14.6061 45.248 14.5261 45.5547 14.5261 45.896C14.5261 46.232 14.6061 46.536 14.7661 46.808C14.9315 47.08 15.1528 47.296 15.4301 47.456C15.7128 47.616 16.0248 47.696 16.3661 47.696ZM16.3741 42.752C16.6621 42.752 16.9235 42.68 17.1581 42.536C17.3981 42.392 17.5875 42.2 17.7261 41.96C17.8701 41.72 17.9421 41.456 17.9421 41.168C17.9421 40.88 17.8701 40.6187 17.7261 40.384C17.5821 40.144 17.3901 39.9547 17.1501 39.816C16.9155 39.672 16.6541 39.6 16.3661 39.6C16.0835 39.6 15.8195 39.672 15.5741 39.816C15.3341 39.9547 15.1421 40.144 14.9981 40.384C14.8595 40.6187 14.7901 40.88 14.7901 41.168C14.7901 41.456 14.8595 41.72 14.9981 41.96C15.1421 42.2 15.3341 42.392 15.5741 42.536C15.8195 42.68 16.0861 42.752 16.3741 42.752ZM21.3783 43.728C21.3783 42.7947 21.4903 41.984 21.7143 41.296C21.9436 40.608 22.2529 40.04 22.6423 39.592C23.0316 39.1387 23.4689 38.8027 23.9543 38.584C24.4396 38.36 24.9409 38.248 25.4583 38.248C25.9809 38.248 26.4849 38.36 26.9703 38.584C27.4609 38.8027 27.8983 39.1387 28.2823 39.592C28.6663 40.04 28.9703 40.608 29.1943 41.296C29.4183 41.984 29.5303 42.7947 29.5303 43.728C29.5303 44.6933 29.4183 45.52 29.1943 46.208C28.9703 46.896 28.6663 47.4613 28.2823 47.904C27.8983 48.3413 27.4609 48.6667 26.9703 48.88C26.4849 49.088 25.9809 49.192 25.4583 49.192C24.9409 49.192 24.4396 49.088 23.9543 48.88C23.4689 48.6667 23.0316 48.3413 22.6423 47.904C22.2529 47.4613 21.9436 46.896 21.7143 46.208C21.4903 45.52 21.3783 44.6933 21.3783 43.728ZM23.0823 43.728C23.0823 44.6133 23.1863 45.352 23.3943 45.944C23.6076 46.5307 23.8929 46.968 24.2503 47.256C24.6129 47.5387 25.0156 47.68 25.4583 47.68C25.9116 47.68 26.3143 47.536 26.6663 47.248C27.0236 46.96 27.3063 46.5227 27.5143 45.936C27.7223 45.3493 27.8263 44.6133 27.8263 43.728C27.8263 42.8587 27.7223 42.1307 27.5143 41.544C27.3063 40.9573 27.0236 40.5147 26.6663 40.216C26.3143 39.912 25.9116 39.76 25.4583 39.76C25.0156 39.76 24.6129 39.912 24.2503 40.216C23.8929 40.5147 23.6076 40.96 23.3943 41.552C23.1863 42.1387 23.0823 42.864 23.0823 43.728ZM35.2176 42.432H37.2256L33.9216 45.56L37.4736 49H35.4336L32.5456 46.176V49H30.8336V37.992H32.5456V44.936L35.2176 42.432Z" fill="#BFABD3"/>
<line x1="1" y1="23.5" x2="473" y2="23.5" stroke="#CEBFDD" stroke-dasharray="3 3"/>
<path d="M1.816 16V5.44H4.16L9.264 14.4L9.16 14.424V5.44H10.832V16H8.48L3.384 7.016L3.496 7.032V16H1.816ZM0.936 11.288V10.144H11.752V11.288H0.936ZM14.1821 7.552L12.3981 8.544V6.92L14.9821 5.44H15.8701V16H14.1821V7.552ZM17.5501 10.728C17.5501 9.79467 17.6621 8.984 17.8861 8.296C18.1155 7.608 18.4248 7.04 18.8141 6.592C19.2035 6.13867 19.6408 5.80267 20.1261 5.584C20.6115 5.36 21.1128 5.248 21.6301 5.248C22.1528 5.248 22.6568 5.36 23.1421 5.584C23.6328 5.80267 24.0701 6.13867 24.4541 6.592C24.8381 7.04 25.1421 7.608 25.3661 8.296C25.5901 8.984 25.7021 9.79467 25.7021 10.728C25.7021 11.6933 25.5901 12.52 25.3661 13.208C25.1421 13.896 24.8381 14.4613 24.4541 14.904C24.0701 15.3413 23.6328 15.6667 23.1421 15.88C22.6568 16.088 22.1528 16.192 21.6301 16.192C21.1128 16.192 20.6115 16.088 20.1261 15.88C19.6408 15.6667 19.2035 15.3413 18.8141 14.904C18.4248 14.4613 18.1155 13.896 17.8861 13.208C17.6621 12.52 17.5501 11.6933 17.5501 10.728ZM19.2541 10.728C19.2541 11.6133 19.3581 12.352 19.5661 12.944C19.7795 13.5307 20.0648 13.968 20.4221 14.256C20.7848 14.5387 21.1875 14.68 21.6301 14.68C22.0835 14.68 22.4861 14.536 22.8381 14.248C23.1955 13.96 23.4781 13.5227 23.6861 12.936C23.8941 12.3493 23.9981 11.6133 23.9981 10.728C23.9981 9.85867 23.8941 9.13067 23.6861 8.544C23.4781 7.95733 23.1955 7.51467 22.8381 7.216C22.4861 6.912 22.0835 6.76 21.6301 6.76C21.1875 6.76 20.7848 6.912 20.4221 7.216C20.0648 7.51467 19.7795 7.96 19.5661 8.552C19.3581 9.13867 19.2541 9.864 19.2541 10.728ZM26.9095 10.728C26.9095 9.79467 27.0215 8.984 27.2455 8.296C27.4748 7.608 27.7842 7.04 28.1735 6.592C28.5628 6.13867 29.0002 5.80267 29.4855 5.584C29.9708 5.36 30.4722 5.248 30.9895 5.248C31.5122 5.248 32.0162 5.36 32.5015 5.584C32.9922 5.80267 33.4295 6.13867 33.8135 6.592C34.1975 7.04 34.5015 7.608 34.7255 8.296C34.9495 8.984 35.0615 9.79467 35.0615 10.728C35.0615 11.6933 34.9495 12.52 34.7255 13.208C34.5015 13.896 34.1975 14.4613 33.8135 14.904C33.4295 15.3413 32.9922 15.6667 32.5015 15.88C32.0162 16.088 31.5122 16.192 30.9895 16.192C30.4722 16.192 29.9708 16.088 29.4855 15.88C29.0002 15.6667 28.5628 15.3413 28.1735 14.904C27.7842 14.4613 27.4748 13.896 27.2455 13.208C27.0215 12.52 26.9095 11.6933 26.9095 10.728ZM28.6135 10.728C28.6135 11.6133 28.7175 12.352 28.9255 12.944C29.1388 13.5307 29.4242 13.968 29.7815 14.256C30.1442 14.5387 30.5468 14.68 30.9895 14.68C31.4428 14.68 31.8455 14.536 32.1975 14.248C32.5548 13.96 32.8375 13.5227 33.0455 12.936C33.2535 12.3493 33.3575 11.6133 33.3575 10.728C33.3575 9.85867 33.2535 9.13067 33.0455 8.544C32.8375 7.95733 32.5548 7.51467 32.1975 7.216C31.8455 6.912 31.4428 6.76 30.9895 6.76C30.5468 6.76 30.1442 6.912 29.7815 7.216C29.4242 7.51467 29.1388 7.96 28.9255 8.552C28.7175 9.13867 28.6135 9.864 28.6135 10.728ZM40.7489 9.432H42.7569L39.4529 12.56L43.0049 16H40.9649L38.0769 13.176V16H36.3649V4.992H38.0769V11.936L40.7489 9.432Z" fill="#BFABD3"/>
<rect width="16" height="1" rx="0.5" transform="matrix(1 0 0 -1 81 189)" fill="#0496FF"/>
<rect width="16" height="1" rx="0.5" transform="matrix(1 0 0 -1 101 189)" fill="#4B0082"/>
<rect width="16" height="1" rx="0.5" transform="matrix(1 0 0 -1 146 189)" fill="#0496FF"/>
<rect width="16" height="1" rx="0.5" transform="matrix(1 0 0 -1 166 189)" fill="#4B0082"/>
<rect width="16" height="1" rx="0.5" transform="matrix(1 0 0 -1 212 189)" fill="#0496FF"/>
<rect width="16" height="1" rx="0.5" transform="matrix(1 0 0 -1 232 189)" fill="#4B0082"/>
<rect width="16" height="1" rx="0.5" transform="matrix(1 0 0 -1 277 189)" fill="#0496FF"/>
<rect width="16" height="1" rx="0.5" transform="matrix(1 0 0 -1 297 189)" fill="#4B0082"/>
<rect width="16" height="1" rx="0.5" transform="matrix(1 0 0 -1 343 189)" fill="#0496FF"/>
<rect width="16" height="1" rx="0.5" transform="matrix(1 0 0 -1 363 189)" fill="#4B0082"/>
<rect width="16" height="1" rx="0.5" transform="matrix(1 0 0 -1 409 189)" fill="#0496FF"/>
<rect width="16" height="1" rx="0.5" transform="matrix(1 0 0 -1 429 189)" fill="#4B0082"/>
</svg>
