<svg width="25" height="25" viewBox="0 0 25 25" fill="none" xmlns="http://www.w3.org/2000/svg">
<g id="fluent:radio-button-24-filled">
<path id="Vector" d="M12.4981 2.49902C18.0221 2.49902 22.5001 6.97702 22.5001 12.501C22.5001 18.024 18.0221 22.502 12.4981 22.502C6.97409 22.502 2.49609 18.024 2.49609 12.501C2.49609 6.97702 6.97409 2.49902 12.4981 2.49902ZM12.4981 3.99902C11.3739 3.98683 10.2585 4.19772 9.21631 4.6195C8.17417 5.04127 7.22602 5.66554 6.42675 6.45619C5.62749 7.24684 4.99296 8.18816 4.55992 9.22566C4.12687 10.2632 3.90389 11.3763 3.90389 12.5005C3.90389 13.6248 4.12687 14.7379 4.55992 15.7754C4.99296 16.8129 5.62749 17.7542 6.42675 18.5449C7.22602 19.3355 8.17417 19.9598 9.21631 20.3816C10.2585 20.8033 11.3739 21.0142 12.4981 21.002C14.7301 20.9678 16.8591 20.0571 18.4254 18.4666C19.9918 16.876 20.8697 14.7333 20.8697 12.501C20.8697 10.2687 19.9918 8.126 18.4254 6.53548C16.8591 4.94496 14.7301 4.03326 12.4981 3.99902ZM12.4941 6.49902C14.0849 6.49902 15.6105 7.13095 16.7353 8.2558C17.8602 9.38064 18.4921 10.9063 18.4921 12.497C18.4921 14.0878 17.8602 15.6134 16.7353 16.7382C15.6105 17.8631 14.0849 18.495 12.4941 18.495C10.9033 18.495 9.37771 17.8631 8.25287 16.7382C7.12802 15.6134 6.49609 14.0878 6.49609 12.497C6.49609 10.9063 7.12802 9.38064 8.25287 8.2558C9.37771 7.13095 10.9033 6.49902 12.4941 6.49902Z" fill="#4B0082"/>
</g>
</svg>
