<svg width="25" height="25" viewBox="0 0 25 25" fill="none" xmlns="http://www.w3.org/2000/svg">
<g id="fluent:radio-button-24-regular">
<path id="Vector" d="M12.4981 22.502C18.0221 22.502 22.5001 18.024 22.5001 12.501C22.5001 6.97702 18.0221 2.49902 12.4981 2.49902C6.97409 2.49902 2.49609 6.97702 2.49609 12.501C2.49609 18.024 6.97409 22.502 12.4981 22.502ZM12.4981 21.002C11.3708 21.0193 10.2512 20.8122 9.20469 20.3928C8.15815 19.9733 7.20549 19.3499 6.40216 18.5588C5.59882 17.7677 4.96086 16.8247 4.52541 15.7847C4.08995 14.7447 3.8657 13.6285 3.8657 12.501C3.8657 11.3736 4.08995 10.2573 4.52541 9.21735C4.96086 8.17737 5.59882 7.23438 6.40216 6.44327C7.20549 5.65217 8.15815 5.02875 9.20469 4.60929C10.2512 4.18984 11.3708 3.98273 12.4981 4.00002C14.7369 4.0243 16.8757 4.93069 18.4502 6.52239C20.0248 8.11409 20.9079 10.2626 20.9079 12.5015C20.9079 14.7404 20.0248 16.889 18.4502 18.4807C16.8757 20.0724 14.7369 20.9777 12.4981 21.002Z" fill="#BFABD3"/>
</g>
</svg>
