<svg width="25" height="25" viewBox="0 0 25 25" fill="none" xmlns="http://www.w3.org/2000/svg">
<g id="vuesax/linear/trash">
<g id="trash">
<path id="Vector" d="M21.5 6.47998C18.17 6.14998 14.82 5.97998 11.48 5.97998C9.5 5.97998 7.52 6.07998 5.54 6.27998L3.5 6.47998" stroke="#4B0082" stroke-width="1.5" stroke-linecap="round" stroke-linejoin="round"/>
<path id="Vector_2" d="M9 5.47L9.22 4.16C9.38 3.21 9.5 2.5 11.19 2.5H13.81C15.5 2.5 15.63 3.25 15.78 4.17L16 5.47" stroke="#4B0082" stroke-width="1.5" stroke-linecap="round" stroke-linejoin="round"/>
<path id="Vector_3" d="M19.3484 9.64014L18.6984 19.7101C18.5884 21.2801 18.4984 22.5001 15.7084 22.5001H9.28844C6.49844 22.5001 6.40844 21.2801 6.29844 19.7101L5.64844 9.64014" stroke="#4B0082" stroke-width="1.5" stroke-linecap="round" stroke-linejoin="round"/>
<path id="Vector_4" d="M10.8281 17H14.1581" stroke="#4B0082" stroke-width="1.5" stroke-linecap="round" stroke-linejoin="round"/>
<path id="Vector_5" d="M10 13H15" stroke="#4B0082" stroke-width="1.5" stroke-linecap="round" stroke-linejoin="round"/>
</g>
</g>
</svg>
