<svg width="216" height="217" viewBox="0 0 216 217" fill="none" xmlns="http://www.w3.org/2000/svg">
<g clip-path="url(#clip0_7027_25642)">
<path d="M108 216.964C167.647 216.964 216 168.611 216 108.964C216 49.3177 167.647 0.964478 108 0.964478C48.3532 0.964478 0 49.3177 0 108.964C0 168.611 48.3532 216.964 108 216.964Z" fill="#F2E6DC"/>
<path d="M99.3523 148.381H204.469L204.469 6.81944H99.3523L99.3523 148.381Z" fill="white"/>
<path d="M200.126 145.135H95.0097C94.9408 145.135 94.8748 145.108 94.8261 145.059C94.7774 145.011 94.75 144.945 94.75 144.876V3.31308C94.7498 3.27894 94.7565 3.2451 94.7695 3.21352C94.7824 3.18195 94.8016 3.15326 94.8257 3.12912C94.8499 3.10497 94.8785 3.08585 94.9101 3.07286C94.9417 3.05986 94.9755 3.05325 95.0097 3.05341H200.126C200.16 3.05325 200.194 3.05986 200.226 3.07286C200.257 3.08585 200.286 3.10497 200.31 3.12912C200.334 3.15326 200.353 3.18195 200.366 3.21352C200.379 3.2451 200.386 3.27894 200.386 3.31308V144.876C200.386 144.91 200.379 144.944 200.366 144.975C200.353 145.007 200.334 145.035 200.31 145.059C200.286 145.083 200.257 145.103 200.226 145.116C200.194 145.129 200.16 145.135 200.126 145.135ZM95.2705 144.611H199.865V3.57393H95.2705V144.611Z" fill="#D3BBA3"/>
<path d="M193.596 41.6593H109.713C109.644 41.659 109.578 41.6314 109.529 41.5825C109.48 41.5336 109.453 41.4675 109.453 41.3985V19.3783C109.453 19.3093 109.48 19.2431 109.529 19.1942C109.578 19.1454 109.644 19.1177 109.713 19.1174H193.596C193.631 19.1174 193.664 19.1242 193.696 19.1373C193.728 19.1504 193.756 19.1697 193.78 19.1939C193.804 19.2181 193.824 19.2469 193.837 19.2785C193.85 19.3102 193.856 19.3441 193.856 19.3783V41.3985C193.856 41.4327 193.85 41.4666 193.837 41.4982C193.824 41.5299 193.804 41.5586 193.78 41.5829C193.756 41.6071 193.728 41.6263 193.696 41.6395C193.664 41.6526 193.631 41.6593 193.596 41.6593ZM109.974 41.1388H193.341V19.6391H109.974V41.1388Z" fill="#D3BBA3"/>
<path d="M136.158 34.5381H140.762V35.9462H134.398V25.8025H136.159L136.158 34.5381Z" fill="#D3BBA3"/>
<path d="M149.753 31.1398C149.772 32.0387 149.596 32.931 149.237 33.7554C148.929 34.4648 148.416 35.0663 147.765 35.4834C147.099 35.8783 146.339 36.0866 145.565 36.0866C144.79 36.0866 144.031 35.8783 143.365 35.4834C142.712 35.0687 142.195 34.4716 141.877 33.766C141.513 32.9586 141.331 32.0809 141.345 31.1953V30.624C141.327 29.7231 141.506 28.8291 141.87 28.0049C142.183 27.2919 142.699 26.6871 143.354 26.2662C144.019 25.8726 144.777 25.6643 145.549 25.6631C146.321 25.6618 147.08 25.8677 147.746 26.2591C148.398 26.6719 148.913 27.2682 149.226 27.973C149.588 28.7902 149.768 29.6761 149.755 30.5697L149.753 31.1398ZM147.991 30.6098C147.991 29.4862 147.779 28.6245 147.354 28.0249C146.929 27.4253 146.327 27.1259 145.547 27.1267C145.198 27.114 144.852 27.1892 144.54 27.3456C144.228 27.502 143.961 27.7344 143.762 28.0214C143.333 28.6186 143.113 29.463 143.104 30.5544V31.1445C143.104 32.2588 143.321 33.1204 143.755 33.7295C143.955 34.0217 144.225 34.2587 144.541 34.4182C144.856 34.5778 145.208 34.6547 145.561 34.6418C146.341 34.6418 146.941 34.3444 147.361 33.7495C147.781 33.1546 147.991 32.2863 147.991 31.1445V30.6098Z" fill="#D3BBA3"/>
<path d="M157.03 33.5856H153.103L152.277 35.9462H150.445L154.274 25.8025H155.855L159.691 35.9462H157.853L157.03 33.5856ZM153.598 32.1692H156.536L155.067 27.9613L153.598 32.1692Z" fill="#D3BBA3"/>
<path d="M168.892 35.9462H167.131L162.613 28.7462V35.9462H160.852V25.8025H162.613L167.145 33.0273V25.8025H168.892V35.9462Z" fill="#D3BBA3"/>
<path d="M169.724 133.698C168.745 133.698 167.835 133.322 167.245 132.655C167.062 132.449 166.91 132.219 166.792 131.97C166.688 132.032 166.582 132.088 166.473 132.139C164.783 132.93 162.591 132.439 161.373 130.999C161.259 130.864 161.155 130.723 161.059 130.575C161.012 130.615 160.963 130.657 160.915 130.693C159.861 131.548 158.172 132.098 156.784 131.401C155.485 130.751 155.003 129.437 154.867 128.197C153.649 128.072 152.402 127.271 152.216 125.972C152.209 125.937 152.209 125.901 152.217 125.867C152.224 125.832 152.239 125.799 152.259 125.77C152.28 125.742 152.306 125.717 152.336 125.699C152.366 125.68 152.4 125.668 152.435 125.663C152.47 125.658 152.506 125.661 152.54 125.67C152.574 125.679 152.606 125.695 152.634 125.717C152.662 125.739 152.685 125.767 152.701 125.798C152.718 125.829 152.729 125.863 152.732 125.899C152.872 126.877 153.846 127.532 154.829 127.669C154.806 126.986 154.856 126.302 154.977 125.628C155.767 121.316 157.863 117.351 160.982 114.27C162.28 113 164.169 111.985 165.629 112.948C167.232 114.01 166.801 116.378 165.947 118.086C164.285 121.393 161.906 124.288 158.983 126.559C157.992 127.326 156.792 128.121 155.399 128.211C155.55 129.391 156.028 130.444 157.019 130.94C158.206 131.53 159.67 131.043 160.594 130.293C160.667 130.235 160.738 130.175 160.806 130.111C160.481 129.427 160.33 128.673 160.366 127.916C160.402 127.159 160.624 126.423 161.013 125.772C161.376 125.182 162.042 124.736 162.631 124.682C162.807 124.66 162.986 124.68 163.153 124.742C163.32 124.803 163.469 124.904 163.588 125.036C164.042 125.538 163.986 126.301 163.425 127.308C162.887 128.274 162.289 129.348 161.452 130.207C161.549 130.366 161.658 130.517 161.778 130.659C162.848 131.927 164.775 132.359 166.263 131.663C166.385 131.607 166.503 131.543 166.617 131.472C166.455 130.891 166.44 130.279 166.572 129.69C166.808 128.589 167.509 127.683 168.434 127.286C168.468 127.271 168.506 127.265 168.544 127.266C168.581 127.268 168.618 127.277 168.652 127.295C168.686 127.312 168.715 127.336 168.739 127.366C168.762 127.395 168.779 127.43 168.788 127.466C169.142 129.001 168.475 130.694 167.237 131.669C167.338 131.901 167.475 132.116 167.643 132.306C168.202 132.933 169.106 133.25 170.065 133.158C171.023 133.066 171.846 132.568 172.27 131.844C172.304 131.784 172.361 131.741 172.428 131.723C172.495 131.706 172.566 131.715 172.625 131.75C172.685 131.785 172.728 131.842 172.746 131.909C172.764 131.975 172.754 132.046 172.719 132.106C172.211 132.977 171.238 133.564 170.123 133.676C169.979 133.691 169.849 133.698 169.724 133.698ZM168.33 127.924C168.006 128.139 167.727 128.415 167.511 128.738C167.295 129.061 167.144 129.423 167.069 129.804C166.97 130.244 166.966 130.699 167.057 131.141C167.51 130.744 167.861 130.245 168.082 129.686C168.303 129.127 168.388 128.523 168.33 127.924ZM162.749 125.194H162.672C162.249 125.233 161.728 125.597 161.45 126.039C161.121 126.589 160.926 127.208 160.882 127.847C160.837 128.486 160.944 129.126 161.193 129.716C161.923 128.924 162.471 127.945 162.964 127.054C163.404 126.265 163.482 125.703 163.2 125.385C163.144 125.322 163.074 125.272 162.996 125.239C162.918 125.206 162.834 125.19 162.749 125.194ZM164.327 113.086C163.314 113.086 162.191 113.807 161.343 114.641C158.301 117.646 156.256 121.514 155.485 125.72C155.366 126.37 155.32 127.031 155.348 127.69C156.605 127.616 157.727 126.864 158.653 126.147C161.516 123.924 163.846 121.09 165.473 117.852C166.292 116.217 166.567 114.193 165.334 113.383C165.035 113.186 164.685 113.083 164.327 113.086Z" fill="#D87355"/>
<path d="M163.616 94.6144H131.641V96.5773H163.616V94.6144Z" fill="#F2E6DC"/>
<path d="M175.911 99.5201H136.602V101.483H175.911V99.5201Z" fill="#F2E6DC"/>
<path d="M169.462 104.426H131.641V106.389H169.462V104.426Z" fill="#F2E6DC"/>
<path d="M179.657 73.0162H140.102V74.9791H179.657V73.0162Z" fill="#F2E6DC"/>
<path d="M168.392 77.9219H130.57V79.8848H168.392V77.9219Z" fill="#F2E6DC"/>
<path d="M174.981 82.8252H130.57V84.7881H174.981V82.8252Z" fill="#F2E6DC"/>
<path d="M174.982 52.7247H140.242V54.6876H174.982V52.7247Z" fill="#F2E6DC"/>
<path d="M168.392 57.6304H130.711V59.5933H168.392V57.6304Z" fill="#F2E6DC"/>
<path d="M179.657 62.5337H130.711V64.4966H179.657V62.5337Z" fill="#F2E6DC"/>
<path d="M125.591 108.695H109.713C109.644 108.695 109.578 108.667 109.529 108.619C109.48 108.57 109.453 108.504 109.453 108.435V92.5678C109.453 92.4989 109.48 92.4329 109.529 92.3842C109.578 92.3355 109.644 92.3081 109.713 92.3081H125.591C125.625 92.308 125.659 92.3146 125.69 92.3275C125.722 92.3405 125.751 92.3596 125.775 92.3837C125.799 92.4079 125.818 92.4365 125.832 92.4681C125.845 92.4997 125.851 92.5336 125.851 92.5678V108.435C125.851 108.469 125.845 108.503 125.832 108.535C125.818 108.566 125.799 108.595 125.775 108.619C125.751 108.643 125.722 108.662 125.69 108.675C125.659 108.688 125.625 108.695 125.591 108.695ZM109.977 108.174H125.331V92.8298H109.974L109.977 108.174Z" fill="#F2E6DC"/>
<path d="M116.789 106.037L111.82 101.517L113.356 99.6253L116.506 102.144L121.451 94.9666L123.463 96.3511L116.789 106.037Z" fill="#D87355"/>
<path d="M125.591 87.0975H109.713C109.644 87.0972 109.578 87.0696 109.529 87.0207C109.48 86.9718 109.453 86.9056 109.453 86.8367V70.9695C109.453 70.9007 109.481 70.8349 109.53 70.7862C109.578 70.7376 109.644 70.7101 109.713 70.7098H125.591C125.66 70.7098 125.726 70.7372 125.775 70.7858C125.823 70.8345 125.851 70.9005 125.851 70.9695V86.8367C125.851 86.9058 125.824 86.9722 125.775 87.0211C125.726 87.07 125.66 87.0975 125.591 87.0975ZM109.977 86.577H125.331V71.2327H109.974L109.977 86.577Z" fill="#F2E6DC"/>
<path d="M116.789 84.4374L111.82 79.9191L113.356 78.0259L116.506 80.5447L121.451 73.3683L123.463 74.7528L116.789 84.4374Z" fill="#D87355"/>
<path d="M125.591 66.8048H109.713C109.644 66.8045 109.578 66.7771 109.53 66.7284C109.481 66.6798 109.453 66.6139 109.453 66.5452V50.678C109.453 50.6091 109.48 50.5431 109.529 50.4944C109.578 50.4457 109.644 50.4183 109.713 50.4183H125.591C125.625 50.4182 125.659 50.4248 125.69 50.4378C125.722 50.4507 125.751 50.4698 125.775 50.494C125.799 50.5181 125.818 50.5468 125.832 50.5784C125.845 50.6099 125.851 50.6438 125.851 50.678V66.5452C125.851 66.6141 125.823 66.6802 125.775 66.7288C125.726 66.7775 125.66 66.8048 125.591 66.8048ZM109.977 66.2843H125.331V50.94H109.974L109.977 66.2843Z" fill="#F2E6DC"/>
<path d="M116.789 64.1459L111.82 59.6276L113.356 57.7355L116.506 60.2532L121.451 53.0768L123.463 54.4613L116.789 64.1459Z" fill="#D87355"/>
<path d="M72.375 45.7962H88.2422V42.8064H72.375V45.7962Z" fill="#E6D0BE"/>
<path d="M74.777 78.0306H85.8438V44.3004H74.777V78.0306Z" fill="#E6D0BE"/>
<path d="M53.4766 45.7962H69.3438V42.8064H53.4766V45.7962Z" fill="#E6D0BE"/>
<path d="M55.8786 86.4218H66.9453V44.3006H55.8786L55.8786 86.4218Z" fill="#E6D0BE"/>
<path d="M34.6094 45.7962H50.4766V42.8064H34.6094V45.7962Z" fill="#E6D0BE"/>
<path d="M34.6094 89.4323H50.4766V86.4425H34.6094V89.4323Z" fill="#E6D0BE"/>
<path d="M37.0036 88.1019H48.0703L48.0703 44.3023H37.0036L37.0036 88.1019Z" fill="#E6D0BE"/>
<path d="M53.4766 45.7962H69.3438V42.8064H53.4766V45.7962Z" fill="#E6D0BE"/>
<path d="M53.4766 89.4323H69.3438V86.4425H53.4766V89.4323Z" fill="#E6D0BE"/>
<path d="M55.8786 88.1019H66.9453V44.3023H55.8786L55.8786 88.1019Z" fill="#E6D0BE"/>
<path d="M72.375 45.7962H88.2422V42.8064H72.375V45.7962Z" fill="#E6D0BE"/>
<path d="M72.375 89.4323H88.2422V86.4425H72.375V89.4323Z" fill="#E6D0BE"/>
<path d="M74.777 88.1019H85.8438V44.3023H74.777V88.1019Z" fill="#E6D0BE"/>
<path d="M88.1221 91.2589H15.7031V96.7463H88.1221V91.2589Z" fill="#E6D0BE"/>
<path d="M13.7103 105.768L89.9453 105.768V98.4759L13.7103 98.4759V105.768Z" fill="#E6D0BE"/>
<path d="M11.031 115.097L92.6719 115.097V107.539L11.031 107.539V115.097Z" fill="#E6D0BE"/>
<path d="M15.7032 45.7962H31.5703V42.8064H15.7032V45.7962Z" fill="#E6D0BE"/>
<path d="M15.7032 89.4323H31.5703V86.4425H15.7032V89.4323Z" fill="#E6D0BE"/>
<path d="M18.1051 88.1019H29.1719L29.1719 44.3023H18.1051L18.1051 88.1019Z" fill="#E6D0BE"/>
<path d="M52.2846 6.42548L89.0223 31.2454H15.5469L52.2846 6.42548Z" fill="#E6D0BE"/>
<path d="M89.0235 34.3071H15.5469V40.512H89.0235V34.3071Z" fill="#E6D0BE"/>
<path d="M153.203 203.228L212.678 177.627L204.795 159.314L200.343 156.232L200.932 150.339L197.49 142.343L138.016 167.945L141.456 175.939L145.644 178.889L145.319 184.914L153.203 203.228Z" fill="white"/>
<path d="M152.113 205.225L152.01 204.989L136.719 169.461L136.955 169.359L196.669 143.655L212.063 179.419L211.827 179.521L152.113 205.225ZM137.402 169.736L152.381 204.542L211.378 179.147L196.395 144.341L137.402 169.736Z" fill="#4B0082"/>
<path d="M145.314 184.919L204.789 159.317L200.925 150.341L141.45 175.943L145.314 184.919Z" fill="#4B0082"/>
<path d="M144.578 215.049C153.445 215.049 160.633 212.773 160.633 209.966C160.633 207.159 153.445 204.884 144.578 204.884C135.711 204.884 128.523 207.159 128.523 209.966C128.523 212.773 135.711 215.049 144.578 215.049Z" fill="#E0AA63"/>
<path d="M160.632 204.903H128.523V210.139H160.632V204.903Z" fill="#E0AA63"/>
<path d="M144.578 210.084C153.445 210.084 160.633 207.808 160.633 205.001C160.633 202.194 153.445 199.919 144.578 199.919C135.711 199.919 128.523 202.194 128.523 205.001C128.523 207.808 135.711 210.084 144.578 210.084Z" fill="#EFBC73"/>
<path d="M146.463 210.345C137.314 210.345 130.148 207.998 130.148 205.001C130.148 202.004 137.314 199.659 146.463 199.659C155.612 199.659 162.777 202.006 162.777 205.001C162.777 207.997 155.612 210.345 146.463 210.345ZM146.463 200.18C137.902 200.18 130.669 202.388 130.669 205.001C130.669 207.614 137.902 209.824 146.463 209.824C155.024 209.824 162.257 207.616 162.257 205.001C162.257 202.387 155.024 200.18 146.463 200.18Z" fill="white"/>
<path d="M147.211 207.664C156.078 207.664 163.266 205.389 163.266 202.582C163.266 199.775 156.078 197.499 147.211 197.499C138.344 197.499 131.156 199.775 131.156 202.582C131.156 205.389 138.344 207.664 147.211 207.664Z" fill="#E0AA63"/>
<path d="M163.265 197.52H131.156V202.756H163.265V197.52Z" fill="#E0AA63"/>
<path d="M147.211 202.702C156.078 202.702 163.266 200.426 163.266 197.619C163.266 194.812 156.078 192.537 147.211 192.537C138.344 192.537 131.156 194.812 131.156 197.619C131.156 200.426 138.344 202.702 147.211 202.702Z" fill="#EFBC73"/>
<path d="M146.095 202.35C136.947 202.35 129.781 200.004 129.781 197.007C129.781 194.01 136.947 191.665 146.095 191.665C155.242 191.665 162.415 194.011 162.415 197.007C162.415 200.003 155.243 202.35 146.095 202.35ZM146.095 192.185C137.534 192.185 130.302 194.394 130.302 197.007C130.302 199.62 137.534 201.83 146.095 201.83C154.655 201.83 161.89 199.621 161.89 197.007C161.89 194.393 154.657 192.185 146.095 192.185Z" fill="white"/>
<path d="M144.578 198.503C153.445 198.503 160.633 196.227 160.633 193.42C160.633 190.613 153.445 188.338 144.578 188.338C135.711 188.338 128.523 190.613 128.523 193.42C128.523 196.227 135.711 198.503 144.578 198.503Z" fill="#E0AA63"/>
<path d="M160.632 188.359H128.523V193.595H160.632V188.359Z" fill="#E0AA63"/>
<path d="M144.578 193.54C153.445 193.54 160.633 191.265 160.633 188.458C160.633 185.651 153.445 183.375 144.578 183.375C135.711 183.375 128.523 185.651 128.523 188.458C128.523 191.265 135.711 193.54 144.578 193.54Z" fill="#EFBC73"/>
<path d="M146.463 193.8C137.314 193.8 130.148 191.453 130.148 188.458C130.148 185.462 137.314 183.115 146.463 183.115C155.612 183.115 162.777 185.462 162.777 188.458C162.777 191.453 155.612 193.8 146.463 193.8ZM146.463 183.636C137.902 183.636 130.669 185.843 130.669 188.458C130.669 191.072 137.902 193.279 146.463 193.279C155.024 193.279 162.257 191.071 162.257 188.458C162.257 185.844 155.024 183.636 146.463 183.636Z" fill="white"/>
<path d="M149.781 191.146C158.648 191.146 165.836 188.871 165.836 186.064C165.836 183.257 158.648 180.982 149.781 180.982C140.915 180.982 133.727 183.257 133.727 186.064C133.727 188.871 140.915 191.146 149.781 191.146Z" fill="#E0AA63"/>
<path d="M165.835 181H133.727V186.236H165.835V181Z" fill="#E0AA63"/>
<path d="M149.781 186.182C158.648 186.182 165.836 183.906 165.836 181.099C165.836 178.292 158.648 176.017 149.781 176.017C140.915 176.017 133.727 178.292 133.727 181.099C133.727 183.906 140.915 186.182 149.781 186.182Z" fill="#EFBC73"/>
<path d="M151.666 186.443C142.517 186.443 135.352 184.097 135.352 181.101C135.352 178.106 142.517 175.759 151.666 175.759C160.815 175.759 167.981 178.106 167.981 181.101C167.981 184.097 160.811 186.443 151.666 186.443ZM151.666 176.279C143.104 176.279 135.872 178.487 135.872 181.101C135.872 183.716 143.102 185.923 151.666 185.923C160.231 185.923 167.46 183.715 167.46 181.101C167.46 178.488 160.225 176.279 151.666 176.279Z" fill="white"/>
<path d="M181.211 215.228C190.078 215.228 197.266 212.953 197.266 210.146C197.266 207.339 190.078 205.063 181.211 205.063C172.344 205.063 165.156 207.339 165.156 210.146C165.156 212.953 172.344 215.228 181.211 215.228Z" fill="#E0AA63"/>
<path d="M197.265 205.082H165.156V210.318H197.265V205.082Z" fill="#E0AA63"/>
<path d="M181.211 210.266C190.078 210.266 197.266 207.99 197.266 205.183C197.266 202.376 190.078 200.101 181.211 200.101C172.344 200.101 165.156 202.376 165.156 205.183C165.156 207.99 172.344 210.266 181.211 210.266Z" fill="#EFBC73"/>
<path d="M183.104 210.526C173.955 210.526 166.789 208.179 166.789 205.183C166.789 202.187 173.955 199.841 183.104 199.841C192.252 199.841 199.418 202.187 199.418 205.183C199.418 208.179 192.251 210.526 183.104 210.526ZM183.104 200.361C174.541 200.361 167.31 202.57 167.31 205.183C167.31 207.796 174.541 210.006 183.104 210.006C191.666 210.006 198.898 207.798 198.898 205.183C198.898 202.569 191.664 200.361 183.104 200.361Z" fill="white"/>
<path d="M179.32 207.607C188.187 207.607 195.375 205.338 195.375 202.539C195.375 199.74 188.187 197.471 179.32 197.471C170.454 197.471 163.266 199.74 163.266 202.539C163.266 205.338 170.454 207.607 179.32 207.607Z" fill="#E0AA63"/>
<path d="M195.374 197.49H163.266V202.712H195.374V197.49Z" fill="#E0AA63"/>
<path d="M179.32 202.657C188.187 202.657 195.375 200.388 195.375 197.589C195.375 194.789 188.187 192.52 179.32 192.52C170.454 192.52 163.266 194.789 163.266 197.589C163.266 200.388 170.454 202.657 179.32 202.657Z" fill="#EFBC73"/>
<path d="M181.213 202.917C172.065 202.917 164.898 200.577 164.898 197.588C164.898 194.6 172.065 192.26 181.213 192.26C190.36 192.26 197.527 194.601 197.527 197.588C197.527 200.576 190.362 202.917 181.213 202.917ZM181.213 192.781C172.652 192.781 165.419 194.982 165.419 197.588C165.419 200.194 172.652 202.397 181.213 202.397C189.774 202.397 197.007 200.196 197.007 197.588C197.007 194.981 189.774 192.78 181.213 192.78V192.781Z" fill="white"/>
<path d="M184.06 198.49C186.054 196.515 182.611 189.808 176.371 183.511C170.131 177.213 163.456 173.71 161.462 175.686C159.468 177.662 162.91 184.368 169.151 190.666C175.391 196.963 182.066 200.466 184.06 198.49Z" fill="#E0AA63"/>
<path d="M165.056 172.113L161.336 175.799L183.934 198.604L187.654 194.917L165.056 172.113Z" fill="#E0AA63"/>
<path d="M187.583 194.998C189.577 193.022 186.135 186.315 179.894 180.018C173.654 173.721 166.979 170.218 164.985 172.193C162.991 174.169 166.434 180.876 172.674 187.173C178.915 193.47 185.59 196.974 187.583 194.998Z" fill="#EFBC73"/>
<path d="M187.319 87.1357C184.307 87.1357 178.976 83.8945 173.818 78.6892C170.782 75.6204 168.303 72.3662 166.84 69.5146C165.331 66.5755 165.081 64.3837 166.131 63.3415C168.256 61.2346 174.971 64.6717 181.409 71.1694C184.445 74.2382 186.924 77.4924 188.388 80.3441C189.895 83.2831 190.146 85.475 189.096 86.5172C188.677 86.9362 188.072 87.1357 187.319 87.1357ZM167.923 63.2281C167.318 63.2281 166.835 63.3839 166.507 63.7121C165.643 64.5678 165.935 66.5968 167.31 69.2773C168.75 72.083 171.196 75.297 174.195 78.3233C180.215 84.4032 186.88 87.9855 188.737 86.1466C189.602 85.2908 189.309 83.263 187.933 80.5825C186.493 77.7757 184.049 74.5628 181.049 71.5365C176.094 66.539 170.713 63.2281 167.923 63.2281Z" fill="white"/>
<path d="M55.6016 29.4992C55.6016 27.7264 56.1666 26.2647 57.2965 25.1143C58.4265 23.9639 59.8787 23.389 61.6531 23.3898C63.4535 23.3898 64.912 23.9686 66.0286 25.1261C67.1452 26.2836 67.7035 27.7822 67.7035 29.622V31.062C67.7035 32.8474 67.1385 34.3055 66.0085 35.4363C64.8786 36.567 63.4401 37.132 61.6932 37.1312C59.9338 37.1312 58.478 36.5662 57.326 35.4363C56.174 34.3063 55.5992 32.801 55.6016 30.9203V29.4992ZM58.4037 31.0537C58.4037 32.1128 58.7015 32.9847 59.2972 33.6693C59.8928 34.3539 60.6915 34.6962 61.6932 34.6962C62.654 34.6962 63.4291 34.3637 64.0185 33.6988C64.6079 33.0339 64.9022 32.125 64.9014 30.9723V29.4874C64.9014 28.4298 64.6102 27.5552 64.0279 26.8635C63.4456 26.1719 62.654 25.8256 61.6531 25.8248C60.6506 25.8248 59.8586 26.1711 59.2771 26.8635C58.6956 27.556 58.4045 28.4578 58.4037 29.5688V31.0537ZM62.5466 51.1393L60.4138 49.7997L74.8515 26.6948L76.9832 28.0344L62.5466 51.1393ZM69.9957 46.1253C69.9957 44.3525 70.561 42.8944 71.6918 41.751C72.8226 40.6077 74.2751 40.0348 76.0496 40.0325C77.8224 40.0325 79.2782 40.601 80.4168 41.738C81.5554 42.8751 82.1239 44.3839 82.1224 46.2646V47.7046C82.1224 49.4774 81.5574 50.9355 80.4274 52.0789C79.2974 53.2222 77.8523 53.7939 76.0921 53.7939C74.3326 53.7939 72.8769 53.2289 71.7249 52.0989C70.5729 50.969 69.9965 49.4648 69.9957 47.5866V46.1253ZM72.8001 47.7046C72.8001 48.7763 73.098 49.6545 73.6936 50.3391C74.2893 51.0237 75.088 51.366 76.0897 51.366C77.0647 51.366 77.8429 51.0304 78.4244 50.3591C79.0059 49.6879 79.297 48.7759 79.2978 47.6231V46.1135C79.2978 45.0418 79.0035 44.1668 78.4149 43.4885C77.8264 42.8102 77.0395 42.471 76.0543 42.471C75.0927 42.471 74.3109 42.807 73.709 43.479C73.107 44.151 72.8056 45.0559 72.8048 46.1938L72.8001 47.7046Z" fill="#D87355"/>
<path d="M61.1039 195.009L62.7776 216.468H95.9153C94.6039 203.43 92.9526 173.705 88.694 153.942C75.5027 151.524 57.4826 149.103 44.2913 146.687C38.8747 155.067 25.4816 196.589 20.2031 216.468H55.62L61.1039 195.009Z" fill="#8BBEB2"/>
<path d="M67.0859 173.316L70.0733 190.637L93.8227 181.808L92.2494 173.157L67.0859 173.316Z" fill="white"/>
<path d="M67.3985 174.021L64.4111 190.378L31.0078 177.687L32.58 169.036L67.3985 174.021Z" fill="white"/>
<path d="M120.205 144.72C128.153 143.952 146.13 142.195 147.96 142.006C151.383 141.642 167.99 140.051 168.252 142.464C168.418 143.998 160.131 144.955 158.701 145.234C160.452 145.341 169.458 144.477 169.751 145.862C170.068 147.364 158.695 149.477 158.611 149.521C159.858 149.446 168.998 148.709 169.061 150.047C169.133 151.601 159.707 153.201 158.159 153.376C158.298 153.548 164.937 152.626 165.211 154.128C165.456 155.466 157.926 156.826 156.915 157.165C154.25 157.976 149.227 158.773 143.57 159.967C130.285 162.771 123.977 163.492 117.312 163.715C112.513 163.876 108.259 158.621 105.711 153.464C109.719 149.469 113.12 148.057 120.205 144.72Z" fill="#E2A18D"/>
<path d="M117.736 145.699C117.671 145.697 117.609 145.67 117.562 145.624C117.515 145.578 117.488 145.517 117.485 145.451C117.482 145.386 117.503 145.322 117.545 145.271C117.587 145.221 117.646 145.189 117.711 145.18C118.361 145.118 119.925 144.87 121.582 144.609C123.287 144.34 125.051 144.061 125.816 143.987C125.849 143.984 125.884 143.987 125.916 143.997C125.949 144.007 125.979 144.023 126.006 144.045C126.032 144.066 126.054 144.093 126.07 144.123C126.086 144.153 126.096 144.186 126.099 144.22C126.103 144.254 126.099 144.288 126.089 144.321C126.08 144.353 126.063 144.384 126.042 144.41C126.02 144.437 125.993 144.458 125.963 144.474C125.933 144.491 125.9 144.5 125.866 144.504C125.117 144.577 123.36 144.858 121.663 145.122C119.998 145.386 118.425 145.633 117.768 145.698L117.736 145.699Z" fill="#4B0082"/>
<path d="M151.18 148.641C151.114 148.639 151.051 148.611 151.004 148.563C150.958 148.516 150.931 148.453 150.93 148.387C150.928 148.32 150.952 148.256 150.996 148.206C151.041 148.157 151.102 148.126 151.168 148.121C158.847 147.738 159.155 146.791 159.165 146.683C159.174 146.576 159.068 145.698 152.71 144.086C152.643 144.069 152.585 144.027 152.55 143.968C152.515 143.908 152.504 143.837 152.521 143.771C152.538 143.704 152.581 143.646 152.64 143.611C152.699 143.576 152.77 143.565 152.837 143.582C159.81 145.353 159.718 146.357 159.683 146.735C159.645 147.143 159.546 148.229 151.193 148.645L151.18 148.641Z" fill="#4B0082"/>
<path d="M66.2149 111.546C66.2149 111.546 77.7715 106.849 80.17 108.012C95.7255 115.549 115.391 137.651 119.137 141.231C118.54 141.973 142.413 140.444 142.413 140.444L143.201 162.463C143.201 162.463 122.652 167.326 109.071 164.823C99.1803 163 94.76 153.185 93.9739 150.827C94.3481 162.853 93.6587 170.642 93.1878 177.249C79.5042 181.498 48.3648 178.665 32.323 172.527C32.6393 167.366 34.0191 147.928 34.2552 140.693C33.7831 140.877 29.1798 142.803 29.1798 142.803L44.9065 157.43L28.3913 174.101C28.3913 174.101 0.281808 148.927 0.868431 137.298C1.49637 124.876 29.6566 109.275 55.0561 105.769C61.4936 104.881 66.2149 111.546 66.2149 111.546Z" fill="#4B0082"/>
<path d="M80.1705 108.014C77.7745 106.852 75.474 106.033 73.3447 105.685C67.7547 104.77 61.493 104.882 55.0496 105.771C55.0233 106.206 55.0253 106.642 55.0555 107.077C55.5064 113.182 61.5379 117.716 68.5266 117.199C74.4223 116.765 79.113 112.88 80.1705 108.014Z" fill="white"/>
<path d="M117.221 128.664L100.633 134.019L104.751 140.843L117.221 128.664Z" fill="white"/>
<path d="M112.039 133.754L117.266 128.649L110.312 130.893L112.039 133.754Z" fill="#D87355"/>
<path d="M19.9718 187.337C19.4256 186.432 19.2613 185.347 19.5149 184.321C19.7686 183.295 20.4195 182.412 21.3245 181.865L100.628 134.014L104.747 140.838L25.4426 188.693C24.9944 188.964 24.4973 189.143 23.9797 189.221C23.4622 189.299 22.9343 189.275 22.4263 189.149C21.9182 189.023 21.44 188.798 21.0188 188.487C20.5977 188.176 20.2419 187.786 19.9718 187.337Z" fill="#EFBC73"/>
<path d="M32.6598 178.619C32.6028 178.62 32.5472 178.601 32.5017 178.567C32.4562 178.533 32.4233 178.484 32.408 178.43C32.3927 178.375 32.3959 178.316 32.417 178.263C32.4382 178.21 32.4762 178.166 32.5252 178.137L101.998 136.216C102.057 136.185 102.126 136.177 102.19 136.194C102.255 136.212 102.31 136.254 102.345 136.311C102.379 136.369 102.391 136.437 102.376 136.502C102.362 136.568 102.323 136.625 102.267 136.662L32.7943 178.583C32.7535 178.607 32.7071 178.619 32.6598 178.619Z" fill="#4B0082"/>
<path d="M34.4254 181.554C34.3684 181.554 34.3129 181.536 34.2674 181.501C34.2218 181.467 34.1889 181.419 34.1736 181.364C34.1583 181.309 34.1615 181.25 34.1827 181.197C34.2039 181.144 34.2419 181.1 34.2908 181.071L103.765 139.15C103.824 139.115 103.895 139.104 103.961 139.121C104.028 139.137 104.086 139.18 104.121 139.239C104.157 139.298 104.168 139.368 104.151 139.435C104.134 139.502 104.092 139.56 104.033 139.595L34.5599 181.515C34.5197 181.54 34.473 181.554 34.4254 181.554Z" fill="#4B0082"/>
<path d="M35.3003 183.007C35.2554 183.007 35.2113 182.996 35.1722 182.973C35.1332 182.951 35.1004 182.92 35.0772 182.881L30.959 176.056C30.9235 175.997 30.9129 175.926 30.9296 175.859C30.9463 175.793 30.989 175.735 31.0481 175.699C31.1073 175.664 31.1781 175.653 31.2451 175.67C31.3121 175.687 31.3696 175.729 31.4052 175.789L35.5245 182.618C35.5593 182.677 35.5695 182.747 35.553 182.813C35.5364 182.879 35.4944 182.937 35.436 182.972C35.3949 182.996 35.3479 183.008 35.3003 183.007Z" fill="#4B0082"/>
<path d="M31.1675 185.5C31.1226 185.5 31.0783 185.489 31.0392 185.466C31.0001 185.444 30.9674 185.412 30.9444 185.374L26.8263 178.549C26.8087 178.52 26.797 178.487 26.792 178.454C26.7869 178.42 26.7885 178.385 26.7967 178.352C26.8049 178.319 26.8196 178.288 26.8399 178.261C26.8601 178.233 26.8856 178.21 26.9148 178.192C26.944 178.175 26.9764 178.163 27.0101 178.158C27.0439 178.153 27.0783 178.155 27.1114 178.163C27.1445 178.171 27.1756 178.186 27.2031 178.206C27.2305 178.226 27.2537 178.252 27.2713 178.281L31.393 185.106C31.4281 185.164 31.4385 185.235 31.4219 185.301C31.4053 185.367 31.3631 185.424 31.3044 185.46C31.2636 185.486 31.2161 185.5 31.1675 185.5Z" fill="#4B0082"/>
<path d="M43.0489 156.295C43.0489 156.295 50.3893 161.664 51.0574 162.188C54.1487 164.61 60.8824 169.589 59.6927 172.007C59.2972 172.811 58.366 173.319 57.2954 173.381C57.4587 173.908 57.4628 174.472 57.3072 175.002C57.1517 175.531 56.8433 176.003 56.4208 176.358C55.2995 177.272 53.9161 176.854 53.8158 176.821C54.1793 177.634 54.118 178.557 53.6246 179.201C52.9447 180.09 51.526 180.338 50.3787 179.62C50.3563 179.872 50.243 180.764 49.5088 181.413C48.6944 182.132 47.4444 182.262 46.3467 181.734C43.5977 179.585 30.2812 171.273 30.2812 171.273L43.0489 156.295Z" fill="#E2A18D"/>
<path d="M54.5643 169.82C54.5002 169.821 54.4384 169.797 54.3908 169.754C54.3396 169.708 54.3088 169.644 54.3051 169.575C54.3013 169.506 54.3249 169.439 54.3707 169.387L55.5239 168.1C55.5467 168.074 55.5742 168.053 55.605 168.039C55.6358 168.024 55.6692 168.015 55.7033 168.013C55.7374 168.012 55.7715 168.016 55.8037 168.028C55.8359 168.039 55.8655 168.057 55.891 168.079C55.9164 168.102 55.9371 168.13 55.9518 168.161C55.9666 168.191 55.9752 168.225 55.977 168.259C55.9789 168.293 55.974 168.327 55.9627 168.359C55.9514 168.391 55.9338 168.421 55.911 168.447L54.759 169.734C54.7344 169.761 54.7043 169.783 54.6708 169.798C54.6372 169.813 54.6009 169.82 54.5643 169.82Z" fill="#4B0082"/>
<path d="M51.6429 173.093C51.5927 173.093 51.5435 173.079 51.5014 173.052C51.4592 173.024 51.4259 172.985 51.4054 172.94C51.3849 172.894 51.3782 172.843 51.386 172.793C51.3937 172.744 51.4157 172.697 51.4493 172.66L52.6025 171.372C52.6253 171.347 52.6528 171.326 52.6836 171.311C52.7144 171.297 52.7478 171.288 52.7819 171.286C52.8159 171.284 52.8501 171.289 52.8823 171.301C52.9145 171.312 52.9441 171.329 52.9696 171.352C52.995 171.375 53.0157 171.403 53.0304 171.433C53.0452 171.464 53.0537 171.498 53.0556 171.532C53.0575 171.566 53.0526 171.6 53.0413 171.632C53.03 171.664 53.0124 171.694 52.9896 171.719L51.8376 173.007C51.8131 173.034 51.7831 173.056 51.7495 173.071C51.7159 173.086 51.6796 173.093 51.6429 173.093Z" fill="#4B0082"/>
<path d="M48.7064 176.458C48.656 176.459 48.6066 176.444 48.5642 176.417C48.5218 176.389 48.4883 176.35 48.4678 176.304C48.4473 176.258 48.4406 176.207 48.4486 176.157C48.4566 176.108 48.4789 176.061 48.5129 176.024L49.6649 174.736C49.712 174.689 49.7753 174.662 49.8418 174.66C49.9083 174.659 49.9729 174.682 50.0225 174.727C50.0721 174.771 50.1029 174.833 50.1086 174.899C50.1143 174.965 50.0945 175.031 50.0532 175.083L48.9 176.371C48.8758 176.398 48.846 176.42 48.8126 176.435C48.7792 176.45 48.743 176.458 48.7064 176.458Z" fill="#4B0082"/>
<path d="M45.9788 179.453C45.9286 179.453 45.8794 179.439 45.8373 179.412C45.7952 179.384 45.7618 179.346 45.7413 179.3C45.7209 179.254 45.7141 179.203 45.7219 179.153C45.7297 179.104 45.7517 179.058 45.7852 179.02L46.9372 177.732C46.9844 177.686 47.0477 177.659 47.1142 177.657C47.1807 177.655 47.2453 177.679 47.2949 177.723C47.3445 177.767 47.3753 177.829 47.381 177.895C47.3867 177.961 47.3668 178.027 47.3256 178.08L46.1724 179.367C46.1482 179.395 46.1184 179.417 46.085 179.431C46.0516 179.446 46.0154 179.454 45.9788 179.453Z" fill="#4B0082"/>
<path d="M70.5907 115.333L66.606 112.607L62.8313 120.051L57.4844 106.734L70.5907 115.333Z" fill="white"/>
<path d="M62.8374 120.312H62.8268C62.7768 120.309 62.7285 120.293 62.6877 120.264C62.6468 120.235 62.6152 120.195 62.5966 120.149L57.2474 106.833C57.2267 106.77 57.2308 106.702 57.2587 106.642C57.2866 106.582 57.3362 106.535 57.3976 106.51C57.459 106.485 57.5275 106.485 57.5893 106.509C57.651 106.533 57.7014 106.579 57.7301 106.639L62.8646 119.422L66.3784 112.489C66.3954 112.457 66.4191 112.428 66.448 112.404C66.4768 112.381 66.5102 112.364 66.546 112.355C66.5819 112.346 66.6193 112.345 66.6557 112.351C66.6921 112.358 66.7267 112.372 66.7573 112.393L70.7421 115.119C70.7728 115.137 70.7995 115.162 70.8205 115.191C70.8415 115.219 70.8563 115.252 70.8641 115.287C70.8718 115.322 70.8724 115.358 70.8656 115.393C70.8588 115.428 70.8449 115.462 70.8248 115.491C70.8046 115.521 70.7786 115.546 70.7483 115.565C70.7181 115.584 70.6843 115.596 70.649 115.602C70.6137 115.607 70.5776 115.605 70.5431 115.596C70.5085 115.587 70.4762 115.571 70.4482 115.549L66.7089 112.99L63.0688 120.17C63.0469 120.212 63.0137 120.248 62.9729 120.273C62.9321 120.298 62.8853 120.311 62.8374 120.312Z" fill="#4B0082"/>
<path d="M74.2344 112.528L79.3464 117.954L78.4021 108.046L74.2344 112.528Z" fill="white"/>
<path d="M79.3526 118.215C79.317 118.215 79.2817 118.208 79.249 118.194C79.2164 118.179 79.1869 118.159 79.1626 118.133L74.0518 112.703C74.024 112.679 74.0015 112.65 73.9859 112.616C73.9702 112.583 73.9618 112.547 73.961 112.511C73.9602 112.474 73.9672 112.438 73.9814 112.404C73.9957 112.37 74.0169 112.34 74.0437 112.315C74.0705 112.29 74.1022 112.27 74.1369 112.259C74.1715 112.247 74.2083 112.242 74.2448 112.245C74.2813 112.249 74.3168 112.259 74.3488 112.277C74.3808 112.295 74.4087 112.32 74.4307 112.349L79.0221 117.222L78.1499 108.07C78.1441 108.035 78.1456 107.999 78.1543 107.964C78.1631 107.93 78.1788 107.897 78.2006 107.869C78.2225 107.841 78.2498 107.817 78.2811 107.8C78.3124 107.782 78.3469 107.772 78.3824 107.768C78.418 107.765 78.4539 107.769 78.4879 107.78C78.5219 107.791 78.5532 107.809 78.58 107.833C78.6068 107.856 78.6284 107.885 78.6435 107.917C78.6587 107.95 78.667 107.985 78.668 108.021L79.6123 117.928C79.6176 117.982 79.6059 118.037 79.5788 118.084C79.5517 118.131 79.5106 118.168 79.4612 118.19C79.4272 118.206 79.3902 118.215 79.3526 118.215Z" fill="#4B0082"/>
<path d="M60.375 105.571L72.8794 115.226V82.752H60.375V105.571Z" fill="#E2A18D"/>
<path d="M77.3876 97.6721C75.4908 100.308 66.7646 97.8964 66.7646 97.8964L59.8196 90.8144C59.11 88.738 59.2543 86.4648 60.2207 84.4947C61.1871 82.5247 62.8965 81.0192 64.9729 80.3095C66.001 79.9578 67.0883 79.8122 68.1727 79.8809C69.2572 79.9495 70.3174 80.2312 71.293 80.7098C72.2685 81.1883 73.1402 81.8544 73.8582 82.67C74.5763 83.4855 75.1266 84.4345 75.4778 85.4628C75.4778 85.4628 79.3209 94.9881 77.3876 97.6721Z" fill="#E2A18D"/>
<path d="M75.2734 87.8231C75.2734 87.8231 78.2549 89.3729 78.3423 90.0209C78.4509 90.7928 76.1563 92.0711 76.1563 92.0711C76.1563 92.0711 75.3336 87.8089 75.2734 87.8231Z" fill="#E2A18D"/>
<path d="M72.8447 99.2865H72.8329C71.7246 99.237 69.1243 98.8852 68.1375 98.7129C68.1039 98.7071 68.0717 98.6947 68.0429 98.6765C68.014 98.6582 67.9891 98.6345 67.9694 98.6066C67.9497 98.5787 67.9357 98.5472 67.9282 98.5139C67.9207 98.4806 67.9199 98.4461 67.9257 98.4125C67.9315 98.3789 67.9439 98.3467 67.9621 98.3178C67.9804 98.289 68.0041 98.264 68.032 98.2444C68.0599 98.2247 68.0914 98.2107 68.1247 98.2032C68.158 98.1957 68.1924 98.1948 68.2261 98.2006C69.1774 98.3659 71.7859 98.7188 72.8565 98.7672C72.9254 98.7688 72.9908 98.7976 73.0384 98.8474C73.086 98.8972 73.1118 98.9639 73.1103 99.0328C73.1087 99.1016 73.0798 99.1671 73.03 99.2147C72.9802 99.2622 72.9136 99.2881 72.8447 99.2865Z" fill="#4B0082"/>
<path d="M67.1328 89.6219C67.9518 88.7969 68.9434 88.1636 70.0364 87.7676C70.4047 87.6413 70.7175 90.827 70.3103 90.7787C69.1798 90.6277 68.0957 90.233 67.1328 89.6219Z" fill="white"/>
<mask id="mask0_7027_25642" style="mask-type:luminance" maskUnits="userSpaceOnUse" x="67" y="87" width="9" height="4">
<path d="M67.1406 89.6221C67.1406 89.6221 68.8639 87.7643 71.2187 87.4975C73.5734 87.2308 75.6673 88.6625 75.6673 88.6625C75.6673 88.6625 73.9429 90.5215 71.5881 90.7871C69.2333 91.0527 67.1406 89.6221 67.1406 89.6221Z" fill="white"/>
</mask>
<g mask="url(#mask0_7027_25642)">
<path d="M73.8813 91.9542C75.5005 91.4008 76.3645 89.6395 75.8111 88.0203C75.2576 86.4011 73.4964 85.5371 71.8772 86.0905C70.2579 86.6439 69.394 88.4052 69.9474 90.0244C70.5008 91.6436 72.2621 92.5076 73.8813 91.9542Z" fill="#4B0082"/>
</g>
<path d="M73.9455 94.5384C73.8209 94.5387 73.6969 94.5237 73.576 94.4936C73.2987 94.4221 73.0467 94.275 72.8481 94.0686C72.6495 93.8623 72.5121 93.6049 72.4512 93.325C72.4366 93.2576 72.4494 93.1871 72.4869 93.1291C72.5243 93.0711 72.5832 93.0304 72.6506 93.0158C72.7181 93.0012 72.7886 93.0141 72.8466 93.0515C72.9046 93.0889 72.9453 93.1478 72.9599 93.2153C72.9994 93.4035 73.0918 93.5766 73.2262 93.7142C73.3607 93.8517 73.5316 93.948 73.7189 93.9918C73.9062 94.0355 74.1021 94.0249 74.2836 93.9612C74.4651 93.8974 74.6246 93.7832 74.7434 93.6319C74.7862 93.5779 74.8488 93.5432 74.9173 93.5353C74.9859 93.5275 75.0547 93.5471 75.1087 93.59C75.1627 93.6329 75.1974 93.6955 75.2053 93.764C75.2131 93.8325 75.1935 93.9013 75.1506 93.9553C75.0068 94.1373 74.8237 94.2843 74.615 94.3852C74.4062 94.4862 74.1773 94.5386 73.9455 94.5384Z" fill="#4B0082"/>
<path d="M63.2897 94.0198C63.2259 94.02 63.1642 93.9969 63.1162 93.9548C62.4351 93.3493 62.0185 92.6105 62.0031 91.9754C61.9922 91.8387 62.01 91.7012 62.0553 91.5717C62.1006 91.4422 62.1725 91.3236 62.2663 91.2236C62.722 90.775 63.6827 90.9344 64.3685 91.207C64.4287 91.2352 64.4759 91.2854 64.5004 91.3472C64.5249 91.409 64.5248 91.4778 64.5003 91.5396C64.4757 91.6014 64.4285 91.6515 64.3682 91.6796C64.308 91.7078 64.2393 91.7118 64.1761 91.691C63.416 91.3876 62.8128 91.4159 62.6323 91.5942C62.5906 91.6453 62.5594 91.7042 62.5406 91.7674C62.5218 91.8306 62.5156 91.8969 62.5225 91.9624C62.5331 92.3425 62.7845 92.9634 63.4667 93.5653C63.5063 93.6003 63.5343 93.6464 63.547 93.6977C63.5597 93.7489 63.5565 93.8028 63.5378 93.8522C63.5191 93.9015 63.4857 93.944 63.4423 93.974C63.3988 94.0039 63.3472 94.0199 63.2944 94.0198H63.2897Z" fill="#4B0082"/>
<path d="M60.6656 96.7223C58.8562 96.5878 57.1176 92.001 56.97 91.2184C56.4589 88.5037 56.08 85.8468 58.1881 82.5678C61.0209 78.1546 66.7597 78.4001 68.0179 78.5547C71.4302 78.982 74.309 81.3072 73.9195 82.4085C73.5808 83.3527 69.9819 83.4129 68.9126 83.5085C66.3241 83.7446 65.0978 83.4188 64.6138 84.1908C64.1712 84.899 65.3433 85.7748 65.898 87.9525C66.31 89.5636 66.0562 90.9033 65.9252 91.7401C65.3869 90.3108 64.1547 89.4208 62.9496 89.4066C61.6913 89.3925 61.0244 90.3627 60.7353 91.2161C60.079 93.1424 61.3372 95.1477 62.8846 96.0389C62.4786 96.4532 61.2759 96.7672 60.6656 96.7223Z" fill="#84524D"/>
<path d="M58.2762 82.4067C58.2762 83.1456 58.0571 83.8678 57.6466 84.4822C57.2361 85.0965 56.6526 85.5753 55.97 85.8581C55.2874 86.1408 54.5363 86.2148 53.8116 86.0707C53.087 85.9265 52.4213 85.5707 51.8989 85.0483C51.3764 84.5258 51.0206 83.8602 50.8765 83.1355C50.7323 82.4108 50.8063 81.6597 51.0891 80.9771C51.3718 80.2945 51.8506 79.711 52.465 79.3005C53.0793 78.8901 53.8016 78.671 54.5404 78.671C55.0311 78.6708 55.5169 78.7673 55.9702 78.955C56.4235 79.1427 56.8354 79.4179 57.1823 79.7648C57.5293 80.1117 57.8044 80.5236 57.9921 80.9769C58.1798 81.4302 58.2763 81.9161 58.2762 82.4067Z" fill="#84524D"/>
<path d="M54.1829 87.9402C53.3928 87.9402 52.6204 87.7059 51.9634 87.267C51.3064 86.8281 50.7943 86.2042 50.4919 85.4743C50.1894 84.7443 50.1101 83.9411 50.2641 83.1662C50.4181 82.3912 50.7984 81.6793 51.3569 81.1204C51.9154 80.5615 52.6271 80.1808 53.402 80.0264C54.1769 79.872 54.9801 79.9508 55.7102 80.2528C56.4404 80.5548 57.0645 81.0666 57.5038 81.7233C57.9431 82.38 58.1779 83.1523 58.1783 83.9424C58.1777 85.0021 57.7566 86.0182 57.0075 86.7677C56.2585 87.5172 55.2426 87.9389 54.1829 87.9402ZM54.1829 80.4699C53.4955 80.4699 52.8236 80.6737 52.2521 81.0557C51.6806 81.4376 51.2352 81.9804 50.9723 82.6155C50.7094 83.2506 50.6407 83.9494 50.775 84.6235C50.9092 85.2977 51.2404 85.9168 51.7266 86.4027C52.2128 86.8886 52.8322 87.2193 53.5064 87.3532C54.1807 87.487 54.8794 87.4178 55.5143 87.1544C56.1492 86.8911 56.6918 86.4453 57.0733 85.8736C57.4549 85.3018 57.6583 84.6298 57.6578 83.9424C57.6562 83.0215 57.2896 82.1388 56.6382 81.4878C55.9868 80.8369 55.1038 80.4708 54.1829 80.4699Z" fill="#84524D"/>
<path d="M69.5182 90.2411C69.4622 90.241 69.4078 90.2229 69.3629 90.1895C69.318 90.1561 69.285 90.1091 69.2689 90.0555C69.2528 90.0019 69.2543 89.9446 69.2732 89.8919C69.2922 89.8393 69.3276 89.7941 69.3742 89.7631C71.3925 88.4258 71.71 87.6019 71.6168 87.1463C71.5472 86.7922 71.2167 86.5562 70.8673 86.3047C70.479 86.0262 70.0411 85.7146 69.9879 85.1822C69.8935 84.2049 71.5436 83.1757 72.9447 82.4899C72.9757 82.4749 73.0093 82.4661 73.0437 82.4641C73.0781 82.4621 73.1126 82.4668 73.1451 82.4781C73.1777 82.4894 73.2077 82.507 73.2334 82.5299C73.2592 82.5528 73.2802 82.5805 73.2952 82.6115C73.3103 82.6425 73.319 82.6762 73.3211 82.7105C73.3231 82.7449 73.3183 82.7794 73.307 82.812C73.2958 82.8445 73.2782 82.8745 73.2553 82.9003C73.2324 82.926 73.2046 82.947 73.1736 82.962C71.1458 83.9594 70.4695 84.7573 70.5061 85.1374C70.5344 85.4313 70.8295 85.6414 71.1706 85.8857C71.5684 86.1702 72.0193 86.4936 72.1279 87.0519C72.3026 87.9525 71.4952 88.9841 69.6575 90.2022C69.6156 90.228 69.5673 90.2415 69.5182 90.2411Z" fill="#84524D"/>
</g>
<defs>
<clipPath id="clip0_7027_25642">
<rect width="216" height="216" fill="white" transform="translate(0 0.964478)"/>
</clipPath>
</defs>
</svg>
