<svg width="216" height="217" viewBox="0 0 216 217" fill="none" xmlns="http://www.w3.org/2000/svg">
<g clip-path="url(#clip0_7027_25905)">
<path d="M107.999 216.964C167.646 216.964 215.999 168.611 215.999 108.964C215.999 49.3177 167.646 0.964478 107.999 0.964478C48.353 0.964478 0 49.3177 0 108.964C0 168.611 48.353 216.964 107.999 216.964Z" fill="#F2E6DC"/>
<path d="M40.2112 90.4333C40.2336 90.4018 40.2434 90.3631 40.2389 90.3247C40.2343 90.2863 40.2156 90.251 40.1864 90.2256C27.4758 79.055 19.8468 65.6465 15.684 56.3549C11.1715 46.2891 9.64692 38.768 9.63157 38.6949C9.62343 38.654 9.59938 38.6181 9.56472 38.5949C9.53006 38.5718 9.48762 38.5634 9.44675 38.5715C9.40588 38.5796 9.36991 38.6037 9.34677 38.6383C9.32362 38.673 9.3152 38.7154 9.32334 38.7562C9.33751 38.8306 10.868 46.3788 15.3923 56.4753C19.5681 65.7928 27.2207 79.2521 39.975 90.4605C40.0065 90.4882 40.0477 90.5022 40.0895 90.4996C40.1314 90.4969 40.1705 90.4778 40.1982 90.4463L40.2112 90.4333Z" fill="#E6D0BE"/>
<path d="M10.755 43.5979C10.755 43.5979 5.82447 40.9457 7.1932 30.0631C7.1932 30.0631 15.3241 37.1699 10.755 43.5979Z" fill="#E6D0BE"/>
<path d="M11.4327 47.6464C11.5615 47.6004 8.5512 42.9416 0.46875 43.0101C0.46875 43.0101 6.62388 49.3437 11.4327 47.6464Z" fill="#E6D0BE"/>
<path d="M13.2406 53.1798C13.2406 53.1798 9.60325 50.0638 1.10156 52.3536C1.10156 52.3548 10.5397 56.3514 13.2406 53.1798Z" fill="#E6D0BE"/>
<path d="M16.1474 59.2621C16.2301 59.1535 11.1472 56.9297 4.44531 61.4457C4.44531 61.4457 13.0769 63.3306 16.1474 59.2621Z" fill="#E6D0BE"/>
<path d="M18.4693 63.8583C18.4693 63.8583 14.1884 63.5785 9.29688 69.7599C9.29688 69.7623 18.219 67.568 18.4693 63.8583Z" fill="#E6D0BE"/>
<path d="M22.0474 69.8956C22.0474 69.8956 18.5045 71.0819 16.5938 77.6858C16.5914 77.6941 23.0713 72.9786 22.0474 69.8956Z" fill="#E6D0BE"/>
<path d="M12.5013 47.5449C12.3832 47.5803 12.0466 42.6749 17.8226 38.434C17.8226 38.434 16.8177 46.1982 12.5013 47.5449Z" fill="#E6D0BE"/>
<path d="M14.7031 52.7041C14.7031 52.7041 15.7495 48.03 23.9299 44.7759C23.9252 44.7759 18.7621 53.626 14.7031 52.7041Z" fill="#E6D0BE"/>
<path d="M17.8561 59.0201C17.7238 58.9811 20.4625 54.1583 28.5343 53.7629C28.5343 53.7629 22.7535 60.4388 17.8561 59.0201Z" fill="#E6D0BE"/>
<path d="M19.9062 63.5101C19.9062 63.5101 23.1657 60.7245 30.7887 62.7488C30.7887 62.7488 22.3296 66.3322 19.9062 63.5101Z" fill="#E6D0BE"/>
<path d="M23.2188 69.4105C23.2188 69.4105 26.7722 68.2373 32.2578 72.3873C32.2578 72.3873 24.2438 72.4923 23.2188 69.4105Z" fill="#E6D0BE"/>
<path d="M175.845 130.998C175.813 130.998 175.783 130.985 175.761 130.963C175.739 130.941 175.727 130.911 175.727 130.88V94.8253C175.727 94.794 175.739 94.764 175.761 94.7419C175.783 94.7197 175.813 94.7073 175.845 94.7073C175.876 94.7073 175.906 94.7197 175.928 94.7419C175.95 94.764 175.963 94.794 175.963 94.8253V130.88C175.963 130.911 175.95 130.941 175.928 130.963C175.906 130.985 175.876 130.998 175.845 130.998Z" fill="#363E44"/>
<path d="M175.847 199.142L80.3083 199.134H33.8212C33.7899 199.134 33.7599 199.122 33.7377 199.1C33.7156 199.078 33.7031 199.048 33.7031 199.016V29.5544C33.7031 29.5231 33.7156 29.493 33.7377 29.4709C33.7599 29.4488 33.7899 29.4363 33.8212 29.4363H65.8192C65.8505 29.4363 65.8805 29.4488 65.9027 29.4709C65.9248 29.493 65.9373 29.5231 65.9373 29.5544C65.9373 29.5857 65.9248 29.6157 65.9027 29.6378C65.8805 29.66 65.8505 29.6724 65.8192 29.6724H33.9393V198.905H80.3059L175.727 198.913V29.6724H141.751C141.72 29.6724 141.69 29.66 141.667 29.6378C141.645 29.6157 141.633 29.5857 141.633 29.5544C141.633 29.5231 141.645 29.493 141.667 29.4709C141.69 29.4488 141.72 29.4363 141.751 29.4363H175.847C175.879 29.4363 175.909 29.4488 175.931 29.4709C175.953 29.493 175.966 29.5231 175.966 29.5544V199.023C175.966 199.039 175.963 199.054 175.957 199.069C175.951 199.083 175.942 199.096 175.931 199.107C175.92 199.118 175.907 199.127 175.893 199.133C175.878 199.139 175.863 199.142 175.847 199.142Z" fill="#40484C"/>
<path d="M48.2781 186.855H161.383L161.383 34.7384H48.2781L48.2781 186.855Z" fill="#F7F1EB"/>
<path d="M145.981 62.1656H63.6875V65.0539H145.981V62.1656Z" fill="#F2E6DC"/>
<path d="M145.981 67.6825H63.6875V99.5679H145.981V67.6825Z" fill="#F2E6DC"/>
<path d="M145.981 105.447H63.6875V108.335H145.981V105.447Z" fill="#F2E6DC"/>
<path d="M145.981 110.964H63.6875V142.849H145.981V110.964Z" fill="#F2E6DC"/>
<path d="M145.981 150.597H63.6875V159.999H145.981V150.597Z" fill="#F2E6DC"/>
<path d="M145.981 164.973H63.6875V174.376H145.981V164.973Z" fill="#F2E6DC"/>
<path d="M118.861 20.6134C118.861 16.1995 117.107 11.9664 113.984 8.84528C110.861 5.72418 106.626 3.97076 102.209 3.97076C97.7932 3.97076 93.5578 5.72418 90.4351 8.84528C87.3123 11.9664 85.558 16.1995 85.558 20.6134H67.2969V42.5439H137.113V20.6134H118.861ZM89.9417 20.6134C89.9417 17.3612 91.2343 14.2422 93.5352 11.9425C95.836 9.64289 98.9567 8.35096 102.211 8.35096C105.465 8.35096 108.585 9.64289 110.886 11.9425C113.187 14.2422 114.48 17.3612 114.48 20.6134H89.9417Z" fill="white"/>
<path d="M139.74 40.0392H69.9228C69.8915 40.0392 69.8614 40.0268 69.8393 40.0047C69.8171 39.9825 69.8047 39.9525 69.8047 39.9212V17.9907C69.8047 17.9594 69.8171 17.9294 69.8393 17.9072C69.8614 17.8851 69.8915 17.8727 69.9228 17.8727H88.0634C88.1272 8.68499 95.6215 1.23004 104.833 1.23004C114.044 1.23004 121.538 8.68381 121.602 17.8727H139.743C139.774 17.8727 139.804 17.8851 139.827 17.9072C139.849 17.9294 139.861 17.9594 139.861 17.9907V39.9212C139.861 39.937 139.858 39.9526 139.852 39.9672C139.846 39.9818 139.837 39.9949 139.825 40.0059C139.814 40.0169 139.801 40.0256 139.786 40.0313C139.771 40.037 139.755 40.0397 139.74 40.0392ZM70.0409 39.8032H139.621V18.1087H121.481C121.45 18.1087 121.419 18.0963 121.397 18.0742C121.375 18.052 121.363 18.022 121.363 17.9907C121.363 8.87975 113.948 1.46611 104.829 1.46611C95.7113 1.46611 88.2961 8.87857 88.2961 17.9907C88.2961 18.022 88.2836 18.052 88.2615 18.0742C88.2393 18.0963 88.2093 18.1087 88.178 18.1087H70.0409V39.8032ZM117.1 18.1087H92.5617C92.5303 18.1087 92.5003 18.0963 92.4782 18.0742C92.456 18.052 92.4436 18.022 92.4436 17.9907C92.4436 14.7072 93.7486 11.5582 96.0716 9.23639C98.3947 6.91461 101.545 5.61024 104.831 5.61024C108.116 5.61024 111.267 6.91461 113.59 9.23639C115.913 11.5582 117.218 14.7072 117.218 17.9907C117.218 18.0062 117.215 18.0215 117.209 18.0359C117.203 18.0502 117.194 18.0632 117.183 18.0742C117.172 18.0851 117.159 18.0938 117.145 18.0997C117.13 18.1057 117.115 18.1087 117.1 18.1087ZM92.6809 17.8727H116.981C116.95 14.6727 115.656 11.6145 113.381 9.36278C111.105 7.11111 108.033 5.848 104.831 5.848C101.629 5.848 98.5569 7.11111 96.2817 9.36278C94.0065 11.6145 92.7125 14.6727 92.6809 17.8727Z" fill="#9E9569"/>
<path d="M79.5713 24.2977L60.8594 48.1276L92.8 73.1816L111.512 49.3517L79.5713 24.2977Z" fill="#EFBC73"/>
<path d="M84.1371 31.9947L57.8125 46.7474L77.5865 81.9944L103.911 67.2416L84.1371 31.9947Z" fill="white"/>
<path d="M65.7335 50.4639C65.3969 50.4649 65.0663 50.376 64.7756 50.2065C64.4849 50.0369 64.2448 49.7929 64.0801 49.4996L61.1148 44.2034C60.8758 43.767 60.8188 43.254 60.9562 42.7758C61.0935 42.2976 61.414 41.8929 61.8482 41.6496C62.2824 41.4063 62.795 41.344 63.2749 41.4763C63.7547 41.6086 64.1629 41.9248 64.4108 42.3562L67.3738 47.6512C67.5351 47.9384 67.6184 48.2627 67.6155 48.592C67.6126 48.9213 67.5236 49.2441 67.3573 49.5284C67.191 49.8127 66.9532 50.0486 66.6676 50.2127C66.3819 50.3768 66.0582 50.4634 65.7288 50.4639H65.7335ZM62.7563 41.628C62.468 41.6284 62.1848 41.7041 61.9349 41.8477C61.6849 41.9912 61.4768 42.1976 61.3313 42.4464C61.1858 42.6951 61.1079 42.9776 61.1054 43.2657C61.1028 43.5539 61.1757 43.8376 61.3167 44.0889L64.288 49.3839C64.5025 49.7661 64.8602 50.0475 65.2823 50.1662C65.7045 50.2848 66.1565 50.231 66.5389 50.0166C66.9213 49.8021 67.2029 49.4446 67.3216 49.0227C67.4403 48.6008 67.3864 48.1491 67.1719 47.7668L64.2018 42.4719C64.0578 42.2154 63.8479 42.0019 63.5938 41.8536C63.3397 41.7052 63.0506 41.6273 62.7563 41.628Z" fill="#D3BBA3"/>
<path d="M72.2193 42.6406C72.1933 42.6406 72.168 42.6319 72.1474 42.6159C72.1268 42.6 72.112 42.5777 72.1054 42.5525C72.0988 42.5273 72.1007 42.5007 72.1109 42.4767C72.121 42.4527 72.1388 42.4328 72.1614 42.4199L82.757 36.4817C82.7842 36.466 82.8166 36.4619 82.8469 36.47C82.8772 36.4782 82.9031 36.4981 82.9187 36.5254C82.9344 36.5526 82.9386 36.5849 82.9304 36.6153C82.9222 36.6456 82.9023 36.6714 82.875 36.6871L72.2772 42.63C72.2589 42.6379 72.2391 42.6415 72.2193 42.6406Z" fill="#F2E6DC"/>
<path d="M73.6491 45.1807C73.6282 45.1807 73.6076 45.1751 73.5896 45.1645C73.5715 45.154 73.5566 45.1388 73.5464 45.1205C73.5311 45.0933 73.5272 45.0611 73.5356 45.031C73.544 45.0009 73.564 44.9754 73.5912 44.96L84.1879 39.0206C84.2015 39.0129 84.2165 39.0079 84.232 39.0059C84.2475 39.0039 84.2632 39.005 84.2783 39.0091C84.2934 39.0132 84.3075 39.0203 84.3199 39.0298C84.3322 39.0394 84.3426 39.0513 84.3503 39.0649C84.3581 39.0784 84.3631 39.0934 84.365 39.1089C84.367 39.1244 84.3659 39.1401 84.3618 39.1552C84.3577 39.1703 84.3506 39.1844 84.3411 39.1967C84.3315 39.2091 84.3196 39.2194 84.306 39.2272L73.707 45.1654C73.6893 45.1754 73.6694 45.1807 73.6491 45.1807Z" fill="#F2E6DC"/>
<path d="M75.073 47.7208C75.0466 47.7212 75.0208 47.7127 74.9997 47.6967C74.9787 47.6807 74.9636 47.6581 74.9569 47.6326C74.9503 47.607 74.9524 47.5799 74.9629 47.5557C74.9735 47.5314 74.9919 47.5115 75.0152 47.4989L85.6107 41.5607C85.6379 41.545 85.6703 41.5408 85.7006 41.549C85.731 41.5572 85.7568 41.5771 85.7725 41.6043C85.7881 41.6316 85.7923 41.6639 85.7841 41.6942C85.7759 41.7246 85.756 41.7504 85.7288 41.7661L75.1309 47.7055C75.1132 47.7155 75.0933 47.7207 75.073 47.7208Z" fill="#F2E6DC"/>
<path d="M69.1824 61.0361C69.156 61.0365 69.1301 61.028 69.1091 61.012C69.0881 60.996 69.073 60.9734 69.0663 60.9478C69.0596 60.9223 69.0618 60.8952 69.0723 60.871C69.0829 60.8467 69.1013 60.8267 69.1245 60.8142L89.8845 49.1797C89.9118 49.164 89.9441 49.1598 89.9745 49.168C90.0048 49.1762 90.0306 49.1961 90.0463 49.2234C90.062 49.2506 90.0662 49.2829 90.058 49.3133C90.0498 49.3436 90.0299 49.3694 90.0026 49.3851L69.2403 61.0207C69.2225 61.0305 69.2026 61.0358 69.1824 61.0361Z" fill="#F2E6DC"/>
<path d="M70.61 63.575C70.5891 63.5749 70.5686 63.5693 70.5505 63.5587C70.5325 63.5482 70.5176 63.533 70.5073 63.5148C70.492 63.4875 70.4881 63.4553 70.4965 63.4252C70.505 63.3951 70.525 63.3696 70.5522 63.3542L91.311 51.7186C91.3384 51.7029 91.3709 51.6988 91.4013 51.7071C91.4318 51.7154 91.4577 51.7354 91.4734 51.7628C91.489 51.7902 91.4931 51.8227 91.4848 51.8531C91.4765 51.8836 91.4565 51.9095 91.4291 51.9251L70.6679 63.5596C70.6503 63.5696 70.6303 63.5749 70.61 63.575Z" fill="#F2E6DC"/>
<path d="M87.1943 54.5443C86.2495 54.5443 85.4453 54.006 84.8324 53.3828C84.0057 53.973 82.7704 54.1394 81.9698 53.4053C81.949 53.3836 81.9373 53.3548 81.937 53.3249C81.9367 53.2949 81.9478 53.2659 81.9681 53.2438C81.9884 53.2217 82.0163 53.2082 82.0463 53.2059C82.0762 53.2037 82.1058 53.2129 82.1292 53.2317C82.8094 53.855 83.9136 53.7228 84.6671 53.2093C84.258 52.7581 83.9014 52.2619 83.6042 51.7304C81.8232 48.514 81.0737 44.8284 81.4572 41.1723C81.6178 39.6922 82.2839 38.0598 83.6928 37.9158C85.2363 37.7565 86.1929 39.488 86.5389 41.0177C87.2203 44.0493 87.2159 47.1947 86.5259 50.2243C86.2897 51.2441 85.9354 52.3925 85.0898 53.1751C85.0662 53.1975 85.0414 53.2188 85.0166 53.2388C85.7087 53.9293 86.6345 54.4947 87.708 54.2516C88.8441 53.9942 89.5633 52.854 89.7723 51.8401C89.7948 51.7363 89.8113 51.6312 89.8255 51.5262C89.2454 51.2674 88.7399 50.8667 88.3558 50.3611C87.9717 49.8554 87.7212 49.2612 87.6277 48.6332C87.5545 48.0843 87.7364 47.4717 88.0717 47.1424C88.1647 47.0454 88.2796 46.9721 88.4069 46.9288C88.5341 46.8854 88.6699 46.8733 88.8028 46.8934C89.3176 46.9713 89.6625 47.4717 89.8266 48.3794C89.9955 49.3154 90.1809 50.3565 90.0817 51.3763C90.2583 51.4431 90.4405 51.494 90.6262 51.5285C92.0433 51.7906 93.5785 51.0175 94.1974 49.7321C94.2585 49.6028 94.3105 49.4695 94.3532 49.3331C93.9213 49.0472 93.5723 48.6528 93.3412 48.1894C92.9231 47.3714 92.8971 46.4484 93.2691 45.7201C93.277 45.7047 93.2882 45.6913 93.3019 45.6807C93.3155 45.67 93.3314 45.6626 93.3482 45.6588C93.3651 45.6549 93.3827 45.6548 93.3996 45.6585C93.4166 45.6621 93.4325 45.6695 93.4463 45.68C94.4843 46.485 94.9425 47.9439 94.6272 49.221C94.8473 49.3435 95.0871 49.4266 95.3358 49.4665C96.0692 49.5845 96.8628 49.2954 97.4615 48.6993C98.0603 48.1032 98.3425 47.3089 98.2256 46.5747C98.2208 46.5439 98.2285 46.5124 98.2468 46.4872C98.2652 46.462 98.2928 46.4451 98.3236 46.4401C98.339 46.4376 98.3547 46.4381 98.3698 46.4417C98.385 46.4453 98.3993 46.4518 98.4119 46.4609C98.4245 46.47 98.4352 46.4815 98.4434 46.4948C98.4515 46.508 98.457 46.5227 98.4594 46.5381C98.5881 47.3455 98.2775 48.2154 97.6327 48.8657C96.9879 49.5161 96.114 49.8277 95.3051 49.699C95.0485 49.6577 94.8004 49.5748 94.5705 49.4535C94.528 49.583 94.4771 49.7095 94.4182 49.8324C93.758 51.211 92.113 52.0396 90.5919 51.7599C90.4113 51.7258 90.2336 51.6776 90.0605 51.6159C90.0463 51.7056 90.0309 51.7965 90.012 51.8862C89.7877 52.9756 89.0071 54.1996 87.7682 54.4829C87.5799 54.5251 87.3873 54.5457 87.1943 54.5443ZM83.8876 38.1377C83.8308 38.1376 83.7741 38.1403 83.7176 38.146C82.454 38.2758 81.8434 39.8055 81.6934 41.1936C81.3148 44.8007 82.0544 48.4369 83.812 51.61C84.1027 52.1327 84.4526 52.6202 84.8548 53.063L84.9304 52.9957C85.7335 52.2568 86.0724 51.1496 86.298 50.1629C86.9791 47.1685 86.9831 44.0599 86.3098 41.0637C85.9933 39.6934 85.1772 38.1448 83.8829 38.1448L83.8876 38.1377ZM88.674 47.1082C88.5922 47.109 88.5115 47.1264 88.4366 47.1593C88.3617 47.1921 88.2942 47.2398 88.2383 47.2994C87.9572 47.5756 87.8001 48.1186 87.8639 48.5895C87.9493 49.1652 88.1756 49.7108 88.5228 50.178C88.8699 50.6452 89.3271 51.0195 89.8538 51.2677C89.9365 50.3034 89.757 49.306 89.5952 48.4101C89.4511 47.6122 89.1736 47.1767 88.7685 47.1117C88.7354 47.1104 88.7022 47.1116 88.6693 47.1153L88.674 47.1082ZM93.4179 45.9491C93.1475 46.5877 93.1947 47.3655 93.5526 48.0737C93.7536 48.4758 94.051 48.8221 94.4182 49.0817C94.6615 47.9663 94.2777 46.7081 93.4132 45.9597L93.4179 45.9491Z" fill="#D87355"/>
<path d="M205.887 8.8172H159.469V53.6059H205.887V8.8172Z" fill="white"/>
<path d="M207.319 53.7251H160.907C160.876 53.7251 160.846 53.7127 160.824 53.6906C160.801 53.6684 160.789 53.6384 160.789 53.6071V8.81719C160.789 8.78589 160.801 8.75587 160.824 8.73373C160.846 8.71159 160.876 8.69916 160.907 8.69916H207.319C207.35 8.69916 207.38 8.71159 207.402 8.73373C207.424 8.75587 207.437 8.78589 207.437 8.81719V53.6071C207.437 53.6384 207.424 53.6684 207.402 53.6906C207.38 53.7127 207.35 53.7251 207.319 53.7251ZM161.025 53.4891H207.201V8.93522H161.025V53.4891Z" fill="#9E9569"/>
<path d="M181.032 18.9019H177.516V22.3485H181.032V18.9019Z" fill="#F7F1EB"/>
<path d="M188.072 18.9019H184.555V22.3485H188.072V18.9019Z" fill="#F7F1EB"/>
<path d="M166.954 25.7997H163.438V29.2463H166.954V25.7997Z" fill="#F2E6DC"/>
<path d="M173.993 25.7997H170.477V29.2463H173.993V25.7997Z" fill="#F2E6DC"/>
<path d="M181.032 25.7997H177.516V29.2463H181.032V25.7997Z" fill="#F2E6DC"/>
<path d="M188.072 25.7997H184.555V29.2463H188.072V25.7997Z" fill="#F2E6DC"/>
<path d="M166.954 32.6988H163.438V36.1454H166.954V32.6988Z" fill="#F2E6DC"/>
<path d="M173.993 32.6988H170.477V36.1454H173.993V32.6988Z" fill="#F2E6DC"/>
<path d="M181.032 32.6988H177.516V36.1454H181.032V32.6988Z" fill="#F2E6DC"/>
<path d="M188.072 32.6988H184.555V36.1454H188.072V32.6988Z" fill="#F2E6DC"/>
<path d="M166.954 39.5966H163.438V43.0432H166.954V39.5966Z" fill="#F2E6DC"/>
<path d="M173.993 39.5966H170.477V43.0432H173.993V39.5966Z" fill="#F2E6DC"/>
<path d="M181.032 39.5966H177.516V43.0432H181.032V39.5966Z" fill="#F2E6DC"/>
<path d="M188.072 39.5966H184.555V43.0432H188.072V39.5966Z" fill="#F2E6DC"/>
<path d="M195.111 18.9019H191.594V22.3485H195.111V18.9019Z" fill="#F2E6DC"/>
<path d="M195.111 25.7997H191.594V29.2463H195.111V25.7997Z" fill="#F2E6DC"/>
<path d="M195.111 32.6988H191.594V36.1454H195.111V32.6988Z" fill="#F2E6DC"/>
<path d="M195.111 39.5966H191.594V43.0432H195.111V39.5966Z" fill="#F2E6DC"/>
<path d="M202.009 18.9019H198.492V22.3485H202.009V18.9019Z" fill="#F2E6DC"/>
<path d="M202.009 25.7997H198.492V29.2463H202.009V25.7997Z" fill="#F2E6DC"/>
<path d="M202.009 32.6988H198.492V36.1454H202.009V32.6988Z" fill="#F2E6DC"/>
<path d="M202.009 39.5966H198.492V43.0432H202.009V39.5966Z" fill="#F2E6DC"/>
<path d="M166.954 46.3552H163.438V49.8017H166.954V46.3552Z" fill="#F2E6DC"/>
<path d="M173.993 46.3552H170.477V49.8017H173.993V46.3552Z" fill="#F7F1EB"/>
<path d="M181.032 46.3552H177.516V49.8017H181.032V46.3552Z" fill="#F2E6DC"/>
<path d="M188.072 46.3552H184.555V49.8017H188.072V46.3552Z" fill="#F2E6DC"/>
<path d="M195.111 46.3552H191.594V49.8017H195.111V46.3552Z" fill="#F7F1EB"/>
<path d="M202.009 46.3552H198.492V49.8017H202.009V46.3552Z" fill="#F7F1EB"/>
<path d="M206.026 14.8133H159.47C159.438 14.8133 159.408 14.8008 159.386 14.7787C159.364 14.7566 159.352 14.7265 159.352 14.6952C159.352 14.6639 159.364 14.6339 159.386 14.6118C159.408 14.5896 159.438 14.5772 159.47 14.5772H206.026C206.058 14.5772 206.088 14.5896 206.11 14.6118C206.132 14.6339 206.145 14.6639 206.145 14.6952C206.145 14.7265 206.132 14.7566 206.11 14.7787C206.088 14.8008 206.058 14.8133 206.026 14.8133Z" fill="#8B865C"/>
<path d="M165.294 13.5078C164.966 13.5078 164.645 13.4104 164.371 13.228C164.098 13.0455 163.885 12.7861 163.759 12.4827C163.634 12.1792 163.601 11.8453 163.665 11.5231C163.729 11.201 163.887 10.9051 164.119 10.6728C164.352 10.4406 164.648 10.2824 164.97 10.2183C165.293 10.1542 165.627 10.1871 165.93 10.3128C166.234 10.4385 166.493 10.6514 166.676 10.9245C166.859 11.1976 166.956 11.5187 166.956 11.8471C166.955 12.2874 166.78 12.7094 166.469 13.0207C166.157 13.3321 165.735 13.5072 165.294 13.5078ZM165.294 10.4236C165.012 10.4236 164.737 10.5072 164.502 10.6638C164.268 10.8204 164.085 11.043 163.977 11.3034C163.87 11.5638 163.841 11.8503 163.896 12.1267C163.952 12.4031 164.087 12.6569 164.287 12.8561C164.486 13.0553 164.74 13.1909 165.017 13.2457C165.294 13.3006 165.58 13.2722 165.841 13.1642C166.101 13.0562 166.324 12.8734 166.48 12.6389C166.637 12.4045 166.72 12.1289 166.72 11.8471C166.719 11.4696 166.569 11.1077 166.302 10.8408C166.034 10.574 165.672 10.424 165.294 10.4236Z" fill="#8B865C"/>
<path d="M173.912 13.5078C173.583 13.5078 173.262 13.4104 172.988 13.228C172.715 13.0455 172.502 12.7861 172.376 12.4827C172.251 12.1792 172.218 11.8453 172.282 11.5231C172.346 11.201 172.504 10.9051 172.737 10.6728C172.969 10.4406 173.265 10.2824 173.587 10.2183C173.91 10.1542 174.244 10.1871 174.547 10.3128C174.851 10.4385 175.111 10.6514 175.293 10.9245C175.476 11.1976 175.573 11.5187 175.573 11.8471C175.573 12.2875 175.398 12.7097 175.086 13.0211C174.775 13.3325 174.352 13.5075 173.912 13.5078ZM173.912 10.4236C173.63 10.4236 173.354 10.5072 173.12 10.6638C172.885 10.8204 172.702 11.043 172.595 11.3034C172.487 11.5638 172.459 11.8503 172.514 12.1267C172.569 12.4031 172.705 12.6569 172.904 12.8561C173.104 13.0553 173.358 13.1909 173.634 13.2457C173.911 13.3006 174.197 13.2722 174.458 13.1642C174.718 13.0562 174.941 12.8734 175.097 12.6389C175.254 12.4045 175.337 12.1289 175.337 11.8471C175.336 11.4696 175.186 11.1077 174.919 10.8408C174.652 10.574 174.289 10.424 173.912 10.4236Z" fill="#8B865C"/>
<path d="M182.521 13.5078C182.192 13.5078 181.871 13.4104 181.598 13.228C181.325 13.0455 181.112 12.7861 180.986 12.4827C180.86 12.1792 180.827 11.8453 180.891 11.5231C180.955 11.201 181.114 10.9051 181.346 10.6728C181.578 10.4406 181.874 10.2824 182.197 10.2183C182.519 10.1542 182.853 10.1871 183.157 10.3128C183.46 10.4385 183.72 10.6514 183.903 10.9245C184.085 11.1976 184.183 11.5187 184.183 11.8471C184.182 12.2875 184.007 12.7097 183.696 13.0211C183.384 13.3325 182.962 13.5075 182.521 13.5078ZM182.521 10.4236C182.239 10.4236 181.963 10.5072 181.729 10.6638C181.495 10.8204 181.312 11.043 181.204 11.3034C181.096 11.5638 181.068 11.8503 181.123 12.1267C181.178 12.4031 181.314 12.6569 181.513 12.8561C181.713 13.0553 181.967 13.1909 182.244 13.2457C182.52 13.3006 182.807 13.2722 183.067 13.1642C183.328 13.0562 183.55 12.8734 183.707 12.6389C183.863 12.4045 183.947 12.1289 183.946 11.8471C183.946 11.4696 183.795 11.1077 183.528 10.8408C183.261 10.574 182.899 10.424 182.521 10.4236Z" fill="#8B865C"/>
<path d="M191.138 13.5078C190.81 13.5078 190.488 13.4104 190.215 13.228C189.942 13.0455 189.729 12.7861 189.603 12.4827C189.477 12.1792 189.444 11.8453 189.508 11.5231C189.573 11.201 189.731 10.9051 189.963 10.6728C190.196 10.4406 190.492 10.2824 190.814 10.2183C191.136 10.1542 191.47 10.1871 191.774 10.3128C192.078 10.4385 192.337 10.6514 192.52 10.9245C192.702 11.1976 192.8 11.5187 192.8 11.8471C192.799 12.2875 192.624 12.7097 192.313 13.0211C192.001 13.3325 191.579 13.5075 191.138 13.5078ZM191.138 10.4236C190.856 10.4236 190.581 10.5072 190.346 10.6638C190.112 10.8204 189.929 11.043 189.821 11.3034C189.713 11.5638 189.685 11.8503 189.74 12.1267C189.795 12.4031 189.931 12.6569 190.131 12.8561C190.33 13.0553 190.584 13.1909 190.861 13.2457C191.137 13.3006 191.424 13.2722 191.684 13.1642C191.945 13.0562 192.167 12.8734 192.324 12.6389C192.48 12.4045 192.564 12.1289 192.564 11.8471C192.563 11.4696 192.413 11.1077 192.145 10.8408C191.878 10.574 191.516 10.424 191.138 10.4236Z" fill="#8B865C"/>
<path d="M199.749 13.5078C199.42 13.5081 199.099 13.4109 198.825 13.2285C198.552 13.0462 198.339 12.7869 198.213 12.4835C198.087 12.18 198.054 11.8461 198.118 11.5239C198.182 11.2016 198.34 10.9056 198.572 10.6732C198.805 10.4409 199.101 10.2826 199.423 10.2184C199.745 10.1542 200.079 10.187 200.383 10.3127C200.687 10.4384 200.946 10.6512 201.129 10.9244C201.312 11.1975 201.409 11.5186 201.409 11.8471C201.409 12.2873 201.234 12.7093 200.923 13.0207C200.611 13.332 200.189 13.5072 199.749 13.5078ZM199.749 10.4236C199.467 10.4234 199.191 10.5068 198.956 10.6633C198.722 10.8197 198.539 11.0422 198.431 11.3026C198.323 11.5629 198.294 11.8495 198.349 12.1259C198.404 12.4024 198.54 12.6564 198.74 12.8557C198.939 13.055 199.193 13.1907 199.47 13.2456C199.746 13.3006 200.033 13.2723 200.294 13.1643C200.554 13.0563 200.777 12.8735 200.933 12.6391C201.09 12.4046 201.173 12.129 201.173 11.8471C201.172 11.4698 201.022 11.1081 200.755 10.8413C200.488 10.5744 200.126 10.4243 199.749 10.4236Z" fill="#8B865C"/>
<path d="M165.298 11.9651C165.266 11.9651 165.236 11.9527 165.214 11.9305C165.192 11.9084 165.18 11.8784 165.18 11.8471V5.95489C165.18 5.92358 165.192 5.89356 165.214 5.87143C165.236 5.84929 165.266 5.83685 165.298 5.83685C165.329 5.83685 165.359 5.84929 165.381 5.87143C165.403 5.89356 165.416 5.92358 165.416 5.95489V11.8471C165.416 11.8784 165.403 11.9084 165.381 11.9305C165.359 11.9527 165.329 11.9651 165.298 11.9651Z" fill="#8B865C"/>
<path d="M173.907 11.9651C173.876 11.9651 173.846 11.9527 173.824 11.9305C173.802 11.9084 173.789 11.8784 173.789 11.8471V5.95489C173.789 5.92358 173.802 5.89356 173.824 5.87143C173.846 5.84929 173.876 5.83685 173.907 5.83685C173.938 5.83685 173.969 5.84929 173.991 5.87143C174.013 5.89356 174.025 5.92358 174.025 5.95489V11.8471C174.025 11.8784 174.013 11.9084 173.991 11.9305C173.969 11.9527 173.938 11.9651 173.907 11.9651Z" fill="#8B865C"/>
<path d="M182.524 11.9651C182.493 11.9651 182.463 11.9527 182.441 11.9305C182.419 11.9084 182.406 11.8784 182.406 11.8471V5.95489C182.406 5.92358 182.419 5.89356 182.441 5.87143C182.463 5.84929 182.493 5.83685 182.524 5.83685C182.556 5.83685 182.586 5.84929 182.608 5.87143C182.63 5.89356 182.642 5.92358 182.642 5.95489V11.8471C182.642 11.8784 182.63 11.9084 182.608 11.9305C182.586 11.9527 182.556 11.9651 182.524 11.9651Z" fill="#8B865C"/>
<path d="M191.142 11.9651C191.11 11.9651 191.08 11.9527 191.058 11.9305C191.036 11.9084 191.023 11.8784 191.023 11.8471V5.95489C191.023 5.92358 191.036 5.89356 191.058 5.87143C191.08 5.84929 191.11 5.83685 191.142 5.83685C191.173 5.83685 191.203 5.84929 191.225 5.87143C191.247 5.89356 191.26 5.92358 191.26 5.95489V11.8471C191.26 11.8784 191.247 11.9084 191.225 11.9305C191.203 11.9527 191.173 11.9651 191.142 11.9651Z" fill="#8B865C"/>
<path d="M199.751 11.9651C199.72 11.9651 199.69 11.9527 199.667 11.9305C199.645 11.9084 199.633 11.8784 199.633 11.8471V5.95489C199.633 5.92358 199.645 5.89356 199.667 5.87143C199.69 5.84929 199.72 5.83685 199.751 5.83685C199.782 5.83685 199.812 5.84929 199.834 5.87143C199.857 5.89356 199.869 5.92358 199.869 5.95489V11.8471C199.869 11.8784 199.857 11.9084 199.834 11.9305C199.812 11.9527 199.782 11.9651 199.751 11.9651Z" fill="#8B865C"/>
<path d="M172.461 29.9817C172.083 29.9841 171.708 29.9063 171.362 29.7533C171.016 29.6003 170.706 29.3756 170.454 29.0941C170.216 28.8251 170.039 28.5079 169.935 28.1642C169.831 27.8206 169.802 27.4585 169.851 27.1028C169.905 26.7191 170.043 26.3522 170.257 26.0289C170.47 25.7056 170.753 25.4341 171.086 25.2344C171.487 24.9946 171.937 24.8476 172.403 24.8041C172.869 24.7606 173.339 24.8217 173.778 24.983C173.807 24.994 173.83 25.0156 173.843 25.0433C173.856 25.071 173.857 25.1026 173.847 25.1315C173.837 25.1604 173.817 25.1843 173.789 25.1982C173.762 25.2121 173.731 25.2149 173.701 25.2061C173.295 25.0561 172.861 24.9989 172.429 25.0385C171.998 25.0781 171.582 25.2136 171.21 25.435C170.907 25.6162 170.649 25.8627 170.455 26.1564C170.26 26.45 170.134 26.7835 170.085 27.1323C170.041 27.4547 170.067 27.7827 170.161 28.0942C170.255 28.4056 170.416 28.6931 170.631 28.9371C170.861 29.1939 171.143 29.3988 171.459 29.5382C171.775 29.6776 172.116 29.7483 172.461 29.7456C172.881 29.7538 173.294 29.6444 173.654 29.4297C174.015 29.215 174.307 28.9037 174.5 28.531C174.795 27.9562 174.797 27.3507 174.5 26.9364C174.376 26.752 174.214 26.5966 174.025 26.4809C173.835 26.3651 173.623 26.2918 173.403 26.266C172.894 26.2129 172.34 26.4194 171.898 26.829C171.876 26.851 171.846 26.8633 171.815 26.8633C171.784 26.8633 171.754 26.851 171.732 26.829C171.72 26.818 171.712 26.805 171.706 26.7906C171.7 26.7762 171.697 26.7608 171.697 26.7452C171.697 26.7296 171.7 26.7142 171.706 26.6998C171.712 26.6854 171.72 26.6724 171.732 26.6614C172.228 26.2058 172.843 25.9768 173.421 26.0382C173.675 26.0663 173.92 26.1495 174.139 26.2821C174.357 26.4146 174.544 26.5932 174.686 26.8054C175.03 27.2858 175.033 27.9857 174.698 28.6443C174.486 29.055 174.164 29.3983 173.768 29.6356C173.371 29.873 172.916 29.9949 172.454 29.9876L172.461 29.9817Z" fill="#D87355"/>
<path d="M179.5 29.9817C179.122 29.9841 178.747 29.9063 178.401 29.7533C178.055 29.6003 177.746 29.3756 177.493 29.0941C177.255 28.8251 177.078 28.5079 176.974 28.1642C176.87 27.8206 176.842 27.4585 176.89 27.1028C176.944 26.7191 177.082 26.3522 177.296 26.0289C177.509 25.7056 177.792 25.4341 178.125 25.2344C178.526 24.9946 178.977 24.8476 179.442 24.8041C179.908 24.7606 180.378 24.8217 180.817 24.983C180.832 24.9876 180.846 24.9952 180.859 25.0054C180.871 25.0156 180.881 25.0281 180.888 25.0422C180.895 25.0563 180.9 25.0718 180.901 25.0876C180.902 25.1034 180.9 25.1193 180.895 25.1343C180.889 25.1493 180.881 25.1631 180.871 25.1749C180.86 25.1867 180.847 25.1962 180.833 25.2029C180.818 25.2096 180.803 25.2133 180.787 25.2139C180.771 25.2144 180.755 25.2118 180.74 25.2061C180.334 25.0561 179.9 24.9989 179.469 25.0385C179.037 25.0781 178.621 25.2136 178.249 25.435C177.946 25.6162 177.689 25.8627 177.494 26.1564C177.299 26.45 177.173 26.7835 177.124 27.1323C177.08 27.455 177.106 27.7834 177.201 28.0951C177.296 28.4067 177.456 28.6943 177.672 28.9383C177.903 29.1949 178.185 29.3998 178.501 29.5391C178.816 29.6785 179.158 29.7493 179.503 29.7468C179.922 29.755 180.335 29.6455 180.696 29.4309C181.056 29.2162 181.349 28.9049 181.541 28.5322C181.836 27.9574 181.839 27.3519 181.541 26.9376C181.418 26.7532 181.256 26.5978 181.066 26.482C180.877 26.3663 180.664 26.293 180.444 26.2672C179.933 26.2141 179.381 26.4206 178.939 26.8302C178.928 26.8418 178.915 26.8511 178.9 26.8574C178.885 26.8636 178.869 26.8668 178.853 26.8666C178.837 26.8664 178.821 26.863 178.806 26.8564C178.791 26.8498 178.778 26.8403 178.767 26.8284C178.756 26.8165 178.748 26.8025 178.743 26.7873C178.737 26.772 178.735 26.7559 178.736 26.7398C178.738 26.7237 178.742 26.708 178.75 26.6937C178.757 26.6794 178.767 26.6668 178.78 26.6567C179.275 26.2011 179.89 25.9721 180.469 26.0335C180.723 26.0616 180.968 26.1448 181.186 26.2773C181.404 26.4099 181.591 26.5885 181.734 26.8007C182.077 27.2811 182.081 27.981 181.745 28.6396C181.534 29.0502 181.212 29.3936 180.815 29.6309C180.419 29.8682 179.964 29.9901 179.502 29.9828L179.5 29.9817Z" fill="#D87355"/>
<path d="M157.07 201.745L171.245 198.937L165.086 180.903L151.312 185.904L157.07 201.745Z" fill="#BC8271"/>
<path d="M140.61 216.773L176.694 206.881L169.589 194.005L155.453 197.88L146.085 203.799C141.447 206.528 139.206 211.838 140.61 216.773Z" fill="#363E44"/>
<path d="M186.054 204.316L200.674 205.199L199.329 186.19L184.531 187.531L186.054 204.316Z" fill="#BC8271"/>
<path d="M166.352 214.28H203.769L200.325 199.984H185.665L175.065 203.216C169.87 204.622 166.305 209.151 166.352 214.28Z" fill="#363E44"/>
<path d="M191.238 99.6694C192.783 103.726 193.903 108.337 195.372 113.225C203.184 139.135 202.077 193.973 202.077 193.973L182.763 193.49C182.763 193.49 175.559 157.196 172.362 133.658C169.745 139.907 164.804 154.581 164.804 154.581C164.804 154.581 168.002 178.264 169.601 185.673C163.205 188.143 156.881 189.45 149.031 191.63C139.631 160.151 137.622 155.759 141.544 143.827C146.598 128.459 159.376 100.597 163.649 94.6069L191.238 99.6694Z" fill="white"/>
<path d="M202.082 194.091L182.769 193.608C182.742 193.609 182.715 193.6 182.693 193.583C182.672 193.566 182.657 193.542 182.651 193.515C182.651 193.507 182.482 192.711 181.565 187.912C181.562 187.897 181.562 187.881 181.565 187.866C181.568 187.851 181.574 187.836 181.583 187.823C181.592 187.81 181.603 187.799 181.616 187.791C181.629 187.782 181.644 187.777 181.659 187.774C181.674 187.771 181.69 187.771 181.705 187.774C181.72 187.777 181.735 187.784 181.748 187.792C181.761 187.801 181.772 187.812 181.78 187.825C181.789 187.838 181.794 187.853 181.797 187.868C182.554 191.832 182.801 193.062 182.86 193.374L201.966 193.847C202.022 192.566 202.498 180.757 201.51 162.38C201.51 162.35 201.521 162.321 201.542 162.299C201.562 162.277 201.591 162.264 201.621 162.262C201.652 162.262 201.682 162.275 201.704 162.297C201.726 162.319 201.739 162.349 201.739 162.38C202.783 181.778 202.196 193.865 202.19 193.985C202.187 194.012 202.175 194.038 202.155 194.057C202.136 194.077 202.11 194.089 202.082 194.091Z" fill="#D3BBA3"/>
<path d="M151.343 68.1171C157.195 62.2682 157.195 52.7852 151.343 46.9362C145.491 41.0873 136.003 41.0873 130.151 46.9362C124.299 52.7852 124.299 62.2682 130.151 68.1171C136.003 73.9661 145.491 73.9661 151.343 68.1171Z" fill="#EFBC73"/>
<path d="M148.234 65.0149C152.372 60.8793 152.372 54.1741 148.234 50.0385C144.096 45.9029 137.388 45.9029 133.25 50.0385C129.112 54.1741 129.112 60.8793 133.25 65.0149C137.388 69.1505 144.096 69.1505 148.234 65.0149Z" fill="#E0AA63"/>
<path d="M143.502 75.3759C140.515 75.3759 137.594 74.4905 135.111 72.8319C132.627 71.1732 130.691 68.8156 129.548 66.0573C128.405 63.299 128.106 60.2639 128.689 57.3357C129.271 54.4075 130.71 51.7178 132.822 49.6067C134.934 47.4956 137.625 46.0579 140.555 45.4755C143.485 44.893 146.522 45.192 149.281 46.3345C152.041 47.477 154.4 49.4118 156.06 51.8942C157.719 54.3766 158.605 57.2951 158.605 60.2806C158.601 64.2831 157.009 68.1206 154.177 70.9508C151.346 73.7809 147.506 75.3724 143.502 75.3759ZM143.502 45.4227C140.561 45.4227 137.687 46.2942 135.242 47.927C132.797 49.5598 130.891 51.8805 129.766 54.5957C128.641 57.311 128.347 60.2987 128.92 63.1811C129.494 66.0636 130.91 68.7112 132.989 70.7892C135.069 72.8673 137.718 74.2824 140.602 74.8556C143.486 75.4288 146.475 75.1344 149.192 74.0095C151.908 72.8847 154.23 70.98 155.864 68.5363C157.497 66.0925 158.369 63.2196 158.369 60.2806C158.365 56.341 156.797 52.5638 154.01 49.7782C151.223 46.9926 147.443 45.4261 143.502 45.4227Z" fill="white"/>
<path d="M165.674 83.9168C162.249 88.9497 151.767 102.494 145.453 98.6437C142.522 96.8567 141.429 94.1136 144.101 88.9249C146.751 83.7787 151.451 78.6773 153.868 76.1844C157.69 78.3303 161.848 81.7709 165.674 83.9168Z" fill="#BC8271"/>
<path d="M144.827 87.512C139.674 87.9157 127.772 88.8694 126.586 88.9508C124.365 89.1031 113.595 89.9553 113.699 91.5204C113.766 92.5213 119.156 92.1956 120.1 92.2133C118.996 92.4777 113.156 92.9392 113.125 93.8539C113.091 94.8466 120.579 94.9162 120.637 94.9316C119.833 95.0236 113.923 95.5807 114.033 96.44C114.162 97.4374 120.351 97.3984 121.355 97.3359C121.286 97.461 116.949 97.6204 116.943 98.6071C116.943 99.4865 121.89 99.5065 122.573 99.6092C124.363 99.8252 127.651 99.7697 131.396 99.8948C140.18 100.189 144.109 99.9515 148.378 99.3259C150.031 99.0828 154.141 98.1857 155.186 94.6152C152.186 92.5261 147.831 89.6071 144.827 87.512Z" fill="#BC8271"/>
<path d="M121.596 93.7819C119.824 93.7819 119.731 93.4196 119.69 93.2673C119.634 93.0643 119.465 92.4411 123.673 90.5526C123.701 90.5398 123.734 90.5388 123.763 90.5499C123.792 90.5609 123.816 90.5831 123.829 90.6116C123.842 90.6401 123.843 90.6725 123.831 90.7017C123.82 90.7309 123.798 90.7545 123.77 90.7674C120.037 92.4482 119.873 93.0608 119.917 93.2083C120.01 93.5447 121.453 93.7359 125.232 93.2614C125.247 93.2595 125.263 93.2606 125.278 93.2648C125.293 93.2689 125.307 93.276 125.32 93.2856C125.332 93.2952 125.342 93.3071 125.35 93.3206C125.358 93.3342 125.363 93.3492 125.365 93.3647C125.367 93.3802 125.365 93.3959 125.361 93.411C125.357 93.426 125.35 93.4402 125.34 93.4525C125.331 93.4648 125.319 93.4751 125.305 93.4829C125.292 93.4906 125.277 93.4955 125.261 93.4975C123.58 93.7052 122.406 93.7819 121.596 93.7819Z" fill="#363E44"/>
<path d="M194.758 81.2563C193.774 77.7602 189.951 65.4222 175.763 65.565C169.791 65.6252 169.362 65.7905 166.064 66.8468C163.402 67.7002 155.729 74.2027 152.24 77.5713C151.712 83.4824 155.387 94.0451 153.279 99.7615C161.917 101.069 196.9 105.49 196.9 105.49C196.9 105.49 197.375 90.5514 194.758 81.2563Z" fill="#8BBEB2"/>
<path d="M170.675 84.3665C149.824 97.2792 155.266 100.018 157.597 103.521C159.48 106.344 170.201 102.744 179.078 97.2722L170.675 84.3665Z" fill="#BC8271"/>
<path d="M165.527 92.2274C161.875 87.0257 153.625 75.2472 152.795 74.0409C151.244 71.7841 143.601 60.9251 142.013 62.0098C140.995 62.7062 144.712 68.2089 145.285 69.2181C144.313 68.2148 140.169 62.3226 139.181 62.862C138.109 63.4522 142.724 71.417 142.74 71.489C142.139 70.6959 137.85 64.7883 137.009 65.4434C136.032 66.2035 139.947 72.7308 140.644 73.7565C140.468 73.7565 137.585 69.2712 136.536 69.8826C135.6 70.4268 138.679 75.6827 138.998 76.4688C139.888 78.5002 142.008 81.9491 144.216 85.987C149.402 95.4698 151.292 100.308 155.449 103.608C157.309 105.085 161.161 104.915 165.594 103.535C165.922 99.0497 165.194 96.7138 165.527 92.2274Z" fill="#BC8271"/>
<path d="M155.107 77.4722C155.088 77.4721 155.069 77.4675 155.052 77.4587C155.035 77.4498 155.021 77.437 155.01 77.4214C153.7 75.5494 152.923 74.4352 152.699 74.1082C152.257 73.4661 149.932 70.1093 147.533 67.1042C147.514 67.0797 147.505 67.0486 147.509 67.0176C147.512 66.9867 147.528 66.9584 147.552 66.9389C147.576 66.9195 147.607 66.9104 147.638 66.9138C147.669 66.9171 147.698 66.9325 147.717 66.9566C150.121 69.9688 152.451 73.3304 152.894 73.9749C153.118 74.3006 153.895 75.4149 155.203 77.2857C155.212 77.2984 155.219 77.3129 155.222 77.3281C155.226 77.3433 155.226 77.3591 155.223 77.3745C155.221 77.3898 155.215 77.4045 155.206 77.4176C155.198 77.4307 155.187 77.4421 155.174 77.4509C155.154 77.4647 155.131 77.4721 155.107 77.4722Z" fill="#363E44"/>
<path d="M165.28 91.5971C165.261 91.5973 165.242 91.5928 165.225 91.5842C165.209 91.5755 165.194 91.563 165.183 91.5476L163.357 88.9508C163.339 88.9252 163.332 88.8934 163.338 88.8625C163.343 88.8317 163.361 88.8042 163.386 88.7862C163.412 88.7682 163.444 88.7611 163.475 88.7666C163.506 88.772 163.533 88.7895 163.551 88.8151L165.377 91.4118C165.395 91.4375 165.402 91.4692 165.396 91.5C165.39 91.5307 165.373 91.558 165.347 91.5759C165.328 91.5897 165.304 91.5971 165.28 91.5971Z" fill="#363E44"/>
<path d="M150.973 98.4973C150.952 98.4974 150.931 98.4917 150.913 98.4809C150.894 98.4701 150.879 98.4546 150.869 98.4359L144.859 87.4376C144.844 87.4101 144.84 87.3775 144.848 87.3469C144.856 87.3164 144.877 87.2904 144.904 87.2748C144.932 87.2591 144.964 87.255 144.995 87.2634C145.026 87.2719 145.052 87.2921 145.067 87.3196L151.076 98.3179C151.086 98.3358 151.091 98.356 151.09 98.3764C151.09 98.3968 151.084 98.4168 151.074 98.4344C151.064 98.452 151.049 98.4666 151.031 98.4768C151.014 98.487 150.994 98.4924 150.973 98.4926V98.4973Z" fill="#363E44"/>
<path d="M179.736 98.3982H179.717C179.701 98.3954 179.686 98.3894 179.672 98.3805C179.659 98.3715 179.647 98.3599 179.638 98.3463L169.909 83.4092C169.901 83.3957 169.895 83.3806 169.892 83.3647C169.89 83.3489 169.89 83.3327 169.894 83.3171C169.898 83.3016 169.905 83.2871 169.914 83.2743C169.924 83.2615 169.936 83.2508 169.95 83.2428L179.825 77.5678C179.852 77.5521 179.884 77.5479 179.915 77.5561C179.945 77.5643 179.971 77.5842 179.986 77.6114C180.002 77.6387 180.006 77.671 179.998 77.7013C179.99 77.7317 179.97 77.7575 179.943 77.7731L170.175 83.3856L179.764 98.109L189.488 90.3472C189.5 90.3369 189.514 90.3292 189.53 90.3244C189.545 90.3196 189.56 90.3179 189.576 90.3194C189.592 90.3209 189.607 90.3255 189.621 90.333C189.635 90.3406 189.647 90.3508 189.657 90.3631C189.667 90.3755 189.674 90.3897 189.679 90.4049C189.683 90.4201 189.684 90.436 189.682 90.4517C189.68 90.4674 189.675 90.4825 189.667 90.4962C189.659 90.5099 189.649 90.5218 189.636 90.5313L179.811 98.3746C179.789 98.3906 179.763 98.399 179.736 98.3982Z" fill="#363E44"/>
<path d="M170.039 62.1952C171.884 63.5053 177.098 59.9526 177.098 59.9526L180.081 53.7157C180.092 52.952 179.951 52.1937 179.666 51.4849C179.381 50.7761 178.958 50.131 178.422 49.5871C177.885 49.0431 177.246 48.6112 176.541 48.3163C175.836 48.0215 175.079 47.8697 174.315 47.8697C173.551 47.8697 172.794 48.0215 172.089 48.3163C171.384 48.6112 170.745 49.0431 170.208 49.5871C169.672 50.131 169.249 50.7761 168.964 51.4849C168.679 52.1937 168.538 52.952 168.549 53.7157C168.549 53.7157 168.159 60.8614 170.039 62.1952Z" fill="#BC8271"/>
<path d="M170.324 67.7581C170.114 69.2547 172.905 70.8812 176.558 71.3911C180.21 71.901 183.34 71.1008 183.549 69.6041C183.758 68.1075 181.122 65.7598 177.469 65.2499C175.478 64.9725 173.336 65.4222 172.258 65.9404C171.203 66.4467 170.418 67.077 170.324 67.7581Z" fill="#BC8271"/>
<path d="M172.951 68.17H180.078V53.6H172.951V68.17Z" fill="#BC8271"/>
<path d="M172.953 62.2235C172.929 62.2234 172.905 62.2157 172.885 62.2016C172.866 62.1874 172.851 62.1675 172.842 62.1444C172.832 62.115 172.834 62.0827 172.848 62.0546C172.861 62.0266 172.885 62.0049 172.914 61.9945C174.896 61.3017 177.016 59.8628 177.037 59.8487C177.05 59.8397 177.064 59.8333 177.08 59.83C177.095 59.8266 177.111 59.8263 177.126 59.8291C177.141 59.8319 177.156 59.8377 177.169 59.8462C177.182 59.8547 177.194 59.8657 177.203 59.8786C177.211 59.8914 177.218 59.906 177.221 59.9212C177.224 59.9365 177.224 59.9523 177.221 59.9677C177.218 59.983 177.212 59.9976 177.203 60.0106C177.195 60.0236 177.184 60.0348 177.171 60.0434C177.148 60.0588 175.004 61.5141 172.992 62.2176C172.98 62.2217 172.967 62.2237 172.953 62.2235Z" fill="#363E44"/>
<path d="M174.989 54.5785C174.263 54.2196 173.466 54.0257 172.656 54.0107C172.384 54.0107 172.892 56.1802 173.154 56.0574C173.866 55.7032 174.492 55.1986 174.989 54.5785Z" fill="white"/>
<path d="M171.821 54.0981C170.208 54.4522 169.148 55.8686 169.148 55.8686C169.148 55.8686 170.705 56.7054 172.318 56.349C172.607 56.2836 172.888 56.1858 173.155 56.0574C173.254 55.7021 173.259 55.3274 173.171 54.9692C173.084 54.6111 172.905 54.2815 172.654 54.0119C172.374 54.0108 172.095 54.0397 171.821 54.0981Z" fill="#363E44"/>
<path d="M167.963 52.6947C167.767 51.8142 169.144 46.8828 174.137 46.5924C176.866 46.4331 180.132 47.1826 182.374 50.3695C185.476 54.7768 186.492 65.7704 186.492 65.7704C186.492 65.7704 175.661 68.5843 175.104 69.1603C174.372 68.5831 179.039 59.0095 178.142 58.3013C179.656 56.7786 179.661 55.2253 179.159 54.621C178.754 54.1312 177.741 53.6165 176.442 54.7178C176.115 53.8573 174.751 52.7785 172.781 52.6959C171.616 52.6463 167.963 52.6947 167.963 52.6947Z" fill="#363E44"/>
<path d="M170.66 59.373C170.549 59.3722 170.439 59.3478 170.339 59.3014C170.238 59.255 170.149 59.1876 170.076 59.1039C170.056 59.0804 170.045 59.0497 170.047 59.0184C170.049 58.9872 170.063 58.9581 170.087 58.9374C170.11 58.9168 170.141 58.9063 170.172 58.9083C170.204 58.9103 170.233 58.9246 170.253 58.9481C170.332 59.0396 170.439 59.1014 170.558 59.1229C170.676 59.1444 170.799 59.1243 170.904 59.0661C170.988 59.014 171.054 58.939 171.096 58.8501C171.138 58.7611 171.153 58.6619 171.14 58.5645C171.138 58.549 171.14 58.5333 171.144 58.5183C171.148 58.5032 171.156 58.4892 171.165 58.477C171.175 58.4648 171.187 58.4546 171.201 58.447C171.214 58.4394 171.229 58.4346 171.245 58.4328C171.26 58.4311 171.276 58.4324 171.291 58.4366C171.306 58.4409 171.32 58.4481 171.332 58.4578C171.344 58.4675 171.355 58.4795 171.362 58.4932C171.37 58.5068 171.375 58.5218 171.376 58.5373C171.395 58.6798 171.373 58.8246 171.311 58.9545C171.249 59.0843 171.152 59.1936 171.029 59.2691C170.918 59.3371 170.79 59.373 170.66 59.373Z" fill="#363E44"/>
<path d="M167.718 57.3688C167.787 56.9923 168.217 56.7692 168.544 56.467C168.703 56.327 168.821 56.1462 168.884 55.9442V58.1053C168.709 58.0955 168.535 58.0738 168.364 58.0404C168.006 57.9613 167.658 57.691 167.718 57.3688Z" fill="#BC8271"/>
<path d="M177.967 57.0301C177.943 57.03 177.919 57.0226 177.9 57.0088C177.874 56.9911 177.856 56.9639 177.85 56.9331C177.845 56.9024 177.851 56.8706 177.869 56.8448C178.421 56.0504 178.578 55.5322 178.323 55.3103C178.051 55.0625 177.754 55.2572 177.496 55.4791C177.471 55.5027 177.445 55.524 177.417 55.5429C177.39 55.5549 177.36 55.5566 177.332 55.5477C177.304 55.5388 177.281 55.5199 177.266 55.4946C177.251 55.4694 177.247 55.4396 177.253 55.411C177.259 55.3824 177.275 55.357 177.299 55.3398L177.344 55.3021C177.51 55.1557 178.017 54.7119 178.481 55.1356C178.945 55.5594 178.469 56.3986 178.063 56.9852C178.051 56.9996 178.037 57.0111 178.02 57.0189C178.004 57.0267 177.985 57.0305 177.967 57.0301Z" fill="#363E44"/>
<path d="M54.0181 206.43L39.1641 206.207L42.0598 186.833L56.9138 189.348L54.0181 206.43Z" fill="#BC8271"/>
<path d="M74.7684 216.285H36.3047L39.8475 201.588H54.9153L65.812 204.911C71.1535 206.357 74.8144 211.012 74.7684 216.285Z" fill="#363E44"/>
<path d="M19.6107 206.43L4.75781 206.207L7.65351 186.833L22.5064 189.348L19.6107 206.43Z" fill="#BC8271"/>
<path d="M40.3699 216.285H1.90625L5.44911 201.588H20.5157L31.4124 204.911C36.7527 206.357 40.4195 211.012 40.3699 216.285Z" fill="#363E44"/>
<path d="M40.3709 216.403H40.3638C40.3337 216.401 40.3055 216.388 40.2848 216.366C40.2642 216.344 40.2527 216.315 40.2528 216.285C40.2528 216.248 40.4122 212.606 37.7621 209.203C37.7456 209.178 37.739 209.148 37.7437 209.118C37.7484 209.089 37.764 209.062 37.7874 209.044C37.8109 209.026 37.8404 209.017 37.8701 209.019C37.8998 209.022 37.9275 209.035 37.9476 209.057C40.6555 212.536 40.4902 216.257 40.489 216.299C40.4855 216.328 40.4715 216.354 40.4497 216.373C40.428 216.392 40.3999 216.403 40.3709 216.403Z" fill="white"/>
<path d="M58.5925 98.266C62.6491 110.541 64.189 195.407 64.189 195.407L37.4534 194.91C37.4534 194.91 41.3281 158.012 40.1011 136.591C37.1865 153.896 28.7014 190.673 27.2842 194.924C19.7261 194.688 9.86633 194.452 2.30469 194.216C10.3458 158.656 19.4368 113.768 27.2547 95.2609C36.7071 96.9924 49.1401 96.5344 58.5925 98.266Z" fill="#4B0082"/>
<path d="M54.375 87.8543C58.7674 85.5535 63.1601 83.2538 67.5533 80.9553C69.294 84.1103 71.8555 89.2613 75.1196 95.7189C78.8219 101.25 88.1007 113.74 88.9604 114.998C90.5701 117.359 94.1401 122.283 92.7843 123.697C92.3332 124.169 91.5762 124.313 90.8216 124.122C90.8182 124.523 90.6968 124.914 90.4725 125.246C90.2482 125.579 89.9309 125.838 89.5603 125.991C88.5813 126.378 87.7145 125.783 87.6519 125.739C87.7251 126.381 87.4795 127.008 86.9965 127.346C86.3304 127.818 85.2924 127.672 84.6558 126.922C84.4657 127.384 84.1098 127.759 83.6579 127.973C82.9352 128.291 82.0412 128.106 81.3952 127.5C79.9639 125.406 77.1981 122.509 74.1017 118.84C66.8293 110.224 63.9455 106.079 61.1891 101.282C60.5986 100.256 55.6575 89.8597 54.375 87.8543Z" fill="#BC8271"/>
<path d="M58.3327 66.7465L84.4448 105.938L69.8907 116.982L41.7344 82.1911L58.3327 66.7465Z" fill="white"/>
<path d="M87.3073 117.538H87.299C86.2075 117.474 85.1685 117.048 84.3466 116.327C83.6689 115.725 83.1742 114.944 82.9189 114.074C82.9101 114.044 82.9134 114.012 82.9283 113.985C82.9431 113.957 82.9682 113.937 82.998 113.928C83.013 113.923 83.0287 113.922 83.0442 113.923C83.0598 113.925 83.0749 113.93 83.0886 113.937C83.1023 113.945 83.1144 113.955 83.1242 113.967C83.134 113.979 83.1413 113.993 83.1456 114.008C83.3884 114.835 83.8585 115.577 84.5025 116.15C85.2836 116.836 86.2709 117.241 87.3085 117.304C87.3398 117.304 87.3698 117.316 87.392 117.338C87.4141 117.36 87.4266 117.39 87.4266 117.422C87.4266 117.453 87.4141 117.483 87.392 117.505C87.3698 117.527 87.3398 117.54 87.3085 117.54L87.3073 117.538Z" fill="#363E44"/>
<path d="M86.4825 134.955C85.9075 134.957 85.3403 134.823 84.8272 134.563C84.314 134.304 83.8696 133.927 83.5301 133.463L80.8753 129.837C80.3045 129.057 80.0669 128.082 80.2148 127.126C80.3627 126.17 80.884 125.312 81.6642 124.741L89.0216 119.358C89.8026 118.788 90.7783 118.55 91.7344 118.698C92.6905 118.846 93.5488 119.367 94.1209 120.147L96.7757 123.772C97.059 124.158 97.2633 124.597 97.377 125.062C97.4907 125.527 97.5115 126.011 97.4382 126.484C97.365 126.957 97.1991 127.412 96.9501 127.821C96.701 128.23 96.3737 128.587 95.9868 128.87L88.6295 134.252C88.0069 134.709 87.2548 134.955 86.4825 134.955ZM91.1756 118.891C90.4535 118.891 89.7501 119.121 89.168 119.548L81.8106 124.931C81.081 125.466 80.5936 126.268 80.4552 127.162C80.3168 128.056 80.5388 128.968 81.0726 129.698L83.7273 133.324C84.2626 134.053 85.0654 134.541 85.9596 134.679C86.8539 134.817 87.7665 134.595 88.4972 134.062L95.8546 128.679C96.585 128.145 97.073 127.343 97.2115 126.449C97.3499 125.555 97.1273 124.642 96.5926 123.912L93.9379 120.286C93.6201 119.852 93.2042 119.5 92.7241 119.258C92.2441 119.015 91.7135 118.889 91.1756 118.891Z" fill="#363E44"/>
<path d="M109.829 113.943L70.6875 142.575L91.1501 170.519L130.292 141.886L109.829 113.943Z" fill="#84524D"/>
<path d="M101.726 144.168L74.8447 143.548C74.8133 143.548 74.7833 143.536 74.7612 143.513C74.739 143.491 74.7266 143.461 74.7266 143.43C74.7266 143.399 74.739 143.369 74.7612 143.347C74.7833 143.324 74.8133 143.312 74.8447 143.312L101.631 143.933L108.946 118.346C108.949 118.33 108.956 118.315 108.966 118.302C108.975 118.29 108.987 118.279 109.001 118.271C109.015 118.262 109.03 118.257 109.046 118.255C109.062 118.253 109.078 118.254 109.093 118.259C109.109 118.263 109.123 118.271 109.136 118.281C109.148 118.291 109.158 118.303 109.166 118.318C109.173 118.332 109.178 118.347 109.179 118.363C109.18 118.379 109.178 118.395 109.173 118.411L101.833 144.085C101.826 144.108 101.812 144.129 101.792 144.143C101.773 144.158 101.75 144.167 101.726 144.168Z" fill="#363E44"/>
<path d="M103.258 140.224L97.7422 144.259L99.8723 147.168L105.388 143.133L103.258 140.224Z" fill="#EFBC73"/>
<path d="M81.3023 126.111C80.8559 125.135 80.2796 123.649 81.6814 123.019C82.1881 122.791 82.8541 123.012 83.3265 123.438C83.333 123.444 83.3415 123.448 83.3506 123.449C83.3597 123.45 83.3689 123.448 83.3767 123.443C83.3845 123.439 83.3906 123.432 83.3939 123.423C83.3972 123.414 83.3976 123.405 83.395 123.396C83.2755 123.052 83.2852 122.676 83.4223 122.338C83.5593 122 83.8144 121.723 84.1402 121.559C84.7495 121.243 85.4014 121.441 85.9754 121.831C85.9827 121.839 85.993 121.844 86.004 121.845C86.015 121.845 86.0257 121.842 86.0338 121.834C86.042 121.827 86.0469 121.817 86.0474 121.806C86.048 121.795 86.0441 121.784 86.0368 121.776C85.555 121.057 85.6636 120.182 86.273 119.738C86.8493 119.318 87.7846 119.384 88.3751 119.957C88.3812 119.964 88.3895 119.968 88.3987 119.97C88.4078 119.972 88.4172 119.97 88.4253 119.966C88.4335 119.961 88.44 119.954 88.4437 119.946C88.4474 119.938 88.4482 119.928 88.4459 119.919C88.3761 119.674 88.3779 119.414 88.4512 119.17C88.5244 118.926 88.666 118.708 88.8593 118.542C89.4179 118.085 90.6307 118.156 91.3877 119.292L81.3023 126.111Z" fill="#BC8271"/>
<path d="M80.8175 125.411C80.7949 125.411 80.7728 125.405 80.7537 125.393C80.7347 125.381 80.7195 125.363 80.71 125.343C80.5966 125.104 80.5358 124.843 80.5315 124.578C80.5272 124.314 80.5796 124.051 80.6853 123.808C80.7727 123.6 80.903 123.412 81.0678 123.256C81.2326 123.101 81.4282 122.982 81.6418 122.908C81.9096 122.832 82.1912 122.819 82.4647 122.871C82.7382 122.922 82.9961 123.036 83.2184 123.203C83.1564 122.857 83.207 122.501 83.3628 122.186C83.5187 121.871 83.7715 121.615 84.084 121.455C84.593 121.191 85.1776 121.235 85.7858 121.573C85.4539 120.865 85.6098 120.071 86.1991 119.641C86.7884 119.21 87.6694 119.256 88.2859 119.726C88.2555 119.488 88.2848 119.247 88.3712 119.024C88.4576 118.801 88.5984 118.603 88.7807 118.448C89.4066 117.935 90.4447 118.039 91.0458 118.674C91.0577 118.685 91.0673 118.698 91.0739 118.713C91.0805 118.728 91.0839 118.744 91.0841 118.76C91.0842 118.776 91.0809 118.792 91.0746 118.807C91.0682 118.822 91.0589 118.836 91.0471 118.847C91.0353 118.858 91.0213 118.866 91.0061 118.872C90.9908 118.877 90.9746 118.88 90.9584 118.879C90.9422 118.878 90.9264 118.873 90.912 118.866C90.8975 118.858 90.8848 118.848 90.8745 118.836C90.3549 118.287 89.4645 118.193 88.9307 118.63C88.755 118.782 88.6265 118.982 88.5602 119.204C88.4939 119.427 88.4925 119.664 88.5563 119.887C88.5652 119.921 88.5627 119.956 88.5492 119.988C88.5358 120.02 88.5121 120.046 88.4819 120.063C88.4517 120.081 88.4165 120.089 88.3816 120.084C88.3468 120.08 88.3143 120.064 88.2894 120.039C87.7615 119.525 86.8864 119.432 86.3385 119.832C85.7905 120.232 85.6901 121.047 86.133 121.708C86.154 121.739 86.1635 121.776 86.1598 121.812C86.1561 121.849 86.1395 121.884 86.1129 121.909C86.086 121.936 86.0506 121.952 86.0128 121.955C85.975 121.959 85.9373 121.949 85.9063 121.927C85.4717 121.627 84.821 121.337 84.1927 121.661C83.8933 121.814 83.659 122.069 83.5325 122.38C83.4061 122.691 83.396 123.037 83.5042 123.355C83.5163 123.388 83.517 123.424 83.5061 123.457C83.4951 123.49 83.4732 123.519 83.444 123.538C83.4139 123.558 83.3781 123.567 83.3421 123.564C83.3062 123.562 83.2722 123.547 83.2456 123.523C82.8027 123.125 82.2028 122.969 81.7103 123.128C81.5278 123.193 81.3609 123.294 81.2204 123.427C81.08 123.56 80.9693 123.722 80.8955 123.9C80.8033 124.113 80.7576 124.342 80.7615 124.574C80.7654 124.805 80.8187 125.033 80.9179 125.242C80.9308 125.271 80.9319 125.303 80.9211 125.332C80.9102 125.361 80.8883 125.385 80.86 125.398C80.8468 125.405 80.8324 125.41 80.8175 125.411Z" fill="#363E44"/>
<path d="M88.946 117.371C93.1549 117.733 94.7492 116.973 94.7858 116.308C94.8461 115.184 91.38 113.405 85.2969 112.101C86.1814 113.657 88.0615 115.81 88.946 117.371Z" fill="#BC8271"/>
<path d="M24.0931 75.5978C25.7275 69.7776 31.3288 60.6749 43.1891 59.5725C53.2473 58.6388 60.5999 67.1266 63.1024 76.6719C64.8289 83.2616 64.5975 98.0995 65.5068 105.374C49.6041 113.059 21.1797 106.374 21.1797 106.374C21.1797 106.374 21.3675 85.2965 24.0931 75.5978Z" fill="white"/>
<path d="M62.6502 96.7929C62.6218 96.7933 62.5944 96.7835 62.5727 96.7653C62.551 96.7471 62.5366 96.7217 62.5321 96.6938C60.5126 84.4998 54.4898 70.2686 54.4295 70.1317C54.4187 70.1031 54.4194 70.0715 54.4314 70.0435C54.4434 70.0154 54.4658 69.9931 54.4939 69.9812C54.522 69.9693 54.5536 69.9687 54.5821 69.9796C54.6106 69.9905 54.6338 70.012 54.6468 70.0396C54.7071 70.1824 60.7406 84.4396 62.7659 96.6619C62.771 96.6927 62.7637 96.7243 62.7455 96.7498C62.7274 96.7752 62.6999 96.7924 62.669 96.7976L62.6502 96.7929Z" fill="#363E44"/>
<path d="M52.916 69.0304L48.9433 65.8825C48.9218 65.8622 48.9087 65.8346 48.9066 65.8051C48.9044 65.7756 48.9135 65.7464 48.9319 65.7232C48.9503 65.7001 48.9767 65.6847 49.006 65.6801C49.0352 65.6755 49.0651 65.682 49.0897 65.6984L52.5842 68.4627L51.8248 63.8181C51.8223 63.8026 51.8229 63.7868 51.8266 63.7715C51.8302 63.7562 51.8368 63.7418 51.846 63.7291C51.8553 63.7164 51.8669 63.7056 51.8803 63.6974C51.8936 63.6892 51.9085 63.6837 51.924 63.6812C51.9395 63.6787 51.9554 63.6793 51.9706 63.6829C51.9859 63.6866 52.0003 63.6932 52.013 63.7024C52.0258 63.7116 52.0366 63.7232 52.0448 63.7366C52.053 63.75 52.0585 63.7648 52.061 63.7803L52.916 69.0304Z" fill="#363E44"/>
<path d="M43.9033 71.4867L37.2782 62.8939C37.2613 62.8691 37.2545 62.8387 37.2593 62.809C37.264 62.7794 37.2799 62.7526 37.3037 62.7343C37.3275 62.7159 37.3574 62.7073 37.3874 62.7102C37.4173 62.7131 37.4449 62.7273 37.4648 62.7499L43.8679 71.0535L46.5735 66.0395C46.5882 66.012 46.6133 65.9915 46.6432 65.9824C46.673 65.9733 46.7053 65.9765 46.7329 65.9911C46.7467 65.9984 46.7588 66.0084 46.7687 66.0204C46.7786 66.0325 46.7861 66.0464 46.7906 66.0613C46.7951 66.0762 46.7966 66.0919 46.795 66.1074C46.7934 66.1229 46.7887 66.1379 46.7813 66.1516L43.9033 71.4867Z" fill="#363E44"/>
<path d="M46.5825 94.2859C53.0778 92.9557 67.7748 89.9328 69.2687 89.6118C72.0604 89.0122 85.5387 86.2715 86.0701 88.2131C86.644 90.3105 79.5808 90.9798 78.4246 91.3363C79.8795 91.2713 87.2888 89.3297 87.6065 90.8865C88.008 92.8589 78.7907 94.8371 78.7257 94.8784C79.7496 94.7073 87.0231 92.8483 87.4034 94.398C87.897 96.4046 79.9528 97.821 78.6903 98.0995C78.819 98.2294 84.105 96.4471 84.5809 98.0995C85.0864 99.8547 78.7942 100.963 77.9947 101.331C75.869 102.233 71.7853 103.331 67.2173 104.811C56.4896 108.287 51.5898 110.603 46.0783 110.129C43.6101 109.917 40.81 107.031 38.4375 102.811C41.3934 99.1736 43.6207 97.926 46.5825 94.2859Z" fill="#BC8271"/>
<path d="M62.7085 107.633C62.7085 107.633 42.9004 113.031 36.8752 109.117C33.4161 106.874 31.1641 97.4681 31.1641 97.4681L59.2826 91.5027L62.7085 107.633Z" fill="white"/>
<path d="M35.3991 107.784C35.3759 107.784 35.3533 107.777 35.3339 107.765C35.3146 107.752 35.2995 107.734 35.2905 107.712L26.7628 87.3999C26.7554 87.3854 26.7512 87.3696 26.7502 87.3534C26.7493 87.3372 26.7517 87.321 26.7573 87.3057C26.7629 87.2905 26.7715 87.2766 26.7828 87.2649C26.794 87.2532 26.8075 87.2439 26.8225 87.2376C26.8375 87.2313 26.8536 87.2282 26.8698 87.2285C26.8861 87.2287 26.9021 87.2323 26.9169 87.239C26.9317 87.2457 26.9449 87.2554 26.9558 87.2674C26.9667 87.2795 26.9749 87.2936 26.9801 87.309L35.5089 107.62C35.5149 107.634 35.5181 107.65 35.5181 107.665C35.5181 107.681 35.5151 107.696 35.5092 107.711C35.5033 107.725 35.4946 107.738 35.4836 107.749C35.4726 107.76 35.4595 107.769 35.4452 107.775C35.4306 107.781 35.4149 107.784 35.3991 107.784Z" fill="#363E44"/>
<path d="M41.2757 94.293C41.2444 94.2953 41.2134 94.2851 41.1896 94.2647C41.1658 94.2442 41.1511 94.2151 41.1488 94.1838C41.1464 94.1525 41.1566 94.1215 41.1771 94.0977C41.1976 94.0739 41.2267 94.0593 41.258 94.0569L59.2699 91.3847C59.2854 91.3824 59.3012 91.3832 59.3164 91.3871C59.3316 91.3909 59.3459 91.3977 59.3584 91.4071C59.371 91.4165 59.3816 91.4282 59.3896 91.4417C59.3976 91.4552 59.4029 91.4701 59.4051 91.4856C59.4074 91.5011 59.4066 91.5169 59.4027 91.532C59.3988 91.5472 59.392 91.5615 59.3827 91.574C59.3733 91.5866 59.3615 91.5972 59.3481 91.6052C59.3346 91.6132 59.3197 91.6185 59.3042 91.6207L41.2934 94.293H41.2757Z" fill="#363E44"/>
<path d="M47.7895 93.0796C47.7626 93.0805 47.7363 93.0722 47.7149 93.0561C47.6934 93.04 47.6781 93.0171 47.6714 92.9911L44.1285 79.0491C44.121 79.0189 44.1257 78.9869 44.1416 78.9602C44.1575 78.9334 44.1834 78.914 44.2135 78.9063C44.2286 78.9023 44.2442 78.9015 44.2596 78.9036C44.275 78.9058 44.2898 78.9109 44.3032 78.9188C44.3166 78.9267 44.3283 78.9372 44.3376 78.9496C44.347 78.962 44.3538 78.9762 44.3576 78.9912L47.9005 92.9333C47.908 92.9636 47.9031 92.9957 47.8869 93.0225C47.8708 93.0493 47.8446 93.0686 47.8143 93.0761L47.7895 93.0796Z" fill="#363E44"/>
<path d="M76.4951 91.5652C76.4796 91.5665 76.464 91.5646 76.4492 91.5599C76.4344 91.5551 76.4207 91.5474 76.4088 91.5373C76.397 91.5273 76.3873 91.5149 76.3802 91.5011C76.3731 91.4873 76.3688 91.4722 76.3676 91.4567C76.3663 91.4412 76.3682 91.4256 76.3729 91.4108C76.3777 91.396 76.3854 91.3823 76.3955 91.3704C76.4056 91.3586 76.4179 91.3489 76.4317 91.3418C76.4456 91.3347 76.4607 91.3304 76.4762 91.3292L83.8052 90.1677C83.8365 90.1629 83.8685 90.1707 83.8941 90.1894C83.9197 90.2081 83.9368 90.2362 83.9416 90.2675C83.9465 90.2988 83.9387 90.3307 83.92 90.3563C83.9013 90.3819 83.8731 90.3989 83.8418 90.4038L76.5128 91.5652H76.4951Z" fill="#363E44"/>
<path d="M77.2067 95C77.1912 95.0014 77.1756 94.9996 77.1607 94.9949C77.1459 94.9902 77.1321 94.9826 77.1202 94.9726C77.1083 94.9625 77.0985 94.9503 77.0914 94.9365C77.0842 94.9226 77.0799 94.9075 77.0786 94.892C77.0772 94.8765 77.079 94.8609 77.0837 94.8461C77.0884 94.8313 77.096 94.8175 77.106 94.8056C77.1161 94.7937 77.1284 94.784 77.1422 94.7768C77.156 94.7697 77.1711 94.7653 77.1866 94.764L83.6547 93.6332C83.6854 93.6281 83.7168 93.6352 83.7423 93.6531C83.7677 93.671 83.785 93.6982 83.7905 93.7288C83.7932 93.7441 83.7929 93.7598 83.7896 93.7749C83.7862 93.79 83.78 93.8044 83.7711 93.8171C83.7622 93.8298 83.7509 93.8407 83.7378 93.849C83.7247 93.8573 83.7101 93.863 83.6948 93.8657L77.2268 94.9965L77.2067 95Z" fill="#363E44"/>
<path d="M77.7686 98.384C77.7408 98.3845 77.7137 98.3752 77.6921 98.3577C77.6705 98.3402 77.6558 98.3157 77.6505 98.2884C77.6476 98.2732 77.6478 98.2575 77.6509 98.2422C77.6541 98.227 77.6603 98.2126 77.669 98.1998C77.6778 98.1869 77.6891 98.176 77.7021 98.1675C77.7151 98.159 77.7297 98.1532 77.745 98.1503L82.5467 97.2403C82.562 97.2374 82.5777 97.2375 82.5929 97.2407C82.6082 97.2439 82.6226 97.25 82.6355 97.2588C82.6483 97.2676 82.6593 97.2788 82.6678 97.2918C82.6763 97.3049 82.6821 97.3194 82.6849 97.3347C82.6878 97.35 82.6877 97.3657 82.6845 97.3809C82.6813 97.3961 82.6752 97.4106 82.6664 97.4234C82.6576 97.4362 82.6464 97.4472 82.6334 97.4557C82.6203 97.4642 82.6057 97.47 82.5904 97.4728L77.7887 98.3817L77.7686 98.384Z" fill="#363E44"/>
<path d="M70.3819 91.773C73.6141 89.0582 74.2034 87.3892 73.7559 86.8911C73.0036 86.0531 69.123 87.3491 63.8984 90.7272C65.6285 91.2052 68.6518 91.2949 70.3819 91.773Z" fill="#BC8271"/>
<path d="M69.264 89.7252C69.2326 89.7284 69.2013 89.7192 69.1768 89.6994C69.1523 89.6795 69.1368 89.6508 69.1335 89.6195C69.1302 89.5882 69.1395 89.5569 69.1593 89.5324C69.1791 89.508 69.2078 89.4924 69.2392 89.4891C69.8025 89.3711 71.3224 89.0488 73.2662 88.69C73.2975 88.6844 73.3298 88.6914 73.3559 88.7096C73.3821 88.7277 73.3999 88.7555 73.4056 88.7868C73.4112 88.8181 73.4042 88.8504 73.386 88.8765C73.3678 88.9026 73.34 88.9204 73.3087 88.9261C71.3684 89.2802 69.8509 89.6048 69.2935 89.7252C69.2837 89.7268 69.2737 89.7268 69.264 89.7252Z" fill="#363E44"/>
<path d="M49.8359 55.9867C47.9109 57.3535 42.4313 54.0675 42.4313 54.0675L39.0703 47.1212C39.0703 43.8021 42.0924 40.8584 45.4144 40.8584C46.2042 40.8582 46.9863 41.0136 47.716 41.3156C48.4457 41.6175 49.1088 42.0602 49.6673 42.6183C50.2258 43.1765 50.6689 43.8391 50.9711 44.5683C51.2734 45.2976 51.429 46.0793 51.429 46.8686C51.429 46.8686 51.7963 54.5951 49.8359 55.9867Z" fill="#BC8271"/>
<path d="M39.0469 60.5037L47.6112 64.4567V47.0291H39.0469V60.5037Z" fill="#BC8271"/>
<path d="M44.7188 47.7727C45.4765 47.3989 46.3077 47.1973 47.1527 47.1826C47.4349 47.1826 46.9012 49.4464 46.6331 49.3178C45.8903 48.9478 45.2371 48.4205 44.7188 47.7727Z" fill="white"/>
<path d="M48.0207 47.2723C49.7036 47.6429 50.8078 49.1183 50.8078 49.1183C50.8078 49.1183 49.1851 49.9906 47.5011 49.6188C47.1995 49.551 46.9066 49.4489 46.6284 49.3142C46.5258 48.9438 46.52 48.5532 46.6113 48.1798C46.7027 47.8065 46.8883 47.4627 47.1503 47.1814C47.4429 47.1799 47.7348 47.2104 48.0207 47.2723Z" fill="#363E44"/>
<path d="M49.7705 42.322C49.9748 41.4037 47.9129 39.7016 45.6006 39.4431C42.7663 39.1256 39.4384 40.0333 37.6339 43.2202C35.9002 46.2808 35.9663 50.3305 39.051 53.5126C39.8139 52.9107 40.4906 52.4008 41.4271 51.6548C39.8481 50.0673 39.7584 48.3853 40.4162 47.6535C40.976 47.0279 42.0577 46.9713 43.1962 47.9179C43.5374 47.0208 44.1055 45.6953 45.7742 44.482C47.7003 43.0785 49.6111 43.0337 49.7705 42.322Z" fill="#363E44"/>
<path d="M47.5175 56.4836C47.5077 56.4847 47.4978 56.4847 47.488 56.4836C44.4671 55.7246 42.5102 54.1973 42.4902 54.1855C42.478 54.1758 42.4678 54.1638 42.4602 54.1502C42.4526 54.1366 42.4478 54.1217 42.4461 54.1062C42.4443 54.0907 42.4456 54.0751 42.45 54.0601C42.4543 54.0451 42.4615 54.0312 42.4713 54.019C42.4908 53.9947 42.5191 53.9791 42.55 53.9756C42.581 53.972 42.6121 53.9809 42.6366 54.0002C42.6555 54.0143 44.5746 55.5086 47.5458 56.2511C47.5772 56.2548 47.6057 56.2708 47.6252 56.2956C47.6447 56.3204 47.6535 56.3519 47.6498 56.3832C47.646 56.4146 47.63 56.4431 47.6051 56.4626C47.5803 56.482 47.5488 56.4909 47.5175 56.4871V56.4836Z" fill="#363E44"/>
<path d="M49.173 52.9331C49.0488 52.9352 48.9254 52.9124 48.8102 52.866C48.695 52.8195 48.5902 52.7505 48.5022 52.6628C48.1361 52.2875 48.2743 51.7646 48.2814 51.7422C48.2843 51.726 48.2905 51.7107 48.2997 51.6971C48.3089 51.6835 48.3208 51.672 48.3347 51.6633C48.3486 51.6545 48.3642 51.6488 48.3804 51.6464C48.3966 51.644 48.4132 51.645 48.429 51.6494C48.4448 51.6538 48.4596 51.6614 48.4723 51.6717C48.485 51.6821 48.4954 51.695 48.5028 51.7096C48.5103 51.7243 48.5146 51.7403 48.5155 51.7566C48.5164 51.773 48.5139 51.7894 48.5081 51.8047C48.5081 51.8047 48.3995 52.219 48.6711 52.4988C48.7833 52.6087 48.928 52.6796 49.0838 52.7008C49.2395 52.7221 49.3979 52.6926 49.5355 52.6168C49.5632 52.6031 49.5951 52.6008 49.6244 52.6103C49.6537 52.6198 49.6782 52.6404 49.6925 52.6677C49.7069 52.6949 49.71 52.7268 49.7012 52.7563C49.6924 52.7858 49.6723 52.8108 49.6454 52.8257C49.4989 52.8991 49.3368 52.936 49.173 52.9331Z" fill="#363E44"/>
<path d="M51.402 48.6309C51.3855 49.0113 51.4566 49.3905 51.6098 49.7392C51.8283 50.2314 52.3019 50.5371 52.2924 50.8463C52.2924 51.0541 52.0562 51.3645 51.1953 51.5652L51.402 48.6309Z" fill="#BC8271"/>
<path d="M41.9196 50.8805C41.9021 50.8804 41.8849 50.8765 41.8692 50.8689C41.8535 50.8614 41.8396 50.8504 41.8286 50.8369C40.9618 49.7746 40.8236 48.7855 41.1897 48.4455C41.5783 48.0843 42.4262 48.455 42.6766 48.5765C42.6905 48.5833 42.703 48.5928 42.7133 48.6045C42.7236 48.6161 42.7315 48.6297 42.7366 48.6443C42.7416 48.659 42.7437 48.6746 42.7427 48.6901C42.7418 48.7056 42.7377 48.7208 42.7309 48.7347C42.7171 48.7626 42.6929 48.784 42.6635 48.7941C42.6341 48.8043 42.6019 48.8025 42.5738 48.789C42.2538 48.6332 41.5877 48.3971 41.3515 48.6179C41.1153 48.8386 41.1992 49.692 42.0117 50.6881C42.0258 50.7055 42.0346 50.7265 42.0372 50.7487C42.0399 50.7708 42.0361 50.7933 42.0265 50.8135C42.0168 50.8336 42.0017 50.8506 41.9827 50.8625C41.9638 50.8744 41.9419 50.8806 41.9196 50.8805Z" fill="#363E44"/>
<path d="M119.571 210.166C128.162 210.166 135.127 207.962 135.127 205.243C135.127 202.524 128.162 200.319 119.571 200.319C110.98 200.319 104.016 202.524 104.016 205.243C104.016 207.962 110.98 210.166 119.571 210.166Z" fill="#E0AA63"/>
<path d="M135.125 200.34H104.016V205.411H135.125V200.34Z" fill="#E0AA63"/>
<path d="M119.571 205.358C128.162 205.358 135.127 203.154 135.127 200.435C135.127 197.716 128.162 195.512 119.571 195.512C110.98 195.512 104.016 197.716 104.016 200.435C104.016 203.154 110.98 205.358 119.571 205.358Z" fill="#EFBC73"/>
<path d="M121.399 205.476C117.233 205.476 113.313 204.962 110.364 204.029C107.373 203.085 105.727 201.806 105.727 200.435C105.727 199.065 107.373 197.789 110.364 196.842C113.317 195.909 117.233 195.394 121.399 195.394C125.565 195.394 129.485 195.909 132.434 196.842C135.425 197.787 137.073 199.065 137.073 200.435C137.073 201.806 135.419 203.083 132.434 204.029C129.491 204.962 125.565 205.476 121.399 205.476ZM121.399 195.63C117.256 195.63 113.369 196.141 110.436 197.067C107.592 197.967 105.963 199.191 105.963 200.435C105.963 201.679 107.592 202.904 110.436 203.804C113.363 204.73 117.256 205.24 121.399 205.24C125.542 205.24 129.429 204.73 132.363 203.804C135.206 202.904 136.836 201.679 136.836 200.435C136.836 199.191 135.206 197.967 132.363 197.067C129.435 196.141 125.542 195.63 121.399 195.63Z" fill="white"/>
<path d="M122.774 202.154C131.365 202.154 138.33 199.95 138.33 197.231C138.33 194.512 131.365 192.307 122.774 192.307C114.183 192.307 107.219 194.512 107.219 197.231C107.219 199.95 114.183 202.154 122.774 202.154Z" fill="#E0AA63"/>
<path d="M138.329 192.326H107.219V197.398H138.329V192.326Z" fill="#E0AA63"/>
<path d="M122.774 197.345C131.365 197.345 138.33 195.141 138.33 192.422C138.33 189.703 131.365 187.499 122.774 187.499C114.183 187.499 107.219 189.703 107.219 192.422C107.219 195.141 114.183 197.345 122.774 197.345Z" fill="#EFBC73"/>
<path d="M124.611 197.463C120.444 197.463 116.525 196.95 113.576 196.016C110.585 195.072 108.938 193.793 108.938 192.422C108.938 191.05 110.585 189.776 113.576 188.829C116.529 187.895 120.444 187.382 124.611 187.382C128.779 187.382 132.696 187.895 135.646 188.829C138.636 189.773 140.284 191.052 140.284 192.422C140.284 193.792 138.636 195.069 135.646 196.016C132.696 196.95 128.778 197.463 124.611 197.463ZM124.611 187.618C120.467 187.618 116.574 188.128 113.647 189.053C110.805 189.954 109.174 191.178 109.174 192.422C109.174 193.666 110.805 194.891 113.647 195.791C116.574 196.717 120.467 197.227 124.611 197.227C128.755 197.227 132.642 196.717 135.574 195.791C138.416 194.891 140.047 193.666 140.047 192.422C140.047 191.178 138.416 189.954 135.574 189.053C132.648 188.128 128.754 187.618 124.611 187.618Z" fill="white"/>
<path d="M119.571 194.14C128.162 194.14 135.127 191.936 135.127 189.217C135.127 186.498 128.162 184.294 119.571 184.294C110.98 184.294 104.016 186.498 104.016 189.217C104.016 191.936 110.98 194.14 119.571 194.14Z" fill="#E0AA63"/>
<path d="M135.125 184.313H104.016V189.385H135.125V184.313Z" fill="#E0AA63"/>
<path d="M119.571 189.332C128.162 189.332 135.127 187.128 135.127 184.409C135.127 181.69 128.162 179.486 119.571 179.486C110.98 179.486 104.016 181.69 104.016 184.409C104.016 187.128 110.98 189.332 119.571 189.332Z" fill="#EFBC73"/>
<path d="M121.399 189.45C117.233 189.45 113.313 188.936 110.364 188.003C107.373 187.058 105.727 185.78 105.727 184.409C105.727 183.037 107.373 181.762 110.364 180.816C113.317 179.882 117.233 179.369 121.399 179.369C125.565 179.369 129.485 179.882 132.434 180.816C135.425 181.76 137.073 183.038 137.073 184.409C137.073 185.779 135.419 187.056 132.434 188.003C129.491 188.936 125.565 189.45 121.399 189.45ZM121.399 179.605C117.256 179.605 113.369 180.115 110.436 181.041C107.592 181.941 105.963 183.166 105.963 184.409C105.963 185.652 107.592 186.878 110.436 187.777C113.363 188.704 117.256 189.214 121.399 189.214C125.542 189.214 129.429 188.704 132.363 187.777C135.206 186.878 136.836 185.653 136.836 184.409C136.836 183.165 135.206 181.941 132.363 181.041C129.435 180.115 125.542 179.605 121.399 179.605Z" fill="white"/>
<path d="M124.61 187.014C133.201 187.014 140.166 184.809 140.166 182.091C140.166 179.372 133.201 177.167 124.61 177.167C116.019 177.167 109.055 179.372 109.055 182.091C109.055 184.809 116.019 187.014 124.61 187.014Z" fill="#E0AA63"/>
<path d="M140.165 177.186H109.055V182.258H140.165V177.186Z" fill="#E0AA63"/>
<path d="M124.61 182.206C133.201 182.206 140.166 180.002 140.166 177.283C140.166 174.564 133.201 172.36 124.61 172.36C116.019 172.36 109.055 174.564 109.055 177.283C109.055 180.002 116.019 182.206 124.61 182.206Z" fill="#EFBC73"/>
<path d="M126.438 182.324C122.272 182.324 118.353 181.81 115.403 180.876C112.413 179.932 110.766 178.653 110.766 177.283C110.766 175.913 112.419 174.637 115.403 173.69C118.356 172.756 122.272 172.242 126.438 172.242C130.604 172.242 134.524 172.756 137.473 173.69C140.464 174.634 142.112 175.913 142.112 177.283C142.112 178.653 140.464 179.93 137.473 180.876C134.524 181.81 130.606 182.324 126.438 182.324ZM126.438 172.478C122.295 172.478 118.402 172.988 115.475 173.914C112.633 174.815 111.002 176.039 111.002 177.283C111.002 178.527 112.633 179.752 115.475 180.652C118.402 181.578 122.295 182.088 126.438 182.088C130.581 182.088 134.476 181.578 137.402 180.652C140.245 179.752 141.875 178.527 141.875 177.283C141.875 176.039 140.245 174.815 137.402 173.914C134.476 172.988 130.582 172.478 126.438 172.478Z" fill="white"/>
<path d="M114.752 159.657H117.338V160.77H114.752V163.699H113.571V160.77H110.984V159.657H113.571V156.952H114.752V159.657Z" fill="#D87355"/>
<path d="M119.93 154.988C119.93 153.948 120.262 153.09 120.925 152.415C121.589 151.74 122.441 151.402 123.482 151.402C124.539 151.402 125.395 151.742 126.052 152.421C126.708 153.1 127.036 153.979 127.035 155.06V155.906C127.035 156.954 126.704 157.81 126.04 158.473C125.376 159.137 124.532 159.468 123.507 159.467C122.472 159.467 121.618 159.136 120.943 158.473C120.268 157.811 119.93 156.927 119.93 155.823V154.988ZM121.575 155.9C121.575 156.521 121.75 157.033 122.099 157.435C122.449 157.837 122.918 158.038 123.507 158.038C123.764 158.047 124.019 157.998 124.255 157.896C124.491 157.794 124.701 157.641 124.871 157.448C125.216 157.054 125.39 156.521 125.39 155.848V154.976C125.39 154.355 125.22 153.844 124.878 153.442C124.536 153.039 124.071 152.837 123.482 152.834C122.894 152.834 122.429 153.036 122.087 153.442C121.746 153.847 121.575 154.376 121.575 155.03V155.9ZM124.008 167.687L122.756 166.901L131.235 153.345L132.487 154.131L124.008 167.687ZM128.377 164.744C128.377 163.705 128.709 162.849 129.373 162.177C130.036 161.505 130.889 161.17 131.929 161.172C132.971 161.172 133.826 161.505 134.493 162.171C135.161 162.838 135.495 163.723 135.495 164.828V165.674C135.495 166.714 135.162 167.57 134.498 168.242C133.833 168.914 132.985 169.249 131.953 169.249C130.92 169.249 130.066 168.917 129.39 168.254C128.715 167.59 128.377 166.706 128.377 165.602V164.744ZM130.022 165.67C130.022 166.299 130.197 166.815 130.546 167.216C130.721 167.415 130.938 167.572 131.181 167.677C131.425 167.781 131.688 167.829 131.953 167.818C132.211 167.829 132.469 167.781 132.706 167.679C132.943 167.577 133.155 167.423 133.324 167.228C133.667 166.834 133.837 166.299 133.837 165.621V164.737C133.837 164.108 133.664 163.596 133.318 163.203C133.146 163.006 132.932 162.849 132.692 162.746C132.451 162.643 132.191 162.595 131.929 162.606C131.671 162.597 131.413 162.646 131.175 162.748C130.937 162.85 130.725 163.003 130.552 163.196C130.198 163.589 130.021 164.121 130.022 164.79V165.67Z" fill="#D87355"/>
</g>
<defs>
<clipPath id="clip0_7027_25905">
<rect width="216" height="216" fill="white" transform="translate(0 0.964478)"/>
</clipPath>
</defs>
</svg>
