<svg width="216" height="217" viewBox="0 0 216 217" fill="none" xmlns="http://www.w3.org/2000/svg">
<g clip-path="url(#clip0_7027_26212)">
<path d="M108 216.965C167.647 216.965 216 168.611 216 108.965C216 49.3178 167.647 0.964508 108 0.964508C48.3532 0.964508 0 49.3178 0 108.965C0 168.611 48.3532 216.965 108 216.965Z" fill="#F2E6DC"/>
<path d="M94.5019 125.094C93.9267 125.094 93.3409 125.082 92.7444 125.059C92.7131 125.058 92.6836 125.045 92.6623 125.022C92.6411 124.999 92.6299 124.968 92.6311 124.937C92.6324 124.905 92.646 124.876 92.669 124.855C92.692 124.833 92.7226 124.822 92.7539 124.823C103.125 125.22 109.987 122.256 113.133 116.013C116.464 109.418 113.98 101.519 111.307 96.0541C108.282 89.8633 103.254 83.3266 98.1857 78.9948C88.2391 70.4905 79.4764 66.3122 69.3857 62.6543C69.3707 62.6494 69.3569 62.6415 69.345 62.6311C69.3331 62.6207 69.3235 62.6081 69.3166 62.5939C69.3097 62.5797 69.3057 62.5642 69.3049 62.5485C69.304 62.5327 69.3064 62.5169 69.3117 62.5021C69.3171 62.4873 69.3254 62.4737 69.3361 62.4621C69.3468 62.4505 69.3598 62.4412 69.3741 62.4347C69.3885 62.4282 69.4041 62.4246 69.4198 62.4243C69.4356 62.4239 69.4513 62.4267 69.466 62.4324C79.5861 66.0985 88.3701 70.2887 98.3439 78.8154C103.435 83.1673 108.485 89.7334 111.525 95.9502C114.219 101.464 116.724 109.438 113.348 116.121C111.715 119.356 109.044 121.752 105.411 123.244C102.411 124.473 98.7488 125.094 94.5019 125.094Z" fill="#776E42"/>
<path d="M51.6358 148.895C79.1913 148.895 101.529 126.557 101.529 99.0014C101.529 71.4459 79.1913 49.1077 51.6358 49.1077C24.0803 49.1077 1.74219 71.4459 1.74219 99.0014C1.74219 126.557 24.0803 148.895 51.6358 148.895Z" fill="#E6D0BE"/>
<path d="M58.8731 149.013H58.5757C45.3595 148.974 32.6991 143.691 23.3747 134.325C14.0503 124.958 8.8241 112.275 8.84381 99.0583C8.86351 85.842 14.1275 73.1737 23.4798 63.8354C32.832 54.497 45.5081 49.252 58.7244 49.252C71.9407 49.252 84.6168 54.497 93.9691 63.8354C103.321 73.1737 108.585 85.842 108.605 99.0583C108.625 112.275 103.399 124.958 94.0741 134.325C84.7497 143.691 72.0894 148.974 58.8731 149.013ZM58.859 49.2258C31.5438 49.2258 9.24624 71.364 9.08926 98.7146C8.93109 126.161 31.1319 148.618 58.5769 148.776H58.8684C86.1836 148.776 108.48 126.638 108.638 99.287C108.796 71.8409 86.5955 49.3839 59.1505 49.2258H58.859Z" fill="white"/>
<path d="M58.9519 74.9168C45.1043 74.9168 31.4951 72.5856 19.5927 68.1759C19.5781 68.1705 19.5648 68.1622 19.5534 68.1517C19.542 68.1411 19.5328 68.1283 19.5264 68.1142C19.5199 68.1001 19.5163 68.0848 19.5157 68.0692C19.5151 68.0537 19.5176 68.0382 19.5231 68.0236C19.5285 68.0091 19.5367 67.9957 19.5473 67.9843C19.5579 67.9729 19.5706 67.9638 19.5848 67.9573C19.5989 67.9508 19.6142 67.9472 19.6297 67.9466C19.6453 67.9461 19.6608 67.9486 19.6753 67.954C31.5506 72.3554 45.1326 74.6819 58.9519 74.6819C72.665 74.6819 86.1561 72.3897 97.9665 68.052C97.9959 68.0412 98.0284 68.0425 98.0569 68.0557C98.0853 68.0688 98.1074 68.0928 98.1181 68.1222C98.129 68.1516 98.1276 68.1841 98.1144 68.2126C98.1013 68.241 98.0774 68.2631 98.0479 68.2739C86.2116 72.6198 72.6921 74.9168 58.9519 74.9168Z" fill="white"/>
<path d="M19.1738 129.365C19.1459 129.366 19.1189 129.356 19.0974 129.338C19.076 129.32 19.0615 129.296 19.0566 129.268C19.0516 129.241 19.0565 129.213 19.0704 129.188C19.0843 129.164 19.1063 129.146 19.1325 129.136C31.1482 124.614 44.9155 122.224 58.9485 122.224C72.9047 122.224 86.6083 124.585 98.578 129.07C98.5933 129.075 98.6075 129.083 98.6197 129.093C98.6319 129.104 98.6419 129.117 98.649 129.131C98.656 129.145 98.6601 129.161 98.6609 129.177C98.6617 129.193 98.6592 129.209 98.6535 129.224C98.6479 129.239 98.6393 129.253 98.6281 129.265C98.617 129.276 98.6036 129.285 98.5888 129.292C98.574 129.298 98.5581 129.301 98.542 129.301C98.5259 129.301 98.5101 129.297 98.4954 129.291C86.5516 124.825 72.8822 122.464 58.9544 122.464C44.9498 122.464 31.2108 124.848 19.221 129.361C19.2059 129.366 19.1897 129.368 19.1738 129.365Z" fill="white"/>
<path d="M58.8641 149.013C55.3396 149.013 51.9214 147.685 48.7062 145.065C45.609 142.542 42.8293 138.927 40.4439 134.336C35.542 124.893 32.8438 112.347 32.8438 99.0014C32.8438 85.6554 35.542 73.1073 40.4439 63.6671C42.8305 59.0709 45.6102 55.4602 48.7062 52.9379C51.9214 50.3187 55.3396 48.9897 58.8641 48.9897C62.3885 48.9897 65.8068 50.3187 69.022 52.9379C72.1192 55.4602 74.8988 59.0756 77.2843 63.6671C82.185 73.1097 84.8844 85.6554 84.8844 99.0014C84.8844 112.347 82.1862 124.899 77.2855 134.342C74.8988 138.938 72.1192 142.548 69.0232 145.071C65.8068 147.685 62.3885 149.013 58.8641 149.013ZM58.8641 49.2258C44.6458 49.2258 33.0786 71.5552 33.0786 99.0014C33.0786 126.448 44.6458 148.777 58.8641 148.777C73.0823 148.777 84.6495 126.448 84.6495 99.0014C84.6495 71.5552 73.0823 49.2258 58.8641 49.2258Z" fill="white"/>
<path d="M58.8602 148.947C58.8289 148.947 58.7989 148.934 58.7768 148.912C58.7546 148.89 58.7422 148.86 58.7422 148.829V49.2092C58.7422 49.1779 58.7546 49.1479 58.7768 49.1258C58.7989 49.1036 58.8289 49.0912 58.8602 49.0912C58.8915 49.0912 58.9215 49.1036 58.9437 49.1258C58.9658 49.1479 58.9783 49.1779 58.9783 49.2092V148.829C58.9783 148.86 58.9658 148.89 58.9437 148.912C58.9215 148.934 58.8915 148.947 58.8602 148.947Z" fill="white"/>
<path d="M108.766 99.2055L8.93835 98.4277C8.90704 98.4277 8.87702 98.4153 8.85489 98.3932C8.83275 98.371 8.82031 98.341 8.82031 98.3097C8.82031 98.2784 8.83275 98.2484 8.85489 98.2262C8.87702 98.2041 8.90704 98.1917 8.93835 98.1917L108.766 98.9695C108.797 98.9695 108.827 98.9819 108.849 99.0041C108.871 99.0262 108.884 99.0562 108.884 99.0875C108.884 99.1188 108.871 99.1488 108.849 99.171C108.827 99.1931 108.797 99.2055 108.766 99.2055Z" fill="white"/>
<path d="M23.0314 71.9671C19.8446 71.9671 16.7883 73.2331 14.535 75.4865C12.2816 77.7398 11.0156 80.7961 11.0156 83.9829C11.0156 90.6187 23.0314 105.263 23.0314 105.263C23.0314 105.263 35.0471 90.6187 35.0471 83.9829C35.0471 80.7961 33.7812 77.7398 31.5278 75.4865C29.2744 73.2331 26.2181 71.9671 23.0314 71.9671Z" fill="#D87355"/>
<path d="M23.831 92.1701C28.3493 91.7231 31.6497 87.698 31.2027 83.1797C30.7557 78.6614 26.7306 75.361 22.2123 75.808C17.694 76.255 14.3936 80.2802 14.8406 84.7984C15.2876 89.3167 19.3128 92.6171 23.831 92.1701Z" fill="white"/>
<path d="M81.9099 171.26L199.703 171.26L199.703 12.5447L81.9099 12.5447L81.9099 171.26Z" fill="white"/>
<path d="M194.837 167.445H77.0399C77.0086 167.445 76.9786 167.433 76.9564 167.41C76.9343 167.388 76.9219 167.358 76.9219 167.327V8.61187C76.9219 8.58056 76.9343 8.55054 76.9564 8.5284C76.9786 8.50627 77.0086 8.49384 77.0399 8.49384H194.837C194.868 8.49384 194.898 8.50627 194.92 8.5284C194.942 8.55054 194.955 8.58056 194.955 8.61187V167.327C194.955 167.358 194.942 167.388 194.92 167.41C194.898 167.433 194.868 167.445 194.837 167.445ZM77.1579 167.209H194.719V8.7299H77.1579V167.209Z" fill="#363E44"/>
<path d="M186.605 30.7737H150.931C150.899 30.7737 150.869 30.7613 150.847 30.7391C150.825 30.717 150.812 30.687 150.812 30.6557C150.812 30.6244 150.825 30.5943 150.847 30.5722C150.869 30.5501 150.899 30.5376 150.931 30.5376H186.605C186.636 30.5376 186.666 30.5501 186.688 30.5722C186.71 30.5943 186.723 30.6244 186.723 30.6557C186.723 30.687 186.71 30.717 186.688 30.7391C186.666 30.7613 186.636 30.7737 186.605 30.7737Z" fill="#8BBEB2"/>
<path d="M186.602 37.3918H150.891C150.86 37.3918 150.83 37.3794 150.808 37.3572C150.786 37.3351 150.773 37.3051 150.773 37.2738C150.773 37.2425 150.786 37.2124 150.808 37.1903C150.83 37.1682 150.86 37.1557 150.891 37.1557H186.602C186.634 37.1557 186.664 37.1682 186.686 37.1903C186.708 37.2124 186.72 37.2425 186.72 37.2738C186.72 37.3051 186.708 37.3351 186.686 37.3572C186.664 37.3794 186.634 37.3918 186.602 37.3918Z" fill="#8BBEB2"/>
<path d="M186.602 44.0099H150.891C150.86 44.0099 150.83 43.9974 150.808 43.9753C150.786 43.9532 150.773 43.9231 150.773 43.8918C150.773 43.8605 150.786 43.8305 150.808 43.8084C150.83 43.7862 150.86 43.7738 150.891 43.7738H186.602C186.634 43.7738 186.664 43.7862 186.686 43.8084C186.708 43.8305 186.72 43.8605 186.72 43.8918C186.72 43.9231 186.708 43.9532 186.686 43.9753C186.664 43.9974 186.634 44.0099 186.602 44.0099Z" fill="#8BBEB2"/>
<path d="M159.315 55.2041H93.5156V81.673H159.315V55.2041Z" fill="#F2E6DC"/>
<path d="M187.516 55.2041H163.125V81.673H187.516V55.2041Z" fill="#F2E6DC"/>
<path d="M160.105 108.966H93.6328V115.773H160.105V108.966Z" fill="#F2E6DC"/>
<path d="M160.105 118.981H93.6328V125.788H160.105V118.981Z" fill="#F2E6DC"/>
<path d="M160.105 128.996H93.6328V135.803H160.105V128.996Z" fill="#F2E6DC"/>
<path d="M160.105 139.011H93.6328V145.818H160.105V139.011Z" fill="#F2E6DC"/>
<path d="M160.105 149.026H93.6328V155.833H160.105V149.026Z" fill="#F2E6DC"/>
<path d="M187.516 108.966H162.875V155.833H187.516V108.966Z" fill="#F2E6DC"/>
<path d="M187.632 86.7873H93.6328V93.062H187.632V86.7873Z" fill="#F2E6DC"/>
<path d="M187.632 97.3159H93.6328V103.59H187.632V97.3159Z" fill="#F2E6DC"/>
<path d="M106.557 32.111H101.697V45.5301H99.0111V32.111H94.1953V29.925H106.557V32.111Z" fill="#D87355"/>
<path d="M116.045 41.8959H110.008L108.745 45.5301H105.93L111.817 29.925H114.246L120.148 45.5301H117.322L116.045 41.8959ZM110.768 39.7099H115.285L113.027 33.237L110.768 39.7099Z" fill="#D87355"/>
<path d="M127.267 35.5623L130.54 29.925H133.666L128.956 37.6632L133.773 45.5301H130.616L127.265 39.8067L123.905 45.5301H120.758L125.585 37.6632L120.864 29.925H123.988L127.267 35.5623Z" fill="#D87355"/>
<path d="M112.383 216.656L122.737 177.137L175.241 179.216L177.572 216.656H147.35L146.829 206.783L139.508 216.656H112.383Z" fill="#4B0082"/>
<path d="M146.835 206.901C146.814 206.901 146.794 206.895 146.776 206.884C146.758 206.873 146.743 206.858 146.733 206.839C146.723 206.82 146.718 206.8 146.719 206.779C146.72 206.757 146.726 206.737 146.737 206.719L151.616 199.177C151.624 199.164 151.635 199.153 151.648 199.144C151.661 199.135 151.675 199.129 151.69 199.126C151.705 199.122 151.721 199.122 151.736 199.125C151.752 199.128 151.766 199.134 151.779 199.142C151.792 199.151 151.803 199.162 151.812 199.174C151.821 199.187 151.827 199.201 151.83 199.217C151.834 199.232 151.834 199.248 151.831 199.263C151.828 199.278 151.822 199.293 151.814 199.306L146.936 206.847C146.925 206.864 146.91 206.877 146.893 206.887C146.875 206.896 146.855 206.901 146.835 206.901Z" fill="#E6D0BE"/>
<path d="M139.017 96.0895C138.744 96.0914 138.474 96.0334 138.226 95.9195C136.937 95.3294 136.58 93.3382 137.431 91.4862C137.84 90.5951 138.463 89.8668 139.187 89.4336C139.91 89.0004 140.678 88.9096 141.311 89.1976C142.599 89.7877 142.955 91.7778 142.104 93.6309C141.696 94.5208 141.073 95.2503 140.349 95.6835C139.95 95.9368 139.489 96.0771 139.017 96.0895ZM137.646 91.5842C136.85 93.3193 137.154 95.1677 138.324 95.7047C138.883 95.962 139.558 95.8829 140.228 95.4828C140.897 95.0827 141.501 94.3827 141.89 93.5353C142.686 91.8002 142.382 89.9518 141.212 89.4136C140.654 89.1574 139.976 89.2353 139.308 89.6366C138.64 90.038 138.035 90.7367 137.646 91.5842Z" fill="#363E44"/>
<path d="M140.774 92.3219C143.098 87.2465 144.905 84.494 148.092 83.3231C152.388 81.7485 156.603 84.5034 157.038 84.8009C157.317 84.9885 161.431 87.4247 161.732 92.2286C162.03 96.9724 159.806 101.709 155.819 104.215L154.905 114.677C154.764 116.289 153.989 117.78 152.749 118.82C151.51 119.86 149.908 120.366 148.295 120.225L147.535 120.159C145.923 120.017 144.434 119.241 143.393 118.002C142.353 116.763 141.848 115.161 141.988 113.549L142.598 106.56C140.484 106.197 138.853 105.432 138.272 104.293C137.236 102.252 138.037 98.2967 140.774 92.3219Z" fill="#9E6C5A"/>
<path d="M147.215 94.9021C147.204 94.9039 147.192 94.9039 147.18 94.9021L137.521 91.9194C137.491 91.9102 137.466 91.8894 137.451 91.8616C137.437 91.8338 137.433 91.8013 137.443 91.7713C137.452 91.7412 137.473 91.7161 137.501 91.7014C137.528 91.6866 137.561 91.6836 137.591 91.6928L147.249 94.6767C147.276 94.6853 147.299 94.7031 147.313 94.7268C147.328 94.7505 147.334 94.7786 147.329 94.8062C147.325 94.8337 147.312 94.859 147.291 94.8774C147.27 94.8958 147.243 94.9062 147.215 94.9068V94.9021Z" fill="#363E44"/>
<path d="M142.525 106.502H142.511C142.48 106.499 142.452 106.483 142.432 106.459C142.413 106.434 142.404 106.403 142.407 106.373L142.698 103.819C142.7 103.804 142.705 103.789 142.713 103.776C142.72 103.762 142.73 103.75 142.742 103.74C142.755 103.731 142.769 103.724 142.783 103.719C142.798 103.715 142.814 103.714 142.829 103.716C142.845 103.717 142.86 103.722 142.873 103.73C142.887 103.737 142.899 103.747 142.909 103.76C142.918 103.772 142.925 103.786 142.93 103.801C142.934 103.816 142.935 103.831 142.933 103.847L142.642 106.398C142.638 106.427 142.625 106.453 142.603 106.473C142.582 106.492 142.554 106.502 142.525 106.502Z" fill="#363E44"/>
<path d="M147.391 98.8137C147.374 98.8135 147.358 98.8099 147.343 98.8032C147.329 98.7965 147.315 98.7868 147.304 98.7747C147.283 98.7517 147.272 98.7212 147.274 98.6901C147.275 98.6589 147.289 98.6295 147.311 98.6083C147.942 98.0299 148.334 97.6534 148.619 97.3796L148.984 97.0255C149.007 97.004 149.038 96.9926 149.069 96.9937C149.1 96.9948 149.13 97.0084 149.152 97.0314C149.173 97.0544 149.184 97.085 149.183 97.1164C149.182 97.1478 149.169 97.1775 149.146 97.199C149.038 97.2981 148.924 97.4091 148.783 97.5436C148.497 97.8187 148.103 98.1964 147.471 98.7759C147.45 98.7985 147.421 98.812 147.391 98.8137Z" fill="#363E44"/>
<path d="M146.753 82.7836C150.601 79.5968 159.424 82.3977 162.502 87.3079C166.667 93.9484 163.508 103.183 157.822 105.926C155.914 106.847 152.769 107.903 149.686 106.128C147.886 105.092 148.499 102.359 148.658 101.703C150.438 101.537 151.827 100.126 151.955 98.4324C152.082 96.7387 150.893 95.1771 149.4 94.7876C148.408 94.5291 147.544 94.849 147.191 95.0048C144.668 89.8184 144.011 85.0534 146.753 82.7836Z" fill="#363E44"/>
<path d="M177.601 138.568C187.525 134.8 216.83 125.678 212.866 113.411C209.589 103.26 181.44 113.411 171.344 116.509L177.601 138.568Z" fill="#9E6C5A"/>
<path d="M198.864 123.824C189.968 106.709 183.329 94.7404 181.424 90.9645C181.074 90.308 180.82 89.6049 180.67 88.8765C179.932 85.1844 182.517 83.2888 183.511 79.0526C184.639 74.2452 182.555 70.8989 183.678 70.3288C184.46 69.9322 185.601 70.9721 186.968 73.7707C186.173 71.528 185.229 68.4332 186.471 67.9977C187.931 67.5716 189.467 71.0736 190.292 73.2383C189.293 70.6192 189.544 68.9266 190.292 68.857C191.472 68.746 192.724 70.5968 193.911 74.1106C193.769 71.456 194.13 70.7903 194.81 70.8907C196.053 71.0736 196.973 73.9808 197.394 76.6743C197.866 79.7077 197.182 82.2218 196.713 83.8011C204.185 95.1405 206.145 97.7986 211.98 107.088C218.616 117.643 208.427 128.337 198.864 123.824Z" fill="#9E6C5A"/>
<path d="M183.5 83.1496C180.974 78.9688 179.177 77.9962 178.528 78.4176C177.435 79.1258 178.131 83.5792 181.053 90.156C181.91 88.2651 182.644 85.0404 183.5 83.1496Z" fill="#9E6C5A"/>
<path d="M187.039 78.3326H187.017C187.001 78.3297 186.987 78.3237 186.974 78.3151C186.961 78.3065 186.95 78.2954 186.941 78.2824C186.932 78.2695 186.926 78.2549 186.923 78.2397C186.92 78.2244 186.92 78.2086 186.923 78.1934C187.197 76.7747 187.144 75.3124 186.77 73.917C186.766 73.9021 186.765 73.8865 186.767 73.8711C186.768 73.8557 186.773 73.8408 186.781 73.8273C186.789 73.8138 186.799 73.802 186.811 73.7925C186.824 73.783 186.838 73.776 186.852 73.7719C186.868 73.7678 186.883 73.7667 186.899 73.7687C186.914 73.7707 186.929 73.7757 186.943 73.7835C186.956 73.7913 186.968 73.8017 186.977 73.8141C186.987 73.8265 186.994 73.8406 186.998 73.8557C187.382 75.2857 187.436 76.7844 187.155 78.2382C187.149 78.2649 187.135 78.2888 187.114 78.306C187.093 78.3232 187.066 78.3326 187.039 78.3326Z" fill="#363E44"/>
<path d="M190.226 77.4663H190.204C190.188 77.4635 190.174 77.4576 190.161 77.4491C190.148 77.4407 190.137 77.4297 190.128 77.4169C190.119 77.404 190.113 77.3896 190.11 77.3744C190.107 77.3592 190.106 77.3435 190.109 77.3282C190.221 76.7509 190.279 76.1646 190.283 75.5766C190.287 74.7239 190.177 73.8745 189.957 73.0507C189.949 73.0206 189.953 72.9887 189.969 72.9617C189.984 72.9347 190.01 72.915 190.04 72.9067C190.055 72.9026 190.07 72.9015 190.086 72.9035C190.101 72.9055 190.116 72.9105 190.13 72.9183C190.143 72.9261 190.155 72.9365 190.165 72.9489C190.174 72.9613 190.181 72.9754 190.185 72.9905C190.569 74.4205 190.623 75.9192 190.342 77.373C190.336 77.3995 190.322 77.4232 190.301 77.4401C190.279 77.4571 190.253 77.4664 190.226 77.4663Z" fill="#363E44"/>
<path d="M194.063 78.6301C194.056 78.6312 194.048 78.6312 194.041 78.6301C194.01 78.6241 193.983 78.6062 193.966 78.5803C193.948 78.5544 193.942 78.5227 193.948 78.492C194.221 77.0733 194.169 75.611 193.794 74.2156C193.79 74.2005 193.788 74.1846 193.79 74.1688C193.791 74.1531 193.796 74.1378 193.804 74.1239C193.811 74.1101 193.822 74.0979 193.834 74.0881C193.847 74.0784 193.861 74.0712 193.876 74.0671C193.892 74.063 193.908 74.062 193.923 74.0641C193.939 74.0663 193.954 74.0716 193.968 74.0798C193.981 74.0879 193.993 74.0987 194.002 74.1115C194.012 74.1243 194.018 74.1388 194.022 74.1543C194.406 75.5843 194.46 77.083 194.179 78.5368C194.173 78.5633 194.159 78.587 194.138 78.6039C194.117 78.6209 194.09 78.6301 194.063 78.6301Z" fill="#363E44"/>
<path d="M110.373 122.379C88.6346 127.003 71.5647 131.691 73.4284 138.667C77.3742 153.438 93.7737 145.846 108.35 145.716C108.898 139.727 109.864 129.64 110.373 122.379Z" fill="#9E6C5A"/>
<path d="M92.0342 136.196C92.0342 136.196 97.5227 121.424 99.8798 113.39C102.359 104.95 104.783 92.1307 102.986 91.8144C101.963 91.6338 101.27 93.3134 99.7181 97.9273C99.5635 97.6157 98.9438 96.8001 97.9677 96.7894C96.5218 96.7717 96.1051 97.9226 96.0272 98.0111C95.9836 97.9013 95.4784 96.7304 94.5129 96.5546C93.4246 96.3574 92.6078 96.8603 92.1286 97.5826C92.0106 97.3135 91.4771 96.3634 90.5446 96.2229C89.585 96.0777 88.4779 96.623 88.2064 97.5991C87.7095 99.3897 86.3356 104.741 85.3488 107.265C83.4083 112.228 74.1522 128.932 73.2422 136.849C79.9653 135.324 92.0342 136.196 92.0342 136.196Z" fill="#9E6C5A"/>
<path d="M90.1888 100.17H90.1711L88.6178 99.9432C88.5865 99.9387 88.5582 99.9219 88.5393 99.8966C88.5204 99.8712 88.5123 99.8394 88.5169 99.8081C88.5214 99.7768 88.5382 99.7486 88.5635 99.7296C88.5889 99.7107 88.6207 99.7026 88.652 99.7072L90.2053 99.9338C90.2366 99.936 90.2658 99.9505 90.2864 99.9742C90.3069 99.9979 90.3173 100.029 90.3151 100.06C90.3129 100.091 90.2984 100.121 90.2747 100.141C90.251 100.162 90.2201 100.172 90.1888 100.17Z" fill="#363E44"/>
<path d="M94.1381 100.758H94.1252L92.3547 100.558C92.3392 100.556 92.3243 100.552 92.3107 100.544C92.2971 100.537 92.2852 100.526 92.2755 100.514C92.2659 100.502 92.2587 100.488 92.2545 100.473C92.2502 100.458 92.249 100.443 92.2508 100.427C92.2526 100.412 92.2573 100.397 92.2649 100.383C92.2724 100.37 92.2826 100.358 92.2947 100.348C92.3069 100.338 92.3209 100.331 92.3358 100.327C92.3508 100.323 92.3664 100.322 92.3818 100.323L94.1452 100.523C94.1765 100.525 94.2059 100.539 94.2268 100.562C94.2477 100.585 94.2585 100.616 94.2568 100.647C94.255 100.679 94.241 100.708 94.2176 100.729C94.1943 100.75 94.1635 100.761 94.1322 100.759L94.1381 100.758Z" fill="#363E44"/>
<path d="M97.9651 101.163H97.9486C97.6582 101.12 97.395 101.083 97.133 101.045C96.8709 101.006 96.6101 100.973 96.3209 100.926C96.2896 100.922 96.2614 100.905 96.2425 100.88C96.2235 100.854 96.2154 100.823 96.22 100.791C96.2245 100.76 96.2413 100.732 96.2667 100.713C96.292 100.694 96.3238 100.686 96.3551 100.69C96.6431 100.733 96.904 100.769 97.1648 100.808C97.4257 100.847 97.6913 100.882 97.9828 100.926C97.9983 100.928 98.0134 100.932 98.0273 100.939C98.0412 100.946 98.0535 100.956 98.0637 100.967C98.0738 100.979 98.0815 100.993 98.0864 101.008C98.0912 101.022 98.0931 101.038 98.092 101.053C98.0908 101.069 98.0866 101.084 98.0796 101.098C98.0726 101.112 98.0629 101.124 98.0512 101.134C98.0394 101.144 98.0257 101.152 98.011 101.157C97.9962 101.162 97.9806 101.164 97.9651 101.163Z" fill="#363E44"/>
<path d="M101.093 101.893C101.085 101.894 101.077 101.894 101.068 101.893L99.5458 101.556C99.5306 101.552 99.5162 101.546 99.5034 101.537C99.4906 101.528 99.4798 101.517 99.4714 101.503C99.4631 101.49 99.4575 101.476 99.4548 101.46C99.4522 101.445 99.4526 101.429 99.4561 101.414C99.4629 101.383 99.4815 101.357 99.5078 101.34C99.5341 101.323 99.566 101.318 99.5966 101.324L101.119 101.663C101.15 101.666 101.179 101.682 101.199 101.707C101.219 101.731 101.228 101.763 101.224 101.794C101.221 101.825 101.205 101.854 101.18 101.874C101.156 101.893 101.125 101.902 101.093 101.899V101.893Z" fill="#363E44"/>
<path d="M177.185 144.629L191.498 139.366L185.764 111.603C185.764 111.603 141.051 108.697 105.812 122.42L106.547 149.386L118.135 150.355L110.345 184.992C138.637 188.602 161.61 188.179 180.92 184.992L177.185 144.629Z" fill="#8BBEB2"/>
<path d="M176.145 143.448C176.117 143.448 176.089 143.438 176.067 143.42C176.046 143.401 176.031 143.376 176.027 143.347L174.611 134.221C174.606 134.19 174.614 134.158 174.632 134.132C174.651 134.107 174.679 134.09 174.711 134.085C174.742 134.08 174.774 134.088 174.799 134.106C174.825 134.125 174.842 134.153 174.847 134.185L176.263 143.311C176.266 143.326 176.265 143.342 176.262 143.357C176.258 143.373 176.251 143.387 176.242 143.399C176.233 143.412 176.221 143.423 176.208 143.431C176.194 143.439 176.18 143.444 176.164 143.447L176.145 143.448Z" fill="#363E44"/>
<path d="M78.1034 211.465C86.6821 211.465 93.6365 209.263 93.6365 206.547C93.6365 203.831 86.6821 201.628 78.1034 201.628C69.5247 201.628 62.5703 203.831 62.5703 206.547C62.5703 209.263 69.5247 211.465 78.1034 211.465Z" fill="#E0AA63"/>
<path d="M93.6365 201.646H62.5703V206.713H93.6365V201.646Z" fill="#E0AA63"/>
<path d="M78.1034 206.661C86.6821 206.661 93.6365 204.459 93.6365 201.743C93.6365 199.027 86.6821 196.825 78.1034 196.825C69.5247 196.825 62.5703 199.027 62.5703 201.743C62.5703 204.459 69.5247 206.661 78.1034 206.661Z" fill="#EFBC73"/>
<path d="M79.9324 206.779C75.7717 206.779 71.859 206.266 68.914 205.334C65.9266 204.389 64.2812 203.112 64.2812 201.743C64.2812 200.374 65.9266 199.098 68.914 198.152C71.859 197.22 75.7717 196.707 79.9324 196.707C84.0931 196.707 88.007 197.22 90.9519 198.152C93.9394 199.097 95.5835 200.374 95.5835 201.743C95.5835 203.112 93.9394 204.387 90.9519 205.334C88.007 206.266 84.0931 206.779 79.9324 206.779ZM79.9324 196.943C75.8012 196.943 71.9062 197.453 68.9849 198.378C66.1521 199.276 64.5173 200.502 64.5173 201.743C64.5173 202.984 66.1462 204.21 68.9849 205.108C71.9073 206.034 75.7953 206.543 79.9324 206.543C84.0694 206.543 87.9586 206.034 90.8811 205.108C93.7139 204.21 95.3475 202.984 95.3475 201.743C95.3475 200.502 93.7198 199.276 90.8811 198.378C87.9574 197.453 84.0694 196.943 79.9324 196.943Z" fill="white"/>
<path d="M79.2128 203.459C87.7915 203.459 94.7459 201.257 94.7459 198.541C94.7459 195.824 87.7915 193.622 79.2128 193.622C70.6341 193.622 63.6797 195.824 63.6797 198.541C63.6797 201.257 70.6341 203.459 79.2128 203.459Z" fill="#E0AA63"/>
<path d="M94.7537 193.64H63.6875V198.707H94.7537V193.64Z" fill="#E0AA63"/>
<path d="M79.2128 198.655C87.7915 198.655 94.7459 196.453 94.7459 193.737C94.7459 191.02 87.7915 188.818 79.2128 188.818C70.6341 188.818 63.6797 191.02 63.6797 193.737C63.6797 196.453 70.6341 198.655 79.2128 198.655Z" fill="#EFBC73"/>
<path d="M81.0496 198.773C76.8889 198.773 72.975 198.26 70.03 197.327C67.0438 196.383 65.3984 195.106 65.3984 193.737C65.3984 192.368 67.0438 191.092 70.03 190.146C72.9809 189.214 76.8889 188.7 81.0496 188.7C85.2102 188.7 89.123 189.214 92.0679 190.146C95.0554 191.091 96.7007 192.368 96.7007 193.737C96.7007 195.106 95.0554 196.382 92.0679 197.327C89.123 198.26 85.2102 198.773 81.0496 198.773ZM81.0496 188.936C76.9184 188.936 73.0234 189.446 70.102 190.372C67.2622 191.27 65.6345 192.496 65.6345 193.737C65.6345 194.977 67.2622 196.204 70.102 197.102C73.0245 198.027 76.9125 198.537 81.0496 198.537C85.1866 198.537 89.0758 198.027 91.9971 197.102C94.8299 196.204 96.4647 194.977 96.4647 193.737C96.4647 192.496 94.8358 191.27 91.9971 190.372C89.0746 189.446 85.1866 188.936 81.0496 188.936Z" fill="white"/>
<path d="M50.1894 213.559C58.7681 213.559 65.7225 211.357 65.7225 208.641C65.7225 205.924 58.7681 203.722 50.1894 203.722C41.6107 203.722 34.6562 205.924 34.6562 208.641C34.6562 211.357 41.6107 213.559 50.1894 213.559Z" fill="#E0AA63"/>
<path d="M65.7225 203.741H34.6562V208.808H65.7225V203.741Z" fill="#E0AA63"/>
<path d="M50.1894 208.755C58.7681 208.755 65.7225 206.553 65.7225 203.837C65.7225 201.121 58.7681 198.918 50.1894 198.918C41.6107 198.918 34.6562 201.121 34.6562 203.837C34.6562 206.553 41.6107 208.755 50.1894 208.755Z" fill="#EFBC73"/>
<path d="M52.0183 208.873C47.8577 208.873 43.9437 208.36 40.9988 207.427C38.0126 206.483 36.3672 205.206 36.3672 203.837C36.3672 202.468 38.0126 201.193 40.9988 200.246C43.9437 199.314 47.8577 198.8 52.0183 198.8C56.179 198.8 60.0918 199.314 63.0379 200.246C66.0241 201.191 67.6695 202.468 67.6695 203.837C67.6695 205.206 66.0241 206.482 63.0379 207.427C60.0918 208.36 56.179 208.873 52.0183 208.873ZM52.0183 199.037C47.8813 199.037 43.9921 199.546 41.0708 200.472C38.2309 201.371 36.6033 202.596 36.6033 203.837C36.6033 205.077 38.2309 206.304 41.0708 207.202C43.9933 208.127 47.8813 208.637 52.0183 208.637C56.1554 208.637 60.0446 208.127 62.9659 207.202C65.7987 206.304 67.4334 205.077 67.4334 203.837C67.4334 202.596 65.8046 201.371 62.9659 200.472C60.0434 199.546 56.1554 199.037 52.0183 199.037Z" fill="white"/>
<path d="M53.3925 205.513C61.9712 205.513 68.9256 203.317 68.9256 200.608C68.9256 197.898 61.9712 195.702 53.3925 195.702C44.8138 195.702 37.8594 197.898 37.8594 200.608C37.8594 203.317 44.8138 205.513 53.3925 205.513Z" fill="#E0AA63"/>
<path d="M68.9256 195.722H37.8594V200.775H68.9256V195.722Z" fill="#E0AA63"/>
<path d="M53.3925 200.723C61.9712 200.723 68.9256 198.527 68.9256 195.818C68.9256 193.109 61.9712 190.912 53.3925 190.912C44.8138 190.912 37.8594 193.109 37.8594 195.818C37.8594 198.527 44.8138 200.723 53.3925 200.723Z" fill="#EFBC73"/>
<path d="M55.2215 200.841C51.0608 200.841 47.148 200.329 44.2019 199.399C41.2157 198.455 39.5703 197.183 39.5703 195.818C39.5703 194.452 41.2157 193.18 44.2019 192.237C47.1527 191.307 51.0608 190.794 55.2215 190.794C59.3821 190.794 63.2961 191.307 66.241 192.237C69.2272 193.181 70.8726 194.452 70.8726 195.818C70.8726 197.183 69.2272 198.456 66.241 199.399C63.2949 200.329 59.3821 200.841 55.2215 200.841ZM55.2215 191.03C51.0844 191.03 47.1952 191.539 44.2739 192.462C41.4352 193.358 39.8064 194.587 39.8064 195.818C39.8064 197.049 41.4352 198.276 44.2739 199.173C47.1964 200.096 51.0844 200.605 55.2215 200.605C59.3585 200.605 63.2477 200.096 66.169 199.173C69.0018 198.276 70.6365 197.049 70.6365 195.818C70.6365 194.587 69.0077 193.358 66.169 192.462C63.2465 191.539 59.3585 191.03 55.2215 191.03Z" fill="white"/>
<path d="M82.2675 195.453C90.8462 195.453 97.8006 193.251 97.8006 190.535C97.8006 187.818 90.8462 185.616 82.2675 185.616C73.6888 185.616 66.7344 187.818 66.7344 190.535C66.7344 193.251 73.6888 195.453 82.2675 195.453Z" fill="#E0AA63"/>
<path d="M97.8006 185.635H66.7344V190.702H97.8006V185.635Z" fill="#E0AA63"/>
<path d="M82.2675 190.649C90.8462 190.649 97.8006 188.447 97.8006 185.731C97.8006 183.014 90.8462 180.812 82.2675 180.812C73.6888 180.812 66.7344 183.014 66.7344 185.731C66.7344 188.447 73.6888 190.649 82.2675 190.649Z" fill="#EFBC73"/>
<path d="M84.1031 190.767C79.9424 190.767 76.0296 190.254 73.0847 189.321C70.0973 188.377 68.4531 187.1 68.4531 185.731C68.4531 184.361 70.0973 183.087 73.0847 182.14C76.0355 181.208 79.9424 180.694 84.1031 180.694C88.2638 180.694 92.1777 181.208 95.1226 182.14C98.11 183.084 99.7542 184.361 99.7542 185.731C99.7542 187.1 98.11 188.376 95.1226 189.321C92.1777 190.254 88.2649 190.767 84.1031 190.767ZM84.1031 180.93C79.9719 180.93 76.0769 181.44 73.1556 182.366C70.3228 183.265 68.6892 184.49 68.6892 185.731C68.6892 186.971 70.3169 188.198 73.1556 189.096C76.078 190.021 79.966 190.531 84.1031 190.531C88.2401 190.531 92.1293 190.021 95.0518 189.096C97.8846 188.198 99.5182 186.971 99.5182 185.731C99.5182 184.49 97.8905 183.265 95.0518 182.366C92.1293 181.437 88.2413 180.93 84.1031 180.93Z" fill="white"/>
<path d="M78.9628 188.333C87.5415 188.333 94.4959 186.131 94.4959 183.415C94.4959 180.699 87.5415 178.496 78.9628 178.496C70.3841 178.496 63.4297 180.699 63.4297 183.415C63.4297 186.131 70.3841 188.333 78.9628 188.333Z" fill="#E0AA63"/>
<path d="M94.4959 178.515H63.4297V183.582H94.4959V178.515Z" fill="#E0AA63"/>
<path d="M78.9628 183.529C87.5415 183.529 94.4959 181.327 94.4959 178.611C94.4959 175.895 87.5415 173.693 78.9628 173.693C70.3841 173.693 63.4297 175.895 63.4297 178.611C63.4297 181.327 70.3841 183.529 78.9628 183.529Z" fill="#EFBC73"/>
<path d="M80.7918 183.647C76.6311 183.647 72.7171 183.134 69.7722 182.201C66.7848 181.257 65.1406 179.98 65.1406 178.611C65.1406 177.242 66.7848 175.967 69.7722 175.02C72.7231 174.088 76.6311 173.574 80.7918 173.574C84.9524 173.574 88.8652 174.088 91.8101 175.02C94.7975 175.965 96.4429 177.242 96.4429 178.611C96.4429 179.98 94.7975 181.256 91.8101 182.201C88.8652 183.134 84.9524 183.647 80.7918 183.647ZM80.7918 173.811C76.6535 173.811 72.7655 174.32 69.843 175.246C67.0044 176.145 65.3767 177.37 65.3767 178.611C65.3767 179.851 67.0044 181.078 69.843 181.976C72.7655 182.901 76.6535 183.411 80.7918 183.411C84.93 183.411 88.818 182.901 91.7393 181.976C94.5721 181.078 96.2069 179.851 96.2069 178.611C96.2069 177.37 94.578 176.145 91.7393 175.246C88.8168 174.32 84.9288 173.811 80.7918 173.811Z" fill="white"/>
<path d="M54.7717 197.403C56.7015 195.491 53.3716 189.001 47.3342 182.906C41.2968 176.812 34.8381 173.421 32.9083 175.333C30.9785 177.244 34.3084 183.735 40.3458 189.829C46.3832 195.924 52.8419 199.315 54.7717 197.403Z" fill="#E0AA63"/>
<path d="M58.2462 193.957L36.3828 171.887L32.7829 175.453L54.6463 197.524L58.2462 193.957Z" fill="#E0AA63"/>
<path d="M58.1779 194.024C60.1077 192.112 56.7778 185.621 50.7404 179.527C44.703 173.432 38.2443 170.041 36.3145 171.953C34.3847 173.865 37.7146 180.355 43.752 186.45C49.7894 192.544 56.2481 195.935 58.1779 194.024Z" fill="#EFBC73"/>
<path d="M57.9181 195.975C56.8429 195.975 55.4217 195.527 53.7386 194.643C51.0038 193.208 47.8842 190.79 44.957 187.833C42.0297 184.876 39.6384 181.735 38.2291 178.987C36.7985 176.2 36.5471 174.134 37.5209 173.17C38.4947 172.205 40.5579 172.477 43.3316 173.933C46.0665 175.37 49.1861 177.788 52.1133 180.744C55.0405 183.699 57.4318 186.841 58.8411 189.59C60.2717 192.378 60.5231 194.444 59.5493 195.408C59.1669 195.787 58.6145 195.975 57.9181 195.975ZM39.1509 172.84C38.5183 172.84 38.0225 173.003 37.6885 173.334C36.808 174.206 37.0818 176.227 38.4415 178.875C39.8402 181.603 42.2186 184.724 45.1269 187.664C48.0352 190.604 51.136 193.006 53.8507 194.431C56.4876 195.815 58.5048 196.109 59.3853 195.237C60.2658 194.365 59.992 192.344 58.6322 189.689C57.2335 186.962 54.8552 183.841 51.9468 180.902C49.0385 177.963 45.9378 175.56 43.223 174.134C41.5824 173.283 40.1837 172.844 39.1486 172.844L39.1509 172.84Z" fill="white"/>
<path d="M82.3066 180.148C90.8853 180.148 97.8397 177.946 97.8397 175.229C97.8397 172.513 90.8853 170.311 82.3066 170.311C73.7279 170.311 66.7734 172.513 66.7734 175.229C66.7734 177.946 73.7279 180.148 82.3066 180.148Z" fill="#E0AA63"/>
<path d="M97.8397 170.33H66.7734V175.397H97.8397V170.33Z" fill="#E0AA63"/>
<path d="M82.3066 175.345C90.8853 175.345 97.8397 173.143 97.8397 170.427C97.8397 167.71 90.8853 165.508 82.3066 165.508C73.7279 165.508 66.7734 167.71 66.7734 170.427C66.7734 173.143 73.7279 175.345 82.3066 175.345Z" fill="#EFBC73"/>
<path d="M84.1355 175.463C79.9749 175.463 76.0609 174.948 73.116 174.016C70.1298 173.072 68.4844 171.796 68.4844 170.425C68.4844 169.055 70.1298 167.781 73.116 166.836C76.0609 165.904 79.9749 165.389 84.1355 165.389C88.2962 165.389 92.2102 165.904 95.1551 166.836C98.1413 167.78 99.7867 169.056 99.7867 170.425C99.7867 171.795 98.1413 173.07 95.1551 174.016C92.2102 174.945 88.2962 175.463 84.1355 175.463ZM84.1355 165.625C80.0044 165.625 76.1093 166.135 73.188 167.06C70.3481 167.96 68.7204 169.185 68.7204 170.425C68.7204 171.666 70.3481 172.892 73.188 173.792C76.1105 174.717 79.9985 175.227 84.1355 175.227C88.2726 175.227 92.1617 174.717 95.0831 173.792C97.9158 172.892 99.5506 171.667 99.5506 170.425C99.5506 169.184 97.9217 167.96 95.0831 167.06C92.1606 166.135 88.2726 165.62 84.1355 165.62V165.625Z" fill="white"/>
<path d="M87.3378 173.028C95.9165 173.028 102.871 170.826 102.871 168.11C102.871 165.393 95.9165 163.191 87.3378 163.191C78.7591 163.191 71.8047 165.393 71.8047 168.11C71.8047 170.826 78.7591 173.028 87.3378 173.028Z" fill="#E0AA63"/>
<path d="M102.871 163.21H71.8047V168.277H102.871V163.21Z" fill="#E0AA63"/>
<path d="M87.3378 168.224C95.9165 168.224 102.871 166.022 102.871 163.306C102.871 160.589 95.9165 158.387 87.3378 158.387C78.7591 158.387 71.8047 160.589 71.8047 163.306C71.8047 166.022 78.7591 168.224 87.3378 168.224Z" fill="#EFBC73"/>
<path d="M89.1656 168.342C85.0049 168.342 81.0921 167.829 78.1472 166.896C75.1598 165.952 73.5156 164.676 73.5156 163.306C73.5156 161.935 75.1598 160.663 78.1472 159.719C81.0921 158.786 85.0049 158.272 89.1656 158.272C93.3262 158.272 97.2402 158.786 100.185 159.719C103.173 160.663 104.817 161.939 104.817 163.308C104.817 164.677 103.173 165.953 100.185 166.899C97.2402 167.829 93.3274 168.342 89.1656 168.342ZM89.1656 158.505C85.0344 158.505 81.1394 159.015 78.2181 159.941C75.3794 160.84 73.7517 162.065 73.7517 163.306C73.7517 164.546 75.3794 165.773 78.2181 166.672C81.1405 167.597 85.0285 168.106 89.1656 168.106C93.3026 168.106 97.1918 167.597 100.114 166.672C102.947 165.773 104.581 164.547 104.581 163.306C104.581 162.064 102.953 160.84 100.114 159.941C97.1918 159.01 93.3038 158.505 89.1656 158.505Z" fill="white"/>
</g>
<defs>
<clipPath id="clip0_7027_26212">
<rect width="216" height="216" fill="white" transform="translate(0 0.964508)"/>
</clipPath>
</defs>
</svg>
