<svg width="32" height="33" viewBox="0 0 32 33" fill="none" xmlns="http://www.w3.org/2000/svg">
<g id="vuesax/outline/frame">
<g id="frame">
<path id="Vector" d="M16.2115 15.9934C16.1715 15.9934 16.1448 15.9934 16.1048 15.9934C16.0381 15.98 15.9448 15.98 15.8648 15.9934C11.9981 15.8734 9.07812 12.8334 9.07812 9.08669C9.07812 5.27335 12.1848 2.16669 15.9981 2.16669C19.8115 2.16669 22.9181 5.27335 22.9181 9.08669C22.9048 12.8334 19.9715 15.8734 16.2515 15.9934C16.2381 15.9934 16.2248 15.9934 16.2115 15.9934ZM15.9981 4.16669C13.2915 4.16669 11.0781 6.38002 11.0781 9.08669C11.0781 11.7534 13.1581 13.9 15.8115 13.9934C15.8781 13.98 16.0648 13.98 16.2381 13.9934C18.8515 13.8734 20.9048 11.7267 20.9181 9.08669C20.9181 6.38002 18.7048 4.16669 15.9981 4.16669Z" fill="#4B0082"/>
<path id="Vector_2" d="M16.2261 30.5666C13.6128 30.5666 10.9861 29.9 8.99948 28.5666C7.14615 27.34 6.13281 25.66 6.13281 23.8333C6.13281 22.0066 7.14615 20.3133 8.99948 19.0733C12.9995 16.42 19.4795 16.42 23.4528 19.0733C25.2928 20.3 26.3195 21.98 26.3195 23.8066C26.3195 25.6333 25.3061 27.3266 23.4528 28.5666C21.4528 29.9 18.8395 30.5666 16.2261 30.5666ZM10.1061 20.7533C8.82615 21.6066 8.13281 22.7 8.13281 23.8466C8.13281 24.98 8.83948 26.0733 10.1061 26.9133C13.4261 29.14 19.0261 29.14 22.3461 26.9133C23.6261 26.06 24.3195 24.9666 24.3195 23.82C24.3195 22.6866 23.6128 21.5933 22.3461 20.7533C19.0261 18.54 13.4261 18.54 10.1061 20.7533Z" fill="#4B0082"/>
</g>
</g>
</svg>
