<svg width="48" height="48" viewBox="0 0 48 48" fill="none" xmlns="http://www.w3.org/2000/svg">
<rect width="48" height="48" rx="24" fill="#F0EBF4"/>
<path d="M22.4901 14.23L17.5002 16.1C16.3502 16.53 15.4102 17.89 15.4102 19.12V26.55C15.4102 27.73 16.1902 29.28 17.1402 29.99L21.4402 33.2C22.8502 34.26 25.1701 34.26 26.5801 33.2L30.8802 29.99C31.8302 29.28 32.6101 27.73 32.6101 26.55V19.12C32.6101 17.89 31.6701 16.53 30.5201 16.1L25.5302 14.23C24.6802 13.92 23.3201 13.92 22.4901 14.23Z" stroke="#4B0082" stroke-width="1.5" stroke-linecap="round" stroke-linejoin="round"/>
<path d="M23.9997 22.92C23.9597 22.92 23.9097 22.92 23.8697 22.92C22.9297 22.89 22.1797 22.11 22.1797 21.16C22.1797 20.19 22.9697 19.4 23.9397 19.4C24.9097 19.4 25.6997 20.19 25.6997 21.16C25.6897 22.12 24.9397 22.89 23.9997 22.92Z" stroke="#4B0082" stroke-width="1.5" stroke-linecap="round" stroke-linejoin="round"/>
<path d="M22.0091 25.72C21.0491 26.36 21.0491 27.41 22.0091 28.05C23.0991 28.78 24.8891 28.78 25.9791 28.05C26.9391 27.41 26.9391 26.36 25.9791 25.72C24.8991 24.99 23.1091 24.99 22.0091 25.72Z" stroke="#4B0082" stroke-width="1.5" stroke-linecap="round" stroke-linejoin="round"/>
</svg>
