<svg width="24" height="25" viewBox="0 0 24 25" fill="none" xmlns="http://www.w3.org/2000/svg">
<g id="vuesax/linear/headphone">
<g id="headphone">
<path id="Vector" d="M5.45809 18.99V16.07C5.45809 15.1 6.21809 14.23 7.29809 14.23C8.26809 14.23 9.13809 14.99 9.13809 16.07V18.88C9.13809 20.83 7.51809 22.45 5.56809 22.45C3.61809 22.45 1.99809 20.82 1.99809 18.88V12.72C1.88809 7.09999 6.32809 2.54999 11.9481 2.54999C17.5681 2.54999 21.9981 7.09999 21.9981 12.61V18.77C21.9981 20.72 20.3781 22.34 18.4281 22.34C16.4781 22.34 14.8581 20.72 14.8581 18.77V15.96C14.8581 14.99 15.6181 14.12 16.6981 14.12C17.6681 14.12 18.5381 14.88 18.5381 15.96V18.99" stroke="#4B0082" stroke-width="1.5" stroke-linecap="round" stroke-linejoin="round"/>
</g>
</g>
</svg>
