<svg width="24" height="25" viewBox="0 0 24 25" fill="none" xmlns="http://www.w3.org/2000/svg">
<path d="M19.7887 15.43C17.7287 17.48 14.7787 18.11 12.1887 17.3L7.47868 22C7.13868 22.35 6.46868 22.56 5.98868 22.49L3.80868 22.19C3.08868 22.09 2.41868 21.41 2.30868 20.69L2.00868 18.51C1.93868 18.03 2.16868 17.36 2.49868 17.02L7.19868 12.32C6.39868 9.72001 7.01868 6.77001 9.07868 4.72001C12.0287 1.77001 16.8187 1.77001 19.7787 4.72001C22.7387 7.67001 22.7387 12.48 19.7887 15.43Z" stroke="#4B0082" stroke-width="1.5" stroke-miterlimit="10" stroke-linecap="round" stroke-linejoin="round"/>
<path d="M6.89062 17.99L9.19062 20.29" stroke="#4B0082" stroke-width="1.5" stroke-miterlimit="10" stroke-linecap="round" stroke-linejoin="round"/>
<path d="M14.5 11.5C15.3284 11.5 16 10.8284 16 10C16 9.17157 15.3284 8.5 14.5 8.5C13.6716 8.5 13 9.17157 13 10C13 10.8284 13.6716 11.5 14.5 11.5Z" stroke="#4B0082" stroke-width="1.5" stroke-linecap="round" stroke-linejoin="round"/>
</svg>
