<svg width="600" height="1024" viewBox="0 0 600 1024" fill="none" xmlns="http://www.w3.org/2000/svg">
<g clipPath="url(#clip0_1477_20218)">
<rect width="265.282" height="265.282" transform="matrix(1 0 0 -1 457.41 1025.77)" fill="#4B0082"/>
<rect width="265.282" height="265.282" transform="matrix(-1 0 0 1 457.41 760.492)" fill="#F4F4F4"/>
<rect x="192.129" y="1025.77" width="265.282" height="265.282" transform="rotate(180 192.129 1025.77)" fill="#4B0082"/>
<path d="M192.13 1025.77C192.13 990.937 185.268 956.44 171.937 924.255C158.605 892.069 139.064 862.825 114.431 838.191C89.7968 813.557 60.5523 794.017 28.3668 780.685C-3.81873 767.353 -38.315 760.492 -73.1523 760.492L-73.1523 1025.77H192.13Z" fill="#F4F4F4"/>
<rect width="265.282" height="265.282" transform="matrix(1 0 0 -1 457.414 760.492)" fill="#00BFA3"/>
<path d="M722.696 760.492C722.696 725.654 715.835 691.158 702.503 658.973C689.171 626.787 669.631 597.542 644.997 572.909C620.363 548.275 591.119 528.734 558.933 515.403C526.748 502.071 492.251 495.209 457.414 495.209L457.414 760.492H722.696Z" fill="#4B0082"/>
<rect width="265.282" height="265.282" transform="matrix(-1 0 0 1 457.41 495.209)" fill="#4B0082"/>
<path d="M192.128 760.492C192.128 725.654 198.99 691.158 212.321 658.973C225.653 626.787 245.193 597.542 269.827 572.909C294.461 548.275 323.705 528.734 355.891 515.403C388.077 502.071 422.573 495.209 457.41 495.209L457.41 760.492H192.128Z" fill="#F4F4F4"/>
<rect x="192.129" y="760.492" width="265.282" height="265.282" transform="rotate(180 192.129 760.492)" fill="#4B0082"/>
<rect x="192.129" y="627.85" width="265.282" height="132.641" transform="rotate(180 192.129 627.85)" fill="#00BFA3"/>
<path d="M59.4888 760.492C-13.7669 760.492 -73.1523 701.106 -73.1523 627.85H192.13C192.13 701.106 132.744 760.492 59.4888 760.492Z" fill="#00BFA3"/>
<rect width="265.282" height="265.282" transform="matrix(1 0 0 -1 457.414 495.209)" fill="#00BFA3"/>
<path d="M722.696 229.927C722.696 264.764 715.835 299.261 702.503 331.446C689.171 363.632 669.631 392.876 644.997 417.51C620.363 442.144 591.119 461.684 558.933 475.016C526.748 488.348 492.251 495.209 457.414 495.209L457.414 229.927L722.696 229.927Z" fill="#4B0082"/>
<rect width="265.282" height="265.282" transform="matrix(-1 0 0 1 457.41 229.927)" fill="#4B0082"/>
<rect x="192.129" y="495.209" width="265.282" height="265.282" transform="rotate(180 192.129 495.209)" fill="#00BFA3"/>
<rect width="265.282" height="265.282" transform="matrix(1 0 0 -1 457.41 229.927)" fill="#4B0082"/>
<rect width="265.282" height="265.282" transform="matrix(-1 0 0 1 457.41 -35.3552)" fill="#4B0082"/>
<rect width="265.282" height="132.641" transform="matrix(-1 0 0 1 457.41 -35.3552)" fill="#F4F4F4"/>
<path d="M324.769 229.927C398.025 229.927 457.41 170.542 457.41 97.2859L192.128 97.2859C192.128 170.542 251.513 229.927 324.769 229.927Z" fill="#F4F4F4"/>
<rect x="192.129" y="229.927" width="265.282" height="265.282" transform="rotate(180 192.129 229.927)" fill="#F4F4F4"/>
<rect x="192.129" y="229.927" width="265.282" height="132.641" transform="rotate(180 192.129 229.927)" fill="#00BFA3"/>
<path d="M59.4888 -35.3552C-13.7669 -35.3552 -73.1523 24.0302 -73.1523 97.2859L192.13 97.2859C192.13 24.0302 132.744 -35.3552 59.4888 -35.3552Z" fill="#00BFA3"/>
<path d="M966.006 514.736L798.758 1038.7C735.503 1236.85 646.644 1389.13 543.582 1475.99L270.945 1705.79" stroke="url(#paint0_linear_1477_20218)" stroke-width="1.03995" stroke-miterlimit="10" stroke-linecap="round"/>
<path d="M954.123 481.508L786.875 1005.47C723.62 1203.63 634.761 1355.9 531.699 1442.76L259.062 1672.56" stroke="url(#paint1_linear_1477_20218)" stroke-width="1.03995" stroke-miterlimit="10" stroke-linecap="round"/>
<path d="M942.24 448.301L774.992 972.264C711.737 1170.42 622.878 1322.69 519.816 1409.55L247.179 1639.35" stroke="url(#paint2_linear_1477_20218)" stroke-width="1.03995" stroke-miterlimit="10" stroke-linecap="round"/>
<path d="M930.357 415.068L763.109 939.031C699.854 1137.19 610.995 1289.46 507.933 1376.32L235.296 1606.12" stroke="url(#paint3_linear_1477_20218)" stroke-width="1.03995" stroke-miterlimit="10" stroke-linecap="round"/>
<path d="M919.134 383.664L751.887 907.627C688.632 1105.78 599.772 1258.06 496.711 1344.92L224.087 1574.75" stroke="url(#paint4_linear_1477_20218)" stroke-width="1.03995" stroke-miterlimit="10" stroke-linecap="round"/>
<path d="M907.252 350.476L740.004 874.439C676.749 1072.59 587.89 1224.87 484.828 1311.73L212.204 1541.56" stroke="url(#paint5_linear_1477_20218)" stroke-width="1.03995" stroke-miterlimit="10" stroke-linecap="round"/>
<path d="M895.369 317.235L728.121 841.198C664.866 1039.35 576.007 1191.63 472.945 1278.49L200.321 1508.32" stroke="url(#paint6_linear_1477_20218)" stroke-width="1.03995" stroke-miterlimit="10" stroke-linecap="round"/>
<path d="M883.486 284.025L716.238 807.988C652.983 1006.14 564.124 1158.42 461.062 1245.28L188.438 1475.11" stroke="url(#paint7_linear_1477_20218)" stroke-width="1.03995" stroke-miterlimit="10" stroke-linecap="round"/>
<path d="M872.263 252.64L705.016 776.603C641.761 974.757 552.901 1127.03 449.84 1213.89L177.216 1443.73" stroke="url(#paint8_linear_1477_20218)" stroke-width="1.03995" stroke-miterlimit="10" stroke-linecap="round"/>
<path d="M860.384 219.44L693.137 743.403C629.882 941.558 541.022 1093.83 437.961 1180.69L165.337 1410.53" stroke="url(#paint9_linear_1477_20218)" stroke-width="1.03995" stroke-miterlimit="10" stroke-linecap="round"/>
<path d="M848.498 186.209L681.25 710.172C617.995 908.326 529.136 1060.6 426.074 1147.46L153.45 1377.3" stroke="url(#paint10_linear_1477_20218)" stroke-width="1.03995" stroke-miterlimit="10" stroke-linecap="round"/>
<path d="M836.619 152.98L669.371 676.943C606.116 875.097 517.257 1027.37 414.195 1114.23L141.571 1344.07" stroke="url(#paint11_linear_1477_20218)" stroke-width="1.03995" stroke-miterlimit="10" stroke-linecap="round"/>
<path d="M825.396 121.628L658.148 645.591C594.893 843.746 506.034 996.022 402.972 1082.88L130.348 1312.72" stroke="url(#paint12_linear_1477_20218)" stroke-width="1.03995" stroke-miterlimit="10" stroke-linecap="round"/>
<path d="M813.513 88.3917L646.266 612.355C583.011 810.509 494.151 962.785 391.09 1049.64L118.466 1279.48" stroke="url(#paint13_linear_1477_20218)" stroke-width="1.03995" stroke-miterlimit="10" stroke-linecap="round"/>
<path d="M801.631 55.1563L634.383 579.119C571.128 777.274 482.269 929.55 379.207 1016.41L106.583 1246.24" stroke="url(#paint14_linear_1477_20218)" stroke-width="1.03995" stroke-miterlimit="10" stroke-linecap="round"/>
<path d="M789.748 21.9349L622.5 545.898C559.245 744.052 470.386 896.328 367.324 983.187L94.6867 1212.99" stroke="url(#paint15_linear_1477_20218)" stroke-width="1.03995" stroke-miterlimit="10" stroke-linecap="round"/>
<path d="M777.865 -11.3094L610.617 512.654C547.362 710.808 458.503 863.084 355.441 949.943L82.8039 1179.74" stroke="url(#paint16_linear_1477_20218)" stroke-width="1.03995" stroke-miterlimit="10" stroke-linecap="round"/>
<path d="M765.982 -44.5372L598.734 479.426C535.479 677.58 446.62 829.856 343.558 916.715L70.9211 1146.51" stroke="url(#paint17_linear_1477_20218)" stroke-width="1.03995" stroke-miterlimit="10" stroke-linecap="round"/>
<path d="M754.099 -77.7235L586.852 446.239C523.597 644.394 434.737 796.67 331.676 883.529L59.0383 1113.33" stroke="url(#paint18_linear_1477_20218)" stroke-width="1.03995" stroke-miterlimit="10" stroke-linecap="round"/>
<path d="M742.217 -110.955L574.969 413.008C511.714 611.163 422.854 763.439 319.793 850.297L47.1555 1080.1" stroke="url(#paint19_linear_1477_20218)" stroke-width="1.03995" stroke-miterlimit="10" stroke-linecap="round"/>
<path d="M730.994 -142.358L563.746 381.605C500.491 579.759 411.632 732.036 308.57 818.894L35.9328 1048.69" stroke="url(#paint20_linear_1477_20218)" stroke-width="1.03995" stroke-miterlimit="10" stroke-linecap="round"/>
<path d="M719.111 -175.54L551.863 348.423C488.608 546.578 399.749 698.854 296.687 785.712L24.05 1015.51" stroke="url(#paint21_linear_1477_20218)" stroke-width="1.03995" stroke-miterlimit="10" stroke-linecap="round"/>
<path d="M707.228 -208.776L539.98 315.187C476.725 513.341 387.866 665.617 284.805 752.476L12.1672 982.274" stroke="url(#paint22_linear_1477_20218)" stroke-width="1.03995" stroke-miterlimit="10" stroke-linecap="round"/>
<path d="M695.345 -241.994L528.098 281.969C464.843 480.123 375.983 632.399 272.922 719.258L0.284404 949.056" stroke="url(#paint23_linear_1477_20218)" stroke-width="1.03995" stroke-miterlimit="10" stroke-linecap="round"/>
<path d="M684.123 -273.402L516.875 250.561C453.62 448.715 364.761 600.991 261.699 687.85L-10.9382 917.649" stroke="url(#paint24_linear_1477_20218)" stroke-width="1.03995" stroke-miterlimit="10" stroke-linecap="round"/>
<path d="M672.24 -306.57L504.992 217.393C441.737 415.548 352.878 567.824 249.816 654.682L-22.8211 884.481" stroke="url(#paint25_linear_1477_20218)" stroke-width="1.03995" stroke-miterlimit="10" stroke-linecap="round"/>
<path d="M660.357 -339.82L493.109 184.143C429.854 382.297 340.995 534.573 237.933 621.432L-34.7039 851.23" stroke="url(#paint26_linear_1477_20218)" stroke-width="1.03995" stroke-miterlimit="10" stroke-linecap="round"/>
<path d="M648.478 -373.016L481.23 150.947C417.975 349.102 329.116 501.378 226.055 588.236L-46.5828 818.035" stroke="url(#paint27_linear_1477_20218)" stroke-width="1.03995" stroke-miterlimit="10" stroke-linecap="round"/>
<path d="M637.256 -404.397L470.008 119.566C406.753 317.72 317.894 469.996 214.832 556.855L-57.8054 786.654" stroke="url(#paint28_linear_1477_20218)" stroke-width="1.03995" stroke-miterlimit="10" stroke-linecap="round"/>
<path d="M625.373 -437.642L458.125 86.3206C394.87 284.475 306.011 436.751 202.949 523.61L-69.6883 753.408" stroke="url(#paint29_linear_1477_20218)" stroke-width="1.03995" stroke-miterlimit="10" stroke-linecap="round"/>
<path d="M613.49 -470.861L446.242 53.1016C382.987 251.256 294.128 403.532 191.066 490.391L-81.5711 720.189" stroke="url(#paint30_linear_1477_20218)" stroke-width="1.03995" stroke-miterlimit="10" stroke-linecap="round"/>
<path d="M601.607 -504.149L434.359 19.8136C371.104 217.968 282.245 370.244 179.183 457.103L-93.4539 686.901" stroke="url(#paint31_linear_1477_20218)" stroke-width="1.03995" stroke-miterlimit="10" stroke-linecap="round"/>
<path d="M592.549 -533.212L425.301 -9.24944C362.046 188.905 273.186 341.181 170.125 428.04L-102.512 657.838" stroke="url(#paint32_linear_1477_20218)" stroke-width="1.03995" stroke-miterlimit="10" stroke-linecap="round"/>
<path d="M580.666 -566.503L413.418 -42.5397C350.163 155.615 261.304 307.891 158.242 394.749L-114.395 624.548" stroke="url(#paint33_linear_1477_20218)" stroke-width="1.03995" stroke-miterlimit="10" stroke-linecap="round"/>
<path d="M568.783 -599.683L401.535 -75.7197C338.28 122.435 249.421 274.711 146.359 361.569L-126.278 591.368" stroke="url(#paint34_linear_1477_20218)" stroke-width="1.03995" stroke-miterlimit="10" stroke-linecap="round"/>
<path d="M556.9 -632.905L389.652 -108.942C326.397 89.2125 237.538 241.489 134.476 328.347L-138.161 558.146" stroke="url(#paint35_linear_1477_20218)" stroke-width="1.03995" stroke-miterlimit="10" stroke-linecap="round"/>
<path d="M545.677 -664.26L378.43 -140.297C315.175 57.8572 226.315 210.133 123.254 296.992L-149.384 526.791" stroke="url(#paint36_linear_1477_20218)" stroke-width="1.03995" stroke-miterlimit="10" stroke-linecap="round"/>
<path d="M533.795 -697.504L366.547 -173.541C303.292 24.6131 214.433 176.889 111.371 263.748L-161.266 493.546" stroke="url(#paint37_linear_1477_20218)" stroke-width="1.03995" stroke-miterlimit="10" stroke-linecap="round"/>
<path d="M521.912 -730.73L354.664 -206.767C291.409 -8.6125 202.55 143.664 99.4881 230.522L-173.149 460.321" stroke="url(#paint38_linear_1477_20218)" stroke-width="1.03995" stroke-miterlimit="10" stroke-linecap="round"/>
<path d="M510.029 -763.952L342.781 -239.989C279.526 -41.8352 190.667 110.441 87.6053 197.3L-185.032 427.098" stroke="url(#paint39_linear_1477_20218)" stroke-width="1.03995" stroke-miterlimit="10" stroke-linecap="round"/>
<path d="M498.806 -795.284L331.559 -271.321C268.304 -73.1669 179.444 79.1092 76.3826 165.968L-196.255 395.766" stroke="url(#paint40_linear_1477_20218)" stroke-width="1.03995" stroke-miterlimit="10" stroke-linecap="round"/>
<path d="M486.924 -828.55L319.676 -304.587C256.421 -106.432 167.561 45.8438 64.4998 132.702L-208.137 362.501" stroke="url(#paint41_linear_1477_20218)" stroke-width="1.03995" stroke-miterlimit="10" stroke-linecap="round"/>
<path d="M475.041 -861.772L307.793 -337.809C244.538 -139.654 155.679 12.6216 52.617 99.4803L-220.02 329.279" stroke="url(#paint42_linear_1477_20218)" stroke-width="1.03995" stroke-miterlimit="10" stroke-linecap="round"/>
<path d="M463.158 -894.964L295.91 -371.001C232.655 -172.846 143.796 -20.5703 40.7342 66.2884L-231.903 296.087" stroke="url(#paint43_linear_1477_20218)" stroke-width="1.03995" stroke-miterlimit="10" stroke-linecap="round"/>
</g>
<defs>
<linearGradient id="paint0_linear_1477_20218" x1="686.042" y1="1299.17" x2="553.39" y2="1221.77" gradientUnits="userSpaceOnUse">
<stop stop-color="#64497D" stop-opacity="0.17"/>
<stop offset="1" stop-color="#FFC857" stop-opacity="0.43"/>
</linearGradient>
<linearGradient id="paint1_linear_1477_20218" x1="674.16" y1="1265.95" x2="541.508" y2="1188.54" gradientUnits="userSpaceOnUse">
<stop stop-color="#64497D" stop-opacity="0.17"/>
<stop offset="1" stop-color="#FFC857" stop-opacity="0.43"/>
</linearGradient>
<linearGradient id="paint2_linear_1477_20218" x1="662.277" y1="1232.74" x2="529.625" y2="1155.33" gradientUnits="userSpaceOnUse">
<stop stop-color="#64497D" stop-opacity="0.17"/>
<stop offset="1" stop-color="#FFC857" stop-opacity="0.43"/>
</linearGradient>
<linearGradient id="paint3_linear_1477_20218" x1="650.394" y1="1199.51" x2="517.742" y2="1122.1" gradientUnits="userSpaceOnUse">
<stop stop-color="#64497D" stop-opacity="0.17"/>
<stop offset="1" stop-color="#FFC857" stop-opacity="0.43"/>
</linearGradient>
<linearGradient id="paint4_linear_1477_20218" x1="639.171" y1="1168.1" x2="506.545" y2="1090.71" gradientUnits="userSpaceOnUse">
<stop stop-color="#64497D" stop-opacity="0.17"/>
<stop offset="1" stop-color="#FFC857" stop-opacity="0.43"/>
</linearGradient>
<linearGradient id="paint5_linear_1477_20218" x1="627.289" y1="1134.91" x2="494.662" y2="1057.52" gradientUnits="userSpaceOnUse">
<stop stop-color="#64497D" stop-opacity="0.17"/>
<stop offset="1" stop-color="#FFC857" stop-opacity="0.43"/>
</linearGradient>
<linearGradient id="paint6_linear_1477_20218" x1="615.406" y1="1101.67" x2="482.78" y2="1024.28" gradientUnits="userSpaceOnUse">
<stop stop-color="#64497D" stop-opacity="0.17"/>
<stop offset="1" stop-color="#FFC857" stop-opacity="0.43"/>
</linearGradient>
<linearGradient id="paint7_linear_1477_20218" x1="603.523" y1="1068.46" x2="470.897" y2="991.07" gradientUnits="userSpaceOnUse">
<stop stop-color="#64497D" stop-opacity="0.17"/>
<stop offset="1" stop-color="#FFC857" stop-opacity="0.43"/>
</linearGradient>
<linearGradient id="paint8_linear_1477_20218" x1="592.3" y1="1037.08" x2="459.674" y2="959.684" gradientUnits="userSpaceOnUse">
<stop stop-color="#64497D" stop-opacity="0.17"/>
<stop offset="1" stop-color="#FFC857" stop-opacity="0.43"/>
</linearGradient>
<linearGradient id="paint9_linear_1477_20218" x1="580.421" y1="1003.88" x2="447.795" y2="926.485" gradientUnits="userSpaceOnUse">
<stop stop-color="#64497D" stop-opacity="0.17"/>
<stop offset="1" stop-color="#FFC857" stop-opacity="0.43"/>
</linearGradient>
<linearGradient id="paint10_linear_1477_20218" x1="568.535" y1="970.647" x2="435.909" y2="893.254" gradientUnits="userSpaceOnUse">
<stop stop-color="#64497D" stop-opacity="0.17"/>
<stop offset="1" stop-color="#FFC857" stop-opacity="0.43"/>
</linearGradient>
<linearGradient id="paint11_linear_1477_20218" x1="556.656" y1="937.418" x2="424.03" y2="860.025" gradientUnits="userSpaceOnUse">
<stop stop-color="#64497D" stop-opacity="0.17"/>
<stop offset="1" stop-color="#FFC857" stop-opacity="0.43"/>
</linearGradient>
<linearGradient id="paint12_linear_1477_20218" x1="545.433" y1="906.066" x2="412.807" y2="828.673" gradientUnits="userSpaceOnUse">
<stop stop-color="#64497D" stop-opacity="0.17"/>
<stop offset="1" stop-color="#FFC857" stop-opacity="0.43"/>
</linearGradient>
<linearGradient id="paint13_linear_1477_20218" x1="533.55" y1="872.829" x2="400.924" y2="795.436" gradientUnits="userSpaceOnUse">
<stop stop-color="#64497D" stop-opacity="0.17"/>
<stop offset="1" stop-color="#FFC857" stop-opacity="0.43"/>
</linearGradient>
<linearGradient id="paint14_linear_1477_20218" x1="521.667" y1="839.594" x2="389.041" y2="762.201" gradientUnits="userSpaceOnUse">
<stop stop-color="#64497D" stop-opacity="0.17"/>
<stop offset="1" stop-color="#FFC857" stop-opacity="0.43"/>
</linearGradient>
<linearGradient id="paint15_linear_1477_20218" x1="509.785" y1="806.372" x2="377.133" y2="728.964" gradientUnits="userSpaceOnUse">
<stop stop-color="#64497D" stop-opacity="0.17"/>
<stop offset="1" stop-color="#FFC857" stop-opacity="0.43"/>
</linearGradient>
<linearGradient id="paint16_linear_1477_20218" x1="497.902" y1="773.128" x2="365.25" y2="695.72" gradientUnits="userSpaceOnUse">
<stop stop-color="#64497D" stop-opacity="0.17"/>
<stop offset="1" stop-color="#FFC857" stop-opacity="0.43"/>
</linearGradient>
<linearGradient id="paint17_linear_1477_20218" x1="486.019" y1="739.9" x2="353.367" y2="662.492" gradientUnits="userSpaceOnUse">
<stop stop-color="#64497D" stop-opacity="0.17"/>
<stop offset="1" stop-color="#FFC857" stop-opacity="0.43"/>
</linearGradient>
<linearGradient id="paint18_linear_1477_20218" x1="474.136" y1="706.714" x2="341.484" y2="629.306" gradientUnits="userSpaceOnUse">
<stop stop-color="#64497D" stop-opacity="0.17"/>
<stop offset="1" stop-color="#FFC857" stop-opacity="0.43"/>
</linearGradient>
<linearGradient id="paint19_linear_1477_20218" x1="462.253" y1="673.483" x2="329.601" y2="596.075" gradientUnits="userSpaceOnUse">
<stop stop-color="#64497D" stop-opacity="0.17"/>
<stop offset="1" stop-color="#FFC857" stop-opacity="0.43"/>
</linearGradient>
<linearGradient id="paint20_linear_1477_20218" x1="451.031" y1="642.079" x2="318.379" y2="564.672" gradientUnits="userSpaceOnUse">
<stop stop-color="#64497D" stop-opacity="0.17"/>
<stop offset="1" stop-color="#FFC857" stop-opacity="0.43"/>
</linearGradient>
<linearGradient id="paint21_linear_1477_20218" x1="439.148" y1="608.898" x2="306.496" y2="531.49" gradientUnits="userSpaceOnUse">
<stop stop-color="#64497D" stop-opacity="0.17"/>
<stop offset="1" stop-color="#FFC857" stop-opacity="0.43"/>
</linearGradient>
<linearGradient id="paint22_linear_1477_20218" x1="427.265" y1="575.661" x2="294.613" y2="498.253" gradientUnits="userSpaceOnUse">
<stop stop-color="#64497D" stop-opacity="0.17"/>
<stop offset="1" stop-color="#FFC857" stop-opacity="0.43"/>
</linearGradient>
<linearGradient id="paint23_linear_1477_20218" x1="415.382" y1="542.443" x2="282.73" y2="465.035" gradientUnits="userSpaceOnUse">
<stop stop-color="#64497D" stop-opacity="0.17"/>
<stop offset="1" stop-color="#FFC857" stop-opacity="0.43"/>
</linearGradient>
<linearGradient id="paint24_linear_1477_20218" x1="404.16" y1="511.035" x2="271.508" y2="433.627" gradientUnits="userSpaceOnUse">
<stop stop-color="#64497D" stop-opacity="0.17"/>
<stop offset="1" stop-color="#FFC857" stop-opacity="0.43"/>
</linearGradient>
<linearGradient id="paint25_linear_1477_20218" x1="392.277" y1="477.868" x2="259.625" y2="400.46" gradientUnits="userSpaceOnUse">
<stop stop-color="#64497D" stop-opacity="0.17"/>
<stop offset="1" stop-color="#FFC857" stop-opacity="0.43"/>
</linearGradient>
<linearGradient id="paint26_linear_1477_20218" x1="380.394" y1="444.617" x2="247.742" y2="367.209" gradientUnits="userSpaceOnUse">
<stop stop-color="#64497D" stop-opacity="0.17"/>
<stop offset="1" stop-color="#FFC857" stop-opacity="0.43"/>
</linearGradient>
<linearGradient id="paint27_linear_1477_20218" x1="368.515" y1="411.422" x2="235.863" y2="334.014" gradientUnits="userSpaceOnUse">
<stop stop-color="#64497D" stop-opacity="0.17"/>
<stop offset="1" stop-color="#FFC857" stop-opacity="0.43"/>
</linearGradient>
<linearGradient id="paint28_linear_1477_20218" x1="357.292" y1="380.04" x2="224.64" y2="302.632" gradientUnits="userSpaceOnUse">
<stop stop-color="#64497D" stop-opacity="0.17"/>
<stop offset="1" stop-color="#FFC857" stop-opacity="0.43"/>
</linearGradient>
<linearGradient id="paint29_linear_1477_20218" x1="345.41" y1="346.795" x2="212.758" y2="269.387" gradientUnits="userSpaceOnUse">
<stop stop-color="#64497D" stop-opacity="0.17"/>
<stop offset="1" stop-color="#FFC857" stop-opacity="0.43"/>
</linearGradient>
<linearGradient id="paint30_linear_1477_20218" x1="333.527" y1="313.576" x2="200.875" y2="236.168" gradientUnits="userSpaceOnUse">
<stop stop-color="#64497D" stop-opacity="0.17"/>
<stop offset="1" stop-color="#FFC857" stop-opacity="0.43"/>
</linearGradient>
<linearGradient id="paint31_linear_1477_20218" x1="321.644" y1="280.288" x2="188.992" y2="202.88" gradientUnits="userSpaceOnUse">
<stop stop-color="#64497D" stop-opacity="0.17"/>
<stop offset="1" stop-color="#FFC857" stop-opacity="0.43"/>
</linearGradient>
<linearGradient id="paint32_linear_1477_20218" x1="312.585" y1="251.225" x2="179.933" y2="173.817" gradientUnits="userSpaceOnUse">
<stop stop-color="#64497D" stop-opacity="0.17"/>
<stop offset="1" stop-color="#FFC857" stop-opacity="0.43"/>
</linearGradient>
<linearGradient id="paint33_linear_1477_20218" x1="300.703" y1="217.935" x2="168.051" y2="140.527" gradientUnits="userSpaceOnUse">
<stop stop-color="#64497D" stop-opacity="0.17"/>
<stop offset="1" stop-color="#FFC857" stop-opacity="0.43"/>
</linearGradient>
<linearGradient id="paint34_linear_1477_20218" x1="288.82" y1="184.755" x2="156.168" y2="107.347" gradientUnits="userSpaceOnUse">
<stop stop-color="#64497D" stop-opacity="0.17"/>
<stop offset="1" stop-color="#FFC857" stop-opacity="0.43"/>
</linearGradient>
<linearGradient id="paint35_linear_1477_20218" x1="276.937" y1="151.532" x2="144.285" y2="74.1247" gradientUnits="userSpaceOnUse">
<stop stop-color="#64497D" stop-opacity="0.17"/>
<stop offset="1" stop-color="#FFC857" stop-opacity="0.43"/>
</linearGradient>
<linearGradient id="paint36_linear_1477_20218" x1="265.714" y1="120.177" x2="133.062" y2="42.7694" gradientUnits="userSpaceOnUse">
<stop stop-color="#64497D" stop-opacity="0.17"/>
<stop offset="1" stop-color="#FFC857" stop-opacity="0.43"/>
</linearGradient>
<linearGradient id="paint37_linear_1477_20218" x1="253.832" y1="86.9331" x2="121.18" y2="9.52531" gradientUnits="userSpaceOnUse">
<stop stop-color="#64497D" stop-opacity="0.17"/>
<stop offset="1" stop-color="#FFC857" stop-opacity="0.43"/>
</linearGradient>
<linearGradient id="paint38_linear_1477_20218" x1="241.949" y1="53.7075" x2="109.297" y2="-23.7003" gradientUnits="userSpaceOnUse">
<stop stop-color="#64497D" stop-opacity="0.17"/>
<stop offset="1" stop-color="#FFC857" stop-opacity="0.43"/>
</linearGradient>
<linearGradient id="paint39_linear_1477_20218" x1="230.066" y1="20.4849" x2="97.4139" y2="-56.923" gradientUnits="userSpaceOnUse">
<stop stop-color="#64497D" stop-opacity="0.17"/>
<stop offset="1" stop-color="#FFC857" stop-opacity="0.43"/>
</linearGradient>
<linearGradient id="paint40_linear_1477_20218" x1="218.843" y1="-10.8469" x2="86.1912" y2="-88.2547" gradientUnits="userSpaceOnUse">
<stop stop-color="#64497D" stop-opacity="0.17"/>
<stop offset="1" stop-color="#FFC857" stop-opacity="0.43"/>
</linearGradient>
<linearGradient id="paint41_linear_1477_20218" x1="206.96" y1="-44.1123" x2="74.3084" y2="-121.52" gradientUnits="userSpaceOnUse">
<stop stop-color="#64497D" stop-opacity="0.17"/>
<stop offset="1" stop-color="#FFC857" stop-opacity="0.43"/>
</linearGradient>
<linearGradient id="paint42_linear_1477_20218" x1="195.078" y1="-77.3344" x2="62.4256" y2="-154.742" gradientUnits="userSpaceOnUse">
<stop stop-color="#64497D" stop-opacity="0.17"/>
<stop offset="1" stop-color="#FFC857" stop-opacity="0.43"/>
</linearGradient>
<linearGradient id="paint43_linear_1477_20218" x1="183.195" y1="-110.526" x2="50.5428" y2="-187.934" gradientUnits="userSpaceOnUse">
<stop stop-color="#64497D" stop-opacity="0.17"/>
<stop offset="1" stop-color="#FFC857" stop-opacity="0.43"/>
</linearGradient>
<clipPath id="clip0_1477_20218">
<rect width="600" height="1024" fill="white"/>
</clipPath>
</defs>
</svg>
