<svg width="2690" height="2709" viewBox="0 0 2690 2709" fill="none" xmlns="http://www.w3.org/2000/svg">
<path d="M143.56 1339.64L498.946 830.992C633.357 638.631 822.175 490.807 1041.17 406.488L1620.5 183.407" stroke="url(#paint0_linear_264_1202)" stroke-width="0.91152" stroke-miterlimit="10" stroke-linecap="round"/>
<path d="M168.809 1371.89L524.195 863.243C658.606 670.882 847.423 523.058 1066.42 438.739L1645.75 215.658" stroke="url(#paint1_linear_264_1202)" stroke-width="0.91152" stroke-miterlimit="10" stroke-linecap="round"/>
<path d="M194.059 1404.14L549.445 895.495C683.856 703.134 872.674 555.309 1091.67 470.99L1671 247.91" stroke="url(#paint2_linear_264_1202)" stroke-width="0.91152" stroke-miterlimit="10" stroke-linecap="round"/>
<path d="M219.308 1436.39L574.694 927.746C709.105 735.384 897.922 587.56 1116.92 503.241L1696.25 280.16" stroke="url(#paint3_linear_264_1202)" stroke-width="0.91152" stroke-miterlimit="10" stroke-linecap="round"/>
<path d="M243.155 1466.85L598.541 958.205C732.952 765.844 921.769 618.02 1140.77 533.701L1720.07 310.584" stroke="url(#paint4_linear_264_1202)" stroke-width="0.91152" stroke-miterlimit="10" stroke-linecap="round"/>
<path d="M268.404 1499.1L623.79 990.457C758.201 798.096 947.018 650.271 1166.01 565.952L1745.31 342.836" stroke="url(#paint5_linear_264_1202)" stroke-width="0.91152" stroke-miterlimit="10" stroke-linecap="round"/>
<path d="M293.654 1531.35L649.04 1022.71C783.451 830.347 972.268 682.523 1191.26 598.203L1770.56 375.087" stroke="url(#paint6_linear_264_1202)" stroke-width="0.91152" stroke-miterlimit="10" stroke-linecap="round"/>
<path d="M318.903 1563.6L674.289 1054.96C808.7 862.597 997.517 714.773 1216.51 630.453L1795.81 407.337" stroke="url(#paint7_linear_264_1202)" stroke-width="0.91152" stroke-miterlimit="10" stroke-linecap="round"/>
<path d="M342.75 1594.06L698.136 1085.42C832.546 893.058 1021.36 745.233 1240.36 660.914L1819.66 437.798" stroke="url(#paint8_linear_264_1202)" stroke-width="0.91152" stroke-miterlimit="10" stroke-linecap="round"/>
<path d="M367.999 1626.32L723.385 1117.67C857.795 925.309 1046.61 777.485 1265.61 693.166L1844.91 470.05" stroke="url(#paint9_linear_264_1202)" stroke-width="0.91152" stroke-miterlimit="10" stroke-linecap="round"/>
<path d="M393.249 1658.57L748.635 1149.92C883.045 957.56 1071.86 809.736 1290.86 725.417L1870.16 502.301" stroke="url(#paint10_linear_264_1202)" stroke-width="0.91152" stroke-miterlimit="10" stroke-linecap="round"/>
<path d="M418.497 1690.82L773.883 1182.17C908.294 989.812 1097.11 841.987 1316.11 757.668L1895.41 534.552" stroke="url(#paint11_linear_264_1202)" stroke-width="0.91152" stroke-miterlimit="10" stroke-linecap="round"/>
<path d="M442.345 1721.28L797.73 1212.63C932.141 1020.27 1120.96 872.448 1339.95 788.128L1919.26 565.012" stroke="url(#paint12_linear_264_1202)" stroke-width="0.91152" stroke-miterlimit="10" stroke-linecap="round"/>
<path d="M467.594 1753.53L822.979 1244.88C957.39 1052.52 1146.21 904.699 1365.2 820.38L1944.5 597.263" stroke="url(#paint13_linear_264_1202)" stroke-width="0.91152" stroke-miterlimit="10" stroke-linecap="round"/>
<path d="M492.844 1785.78L848.229 1277.14C982.64 1084.77 1171.46 936.95 1390.45 852.631L1969.75 629.514" stroke="url(#paint14_linear_264_1202)" stroke-width="0.91152" stroke-miterlimit="10" stroke-linecap="round"/>
<path d="M518.092 1818.03L873.478 1309.39C1007.89 1117.03 1196.71 969.201 1415.7 884.882L1995.03 661.802" stroke="url(#paint15_linear_264_1202)" stroke-width="0.91152" stroke-miterlimit="10" stroke-linecap="round"/>
<path d="M543.343 1850.28L898.728 1341.64C1033.14 1149.28 1221.96 1001.45 1440.95 917.133L2020.28 694.052" stroke="url(#paint16_linear_264_1202)" stroke-width="0.91152" stroke-miterlimit="10" stroke-linecap="round"/>
<path d="M568.591 1882.53L923.977 1373.89C1058.39 1181.53 1247.21 1033.7 1466.2 949.385L2045.53 726.304" stroke="url(#paint17_linear_264_1202)" stroke-width="0.91152" stroke-miterlimit="10" stroke-linecap="round"/>
<path d="M593.841 1914.79L949.227 1406.14C1083.64 1213.78 1272.46 1065.96 1491.45 981.636L2070.78 758.556" stroke="url(#paint18_linear_264_1202)" stroke-width="0.91152" stroke-miterlimit="10" stroke-linecap="round"/>
<path d="M619.09 1947.04L974.476 1438.39C1108.89 1246.03 1297.7 1098.21 1516.7 1013.89L2096.03 790.807" stroke="url(#paint19_linear_264_1202)" stroke-width="0.91152" stroke-miterlimit="10" stroke-linecap="round"/>
<path d="M642.937 1977.5L998.323 1468.85C1132.73 1276.49 1321.55 1128.67 1540.55 1044.35L2119.88 821.266" stroke="url(#paint20_linear_264_1202)" stroke-width="0.91152" stroke-miterlimit="10" stroke-linecap="round"/>
<path d="M668.186 2009.75L1023.57 1501.1C1157.98 1308.74 1346.8 1160.92 1565.8 1076.6L2145.12 853.518" stroke="url(#paint21_linear_264_1202)" stroke-width="0.91152" stroke-miterlimit="10" stroke-linecap="round"/>
<path d="M693.436 2042L1048.82 1533.35C1183.23 1340.99 1372.05 1193.17 1591.05 1108.85L2170.37 885.769" stroke="url(#paint22_linear_264_1202)" stroke-width="0.91152" stroke-miterlimit="10" stroke-linecap="round"/>
<path d="M718.685 2074.25L1074.07 1565.61C1208.48 1373.25 1397.3 1225.42 1616.3 1141.1L2195.62 918.021" stroke="url(#paint23_linear_264_1202)" stroke-width="0.91152" stroke-miterlimit="10" stroke-linecap="round"/>
<path d="M742.532 2104.71L1097.92 1596.07C1232.33 1403.7 1421.15 1255.88 1640.14 1171.56L2219.47 948.481" stroke="url(#paint24_linear_264_1202)" stroke-width="0.91152" stroke-miterlimit="10" stroke-linecap="round"/>
<path d="M767.781 2136.96L1123.17 1628.32C1257.58 1435.96 1446.39 1288.13 1665.39 1203.81L2244.72 980.732" stroke="url(#paint25_linear_264_1202)" stroke-width="0.91152" stroke-miterlimit="10" stroke-linecap="round"/>
<path d="M793.031 2169.21L1148.42 1660.57C1282.83 1468.21 1471.65 1320.38 1690.64 1236.06L2269.97 1012.98" stroke="url(#paint26_linear_264_1202)" stroke-width="0.91152" stroke-miterlimit="10" stroke-linecap="round"/>
<path d="M818.28 2201.46L1173.67 1692.82C1308.08 1500.46 1496.89 1352.63 1715.89 1268.31L2295.22 1045.23" stroke="url(#paint27_linear_264_1202)" stroke-width="0.91152" stroke-miterlimit="10" stroke-linecap="round"/>
<path d="M842.127 2231.92L1197.51 1723.28C1331.92 1530.92 1520.74 1383.09 1739.74 1298.77L2319.07 1075.69" stroke="url(#paint28_linear_264_1202)" stroke-width="0.91152" stroke-miterlimit="10" stroke-linecap="round"/>
<path d="M867.376 2264.18L1222.76 1755.53C1357.17 1563.17 1545.99 1415.34 1764.99 1331.03L2344.31 1107.95" stroke="url(#paint29_linear_264_1202)" stroke-width="0.91152" stroke-miterlimit="10" stroke-linecap="round"/>
<path d="M892.626 2296.43L1248.01 1787.78C1382.42 1595.42 1571.24 1447.6 1790.24 1363.28L2369.56 1140.2" stroke="url(#paint30_linear_264_1202)" stroke-width="0.91152" stroke-miterlimit="10" stroke-linecap="round"/>
<path d="M917.874 2328.68L1273.26 1820.03C1407.67 1627.67 1596.49 1479.85 1815.48 1395.53L2394.81 1172.45" stroke="url(#paint31_linear_264_1202)" stroke-width="0.91152" stroke-miterlimit="10" stroke-linecap="round"/>
<path d="M937.124 2356.96L1292.51 1848.31C1426.92 1655.95 1615.74 1508.13 1834.73 1423.81L2414.06 1200.73" stroke="url(#paint32_linear_264_1202)" stroke-width="0.91152" stroke-miterlimit="10" stroke-linecap="round"/>
<path d="M962.373 2389.21L1317.76 1880.56C1452.17 1688.2 1640.99 1540.38 1859.98 1456.06L2439.31 1232.98" stroke="url(#paint33_linear_264_1202)" stroke-width="0.91152" stroke-miterlimit="10" stroke-linecap="round"/>
<path d="M987.623 2421.46L1343.01 1912.81C1477.42 1720.45 1666.24 1572.63 1885.23 1488.31L2464.56 1265.23" stroke="url(#paint34_linear_264_1202)" stroke-width="0.91152" stroke-miterlimit="10" stroke-linecap="round"/>
<path d="M1012.87 2453.71L1368.26 1945.07C1502.67 1752.7 1691.49 1604.88 1910.48 1520.56L2489.81 1297.48" stroke="url(#paint35_linear_264_1202)" stroke-width="0.91152" stroke-miterlimit="10" stroke-linecap="round"/>
<path d="M1036.72 2484.17L1392.1 1975.53C1526.52 1783.16 1715.33 1635.34 1934.33 1551.02L2513.66 1327.94" stroke="url(#paint36_linear_264_1202)" stroke-width="0.91152" stroke-miterlimit="10" stroke-linecap="round"/>
<path d="M1061.97 2516.42L1417.35 2007.78C1551.76 1815.42 1740.58 1667.59 1959.58 1583.27L2538.91 1360.19" stroke="url(#paint37_linear_264_1202)" stroke-width="0.91152" stroke-miterlimit="10" stroke-linecap="round"/>
<path d="M1087.22 2548.67L1442.6 2040.03C1577.01 1847.67 1765.83 1699.84 1984.83 1615.52L2564.16 1392.44" stroke="url(#paint38_linear_264_1202)" stroke-width="0.91152" stroke-miterlimit="10" stroke-linecap="round"/>
<path d="M1112.47 2580.93L1467.85 2072.28C1602.26 1879.92 1791.08 1732.1 2010.08 1647.78L2589.41 1424.7" stroke="url(#paint39_linear_264_1202)" stroke-width="0.91152" stroke-miterlimit="10" stroke-linecap="round"/>
<path d="M1136.31 2611.38L1491.7 2102.74C1626.11 1910.38 1814.93 1762.55 2033.92 1678.23L2613.25 1455.15" stroke="url(#paint40_linear_264_1202)" stroke-width="0.91152" stroke-miterlimit="10" stroke-linecap="round"/>
<path d="M1161.56 2643.64L1516.95 2134.99C1651.36 1942.63 1840.18 1794.8 2059.17 1710.49L2638.5 1487.41" stroke="url(#paint41_linear_264_1202)" stroke-width="0.91152" stroke-miterlimit="10" stroke-linecap="round"/>
<path d="M1186.81 2675.89L1542.2 2167.24C1676.61 1974.88 1865.43 1827.06 2084.42 1742.74L2663.75 1519.66" stroke="url(#paint42_linear_264_1202)" stroke-width="0.91152" stroke-miterlimit="10" stroke-linecap="round"/>
<path d="M1212.06 2708.14L1567.45 2199.49C1701.86 2007.13 1890.68 1859.31 2109.67 1774.99L2689 1551.91" stroke="url(#paint43_linear_264_1202)" stroke-width="0.91152" stroke-miterlimit="10" stroke-linecap="round"/>
<defs>
<linearGradient id="paint0_linear_264_1202" x1="738.455" y1="578.133" x2="882.044" y2="761.54" gradientUnits="userSpaceOnUse">
<stop stop-color="#64497D"/>
<stop offset="1" stop-color="#FFC857" stop-opacity="0.43"/>
</linearGradient>
<linearGradient id="paint1_linear_264_1202" x1="763.704" y1="610.384" x2="907.293" y2="793.791" gradientUnits="userSpaceOnUse">
<stop stop-color="#64497D"/>
<stop offset="1" stop-color="#FFC857" stop-opacity="0.43"/>
</linearGradient>
<linearGradient id="paint2_linear_264_1202" x1="788.954" y1="642.636" x2="932.543" y2="826.043" gradientUnits="userSpaceOnUse">
<stop stop-color="#64497D"/>
<stop offset="1" stop-color="#FFC857" stop-opacity="0.43"/>
</linearGradient>
<linearGradient id="paint3_linear_264_1202" x1="814.203" y1="674.886" x2="957.792" y2="858.293" gradientUnits="userSpaceOnUse">
<stop stop-color="#64497D"/>
<stop offset="1" stop-color="#FFC857" stop-opacity="0.43"/>
</linearGradient>
<linearGradient id="paint4_linear_264_1202" x1="838.05" y1="705.346" x2="981.611" y2="888.717" gradientUnits="userSpaceOnUse">
<stop stop-color="#64497D"/>
<stop offset="1" stop-color="#FFC857" stop-opacity="0.43"/>
</linearGradient>
<linearGradient id="paint5_linear_264_1202" x1="863.299" y1="737.597" x2="1006.86" y2="920.969" gradientUnits="userSpaceOnUse">
<stop stop-color="#64497D"/>
<stop offset="1" stop-color="#FFC857" stop-opacity="0.43"/>
</linearGradient>
<linearGradient id="paint6_linear_264_1202" x1="888.549" y1="769.849" x2="1032.11" y2="953.22" gradientUnits="userSpaceOnUse">
<stop stop-color="#64497D"/>
<stop offset="1" stop-color="#FFC857" stop-opacity="0.43"/>
</linearGradient>
<linearGradient id="paint7_linear_264_1202" x1="913.798" y1="802.099" x2="1057.36" y2="985.47" gradientUnits="userSpaceOnUse">
<stop stop-color="#64497D"/>
<stop offset="1" stop-color="#FFC857" stop-opacity="0.43"/>
</linearGradient>
<linearGradient id="paint8_linear_264_1202" x1="937.645" y1="832.559" x2="1081.21" y2="1015.93" gradientUnits="userSpaceOnUse">
<stop stop-color="#64497D"/>
<stop offset="1" stop-color="#FFC857" stop-opacity="0.43"/>
</linearGradient>
<linearGradient id="paint9_linear_264_1202" x1="962.894" y1="864.811" x2="1106.45" y2="1048.18" gradientUnits="userSpaceOnUse">
<stop stop-color="#64497D"/>
<stop offset="1" stop-color="#FFC857" stop-opacity="0.43"/>
</linearGradient>
<linearGradient id="paint10_linear_264_1202" x1="988.144" y1="897.062" x2="1131.7" y2="1080.43" gradientUnits="userSpaceOnUse">
<stop stop-color="#64497D"/>
<stop offset="1" stop-color="#FFC857" stop-opacity="0.43"/>
</linearGradient>
<linearGradient id="paint11_linear_264_1202" x1="1013.39" y1="929.314" x2="1156.95" y2="1112.68" gradientUnits="userSpaceOnUse">
<stop stop-color="#64497D"/>
<stop offset="1" stop-color="#FFC857" stop-opacity="0.43"/>
</linearGradient>
<linearGradient id="paint12_linear_264_1202" x1="1037.24" y1="959.774" x2="1180.8" y2="1143.14" gradientUnits="userSpaceOnUse">
<stop stop-color="#64497D"/>
<stop offset="1" stop-color="#FFC857" stop-opacity="0.43"/>
</linearGradient>
<linearGradient id="paint13_linear_264_1202" x1="1062.49" y1="992.025" x2="1206.05" y2="1175.4" gradientUnits="userSpaceOnUse">
<stop stop-color="#64497D"/>
<stop offset="1" stop-color="#FFC857" stop-opacity="0.43"/>
</linearGradient>
<linearGradient id="paint14_linear_264_1202" x1="1087.74" y1="1024.28" x2="1231.3" y2="1207.65" gradientUnits="userSpaceOnUse">
<stop stop-color="#64497D"/>
<stop offset="1" stop-color="#FFC857" stop-opacity="0.43"/>
</linearGradient>
<linearGradient id="paint15_linear_264_1202" x1="1112.99" y1="1056.53" x2="1256.58" y2="1239.93" gradientUnits="userSpaceOnUse">
<stop stop-color="#64497D"/>
<stop offset="1" stop-color="#FFC857" stop-opacity="0.43"/>
</linearGradient>
<linearGradient id="paint16_linear_264_1202" x1="1138.24" y1="1088.78" x2="1281.83" y2="1272.19" gradientUnits="userSpaceOnUse">
<stop stop-color="#64497D"/>
<stop offset="1" stop-color="#FFC857" stop-opacity="0.43"/>
</linearGradient>
<linearGradient id="paint17_linear_264_1202" x1="1163.49" y1="1121.03" x2="1307.07" y2="1304.44" gradientUnits="userSpaceOnUse">
<stop stop-color="#64497D"/>
<stop offset="1" stop-color="#FFC857" stop-opacity="0.43"/>
</linearGradient>
<linearGradient id="paint18_linear_264_1202" x1="1188.74" y1="1153.28" x2="1332.32" y2="1336.69" gradientUnits="userSpaceOnUse">
<stop stop-color="#64497D"/>
<stop offset="1" stop-color="#FFC857" stop-opacity="0.43"/>
</linearGradient>
<linearGradient id="paint19_linear_264_1202" x1="1213.99" y1="1185.53" x2="1357.57" y2="1368.94" gradientUnits="userSpaceOnUse">
<stop stop-color="#64497D"/>
<stop offset="1" stop-color="#FFC857" stop-opacity="0.43"/>
</linearGradient>
<linearGradient id="paint20_linear_264_1202" x1="1237.83" y1="1215.99" x2="1381.42" y2="1399.4" gradientUnits="userSpaceOnUse">
<stop stop-color="#64497D"/>
<stop offset="1" stop-color="#FFC857" stop-opacity="0.43"/>
</linearGradient>
<linearGradient id="paint21_linear_264_1202" x1="1263.08" y1="1248.24" x2="1406.67" y2="1431.65" gradientUnits="userSpaceOnUse">
<stop stop-color="#64497D"/>
<stop offset="1" stop-color="#FFC857" stop-opacity="0.43"/>
</linearGradient>
<linearGradient id="paint22_linear_264_1202" x1="1288.33" y1="1280.49" x2="1431.92" y2="1463.9" gradientUnits="userSpaceOnUse">
<stop stop-color="#64497D"/>
<stop offset="1" stop-color="#FFC857" stop-opacity="0.43"/>
</linearGradient>
<linearGradient id="paint23_linear_264_1202" x1="1313.58" y1="1312.75" x2="1457.17" y2="1496.15" gradientUnits="userSpaceOnUse">
<stop stop-color="#64497D"/>
<stop offset="1" stop-color="#FFC857" stop-opacity="0.43"/>
</linearGradient>
<linearGradient id="paint24_linear_264_1202" x1="1337.43" y1="1343.21" x2="1481.02" y2="1526.61" gradientUnits="userSpaceOnUse">
<stop stop-color="#64497D"/>
<stop offset="1" stop-color="#FFC857" stop-opacity="0.43"/>
</linearGradient>
<linearGradient id="paint25_linear_264_1202" x1="1362.68" y1="1375.46" x2="1506.26" y2="1558.86" gradientUnits="userSpaceOnUse">
<stop stop-color="#64497D"/>
<stop offset="1" stop-color="#FFC857" stop-opacity="0.43"/>
</linearGradient>
<linearGradient id="paint26_linear_264_1202" x1="1387.93" y1="1407.71" x2="1531.51" y2="1591.12" gradientUnits="userSpaceOnUse">
<stop stop-color="#64497D"/>
<stop offset="1" stop-color="#FFC857" stop-opacity="0.43"/>
</linearGradient>
<linearGradient id="paint27_linear_264_1202" x1="1413.17" y1="1439.96" x2="1556.76" y2="1623.37" gradientUnits="userSpaceOnUse">
<stop stop-color="#64497D"/>
<stop offset="1" stop-color="#FFC857" stop-opacity="0.43"/>
</linearGradient>
<linearGradient id="paint28_linear_264_1202" x1="1437.02" y1="1470.42" x2="1580.61" y2="1653.83" gradientUnits="userSpaceOnUse">
<stop stop-color="#64497D"/>
<stop offset="1" stop-color="#FFC857" stop-opacity="0.43"/>
</linearGradient>
<linearGradient id="paint29_linear_264_1202" x1="1462.27" y1="1502.67" x2="1605.86" y2="1686.08" gradientUnits="userSpaceOnUse">
<stop stop-color="#64497D"/>
<stop offset="1" stop-color="#FFC857" stop-opacity="0.43"/>
</linearGradient>
<linearGradient id="paint30_linear_264_1202" x1="1487.52" y1="1534.92" x2="1631.11" y2="1718.33" gradientUnits="userSpaceOnUse">
<stop stop-color="#64497D"/>
<stop offset="1" stop-color="#FFC857" stop-opacity="0.43"/>
</linearGradient>
<linearGradient id="paint31_linear_264_1202" x1="1512.77" y1="1567.17" x2="1656.36" y2="1750.58" gradientUnits="userSpaceOnUse">
<stop stop-color="#64497D"/>
<stop offset="1" stop-color="#FFC857" stop-opacity="0.43"/>
</linearGradient>
<linearGradient id="paint32_linear_264_1202" x1="1532.02" y1="1595.45" x2="1675.61" y2="1778.86" gradientUnits="userSpaceOnUse">
<stop stop-color="#64497D"/>
<stop offset="1" stop-color="#FFC857" stop-opacity="0.43"/>
</linearGradient>
<linearGradient id="paint33_linear_264_1202" x1="1557.27" y1="1627.7" x2="1700.86" y2="1811.11" gradientUnits="userSpaceOnUse">
<stop stop-color="#64497D"/>
<stop offset="1" stop-color="#FFC857" stop-opacity="0.43"/>
</linearGradient>
<linearGradient id="paint34_linear_264_1202" x1="1582.52" y1="1659.96" x2="1726.11" y2="1843.36" gradientUnits="userSpaceOnUse">
<stop stop-color="#64497D"/>
<stop offset="1" stop-color="#FFC857" stop-opacity="0.43"/>
</linearGradient>
<linearGradient id="paint35_linear_264_1202" x1="1607.77" y1="1692.21" x2="1751.36" y2="1875.61" gradientUnits="userSpaceOnUse">
<stop stop-color="#64497D"/>
<stop offset="1" stop-color="#FFC857" stop-opacity="0.43"/>
</linearGradient>
<linearGradient id="paint36_linear_264_1202" x1="1631.61" y1="1722.67" x2="1775.2" y2="1906.07" gradientUnits="userSpaceOnUse">
<stop stop-color="#64497D"/>
<stop offset="1" stop-color="#FFC857" stop-opacity="0.43"/>
</linearGradient>
<linearGradient id="paint37_linear_264_1202" x1="1656.86" y1="1754.92" x2="1800.45" y2="1938.33" gradientUnits="userSpaceOnUse">
<stop stop-color="#64497D"/>
<stop offset="1" stop-color="#FFC857" stop-opacity="0.43"/>
</linearGradient>
<linearGradient id="paint38_linear_264_1202" x1="1682.11" y1="1787.17" x2="1825.7" y2="1970.58" gradientUnits="userSpaceOnUse">
<stop stop-color="#64497D"/>
<stop offset="1" stop-color="#FFC857" stop-opacity="0.43"/>
</linearGradient>
<linearGradient id="paint39_linear_264_1202" x1="1707.36" y1="1819.42" x2="1850.95" y2="2002.83" gradientUnits="userSpaceOnUse">
<stop stop-color="#64497D"/>
<stop offset="1" stop-color="#FFC857" stop-opacity="0.43"/>
</linearGradient>
<linearGradient id="paint40_linear_264_1202" x1="1731.21" y1="1849.88" x2="1874.8" y2="2033.29" gradientUnits="userSpaceOnUse">
<stop stop-color="#64497D"/>
<stop offset="1" stop-color="#FFC857" stop-opacity="0.43"/>
</linearGradient>
<linearGradient id="paint41_linear_264_1202" x1="1756.46" y1="1882.13" x2="1900.05" y2="2065.54" gradientUnits="userSpaceOnUse">
<stop stop-color="#64497D"/>
<stop offset="1" stop-color="#FFC857" stop-opacity="0.43"/>
</linearGradient>
<linearGradient id="paint42_linear_264_1202" x1="1781.71" y1="1914.38" x2="1925.3" y2="2097.79" gradientUnits="userSpaceOnUse">
<stop stop-color="#64497D"/>
<stop offset="1" stop-color="#FFC857" stop-opacity="0.43"/>
</linearGradient>
<linearGradient id="paint43_linear_264_1202" x1="1806.96" y1="1946.63" x2="1950.54" y2="2130.04" gradientUnits="userSpaceOnUse">
<stop stop-color="#64497D"/>
<stop offset="1" stop-color="#FFC857" stop-opacity="0.43"/>
</linearGradient>
</defs>
</svg>
